g Area_Common_Build_Ruin_Wall_M_01_Col
v -3.026037 0.7467813 1.091421
v -3.254892 1.681516 1.091421
v -2.114119 1.681516 1.091421
v -3.254892 1.681516 0.10628
v -4.156004 1.650807 1.199253
v -4.998726 1.620099 0.694744
v -2.000571 1.681516 0.1548205
v -2.114119 2.059325 1.091421
v -2.000571 2.059325 0.1062801
v -1.943164 2.637244 1.091421
v -1.93562 2.627824 0.07061104
v -1.806735 2.051429 -0.9611579
v -1.758407 2.655977 -0.7405259
v -0.5903949 3.13775 0.1064669
v -3.210832 2.060182 -0.9630398
v -3.210832 2.060182 0.10628
v -3.232862 1.667653 -0.9630398
v -4.504777 1.620099 -0.6145285
v -4.088887 0.7478631 -1.14151
v -5.00458 0.7464855 0.6957158
v -1.859387 0.7048923 -0.9891521
v 3.816386 1.925332 -1.119553
v 4.176689 0.7150429 -1.119554
v 0.382028 3.099937 -1.119553
v 3.812033 3.117983 -1.119553
v 3.954073 2.522163 -0.4086
v 4.16387 1.814621 -0.931627
v 4.192733 1.920035 -0.01406632
v 4.182217 0.7479191 -0.01406654
v 4.084727 0.7320178 1.091421
v 4.208849 3.118994 -0.0140663
v 4.268783 3.834275 -1.086954
v 4.267136 4.583882 -1.119553
v 4.217033 4.599561 0.9654203
v 3.728259 5.427981 1.091421
v 3.913077 5.410653 -1.088176
v 4.342907 6.356734 0.1062813
v 4.277618 6.311173 1.028985
v 4.544911 7.466682 1.091421
v 0.5890819 5.869651 0.9700181
v -0.6019794 6.828478 1.091421
v 4.494979 7.466589 -1.069307
v -0.8702292 7.489089 -1.069307
v -1.069333 6.780979 -1.060239
v -0.5939714 5.869651 -1.119553
v -0.5863166 5.878244 0.1062811
v -0.5308304 4.480107 0.005538733
v -0.2834572 4.604159 -0.8408471
v -1.140076 6.86598 -0.08999921
v -0.8970479 7.466358 0.1062813
v -0.8970482 7.466358 1.091421
v -0.3700615 7.489089 0.1062813
v -0.1878373 5.022655 0.5266628
v 0.5890826 4.741723 0.9700181
v -0.474281 4.618433 0.6957701
v -0.5352324 3.09975 1.091421
v -1.626743 2.903421 0.3584327
v -3.210832 0.7479451 -0.9630398
v -4.1047 0.7466334 1.101784
v -0.2370843 3.148747 -0.5869144
v 0.5620737 4.604159 -1.119553
v -1.106916 7.466754 0.9259958
v 4.531769 7.466754 1.142457
v 4.655774 7.466754 0.9259958
v -0.9146539 7.466754 1.142457
v 4.443645 8.010897 1.142457
v -0.9629321 8.010897 1.142457
v -1.249505 8.276799 0.8571135
v 4.213148 8.276799 0.8571135
v 4.556576 7.466754 -0.9252986
v -1.221902 7.466754 -0.9252986
v -0.8835669 7.466754 -1.180453
v -1.026155 8.010897 -1.180453
v 4.504756 7.466754 -1.180453
v 4.640212 8.010897 -1.180453
v -1.364491 8.276799 -0.878521
v 4.556576 8.276799 -0.878521
v -5.060151 -0.07435498 0.9201937
v 4.783978 0.2183766 1.177945
v 4.957182 -0.07435498 0.9201937
v -5.060151 0.2183766 1.177945
v 4.644651 0.747621 1.177945
v -5.036549 0.747621 1.177945
v -5.036549 0.7476211 4.577859E-17
v 4.729469 0.7476211 4.577859E-17
v 4.729469 0.7476213 -1.217014
v -5.036549 0.7476212 -1.217014
v 4.714363 0.2183767 -1.217014
v -5.141546 0.2183767 -1.217014
v -5.141546 -0.0743549 -0.9201937
v 4.970088 -0.07435489 -0.9201937
v 5.098775 -0.07033713 0.173185
v -0.1878373 5.022655 0.5266628
v -0.5308304 4.480107 0.005538733
v 0.5620737 4.604159 -1.119553
v 0.004208412 3.922219 -0.510106
v 0.382028 3.099937 -1.119553
v 0.382028 3.099937 -1.119553
v 0.004208412 3.922219 -0.510106
v -0.2370843 3.148747 -0.5869144
v -0.5903949 3.13775 0.1064669
v 0.004208412 3.922219 -0.510106
v -0.5308304 4.480107 0.005538733
v -0.5308304 4.480107 0.005538733
v 0.004208412 3.922219 -0.510106
v -0.2834572 4.604159 -0.8408471
v -0.2834572 4.604159 -0.8408471
v 0.004208412 3.922219 -0.510106
v 0.5620737 4.604159 -1.119553
v -0.2370843 3.148747 -0.5869144
v 0.004208412 3.922219 -0.510106
v -0.5903949 3.13775 0.1064669
vn -0.001865814 -0.7052539 0.7089524
vn 0.01116992 0.7158709 0.6981434
vn -0.307281 0.3333043 0.8913398
vn -0.325668 0.9092815 0.2591286
vn -0.1638148 0.6049946 0.7791959
vn -0.788528 0.5671867 0.2377454
vn -0.6241601 0.600019 0.5004013
vn -0.7665927 0.1084618 0.6329073
vn -0.8678957 0.4539003 0.2018205
vn -0.6063492 0.4866981 0.6288607
vn -0.8282648 0.5443068 -0.1330698
vn -0.2780012 0.3605188 -0.8903603
vn -0.628068 0.6053708 -0.4889343
vn -0.5991675 0.7995754 -0.04095713
vn -0.5580593 0.5924842 -0.5809753
vn -0.5534564 0.6088721 0.5682965
vn -0.3241606 0.3380962 -0.8835219
vn -0.650281 0.5897012 -0.4789439
vn -0.3508326 -0.5220627 -0.7774104
vn -0.7726648 -0.5842262 0.2483321
vn -0.02124469 -0.7098767 -0.7040055
vn 0.3519235 0.1565716 -0.9228409
vn 0.575752 -0.5673112 -0.5887849
vn -0.0590536 0.09102765 -0.9940958
vn 0.4276595 -0.1554168 -0.890479
vn 0.9406873 0.01518732 -0.3389348
vn 0.8312038 0.2786135 -0.4811183
vn 0.9981419 0.05280191 -0.03041036
vn 0.8495558 -0.5260409 0.03919181
vn 0.5457851 -0.5832437 0.6016189
vn 0.9932613 -0.09485246 -0.06659652
vn 0.7478781 -0.09236302 -0.6573792
vn 0.6802492 0.143769 -0.718743
vn 0.8177926 0.1901511 0.5431924
vn 0.5097985 -0.007487068 0.8602613
vn 0.6194985 0.01638337 -0.7848268
vn 0.9442602 -0.3291779 -0.003797971
vn 0.764648 -0.3195167 0.5596628
vn 0.636808 0.5144775 0.5742721
vn -0.218269 -0.1206337 0.9684039
vn -0.5274171 -0.2876031 0.7994471
vn 0.631914 0.5136836 -0.5803567
vn -0.4868911 0.6670415 -0.5639083
vn -0.7586998 -0.0962149 -0.644296
vn -0.6151114 -0.1895872 -0.7653069
vn -0.8737494 -0.3050453 0.3788265
vn -0.9976704 0.05501713 -0.0403363
vn -0.6785326 -0.312863 -0.6646128
vn -0.9894617 0.04087909 0.138904
vn -0.5939976 0.6977491 -0.400391
vn -0.699804 0.440646 0.5622326
vn -0.1205367 0.991554 -0.04787052
vn -0.5798495 0.3551465 0.7332432
vn -0.1942511 0.1233332 0.9731678
vn -0.7592272 0.3987182 0.5143909
vn -0.3518015 0.3336784 0.8745824
vn -0.4113184 0.9032457 -0.1223291
vn 0.04986667 -0.7290816 -0.6826078
vn -0.1242285 -0.694258 0.708924
vn -0.2678488 0.9180481 -0.2923093
vn -0.0476069 -0.0474774 -0.9977372
vn -0.661791 -0.6867023 0.3007865
vn 0.4393966 -0.5767518 0.6886857
vn 0.8581212 -0.5011351 0.1117659
vn -0.2982417 -0.6394041 0.7086708
vn 0.6157839 0.504386 0.6053138
vn -0.325621 0.2943978 0.8984993
vn -0.6862332 0.6101839 0.3959289
vn 0.4182085 0.8677464 0.2685477
vn 0.7456759 -0.6655231 -0.03234871
vn -0.6666813 -0.6755316 -0.314949
vn -0.2005398 -0.6680622 -0.7165729
vn -0.3070619 0.2942732 -0.9050504
vn 0.5026954 -0.6047813 -0.6176869
vn 0.8083987 0.2319227 -0.5410206
vn -0.7211082 0.5920832 -0.3597782
vn 0.6670294 0.7204897 -0.189648
vn -0.6283951 -0.706333 0.3259039
vn 0.5143279 -0.16858 0.8408613
vn 0.7130328 -0.5725054 0.404749
vn -0.6460312 -0.2593861 0.7178876
vn 0.4449814 0.6516227 0.6143121
vn -0.563176 0.5888512 0.57973
vn -0.6785752 0.7343757 0.01509859
vn 0.5764618 0.8170953 -0.006872087
vn 0.5862802 0.5697854 -0.5758646
vn -0.5324561 0.6141918 -0.5824594
vn 0.5322297 -0.2236548 -0.8165232
vn -0.7227303 -0.2166534 -0.6562943
vn -0.6765957 -0.679226 -0.2843768
vn 0.7481854 -0.5058492 -0.4293428
vn 0.8631132 -0.503064 0.04429634
vn -0.7953693 -0.07490426 0.6014792
vn -0.7953693 -0.07490426 0.6014792
vn -0.7844737 0.09389656 -0.6130127
vn -0.7844737 0.09389655 -0.6130127
vn -0.7844737 0.09389655 -0.6130126
vn -0.6165645 0.2659308 -0.7410324
vn -0.6165645 0.2659308 -0.7410324
vn -0.6165645 0.2659308 -0.7410324
vn -0.7055412 -0.0219503 -0.7083289
vn -0.7055412 -0.0219503 -0.7083289
vn -0.7055413 -0.0219503 -0.7083289
vn -0.8128711 -0.4931799 -0.3098617
vn -0.8128711 -0.4931798 -0.3098616
vn -0.8128711 -0.4931798 -0.3098616
vn -0.2693078 -0.5098573 -0.8170182
vn -0.2693078 -0.5098573 -0.8170183
vn -0.2693078 -0.5098574 -0.8170183
vn -0.8497623 0.3076057 -0.4281153
vn -0.8497623 0.3076057 -0.4281154
vn -0.8497623 0.3076057 -0.4281153
g Area_Common_Build_Ruin_Wall_M_01_Col_0
f 3/3/3 2/2/2 1/1/1
f 2/2/2 3/3/3 4/4/4
f 2/2/2 4/4/4 5/5/5
f 6/6/6 5/5/5 4/4/4
f 7/7/7 4/4/4 3/3/3
f 3/3/3 8/8/8 7/7/7
f 9/9/9 7/7/7 8/8/8
f 8/8/8 10/10/10 9/9/9
f 8/8/8 3/3/3 10/10/10
f 11/11/11 9/9/9 10/10/10
f 9/9/9 11/11/11 12/12/12
f 13/13/13 12/12/12 11/11/11
f 11/11/11 14/14/14 13/13/13
f 12/12/12 15/15/15 9/9/9
f 16/16/16 9/9/9 15/15/15
f 4/4/4 7/7/7 16/16/16
f 9/9/9 16/16/16 7/7/7
f 4/4/4 16/16/16 17/17/17
f 15/15/15 17/17/17 16/16/16
f 15/15/15 12/12/12 17/17/17
f 6/6/6 4/4/4 18/18/18
f 17/17/17 18/18/18 4/4/4
f 18/18/18 17/17/17 19/19/19
f 19/19/19 6/6/6 18/18/18
f 20/20/20 6/6/6 19/19/19
f 6/6/6 20/20/20 5/5/5
f 21/21/21 17/17/17 12/12/12
f 12/12/12 22/22/22 21/21/21
f 23/23/23 21/21/21 22/22/22
f 12/12/12 24/24/24 22/22/22
f 13/13/13 24/24/24 12/12/12
f 25/25/25 22/22/22 24/24/24
f 25/25/25 26/26/26 22/22/22
f 27/27/27 22/22/22 26/26/26
f 27/27/27 23/23/23 22/22/22
f 27/27/27 28/28/28 23/23/23
f 28/28/28 27/27/27 26/26/26
f 29/29/29 23/23/23 28/28/28
f 29/29/29 28/28/28 30/30/30
f 29/29/29 30/30/30 23/23/23
f 23/23/23 30/30/30 21/21/21
f 26/26/26 31/31/31 28/28/28
f 28/28/28 31/31/31 30/30/30
f 26/26/26 32/32/32 31/31/31
f 25/25/25 32/32/32 26/26/26
f 32/32/32 33/33/33 31/31/31
f 34/34/34 31/31/31 33/33/33
f 34/34/34 30/30/30 31/31/31
f 34/34/34 33/33/33 35/35/35
f 34/34/34 35/35/35 30/30/30
f 36/36/36 35/35/35 33/33/33
f 33/33/33 32/32/32 36/36/36
f 25/25/25 36/36/36 32/32/32
f 25/25/25 24/24/24 36/36/36
f 36/36/36 37/37/37 35/35/35
f 38/38/38 35/35/35 37/37/37
f 37/37/37 39/39/39 38/38/38
f 35/35/35 38/38/38 39/39/39
f 35/35/35 39/39/39 40/40/40
f 41/41/41 40/40/40 39/39/39
f 37/37/37 42/42/42 39/39/39
f 37/37/37 36/36/36 42/42/42
f 42/42/42 36/36/36 43/43/43
f 44/44/44 43/43/43 36/36/36
f 45/45/45 44/44/44 36/36/36
f 45/45/45 46/46/46 44/44/44
f 41/41/41 46/46/46 40/40/40
f 46/46/46 45/45/45 47/47/47
f 48/48/48 47/47/47 45/45/45
f 49/49/49 44/44/44 46/46/46
f 44/44/44 49/49/49 43/43/43
f 46/46/46 41/41/41 49/49/49
f 49/49/49 41/41/41 50/50/50
f 51/51/51 50/50/50 41/41/41
f 51/51/51 41/41/41 39/39/39
f 49/49/49 50/50/50 52/52/52
f 43/43/43 52/52/52 42/42/42
f 39/39/39 42/42/42 52/52/52
f 52/52/52 43/43/43 49/49/49
f 52/52/52 50/50/50 51/51/51
f 39/39/39 52/52/52 51/51/51
f 53/53/53 40/40/40 46/46/46
f 40/40/40 53/53/53 54/54/54
f 55/55/55 54/54/54 53/53/53
f 47/47/47 55/55/55 53/53/53
f 47/47/47 14/14/14 55/55/55
f 56/56/56 55/55/55 14/14/14
f 55/55/55 56/56/56 54/54/54
f 57/57/57 56/56/56 14/14/14
f 54/54/54 56/56/56 35/35/35
f 40/40/40 54/54/54 35/35/35
f 30/30/30 35/35/35 56/56/56
f 30/30/30 56/56/56 3/3/3
f 56/56/56 10/10/10 3/3/3
f 10/10/10 56/56/56 57/57/57
f 1/1/1 30/30/30 3/3/3
f 21/21/21 30/30/30 1/1/1
f 21/21/21 1/1/1 58/58/58
f 21/21/21 58/58/58 17/17/17
f 58/58/58 19/19/19 17/17/17
f 59/59/59 58/58/58 1/1/1
f 58/58/58 59/59/59 19/19/19
f 1/1/1 2/2/2 59/59/59
f 5/5/5 59/59/59 2/2/2
f 59/59/59 5/5/5 20/20/20
f 20/20/20 19/19/19 59/59/59
f 10/10/10 57/57/57 11/11/11
f 11/11/11 57/57/57 14/14/14
f 60/60/60 13/13/13 14/14/14
f 24/24/24 13/13/13 60/60/60
f 24/24/24 61/61/61 36/36/36
f 61/61/61 45/45/45 36/36/36
f 48/48/48 45/45/45 61/61/61
f 64/64/64 63/63/63 62/62/62
f 65/65/65 62/62/62 63/63/63
f 63/63/63 66/66/66 65/65/65
f 63/63/63 64/64/64 66/66/66
f 67/67/67 65/65/65 66/66/66
f 67/67/67 66/66/66 68/68/68
f 67/67/67 68/68/68 65/65/65
f 62/62/62 65/65/65 68/68/68
f 69/69/69 68/68/68 66/66/66
f 69/69/69 66/66/66 64/64/64
f 64/64/64 62/62/62 70/70/70
f 64/64/64 70/70/70 69/69/69
f 71/71/71 70/70/70 62/62/62
f 71/71/71 72/72/72 70/70/70
f 72/72/72 71/71/71 73/73/73
f 72/72/72 73/73/73 74/74/74
f 74/74/74 70/70/70 72/72/72
f 75/75/75 74/74/74 73/73/73
f 76/76/76 73/73/73 71/71/71
f 73/73/73 76/76/76 75/75/75
f 68/68/68 69/69/69 76/76/76
f 68/68/68 76/76/76 62/62/62
f 71/71/71 62/62/62 76/76/76
f 77/77/77 75/75/75 76/76/76
f 75/75/75 77/77/77 74/74/74
f 70/70/70 74/74/74 77/77/77
f 77/77/77 76/76/76 69/69/69
f 77/77/77 69/69/69 70/70/70
f 80/80/80 79/79/79 78/78/78
f 81/81/81 78/78/78 79/79/79
f 79/79/79 82/82/82 81/81/81
f 79/79/79 80/80/80 82/82/82
f 83/83/83 81/81/81 82/82/82
f 83/83/83 82/82/82 84/84/84
f 83/83/83 84/84/84 81/81/81
f 78/78/78 81/81/81 84/84/84
f 85/85/85 84/84/84 82/82/82
f 85/85/85 82/82/82 80/80/80
f 85/85/85 86/86/86 84/84/84
f 87/87/87 84/84/84 86/86/86
f 86/86/86 88/88/88 87/87/87
f 86/86/86 85/85/85 88/88/88
f 89/89/89 87/87/87 88/88/88
f 84/84/84 87/87/87 90/90/90
f 89/89/89 90/90/90 87/87/87
f 78/78/78 84/84/84 90/90/90
f 88/88/88 91/91/91 89/89/89
f 90/90/90 89/89/89 91/91/91
f 91/91/91 88/88/88 85/85/85
f 90/90/90 91/91/91 78/78/78
f 91/91/91 92/92/92 78/78/78
f 92/92/92 80/80/80 78/78/78
f 91/91/91 85/85/85 92/92/92
f 80/80/80 92/92/92 85/85/85
f 94/94/94 93/93/93 46/46/46
f 97/97/97 96/96/96 95/95/95
f 100/100/100 99/99/99 98/98/98
f 103/103/103 102/102/102 101/101/101
f 106/106/106 105/105/105 104/104/104
f 109/109/109 108/108/108 107/107/107
f 112/112/112 111/111/111 110/110/110
