g Area_Common_Build_Camp_Pirates_04_Col
v 1.808814 0.5723795 2.793916
v 1.69453 -0.1786419 2.607963
v 1.703718 -0.1550598 2.549704
v 1.79272 0.5945908 2.951883
v 1.773452 -0.1818441 2.634196
v 1.987466 0.66332 3.036724
v 2.14305 0.6936853 2.955894
v 1.839439 -0.1628316 2.600677
v 2.026328 0.650256 2.77927
v 1.805732 -0.1438828 2.544548
v -1.59398 0.5723796 2.804216
v -1.479697 -0.1786421 2.618263
v -1.577887 0.5945911 2.962183
v -1.488884 -0.1550597 2.560004
v -1.558619 -0.1818441 2.644496
v -1.772633 0.6633202 3.047024
v -1.928217 0.6936854 2.966193
v -1.624606 -0.1628315 2.610977
v -1.811494 0.6502563 2.78957
v -1.590899 -0.1438825 2.554847
v 0.7598565 2.789337 -0.1136643
v 0.7592016 -0.1761538 -0.1807752
v 1.013767 2.745568 -0.003679655
v 0.5572686 -0.1687849 -0.2334986
v 0.4448591 -0.154312 -0.1443018
v 0.6246298 2.935432 0.006325083
v 0.4878208 -0.1412118 0.03456345
v 0.6873018 3.098272 0.2860014
v 0.6897534 -0.1485806 0.08728822
v 0.9412128 3.054502 0.3959869
v 0.8021628 -0.1630542 -0.001911407
v 1.07644 2.90841 0.2759946
v 1.410256 2.094088 -0.156099
v 1.027542 2.160592 -0.02935248
v 0.9994633 2.131322 -0.1457347
v 1.46032 2.113653 -0.06670967
v 1.396302 2.027073 -0.1807298
v 0.9939511 2.046143 -0.1778902
v 1.014239 1.936202 -0.105322
v 1.426634 1.937134 -0.124786
v 1.042317 1.959416 0.01156934
v 1.476699 1.956936 -0.03546067
v 1.047827 2.044585 0.0437076
v 1.490653 2.023916 -0.01090879
v 1.443477 2.025404 -0.09572794
v -1.03231 2.172022 -0.008383902
v -1.040959 2.14128 -0.1472231
v -1.037565 2.049039 -0.1861636
v -1.024116 1.929093 -0.1006332
v -1.015469 1.956033 0.03852782
v -1.018863 2.048277 0.07747529
v -1.456905 2.150609 -0.04714413
v -1.428948 2.1205 -0.194935
v -1.446056 2.021856 -0.09557094
v -1.405241 2.02322 -0.230206
v -1.420162 1.893599 -0.1382698
v -1.468609 1.92391 0.001588037
v -1.469157 2.021974 0.04572641
v -0.6434302 -0.1008294 -0.1423178
v -0.6793919 2.927834 -0.09515337
v -0.8997214 3.130367 -0.04163777
v -0.5016643 -0.1135499 -0.1915625
v -0.6565328 -0.08281845 0.0546677
v -0.9624081 3.204037 0.1675844
v -0.4561738 -0.08676223 0.1454723
v -0.7152493 3.169103 0.3285049
v -0.4510821 2.983766 0.1975445
v -0.2990107 -0.1098616 -0.01196712
v -0.3590011 -0.1172905 -0.1375692
v -0.4963546 2.890074 0.009611434
v 1.823675 0.5788776 -2.805319
v 1.701691 -0.1771658 -2.605826
v 1.809255 0.5987783 -2.946854
v 1.709924 -0.1560368 -2.553627
v 1.772404 -0.1800349 -2.62933
v 1.983743 0.660358 -3.02287
v 2.123143 0.6875647 -2.950447
v 1.831527 -0.1630002 -2.599298
v 2.018562 0.6486531 -2.792197
v 1.801326 -0.1460225 -2.549007
v -1.608841 0.5788776 -2.815619
v -1.486858 -0.177166 -2.616126
v -1.49509 -0.1560367 -2.563927
v -1.594422 0.5987786 -2.957155
v -1.557571 -0.1800349 -2.63963
v -1.76891 0.6603583 -3.03317
v -1.90831 0.6875648 -2.960747
v -1.616693 -0.163 -2.609597
v -1.803729 0.6486534 -2.802497
v -1.586492 -0.1460222 -2.559307
v -1.186935 0.4564855 2.002396
v 0.1007676 0.7176089 2.715014
v -1.39044 0.1670874 2.606843
v 0.1018171 1.109578 2.021784
v -0.8859279 1.258435 0.8691167
v 0.1008295 2.054991 0.8635645
v 0.1004243 2.624033 0.3198466
v -0.7800566 1.914732 0.1475186
v 0.09747961 0.1747798 3.477252
v 1.391895 0.4572567 2.001687
v 1.597466 0.1688397 2.604816
v 1.088177 1.258475 0.8690921
v 0.9805481 1.914732 0.1475184
v -1.186935 0.3111747 2.002396
v -1.39044 0.02177665 2.606843
v -0.8859279 1.113124 0.8691168
v -0.7800566 1.769421 0.1475186
v 0.09982263 2.386059 0.1454844
v 0.09982263 2.92162 0.1454843
v 0.09747961 -0.05425495 3.477252
v 1.597466 0.02352897 2.604816
v 1.391895 0.3119459 2.001687
v 1.088177 1.113164 0.8690922
v 0.9805481 1.769421 0.1475184
v 0.09892232 1.352011 1.529353
v -1.186935 0.5033019 -1.974761
v 0.1007676 0.7176095 -2.715014
v 0.1018171 1.141964 -2.021784
v -1.472462 0.167088 -2.651856
v -0.8859279 1.258435 -0.8691164
v 0.1008295 2.054991 -0.8635641
v 0.1004243 2.624033 -0.319846
v -0.7800566 1.914732 -0.1475182
v 0.09747961 0.1747807 -3.477252
v 1.391895 0.5044573 -1.974051
v 1.679488 0.1688403 -2.649828
v 1.088177 1.258475 -0.8690917
v 0.9805481 1.914732 -0.1475179
v -1.186935 0.4006208 -1.974761
v -1.472462 0.02177727 -2.651856
v -0.8859279 1.113125 -0.8691165
v -0.7800566 1.769421 -0.1475182
v 0.09982263 2.386059 -0.1454839
v 0.09982263 2.92162 -0.1454836
v 0.09747961 -0.05425411 -3.477252
v 1.679488 0.02352959 -2.649828
v 1.391895 0.4017761 -1.974051
v 1.088177 1.113165 -0.8690919
v 0.9805481 1.769421 -0.1475179
v 0.09892232 1.352011 -1.529353
vn -0.6254532 0.5841633 -0.5172635
vn -0.6992306 -0.6954209 0.1657298
vn -0.5714906 -0.3430351 -0.7454699
vn -0.7351916 0.4342227 0.5205227
vn 0.07458153 -0.8839433 0.461608
vn -0.009140472 0.5082072 0.8611863
vn 0.7762077 0.5596781 0.2902792
vn 0.7181552 -0.6946539 -0.04134076
vn 0.2896215 0.6854017 -0.6680896
vn 0.3238572 -0.3551153 -0.8769319
vn 0.6317469 0.5810849 -0.5130655
vn 0.6992269 -0.6954241 0.1657318
vn 0.7348352 0.4348144 0.5205323
vn 0.5737605 -0.3488892 -0.7409961
vn -0.07458477 -0.8839438 0.4616063
vn 0.02156494 0.4870362 0.8731155
vn -0.7892896 0.5403864 0.291555
vn -0.7181555 -0.6946533 -0.04134478
vn -0.2988613 0.6595188 -0.6897224
vn -0.3279218 -0.3634694 -0.8719847
vn -0.01254993 0.3841438 -0.923188
vn 0.5263892 -0.6587837 -0.5375113
vn 0.7309926 0.2977282 -0.6140097
vn -0.2023568 -0.6279005 -0.751527
vn -0.7882696 -0.5634573 -0.2472788
vn -0.6067269 0.6262192 -0.4896242
vn -0.6027461 -0.5655348 0.56291
vn -0.4582717 0.8440509 0.2785048
vn 0.1135082 -0.6272561 0.770497
vn 0.317929 0.7240233 0.6121369
vn 0.705465 -0.6556171 0.2692312
vn 0.9018723 0.4121582 0.1294298
vn 0.4739283 0.5615795 -0.6782481
vn 0.06960773 0.9278237 0.3664669
vn 0.02504549 0.750659 -0.660215
vn 0.6898297 0.7178413 0.09401519
vn 0.3901814 -0.09485772 -0.9158387
vn -0.003836127 -0.1062819 -0.9943287
vn -0.00633466 -0.9253447 -0.379074
vn 0.4772015 -0.7480679 -0.461165
vn 0.03725331 -0.7565299 0.6528972
vn 0.7292203 -0.6257075 0.2769981
vn 0.07536767 0.1087892 0.9912037
vn 0.8362901 0.07419687 0.5432436
vn 0.8736727 -0.00588824 -0.4864787
vn -0.0336623 0.9259956 0.3760306
vn 0.0156581 0.7806605 -0.6247592
vn 0.06470737 -0.09768107 -0.993112
vn 0.05583003 -0.9305111 -0.3619835
vn 0.004769397 -0.7663217 0.6424393
vn -0.03076927 0.1078243 0.9936936
vn -0.6619597 0.7223799 0.1999417
vn -0.5614276 0.5497034 -0.618567
vn -0.9710349 -0.04908366 -0.2338413
vn -0.4197705 -0.1504618 -0.895072
vn -0.4549586 -0.7997658 -0.3916469
vn -0.6857299 -0.6240193 0.3746658
vn -0.6922624 0.07496968 0.7177412
vn -0.6338171 -0.6163797 -0.4672813
vn 0.2327844 0.3130668 -0.9207608
vn -0.3935855 0.5897305 -0.705201
vn -0.007906489 -0.6593608 -0.7517852
vn -0.6826802 -0.5926427 0.4274603
vn -0.6765881 0.70724 0.2050373
vn 0.1376677 -0.5849054 0.799333
vn 0.1190779 0.7016087 0.7025422
vn 0.8513573 0.4581318 0.2555506
vn 0.7870587 -0.6003567 0.1418113
vn 0.524212 -0.6492084 -0.5511174
vn 0.7375881 0.3294341 -0.5894378
vn -0.6274254 0.5837505 0.5153374
vn -0.702135 -0.6918815 -0.168245
vn -0.73283 0.4393258 -0.5195701
vn -0.5741088 -0.3387358 0.7454242
vn 0.07435585 -0.8821929 -0.4649806
vn -0.02206658 0.4895398 -0.8717017
vn 0.7871594 0.5432817 -0.2919331
vn 0.7216027 -0.6911714 0.03964318
vn 0.2949585 0.6621394 0.6888911
vn 0.3255892 -0.3508469 0.8780081
vn 0.6274277 0.5837497 0.5153355
vn 0.7020745 -0.6919622 -0.1681659
vn 0.5740689 -0.338855 0.7454007
vn 0.7328299 0.439326 -0.5195701
vn -0.0743093 -0.8822114 -0.4649528
vn 0.02206684 0.4895398 -0.8717017
vn -0.7871593 0.5432829 -0.2919316
vn -0.7216145 -0.691159 0.03964538
vn -0.2949578 0.6621397 0.6888911
vn -0.3255492 -0.3508652 0.8780156
vn -0.8555393 0.5147388 0.05564518
vn -0.0004568172 0.859429 0.5112549
vn -0.8480362 0.3877279 0.3612501
vn 3.248594E-05 0.8477798 0.5303484
vn -0.892449 0.4072278 0.194166
vn -2.610039E-05 0.7218451 0.6920546
vn 0.0005779314 0.5958454 0.8030989
vn -0.738613 0.4642905 -0.4887589
vn -0.001461799 0.4078558 0.9130452
vn 0.8550724 0.5157303 0.05360302
vn 0.8480893 0.3882999 0.3605104
vn 0.8925898 0.4077528 0.1924087
vn 0.7381678 0.464341 -0.489383
vn -0.445417 -0.6600782 -0.6048971
vn -0.6932442 -0.7034926 0.1565585
vn -0.3975449 -0.6632988 -0.634029
vn -0.418261 -0.4557794 -0.785699
vn 8.857206E-05 -0.2838318 -0.9588742
vn -0.0006853723 0.9816408 -0.1907378
vn -0.0006636581 -0.7624372 0.6470619
vn 0.6942902 -0.7023534 0.1570378
vn 0.4452077 -0.6594243 -0.6057637
vn 0.3973868 -0.6626778 -0.634777
vn 0.4171802 -0.4557963 -0.7862635
vn 0.001086053 -0.8288858 -0.5594167
vn -0.8463287 0.5309045 -0.04322175
vn -0.0004890334 0.8546522 -0.5192007
vn -3.939767E-05 0.8453135 -0.5342705
vn -0.8521395 0.3916587 -0.3470759
vn -0.8937107 0.4087301 -0.1849892
vn -2.883108E-05 0.7260881 -0.6876016
vn 0.0005778883 0.5958458 -0.8030987
vn -0.738613 0.4642904 0.4887589
vn -0.001298149 0.4113155 -0.911492
vn 0.8457703 0.5319328 -0.04147355
vn 0.8521951 0.3920871 -0.3464554
vn 0.8938354 0.4092817 -0.1831578
vn 0.7381675 0.4643411 0.4893833
vn -0.435821 -0.6430744 0.6296947
vn -0.6953645 -0.7043477 -0.1426976
vn -0.3940623 -0.6749824 0.6237899
vn -0.4182611 -0.4557795 0.7856988
vn 8.856194E-05 -0.283832 0.958874
vn -0.0006855272 0.9816408 0.1907384
vn -0.0004529984 -0.7733521 -0.6339766
vn 0.6961711 -0.7034989 -0.1429511
vn 0.4357661 -0.6423517 0.6304699
vn 0.3938839 -0.6744654 0.6244614
vn 0.4171802 -0.4557965 0.7862635
vn 0.001116266 -0.8356726 0.5492268
g Area_Common_Build_Camp_Pirates_04_Col_0
f 3/3/3 2/2/2 1/1/1
f 4/4/4 1/1/1 2/2/2
f 2/2/2 5/5/5 4/4/4
f 5/5/5 2/2/2 3/3/3
f 6/6/6 4/4/4 5/5/5
f 6/6/6 5/5/5 7/7/7
f 7/7/7 1/1/1 4/4/4
f 7/7/7 4/4/4 6/6/6
f 8/8/8 7/7/7 5/5/5
f 7/7/7 8/8/8 9/9/9
f 7/7/7 9/9/9 1/1/1
f 10/10/10 9/9/9 8/8/8
f 9/9/9 10/10/10 1/1/1
f 3/3/3 1/1/1 10/10/10
f 8/8/8 5/5/5 10/10/10
f 10/10/10 5/5/5 3/3/3
f 13/13/13 12/12/12 11/11/11
f 14/14/14 11/11/11 12/12/12
f 12/12/12 13/13/13 15/15/15
f 15/15/15 14/14/14 12/12/12
f 16/16/16 15/15/15 13/13/13
f 11/11/11 16/16/16 13/13/13
f 16/16/16 17/17/17 15/15/15
f 18/18/18 15/15/15 17/17/17
f 17/17/17 19/19/19 18/18/18
f 11/11/11 14/14/14 19/19/19
f 17/17/17 16/16/16 19/19/19
f 19/19/19 16/16/16 11/11/11
f 20/20/20 18/18/18 19/19/19
f 20/20/20 19/19/19 14/14/14
f 18/18/18 20/20/20 15/15/15
f 20/20/20 14/14/14 15/15/15
f 23/23/23 22/22/22 21/21/21
f 24/24/24 21/21/21 22/22/22
f 24/24/24 25/25/25 21/21/21
f 24/24/24 22/22/22 25/25/25
f 26/26/26 21/21/21 25/25/25
f 25/25/25 27/27/27 26/26/26
f 25/25/25 22/22/22 27/27/27
f 28/28/28 26/26/26 27/27/27
f 28/28/28 23/23/23 21/21/21
f 28/28/28 21/21/21 26/26/26
f 27/27/27 29/29/29 28/28/28
f 30/30/30 28/28/28 29/29/29
f 29/29/29 31/31/31 30/30/30
f 22/22/22 23/23/23 31/31/31
f 29/29/29 27/27/27 31/31/31
f 27/27/27 22/22/22 31/31/31
f 32/32/32 30/30/30 31/31/31
f 32/32/32 31/31/31 23/23/23
f 28/28/28 30/30/30 32/32/32
f 28/28/28 32/32/32 23/23/23
f 35/35/35 34/34/34 33/33/33
f 36/36/36 33/33/33 34/34/34
f 33/33/33 37/37/37 35/35/35
f 38/38/38 35/35/35 37/37/37
f 38/38/38 37/37/37 39/39/39
f 40/40/40 39/39/39 37/37/37
f 39/39/39 40/40/40 41/41/41
f 42/42/42 41/41/41 40/40/40
f 41/41/41 42/42/42 43/43/43
f 34/34/34 43/43/43 36/36/36
f 44/44/44 43/43/43 42/42/42
f 44/44/44 36/36/36 43/43/43
f 36/36/36 45/45/45 33/33/33
f 44/44/44 45/45/45 36/36/36
f 42/42/42 45/45/45 44/44/44
f 40/40/40 45/45/45 42/42/42
f 37/37/37 45/45/45 40/40/40
f 33/33/33 45/45/45 37/37/37
f 34/34/34 35/35/35 46/46/46
f 47/47/47 46/46/46 35/35/35
f 47/47/47 35/35/35 48/48/48
f 38/38/38 48/48/48 35/35/35
f 48/48/48 38/38/38 49/49/49
f 39/39/39 49/49/49 38/38/38
f 49/49/49 39/39/39 50/50/50
f 41/41/41 50/50/50 39/39/39
f 50/50/50 41/41/41 51/51/51
f 43/43/43 51/51/51 41/41/41
f 46/46/46 51/51/51 34/34/34
f 43/43/43 34/34/34 51/51/51
f 46/46/46 47/47/47 52/52/52
f 53/53/53 52/52/52 47/47/47
f 53/53/53 54/54/54 52/52/52
f 55/55/55 54/54/54 53/53/53
f 53/53/53 47/47/47 55/55/55
f 48/48/48 55/55/55 47/47/47
f 56/56/56 54/54/54 55/55/55
f 55/55/55 48/48/48 56/56/56
f 49/49/49 56/56/56 48/48/48
f 57/57/57 54/54/54 56/56/56
f 56/56/56 49/49/49 57/57/57
f 50/50/50 57/57/57 49/49/49
f 50/50/50 51/51/51 57/57/57
f 58/58/58 54/54/54 57/57/57
f 52/52/52 54/54/54 58/58/58
f 58/58/58 57/57/57 51/51/51
f 52/52/52 58/58/58 46/46/46
f 51/51/51 46/46/46 58/58/58
f 61/61/61 60/60/60 59/59/59
f 62/62/62 59/59/59 60/60/60
f 59/59/59 63/63/63 61/61/61
f 64/64/64 61/61/61 63/63/63
f 63/63/63 65/65/65 64/64/64
f 66/66/66 64/64/64 65/65/65
f 66/66/66 61/61/61 64/64/64
f 66/66/66 65/65/65 67/67/67
f 67/67/67 61/61/61 66/66/66
f 68/68/68 67/67/67 65/65/65
f 68/68/68 69/69/69 67/67/67
f 62/62/62 60/60/60 69/69/69
f 63/63/63 59/59/59 69/69/69
f 62/62/62 69/69/69 59/59/59
f 68/68/68 65/65/65 69/69/69
f 65/65/65 63/63/63 69/69/69
f 70/70/70 67/67/67 69/69/69
f 70/70/70 69/69/69 60/60/60
f 70/70/70 61/61/61 67/67/67
f 60/60/60 61/61/61 70/70/70
f 73/73/73 72/72/72 71/71/71
f 74/74/74 71/71/71 72/72/72
f 72/72/72 73/73/73 75/75/75
f 75/75/75 74/74/74 72/72/72
f 76/76/76 75/75/75 73/73/73
f 71/71/71 76/76/76 73/73/73
f 76/76/76 77/77/77 75/75/75
f 78/78/78 75/75/75 77/77/77
f 77/77/77 79/79/79 78/78/78
f 77/77/77 76/76/76 79/79/79
f 79/79/79 76/76/76 71/71/71
f 80/80/80 78/78/78 79/79/79
f 74/74/74 80/80/80 71/71/71
f 79/79/79 71/71/71 80/80/80
f 78/78/78 80/80/80 75/75/75
f 80/80/80 74/74/74 75/75/75
f 83/83/83 82/82/82 81/81/81
f 84/84/84 81/81/81 82/82/82
f 82/82/82 85/85/85 84/84/84
f 86/86/86 84/84/84 85/85/85
f 86/86/86 81/81/81 84/84/84
f 86/86/86 85/85/85 87/87/87
f 88/88/88 87/87/87 85/85/85
f 85/85/85 82/82/82 88/88/88
f 87/87/87 88/88/88 89/89/89
f 86/86/86 87/87/87 89/89/89
f 86/86/86 89/89/89 81/81/81
f 90/90/90 89/89/89 88/88/88
f 89/89/89 90/90/90 81/81/81
f 83/83/83 81/81/81 90/90/90
f 88/88/88 82/82/82 90/90/90
f 83/83/83 90/90/90 82/82/82
f 93/93/93 92/92/92 91/91/91
f 94/94/94 91/91/91 92/92/92
f 91/91/91 94/94/94 95/95/95
f 96/96/96 95/95/95 94/94/94
f 96/96/96 97/97/97 95/95/95
f 98/98/98 95/95/95 97/97/97
f 99/99/99 92/92/92 93/93/93
f 94/94/94 92/92/92 100/100/100
f 101/101/101 100/100/100 92/92/92
f 99/99/99 101/101/101 92/92/92
f 96/96/96 94/94/94 102/102/102
f 100/100/100 102/102/102 94/94/94
f 96/96/96 102/102/102 97/97/97
f 103/103/103 97/97/97 102/102/102
f 91/91/91 104/104/104 93/93/93
f 91/91/91 95/95/95 104/104/104
f 105/105/105 93/93/93 104/104/104
f 93/93/93 105/105/105 99/99/99
f 106/106/106 104/104/104 95/95/95
f 98/98/98 107/107/107 95/95/95
f 106/106/106 95/95/95 107/107/107
f 107/107/107 98/98/98 108/108/108
f 107/107/107 108/108/108 106/106/106
f 109/109/109 108/108/108 98/98/98
f 98/98/98 97/97/97 109/109/109
f 109/109/109 97/97/97 103/103/103
f 110/110/110 99/99/99 105/105/105
f 105/105/105 104/104/104 110/110/110
f 101/101/101 111/111/111 100/100/100
f 110/110/110 111/111/111 99/99/99
f 101/101/101 99/99/99 111/111/111
f 112/112/112 100/100/100 111/111/111
f 100/100/100 112/112/112 102/102/102
f 111/111/111 110/110/110 112/112/112
f 113/113/113 102/102/102 112/112/112
f 102/102/102 113/113/113 103/103/103
f 114/114/114 103/103/103 113/113/113
f 103/103/103 114/114/114 109/109/109
f 108/108/108 109/109/109 114/114/114
f 114/114/114 113/113/113 108/108/108
f 115/115/115 110/110/110 104/104/104
f 112/112/112 115/115/115 113/113/113
f 108/108/108 113/113/113 115/115/115
f 108/108/108 115/115/115 106/106/106
f 104/104/104 106/106/106 115/115/115
f 115/115/115 112/112/112 110/110/110
f 118/118/118 117/117/117 116/116/116
f 119/119/119 116/116/116 117/117/117
f 116/116/116 120/120/120 118/118/118
f 121/121/121 118/118/118 120/120/120
f 121/121/121 120/120/120 122/122/122
f 123/123/123 122/122/122 120/120/120
f 124/124/124 119/119/119 117/117/117
f 118/118/118 125/125/125 117/117/117
f 126/126/126 117/117/117 125/125/125
f 124/124/124 117/117/117 126/126/126
f 121/121/121 127/127/127 118/118/118
f 125/125/125 118/118/118 127/127/127
f 121/121/121 122/122/122 127/127/127
f 128/128/128 127/127/127 122/122/122
f 116/116/116 119/119/119 129/129/129
f 130/130/130 129/129/129 119/119/119
f 119/119/119 124/124/124 130/130/130
f 129/129/129 131/131/131 116/116/116
f 120/120/120 116/116/116 131/131/131
f 131/131/131 132/132/132 120/120/120
f 123/123/123 120/120/120 132/132/132
f 132/132/132 133/133/133 123/123/123
f 133/133/133 132/132/132 131/131/131
f 134/134/134 123/123/123 133/133/133
f 122/122/122 123/123/123 134/134/134
f 122/122/122 134/134/134 128/128/128
f 135/135/135 130/130/130 124/124/124
f 124/124/124 126/126/126 135/135/135
f 130/130/130 135/135/135 129/129/129
f 126/126/126 125/125/125 136/136/136
f 136/136/136 135/135/135 126/126/126
f 137/137/137 136/136/136 125/125/125
f 125/125/125 127/127/127 137/137/137
f 136/136/136 137/137/137 135/135/135
f 138/138/138 137/137/137 127/127/127
f 127/127/127 128/128/128 138/138/138
f 139/139/139 138/138/138 128/128/128
f 133/133/133 139/139/139 134/134/134
f 128/128/128 134/134/134 139/139/139
f 138/138/138 139/139/139 133/133/133
f 140/140/140 129/129/129 135/135/135
f 137/137/137 138/138/138 140/140/140
f 133/133/133 140/140/140 138/138/138
f 133/133/133 131/131/131 140/140/140
f 129/129/129 140/140/140 131/131/131
f 140/140/140 135/135/135 137/137/137
