g Area_Common_Prop_Shipwreck_A_01_Col
v -0.7561908 -0.9391469 1.56305
v -0.7838292 -1.175793 2.059282
v -0.3370371 -1.081739 1.70161
v 0.4468259 -0.2478844 -0.04776461
v 0.8271714 -0.05870185 0.1887367
v -0.343224 -0.3999807 2.109125
v -0.04022659 -0.6043786 -0.4019628
v -0.2669634 -0.4149215 -0.4050336
v -0.09187591 -0.2526763 -1.40073
v 0.1095116 -0.4802383 -1.343029
v 0.5003903 -0.3685047 -1.943868
v 0.3946187 -0.05225252 -2.070371
v 0.519976 -0.3373452 -1.832663
v 0.5548703 -0.06400094 -1.160987
v 1.191203 0.06175025 -0.2273119
v 1.124495 0.7260034 -0.05657858
v 1.376258 0.3710564 -1.673214
v 1.523153 0.4452388 -1.420002
v 1.34374 1.303749 -1.723791
v 0.04629974 0.7446673 -1.934599
v 0.8363611 0.9160455 -2.170456
v 1.2556 1.224507 -2.259323
v 0.1327065 1.33473 -2.295438
v 1.057393 1.70221 -2.458793
v 1.418945 1.734948 -1.598759
v 0.8172057 1.832679 -2.30452
v 1.267278 1.025902 -0.7593799
v 0.9812775 1.355967 -0.1234259
v 0.6509001 0.6700527 0.7821035
v 1.230472 1.802049 -1.294134
v 0.4253767 1.115564 -1.527078
v 0.5604677 0.9433902 0.5717824
v 0.3083981 0.667852 0.2421277
v 0.4921788 0.5672577 -0.7074778
v 0.5604677 0.9433902 0.5717825
v 0.004962692 1.188794 -1.938578
v -0.7121694 0.3035451 -1.170808
v -0.1239631 1.147133 -2.120308
v -0.4897483 0.6091893 -1.631897
v 0.06108421 0.04167019 -1.227859
v 0.4287395 -0.02231365 -1.910583
v -1.272705 -0.6436085 1.181468
v -1.593181 0.01052477 0.6668919
v -2.077968 -0.03706411 2.041431
v -1.162624 0.2388576 1.602182
v -1.65809 -0.7344912 1.653936
v -2.072803 -0.1412973 2.485825
v -1.161954 -0.5888147 2.182857
v -0.8941157 -0.03723817 2.677662
v -0.899209 0.03632706 2.668303
v -2.051441 -0.06496379 2.480264
v -1.239792 0.1769774 2.494812
v -0.7321239 -0.9922032 2.314055
v -0.5654753 -0.0584091 2.49826
v -0.4500696 -0.6159708 2.378203
v 0.2770776 0.6037564 1.150263
v -2.615225 -0.5509508 0.05312378
v -2.638679 -0.7442164 -1.747841
v -2.941736 -0.7367865 -1.733119
v -2.300415 -0.5592468 0.03141662
v -2.294109 -0.4760447 0.02081413
v -2.584634 -0.455782 0.05873634
v -2.629185 -0.6583549 -1.766985
v -2.919699 -0.6419149 -1.757119
v -1.450554 -0.5397933 -1.387078
v -1.773178 -0.6388752 -1.224992
v -1.459897 -0.554617 -1.243284
v -1.831213 -0.6343631 -1.362253
v -1.770479 -0.5185704 -1.205118
v -1.462582 -0.4415945 -1.284296
v -1.828112 -0.5095416 -1.367234
v -1.446512 -0.422857 -1.398939
v -1.2079 -0.5214778 -1.147104
v -1.133072 -0.4946164 -1.231653
v -1.114183 -0.390311 -1.23947
v -1.189032 -0.417173 -1.154946
v -2.074053 -0.7158411 -1.092492
v -2.162741 -0.7211499 -1.189198
v -2.078672 -0.6063733 -1.095865
v -2.167534 -0.6116928 -1.19276
v -0.9607263 -0.6847472 0.2207761
v -1.339965 -0.8880291 -0.1809676
v -0.9387164 -0.7703332 0.2214489
v -1.361508 -0.8022907 -0.1805537
v -1.098535 -0.7940038 0.4573509
v -1.496593 -0.9131796 0.004909477
v -1.120395 -0.7083937 0.4565015
v -1.518195 -0.8274572 0.005295086
v -1.636812 -0.6033148 0.3244725
v -1.958939 -0.4703928 1.139254
v -1.706217 -0.5429087 0.2732821
v -1.881584 -0.5005726 1.17864
v -1.842458 -0.7064236 0.2465578
v -1.434962 -0.7182667 -0.9172773
v -1.242623 -0.5013455 -0.878392
v -2.077281 -0.5910075 1.105838
v -1.790694 -0.7927702 0.294367
v -1.367403 -0.7802403 -0.8655806
v -1.196916 -0.5506018 -0.7666219
v -2.038797 -0.6779137 1.147625
v -1.505157 -0.1514253 1.111128
v -2.357888 -0.9171669 0.4932317
v -1.484354 -0.2323158 1.111764
v -2.396229 -0.89223 0.4744731
v -2.442499 -0.8241633 0.7483401
v -1.630172 -0.08300538 1.297434
v -1.609512 -0.1639184 1.298236
v -2.280634 -0.6386504 1.026471
v -2.301051 -0.5576312 1.026836
v -2.471878 -0.7711853 0.7391431
v 0.605441 -0.5052982 2.102331
v 0.1842227 -0.2156251 1.816157
v 0.6279172 -0.448444 2.119397
v 0.1706853 -0.2672632 1.804093
v 0.2322531 -0.2677963 1.75878
v 0.2456451 -0.2161127 1.771037
v 1.118136 -0.8066103 2.481113
v 1.091684 -0.8563831 2.457003
v 1.133296 -0.8302146 2.356239
v 0.9952502 -0.6981288 2.212646
v 0.753435 -0.508208 1.923126
v 0.3165475 -0.2630707 1.629016
v 0.3296602 -0.2113016 1.64165
v 0.7759491 -0.4513557 1.940108
v 1.067685 -0.6287012 2.135895
v 1.044956 -0.6865115 2.117744
v 0.9973606 -0.6484902 2.264156
v 1.078316 -0.6843311 2.274525
v 1.057353 -0.7315489 2.237104
v 1.146691 -0.7790579 2.409409
v 0.8523515 -0.5568498 1.187779
v 0.9595258 -0.6882297 1.091615
v 1.020009 -0.6129888 1.140553
v 0.8038092 -0.631791 1.120068
v 0.6693817 -0.5279137 1.2507
v 0.6923895 -0.6172575 1.295158
v 0.4403854 -0.5747393 1.37598
v 0.5136035 -0.6756361 1.413616
v 0.2467364 -0.6662487 1.509372
v 0.3959306 -0.653694 1.309266
v 0.1954501 -0.7377718 1.4405
v 0.3091049 -0.8088057 1.440523
v 0.1472532 -0.9464396 1.603959
v 0.03385483 -0.8755658 1.603935
v 0.07915603 -0.8003018 1.672807
v 0.1927766 -0.8713135 1.672829
v 0.3799661 -0.7495154 1.509399
v 0.4689996 -0.7544987 1.346902
v 0.6205922 -0.606303 1.185447
v 0.6582744 -0.7137364 1.243387
v 0.8245643 -0.7352164 1.181792
v 0.8732361 -0.660356 1.249501
v 0.9201061 -0.7717209 1.165384
v 0.9805632 -0.6964608 1.214322
vn -0.2896058 -0.9129401 -0.2875219
vn -0.2922734 -0.9421232 0.1642556
vn 0.4917368 -0.870544 0.01865544
vn 0.4906725 -0.8683863 -0.07173405
vn 0.7506453 -0.5862691 0.3046643
vn 0.8886929 -0.1089636 0.4453672
vn 0.02794066 -0.9848394 -0.1712032
vn -0.572086 -0.7314342 -0.3711086
vn -0.9131024 -0.05447955 -0.4040741
vn -0.09362792 -0.9788668 -0.1818068
vn 0.4237432 -0.6239296 -0.6566229
vn 0.01470976 0.4285255 -0.90341
vn 0.9216408 -0.3879967 0.00607015
vn 0.5608291 -0.7720699 -0.2989628
vn 0.7994827 -0.5472687 0.2476377
vn 0.9112638 0.07887081 0.4042001
vn 0.5557423 -0.6164677 -0.5577797
vn 0.9519454 -0.2898744 -0.09885705
vn 0.9892713 0.02084742 -0.1445946
vn -0.1861052 -0.6048374 -0.7742975
vn 0.01777918 -0.5144423 -0.8573406
vn 0.6863999 -0.1387304 -0.7138691
vn -0.6033345 0.4128219 -0.6823237
vn 0.3919585 0.3735921 -0.8407125
vn 0.8535442 0.5163245 -0.06979351
vn -0.2798906 0.9063691 -0.3164749
vn 0.9560665 0.1433523 0.2557088
vn 0.2324332 0.8614265 0.4515741
vn 0.7579414 0.2463952 0.6039985
vn 0.08727014 0.9335589 0.3476375
vn -0.5121875 0.730449 0.4517834
vn -0.1941657 0.9319928 0.3060867
vn -0.591407 0.8024565 -0.07938115
vn -0.6279053 0.7705779 0.1092915
vn 0.205405 0.9640799 0.1683999
vn -0.4142975 0.8440295 0.3405465
vn -0.897234 0.07973494 -0.4342967
vn -0.7846818 0.2862831 -0.549833
vn -0.8495141 -0.03333807 -0.5265115
vn -0.6055103 -0.1437658 -0.7827443
vn 0.4227559 0.8752741 -0.2348892
vn -0.5103881 -0.7635334 -0.3956271
vn -0.8844975 0.2555114 -0.3903565
vn -0.9112827 0.3825162 -0.152464
vn -0.2009329 0.9774479 0.06497445
vn -0.639918 -0.746427 -0.1826247
vn -0.7333246 -0.2910205 0.6144444
vn -0.2981349 -0.704187 0.6443884
vn 0.1816589 -0.2733811 0.9445967
vn 0.2254751 0.6226955 0.7492738
vn -0.59304 0.5760216 0.5625855
vn -0.04194733 0.9076182 0.4176956
vn -0.02798902 -0.5620928 0.8266005
vn 0.4824761 0.3183682 0.8160015
vn 0.5318638 -0.2292332 0.8152135
vn 0.1207167 0.8923696 0.4348609
vn -0.5978364 -0.4635716 0.6539824
vn 0.4653217 -0.7082828 -0.5308588
vn -0.725575 -0.5642553 -0.3938996
vn 0.6197112 -0.5367909 0.57255
vn 0.6907943 0.5814187 0.429832
vn -0.357637 0.6666338 0.6539838
vn 0.5452071 0.4362088 -0.715871
vn -0.5503753 0.5425751 -0.6345859
vn 0.2418553 -0.6255075 -0.7417859
vn 0.323705 -0.7928651 0.5163139
vn 0.1066004 -0.6631638 0.7408442
vn -0.07475251 -0.6422418 -0.7628483
vn -0.0001618229 0.6311366 0.7756717
vn -0.1933283 0.8198756 0.5389139
vn -0.3314329 0.6629067 -0.671347
vn 0.05484807 0.6773281 -0.7336338
vn 0.1774192 -0.6041896 0.7768379
vn 0.8262652 -0.5387864 -0.164302
vn 0.7906948 0.5920241 -0.1559143
vn 0.1771048 0.5435984 0.8204478
vn -0.08895338 -0.652237 0.7527778
vn -0.7411233 -0.6549317 -0.1476511
vn -0.2433188 0.5157142 0.8214833
vn -0.8790519 0.4543762 -0.1442563
vn 0.6441338 0.7583065 -0.100314
vn 0.1027703 -0.5907946 -0.8002499
vn 0.9223168 -0.3807628 -0.06596537
vn -0.1709382 0.5238856 -0.8344603
vn 0.1881671 -0.506326 0.8415623
vn -0.6526263 -0.757162 0.02801399
vn -0.08663616 0.5912892 0.8017926
vn -0.9260162 0.3774736 0.002769329
vn 0.9425202 0.09265568 0.3210459
vn -0.3272085 0.8591515 0.3934378
vn -0.1332797 0.9894578 -0.05665443
vn 0.5759122 0.2734489 0.7704225
vn -0.9516603 0.01021731 -0.3069823
vn -0.5268647 -0.1304436 -0.8398798
vn 0.3390436 0.6481273 -0.6818948
vn -0.9533011 0.2042319 0.2225002
vn -0.06747714 -0.9964454 0.05043303
vn 0.2742427 -0.8750712 -0.3987999
vn 0.9879733 0.1376334 0.07046754
vn -0.3086255 -0.7149754 0.6273439
vn 0.6071299 0.7210923 -0.333795
vn 0.2435471 -0.8427963 -0.4799785
vn 0.9390779 -0.3325385 -0.08689661
vn -0.5145495 -0.1629162 -0.8418415
vn -0.4222284 -0.7980576 0.4299153
vn 0.01711146 0.8404469 0.5416238
vn 0.3952827 -0.2321967 0.8887274
vn -0.2038449 -0.6238352 0.7545043
vn -0.7354932 0.5245532 0.4288282
vn -0.9627509 0.2698154 -0.01762068
vn -0.6636713 -0.6434979 0.3813801
vn -0.6596394 0.7307007 0.1759326
vn -0.15745 0.6336576 0.7574216
vn -0.943187 -0.3159474 -0.1028376
vn -0.6531175 -0.4254945 -0.626412
vn -0.2435018 0.9468563 -0.2101665
vn 0.3976068 0.03315365 0.9169567
vn -0.05385362 -0.8628843 0.5025243
vn 0.6031239 -0.6159971 -0.5067436
vn -0.2551799 -0.9095237 -0.3281004
vn 0.1571335 -0.6118364 -0.7752194
vn -0.28237 -0.2924384 -0.9136449
vn 0.03077782 0.7737709 -0.6327174
vn 0.6448547 0.6595212 -0.3862568
vn 0.8554039 0.4601254 -0.237842
vn 0.4144508 -0.6690944 -0.6168818
vn 0.4183636 0.8075193 0.415794
vn 0.6396108 -0.0006627996 0.7686987
vn 0.2766456 -0.9322656 0.2331266
vn 0.9215653 0.3538574 0.1596946
vn 0.2561584 0.9666206 0.005246368
vn 0.3642757 -0.2380121 -0.9003628
vn 0.8483534 0.4888281 -0.2033315
vn -0.2305601 0.1277218 -0.9646394
vn 0.03371315 0.9954026 0.08964946
vn 0.4166455 0.04395347 0.9080058
vn -0.1689216 0.9617152 0.2157995
vn 0.5591967 -0.0661645 0.8263906
vn -0.2508743 0.9087084 0.3336331
vn -0.5574129 0.1514534 -0.8163043
vn -0.6859916 0.1602594 -0.7097411
vn 0.1225299 -0.8775074 -0.4636456
vn -0.03995392 -0.9986234 0.0339862
vn -0.9451698 -0.3251913 -0.03007601
vn -0.5434632 0.4022062 0.7368025
vn 0.3974766 -0.2905356 0.870403
vn 0.6321398 -0.2134355 0.7448789
vn 0.1574553 -0.9455447 -0.2848739
vn -0.4180237 0.1706928 -0.8922557
vn 0.04739121 -0.9938484 -0.1000974
vn -0.2935587 -0.9545519 -0.05151725
vn 0.2384626 -0.06006853 0.9692923
vn 0.1302409 -0.9900011 -0.05417582
vn 0.71515 -0.2883783 0.636709
g Area_Common_Prop_Shipwreck_A_01_Col_0
f 3/3/3 2/2/2 1/1/1
f 4/4/4 3/3/3 1/1/1
f 5/5/5 3/3/3 4/4/4
f 5/5/5 6/6/6 3/3/3
f 7/7/7 4/4/4 1/1/1
f 1/1/1 8/8/8 7/7/7
f 8/8/8 9/9/9 7/7/7
f 7/7/7 9/9/9 10/10/10
f 10/10/10 9/9/9 11/11/11
f 9/9/9 12/12/12 11/11/11
f 11/11/11 13/13/13 10/10/10
f 14/14/14 10/10/10 13/13/13
f 7/7/7 10/10/10 14/14/14
f 4/4/4 7/7/7 14/14/14
f 15/15/15 4/4/4 14/14/14
f 5/5/5 4/4/4 15/15/15
f 5/5/5 15/15/15 16/16/16
f 17/17/17 15/15/15 14/14/14
f 18/18/18 15/15/15 17/17/17
f 19/19/19 18/18/18 17/17/17
f 17/17/17 14/14/14 20/20/20
f 20/20/20 21/21/21 17/17/17
f 21/21/21 22/22/22 17/17/17
f 22/22/22 19/19/19 17/17/17
f 21/21/21 23/23/23 22/22/22
f 20/20/20 23/23/23 21/21/21
f 24/24/24 22/22/22 23/23/23
f 22/22/22 24/24/24 19/19/19
f 19/19/19 24/24/24 25/25/25
f 26/26/26 25/25/25 24/24/24
f 26/26/26 24/24/24 23/23/23
f 27/27/27 16/16/16 15/15/15
f 27/27/27 19/19/19 25/25/25
f 27/27/27 18/18/18 19/19/19
f 27/27/27 15/15/15 18/18/18
f 25/25/25 28/28/28 27/27/27
f 27/27/27 28/28/28 16/16/16
f 29/29/29 16/16/16 28/28/28
f 25/25/25 30/30/30 28/28/28
f 26/26/26 30/30/30 25/25/25
f 26/26/26 31/31/31 30/30/30
f 23/23/23 31/31/31 26/26/26
f 32/32/32 29/29/29 28/28/28
f 28/28/28 33/33/33 32/32/32
f 30/30/30 33/33/33 28/28/28
f 30/30/30 34/34/34 33/33/33
f 31/31/31 34/34/34 30/30/30
f 35/35/35 32/32/32 33/33/33
f 32/32/32 35/35/35 29/29/29
f 23/23/23 36/36/36 31/31/31
f 37/37/37 31/31/31 36/36/36
f 37/37/37 34/34/34 31/31/31
f 23/23/23 38/38/38 36/36/36
f 39/39/39 36/36/36 38/38/38
f 36/36/36 39/39/39 37/37/37
f 40/40/40 37/37/37 39/39/39
f 40/40/40 39/39/39 20/20/20
f 39/39/39 38/38/38 20/20/20
f 40/40/40 8/8/8 37/37/37
f 38/38/38 23/23/23 20/20/20
f 20/20/20 14/14/14 40/40/40
f 41/41/41 40/40/40 14/14/14
f 9/9/9 40/40/40 41/41/41
f 9/9/9 8/8/8 40/40/40
f 14/14/14 13/13/13 41/41/41
f 13/13/13 11/11/11 41/41/41
f 12/12/12 41/41/41 11/11/11
f 12/12/12 9/9/9 41/41/41
f 42/42/42 37/37/37 8/8/8
f 37/37/37 42/42/42 43/43/43
f 44/44/44 43/43/43 42/42/42
f 44/44/44 45/45/45 43/43/43
f 42/42/42 8/8/8 1/1/1
f 46/46/46 42/42/42 1/1/1
f 46/46/46 44/44/44 42/42/42
f 44/44/44 46/46/46 47/47/47
f 47/47/47 46/46/46 48/48/48
f 1/1/1 48/48/48 46/46/46
f 47/47/47 48/48/48 49/49/49
f 49/49/49 50/50/50 47/47/47
f 51/51/51 47/47/47 50/50/50
f 51/51/51 44/44/44 47/47/47
f 51/51/51 50/50/50 52/52/52
f 45/45/45 52/52/52 50/50/50
f 51/51/51 52/52/52 44/44/44
f 52/52/52 45/45/45 44/44/44
f 1/1/1 2/2/2 48/48/48
f 2/2/2 53/53/53 48/48/48
f 3/3/3 53/53/53 2/2/2
f 54/54/54 49/49/49 48/48/48
f 54/54/54 50/50/50 49/49/49
f 54/54/54 45/45/45 50/50/50
f 55/55/55 54/54/54 48/48/48
f 53/53/53 55/55/55 48/48/48
f 53/53/53 3/3/3 55/55/55
f 54/54/54 55/55/55 6/6/6
f 3/3/3 6/6/6 55/55/55
f 54/54/54 6/6/6 29/29/29
f 29/29/29 6/6/6 5/5/5
f 29/29/29 5/5/5 16/16/16
f 54/54/54 29/29/29 56/56/56
f 56/56/56 29/29/29 35/35/35
f 56/56/56 45/45/45 54/54/54
f 56/56/56 35/35/35 33/33/33
f 45/45/45 56/56/56 33/33/33
f 33/33/33 34/34/34 45/45/45
f 45/45/45 34/34/34 43/43/43
f 43/43/43 34/34/34 37/37/37
f 59/59/59 58/58/58 57/57/57
f 60/60/60 57/57/57 58/58/58
f 60/60/60 61/61/61 57/57/57
f 62/62/62 57/57/57 61/61/61
f 57/57/57 62/62/62 59/59/59
f 61/61/61 63/63/63 62/62/62
f 58/58/58 63/63/63 60/60/60
f 61/61/61 60/60/60 63/63/63
f 64/64/64 62/62/62 63/63/63
f 59/59/59 64/64/64 58/58/58
f 63/63/63 58/58/58 64/64/64
f 64/64/64 59/59/59 62/62/62
f 67/67/67 66/66/66 65/65/65
f 68/68/68 65/65/65 66/66/66
f 66/66/66 67/67/67 69/69/69
f 70/70/70 69/69/69 67/67/67
f 69/69/69 70/70/70 71/71/71
f 68/68/68 71/71/71 65/65/65
f 72/72/72 71/71/71 70/70/70
f 72/72/72 65/65/65 71/71/71
f 67/67/67 65/65/65 73/73/73
f 67/67/67 73/73/73 70/70/70
f 74/74/74 73/73/73 65/65/65
f 65/65/65 72/72/72 74/74/74
f 74/74/74 75/75/75 73/73/73
f 75/75/75 74/74/74 72/72/72
f 76/76/76 73/73/73 75/75/75
f 75/75/75 72/72/72 76/76/76
f 70/70/70 76/76/76 72/72/72
f 76/76/76 70/70/70 73/73/73
f 66/66/66 77/77/77 68/68/68
f 78/78/78 68/68/68 77/77/77
f 77/77/77 79/79/79 78/78/78
f 69/69/69 71/71/71 79/79/79
f 77/77/77 66/66/66 79/79/79
f 69/69/69 79/79/79 66/66/66
f 80/80/80 78/78/78 79/79/79
f 80/80/80 79/79/79 71/71/71
f 78/78/78 80/80/80 68/68/68
f 71/71/71 68/68/68 80/80/80
f 83/83/83 82/82/82 81/81/81
f 84/84/84 81/81/81 82/82/82
f 83/83/83 85/85/85 82/82/82
f 86/86/86 82/82/82 85/85/85
f 82/82/82 86/86/86 84/84/84
f 85/85/85 87/87/87 86/86/86
f 85/85/85 83/83/83 87/87/87
f 81/81/81 87/87/87 83/83/83
f 88/88/88 86/86/86 87/87/87
f 87/87/87 81/81/81 88/88/88
f 84/84/84 88/88/88 81/81/81
f 88/88/88 84/84/84 86/86/86
f 91/91/91 90/90/90 89/89/89
f 92/92/92 89/89/89 90/90/90
f 91/91/91 93/93/93 90/90/90
f 93/93/93 91/91/91 94/94/94
f 95/95/95 94/94/94 91/91/91
f 96/96/96 90/90/90 93/93/93
f 89/89/89 92/92/92 97/97/97
f 93/93/93 97/97/97 96/96/96
f 97/97/97 98/98/98 89/89/89
f 94/94/94 98/98/98 93/93/93
f 97/97/97 93/93/93 98/98/98
f 94/94/94 95/95/95 98/98/98
f 99/99/99 89/89/89 98/98/98
f 89/89/89 99/99/99 91/91/91
f 95/95/95 91/91/91 99/99/99
f 99/99/99 98/98/98 95/95/95
f 100/100/100 97/97/97 92/92/92
f 96/96/96 100/100/100 90/90/90
f 92/92/92 90/90/90 100/100/100
f 100/100/100 96/96/96 97/97/97
f 103/103/103 102/102/102 101/101/101
f 104/104/104 101/101/101 102/102/102
f 103/103/103 105/105/105 102/102/102
f 102/102/102 105/105/105 104/104/104
f 101/101/101 106/106/106 103/103/103
f 107/107/107 103/103/103 106/106/106
f 107/107/107 106/106/106 108/108/108
f 108/108/108 105/105/105 103/103/103
f 107/107/107 108/108/108 103/103/103
f 109/109/109 108/108/108 106/106/106
f 109/109/109 106/106/106 101/101/101
f 110/110/110 104/104/104 105/105/105
f 109/109/109 110/110/110 108/108/108
f 105/105/105 108/108/108 110/110/110
f 104/104/104 110/110/110 101/101/101
f 110/110/110 109/109/109 101/101/101
f 113/113/113 112/112/112 111/111/111
f 114/114/114 111/111/111 112/112/112
f 114/114/114 112/112/112 115/115/115
f 114/114/114 115/115/115 111/111/111
f 116/116/116 115/115/115 112/112/112
f 112/112/112 113/113/113 116/116/116
f 113/113/113 111/111/111 117/117/117
f 118/118/118 117/117/117 111/111/111
f 118/118/118 111/111/111 119/119/119
f 120/120/120 119/119/119 111/111/111
f 121/121/121 120/120/120 111/111/111
f 111/111/111 115/115/115 121/121/121
f 121/121/121 115/115/115 122/122/122
f 122/122/122 123/123/123 121/121/121
f 122/122/122 115/115/115 123/123/123
f 116/116/116 123/123/123 115/115/115
f 124/124/124 121/121/121 123/123/123
f 116/116/116 124/124/124 123/123/123
f 113/113/113 124/124/124 116/116/116
f 124/124/124 125/125/125 121/121/121
f 126/126/126 121/121/121 125/125/125
f 121/121/121 126/126/126 120/120/120
f 124/124/124 127/127/127 125/125/125
f 113/113/113 117/117/117 127/127/127
f 113/113/113 127/127/127 124/124/124
f 120/120/120 127/127/127 119/119/119
f 128/128/128 125/125/125 127/127/127
f 129/129/129 120/120/120 126/126/126
f 128/128/128 127/127/127 129/129/129
f 120/120/120 129/129/129 127/127/127
f 126/126/126 125/125/125 129/129/129
f 128/128/128 129/129/129 125/125/125
f 130/130/130 127/127/127 117/117/117
f 117/117/117 118/118/118 130/130/130
f 119/119/119 130/130/130 118/118/118
f 130/130/130 119/119/119 127/127/127
f 133/133/133 132/132/132 131/131/131
f 134/134/134 131/131/131 132/132/132
f 131/131/131 134/134/134 135/135/135
f 135/135/135 136/136/136 131/131/131
f 135/135/135 137/137/137 136/136/136
f 138/138/138 136/136/136 137/137/137
f 137/137/137 139/139/139 138/138/138
f 137/137/137 140/140/140 139/139/139
f 141/141/141 139/139/139 140/140/140
f 141/141/141 140/140/140 142/142/142
f 142/142/142 143/143/143 141/141/141
f 144/144/144 141/141/141 143/143/143
f 144/144/144 143/143/143 145/145/145
f 139/139/139 141/141/141 145/145/145
f 144/144/144 145/145/145 141/141/141
f 145/145/145 146/146/146 139/139/139
f 146/146/146 145/145/145 143/143/143
f 143/143/143 142/142/142 146/146/146
f 147/147/147 139/139/139 146/146/146
f 147/147/147 138/138/138 139/139/139
f 147/147/147 146/146/146 142/142/142
f 138/138/138 147/147/147 148/148/148
f 142/142/142 148/148/148 147/147/147
f 148/148/148 142/142/142 140/140/140
f 140/140/140 149/149/149 148/148/148
f 135/135/135 149/149/149 137/137/137
f 140/140/140 137/137/137 149/149/149
f 149/149/149 135/135/135 134/134/134
f 150/150/150 148/148/148 149/149/149
f 136/136/136 138/138/138 150/150/150
f 148/148/148 150/150/150 138/138/138
f 149/149/149 134/134/134 150/150/150
f 151/151/151 150/150/150 134/134/134
f 150/150/150 151/151/151 136/136/136
f 152/152/152 136/136/136 151/151/151
f 151/151/151 153/153/153 152/152/152
f 154/154/154 152/152/152 153/153/153
f 152/152/152 131/131/131 136/136/136
f 134/134/134 132/132/132 151/151/151
f 153/153/153 151/151/151 132/132/132
f 153/153/153 132/132/132 154/154/154
f 131/131/131 152/152/152 133/133/133
f 154/154/154 133/133/133 152/152/152
f 133/133/133 154/154/154 132/132/132
