g Area_Common_Build_Ruin_Stair_A_03_Col
v -0.307576 0.9876869 2.32801
v -0.3075763 -0.0130246 -2.332245
v -0.307576 0.9876868 -2.332245
v -0.3075763 -0.01302444 2.32801
v 0.3135303 -0.0130249 -2.332245
v 0.3135303 -0.01302475 2.32801
v 0.3135309 0.9876865 2.32801
v 0.3135309 0.9876863 -2.332245
v -0.08637947 1.30041 -0.4484027
v 0.0908036 1.30041 -0.4484029
v -0.08637947 1.30041 0.4477237
v 0.0908036 1.30041 0.4477236
v 0.1516084 1.613134 0.001438389
v -0.148715 1.613134 0.001438389
vn -0.5884557 0.5262925 0.6137883
vn -0.5773505 -0.57735 -0.5773503
vn -0.5884312 0.5263851 -0.6137325
vn -0.5773504 -0.57735 0.5773503
vn 0.5773499 -0.5773506 -0.5773503
vn 0.57735 -0.5773506 0.5773503
vn 0.5884683 0.5263109 0.6137605
vn 0.5884439 0.5264031 -0.6137047
vn -0.5318019 0.8180814 -0.2189279
vn 0.5304065 0.8190963 -0.2185183
vn -0.5324071 0.8174005 0.2199981
vn 0.5310124 0.8184182 0.2195852
vn 0.6774718 0.7355473 0.001493674
vn -0.6793462 0.7338164 0.001493854
g Area_Common_Build_Ruin_Stair_A_03_Col_0
f 3/3/3 2/2/2 1/1/1
f 4/4/4 1/1/1 2/2/2
f 2/2/2 5/5/5 4/4/4
f 6/6/6 4/4/4 5/5/5
f 4/4/4 6/6/6 1/1/1
f 6/6/6 5/5/5 7/7/7
f 7/7/7 1/1/1 6/6/6
f 8/8/8 7/7/7 5/5/5
f 3/3/3 8/8/8 2/2/2
f 5/5/5 2/2/2 8/8/8
f 3/3/3 9/9/9 8/8/8
f 10/10/10 8/8/8 9/9/9
f 8/8/8 10/10/10 7/7/7
f 1/1/1 11/11/11 3/3/3
f 9/9/9 3/3/3 11/11/11
f 12/12/12 7/7/7 10/10/10
f 7/7/7 12/12/12 1/1/1
f 11/11/11 1/1/1 12/12/12
f 12/12/12 13/13/13 11/11/11
f 13/13/13 12/12/12 10/10/10
f 14/14/14 11/11/11 13/13/13
f 13/13/13 10/10/10 14/14/14
f 9/9/9 14/14/14 10/10/10
f 14/14/14 9/9/9 11/11/11
