g Area_Common_Build_Plinth_A_01_Col
v -2.154574 -0.03151569 2.512824
v -2.503671 -0.03150909 -2.163727
v -2.503666 -0.03151485 2.163733
v -2.154579 -0.03150909 -2.51282
v 2.154574 -0.03151493 -2.512825
v 2.154577 -0.03151939 2.51282
v 2.503666 -0.03151573 -2.163731
v 2.503671 -0.03151928 2.163728
v 2.552112 0.5305055 -2.2056
v 2.552117 0.5305018 2.205596
v 2.196268 0.5305018 2.561443
v -2.196265 0.5305057 2.561447
v -2.552112 0.5305064 2.205601
v -2.552117 0.5305123 -2.205596
v -2.19627 0.5305123 -2.561444
v 2.196265 0.5305064 -2.561448
v 1.634764 3.44186 -1.412805
v 1.634767 3.441858 1.412802
v 1.406827 3.441858 1.64074
v -1.406825 3.44186 1.640743
v -1.634765 3.44186 1.412805
v -1.634767 3.441864 -1.412802
v -1.406828 3.441864 -1.640742
v 1.406825 3.44186 -1.640745
vn -0.2778937 -0.6701953 0.6881958
vn -0.6882794 -0.6701297 -0.2778447
vn -0.688279 -0.6701297 0.2778455
vn -0.2778956 -0.6701943 -0.688196
vn 0.2778941 -0.6701943 -0.6881965
vn 0.2778933 -0.6701951 0.6881961
vn 0.6882786 -0.6701304 -0.2778452
vn 0.6882789 -0.6701299 0.2778454
vn 0.9098276 0.1279819 -0.3947585
vn 0.9098271 0.1279822 0.3947598
vn 0.3945729 0.1281188 0.9098889
vn -0.3945725 0.1281188 0.9098891
vn -0.9098268 0.1279822 0.3947603
vn -0.9098279 0.127982 -0.3947579
vn -0.3945749 0.1281186 -0.9098881
vn 0.3945743 0.1281188 -0.9098882
vn 0.6044928 0.7636907 -0.2266385
vn 0.6044924 0.7636905 0.2266408
vn 0.226783 0.7639059 0.6041665
vn -0.2267818 0.7639059 0.6041671
vn -0.6044911 0.7636912 0.2266414
vn -0.6044919 0.7636915 -0.2266379
vn -0.2267836 0.7639066 -0.6041655
vn 0.2267848 0.7639061 -0.6041657
g Area_Common_Build_Plinth_A_01_Col_0
f 3/3/3 2/2/2 1/1/1
f 4/4/4 1/1/1 2/2/2
f 4/4/4 5/5/5 1/1/1
f 6/6/6 1/1/1 5/5/5
f 5/5/5 7/7/7 6/6/6
f 8/8/8 6/6/6 7/7/7
f 7/7/7 9/9/9 8/8/8
f 10/10/10 8/8/8 9/9/9
f 8/8/8 10/10/10 6/6/6
f 6/6/6 11/11/11 1/1/1
f 11/11/11 6/6/6 10/10/10
f 12/12/12 1/1/1 11/11/11
f 1/1/1 12/12/12 3/3/3
f 13/13/13 3/3/3 12/12/12
f 3/3/3 13/13/13 2/2/2
f 14/14/14 2/2/2 13/13/13
f 2/2/2 14/14/14 4/4/4
f 4/4/4 15/15/15 5/5/5
f 15/15/15 4/4/4 14/14/14
f 16/16/16 5/5/5 15/15/15
f 5/5/5 16/16/16 7/7/7
f 9/9/9 7/7/7 16/16/16
f 9/9/9 17/17/17 10/10/10
f 18/18/18 10/10/10 17/17/17
f 10/10/10 18/18/18 11/11/11
f 11/11/11 19/19/19 12/12/12
f 19/19/19 11/11/11 18/18/18
f 20/20/20 12/12/12 19/19/19
f 12/12/12 20/20/20 13/13/13
f 21/21/21 13/13/13 20/20/20
f 13/13/13 21/21/21 14/14/14
f 22/22/22 14/14/14 21/21/21
f 14/14/14 22/22/22 15/15/15
f 21/21/21 20/20/20 22/22/22
f 15/15/15 23/23/23 16/16/16
f 23/23/23 15/15/15 22/22/22
f 23/23/23 22/22/22 20/20/20
f 20/20/20 19/19/19 23/23/23
f 24/24/24 16/16/16 23/23/23
f 16/16/16 24/24/24 9/9/9
f 17/17/17 9/9/9 24/24/24
f 19/19/19 18/18/18 24/24/24
f 17/17/17 24/24/24 18/18/18
f 24/24/24 23/23/23 19/19/19
