g Area_Common_Build_ShortWall_G_01_Col
v 1.036519 2.193723 3.007212
v 1.260085 2.193722 -2.792753
v 1.260085 2.193723 2.792737
v -1.036519 2.193722 -3.007228
v 1.036519 2.193722 -3.007228
v -1.036519 2.193723 3.007212
v -1.260085 2.193723 2.792737
v -1.260085 2.193722 -2.792753
v 1.356085 2.053722 2.934711
v 1.356085 2.053722 -2.934711
v 2.217918 -2.321364 -3.382993
v 2.217918 -2.321364 3.382994
v 1.132519 2.053722 3.158276
v -1.036519 2.193723 3.007212
v -1.132519 2.053722 3.158276
v -1.260085 2.193723 2.792737
v -1.356085 2.053722 2.934711
v -1.356085 2.053722 -2.934711
v -2.217918 -2.321364 3.382994
v -2.217918 -2.321364 -3.382993
v -1.260085 2.193722 -2.792753
v 1.994353 -2.321364 3.606559
v 1.994353 -2.321364 -3.606559
v 1.132519 2.053722 -3.158276
v -1.132519 2.053722 -3.158276
v -1.994353 -2.321364 -3.606559
v -1.994353 -2.321364 3.606559
v -1.036519 2.193722 -3.007228
v -1.132519 2.053722 -3.158276
v -1.994353 -2.321364 -3.606559
v -1.132519 2.053722 -3.158276
v -1.036519 2.193722 -3.007228
v -1.357831 1.662593 2.918726
v -0.8527013 1.662593 0.8326398
v -1.475897 1.662593 0.8326398
v -0.8527013 1.662593 3.090977
v -1.357831 2.302877 2.918726
v -0.8527013 2.334742 0.8326398
v -0.8527013 2.302877 3.090977
v -1.475897 2.334742 0.8326398
v -1.357831 1.662593 2.918726
v -0.8527013 2.302877 3.090977
v -0.8527013 1.662593 3.090977
v -1.357831 2.302877 2.918726
v -0.8527013 1.662593 3.090977
v -0.8527013 2.334742 0.8326398
v -0.8527013 1.662593 0.8326398
v -0.8527013 2.302877 3.090977
v -0.8527013 1.662593 0.8326398
v -1.475897 2.334742 0.8326398
v -1.475897 1.662593 0.8326398
v -0.8527013 2.334742 0.8326398
v -1.475897 1.662593 0.8326398
v -1.357831 2.302877 2.918726
v -1.357831 1.662593 2.918726
v -1.475897 2.334742 0.8326398
v -1.064428 1.5985 -3.208352
v 1.113914 1.580195 -2.48379
v 1.155107 1.5985 -3.105623
v -1.393062 1.5985 -2.3363
v -1.064428 2.238785 -3.208352
v 1.113914 2.252344 -2.48379
v -1.393062 2.238785 -2.3363
v 1.155107 2.270649 -3.105623
v -1.064428 1.5985 -3.208352
v -1.393062 2.238785 -2.3363
v -1.393062 1.5985 -2.3363
v -1.064428 2.238785 -3.208352
v -1.393062 1.5985 -2.3363
v 1.113914 2.252344 -2.48379
v 1.113914 1.580195 -2.48379
v -1.393062 2.238785 -2.3363
v 1.113914 1.580195 -2.48379
v 1.155107 2.270649 -3.105623
v 1.155107 1.5985 -3.105623
v 1.113914 2.252344 -2.48379
v 1.155107 1.5985 -3.105623
v -1.064428 2.238785 -3.208352
v -1.064428 1.5985 -3.208352
v 1.155107 2.270649 -3.105623
v 1.195616 -0.262672 -2.24288
v 1.903981 -0.2626719 -3.354072
v 1.07755 -0.2626719 -3.354072
v 1.903981 -0.262672 -2.24288
v 1.195616 0.3776127 -2.24288
v 1.903981 0.4094767 -3.354072
v 1.903981 0.3776127 -2.24288
v 1.07755 0.4094767 -3.354072
v 1.195616 -0.262672 -2.24288
v 1.903981 0.3776127 -2.24288
v 1.903981 -0.262672 -2.24288
v 1.195616 0.3776127 -2.24288
v 1.903981 -0.262672 -2.24288
v 1.903981 0.4094767 -3.354072
v 1.903981 -0.2626719 -3.354072
v 1.903981 0.3776127 -2.24288
v 1.903981 -0.2626719 -3.354072
v 1.07755 0.4094767 -3.354072
v 1.07755 -0.2626719 -3.354072
v 1.903981 0.4094767 -3.354072
v 1.07755 -0.2626719 -3.354072
v 1.195616 0.3776127 -2.24288
v 1.195616 -0.262672 -2.24288
v 1.07755 0.4094767 -3.354072
v -1.793442 -0.3558545 -2.24288
v -1.090207 -0.4409477 -3.354072
v -1.910653 -0.3416716 -3.354072
v -1.090207 -0.4409477 -2.24288
v -1.716527 0.2797938 -2.24288
v -1.009464 0.2263337 -3.354072
v -1.013292 0.1947006 -2.24288
v -1.829911 0.3256099 -3.354072
v -1.793442 -0.3558545 -2.24288
v -1.013292 0.1947006 -2.24288
v -1.090207 -0.4409477 -2.24288
v -1.716527 0.2797938 -2.24288
v -1.090207 -0.4409477 -2.24288
v -1.009464 0.2263337 -3.354072
v -1.090207 -0.4409477 -3.354072
v -1.013292 0.1947006 -2.24288
v -1.090207 -0.4409477 -3.354072
v -1.829911 0.3256099 -3.354072
v -1.910653 -0.3416716 -3.354072
v -1.009464 0.2263337 -3.354072
v -1.910653 -0.3416716 -3.354072
v -1.716527 0.2797938 -2.24288
v -1.793442 -0.3558545 -2.24288
v -1.829911 0.3256099 -3.354072
v -0.867698 1.771931 2.928721
v 1.049661 1.771931 3.329462
v 1.217093 1.771931 2.789644
v -0.5671437 1.771931 3.185564
v -0.867698 2.198848 2.928721
v 1.049661 2.220094 3.329462
v -0.5671437 2.198848 3.185564
v 1.217093 2.220094 2.789644
v -0.867698 1.771931 2.928721
v -0.5671437 2.198848 3.185564
v -0.5671437 1.771931 3.185564
v -0.867698 2.198848 2.928721
v -0.5671437 1.771931 3.185564
v 1.049661 2.220094 3.329462
v 1.049661 1.771931 3.329462
v -0.5671437 2.198848 3.185564
v 1.049661 1.771931 3.329462
v 1.217093 2.220094 2.789644
v 1.217093 1.771931 2.789644
v 1.049661 2.220094 3.329462
v 1.217093 1.771931 2.789644
v -0.867698 2.198848 2.928721
v -0.867698 1.771931 2.928721
v 1.217093 2.220094 2.789644
vt 1.740881 0.06684227
vt 2.704283 0.03444681
vt 1.77642 0.03444681
vt 2.737498 0.3672316
vt 2.737498 0.06684211
vt 1.740881 0.3672332
vt 1.77642 0.3996286
vt 2.701958 0.3996269
vt 1.776155 0.002474278
vt 2.704283 0.002474278
vt 2.704283 -0.6050039
vt 1.771771 -0.6050039
vt 1.694278 0.002474278
vt 1.214839 0.03444681
vt 1.214839 0.002474272
vt 1.143868 0.03444681
vt 1.143868 0.002474271
vt 0.2575866 0.002474278
vt 1.143868 -0.6050039
vt 0.2575866 -0.6050039
vt 0.2575866 0.03444681
vt 1.712387 -0.6050039
vt 2.77201 -0.6050039
vt 2.77201 0.002474278
vt 0.2224068 0.002334318
vt 0.2224068 -0.6052318
vt 1.214839 -0.6050039
vt 0.2224068 0.03453276
vt 3.222636 0.002474248
vt 3.394097 -0.6050039
vt 3.281213 -0.03292138
vt 3.257149 0.002051502
vt 1 0
vt 0 1
vt 1 1
vt 0 0
vt 0 0
vt 1 1
vt 1 0
vt 0 1
vt 0 0
vt 1 1
vt 1 0
vt 0 1
vt 0 0
vt 1 1
vt 1 0
vt 0 1
vt 0 0
vt 1 1
vt 1 0
vt 0 1
vt 0 0
vt 1 1
vt 1 0
vt 0 1
vt 1 0
vt 0 1
vt 1 1
vt 0 0
vt 0 0
vt 1 1
vt 1 0
vt 0 1
vt 0 0
vt 1 1
vt 1 0
vt 0 1
vt 0 0
vt 1 1
vt 1 0
vt 0 1
vt 0 0
vt 1 1
vt 1 0
vt 0 1
vt 0 0
vt 1 1
vt 1 0
vt 0 1
vt 1 0
vt 0 1
vt 1 1
vt 0 0
vt 0 0
vt 1 1
vt 1 0
vt 0 1
vt 0 0
vt 1 1
vt 1 0
vt 0 1
vt 0 0
vt 1 1
vt 1 0
vt 0 1
vt 0 0
vt 1 1
vt 1 0
vt 0 1
vt 0 0
vt 1 1
vt 1 0
vt 0 1
vt 1 0
vt 0 1
vt 1 1
vt 0 0
vt 0 0
vt 1 1
vt 1 0
vt 0 1
vt 0 0
vt 1 1
vt 1 0
vt 0 1
vt 0 0
vt 1 1
vt 1 0
vt 0 1
vt 0 0
vt 1 1
vt 1 0
vt 0 1
vt 0 0
vt 1 1
vt 1 0
vt 0 1
vt 1 0
vt 0 1
vt 1 1
vt 0 0
vt 0 0
vt 1 1
vt 1 0
vt 0 1
vt 0 0
vt 1 1
vt 1 0
vt 0 1
vt 0 0
vt 1 1
vt 1 0
vt 0 1
vt 0 0
vt 1 1
vt 1 0
vt 0 1
vt 0 0
vt 1 1
vt 1 0
vt 0 1
vn 0.1314512 0.916611 0.3775513
vn 0.4650744 0.8770407 -0.1204387
vn 0.4650731 0.8770426 0.12043
vn -0.1314547 0.9166011 -0.3775738
vn 0.1314547 0.9166011 -0.3775739
vn -0.1314513 0.916611 0.3775513
vn -0.4650734 0.8770424 0.12043
vn -0.4650742 0.8770407 -0.1204387
vn 0.8067275 0.4680735 0.3606911
vn 0.8067331 0.4680638 -0.360691
vn 0.7720492 -0.5469826 -0.3236509
vn 0.7720494 -0.5469821 0.3236515
vn 0.3238097 0.4710005 0.8205521
vn -0.1314513 0.916611 0.3775513
vn -0.3238096 0.4710006 0.8205521
vn -0.4650734 0.8770424 0.12043
vn -0.8067275 0.4680733 0.3606912
vn -0.8067331 0.4680637 -0.360691
vn -0.7720492 -0.5469825 0.3236512
vn -0.7720492 -0.5469826 -0.3236508
vn -0.4650742 0.8770407 -0.1204387
vn 0.3402728 -0.5642843 0.7521951
vn 0.3402732 -0.5642842 -0.7521951
vn 0.3238147 0.4709863 -0.8205582
vn -0.3238147 0.4709863 -0.8205583
vn -0.3402731 -0.5642843 -0.7521951
vn -0.3402728 -0.5642843 0.7521952
vn -0.1314547 0.9166011 -0.3775738
vn -0.3238147 0.4709863 -0.8205583
vn -0.3402731 -0.5642843 -0.7521951
vn -0.3238147 0.4709863 -0.8205583
vn -0.1314547 0.9166011 -0.3775738
vn -0.6369708 -0.6003547 0.4835726
vn 0.5773502 -0.5773503 -0.5773503
vn -0.5949306 -0.5744354 -0.5622113
vn 0.4813184 -0.5620092 0.6726652
vn -0.6384845 0.5950428 0.4881206
vn 0.5765223 0.5821086 -0.5733861
vn 0.4815829 0.558005 0.6758019
vn -0.5940279 0.5791214 -0.558345
vn -0.6369708 -0.6003547 0.4835726
vn 0.4815829 0.558005 0.6758019
vn 0.4813184 -0.5620092 0.6726652
vn -0.6384845 0.5950428 0.4881206
vn 0.4813184 -0.5620092 0.6726652
vn 0.5765223 0.5821086 -0.5733861
vn 0.5773502 -0.5773503 -0.5773503
vn 0.4815829 0.558005 0.6758019
vn 0.5773502 -0.5773503 -0.5773503
vn -0.5940279 0.5791214 -0.558345
vn -0.5949306 -0.5744354 -0.5622113
vn 0.5765223 0.5821086 -0.5733861
vn -0.5949306 -0.5744354 -0.5622113
vn -0.6384845 0.5950428 0.4881206
vn -0.6369708 -0.6003547 0.4835726
vn -0.5940279 0.5791214 -0.558345
vn -0.4433523 -0.5931295 -0.6720388
vn 0.5701945 -0.5933545 0.5681626
vn 0.6113912 -0.5670744 -0.5519307
vn -0.6695889 -0.5564342 0.4919671
vn -0.4438352 0.5933961 -0.6714845
vn 0.569509 0.5795658 0.5828919
vn -0.6691883 0.5569579 0.4919197
vn 0.6036348 0.5899061 -0.5363169
vn -0.4433523 -0.5931295 -0.6720388
vn -0.6691883 0.5569579 0.4919197
vn -0.6695889 -0.5564342 0.4919671
vn -0.4438352 0.5933961 -0.6714845
vn -0.6695889 -0.5564342 0.4919671
vn 0.569509 0.5795658 0.5828919
vn 0.5701945 -0.5933545 0.5681626
vn -0.6691883 0.5569579 0.4919197
vn 0.5701945 -0.5933545 0.5681626
vn 0.6036348 0.5899061 -0.5363169
vn 0.6113912 -0.5670744 -0.5519307
vn 0.569509 0.5795658 0.5828919
vn 0.6113912 -0.5670744 -0.5519307
vn -0.4438352 0.5933961 -0.6714845
vn -0.4433523 -0.5931295 -0.6720388
vn 0.6036348 0.5899061 -0.5363169
vn -0.5432487 -0.5831218 0.604028
vn 0.5773503 -0.5773502 -0.5773503
vn -0.6098853 -0.5719872 -0.5485168
vn 0.5773503 -0.5773503 0.5773503
vn -0.5443898 0.5736803 0.6119892
vn 0.5758578 0.5863217 -0.5697497
vn 0.5788727 0.5682638 0.5847928
vn -0.6080356 0.5805712 -0.541507
vn -0.5432487 -0.5831218 0.604028
vn 0.5788727 0.5682638 0.5847928
vn 0.5773503 -0.5773503 0.5773503
vn -0.5443898 0.5736803 0.6119892
vn 0.5773503 -0.5773503 0.5773503
vn 0.5758578 0.5863217 -0.5697497
vn 0.5773503 -0.5773502 -0.5773503
vn 0.5788727 0.5682638 0.5847928
vn 0.5773503 -0.5773502 -0.5773503
vn -0.6080356 0.5805712 -0.541507
vn -0.6098853 -0.5719872 -0.5485168
vn 0.5758578 0.5863217 -0.5697497
vn -0.6098853 -0.5719872 -0.5485168
vn -0.5443898 0.5736803 0.6119892
vn -0.5432487 -0.5831218 0.604028
vn -0.6080356 0.5805712 -0.541507
vn -0.6093631 -0.5136408 0.604028
vn 0.5038145 -0.6425245 -0.5773503
vn -0.6741795 -0.4945819 -0.5485168
vn 0.5038145 -0.6425245 0.5773503
vn -0.4715337 0.6349216 0.611989
vn 0.6421205 0.5129002 -0.5697497
vn 0.6429443 0.494611 0.5847927
vn -0.5338906 0.6494082 -0.5415069
vn -0.6093631 -0.5136408 0.604028
vn 0.6429443 0.494611 0.5847927
vn 0.5038145 -0.6425245 0.5773503
vn -0.4715337 0.6349216 0.611989
vn 0.5038145 -0.6425245 0.5773503
vn 0.6421205 0.5129002 -0.5697497
vn 0.5038145 -0.6425245 -0.5773503
vn 0.6429443 0.494611 0.5847927
vn 0.5038145 -0.6425245 -0.5773503
vn -0.5338906 0.6494082 -0.5415069
vn -0.6741795 -0.4945819 -0.5485168
vn 0.6421205 0.5129002 -0.5697497
vn -0.6741795 -0.4945819 -0.5485168
vn -0.4715337 0.6349216 0.611989
vn -0.6093631 -0.5136408 0.604028
vn -0.5338906 0.6494082 -0.5415069
vn -0.794799 -0.546625 -0.2636201
vn 0.4499094 -0.5893245 0.6710278
vn 0.6500106 -0.5604526 -0.5132048
vn -0.2962753 -0.6446016 0.7047763
vn -0.7972586 0.5430371 -0.2636086
vn 0.4468148 0.5930263 0.6698332
vn -0.302105 0.6361543 0.7099578
vn 0.6477908 0.5632953 -0.5128992
vn -0.794799 -0.546625 -0.2636201
vn -0.302105 0.6361543 0.7099578
vn -0.2962753 -0.6446016 0.7047763
vn -0.7972586 0.5430371 -0.2636086
vn -0.2962753 -0.6446016 0.7047763
vn 0.4468148 0.5930263 0.6698332
vn 0.4499094 -0.5893245 0.6710278
vn -0.302105 0.6361543 0.7099578
vn 0.4499094 -0.5893245 0.6710278
vn 0.6477908 0.5632953 -0.5128992
vn 0.6500106 -0.5604526 -0.5132048
vn 0.4468148 0.5930263 0.6698332
vn 0.6500106 -0.5604526 -0.5132048
vn -0.7972586 0.5430371 -0.2636086
vn -0.794799 -0.546625 -0.2636201
vn 0.6477908 0.5632953 -0.5128992
g Area_Common_Build_ShortWall_G_01_Col_0
f 3/3/3 2/2/2 1/1/1
f 2/2/2 4/4/4 1/1/1
f 5/5/5 4/4/4 2/2/2
f 1/1/1 4/4/4 6/6/6
f 6/6/6 4/4/4 7/7/7
f 4/4/4 8/8/8 7/7/7
f 3/3/3 9/9/9 2/2/2
f 10/10/10 2/2/2 9/9/9
f 10/10/10 9/9/9 11/11/11
f 12/12/12 11/11/11 9/9/9
f 9/9/9 13/13/13 12/12/12
f 9/9/9 3/3/3 13/13/13
f 1/1/1 13/13/13 3/3/3
f 1/1/1 14/14/14 13/13/13
f 15/15/15 13/13/13 14/14/14
f 14/14/14 16/16/16 15/15/15
f 17/17/17 15/15/15 16/16/16
f 17/17/17 16/16/16 18/18/18
f 17/17/17 18/18/18 19/19/19
f 20/20/20 19/19/19 18/18/18
f 21/21/21 18/18/18 16/16/16
f 22/22/22 12/12/12 13/13/13
f 12/12/12 22/22/22 11/11/11
f 11/11/11 23/23/23 10/10/10
f 23/23/23 11/11/11 22/22/22
f 24/24/24 10/10/10 23/23/23
f 18/18/18 25/25/25 20/20/20
f 18/18/18 21/21/21 25/25/25
f 26/26/26 20/20/20 25/25/25
f 20/20/20 26/26/26 19/19/19
f 23/23/23 22/22/22 26/26/26
f 19/19/19 27/27/27 17/17/17
f 15/15/15 17/17/17 27/27/27
f 27/27/27 19/19/19 26/26/26
f 22/22/22 27/27/27 26/26/26
f 22/22/22 13/13/13 27/27/27
f 15/15/15 27/27/27 13/13/13
f 28/28/28 25/25/25 21/21/21
f 24/24/24 23/23/23 29/29/29
f 30/30/30 29/29/29 23/23/23
f 24/24/24 31/31/31 5/5/5
f 32/32/32 5/5/5 31/31/31
f 5/5/5 2/2/2 24/24/24
f 10/10/10 24/24/24 2/2/2
f 35/35/35 34/34/34 33/33/33
f 36/36/36 33/33/33 34/34/34
f 39/39/39 38/38/38 37/37/37
f 40/40/40 37/37/37 38/38/38
f 43/43/43 42/42/42 41/41/41
f 44/44/44 41/41/41 42/42/42
f 47/47/47 46/46/46 45/45/45
f 48/48/48 45/45/45 46/46/46
f 51/51/51 50/50/50 49/49/49
f 52/52/52 49/49/49 50/50/50
f 55/55/55 54/54/54 53/53/53
f 56/56/56 53/53/53 54/54/54
f 59/59/59 58/58/58 57/57/57
f 60/60/60 57/57/57 58/58/58
f 63/63/63 62/62/62 61/61/61
f 64/64/64 61/61/61 62/62/62
f 67/67/67 66/66/66 65/65/65
f 68/68/68 65/65/65 66/66/66
f 71/71/71 70/70/70 69/69/69
f 72/72/72 69/69/69 70/70/70
f 75/75/75 74/74/74 73/73/73
f 76/76/76 73/73/73 74/74/74
f 79/79/79 78/78/78 77/77/77
f 80/80/80 77/77/77 78/78/78
f 83/83/83 82/82/82 81/81/81
f 84/84/84 81/81/81 82/82/82
f 87/87/87 86/86/86 85/85/85
f 88/88/88 85/85/85 86/86/86
f 91/91/91 90/90/90 89/89/89
f 92/92/92 89/89/89 90/90/90
f 95/95/95 94/94/94 93/93/93
f 96/96/96 93/93/93 94/94/94
f 99/99/99 98/98/98 97/97/97
f 100/100/100 97/97/97 98/98/98
f 103/103/103 102/102/102 101/101/101
f 104/104/104 101/101/101 102/102/102
f 107/107/107 106/106/106 105/105/105
f 108/108/108 105/105/105 106/106/106
f 111/111/111 110/110/110 109/109/109
f 112/112/112 109/109/109 110/110/110
f 115/115/115 114/114/114 113/113/113
f 116/116/116 113/113/113 114/114/114
f 119/119/119 118/118/118 117/117/117
f 120/120/120 117/117/117 118/118/118
f 123/123/123 122/122/122 121/121/121
f 124/124/124 121/121/121 122/122/122
f 127/127/127 126/126/126 125/125/125
f 128/128/128 125/125/125 126/126/126
f 131/131/131 130/130/130 129/129/129
f 132/132/132 129/129/129 130/130/130
f 135/135/135 134/134/134 133/133/133
f 136/136/136 133/133/133 134/134/134
f 139/139/139 138/138/138 137/137/137
f 140/140/140 137/137/137 138/138/138
f 143/143/143 142/142/142 141/141/141
f 144/144/144 141/141/141 142/142/142
f 147/147/147 146/146/146 145/145/145
f 148/148/148 145/145/145 146/146/146
f 151/151/151 150/150/150 149/149/149
f 152/152/152 149/149/149 150/150/150
