g Area_Common_Build_Hili_House_04_Lod0
v 0.2017218 0.01965904 0.003101815
v 0.1101612 0.5822763 -0.04108724
v 0.1426389 0.01965904 -0.1395371
v 0.1560982 0.5822763 0.06916596
v -0.0007405067 0.5822763 -0.08675556
v -8.014705E-08 0.01965912 -0.19862
v -0.1116421 0.5822766 -0.04108725
v -0.1426389 0.01965904 -0.1395371
v 0.1426389 0.01965904 0.1457407
v 0.1101612 0.5822765 0.1794191
v -1.960495E-08 0.01965904 0.2048236
v -0.0007405364 0.5822762 0.2250874
v -0.1426388 0.01965904 0.1457407
v -0.1116421 0.5822765 0.1794191
v -0.2017218 0.01965904 0.003101734
v -0.1575791 0.5822762 0.06916601
v -0.1426389 0.01965904 -0.1395371
v -0.1116421 0.5822766 -0.04108725
v -0.001481021 1.125214 -0.08182292
v 0.09399772 1.125214 -0.04280023
v 0.07750858 1.566662 -0.1012345
v 0.1335463 1.125214 0.05140886
v 0.1096136 1.566662 -0.0228375
v 0.05914526 2.19571 -0.1458531
v 0.08268312 2.19571 -0.09074348
v 0.03483066 2.776476 -0.1065084
v 0.04165503 2.776475 -0.05799991
v 0.001879342 2.776475 -0.1199036
v 0.002319792 2.19571 -0.1686803
v -0.03107197 2.776475 -0.1065084
v -0.05450568 2.19571 -0.1458531
v 0.0591453 2.195711 -0.03563389
v 0.001879319 2.776476 -0.0284351
v 0.002319819 2.195711 -0.01280671
v -0.05450561 2.19571 -0.03563382
v -0.03789642 2.776475 -0.05799987
v -0.07804354 2.19571 -0.09074345
v -0.05450568 2.19571 -0.1458531
v -0.03107197 2.776475 -0.1065084
v 1.029375E-09 1.566662 -0.1337076
v -0.07750848 1.566662 -0.1012345
v -0.07750848 1.566662 -0.1012345
v -0.1096136 1.566662 -0.02283752
v -0.07750849 1.566663 0.05555942
v 4.693648E-08 1.566662 0.08803256
v 0.07750862 1.566662 0.05555945
v -0.09695964 1.125214 -0.04280032
v -0.09695964 1.125214 -0.04280032
v -0.1365083 1.125214 0.05140887
v -0.0969597 1.125214 0.1456179
v -0.001481001 1.125214 0.1846406
v 0.09399778 1.125214 0.1456179
v 0.2017218 0.01965904 0.003101815
v 0.1426389 0.01965904 -0.1395371
v 0.1426389 0.01965904 0.1457407
v -1.960495E-08 0.01965904 0.2048236
v -8.014705E-08 0.01965912 -0.19862
v -0.1426389 0.01965904 -0.1395371
v -0.1426388 0.01965904 0.1457407
v -0.2017218 0.01965904 0.003101734
v 0.01533641 3.140273 -0.02196168
v 0.00322407 3.153638 -0.008981335
v -0.006805475 3.138074 -0.03176326
v -0.01683135 3.136537 -0.008145898
v 0.008168254 3.136282 -0.0003758329
v -0.006805475 3.138074 -0.03176326
v 0.01533641 3.140273 -0.02196168
v -0.006805475 3.138074 -0.03176326
v 0.1654025 0.580091 0.07260741
v 0.1126712 0.7589619 -0.04136705
v 0.11626 0.580091 -0.04416978
v 0.1654025 0.7589619 0.0726074
v -0.0009490366 0.7589619 -0.09409841
v -0.0009490366 0.580091 -0.09409841
v -0.1145692 0.7589619 -0.04136703
v -0.1186427 0.580091 -0.04725325
v -0.1673005 0.7589619 0.0726074
v -0.1673005 0.580091 0.07260741
v 0.1159597 0.7589619 0.194199
v 0.1159597 0.580091 0.194199
v -0.0009490366 0.7589619 0.2393132
v -0.0009490366 0.580091 0.2393132
v -0.1145692 0.7589619 0.1865818
v -0.1145692 0.580091 0.1865818
v -0.1673005 0.7589619 0.0726074
v -0.1673005 0.580091 0.07260741
v 0.1126712 0.7589619 -0.04136705
v 0.1654025 0.7589619 0.0726074
v 0.1159597 0.7589619 0.194199
v -0.0009490366 0.7589619 0.2393132
v -0.0009490366 0.7589619 -0.09409841
v -0.1145692 0.7589619 -0.04136703
v -0.1145692 0.7589619 0.1865818
v -0.1673005 0.7589619 0.0726074
v 0.11626 0.580091 -0.04416978
v -0.0009490366 0.580091 0.2393132
v 0.1159597 0.580091 0.194199
v -0.0009490366 0.580091 -0.09409841
v -0.1145692 0.580091 0.1865818
v -0.1186427 0.580091 -0.04725325
v 0.1654025 0.580091 0.07260741
v -0.1673005 0.580091 0.07260741
v 0.09601206 2.268091 -0.09526245
v 0.07070734 2.150408 -0.1585409
v 0.09850175 2.150408 -0.09143932
v 0.06894691 2.268091 -0.1606035
v 0.07070734 2.150408 -0.02433768
v 0.06894691 2.268091 -0.02992138
v 0.001362992 2.268091 -0.001926994
v 0.001362991 2.150409 0.0043855
v -0.06622107 2.268091 -0.02992138
v -0.06798159 2.150409 -0.02433768
v -0.09577595 2.150409 -0.09143932
v -0.09328628 2.268091 -0.09526245
v -0.06622107 2.268091 -0.1606035
v -0.06798159 2.150409 -0.1585409
v 0.001362991 2.150409 -0.187264
v 0.001362992 2.268091 -0.1885979
v 0.07070734 2.150408 -0.1585409
v 0.06894691 2.268091 -0.1606035
v 0.07070734 2.150408 -0.02433768
v 0.001362991 2.150409 -0.187264
v 0.001362991 2.150409 0.0043855
v 0.07070734 2.150408 -0.1585409
v -0.06798159 2.150409 -0.02433768
v -0.06798159 2.150409 -0.1585409
v 0.09850175 2.150408 -0.09143932
v -0.09577595 2.150409 -0.09143932
v -0.06622107 2.268091 -0.02992138
v 0.001362992 2.268091 -0.1885979
v 0.001362992 2.268091 -0.001926994
v -0.06622107 2.268091 -0.1606035
v 0.06894691 2.268091 -0.02992138
v 0.06894691 2.268091 -0.1606035
v 0.09601206 2.268091 -0.09526245
v -0.09328628 2.268091 -0.09526245
vt 0.1973095 0.317082
vt 0.2106164 0.437077
vt 0.2253876 0.317082
vt 0.1876936 0.437077
vt 0.2336388 0.437077
vt 0.2536842 0.317082
vt 0.2563525 0.437077
vt 0.2820099 0.317082
vt 0.1691643 0.317082
vt 0.1647488 0.437077
vt 0.1408223 0.317082
vt 0.1414718 0.437077
vt 0.11242 0.317082
vt 0.1182479 0.437077
vt 0.08384065 0.317082
vt 0.09525702 0.437077
vt 0.05514531 0.317082
vt 0.07245087 0.437077
vt 0.2206648 0.5535868
vt 0.2008136 0.5535868
vt 0.1934785 0.6486003
vt 0.1808618 0.5535868
vt 0.1763051 0.6486003
vt 0.1812304 0.7840614
vt 0.1682952 0.7840614
vt 0.1651674 0.9083888
vt 0.1539581 0.9082408
vt 0.1726943 0.9085659
vt 0.1941222 0.7840614
vt 0.180147 0.9088271
vt 0.2069951 0.7840614
vt 0.1552809 0.7840614
vt 0.1426755 0.9082376
vt 0.1422066 0.7840614
vt 0.1291377 0.7840614
vt 0.1314037 0.9083689
vt 0.1163727 0.7840614
vt 0.1036432 0.7840614
vt 0.1202351 0.9086227
vt 0.2107249 0.6486003
vt 0.2279742 0.6486003
vt 0.0893248 0.6486003
vt 0.1068243 0.6486003
vt 0.1243371 0.6486003
vt 0.1417074 0.6486003
vt 0.1590778 0.6486003
vt 0.2404995 0.5535868
vt 0.08169647 0.5535868
vt 0.1014351 0.5535868
vt 0.1211594 0.5535868
vt 0.1410605 0.5535868
vt 0.1609315 0.5535868
vt 0.108837 0.9196036
vt 0.0793485 0.8895312
vt 0.1084241 0.9617195
vt 0.07835174 0.9912079
vt 0.03723269 0.8891183
vt 0.007160267 0.9186067
vt 0.03623588 0.9907951
vt 0.006747337 0.9607227
vt 0.1475968 0.9920067
vt 0.1460631 0.9887354
vt 0.1420463 0.9926074
vt 0.1393143 0.9837521
vt 0.145876 0.9839134
vt 0.1347026 0.9864283
vt 0.1523355 0.9877813
vt 0.1580919 0.9863893
vt 0.3470421 0.9397697
vt 0.3843145 0.9946665
vt 0.3843145 0.9397697
vt 0.3470421 0.9946665
vt 0.421488 0.9946665
vt 0.421488 0.9397697
vt 0.4586608 0.9946665
vt 0.4586608 0.9397697
vt 0.4959331 0.9946665
vt 0.4959331 0.9397697
vt 0.3097699 0.9946665
vt 0.3097699 0.9397697
vt 0.2725972 0.9946665
vt 0.2725971 0.9397697
vt 0.2354237 0.9946665
vt 0.2354237 0.9397697
vt 0.1981512 0.9946665
vt 0.1981512 0.9397697
vt 0.06635632 0.7525224
vt 0.04771677 0.7367496
vt 0.02362847 0.7407454
vt 0.007874043 0.7593185
vt 0.07037032 0.7765443
vt 0.05461588 0.7951175
vt 0.01188803 0.7833404
vt 0.03052758 0.7991132
vt 0.02362847 0.6739962
vt 0.07037032 0.7097951
vt 0.06635632 0.6857732
vt 0.007874043 0.6925694
vt 0.05461588 0.7283682
vt 0.01188804 0.7165912
vt 0.04771677 0.6700004
vt 0.03052758 0.7323639
vt 0.0069634 0.5112488
vt 0.04398116 0.5332928
vt 0.04398116 0.5112488
vt 0.0069634 0.5332928
vt 0.04398116 0.4888316
vt 0.0069634 0.4888316
vt 0.0069634 0.466041
vt 0.04398116 0.466041
vt 0.0069634 0.4436238
vt 0.04398116 0.4436238
vt 0.04398116 0.4215797
vt 0.0069634 0.4215797
vt 0.0069634 0.3991625
vt 0.04398116 0.3991625
vt 0.04398116 0.3763719
vt 0.0069634 0.3763719
vt 0.04398116 0.3532884
vt 0.0069634 0.3532884
vt 0.05671681 0.5806801
vt 0.02026375 0.5442191
vt 0.04111232 0.5959815
vt 0.04211752 0.5444333
vt 0.01925845 0.5957674
vt 0.004659191 0.5595205
vt 0.05692415 0.5595331
vt 0.004451886 0.5806676
vt 0.005591765 0.6226454
vt 0.04110707 0.65815
vt 0.02080013 0.6077322
vt 0.01980801 0.6579411
vt 0.04209913 0.6079412
vt 0.05631538 0.6432369
vt 0.05651726 0.6226447
vt 0.005389884 0.6432375
vn 0.9960635 0.08423539 -0.02760431
vn 0.7120647 0.09154517 -0.6961202
vn 0.684203 0.1640551 -0.7106
vn 0.9980158 0.06011827 0.0187178
vn 8.555513E-05 0.1047565 -0.994498
vn 0.0004124892 0.1948172 -0.9808395
vn -0.7121755 0.08986542 -0.6962258
vn -0.684135 0.1619391 -0.7111505
vn 0.7211595 -5.778925E-05 0.6927692
vn 0.6961948 0.03077665 0.7171928
vn 0.0001842142 -0.03620014 0.9993445
vn -0.0001625347 0.01868367 0.9998254
vn -0.7208566 -0.001577259 0.6930825
vn -0.6961328 0.02870594 0.7173389
vn -0.9962912 0.08157453 -0.02737765
vn -0.998181 0.05727809 0.01881199
vn -0.684135 0.1619391 -0.7111505
vn -0.7121755 0.08986542 -0.6962258
vn -0.000584978 -0.05422826 -0.9985284
vn 0.7120704 -0.02299638 -0.7017314
vn 0.7050079 -0.04887023 -0.7075137
vn 0.998611 0.05027565 0.01576575
vn 0.9988565 0.04712331 -0.00805253
vn 0.6921017 0.02278606 -0.7214403
vn 0.9986302 0.04941349 -0.01720983
vn 0.7687961 0.136431 -0.6247712
vn 0.9291637 0.04415264 0.3670222
vn 0.002250516 0.1580272 -0.9874321
vn 0.0004782939 0.01395942 -0.9999025
vn -0.7739326 0.1211185 -0.6215776
vn -0.6935388 0.03063585 -0.7197676
vn 0.7066287 0.07976879 0.7030739
vn -0.003615069 -0.01022048 0.9999412
vn 0.0005502098 0.09328583 0.9956392
vn -0.7059499 0.08195744 0.7035039
vn -0.9294195 0.03856806 0.3670039
vn -0.9980605 0.05885988 -0.02026492
vn -0.6935388 0.03063585 -0.7197676
vn -0.7739326 0.1211185 -0.6215776
vn -8.865757E-05 -0.0862543 -0.9962732
vn -0.7052127 -0.0447464 -0.7075824
vn -0.7052127 -0.0447464 -0.7075824
vn -0.9985479 0.05323147 -0.008283723
vn -0.7059065 0.1504685 0.6921381
vn 4.719362E-05 0.1883372 0.9821045
vn 0.7064129 0.145576 0.6926676
vn -0.71285 -0.02094574 -0.7010036
vn -0.71285 -0.02094574 -0.7010036
vn -0.9984965 0.05262234 0.01535268
vn -0.6926398 0.1176433 0.7116251
vn -0.0006183661 0.1418921 0.9898819
vn 0.6922988 0.1165398 0.7121382
vn 0 -1 0
vn -3.043625E-07 -1 -1.260712E-07
vn 0 -1 0
vn 0 -1 0
vn 0 -1 -1.891068E-07
vn 3.043629E-07 -1 -1.260713E-07
vn 0 -1 0
vn 0 -1 0
vn 0.8111593 0.4720404 -0.3452515
vn 0.09090962 0.9578188 0.272614
vn -0.3572248 0.5210257 -0.775192
vn -0.8381665 0.3448175 0.4225846
vn 0.4161794 0.1923826 0.8886977
vn -0.3572248 0.5210257 -0.775192
vn 0.8111593 0.4720404 -0.3452515
vn -0.3572248 0.5210257 -0.775192
vn 0.9998841 0.008138569 -0.01286623
vn 0.7118045 0.01725102 -0.7021658
vn 0.713354 0.01798082 -0.7005731
vn 0.9997224 0 -0.02355932
vn -0.006278394 0.007548208 -0.9999518
vn 0.001146923 0.01294947 -0.9999155
vn -0.7005913 0.02664481 -0.7130652
vn -0.6966506 0.02844517 -0.7168465
vn -0.9998899 0.01137946 0.009528755
vn -0.9997155 0 0.02384944
vn 0.7007416 0 0.7134151
vn 0.7007416 0 0.7134151
vn -0.03311078 0 0.9994517
vn -0.03311078 0 0.9994517
vn -0.7075267 0 0.7066866
vn -0.7075267 0 0.7066867
vn -0.9998899 0.01137946 0.009528755
vn -0.9997155 0 0.02384944
vn 0 1 0
vn 0 1 0
vn 0 1 0
vn 0 1 0
vn 0 1 0
vn 0 1 0
vn 0 1 0
vn 0 1 0
vn 0 -1 0
vn 0 -1 0
vn 0 -1 0
vn 0 -1 0
vn 0 -1 0
vn 0 -1 0
vn 0 -1 0
vn 0 -1 0
vn 0.99975 0.02089171 -0.007968217
vn 0.7110538 -0.001688077 -0.7031356
vn 0.9997401 0.02140533 0.007848227
vn 0.7031415 -0.00194389 -0.7110473
vn 0.7025177 0.04420926 0.7102917
vn 0.7104251 0.04395407 0.7023988
vn -4.458775E-07 0.05356419 0.9985644
vn 9.881451E-07 0.05356435 0.9985644
vn -0.7104246 0.04395333 0.7023994
vn -0.7025161 0.04421111 0.7102932
vn -0.9997401 0.02140585 0.007848308
vn -0.99975 0.02089158 -0.007968131
vn -0.7031409 -0.001945043 -0.7110479
vn -0.7110523 -0.001686371 -0.7031371
vn 5.631763E-07 -0.01133226 -0.9999359
vn -6.795568E-07 -0.01133232 -0.9999359
vn 0.7110538 -0.001688077 -0.7031356
vn 0.7031415 -0.00194389 -0.7110473
vn -7.334789E-06 -1 0
vn -4.400873E-06 -1 0
vn -4.400873E-06 -1 0
vn -7.334788E-06 -1 0
vn 0 -1 0
vn 0 -1 0
vn 0 -1 0
vn 0 -1 0
vn 2.818894E-06 1 0
vn 0 1 0
vn 0 1 0
vn 2.818898E-06 1 0
vn 0 1 0
vn 0 1 0
vn 0 1 0
vn 1.691336E-05 1 0
g Area_Common_Build_Hili_House_04_Lod0_0
f 3/3/3 2/2/2 1/1/1
f 4/4/4 1/1/1 2/2/2
f 2/2/2 3/3/3 5/5/5
f 6/6/6 5/5/5 3/3/3
f 5/5/5 6/6/6 7/7/7
f 8/8/8 7/7/7 6/6/6
f 1/1/1 4/4/4 9/9/9
f 10/10/10 9/9/9 4/4/4
f 9/9/9 10/10/10 11/11/11
f 12/12/12 11/11/11 10/10/10
f 11/11/11 12/12/12 13/13/13
f 14/14/14 13/13/13 12/12/12
f 13/13/13 14/14/14 15/15/15
f 16/16/16 15/15/15 14/14/14
f 15/15/15 16/16/16 17/17/17
f 18/18/18 17/17/17 16/16/16
f 5/5/5 7/7/7 19/19/19
f 5/5/5 19/19/19 2/2/2
f 20/20/20 2/2/2 19/19/19
f 20/20/20 19/19/19 21/21/21
f 20/20/20 21/21/21 22/22/22
f 20/20/20 22/22/22 2/2/2
f 23/23/23 22/22/22 21/21/21
f 21/21/21 24/24/24 23/23/23
f 25/25/25 23/23/23 24/24/24
f 24/24/24 26/26/26 25/25/25
f 27/27/27 25/25/25 26/26/26
f 26/26/26 24/24/24 28/28/28
f 29/29/29 28/28/28 24/24/24
f 28/28/28 29/29/29 30/30/30
f 31/31/31 30/30/30 29/29/29
f 27/27/27 32/32/32 25/25/25
f 25/25/25 32/32/32 23/23/23
f 27/27/27 33/33/33 32/32/32
f 34/34/34 32/32/32 33/33/33
f 34/34/34 33/33/33 35/35/35
f 36/36/36 35/35/35 33/33/33
f 36/36/36 37/37/37 35/35/35
f 37/37/37 36/36/36 38/38/38
f 39/39/39 38/38/38 36/36/36
f 29/29/29 24/24/24 40/40/40
f 29/29/29 40/40/40 31/31/31
f 21/21/21 40/40/40 24/24/24
f 41/41/41 31/31/31 40/40/40
f 38/38/38 42/42/42 37/37/37
f 43/43/43 37/37/37 42/42/42
f 37/37/37 43/43/43 35/35/35
f 44/44/44 35/35/35 43/43/43
f 35/35/35 44/44/44 34/34/34
f 45/45/45 34/34/34 44/44/44
f 32/32/32 34/34/34 46/46/46
f 45/45/45 46/46/46 34/34/34
f 46/46/46 23/23/23 32/32/32
f 40/40/40 21/21/21 19/19/19
f 40/40/40 19/19/19 41/41/41
f 47/47/47 41/41/41 19/19/19
f 42/42/42 48/48/48 43/43/43
f 49/49/49 43/43/43 48/48/48
f 43/43/43 49/49/49 44/44/44
f 50/50/50 44/44/44 49/49/49
f 44/44/44 50/50/50 45/45/45
f 51/51/51 45/45/45 50/50/50
f 46/46/46 45/45/45 52/52/52
f 51/51/51 52/52/52 45/45/45
f 23/23/23 46/46/46 22/22/22
f 52/52/52 22/22/22 46/46/46
f 47/47/47 19/19/19 7/7/7
f 48/48/48 18/18/18 49/49/49
f 16/16/16 49/49/49 18/18/18
f 50/50/50 49/49/49 14/14/14
f 16/16/16 14/14/14 49/49/49
f 50/50/50 14/14/14 51/51/51
f 12/12/12 51/51/51 14/14/14
f 51/51/51 12/12/12 52/52/52
f 10/10/10 52/52/52 12/12/12
f 22/22/22 52/52/52 4/4/4
f 10/10/10 4/4/4 52/52/52
f 4/4/4 2/2/2 22/22/22
f 55/55/55 54/54/54 53/53/53
f 55/55/55 56/56/56 54/54/54
f 57/57/57 54/54/54 56/56/56
f 57/57/57 56/56/56 58/58/58
f 59/59/59 58/58/58 56/56/56
f 60/60/60 58/58/58 59/59/59
f 63/63/63 62/62/62 61/61/61
f 63/63/63 64/64/64 62/62/62
f 64/64/64 65/65/65 62/62/62
f 61/61/61 62/62/62 65/65/65
f 64/64/64 36/36/36 65/65/65
f 36/36/36 64/64/64 39/39/39
f 66/66/66 39/39/39 64/64/64
f 33/33/33 65/65/65 36/36/36
f 65/65/65 33/33/33 27/27/27
f 65/65/65 27/27/27 67/67/67
f 26/26/26 67/67/67 27/27/27
f 67/67/67 26/26/26 68/68/68
f 28/28/28 68/68/68 26/26/26
f 68/68/68 28/28/28 30/30/30
f 71/71/71 70/70/70 69/69/69
f 72/72/72 69/69/69 70/70/70
f 70/70/70 71/71/71 73/73/73
f 74/74/74 73/73/73 71/71/71
f 73/73/73 74/74/74 75/75/75
f 76/76/76 75/75/75 74/74/74
f 75/75/75 76/76/76 77/77/77
f 78/78/78 77/77/77 76/76/76
f 72/72/72 79/79/79 69/69/69
f 80/80/80 69/69/69 79/79/79
f 79/79/79 81/81/81 80/80/80
f 82/82/82 80/80/80 81/81/81
f 81/81/81 83/83/83 82/82/82
f 84/84/84 82/82/82 83/83/83
f 83/83/83 85/85/85 84/84/84
f 86/86/86 84/84/84 85/85/85
f 89/89/89 88/88/88 87/87/87
f 89/89/89 87/87/87 90/90/90
f 91/91/91 90/90/90 87/87/87
f 91/91/91 92/92/92 90/90/90
f 93/93/93 90/90/90 92/92/92
f 94/94/94 93/93/93 92/92/92
f 97/97/97 96/96/96 95/95/95
f 98/98/98 95/95/95 96/96/96
f 96/96/96 99/99/99 98/98/98
f 100/100/100 98/98/98 99/99/99
f 101/101/101 97/97/97 95/95/95
f 102/102/102 100/100/100 99/99/99
f 105/105/105 104/104/104 103/103/103
f 106/106/106 103/103/103 104/104/104
f 105/105/105 103/103/103 107/107/107
f 108/108/108 107/107/107 103/103/103
f 108/108/108 109/109/109 107/107/107
f 110/110/110 107/107/107 109/109/109
f 109/109/109 111/111/111 110/110/110
f 112/112/112 110/110/110 111/111/111
f 112/112/112 111/111/111 113/113/113
f 114/114/114 113/113/113 111/111/111
f 114/114/114 115/115/115 113/113/113
f 116/116/116 113/113/113 115/115/115
f 116/116/116 115/115/115 117/117/117
f 118/118/118 117/117/117 115/115/115
f 117/117/117 118/118/118 119/119/119
f 120/120/120 119/119/119 118/118/118
f 123/123/123 122/122/122 121/121/121
f 124/124/124 121/121/121 122/122/122
f 123/123/123 125/125/125 122/122/122
f 126/126/126 122/122/122 125/125/125
f 127/127/127 121/121/121 124/124/124
f 128/128/128 126/126/126 125/125/125
f 131/131/131 130/130/130 129/129/129
f 132/132/132 129/129/129 130/130/130
f 131/131/131 133/133/133 130/130/130
f 134/134/134 130/130/130 133/133/133
f 135/135/135 134/134/134 133/133/133
f 136/136/136 129/129/129 132/132/132
