g Area_Ly_Build_Common_Hili_House_01_Lod2
v 0.1174559 1.341176 1.426917
v 0.1424482 1.816718 1.715706
v 0.09729131 1.816718 1.596887
v 0.1709521 1.204062 1.486097
v -0.0116956 1.398803 1.403272
v -0.01080126 1.816718 1.548089
v 0.09729131 1.816718 1.834524
v 0.1174559 1.07526 1.544936
v -0.01080127 1.816718 1.883322
v -0.01169557 1.020476 1.571546
v -0.140847 1.07526 1.544936
v -0.1188938 1.816718 1.834524
v -0.1943433 1.204062 1.486097
v -0.1640507 1.816718 1.715705
v -0.140847 1.341176 1.426917
v -0.1188938 1.816718 1.596887
v -0.0116956 1.398803 1.403272
v -0.01080126 1.816718 1.548089
v 0.1145007 1.333618 0.02108246
v 0.1709521 1.204062 1.486097
v 0.1174559 1.341176 1.426917
v 0.1667729 1.197101 0.02108215
v -0.0116956 1.398803 1.403272
v -0.0116955 1.390165 0.02108246
v 0.1145007 1.060585 0.02108215
v 0.1174559 1.07526 1.544936
v -0.0116955 1.004038 0.02108215
v -0.01169557 1.020476 1.571546
v -0.140847 1.07526 1.544936
v -0.1378917 1.060585 0.02108215
v -0.1943433 1.204062 1.486097
v -0.1901639 1.197101 0.02108215
v -0.140847 1.341176 1.426917
v -0.1378917 1.333618 0.02108246
v -0.0116956 1.398803 1.403272
v -0.0116955 1.390165 0.02108246
v 0.09729131 1.816718 1.596887
v 0.1424482 1.816718 1.715706
v -0.01080126 1.816718 1.548089
v -0.1640507 1.816718 1.715705
v -0.01080127 1.816718 1.883322
v 0.09729131 1.816718 1.834524
v -0.1188938 1.816718 1.596887
v -0.1188938 1.816718 1.834524
v -0.140847 1.341177 -1.432011
v -0.1649451 1.767376 -1.737694
v -0.1197881 1.767376 -1.618875
v -0.1943433 1.204063 -1.491193
v -0.0116955 1.398804 -1.408367
v -0.01169556 1.767376 -1.570077
v -0.1197881 1.767376 -1.856513
v -0.140847 1.07526 -1.550033
v -0.01169558 1.767376 -1.905311
v -0.01169555 1.020476 -1.576643
v 0.1174559 1.07526 -1.550032
v 0.09639692 1.767376 -1.856513
v 0.1709522 1.204063 -1.491193
v 0.1415538 1.767376 -1.737693
v 0.1174559 1.341177 -1.432011
v 0.09639697 1.767376 -1.618875
v -0.0116955 1.398804 -1.408367
v -0.01169556 1.767376 -1.570077
v -0.1378917 1.333618 0.02108246
v -0.1943433 1.204063 -1.491193
v -0.140847 1.341177 -1.432011
v -0.1901639 1.197101 0.02108215
v -0.0116955 1.398804 -1.408367
v -0.0116955 1.390165 0.02108246
v -0.1378917 1.060585 0.02108215
v -0.140847 1.07526 -1.550033
v -0.0116955 1.004038 0.02108215
v -0.01169555 1.020476 -1.576643
v 0.1174559 1.07526 -1.550032
v 0.1145007 1.060585 0.02108215
v 0.1709522 1.204063 -1.491193
v 0.1667729 1.197101 0.02108215
v 0.1174559 1.341177 -1.432011
v 0.1145007 1.333618 0.02108246
v -0.0116955 1.398804 -1.408367
v -0.0116955 1.390165 0.02108246
v -0.1197881 1.767376 -1.618875
v -0.1649451 1.767376 -1.737694
v -0.01169556 1.767376 -1.570077
v 0.1415538 1.767376 -1.737693
v -0.01169558 1.767376 -1.905311
v -0.1197881 1.767376 -1.856513
v 0.09639697 1.767376 -1.618875
v 0.09639692 1.767376 -1.856513
v -1.080992 0.3231751 1.353458
v -0.1289207 1.449419 -1.353458
v -0.1306802 1.449419 1.353458
v -1.080306 0.3227791 -1.353458
v 0.001242286 1.483491 1.353458
v 0.002649841 1.483491 -1.353458
v 0.1331648 1.449419 1.353458
v 0.1342204 1.449419 -1.353458
v 1.104703 0.2997998 -1.353459
v 1.104017 0.2994041 1.353457
v 1.609559 0.1745469 1.353457
v 1.609559 0.1745467 -1.353459
v -1.585848 0.197922 1.353458
v -1.585848 0.1979219 -1.353458
v -0.1239788 1.34171 -1.498957
v -1.038282 0.2154668 -1.498957
v 0.1287239 1.34171 -1.498957
v 0.002372575 1.375783 -1.498957
v 1.062167 0.1920916 -1.498958
v 1.546996 0.06683853 -1.498958
v -1.523112 0.09021366 -1.498957
v 0.1287241 1.341711 1.498956
v 0.002372721 1.375783 1.498956
v -0.1239787 1.341711 1.498957
v -1.038282 0.215467 1.498956
v -1.523112 0.09021389 1.498957
v 1.062167 0.1920919 1.498956
v 1.546996 0.06683876 1.498955
v -1.080992 0.3045105 1.353009
v -0.1289207 1.430754 -1.353009
v -1.080306 0.3041145 -1.35301
v -0.1306802 1.430754 1.353009
v 0.001242286 1.464827 1.353009
v 0.002649841 1.464827 -1.353009
v 0.1331648 1.430754 1.353009
v 0.1342204 1.430754 -1.35301
v 1.104703 0.2811352 -1.35301
v 1.104017 0.2807395 1.353009
v 1.609559 0.1558823 1.353008
v 1.609559 0.1558821 -1.35301
v -1.585848 0.1792573 1.353009
v -1.585848 0.1792573 -1.353009
v -0.1239788 1.323046 -1.49846
v -1.038282 0.1968021 -1.49846
v 0.1287239 1.323046 -1.49846
v 0.002372575 1.357118 -1.49846
v 1.062167 0.173427 -1.498461
v 1.546996 0.0481739 -1.498461
v -1.523112 0.07154899 -1.49846
v 0.1287241 1.323046 1.498459
v 0.002372721 1.357118 1.49846
v -0.1239787 1.323046 1.49846
v -1.038282 0.1968024 1.498459
v -1.523112 0.0715493 1.49846
v 1.062167 0.1734273 1.498459
v 1.546996 0.04817413 1.498459
vt 0.6693322 0.3211402
vt 0.6483622 0.4606304
vt 0.6693322 0.4557588
vt 0.6483622 0.3018335
vt 0.6907365 0.3309917
vt 0.6907365 0.4544086
vt 0.6269097 0.4661927
vt 0.6269097 0.2857871
vt 0.6035212 0.4686724
vt 0.6035212 0.2791755
vt 0.5801371 0.2861783
vt 0.5801371 0.4664992
vt 0.5587639 0.3025397
vt 0.5587639 0.461253
vt 0.5379011 0.3221401
vt 0.5379011 0.4566952
vt 0.5165903 0.3323136
vt 0.5165903 0.45564
vt 0.650817 0.00384972
vt 0.6284393 0.2491196
vt 0.650817 0.2403926
vt 0.6284393 0.00384972
vt 0.6721254 0.2367467
vt 0.6712623 0.00384972
vt 0.606689 0.00384972
vt 0.606689 0.2573288
vt 0.5847751 0.00384972
vt 0.5847763 0.2608244
vt 0.5628633 0.257333
vt 0.5628633 0.00384972
vt 0.5411123 0.2491271
vt 0.5411123 0.00384972
vt 0.518734 0.2404018
vt 0.518734 0.00384972
vt 0.4976265 0.2367561
vt 0.4976265 0.00384972
vt 0.5916404 0.5540188
vt 0.6166019 0.5340332
vt 0.5622495 0.5508204
vt 0.5508068 0.4949726
vt 0.6049488 0.4783539
vt 0.621989 0.5025135
vt 0.5452096 0.5266603
vt 0.5763903 0.4729443
vt 0.6693322 0.3211402
vt 0.6483622 0.4606304
vt 0.6693322 0.4557588
vt 0.6483622 0.3018335
vt 0.6907365 0.3309917
vt 0.6907365 0.4544086
vt 0.6269097 0.4661927
vt 0.6269097 0.2857871
vt 0.6035212 0.4686724
vt 0.6035212 0.2791755
vt 0.5801371 0.2861783
vt 0.5801371 0.4664992
vt 0.5587639 0.3025397
vt 0.5587639 0.461253
vt 0.5379011 0.3221401
vt 0.5379011 0.4566952
vt 0.5165903 0.3323136
vt 0.5165903 0.45564
vt 0.650817 0.00384972
vt 0.6284393 0.2491196
vt 0.650817 0.2403926
vt 0.6284393 0.00384972
vt 0.6721254 0.2367467
vt 0.6712623 0.00384972
vt 0.606689 0.00384972
vt 0.606689 0.2573288
vt 0.5847751 0.00384972
vt 0.5847763 0.2608244
vt 0.5628633 0.257333
vt 0.5628633 0.00384972
vt 0.5411123 0.2491271
vt 0.5411123 0.00384972
vt 0.518734 0.2404018
vt 0.518734 0.00384972
vt 0.4976265 0.2367561
vt 0.4976265 0.00384972
vt 0.5916404 0.5540188
vt 0.6166019 0.5340332
vt 0.5622495 0.5508204
vt 0.5508068 0.4949726
vt 0.6049488 0.4783539
vt 0.621989 0.5025135
vt 0.5452096 0.5266603
vt 0.5763903 0.4729443
vt 0.1992075 0.2479782
vt 0.1889163 0.2536014
vt 0.199189 0.2536013
vt 0.1889035 0.2479741
vt 0.1991842 0.2540529
vt 0.1889216 0.2540532
vt 0.1991882 0.2545041
vt 0.1889178 0.2545044
vt 0.1888991 0.2602386
vt 0.199204 0.2602399
vt 0.1991739 0.2622388
vt 0.1889281 0.2622355
vt 0.199179 0.2459806
vt 0.1889342 0.2459745
vt 0.1882637 0.2534285
vt 0.1881914 0.2479303
vt 0.1882693 0.2546843
vt 0.18825 0.2540558
vt 0.1881848 0.2602788
vt 0.1882259 0.2621355
vt 0.1882323 0.2460747
vt 0.1998359 0.2546876
vt 0.1998559 0.2540604
vt 0.1998432 0.253434
vt 0.1999214 0.2479362
vt 0.1998807 0.2460809
vt 0.1999166 0.2602817
vt 0.1998761 0.2621385
vt 0.1992075 0.2479782
vt 0.1889163 0.2536014
vt 0.1889035 0.2479741
vt 0.199189 0.2536013
vt 0.1991842 0.2540529
vt 0.1889216 0.2540532
vt 0.1991882 0.2545041
vt 0.1889178 0.2545044
vt 0.1888991 0.2602386
vt 0.199204 0.2602399
vt 0.1991739 0.2622388
vt 0.1889281 0.2622355
vt 0.199179 0.2459806
vt 0.1889342 0.2459745
vt 0.1882637 0.2534285
vt 0.1881914 0.2479303
vt 0.1882693 0.2546843
vt 0.18825 0.2540558
vt 0.1881848 0.2602788
vt 0.1882259 0.2621355
vt 0.1882323 0.2460747
vt 0.1998359 0.2546876
vt 0.1998559 0.2540604
vt 0.1998432 0.253434
vt 0.1999214 0.2479362
vt 0.1998807 0.2460809
vt 0.1999166 0.2602817
vt 0.1998761 0.2621385
vn 0.8172731 0.471246 -0.3316501
vn 0.7663173 0.6395777 0.06081284
vn 0.5280151 0.7208681 -0.4489424
vn 0.9882717 -0.08896393 0.1241148
vn -0.0003168652 0.7922735 -0.610166
vn 0.0004037733 0.745928 -0.6660264
vn 0.5743104 0.5324828 0.6217955
vn 0.6711488 -0.6018881 0.4327702
vn 0.0002260344 0.4852902 0.8743531
vn -9.6473E-05 -0.8335845 0.5523919
vn -0.6712377 -0.6015162 0.4331492
vn -0.5737386 0.5330814 0.6218104
vn -0.9882003 -0.08819555 0.1252266
vn -0.7653489 0.6407235 0.06094622
vn -0.8175676 0.4717663 -0.3301813
vn -0.5269538 0.7218844 -0.4485561
vn -0.0003168652 0.7922735 -0.610166
vn 0.0004037733 0.745928 -0.6660264
vn 0.7268221 0.6868258 -0.0002065974
vn 0.9882717 -0.08896393 0.1241148
vn 0.8172731 0.471246 -0.3316501
vn 0.9999995 -0.0009913888 -0.0001609299
vn -0.0003168652 0.7922735 -0.610166
vn 0 1 -0.0001032658
vn 0.724555 -0.689217 6.027322E-05
vn 0.6711488 -0.6018881 0.4327702
vn 0 -1 0.0001343711
vn -9.6473E-05 -0.8335845 0.5523919
vn -0.6712377 -0.6015162 0.4331492
vn -0.724555 -0.689217 6.025577E-05
vn -0.9882003 -0.08819555 0.1252266
vn -0.9999995 -0.0009897549 7.426208E-05
vn -0.8175676 0.4717663 -0.3301813
vn -0.7268233 0.6868245 3.401184E-05
vn -0.0003168652 0.7922735 -0.610166
vn 0 1 -0.0001032658
vn 0.5280151 0.7208681 -0.4489424
vn 0.7663173 0.6395777 0.06081284
vn 0.0004037733 0.745928 -0.6660264
vn -0.7653489 0.6407235 0.06094622
vn 0.0002260344 0.4852902 0.8743531
vn 0.5743104 0.5324828 0.6217955
vn -0.5269538 0.7218844 -0.4485561
vn -0.5737386 0.5330814 0.6218104
vn -0.8145698 0.4887902 0.3123465
vn -0.7664989 0.6382052 -0.07192667
vn -0.5202314 0.7390125 0.4280418
vn -0.9895464 -0.08822361 -0.1140813
vn 1.596677E-07 0.8196751 0.5728288
vn 0 0.7731151 0.6342658
vn -0.5764955 0.5181852 -0.631773
vn -0.6738718 -0.6098015 -0.4171797
vn 0 0.468058 -0.8836977
vn 4.8399E-07 -0.8433022 -0.5374396
vn 0.6738721 -0.6098016 -0.4171791
vn 0.5764958 0.5181851 -0.6317727
vn 0.9895593 -0.08818752 -0.1139966
vn 0.7664986 0.6382057 -0.07192535
vn 0.8146012 0.4886511 0.3124821
vn 0.5202308 0.7390128 0.4280419
vn 1.596677E-07 0.8196751 0.5728288
vn 0 0.7731151 0.6342658
vn -0.7268233 0.6868245 3.401184E-05
vn -0.9895464 -0.08822361 -0.1140813
vn -0.8145698 0.4887902 0.3123465
vn -0.9999995 -0.0009897549 7.426208E-05
vn 1.596677E-07 0.8196751 0.5728288
vn 0 1 -0.0001032658
vn -0.724555 -0.689217 6.025577E-05
vn -0.6738718 -0.6098015 -0.4171797
vn 0 -1 0.0001343711
vn 4.8399E-07 -0.8433022 -0.5374396
vn 0.6738721 -0.6098016 -0.4171791
vn 0.724555 -0.689217 6.027322E-05
vn 0.9895593 -0.08818752 -0.1139966
vn 0.9999995 -0.0009913888 -0.0001609299
vn 0.8146012 0.4886511 0.3124821
vn 0.7268221 0.6868258 -0.0002065974
vn 1.596677E-07 0.8196751 0.5728288
vn 0 1 -0.0001032658
vn -0.5202314 0.7390125 0.4280418
vn -0.7664989 0.6382052 -0.07192667
vn 0 0.7731151 0.6342658
vn 0.7664986 0.6382057 -0.07192535
vn 0 0.468058 -0.8836977
vn -0.5764955 0.5181852 -0.631773
vn 0.5202308 0.7390128 0.4280419
vn 0.5764958 0.5181851 -0.6317727
vn -0.5116278 0.7872313 0.3442439
vn -0.4952086 0.8247471 -0.2730582
vn -0.4947081 0.8242089 0.2755789
vn -0.5103906 0.7891057 -0.3417802
vn -0.00114894 0.9538891 0.3001569
vn 0.0008250818 0.9539127 -0.3000831
vn 0.4949539 0.8250822 0.2725071
vn 0.4946446 0.8245995 -0.2745223
vn 0.5116727 0.7872813 -0.3440627
vn 0.5104883 0.7891083 0.3416283
vn 0.2307067 0.9208082 0.3144624
vn 0.2284275 0.9207215 -0.3163744
vn -0.2283672 0.9207768 0.3162572
vn -0.2306443 0.9208632 -0.3143471
vn -0.5027602 0.6835401 -0.5291551
vn -0.4087131 0.6720641 -0.6174815
vn 0.5009004 0.6844822 -0.5297008
vn 0.001706711 0.8026286 -0.5964766
vn 0.4116499 0.6707942 -0.6169113
vn 0.188162 0.7518849 -0.6318735
vn -0.1929844 0.7470036 -0.6361939
vn 0.5037025 0.6839722 0.5276988
vn -0.001108759 0.8025498 0.5965841
vn -0.4988919 0.6835026 0.5328519
vn -0.4116479 0.6705264 0.6172037
vn -0.1881355 0.7517778 0.6320088
vn 0.4087116 0.6723304 0.6171926
vn 0.1930128 0.747112 0.636058
vn 0.5116127 -0.7872036 -0.3443295
vn 0.4951965 -0.8247319 0.2731258
vn 0.5103759 -0.7890781 0.3418659
vn 0.4946963 -0.8241935 -0.2756463
vn 0.001149118 -0.9538674 -0.3002258
vn -0.0008251751 -0.9538909 0.3001524
vn -0.4949419 -0.825067 -0.2725744
vn -0.4946326 -0.8245841 0.2745899
vn -0.5116578 -0.7872535 0.3441484
vn -0.5104736 -0.7890807 -0.3417139
vn -0.2307013 -0.9207864 -0.3145303
vn -0.228422 -0.9206997 0.3164418
vn 0.2283619 -0.920755 -0.3163245
vn 0.2306388 -0.9208415 0.3144149
vn 0.5027272 -0.6834705 0.5292763
vn 0.408659 -0.6719808 0.617608
vn -0.5008672 -0.6844123 0.5298225
vn -0.001706828 -0.8025338 0.5966043
vn -0.4115954 -0.6707108 0.6170382
vn -0.1881366 -0.7517849 0.632
vn 0.1929585 -0.7469032 0.6363195
vn -0.5036698 -0.6839031 -0.5278193
vn 0.001108794 -0.8024552 -0.5967113
vn 0.4988581 -0.6834323 -0.5329736
vn 0.4115933 -0.6704429 -0.6173307
vn 0.1881102 -0.7516778 -0.6321353
vn -0.4086576 -0.6722471 -0.617319
vn -0.192987 -0.7470118 -0.6361834
g Area_Ly_Build_Common_Hili_House_01_Lod2_0
f 3/3/3 2/2/2 1/1/1
f 4/4/4 1/1/1 2/2/2
f 1/1/1 5/5/5 3/3/3
f 6/6/6 3/3/3 5/5/5
f 2/2/2 7/7/7 4/4/4
f 8/8/8 4/4/4 7/7/7
f 7/7/7 9/9/9 8/8/8
f 10/10/10 8/8/8 9/9/9
f 10/10/10 9/9/9 11/11/11
f 12/12/12 11/11/11 9/9/9
f 11/11/11 12/12/12 13/13/13
f 14/14/14 13/13/13 12/12/12
f 13/13/13 14/14/14 15/15/15
f 16/16/16 15/15/15 14/14/14
f 15/15/15 16/16/16 17/17/17
f 18/18/18 17/17/17 16/16/16
f 21/21/21 20/20/20 19/19/19
f 22/22/22 19/19/19 20/20/20
f 21/21/21 19/19/19 23/23/23
f 24/24/24 23/23/23 19/19/19
f 22/22/22 20/20/20 25/25/25
f 26/26/26 25/25/25 20/20/20
f 25/25/25 26/26/26 27/27/27
f 28/28/28 27/27/27 26/26/26
f 28/28/28 29/29/29 27/27/27
f 30/30/30 27/27/27 29/29/29
f 29/29/29 31/31/31 30/30/30
f 32/32/32 30/30/30 31/31/31
f 31/31/31 33/33/33 32/32/32
f 34/34/34 32/32/32 33/33/33
f 33/33/33 35/35/35 34/34/34
f 36/36/36 34/34/34 35/35/35
f 39/39/39 38/38/38 37/37/37
f 39/39/39 40/40/40 38/38/38
f 41/41/41 38/38/38 40/40/40
f 42/42/42 38/38/38 41/41/41
f 43/43/43 40/40/40 39/39/39
f 44/44/44 41/41/41 40/40/40
f 47/47/47 46/46/46 45/45/45
f 48/48/48 45/45/45 46/46/46
f 45/45/45 49/49/49 47/47/47
f 50/50/50 47/47/47 49/49/49
f 46/46/46 51/51/51 48/48/48
f 52/52/52 48/48/48 51/51/51
f 51/51/51 53/53/53 52/52/52
f 54/54/54 52/52/52 53/53/53
f 54/54/54 53/53/53 55/55/55
f 56/56/56 55/55/55 53/53/53
f 55/55/55 56/56/56 57/57/57
f 58/58/58 57/57/57 56/56/56
f 57/57/57 58/58/58 59/59/59
f 60/60/60 59/59/59 58/58/58
f 59/59/59 60/60/60 61/61/61
f 62/62/62 61/61/61 60/60/60
f 65/65/65 64/64/64 63/63/63
f 66/66/66 63/63/63 64/64/64
f 65/65/65 63/63/63 67/67/67
f 68/68/68 67/67/67 63/63/63
f 66/66/66 64/64/64 69/69/69
f 70/70/70 69/69/69 64/64/64
f 69/69/69 70/70/70 71/71/71
f 72/72/72 71/71/71 70/70/70
f 72/72/72 73/73/73 71/71/71
f 74/74/74 71/71/71 73/73/73
f 73/73/73 75/75/75 74/74/74
f 76/76/76 74/74/74 75/75/75
f 75/75/75 77/77/77 76/76/76
f 78/78/78 76/76/76 77/77/77
f 77/77/77 79/79/79 78/78/78
f 80/80/80 78/78/78 79/79/79
f 83/83/83 82/82/82 81/81/81
f 83/83/83 84/84/84 82/82/82
f 85/85/85 82/82/82 84/84/84
f 86/86/86 82/82/82 85/85/85
f 87/87/87 84/84/84 83/83/83
f 88/88/88 85/85/85 84/84/84
f 91/91/91 90/90/90 89/89/89
f 92/92/92 89/89/89 90/90/90
f 91/91/91 93/93/93 90/90/90
f 94/94/94 90/90/90 93/93/93
f 93/93/93 95/95/95 94/94/94
f 96/96/96 94/94/94 95/95/95
f 96/96/96 95/95/95 97/97/97
f 98/98/98 97/97/97 95/95/95
f 98/98/98 99/99/99 97/97/97
f 100/100/100 97/97/97 99/99/99
f 89/89/89 92/92/92 101/101/101
f 102/102/102 101/101/101 92/92/92
f 90/90/90 103/103/103 92/92/92
f 104/104/104 92/92/92 103/103/103
f 92/92/92 104/104/104 102/102/102
f 96/96/96 105/105/105 94/94/94
f 96/96/96 97/97/97 105/105/105
f 106/106/106 94/94/94 105/105/105
f 107/107/107 105/105/105 97/97/97
f 103/103/103 90/90/90 106/106/106
f 94/94/94 106/106/106 90/90/90
f 107/107/107 97/97/97 108/108/108
f 100/100/100 108/108/108 97/97/97
f 109/109/109 102/102/102 104/104/104
f 95/95/95 110/110/110 98/98/98
f 110/110/110 95/95/95 111/111/111
f 93/93/93 111/111/111 95/95/95
f 111/111/111 93/93/93 112/112/112
f 91/91/91 112/112/112 93/93/93
f 91/91/91 89/89/89 112/112/112
f 113/113/113 112/112/112 89/89/89
f 113/113/113 89/89/89 114/114/114
f 101/101/101 114/114/114 89/89/89
f 115/115/115 98/98/98 110/110/110
f 98/98/98 115/115/115 99/99/99
f 116/116/116 99/99/99 115/115/115
f 119/119/119 118/118/118 117/117/117
f 120/120/120 117/117/117 118/118/118
f 120/120/120 118/118/118 121/121/121
f 122/122/122 121/121/121 118/118/118
f 121/121/121 122/122/122 123/123/123
f 124/124/124 123/123/123 122/122/122
f 124/124/124 125/125/125 123/123/123
f 126/126/126 123/123/123 125/125/125
f 126/126/126 125/125/125 127/127/127
f 128/128/128 127/127/127 125/125/125
f 117/117/117 129/129/129 119/119/119
f 130/130/130 119/119/119 129/129/129
f 118/118/118 119/119/119 131/131/131
f 132/132/132 131/131/131 119/119/119
f 119/119/119 130/130/130 132/132/132
f 124/124/124 122/122/122 133/133/133
f 124/124/124 133/133/133 125/125/125
f 134/134/134 133/133/133 122/122/122
f 135/135/135 125/125/125 133/133/133
f 122/122/122 118/118/118 134/134/134
f 131/131/131 134/134/134 118/118/118
f 128/128/128 125/125/125 136/136/136
f 135/135/135 136/136/136 125/125/125
f 137/137/137 132/132/132 130/130/130
f 123/123/123 126/126/126 138/138/138
f 138/138/138 139/139/139 123/123/123
f 121/121/121 123/123/123 139/139/139
f 139/139/139 140/140/140 121/121/121
f 120/120/120 121/121/121 140/140/140
f 120/120/120 140/140/140 117/117/117
f 141/141/141 117/117/117 140/140/140
f 141/141/141 142/142/142 117/117/117
f 129/129/129 117/117/117 142/142/142
f 143/143/143 138/138/138 126/126/126
f 126/126/126 127/127/127 143/143/143
f 144/144/144 143/143/143 127/127/127
