g Area_Common_Build_Pillar_G_04_Lod2
v 0.7714562 1.623905 0.7714571
v -1.291834 0.3307844 1.291835
v -0.7714553 1.623905 0.7714574
v 1.291834 0.3307843 1.291835
v 0.7714562 1.623905 0.7714571
v 1.291834 0.3307864 -1.291833
v 1.291834 0.3307843 1.291835
v 0.7714562 1.623906 -0.7714547
v -0.7714556 1.623906 -0.7714547
v 1.291834 0.3307864 -1.291833
v 0.7714562 1.623906 -0.7714547
v -1.291834 0.3307866 -1.291832
v -0.7714556 1.623906 -0.7714547
v -1.291834 0.3307844 1.291835
v -1.291834 0.3307866 -1.291832
v -0.7714553 1.623905 0.7714574
v -0.9290521 1.604611 -0.9290481
v 0.9290482 1.60461 0.929051
v 0.9290479 1.604611 -0.9290482
v -0.9290517 1.604609 0.9290513
v -0.9290517 1.604609 0.9290513
v 0.7470683 1.923396 0.7470716
v 0.9290482 1.60461 0.929051
v -0.7470723 1.923397 0.7470718
v 0.9290479 1.604611 -0.9290482
v 0.7470683 1.923396 0.7470716
v 0.7470681 1.923398 -0.7470685
v 0.9290482 1.60461 0.929051
v -0.9290521 1.604611 -0.9290481
v 0.7470681 1.923398 -0.7470685
v -0.7470726 1.923398 -0.7470682
v 0.9290479 1.604611 -0.9290482
v -0.9290517 1.604609 0.9290513
v -0.7470726 1.923398 -0.7470682
v -0.7470723 1.923397 0.7470718
v -0.9290521 1.604611 -0.9290481
v 0.9311976 2.89481 -0.9311983
v -0.9312039 2.894809 0.9312033
v -0.9312043 2.894811 -0.9311982
v 0.9311979 2.89481 0.9312033
v 0.9311979 2.89481 0.9312033
v -0.7488028 2.481825 0.7488021
v -0.9312039 2.894809 0.9312033
v 0.7487974 2.481825 0.7488019
v -0.9312043 2.894811 -0.9311982
v -0.7488028 2.481825 0.7488021
v -0.7488031 2.481826 -0.7487974
v -0.9312039 2.894809 0.9312033
v 0.9311976 2.89481 -0.9311983
v -0.7488031 2.481826 -0.7487974
v 0.7487971 2.481827 -0.7487977
v -0.9312043 2.894811 -0.9311982
v 0.9311979 2.89481 0.9312033
v 0.7487971 2.481827 -0.7487977
v 0.7487974 2.481825 0.7488019
v 0.9311976 2.89481 -0.9311983
v -1.291834 -0.0942229 1.291835
v 1.291834 -0.09422108 -1.291833
v -1.291834 -0.09422085 -1.291832
v 1.291834 -0.09422313 1.291835
v 1.291834 -0.09422108 -1.291833
v 1.291834 0.3307843 1.291835
v 1.291834 0.3307864 -1.291833
v 1.291834 -0.09422313 1.291835
v -1.291834 -0.09422085 -1.291832
v 1.291834 0.3307864 -1.291833
v -1.291834 0.3307866 -1.291832
v 1.291834 -0.09422108 -1.291833
v -1.291834 -0.0942229 1.291835
v -1.291834 0.3307866 -1.291832
v -1.291834 0.3307844 1.291835
v -1.291834 -0.09422085 -1.291832
v 1.291834 -0.09422313 1.291835
v -1.291834 0.3307844 1.291835
v 1.291834 0.3307843 1.291835
v -1.291834 -0.0942229 1.291835
v 0.7487974 2.481825 0.7488019
v 0.7470681 1.923398 -0.7470685
v 0.7470683 1.923396 0.7470716
v 0.7487971 2.481827 -0.7487977
v 0.7487971 2.481827 -0.7487977
v -0.7470726 1.923398 -0.7470682
v 0.7470681 1.923398 -0.7470685
v -0.7488031 2.481826 -0.7487974
v -0.7488031 2.481826 -0.7487974
v -0.7470723 1.923397 0.7470718
v -0.7470726 1.923398 -0.7470682
v -0.7488028 2.481825 0.7488021
v 0.7487974 2.481825 0.7488019
v -0.7470723 1.923397 0.7470718
v -0.7488028 2.481825 0.7488021
v 0.7470683 1.923396 0.7470716
v 0.5501948 4.219506 2.577713E-06
v 1.882725E-06 3.300864 -0.5501932
v 0.5501948 3.300864 3.43523E-06
v 4.183859E-06 4.143782 -0.5501918
v -1.900214E-06 3.300863 0.5501963
v -3.795447E-06 4.097845 0.5501981
v -0.5501948 3.300864 -3.302193E-07
v -0.2112356 4.582554 0.376993
v -0.550195 4.679606 -8.183926E-07
v -0.09815934 4.464925 -0.4520296
v 4.183859E-06 4.143782 -0.5501918
v 1.882725E-06 3.300864 -0.5501932
v 0.7099182 2.863995 4.830755E-07
v 1.882725E-06 3.300864 -0.5501932
v -8.741209E-07 2.863995 -0.7099168
v 0.5501948 3.300864 3.43523E-06
v 1.882725E-06 3.300864 -0.5501932
v -0.7099182 2.863995 2.231317E-06
v -8.741209E-07 2.863995 -0.7099168
v -0.5501948 3.300864 -3.302193E-07
v -0.5501948 3.300864 -3.302193E-07
v 8.515553E-07 2.863995 0.7099193
v -0.7099182 2.863995 2.231317E-06
v -1.900214E-06 3.300863 0.5501963
v -1.900214E-06 3.300863 0.5501963
v 0.7099182 2.863995 4.830755E-07
v 8.515553E-07 2.863995 0.7099193
v 0.5501948 3.300864 3.43523E-06
v -0.09815934 4.464925 -0.4520296
v -0.3378758 4.737729 -0.01219999
v -0.550195 4.679606 -8.183926E-07
v -0.2112356 4.582554 0.376993
v 0.2970783 4.152987 -0.03371982
v -3.795447E-06 4.097845 0.5501981
v 0.5501948 4.219506 2.577713E-06
v 4.183859E-06 4.143782 -0.5501918
v -0.09815934 4.464925 -0.4520296
vt 0.8575088 0.4979596
vt 0.7505155 0.4477855
vt 0.7695304 0.4979596
vt 0.8799686 0.4477855
vt 0.9730158 0.4515151
vt 0.8609915 0.4992316
vt 0.9917631 0.4992316
vt 0.8835205 0.4515149
vt 0.8575086 0.4979596
vt 0.7505155 0.4477855
vt 0.7695304 0.4979596
vt 0.8799683 0.4477855
vt 0.9720886 0.4518462
vt 0.861975 0.4987553
vt 0.9911848 0.4987553
vt 0.884697 0.4518462
vt 0.7327863 0.4150697
vt 0.6521401 0.3344233
vt 0.6521401 0.4150697
vt 0.7327863 0.3344233
vt 0.5959795 0.2682796
vt 0.662131 0.2798883
vt 0.6647145 0.2682796
vt 0.5989765 0.2798883
vt 0.6646861 0.2682841
vt 0.5990328 0.2798923
vt 0.6621863 0.2798923
vt 0.5959522 0.2682841
vt 0.5810918 0.2682026
vt 0.5177059 0.2798181
vt 0.5772001 0.2798181
vt 0.5120233 0.2682026
vt 0.6645738 0.2682026
vt 0.6008868 0.2798181
vt 0.6619223 0.2798181
vt 0.5954655 0.2682026
vt 0.7334147 0.4145444
vt 0.652068 0.3351326
vt 0.6520698 0.4145399
vt 0.7334163 0.3351283
vt 0.5133273 0.2821421
vt 0.5756299 0.303102
vt 0.5823943 0.2821421
vt 0.5200916 0.303102
vt 0.6662182 0.2821421
vt 0.6039624 0.303102
vt 0.6594589 0.3031019
vt 0.5972032 0.2821421
vt 0.5823265 0.2552545
vt 0.5200227 0.2762143
vt 0.5755621 0.2762143
vt 0.5132582 0.2552545
vt 0.6662236 0.2552545
vt 0.6038837 0.2762143
vt 0.6594552 0.2762144
vt 0.5971153 0.2552545
vt 0.7334147 0.4145444
vt 0.652068 0.3351326
vt 0.6520698 0.4145399
vt 0.7334163 0.3351283
vt 0.5823943 0.2821421
vt 0.5133273 0.297089
vt 0.5823943 0.297089
vt 0.5133273 0.2821421
vt 0.6662182 0.2821421
vt 0.5972032 0.297089
vt 0.6662182 0.297089
vt 0.5972032 0.2821421
vt 0.5823265 0.2552545
vt 0.5132582 0.2702013
vt 0.5823265 0.2702013
vt 0.5132582 0.2552545
vt 0.6662236 0.2552545
vt 0.5971153 0.2702013
vt 0.6662236 0.2702013
vt 0.5971153 0.2552545
vt 0.5979915 0.296855
vt 0.6659412 0.2821115
vt 0.5979915 0.2821115
vt 0.6659412 0.296855
vt 0.5979913 0.296855
vt 0.6659412 0.2821115
vt 0.5979913 0.2821115
vt 0.6659412 0.296855
vt 0.5979915 0.296855
vt 0.6659412 0.2821115
vt 0.5979915 0.2821115
vt 0.6659412 0.296855
vt 0.6659412 0.296855
vt 0.5979915 0.2821115
vt 0.5979915 0.296855
vt 0.6659412 0.2821115
vt 0.9525667 0.06687713
vt 1.003247 0.0103708
vt 0.9525667 0.0103708
vt 1.003247 0.0622193
vt 0.9018866 0.0103708
vt 0.9018865 0.05939372
vt 0.8512778 0.0103708
vt 0.8842986 0.08920851
vt 0.8512777 0.09517825
vt 0.8096397 0.08197301
vt 0.8005975 0.0622193
vt 0.8005977 0.0103708
vt 0.8157331 0.2008032
vt 0.8556869 0.2239574
vt 0.8607516 0.2008032
vt 0.820797 0.2239574
vt 0.8658158 0.2239574
vt 0.9057698 0.2008032
vt 0.8607516 0.2008032
vt 0.9007054 0.2239574
vt 0.9108339 0.2239574
vt 0.950788 0.2008032
vt 0.9057698 0.2008032
vt 0.945724 0.2239574
vt 0.9558522 0.2239574
vt 0.9958066 0.2008032
vt 0.950788 0.2008032
vt 0.9907421 0.2239574
vt 0.3093842 0.01205534
vt 0.3143153 0.02839776
vt 0.3204281 0.03045284
vt 0.3050327 0.03748139
vt 0.289616 0.01800258
vt 0.2880045 0.03879536
vt 0.2815524 0.01573293
vt 0.3023271 0.003981555
vt 0.3093222 0.01194742
vn 2.509392E-07 0.3733254 0.9277005
vn 2.286064E-07 0.3733254 0.9277005
vn 1.745393E-07 0.3733255 0.9277005
vn 2.849675E-07 0.3733253 0.9277005
vn 0.9277005 0.3733254 2.483625E-07
vn 0.9277005 0.3733254 2.841109E-07
vn 0.9277005 0.3733255 1.938931E-07
vn 0.9277006 0.3733253 3.706563E-07
vn -1.856512E-07 0.3733255 -0.9277005
vn -1.421749E-07 0.3733256 -0.9277005
vn 0 0.3733257 -0.9277003
vn -2.518956E-07 0.3733254 -0.9277005
vn -0.9277002 0.373326 4.414013E-07
vn -0.9277003 0.373326 4.527743E-07
vn -0.9277003 0.373326 4.240725E-07
vn -0.9277002 0.3733261 4.803078E-07
vn 0 -1 -8.921967E-07
vn 0 -1 -8.921967E-07
vn 0 -1 -8.921967E-07
vn 0 -1 -8.921967E-07
vn 1.608736E-07 0.4957598 0.8684598
vn 0 0.4957601 0.8684595
vn 0 0.4957601 0.8684595
vn 1.836652E-07 0.4957596 0.8684598
vn 0.8684591 0.4957607 3.961674E-07
vn 0.8684589 0.4957611 3.123897E-07
vn 0.8684592 0.4957606 4.194117E-07
vn 0.8684589 0.4957611 2.9968E-07
vn -1.289581E-07 0.4957606 -0.8684593
vn -1.1426E-07 0.4957606 -0.8684593
vn -1.330361E-07 0.4957606 -0.8684592
vn -1.120302E-07 0.4957606 -0.8684593
vn -0.8684596 0.4957599 6.609025E-07
vn -0.8684598 0.4957596 5.949561E-07
vn -0.8684596 0.4957599 6.791993E-07
vn -0.8684598 0.4957596 5.849516E-07
vn 0 1 5.633357E-07
vn 0 1 5.633357E-07
vn 3.277229E-07 1 8.910585E-07
vn -3.277229E-07 1 2.356128E-07
vn 1.702259E-07 -0.404015 0.9147524
vn 1.38927E-07 -0.4040148 0.9147524
vn 1.324048E-07 -0.4040148 0.9147524
vn 1.809682E-07 -0.4040151 0.9147524
vn -0.9147525 -0.4040147 -2.431192E-07
vn -0.9147525 -0.4040145 -1.847897E-07
vn -0.9147524 -0.4040148 -2.63139E-07
vn -0.9147526 -0.4040145 -1.726347E-07
vn -1.269209E-07 -0.4040144 -0.9147526
vn -1.934809E-07 -0.4040142 -0.9147527
vn -1.040763E-07 -0.4040145 -0.9147526
vn -2.073511E-07 -0.4040142 -0.9147527
vn 0.9147531 -0.4040132 -5.815461E-07
vn 0.9147527 -0.4040142 -3.031064E-07
vn 0.9147533 -0.4040129 -6.771116E-07
vn 0.9147526 -0.4040144 -2.450836E-07
vn 0 -1 -7.9812E-07
vn 0 -1 -7.9812E-07
vn 0 -1 -7.9812E-07
vn 0 -1 -7.9812E-07
vn 1 3.590242E-07 -1.18117E-07
vn 1 3.590241E-07 -1.18117E-07
vn 1 3.590242E-07 -1.18117E-07
vn 1 3.590241E-07 -1.18117E-07
vn -2.891632E-07 1.080258E-06 -1
vn -2.423643E-07 7.957622E-07 -1
vn -2.952931E-07 1.117522E-06 -1
vn -2.362344E-07 7.584981E-07 -1
vn -1 0 1.181173E-07
vn -1 0 1.181173E-07
vn -1 0 1.181173E-07
vn -1 0 1.181173E-07
vn 2.952931E-07 -3.994741E-07 1
vn 2.952931E-07 -3.994741E-07 1
vn 2.952931E-07 -3.994741E-07 1
vn 2.952931E-07 -3.994741E-07 1
vn 0.9999952 -0.003096231 -1.682365E-07
vn 0.9999952 -0.003096157 -1.959812E-07
vn 0.9999952 -0.003096262 -1.566359E-07
vn 0.9999952 -0.003096126 -2.075361E-07
vn -1.645716E-07 -0.003096515 -0.9999952
vn -1.918032E-07 -0.003096442 -0.9999952
vn -1.531855E-07 -0.003096545 -0.9999952
vn -2.031445E-07 -0.003096411 -0.9999952
vn -0.9999952 -0.003098996 2.009321E-07
vn -0.9999952 -0.003098998 2.005052E-07
vn -0.9999952 -0.003098995 2.011106E-07
vn -0.9999952 -0.003098998 2.003274E-07
vn 1.529325E-07 -0.003098439 0.9999952
vn 1.530842E-07 -0.00309844 0.9999952
vn 1.531473E-07 -0.003098439 0.9999952
vn 1.528691E-07 -0.003098439 0.9999952
vn 0.9997981 -2.676408E-07 -0.02009581
vn 2.253848E-06 1.73527E-06 -1
vn 1 0 4.024728E-06
vn -0.2353351 2.785361E-07 -0.9719143
vn -2.14652E-06 -2.108438E-06 1
vn -0.1855617 -0.02053715 0.982418
vn -0.9999785 -0.0062889 -0.001830225
vn -0.7198322 -0.01376625 0.6940117
vn -0.9997565 -1.173312E-07 0.02206723
vn -0.7071016 -2.600077E-07 -0.7071119
vn -0.2353351 2.785361E-07 -0.9719143
vn 2.253848E-06 1.73527E-06 -1
vn 0.9391968 0.3433794 -5.414079E-07
vn 3.084339E-06 0.3433798 -0.9391966
vn -3.053606E-06 0.3433798 -0.9391966
vn 0.9391968 0.3433794 7.341469E-06
vn 3.084339E-06 0.3433798 -0.9391966
vn -0.9391962 0.3433812 1.957E-06
vn -3.053606E-06 0.3433798 -0.9391966
vn -0.9391973 0.3433779 -4.793281E-06
vn -0.9391973 0.3433779 -4.793281E-06
vn 1.819827E-06 0.3433805 0.9391963
vn -0.9391962 0.3433812 1.957E-06
vn -5.133073E-06 0.3433772 0.9391977
vn -5.133073E-06 0.3433772 0.9391977
vn 0.9391968 0.3433794 -5.414079E-07
vn 1.819827E-06 0.3433805 0.9391963
vn 0.9391968 0.3433794 7.341469E-06
vn -0.2426193 0.7596368 -0.6033969
vn 0.114712 0.9888883 -0.09455774
vn -0.2676139 0.9597864 -0.08481129
vn 0.6232103 0.734451 0.2686832
vn 0.1458356 0.9879731 0.05139216
vn 0.6478966 0.6535115 0.3913473
vn -0.2586926 0.9652199 0.03779795
vn 0.7210867 0.5475491 -0.4245281
vn 0.7509772 0.6088956 -0.2554981
g Area_Common_Build_Pillar_G_04_Lod2_0
f 3/3/3 2/2/2 1/1/1
f 4/4/4 1/1/1 2/2/2
f 7/7/7 6/6/6 5/5/5
f 8/8/8 5/5/5 6/6/6
f 11/11/11 10/10/10 9/9/9
f 12/12/12 9/9/9 10/10/10
f 15/15/15 14/14/14 13/13/13
f 16/16/16 13/13/13 14/14/14
f 19/19/19 18/18/18 17/17/17
f 20/20/20 17/17/17 18/18/18
f 23/23/23 22/22/22 21/21/21
f 24/24/24 21/21/21 22/22/22
f 27/27/27 26/26/26 25/25/25
f 28/28/28 25/25/25 26/26/26
f 31/31/31 30/30/30 29/29/29
f 32/32/32 29/29/29 30/30/30
f 35/35/35 34/34/34 33/33/33
f 36/36/36 33/33/33 34/34/34
f 39/39/39 38/38/38 37/37/37
f 40/40/40 37/37/37 38/38/38
f 43/43/43 42/42/42 41/41/41
f 44/44/44 41/41/41 42/42/42
f 47/47/47 46/46/46 45/45/45
f 48/48/48 45/45/45 46/46/46
f 51/51/51 50/50/50 49/49/49
f 52/52/52 49/49/49 50/50/50
f 55/55/55 54/54/54 53/53/53
f 56/56/56 53/53/53 54/54/54
f 59/59/59 58/58/58 57/57/57
f 60/60/60 57/57/57 58/58/58
f 63/63/63 62/62/62 61/61/61
f 64/64/64 61/61/61 62/62/62
f 67/67/67 66/66/66 65/65/65
f 68/68/68 65/65/65 66/66/66
f 71/71/71 70/70/70 69/69/69
f 72/72/72 69/69/69 70/70/70
f 75/75/75 74/74/74 73/73/73
f 76/76/76 73/73/73 74/74/74
f 79/79/79 78/78/78 77/77/77
f 80/80/80 77/77/77 78/78/78
f 83/83/83 82/82/82 81/81/81
f 84/84/84 81/81/81 82/82/82
f 87/87/87 86/86/86 85/85/85
f 88/88/88 85/85/85 86/86/86
f 91/91/91 90/90/90 89/89/89
f 92/92/92 89/89/89 90/90/90
f 95/95/95 94/94/94 93/93/93
f 96/96/96 93/93/93 94/94/94
f 95/95/95 93/93/93 97/97/97
f 98/98/98 97/97/97 93/93/93
f 97/97/97 98/98/98 99/99/99
f 100/100/100 99/99/99 98/98/98
f 100/100/100 101/101/101 99/99/99
f 101/101/101 102/102/102 99/99/99
f 102/102/102 103/103/103 99/99/99
f 104/104/104 99/99/99 103/103/103
f 107/107/107 106/106/106 105/105/105
f 108/108/108 105/105/105 106/106/106
f 111/111/111 110/110/110 109/109/109
f 112/112/112 109/109/109 110/110/110
f 115/115/115 114/114/114 113/113/113
f 116/116/116 113/113/113 114/114/114
f 119/119/119 118/118/118 117/117/117
f 120/120/120 117/117/117 118/118/118
f 123/123/123 122/122/122 121/121/121
f 124/124/124 122/122/122 123/123/123
f 125/125/125 122/122/122 124/124/124
f 126/126/126 125/125/125 124/124/124
f 127/127/127 125/125/125 126/126/126
f 128/128/128 125/125/125 127/127/127
f 125/125/125 128/128/128 129/129/129
f 125/125/125 129/129/129 122/122/122
