g Area_Common_Build_Camp_A_03_Ocl_Col
v -1.064516 2.698955 0.004989624
v 1.070381 0.8599121 -4.504398
v 1.070381 2.698955 0.004989624
v -1.064516 0.8599121 -4.504398
v -1.064516 0.8599121 3.565982
v 1.070381 0.8599121 3.565982
vn 0 0.9989993 0.04472493
vn 0 0.9259571 -0.3776288
vn 0 0.9989993 0.04472496
vn 0 0.9259571 -0.3776288
vn 0 0.8885076 0.4588619
vn 0 0.8885076 0.4588619
g Area_Common_Build_Camp_A_03_Ocl_Col_0
f 3/3/3 2/2/2 1/1/1
f 4/4/4 1/1/1 2/2/2
f 1/1/1 5/5/5 3/3/3
f 6/6/6 3/3/3 5/5/5
