g Area_Common_Prop_Fire_A_02_Col
v -0.3547877 2.688611E-20 -0.0004390836
v 0.04781448 -2.575418E-17 0.4205976
v 0.2879089 -1.310264E-17 0.2139823
v 0.2451804 1.585481E-17 -0.2589287
v -0.05996086 2.747758E-17 -0.4487429
v -0.02830348 2.306992 -0.07927761
vn -0.8398374 -0.536478 0.08285248
vn -0.027847 -0.5010636 0.8649622
vn 0.7677619 -0.5509546 0.3270941
vn 0.7015576 -0.5657261 -0.4333252
vn -0.1763622 -0.5198423 -0.8358591
vn -0.01544071 0.9995307 -0.02645741
g Area_Common_Prop_Fire_A_02_Col_0
f 3/3/3 2/2/2 1/1/1
f 4/4/4 3/3/3 1/1/1
f 5/5/5 4/4/4 1/1/1
f 4/4/4 6/6/6 3/3/3
f 1/1/1 6/6/6 5/5/5
f 5/5/5 6/6/6 4/4/4
f 3/3/3 6/6/6 2/2/2
f 2/2/2 6/6/6 1/1/1
