g Area_Common_Build_Ruin_Wall_K_01_Lod2
v -6.379256 8.340011 1.086614
v -6.277787 7.516286 1.086615
v -6.780429 7.730814 0.2990639
v -6.30246 7.516286 -1.098417
v -6.354301 8.340012 -1.098416
v 6.218933 7.516284 1.086615
v 6.101353 8.34001 1.086615
v 6.645671 7.702634 0.8195245
v 6.227779 7.516284 -1.098417
v 6.635457 8.17595 0.5456351
v 6.35017 8.340011 -1.098417
v -6.30246 7.516286 -1.098417
v -6.277787 7.516286 1.086615
v 6.218933 7.516284 1.086615
v 6.227779 7.516284 -1.098417
v -6.354301 8.340012 -1.098416
v -6.30246 7.516286 -1.098417
v 6.227779 7.516284 -1.098417
v 6.35017 8.340011 -1.098417
v 6.35017 8.340011 -1.098417
v 6.101353 8.34001 1.086615
v -6.379256 8.340011 1.086614
v -6.354301 8.340012 -1.098416
v 6.101353 8.34001 1.086615
v 6.218933 7.516284 1.086615
v -6.277787 7.516286 1.086615
v -6.379256 8.340011 1.086614
v -6.087314 0.6975706 1.086614
v -5.969736 -0.1261543 1.086614
v -6.497837 0.280995 0.7909887
v -6.096159 0.6975713 -1.098418
v -6.21855 -0.126156 -1.098418
v -6.311834 0.3548967 -0.6551902
v 6.434079 0.6975701 -1.098418
v 6.409407 0.6975693 1.086614
v -6.087314 0.6975706 1.086614
v -6.096159 0.6975713 -1.098418
v 6.485919 -0.1261544 -1.098417
v 6.434079 0.6975701 -1.098418
v -6.096159 0.6975713 -1.098418
v -6.21855 -0.126156 -1.098418
v -6.21855 -0.126156 -1.098418
v -5.969736 -0.1261543 1.086614
v 6.510877 -0.1261547 1.086614
v 6.485919 -0.1261544 -1.098417
v -5.969736 -0.1261543 1.086614
v -6.087314 0.6975706 1.086614
v 6.409407 0.6975693 1.086614
v 6.510877 -0.1261547 1.086614
v 6.912049 0.4830417 0.2990629
v 6.409407 0.6975693 1.086614
v 6.434079 0.6975701 -1.098418
v 6.485919 -0.1261544 -1.098417
v 6.510877 -0.1261547 1.086614
v 6.286294 2.180898 -0.9293581
v 5.663344 2.406898 -0.9293578
v 6.49041 0.791617 -0.9293592
v -6.520607 2.059033 -0.9293586
v 5.500696 3.442883 -0.9293577
v -6.736513 3.475266 -0.9293579
v 6.126864 4.993683 -0.9293572
v -6.369684 4.978415 -0.9293571
v 5.948908 5.837589 -0.9293567
v -6.371689 6.165513 -0.9293568
v 6.3827 6.456378 -0.9293554
v -6.891017 6.307732 -0.9293566
v 5.755184 7.628813 -0.9293543
v -7.242268 7.628813 -0.9293543
v -6.652307 4.975883 -0.9293572
v -6.944504 0.6427998 -0.9293592
v 6.286294 2.180897 0.9518617
v 6.49041 0.7916167 0.9518605
v 5.663344 2.406898 0.9518619
v -6.520607 2.059033 0.9518611
v 5.500696 3.442883 0.9518621
v -6.736513 3.475266 0.9518618
v 6.126864 4.993683 0.9518626
v -6.598952 4.978415 0.9518628
v 5.948908 5.837589 0.9518631
v -6.600957 6.165513 0.9518631
v 6.3827 6.456378 0.9518644
v -7.058156 6.307732 0.9518632
v 6.496161 7.628813 0.9518655
v -7.242268 7.628813 0.9518655
v -6.652307 4.975883 0.9518626
v -6.944504 0.6427996 0.9518605
v -6.598952 4.978415 0.9518628
v -6.369684 4.978415 -0.9293571
v -6.371689 6.165513 -0.9293568
v -6.600957 6.165513 0.9518631
v -6.652307 4.975883 0.9518626
v -6.652307 4.975883 -0.9293572
v -6.369684 4.978415 -0.9293571
v -6.598952 4.978415 0.9518628
v -6.736513 3.475266 0.9518618
v -6.736513 3.475266 -0.9293579
v -6.652307 4.975883 -0.9293572
v -6.652307 4.975883 0.9518626
v -6.520607 2.059033 0.9518611
v -6.520607 2.059033 -0.9293586
v -6.944504 0.6427996 0.9518605
v -6.944504 0.6427998 -0.9293592
v 6.49041 0.7916167 0.9518605
v 6.49041 0.791617 -0.9293592
v -6.944504 0.6427998 -0.9293592
v -6.944504 0.6427996 0.9518605
v 6.286294 2.180897 0.9518617
v 6.286294 2.180898 -0.9293581
v 6.49041 0.791617 -0.9293592
v 6.49041 0.7916167 0.9518605
v 5.663344 2.406898 0.9518619
v 5.663344 2.406898 -0.9293578
v 6.286294 2.180898 -0.9293581
v 6.286294 2.180897 0.9518617
v 5.500696 3.442883 0.9518621
v 5.500696 3.442883 -0.9293577
v 5.663344 2.406898 -0.9293578
v 5.663344 2.406898 0.9518619
v 6.126864 4.993683 0.9518626
v 6.126864 4.993683 -0.9293572
v 5.948908 5.837589 0.9518631
v 5.948908 5.837589 -0.9293567
v 6.3827 6.456378 0.9518644
v 6.3827 6.456378 -0.9293554
v 5.948908 5.837589 -0.9293567
v 5.948908 5.837589 0.9518631
v 6.496161 7.628813 0.9518655
v 5.755184 7.628813 -0.9293543
v 6.3827 6.456378 -0.9293554
v 6.3827 6.456378 0.9518644
v -7.242268 7.628813 0.9518655
v -7.242268 7.628813 -0.9293543
v 5.755184 7.628813 -0.9293543
v 6.496161 7.628813 0.9518655
v -7.058156 6.307732 0.9518632
v -6.891017 6.307732 -0.9293566
v -7.242268 7.628813 -0.9293543
v -7.242268 7.628813 0.9518655
v -6.600957 6.165513 0.9518631
v -6.371689 6.165513 -0.9293568
v -6.891017 6.307732 -0.9293566
v -7.058156 6.307732 0.9518632
vt 0.2090042 0.4203877
vt 0.2058091 0.3965559
vt 0.1881098 0.408543
vt 0.1536319 0.4056693
vt 0.1556563 0.4256972
vt 0.1707837 0.4526689
vt 0.1744839 0.4767332
vt 0.1800528 0.4571263
vt 0.2240016 0.4440262
vt 0.1876822 0.4647836
vt 0.2272317 0.4645114
vt 0.7552589 0.9094549
vt 0.7534378 0.9343501
vt 0.9839643 0.9343501
vt 0.9861514 0.9094549
vt 0.7543128 0.8882927
vt 0.755286 0.9067652
vt 0.9868423 0.9067658
vt 0.9890977 0.8883225
vt 0.9420049 0.8637811
vt 0.938908 0.8850001
vt 0.7832769 0.8850001
vt 0.7835901 0.8637761
vt 0.9845062 0.888292
vt 0.9866789 0.9067657
vt 0.7557417 0.9067652
vt 0.7538706 0.8883139
vt 0.226555 0.4683443
vt 0.2247266 0.4454601
vt 0.2165945 0.4587861
vt 0.1729146 0.4739778
vt 0.171169 0.4535264
vt 0.1828575 0.4639302
vt 0.7527452 0.9343501
vt 0.7512191 0.9094549
vt 0.9859882 0.9094549
vt 0.9829016 0.9343501
vt 0.7543128 0.8882927
vt 0.755286 0.9067652
vt 0.9868423 0.9067658
vt 0.9890977 0.8883225
vt 0.9552848 0.8637992
vt 0.9519638 0.8850001
vt 0.7873599 0.8850001
vt 0.7877131 0.8638303
vt 0.9845062 0.888292
vt 0.9866789 0.9067657
vt 0.7557417 0.9067652
vt 0.7538706 0.8883139
vt 0.1869138 0.4105696
vt 0.2040626 0.3978073
vt 0.1523423 0.4092323
vt 0.1552554 0.4291504
vt 0.2083144 0.4214734
vt 0.4372428 0.6353191
vt 0.4332963 0.6367509
vt 0.4385359 0.6255749
vt 0.3561078 0.6345471
vt 0.4322658 0.6433141
vt 0.35474 0.6435192
vt 0.4362328 0.6531389
vt 0.3570639 0.6530421
vt 0.4351054 0.6584852
vt 0.3570512 0.6605627
vt 0.4378536 0.6624054
vt 0.3537611 0.6614637
vt 0.4338781 0.6698331
vt 0.3515359 0.6698331
vt 0.3552735 0.653026
vt 0.3534223 0.6255749
vt 0.4372428 0.6353191
vt 0.4385359 0.6255749
vt 0.4332963 0.6367509
vt 0.3561078 0.6345471
vt 0.4322658 0.6433141
vt 0.35474 0.6435192
vt 0.4362328 0.6531389
vt 0.3556114 0.6530421
vt 0.4351054 0.6584852
vt 0.3555988 0.6605627
vt 0.4378536 0.6624054
vt 0.3527023 0.6614637
vt 0.4385723 0.6698331
vt 0.3515359 0.6698331
vt 0.3552735 0.653026
vt 0.3534223 0.6255749
vt 0.4611616 0.6495892
vt 0.4730643 0.6494667
vt 0.4730643 0.6422565
vt 0.4611531 0.6402814
vt 0.46112 0.6498605
vt 0.4733747 0.6498605
vt 0.4730643 0.6494667
vt 0.4611616 0.6495892
vt 0.46112 0.6590719
vt 0.4733747 0.6590719
vt 0.4733747 0.6498605
vt 0.46112 0.6498605
vt 0.46112 0.6681477
vt 0.4733747 0.6681477
vt 0.46112 0.6775132
vt 0.4733747 0.6775133
vt 0.4385359 0.6374921
vt 0.4385359 0.6255749
vt 0.3534223 0.6255749
vt 0.3534223 0.6374921
vt 0.4451328 0.635896
vt 0.4570508 0.635896
vt 0.4570508 0.6248909
vt 0.4451328 0.6248909
vt 0.4451328 0.6448089
vt 0.4570508 0.6448089
vt 0.4570508 0.635896
vt 0.4451328 0.635896
vt 0.4451328 0.6514525
vt 0.4570508 0.6514525
vt 0.4570508 0.6448089
vt 0.4451328 0.6448089
vt 0.4451328 0.6620479
vt 0.4570508 0.6620479
vt 0.4451328 0.6675118
vt 0.4570508 0.6675118
vt 0.4451328 0.6722993
vt 0.4570508 0.6722993
vt 0.4570508 0.6675118
vt 0.4451328 0.6675118
vt 0.4452121 0.6767663
vt 0.4570508 0.6783092
vt 0.4570508 0.6722993
vt 0.4451328 0.6722993
vt 0.3515359 0.6689031
vt 0.3515359 0.6808211
vt 0.4338781 0.6808211
vt 0.4385723 0.6689031
vt 0.4611317 0.6304179
vt 0.4730643 0.6320169
vt 0.4730643 0.6233568
vt 0.4611463 0.6233568
vt 0.4611531 0.6402814
vt 0.4730643 0.6422565
vt 0.4730643 0.6320169
vt 0.4611317 0.6304179
vn -0.9266402 0.1936018 0.3222673
vn -0.8133113 -0.4173443 0.405399
vn -0.9592529 -0.2748294 0.06559566
vn -0.9243394 -0.2638541 -0.2756405
vn -0.9629175 0.124578 -0.2393118
vn 0.6064638 -0.476585 0.6364498
vn 0.6043087 0.5551915 0.5714659
vn 0.8532481 -0.358586 0.3786606
vn 0.94609 -0.2693011 -0.179974
vn 0.8475947 0.5174266 0.117698
vn 0.9828103 0.05176101 -0.177214
vn -1.951021E-07 -1 0
vn -1.951021E-07 -1 0
vn -1.951021E-07 -1 0
vn -1.951021E-07 -1 0
vn 0 2.319398E-07 -1
vn 0 2.319398E-07 -1
vn 0 2.319398E-07 -1
vn 0 2.319398E-07 -1
vn 0 1 4.235543E-07
vn 0 1 4.235543E-07
vn 0 1 4.235544E-07
vn 0 1 4.235543E-07
vn 0 3.65609E-07 1
vn 0 3.65609E-07 1
vn 0 3.65609E-07 1
vn 0 3.65609E-07 1
vn -0.7683448 0.4061338 0.4946732
vn -0.6877209 -0.5385002 0.4868855
vn -0.9465505 -0.04336955 0.3196265
vn -0.9153689 0.3360468 -0.2217486
vn -0.9711527 -0.1187812 -0.206769
vn -0.9668353 0.1903483 -0.1702851
vn 0 1 3.495196E-07
vn 0 1 3.495196E-07
vn 0 1 3.495196E-07
vn 0 1 3.495196E-07
vn 0 -3.26114E-07 -1
vn 0 -3.261141E-07 -1
vn 0 -3.26114E-07 -1
vn 0 -3.26114E-07 -1
vn 0 -1 6.561406E-07
vn 0 -1 7.62569E-07
vn 1.120395E-07 -1 0
vn 1.291136E-07 -1 -1.498705E-07
vn 0 1.385249E-07 1
vn 0 1.38525E-07 1
vn 0 1.385249E-07 1
vn 0 1.385249E-07 1
vn 0.9592529 0.2748296 0.06559487
vn 0.813311 0.4173455 0.4053987
vn 0.92434 0.2638514 -0.2756411
vn 0.9629171 -0.1245804 -0.2393125
vn 0.9266407 -0.1936008 0.3222664
vn 0 8.131007E-07 -1
vn 0 5.572565E-07 -1
vn 0 6.922814E-07 -1
vn 0 4.813339E-07 -1
vn 0 3.853127E-07 -1
vn 0 3.831479E-07 -1
vn 0 4.213986E-07 -1
vn 1.534424E-07 4.423476E-07 -1
vn 0 1.266766E-06 -1
vn 0 1.444547E-06 -1
vn 0 1.697007E-06 -1
vn 0 1.500879E-06 -1
vn 0 1.422539E-06 -1
vn 0 1.422539E-06 -1
vn 5.356158E-07 4.78361E-07 -1
vn 0 6.566079E-07 -1
vn 0 -8.131007E-07 1
vn 0 -6.922816E-07 1
vn 0 -5.680723E-07 1
vn 0 -4.962347E-07 1
vn 0 -4.131038E-07 1
vn 0 -4.095529E-07 1
vn 0 -4.324918E-07 1
vn -8.736603E-07 -4.26648E-07 1
vn 0 -1.263592E-06 1
vn 0 -1.436026E-06 1
vn 0 -1.585476E-06 1
vn 0 -1.449883E-06 1
vn 0 -1.347329E-06 1
vn 0 -1.347329E-06 1
vn -2.840915E-06 -3.998417E-07 1
vn 0 -6.566081E-07 1
vn -0.992654 -0.001676566 -0.1209765
vn -0.992654 -0.001676566 -0.1209765
vn -0.992654 -0.001676566 -0.1209765
vn -0.992654 -0.001676566 -0.1209765
vn -0.01506921 0.999886 -0.0009182552
vn -0.01506921 0.999886 -0.0009182552
vn -0.01506921 0.999886 -0.0009182552
vn -0.0150692 0.999886 -0.0009182552
vn -0.9988667 -0.04759704 0
vn -0.9988667 -0.0475971 0
vn -0.9984292 0.05602643 0
vn -0.9984292 0.05602643 0
vn -0.9975671 0.06971346 0
vn -0.9975671 0.06971355 0
vn -0.9580073 0.2867437 0
vn -0.9580073 0.2867437 0
vn 0.01107622 -0.9999387 -1.217053E-07
vn 0.01107622 -0.9999387 -1.217053E-07
vn 0.01107622 -0.9999387 -1.217053E-07
vn 0.01107622 -0.9999387 -1.217053E-07
vn 0.9893786 0.1453613 0
vn 0.9893786 0.1453613 0
vn 0.9893786 0.1453613 0
vn 0.9893786 0.1453613 0
vn 0.3410414 0.9400483 1.517747E-07
vn 0.3410414 0.9400483 1.517747E-07
vn 0.3410414 0.9400483 1.517747E-07
vn 0.3410414 0.9400483 1.517747E-07
vn 0.9935076 -0.1137661 0
vn 0.9935076 -0.113766 0
vn 0.987899 0.1550989 0
vn 0.987899 0.1550989 0
vn 0.9961338 -0.08784934 0
vn 0.9961338 -0.08784953 0
vn 0.9784815 0.2063348 0
vn 0.9784815 0.2063347 0
vn 0.8188339 -0.5740305 0
vn 0.8188339 -0.5740305 0
vn 0.8188339 -0.5740305 0
vn 0.8188339 -0.5740305 0
vn 0.9592152 0.2102855 -0.1889084
vn 0.9592152 0.2102855 -0.1889084
vn 0.9592152 0.2102855 -0.1889084
vn 0.9592152 0.2102855 -0.1889084
vn 0 1 0
vn 0 1 0
vn 0 1 0
vn 0 1 0
vn -0.9791557 -0.1983991 -0.04349713
vn -0.9791557 -0.1983991 -0.04349714
vn -0.9791557 -0.1983991 -0.04349714
vn -0.9791557 -0.1983991 -0.04349713
vn -0.2795313 -0.9596847 -0.02945114
vn -0.2795314 -0.9596847 -0.02945114
vn -0.2795314 -0.9596847 -0.02945114
vn -0.2795314 -0.9596847 -0.02945114
g Area_Common_Build_Ruin_Wall_K_01_Lod2_0
f 3/3/3 2/2/2 1/1/1
f 4/4/4 2/2/2 3/3/3
f 4/4/4 3/3/3 5/5/5
f 1/1/1 5/5/5 3/3/3
f 8/8/8 7/7/7 6/6/6
f 8/8/8 6/6/6 9/9/9
f 8/8/8 10/10/10 7/7/7
f 10/10/10 11/11/11 7/7/7
f 10/10/10 8/8/8 11/11/11
f 11/11/11 8/8/8 9/9/9
f 14/14/14 13/13/13 12/12/12
f 15/15/15 14/14/14 12/12/12
f 18/18/18 17/17/17 16/16/16
f 19/19/19 18/18/18 16/16/16
f 22/22/22 21/21/21 20/20/20
f 23/23/23 22/22/22 20/20/20
f 26/26/26 25/25/25 24/24/24
f 27/27/27 26/26/26 24/24/24
f 30/30/30 29/29/29 28/28/28
f 31/31/31 30/30/30 28/28/28
f 29/29/29 30/30/30 32/32/32
f 33/33/33 31/31/31 32/32/32
f 32/32/32 30/30/30 33/33/33
f 33/33/33 30/30/30 31/31/31
f 36/36/36 35/35/35 34/34/34
f 37/37/37 36/36/36 34/34/34
f 40/40/40 39/39/39 38/38/38
f 41/41/41 40/40/40 38/38/38
f 44/44/44 43/43/43 42/42/42
f 45/45/45 44/44/44 42/42/42
f 48/48/48 47/47/47 46/46/46
f 49/49/49 48/48/48 46/46/46
f 52/52/52 51/51/51 50/50/50
f 53/53/53 52/52/52 50/50/50
f 54/54/54 50/50/50 51/51/51
f 54/54/54 53/53/53 50/50/50
f 57/57/57 56/56/56 55/55/55
f 58/58/58 56/56/56 57/57/57
f 59/59/59 56/56/56 58/58/58
f 60/60/60 59/59/59 58/58/58
f 61/61/61 59/59/59 60/60/60
f 62/62/62 61/61/61 60/60/60
f 63/63/63 61/61/61 62/62/62
f 64/64/64 63/63/63 62/62/62
f 65/65/65 63/63/63 64/64/64
f 66/66/66 65/65/65 64/64/64
f 67/67/67 65/65/65 66/66/66
f 68/68/68 67/67/67 66/66/66
f 69/69/69 62/62/62 60/60/60
f 70/70/70 58/58/58 57/57/57
f 73/73/73 72/72/72 71/71/71
f 73/73/73 74/74/74 72/72/72
f 73/73/73 75/75/75 74/74/74
f 75/75/75 76/76/76 74/74/74
f 75/75/75 77/77/77 76/76/76
f 77/77/77 78/78/78 76/76/76
f 77/77/77 79/79/79 78/78/78
f 79/79/79 80/80/80 78/78/78
f 79/79/79 81/81/81 80/80/80
f 81/81/81 82/82/82 80/80/80
f 81/81/81 83/83/83 82/82/82
f 83/83/83 84/84/84 82/82/82
f 78/78/78 85/85/85 76/76/76
f 74/74/74 86/86/86 72/72/72
f 89/89/89 88/88/88 87/87/87
f 90/90/90 89/89/89 87/87/87
f 93/93/93 92/92/92 91/91/91
f 94/94/94 93/93/93 91/91/91
f 97/97/97 96/96/96 95/95/95
f 98/98/98 97/97/97 95/95/95
f 95/95/95 96/96/96 99/99/99
f 96/96/96 100/100/100 99/99/99
f 99/99/99 100/100/100 101/101/101
f 100/100/100 102/102/102 101/101/101
f 105/105/105 104/104/104 103/103/103
f 106/106/106 105/105/105 103/103/103
f 109/109/109 108/108/108 107/107/107
f 110/110/110 109/109/109 107/107/107
f 113/113/113 112/112/112 111/111/111
f 114/114/114 113/113/113 111/111/111
f 117/117/117 116/116/116 115/115/115
f 118/118/118 117/117/117 115/115/115
f 115/115/115 116/116/116 119/119/119
f 116/116/116 120/120/120 119/119/119
f 119/119/119 120/120/120 121/121/121
f 120/120/120 122/122/122 121/121/121
f 125/125/125 124/124/124 123/123/123
f 126/126/126 125/125/125 123/123/123
f 129/129/129 128/128/128 127/127/127
f 130/130/130 129/129/129 127/127/127
f 133/133/133 132/132/132 131/131/131
f 134/134/134 133/133/133 131/131/131
f 137/137/137 136/136/136 135/135/135
f 138/138/138 137/137/137 135/135/135
f 141/141/141 140/140/140 139/139/139
f 142/142/142 141/141/141 139/139/139
