g Area_Common_Build_Arch_D_02_Col
v 2.615451 5.290765 0.7925542
v 2.335362 0.3552466 0.6208131
v 0.6980377 0.9107646 0.6629102
v 2.335362 0.3552461 -0.6454653
v 2.615451 5.290765 -0.8157476
v 0.1128778 1.973533 0.6629099
v -0.8029723 2.944325 0.66291
v -1.596464 3.373664 0.66291
v -1.019922 5.290765 0.7925541
v 0.6980377 0.9107648 -0.6629099
v 0.1128778 1.973533 -0.6629105
v -0.7541272 2.801296 -0.6629102
v -0.1518414 5.290764 -0.8157476
v 0.6107242 -0.1559267 -0.8282062
v 2.495613 -0.1559267 -0.8427204
v 0.6107242 -0.1559263 0.8311234
v 2.495613 -0.1559263 0.8166096
vn 0.5904715 0.5535466 0.587307
vn 0.7359974 0.2499459 0.6291541
vn -0.6341214 -0.08728711 0.7682909
vn 0.7307556 0.2517439 -0.6345245
vn 0.5904291 0.5524194 -0.5884099
vn -0.5574476 -0.4054778 0.7244583
vn -0.3919952 -0.5333622 0.7495763
vn -0.8847079 -0.2357948 0.4021103
vn -0.6118587 0.6238793 0.4862137
vn -0.6396939 -0.08753525 -0.763629
vn -0.5525312 -0.4131879 -0.7238681
vn -0.6300837 -0.3814492 -0.6763809
vn -0.3242549 0.6338457 -0.7022095
vn -0.595418 -0.5157335 -0.6160328
vn 0.6529604 -0.4202794 -0.6300856
vn -0.5911038 -0.5141078 0.6215219
vn 0.6571347 -0.4216594 0.6248018
g Area_Common_Build_Arch_D_02_Col_0
f 3/3/3 2/2/2 1/1/1
f 2/2/2 4/4/4 1/1/1
f 5/5/5 1/1/1 4/4/4
f 6/6/6 3/3/3 1/1/1
f 7/7/7 6/6/6 1/1/1
f 7/7/7 1/1/1 8/8/8
f 9/9/9 8/8/8 1/1/1
f 1/1/1 5/5/5 9/9/9
f 4/4/4 10/10/10 5/5/5
f 3/3/3 6/6/6 10/10/10
f 5/5/5 10/10/10 11/11/11
f 11/11/11 10/10/10 6/6/6
f 6/6/6 7/7/7 11/11/11
f 5/5/5 11/11/11 12/12/12
f 12/12/12 11/11/11 7/7/7
f 7/7/7 8/8/8 12/12/12
f 12/12/12 13/13/13 5/5/5
f 13/13/13 9/9/9 5/5/5
f 12/12/12 8/8/8 13/13/13
f 9/9/9 13/13/13 8/8/8
f 10/10/10 14/14/14 3/3/3
f 14/14/14 10/10/10 15/15/15
f 15/15/15 10/10/10 4/4/4
f 14/14/14 15/15/15 16/16/16
f 16/16/16 3/3/3 14/14/14
f 17/17/17 16/16/16 15/15/15
f 16/16/16 17/17/17 3/3/3
f 2/2/2 17/17/17 4/4/4
f 15/15/15 4/4/4 17/17/17
f 17/17/17 2/2/2 3/3/3
