g Area_Ly_Build_Common_Hili_House_05_Col
v -0.1609721 0.3473865 0.1534138
v 0.1609722 -8.52992E-18 0.1393042
v -0.1609722 -8.52992E-18 0.1393042
v 0.1609722 0.3473865 0.1534138
v -0.1259263 0.7715917 -0.323878
v 0.1259263 0.7715917 -0.323878
v 0.1259263 0.6383555 -0.6241188
v -0.1259263 0.6383555 -0.6241188
v 0.08254151 1.574113 -0.4776111
v -0.08254151 1.574113 -0.4776111
v 0.04615423 2.351938 -0.1859997
v -0.04615423 2.351938 -0.1859997
v 0.04615423 2.351938 -0.2982434
v -0.04615423 2.351938 -0.2982434
v 0.08254151 1.504141 -0.7200816
v -0.08254151 1.504141 -0.7200816
vn -0.6478175 0.3097689 0.6959711
vn 0.5633413 -0.7567985 0.3315156
vn -0.5633413 -0.7567986 0.3315154
vn 0.6478177 0.3097689 0.6959709
vn -0.7860446 0.3424281 0.514662
vn 0.7860447 0.3424281 0.5146619
vn 0.6346707 -0.3465365 -0.6907284
vn -0.6346706 -0.3465364 -0.6907284
vn 0.7786868 -0.009011875 0.6273482
vn -0.7786868 -0.009011907 0.6273481
vn 0.5492896 0.4797547 0.6841903
vn -0.5492896 0.4797547 0.6841903
vn 0.5901015 0.6902396 -0.4187475
vn -0.5901015 0.6902396 -0.4187475
vn 0.6397709 0.1572901 -0.7522985
vn -0.6397709 0.1572901 -0.7522985
g Area_Ly_Build_Common_Hili_House_05_Col_0
f 3/3/3 2/2/2 1/1/1
f 4/4/4 1/1/1 2/2/2
f 1/1/1 4/4/4 5/5/5
f 1/1/1 5/5/5 3/3/3
f 6/6/6 5/5/5 4/4/4
f 4/4/4 2/2/2 6/6/6
f 7/7/7 6/6/6 2/2/2
f 2/2/2 3/3/3 7/7/7
f 8/8/8 7/7/7 3/3/3
f 8/8/8 3/3/3 5/5/5
f 6/6/6 9/9/9 5/5/5
f 6/6/6 7/7/7 9/9/9
f 10/10/10 5/5/5 9/9/9
f 5/5/5 10/10/10 8/8/8
f 9/9/9 11/11/11 10/10/10
f 12/12/12 10/10/10 11/11/11
f 11/11/11 13/13/13 12/12/12
f 14/14/14 12/12/12 13/13/13
f 13/13/13 11/11/11 15/15/15
f 9/9/9 15/15/15 11/11/11
f 13/13/13 15/15/15 14/14/14
f 15/15/15 9/9/9 7/7/7
f 16/16/16 14/14/14 15/15/15
f 14/14/14 16/16/16 12/12/12
f 10/10/10 12/12/12 16/16/16
f 15/15/15 7/7/7 16/16/16
f 8/8/8 16/16/16 7/7/7
f 16/16/16 8/8/8 10/10/10
