g Area_Ly_Build_Common_Hili_House_04_Lod1
v 0.2017218 0.01965904 0.003101815
v 0.1061803 0.6956523 -0.02909443
v 0.1426389 0.01965904 -0.1395371
v 0.1507751 0.6956524 0.0772699
v -0.1091423 0.6956526 -0.02909447
v -0.1426389 0.01965904 -0.1395371
v -1.960495E-08 0.01965904 0.2048236
v -0.001481031 0.6956522 0.2276917
v -0.2017218 0.01965904 0.003101734
v -0.153737 0.6956522 0.07726996
v -0.1426389 0.01965904 -0.1395371
v -0.1091423 0.6956526 -0.02909447
v 0.1335463 1.125214 0.05140886
v 0.09399772 1.125214 -0.04280023
v 0.07750858 1.566662 -0.1012345
v 0.1096136 1.566662 -0.0228375
v 0.06271178 2.065574 -0.1468607
v 0.08804723 2.065573 -0.08626722
v -0.07750848 1.566662 -0.1012345
v -0.0596187 2.065573 -0.1468607
v 0.001546571 2.065574 -0.0005751276
v 4.693648E-08 1.566662 0.08803256
v -0.1096136 1.566662 -0.02283752
v -0.08495417 2.065573 -0.0862672
v -0.07750848 1.566662 -0.1012345
v -0.0596187 2.065573 -0.1468607
v -0.09695964 1.125214 -0.04280032
v -0.09695964 1.125214 -0.04280032
v -0.1365083 1.125214 0.05140887
v -0.001481001 1.125214 0.1846406
v -0.05106174 2.673273 -0.08537692
v -0.0353809 2.673273 -0.1224174
v -0.01814519 3.086082 -0.04464081
v -0.0256982 3.086082 -0.02640615
v -0.0006301805 3.139871 -0.00838007
v 8.931309E-05 3.086082 -0.000618763
v 0.002475988 2.673274 -0.03299375
v 8.931309E-05 3.086082 -0.000618763
v 0.0258767 3.086082 -0.0264063
v -0.0006301805 3.139871 -0.00838007
v 0.0183238 3.086082 -0.04464071
v -0.01814519 3.086082 -0.04464081
v 0.05601374 2.673274 -0.08537696
v 0.04033294 2.673274 -0.1224175
v -0.0353809 2.673273 -0.1224174
v 0.1654025 0.580091 0.07260741
v 0.1431156 0.7589619 -0.04855448
v 0.1467045 0.580091 -0.05135721
v 0.1654025 0.7589619 0.0726074
v -0.0009490366 0.7589619 -0.09409841
v -0.0009490366 0.580091 -0.09409841
v -0.1450137 0.7589619 -0.04320776
v -0.1490872 0.580091 -0.04909398
v -0.1673005 0.7589619 0.0726074
v -0.1673005 0.580091 0.07260741
v -0.0009490554 0.7589619 0.2496799
v -0.0009490543 0.580091 0.2496798
v -0.1673005 0.7589619 0.0726074
v -0.1673005 0.580091 0.07260741
v 0.1467045 0.580091 -0.05135721
v -0.0009490366 0.580091 -0.09409841
v -0.0009490572 0.580091 0.07260741
v 0.1654025 0.580091 0.07260741
v -0.1490872 0.580091 -0.04909398
v -0.1673005 0.580091 0.07260741
v -0.0009490543 0.580091 0.2496798
v -0.000949047 0.7589619 0.0726074
v -0.1673005 0.7589619 0.0726074
v -0.1450137 0.7589619 -0.04320776
v -0.0009490366 0.7589619 -0.09409841
v 0.1431156 0.7589619 -0.04855448
v 0.1654025 0.7589619 0.0726074
v -0.0009490554 0.7589619 0.2496799
v 0.09601206 2.268091 -0.09526245
v 0.07070734 2.150408 -0.1585409
v 0.09850175 2.150408 -0.09143932
v 0.06894691 2.268091 -0.1606035
v 0.001362992 2.268091 -0.001926994
v 0.001362991 2.150409 0.0043855
v -0.09328628 2.268091 -0.09526245
v -0.09577595 2.150409 -0.09143932
v -0.06622107 2.268091 -0.1606035
v -0.06798159 2.150409 -0.1585409
v 0.07070734 2.150408 -0.1585409
v 0.06894691 2.268091 -0.1606035
v 0.07070734 2.150408 -0.1585409
v 0.004047188 2.144626 -0.09143932
v 0.09850175 2.150408 -0.09143932
v -0.06798159 2.150409 -0.1585409
v 0.001028337 2.14455 -0.09143932
v -0.001981804 2.144626 -0.09143932
v -0.09577595 2.150409 -0.09143932
v 0.001362991 2.150409 0.0043855
v -0.06622107 2.268091 -0.1606035
v 0.001165941 2.271192 -0.09526245
v -0.001803005 2.271151 -0.09526245
v 0.004140079 2.271151 -0.09526245
v 0.06894691 2.268091 -0.1606035
v -0.09328628 2.268091 -0.09526245
v 0.09601206 2.268091 -0.09526245
v 0.001362992 2.268091 -0.001926994
v 0.001165941 2.271192 -0.09526245
v -0.09328628 2.268091 -0.09526245
v -0.001803005 2.271151 -0.09526245
v -0.09577595 2.150409 -0.09143932
v 0.001028337 2.14455 -0.09143932
v -0.001981804 2.144626 -0.09143932
vt 0.1971623 0.3170143
vt 0.208285 0.4613569
vt 0.225079 0.3170143
vt 0.186056 0.4613569
vt 0.252538 0.4613569
vt 0.2813761 0.3170143
vt 0.1409996 0.3170143
vt 0.1414325 0.4613569
vt 0.08434537 0.3170143
vt 0.09696767 0.4613568
vt 0.0558149 0.3170143
vt 0.07498796 0.4613568
vt 0.1808091 0.5535897
vt 0.2006463 0.5535897
vt 0.1933534 0.6486315
vt 0.1762786 0.6486315
vt 0.1839449 0.7561101
vt 0.1701777 0.7561101
vt 0.2276508 0.6486315
vt 0.2115198 0.7561101
vt 0.1423484 0.7561101
vt 0.1418796 0.6486315
vt 0.107197 0.6486315
vt 0.1145361 0.7561101
vt 0.08979803 0.6486315
vt 0.1007197 0.7561101
vt 0.2401042 0.5535897
vt 0.08221351 0.5535897
vt 0.1018387 0.5535897
vt 0.1412365 0.5535897
vt 0.1253716 0.8866112
vt 0.1168666 0.8866112
vt 0.131523 0.9750929
vt 0.1356107 0.9743001
vt 0.1362483 0.9850928
vt 0.1421625 0.9743575
vt 0.1425768 0.8866112
vt 0.1436385 0.9735519
vt 0.1516249 0.9736625
vt 0.1479005 0.9858636
vt 0.1556054 0.974157
vt 0.1637087 0.9759108
vt 0.1598246 0.8866112
vt 0.1684047 0.8866112
vt 0.1855617 0.8866112
vt 0.3470421 0.9397697
vt 0.3719233 0.9946665
vt 0.3719233 0.9397697
vt 0.3470421 0.9946665
vt 0.421488 0.9946665
vt 0.421488 0.9397697
vt 0.4710519 0.9946665
vt 0.4710518 0.9397697
vt 0.4959331 0.9946665
vt 0.4959331 0.9397697
vt 0.272597 0.9946665
vt 0.272597 0.9397697
vt 0.1981512 0.9946665
vt 0.1981512 0.9397697
vt 0.03090805 0.6698624
vt 0.007874043 0.6925694
vt 0.03912218 0.7011822
vt 0.04771677 0.6700004
vt 0.01602177 0.7238709
vt 0.03052758 0.7323639
vt 0.06758527 0.7090275
vt 0.03912218 0.7679315
vt 0.03052758 0.7991132
vt 0.0473363 0.7992512
vt 0.07037032 0.7765443
vt 0.0622226 0.7452428
vt 0.04771677 0.7367496
vt 0.01065908 0.7600862
vt 0.0069634 0.5112488
vt 0.04398116 0.5332928
vt 0.04398116 0.5112488
vt 0.0069634 0.5332928
vt 0.0069634 0.466041
vt 0.04398116 0.466041
vt 0.0069634 0.4215797
vt 0.04398116 0.4215797
vt 0.0069634 0.3991625
vt 0.04398116 0.3991625
vt 0.04398116 0.3532884
vt 0.0069634 0.3532884
vt 0.04211752 0.5444333
vt 0.03141303 0.5698083
vt 0.05692415 0.5595331
vt 0.004659191 0.5595205
vt 0.03059764 0.5701367
vt 0.02978463 0.5704642
vt 0.004451886 0.5806676
vt 0.04111232 0.5959815
vt 0.01980801 0.6579411
vt 0.03090037 0.6329626
vt 0.03009851 0.6332855
vt 0.03170367 0.6326389
vt 0.05631538 0.6432369
vt 0.005389884 0.6432375
vt 0.05651726 0.6226447
vt 0.02080013 0.6077322
vt 0.03090037 0.6329626
vt 0.005389884 0.6432375
vt 0.03009851 0.6332855
vt 0.004451886 0.5806676
vt 0.03059764 0.5701367
vt 0.02978463 0.5704642
vn 0.9864545 0.05792696 0.153466
vn 0.5653899 0.07874633 -0.8210563
vn 0.5358626 0.164208 -0.8281829
vn 0.9728476 0.05011118 0.2259567
vn -0.5658695 0.07770776 -0.8208247
vn -0.53493 0.161618 -0.8292946
vn 0.0004027929 -0.03490145 0.9993907
vn -0.0008299337 0.03136141 0.9995078
vn -0.9865252 0.05394283 0.1544614
vn -0.9729047 0.04745726 0.2262839
vn -0.53493 0.161618 -0.8292946
vn -0.5658695 0.07770776 -0.8208247
vn 0.9748711 0.07105682 0.2111333
vn 0.5631187 -0.04902564 -0.8249205
vn 0.5529981 -0.07392251 -0.8298967
vn 0.9798704 0.07424894 0.1853135
vn 0.5447872 -0.004142803 -0.8385641
vn 0.9833848 0.05709891 0.1723194
vn -0.5531884 -0.07116711 -0.8300107
vn -0.5442266 -0.001466796 -0.838937
vn 0.0004889735 0.1155596 0.9933004
vn 0.001348335 0.1975731 0.9802873
vn -0.9796064 0.08065797 0.184026
vn -0.9830508 0.06209092 0.1724992
vn -0.5531884 -0.07116711 -0.8300107
vn -0.5442266 -0.001466796 -0.838937
vn -0.564219 -0.04639022 -0.8243209
vn -0.564219 -0.04639022 -0.8243209
vn -0.9749675 0.073375 0.2098913
vn -1.218199E-05 0.1540878 0.9880571
vn -0.983752 0.04735499 0.1731745
vn -0.5382632 0.1148216 -0.8349184
vn -0.5219285 0.3698399 -0.7686411
vn -0.9637947 0.2028095 0.1731129
vn -0.01100304 0.9555925 0.2944862
vn 0.001423773 0.03103142 0.9995173
vn 0.0017087 -0.0129833 0.9999143
vn 0.001423773 0.03103142 0.9995173
vn 0.9603646 0.217639 0.1741638
vn -0.01100304 0.9555925 0.2944862
vn 0.5203021 0.3764528 -0.7665305
vn -0.5219285 0.3698399 -0.7686411
vn 0.9835999 0.05148161 0.1728613
vn 0.5397955 0.1166857 -0.8336699
vn -0.5382632 0.1148216 -0.8349184
vn 0.956462 0.007617072 0.2917573
vn 0.753382 0.0173418 -0.6573544
vn 0.7559472 0.01867191 -0.6543662
vn 0.9593403 0 0.2822518
vn -0.0222084 0.006054132 -0.9997351
vn -0.01660819 0.01096575 -0.9998019
vn -0.7530669 0.02662284 -0.6574051
vn -0.749447 0.02876301 -0.6614392
vn -0.9581891 0.009852652 0.2859663
vn -0.9544998 0 0.2982115
vn -1.108385E-07 0 1
vn -1.662577E-07 0 1
vn -0.9581891 0.009852652 0.2859663
vn -0.9544998 0 0.2982115
vn 0 -1 0
vn 0 -1 0
vn 0 -1 0
vn 0 -1 0
vn 0 -1 0
vn 0 -1 0
vn 0 -1 0
vn 0 1 1.077157E-07
vn 0 1 0
vn 0 1 0
vn 0 1 0
vn 0 1 0
vn 0 1 0
vn 0 1 2.154314E-07
vn 0.9816713 0.0268975 0.1886744
vn 0.5620843 -0.006087265 -0.8270575
vn 0.9777685 0.02749572 0.2078762
vn 0.5490431 -0.006435032 -0.8357693
vn 5.034687E-05 0.05349752 0.9985679
vn 4.834737E-05 0.05349784 0.9985679
vn -0.9816789 0.02695185 0.1886268
vn -0.9777799 0.02743773 0.2078312
vn -0.549044 -0.006434923 -0.8357687
vn -0.5620832 -0.006086885 -0.8270583
vn 0.5620843 -0.006087265 -0.8270575
vn 0.5490431 -0.006435032 -0.8357693
vn 0.03655098 -0.9980956 -0.04969116
vn 0.03244618 -0.9994423 -0.007888987
vn 0.06109606 -0.9980875 0.009413491
vn -0.03667184 -0.9980775 -0.04996396
vn -0.002467354 -0.9999003 -0.0139002
vn -0.02513268 -0.7288068 0.6842579
vn -0.06108395 -0.9980863 0.009609446
vn -0.0001002577 -0.9981028 0.06156943
vn -0.01994033 0.9994321 -0.02715969
vn -0.001260025 0.9999697 -0.007683221
vn -0.01349859 0.7190812 0.694795
vn 0.01769433 0.9998343 -0.004286747
vn 0.01990304 0.9994355 -0.02706442
vn -0.03317962 0.9994358 0.005204239
vn 0.03328829 0.9994326 0.005128346
vn -6.388045E-05 0.9994385 0.03350515
vn -0.001260025 0.9999697 -0.007683221
vn -0.03317962 0.9994358 0.005204239
vn -0.01349859 0.7190812 0.694795
vn -0.06108395 -0.9980863 0.009609446
vn -0.002467354 -0.9999003 -0.0139002
vn -0.02513268 -0.7288068 0.6842579
g Area_Ly_Build_Common_Hili_House_04_Lod1_0
f 3/3/3 2/2/2 1/1/1
f 4/4/4 1/1/1 2/2/2
f 2/2/2 3/3/3 5/5/5
f 6/6/6 5/5/5 3/3/3
f 1/1/1 4/4/4 7/7/7
f 8/8/8 7/7/7 4/4/4
f 7/7/7 8/8/8 9/9/9
f 10/10/10 9/9/9 8/8/8
f 9/9/9 10/10/10 11/11/11
f 12/12/12 11/11/11 10/10/10
f 4/4/4 2/2/2 13/13/13
f 14/14/14 13/13/13 2/2/2
f 2/2/2 5/5/5 14/14/14
f 14/14/14 15/15/15 13/13/13
f 16/16/16 13/13/13 15/15/15
f 15/15/15 17/17/17 16/16/16
f 18/18/18 16/16/16 17/17/17
f 15/15/15 19/19/19 17/17/17
f 15/15/15 14/14/14 19/19/19
f 20/20/20 17/17/17 19/19/19
f 18/18/18 21/21/21 16/16/16
f 22/22/22 16/16/16 21/21/21
f 22/22/22 21/21/21 23/23/23
f 24/24/24 23/23/23 21/21/21
f 23/23/23 24/24/24 25/25/25
f 26/26/26 25/25/25 24/24/24
f 27/27/27 19/19/19 14/14/14
f 25/25/25 28/28/28 23/23/23
f 29/29/29 23/23/23 28/28/28
f 23/23/23 29/29/29 22/22/22
f 30/30/30 22/22/22 29/29/29
f 22/22/22 30/30/30 16/16/16
f 13/13/13 16/16/16 30/30/30
f 28/28/28 12/12/12 29/29/29
f 10/10/10 29/29/29 12/12/12
f 30/30/30 29/29/29 8/8/8
f 10/10/10 8/8/8 29/29/29
f 13/13/13 30/30/30 4/4/4
f 8/8/8 4/4/4 30/30/30
f 24/24/24 31/31/31 26/26/26
f 32/32/32 26/26/26 31/31/31
f 32/32/32 31/31/31 33/33/33
f 34/34/34 33/33/33 31/31/31
f 35/35/35 33/33/33 34/34/34
f 35/35/35 34/34/34 36/36/36
f 31/31/31 37/37/37 34/34/34
f 38/38/38 34/34/34 37/37/37
f 38/38/38 37/37/37 39/39/39
f 40/40/40 38/38/38 39/39/39
f 40/40/40 39/39/39 41/41/41
f 40/40/40 41/41/41 42/42/42
f 39/39/39 43/43/43 41/41/41
f 43/43/43 39/39/39 37/37/37
f 44/44/44 41/41/41 43/43/43
f 41/41/41 44/44/44 42/42/42
f 45/45/45 42/42/42 44/44/44
f 44/44/44 43/43/43 17/17/17
f 18/18/18 17/17/17 43/43/43
f 43/43/43 37/37/37 18/18/18
f 45/45/45 44/44/44 20/20/20
f 17/17/17 20/20/20 44/44/44
f 21/21/21 18/18/18 37/37/37
f 21/21/21 37/37/37 24/24/24
f 31/31/31 24/24/24 37/37/37
f 27/27/27 14/14/14 5/5/5
f 48/48/48 47/47/47 46/46/46
f 49/49/49 46/46/46 47/47/47
f 47/47/47 48/48/48 50/50/50
f 51/51/51 50/50/50 48/48/48
f 50/50/50 51/51/51 52/52/52
f 53/53/53 52/52/52 51/51/51
f 52/52/52 53/53/53 54/54/54
f 55/55/55 54/54/54 53/53/53
f 49/49/49 56/56/56 46/46/46
f 57/57/57 46/46/46 56/56/56
f 56/56/56 58/58/58 57/57/57
f 59/59/59 57/57/57 58/58/58
f 62/62/62 61/61/61 60/60/60
f 63/63/63 62/62/62 60/60/60
f 64/64/64 61/61/61 62/62/62
f 64/64/64 62/62/62 65/65/65
f 62/62/62 63/63/63 66/66/66
f 62/62/62 66/66/66 65/65/65
f 69/69/69 68/68/68 67/67/67
f 69/69/69 67/67/67 70/70/70
f 70/70/70 67/67/67 71/71/71
f 71/71/71 67/67/67 72/72/72
f 68/68/68 73/73/73 67/67/67
f 67/67/67 73/73/73 72/72/72
f 76/76/76 75/75/75 74/74/74
f 77/77/77 74/74/74 75/75/75
f 74/74/74 78/78/78 76/76/76
f 79/79/79 76/76/76 78/78/78
f 78/78/78 80/80/80 79/79/79
f 81/81/81 79/79/79 80/80/80
f 80/80/80 82/82/82 81/81/81
f 83/83/83 81/81/81 82/82/82
f 83/83/83 82/82/82 84/84/84
f 85/85/85 84/84/84 82/82/82
f 88/88/88 87/87/87 86/86/86
f 86/86/86 87/87/87 89/89/89
f 87/87/87 90/90/90 89/89/89
f 90/90/90 91/91/91 89/89/89
f 89/89/89 91/91/91 92/92/92
f 90/90/90 87/87/87 93/93/93
f 88/88/88 93/93/93 87/87/87
f 93/93/93 92/92/92 90/90/90
f 96/96/96 95/95/95 94/94/94
f 95/95/95 97/97/97 94/94/94
f 94/94/94 97/97/97 98/98/98
f 99/99/99 96/96/96 94/94/94
f 98/98/98 97/97/97 100/100/100
f 101/101/101 95/95/95 99/99/99
f 95/95/95 101/101/101 97/97/97
f 100/100/100 97/97/97 101/101/101
f 104/104/104 103/103/103 102/102/102
f 107/107/107 106/106/106 105/105/105
