g Area_Common_Build_Wall_I_02_Lod2
v 4.774858 5.133405 1.508056
v 5.02227 0.7686768 1.313681E-06
v 4.776464 0.7684911 1.551959
v 4.063111 0.7686131 2.952001
v 4.046273 4.544914 2.951746
v 2.952028 0.7688915 4.063092
v 2.938556 4.773381 4.078988
v 1.551971 0.7689207 4.77646
v 1.574303 4.830699 4.77574
v 0.05134583 4.297833 5.019344
v 3.462567E-07 0.7688279 5.022268
v -1.525407 3.21537 4.773138
v -1.55196 0.7687204 4.776463
v -3.915818 2.068029 3.700972
v -3.938626 0.7687203 3.693244
v -4.99496 2.068028 1.779107
v -5.014022 0.7687201 1.760326
v 4.79011 8.032102 -1.517696
v 4.776458 0.7686036 -1.551969
v 4.0881 7.393069 -2.904801
v 4.063114 0.7685402 -2.952016
v 2.964688 5.801018 -4.042763
v 2.952021 0.7689552 -4.063095
v 2.004978 4.675584 -4.545047
v 1.551967 0.7689504 -4.776464
v 1.565103 4.745691 -4.775265
v 0.02782013 5.089314 -5.021503
v 2.633023E-06 0.7689651 -5.022271
v -1.538313 4.402678 -4.774837
v -1.551963 0.7690432 -4.776464
v -2.952014 0.7691163 -4.063104
v -2.952999 4.053376 -4.062595
v -4.054226 3.902702 -2.975197
v -4.063103 0.7691163 -2.952016
v -5.118947 3.241032 -0.8411392
v -5.132917 0.768918 -0.8389397
v -4.99496 2.068028 1.779107
v -5.014022 0.7687201 1.760326
v 5.032187 9.498999 -0.02176365
v 4.903522 7.927446 1.19368
v 3.987062 0.7768945 -9.654046E-05
v 3.978627 9.497602 0.0458559
v 3.889716 7.925034 1.099858
v 3.778602 8.034676 -1.255903
v 3.791951 0.776836 -1.231976
v 3.21518 7.397409 -2.365194
v 3.225675 0.7767579 -2.343428
v 2.347261 5.979943 -3.238741
v 3.800806 5.129962 1.252794
v 2.343585 0.7771974 -3.225546
v 1.523608 4.824196 -3.643429
v 1.232115 0.7771876 -3.791882
v 1.228469 4.919953 -3.78844
v -0.002802734 5.08656 -3.986434
v 0.0001047096 0.7772023 -3.987045
v -1.235133 4.397424 -3.799937
v -1.232011 0.7772902 -3.791914
v -2.343525 0.7773634 -3.225578
v -2.343619 3.913415 -3.225117
v -3.226907 3.900158 -2.327649
v -3.225499 0.7773389 -2.34367
v -4.23782 3.238278 -0.7066054
v -4.228566 0.7771457 -0.7141046
v -4.060024 2.065065 1.400627
v -4.042925 0.7769526 1.401649
v 3.225557 0.7768602 2.343546
v 3.245631 4.544563 2.352958
v 3.791969 0.7767138 1.231906
v 2.343454 0.7771239 3.225643
v 2.345901 4.770104 3.215336
v 1.232174 0.7771531 3.791873
v 1.217154 4.82735 3.788562
v -0.02222031 4.303048 3.986465
v 0.0002746539 0.7770213 3.987088
v -1.243192 3.212407 3.804785
v -1.231796 0.776953 3.791997
v -3.307243 2.065065 3.027556
v -3.292995 0.7769528 3.021673
v -4.042925 0.7769526 1.401649
v -4.060024 2.065065 1.400627
v 5.02227 0.7686768 1.313681E-06
v 3.791969 0.7767138 1.231906
v 4.776464 0.7684911 1.551959
v 3.987062 0.7768945 -9.654046E-05
v 4.776458 0.7686036 -1.551969
v 3.791951 0.776836 -1.231976
v 3.225557 0.7768602 2.343546
v 4.063111 0.7686131 2.952001
v 2.343454 0.7771239 3.225643
v 2.952028 0.7688915 4.063092
v 1.232174 0.7771531 3.791873
v 1.551971 0.7689207 4.77646
v 0.0002746539 0.7770213 3.987088
v 3.462567E-07 0.7688279 5.022268
v -1.231796 0.776953 3.791997
v -1.55196 0.7687204 4.776463
v 4.063114 0.7685402 -2.952016
v 3.225675 0.7767579 -2.343428
v 2.952021 0.7689552 -4.063095
v 2.343585 0.7771974 -3.225546
v 1.551967 0.7689504 -4.776464
v 1.232115 0.7771876 -3.791882
v 2.633023E-06 0.7689651 -5.022271
v 0.0001047096 0.7772023 -3.987045
v -1.551963 0.7690432 -4.776464
v -1.232011 0.7772902 -3.791914
v -2.952014 0.7691163 -4.063104
v -2.343525 0.7773634 -3.225578
v -4.063103 0.7691163 -2.952016
v -3.225499 0.7773389 -2.34367
v -3.938626 0.7687203 3.693244
v -5.132917 0.768918 -0.8389397
v -4.228566 0.7771457 -0.7141046
v -4.042925 0.7769526 1.401649
v -5.014022 0.7687201 1.760326
v -3.292995 0.7769528 3.021673
v -4.042925 0.7769526 1.401649
v -5.014022 0.7687201 1.760326
v 3.800806 5.129962 1.252794
v 4.903522 7.927446 1.19368
v 4.774858 5.133405 1.508056
v 3.889716 7.925034 1.099858
v 3.978627 9.497602 0.0458559
v 5.032187 9.498999 -0.02176365
v 5.032187 9.498999 -0.02176365
v 3.778602 8.034676 -1.255903
v 4.79011 8.032102 -1.517696
v 3.978627 9.497602 0.0458559
v 3.21518 7.397409 -2.365194
v 4.0881 7.393069 -2.904801
v 2.347261 5.979943 -3.238741
v 2.964688 5.801018 -4.042763
v 1.523608 4.824196 -3.643429
v 2.004978 4.675584 -4.545047
v -2.952999 4.053376 -4.062595
v -3.226907 3.900158 -2.327649
v -4.054226 3.902702 -2.975197
v -2.343619 3.913415 -3.225117
v -1.538313 4.402678 -4.774837
v -1.235133 4.397424 -3.799937
v 0.02782013 5.089314 -5.021503
v -0.002802734 5.08656 -3.986434
v 1.565103 4.745691 -4.775265
v 1.228469 4.919953 -3.78844
v 2.004978 4.675584 -4.545047
v 1.523608 4.824196 -3.643429
v -5.118947 3.241032 -0.8411392
v -4.23782 3.238278 -0.7066054
v -4.060024 2.065065 1.400627
v -4.99496 2.068028 1.779107
v 4.046273 4.544914 2.951746
v 3.800806 5.129962 1.252794
v 4.774858 5.133405 1.508056
v 3.245631 4.544563 2.352958
v 2.938556 4.773381 4.078988
v 2.345901 4.770104 3.215336
v 1.574303 4.830699 4.77574
v 1.217154 4.82735 3.788562
v 0.05134583 4.297833 5.019344
v -0.02222031 4.303048 3.986465
v -1.525407 3.21537 4.773138
v -1.243192 3.212407 3.804785
v -3.915818 2.068029 3.700972
v -3.307243 2.065065 3.027556
v -4.060024 2.065065 1.400627
v -4.99496 2.068028 1.779107
vt 1.392595 0.6851863
vt 1.379951 0.7126945
vt 1.391625 0.7132128
vt 1.403429 0.7135295
vt 1.403877 0.6892736
vt 1.414912 0.7135239
vt 1.41508 0.6877953
vt 1.426012 0.7135552
vt 1.426008 0.687458
vt 1.436745 0.690953
vt 1.436961 0.7136282
vt 1.44752 0.6979303
vt 1.447797 0.7136478
vt 1.464787 0.7049876
vt 1.465133 0.7133298
vt 1.479058 0.7045203
vt 1.479495 0.7128587
vt 1.36895 0.6660747
vt 1.368716 0.7127426
vt 1.357335 0.6702058
vt 1.357097 0.7127948
vt 1.345786 0.6806862
vt 1.345477 0.7130425
vt 1.337658 0.6880786
vt 1.333864 0.7132068
vt 1.333419 0.6876706
vt 1.322482 0.6856147
vt 1.322471 0.7133729
vt 1.311581 0.690028
vt 1.311195 0.7133693
vt 1.300035 0.7130738
vt 1.300871 0.6919912
vt 1.29059 0.692375
vt 1.289088 0.712451
vt 1.274819 0.6953374
vt 1.273341 0.7111512
vt 1.257234 0.7010839
vt 1.256506 0.7094017
vt 1.380697 0.656648
vt 1.390111 0.6671253
vt 1.358652 0.7120745
vt 1.358385 0.6598327
vt 1.352053 0.6692514
vt 1.366279 0.6685974
vt 1.36612 0.7120756
vt 1.373733 0.6724157
vt 1.373593 0.712077
vt 1.381107 0.6809077
vt 1.351068 0.6859962
vt 1.381068 0.7120752
vt 1.386598 0.6878359
vt 1.388543 0.7120811
vt 1.388567 0.687264
vt 1.396035 0.6862672
vt 1.396018 0.7120824
vt 1.4035 0.6903948
vt 1.403494 0.7120814
vt 1.410971 0.7120839
vt 1.410976 0.6932973
vt 1.418521 0.693377
vt 1.418441 0.7120843
vt 1.429962 0.6973422
vt 1.429909 0.7120855
vt 1.442624 0.7043702
vt 1.442638 0.7120872
vt 1.343681 0.712073
vt 1.343701 0.6895022
vt 1.351169 0.7120742
vt 1.336192 0.7120742
vt 1.336251 0.6881543
vt 1.328704 0.7120631
vt 1.328683 0.6878002
vt 1.32117 0.6909155
vt 1.321217 0.7120385
vt 1.313756 0.6974133
vt 1.313732 0.7120033
vt 1.300522 0.704221
vt 1.300539 0.711938
vt 1.289838 0.7119379
vt 1.28979 0.7042209
vt 1.894639 0.9647831
vt 1.910763 0.9824644
vt 1.910763 0.9647831
vt 1.894639 0.9824644
vt 1.878538 0.9647831
vt 1.878538 0.9824644
vt 1.926751 0.9824644
vt 1.926751 0.9647831
vt 1.942563 0.9824644
vt 1.942563 0.9647831
vt 1.95836 0.9824644
vt 1.95836 0.9647831
vt 1.974362 0.9824644
vt 1.974362 0.9647831
vt 1.992399 0.9824644
vt 1.992399 0.9647831
vt 1.862416 0.9647831
vt 1.862416 0.9824644
vt 1.846132 0.9647831
vt 1.846132 0.9824644
vt 1.829371 0.9647831
vt 1.829371 0.9824644
vt 1.812405 0.9647831
vt 1.812405 0.9824644
vt 1.795217 0.9647831
vt 1.795217 0.9824644
vt 1.778153 0.9647831
vt 1.778153 0.9824644
vt 1.76204 0.9647831
vt 1.76204 0.9824644
vt 1.992399 0.9647831
vt 1.76204 0.9647831
vt 1.76204 0.9824644
vt 1.76204 0.9824644
vt 1.76204 0.9647831
vt 1.992399 0.9824644
vt 1.992399 0.9824644
vt 1.992399 0.9647831
vt 1.911014 0.9643685
vt 1.891579 0.9730765
vt 1.911014 0.9730765
vt 1.891579 0.9643685
vt 1.87471 0.9643685
vt 1.87471 0.9730765
vt 1.87471 0.9730765
vt 1.857437 0.9643685
vt 1.857437 0.9730765
vt 1.87471 0.9643685
vt 1.842098 0.9643685
vt 1.842098 0.9730765
vt 1.826512 0.9643685
vt 1.826512 0.9730765
vt 1.810167 0.9643685
vt 1.810167 0.9730765
vt 1.7672 0.9730765
vt 1.754715 0.9643685
vt 1.754715 0.9730765
vt 1.7672 0.9643685
vt 1.7806 0.9730765
vt 1.7806 0.9643685
vt 1.793887 0.9730765
vt 1.793887 0.9643685
vt 1.801727 0.9730765
vt 1.801727 0.9643685
vt 1.810167 0.9730765
vt 1.810167 0.9643685
vt 1.739347 0.9730765
vt 1.739347 0.9643685
vt 1.71719 0.9643685
vt 1.71719 0.9730765
vt 1.923696 0.9730765
vt 1.911014 0.9643685
vt 1.911014 0.9730765
vt 1.923696 0.9643685
vt 1.935689 0.9730765
vt 1.935689 0.9643685
vt 1.948151 0.9730765
vt 1.948151 0.9643685
vt 1.962386 0.9730765
vt 1.962386 0.9643685
vt 1.982081 0.9730765
vt 1.982081 0.9643685
vt 2.002628 0.9730765
vt 2.002628 0.9643685
vt 2.018322 0.9643685
vt 2.018322 0.9730765
vn 0.9592227 -0.01154976 0.2824152
vn 0.9999993 -0.0009902614 0.0007628885
vn 0.9507594 0.003466837 0.3099106
vn 0.8093296 0.003997974 0.5873411
vn 0.816677 0.002350951 0.5770902
vn 0.5890888 0.0001532918 0.8080682
vn 0.5832837 -0.001401401 0.8122672
vn 0.3088309 -0.001692042 0.9511154
vn 0.3267792 -0.001629199 0.9450992
vn 0.05355977 0.0004627696 0.9985645
vn -0.00143928 0.000831952 0.9999987
vn -0.2464746 0.004018433 0.9691409
vn -0.2876165 0.003844313 0.957738
vn -0.6451026 0.007790456 0.7640561
vn -0.6791584 0.006359242 0.7339642
vn -0.9681461 0.009528104 0.2502042
vn -0.9626157 0.01021018 0.2706783
vn 0.9658942 -0.0008429224 -0.2589353
vn 0.9509572 -0.0005847574 -0.3093218
vn 0.8487623 0.0009500175 -0.5287738
vn 0.8087922 0.0006095908 -0.5880943
vn 0.6547832 0.002258102 -0.7558133
vn 0.5880231 0.0008111884 -0.8088437
vn 0.4615518 0.000774714 -0.8871129
vn 0.3093021 -0.0003427762 -0.9509637
vn 0.298002 -0.00069656 -0.9545649
vn 0.01369901 0.0003407136 -0.9999062
vn -0.0005921006 0.0001241322 -0.9999999
vn -0.2788457 0.0009532183 -0.9603354
vn -0.3093364 0.001588138 -0.9509513
vn -0.5864969 -0.0003840936 -0.8099513
vn -0.5708951 -4.406341E-05 -0.821023
vn -0.7974394 -0.0008949931 -0.6033984
vn -0.8110402 -0.0006085719 -0.5849901
vn -0.964076 0.003192413 -0.265607
vn -0.9780777 0.006601931 -0.2081359
vn -0.9681461 0.009528104 0.2502042
vn -0.9626157 0.01021018 0.2706783
vn 0.9991798 -0.0012359 -0.04047538
vn 0.9931545 -0.002996438 0.1167697
vn -0.9999983 0.001248441 0.001396508
vn -0.9989142 -0.001211555 0.04657031
vn -0.9954489 0.001106946 -0.09529041
vn -0.9681015 -0.001248297 0.2505555
vn -0.9511942 -0.0006332378 0.3085922
vn -0.8522128 0.0002182982 0.5231955
vn -0.8094474 0.001115536 0.5871913
vn -0.6583656 0.001589689 0.7526966
vn -0.9614936 0.01465945 -0.2744362
vn -0.5872333 0.001354718 0.8094166
vn -0.4435366 0.0008798688 0.8962558
vn -0.3089497 -0.0002108969 0.9510784
vn -0.2834529 -0.001046218 0.9589856
vn -0.02752207 -0.0004931962 0.999621
vn -0.000813427 0.0007988397 0.9999994
vn 0.2668482 0.0004284622 0.9637384
vn 0.3089879 0.002374106 0.951063
vn 0.5891618 -0.0003442623 0.808015
vn 0.5799439 -0.0001023245 0.8146564
vn 0.7767064 -0.001515025 0.6298609
vn 0.7838376 -0.0016955 0.6209636
vn 0.946418 0.0008600562 0.322943
vn 0.9725777 0.004619142 0.2325325
vn 0.9726607 0.01004036 -0.2320139
vn 0.9660702 0.01266872 -0.2579685
vn -0.809295 0.004989048 -0.5873813
vn -0.8130402 0.003117721 -0.5821993
vn -0.9511759 0.00341167 -0.3086305
vn -0.5859091 0.001055388 -0.8103761
vn -0.5699967 -0.001941146 -0.8216447
vn -0.3093101 -0.001680389 -0.9509597
vn -0.3277594 -0.001987972 -0.9447591
vn -0.06557968 -0.0007188385 -0.9978471
vn -0.002183079 0.001605995 -0.9999963
vn 0.2144046 0.003368472 -0.9767392
vn 0.2540172 0.006535963 -0.9671776
vn 0.6394094 0.01006091 -0.7688006
vn 0.6788418 0.01086229 -0.7342042
vn 0.9660702 0.01266872 -0.2579685
vn 0.9726607 0.01004036 -0.2320139
vn -0.00793093 -0.9999685 -4.263429E-05
vn -0.007559704 -0.9999684 -0.002460455
vn -0.007560652 -0.9999684 -0.002468264
vn -0.007937933 -0.9999685 -4.949505E-05
vn -0.00754944 -0.9999684 0.002499355
vn -0.007542619 -0.9999684 0.002500314
vn -0.006525129 -0.9999684 -0.004553164
vn -0.006532787 -0.9999682 -0.004576784
vn -0.004754551 -0.9999685 -0.006363288
vn -0.004756061 -0.9999684 -0.006375439
vn -0.0024161 -0.9999684 -0.007574931
vn -0.002423547 -0.9999685 -0.007560995
vn 6.363526E-05 -0.9999686 -0.00792741
vn 6.135794E-05 -0.9999686 -0.007918434
vn 0.002285357 -0.9999671 -0.007783098
vn 0.002332041 -0.9999684 -0.007603715
vn -0.006490103 -0.9999685 0.004581928
vn -0.006508934 -0.9999683 0.004587379
vn -0.004789745 -0.9999685 0.006331818
vn -0.004821533 -0.9999683 0.006336332
vn -0.002461045 -0.9999684 0.007567787
vn -0.002460126 -0.9999684 0.007567519
vn -3.045058E-05 -0.9999684 0.007955991
vn -3.424467E-05 -0.9999683 0.007962435
vn 0.002408859 -0.9999683 0.007587467
vn 0.002404619 -0.9999683 0.007598241
vn 0.004659024 -0.9999683 0.006457672
vn 0.004657362 -0.9999683 0.006456322
vn 0.006463089 -0.9999684 0.004625942
vn 0.006566244 -0.999967 0.004797788
vn 0.005732253 -0.9999645 -0.00617595
vn 0.00849889 -0.9999624 0.001730563
vn 0.008790345 -0.9999589 0.00222533
vn 0.007975484 -0.9999659 -0.002146346
vn 0.007633828 -0.9999683 -0.002283732
vn 0.005964054 -0.9999609 -0.006524392
vn 0.007975484 -0.9999659 -0.002146346
vn 0.007633828 -0.9999683 -0.002283732
vn -0.2171534 0.1061024 0.970354
vn -0.08484419 0.3399468 0.9366097
vn -0.2520768 0.1196557 0.9602811
vn -0.08814862 0.3168885 0.9443578
vn 0.0121133 0.5947487 0.8038204
vn 0.05002648 0.6084503 0.7920136
vn -0.08784626 0.6848578 -0.7233621
vn -0.1268006 0.8076072 -0.5759272
vn -0.1637645 0.8178654 -0.5516135
vn -0.0485639 0.6676708 -0.7428709
vn -0.2939853 0.7973917 -0.5270096
vn -0.3159879 0.8201368 -0.4769981
vn -0.5077454 0.6521249 -0.5629633
vn -0.5294345 0.6711734 -0.5188694
vn -0.5795344 0.6589418 -0.479516
vn -0.5855191 0.6895417 -0.4262622
vn -0.0470529 0.9843681 0.1697214
vn -0.07378639 0.9833613 0.1660005
vn -0.1113061 0.9829928 0.1460691
vn -0.05258576 0.9870587 0.1514921
vn -0.3177057 0.9366633 0.1473934
vn -0.3835852 0.9184927 0.09609045
vn -0.1172938 0.9927256 0.02716529
vn -0.1605504 0.9866623 -0.0268511
vn 0.1950398 0.9773036 -0.08268777
vn 0.2141573 0.97396 -0.07442253
vn 0.2280614 0.9704069 -0.07936229
vn 0.3057885 0.9520785 0.006329049
vn -0.04909647 0.918204 0.3930532
vn -0.06100272 0.9063562 0.4180874
vn 0.06809625 0.9719179 0.225252
vn 0.07964563 0.9787263 0.1890805
vn -0.05359978 0.9917863 0.1161331
vn -0.1468553 0.928534 0.3409666
vn -0.09136821 0.9374167 0.3360085
vn -0.07962161 0.9891672 0.1233234
vn 0.07428333 0.9950551 -0.06593392
vn 0.09103317 0.9938115 -0.06365274
vn -0.1373197 0.9895478 0.04402524
vn -0.1547193 0.9873909 0.0334821
vn -0.462443 0.8849145 0.05543257
vn -0.4961437 0.8682356 0.00287201
vn -0.5085235 0.85378 -0.1116407
vn -0.5183226 0.837306 -0.173955
vn -0.1917877 0.9708903 -0.1434902
vn -0.1812117 0.9689835 -0.1680278
vn 0.06809625 0.9719179 0.225252
vn 0.07964563 0.9787263 0.1890805
g Area_Common_Build_Wall_I_02_Lod2_0
f 3/3/3 2/2/2 1/1/1
f 3/3/3 1/1/1 4/4/4
f 5/5/5 4/4/4 1/1/1
f 4/4/4 5/5/5 6/6/6
f 7/7/7 6/6/6 5/5/5
f 6/6/6 7/7/7 8/8/8
f 9/9/9 8/8/8 7/7/7
f 9/9/9 10/10/10 8/8/8
f 11/11/11 8/8/8 10/10/10
f 10/10/10 12/12/12 11/11/11
f 13/13/13 11/11/11 12/12/12
f 12/12/12 14/14/14 13/13/13
f 15/15/15 13/13/13 14/14/14
f 14/14/14 16/16/16 15/15/15
f 17/17/17 15/15/15 16/16/16
f 19/19/19 18/18/18 2/2/2
f 18/18/18 19/19/19 20/20/20
f 21/21/21 20/20/20 19/19/19
f 20/20/20 21/21/21 22/22/22
f 22/22/22 21/21/21 23/23/23
f 22/22/22 23/23/23 24/24/24
f 23/23/23 25/25/25 24/24/24
f 24/24/24 25/25/25 26/26/26
f 26/26/26 25/25/25 27/27/27
f 28/28/28 27/27/27 25/25/25
f 27/27/27 28/28/28 29/29/29
f 30/30/30 29/29/29 28/28/28
f 30/30/30 31/31/31 29/29/29
f 32/32/32 29/29/29 31/31/31
f 32/32/32 31/31/31 33/33/33
f 34/34/34 33/33/33 31/31/31
f 33/33/33 34/34/34 35/35/35
f 36/36/36 35/35/35 34/34/34
f 35/35/35 36/36/36 37/37/37
f 38/38/38 37/37/37 36/36/36
f 39/39/39 2/2/2 18/18/18
f 39/39/39 40/40/40 2/2/2
f 40/40/40 1/1/1 2/2/2
f 43/43/43 42/42/42 41/41/41
f 42/42/42 44/44/44 41/41/41
f 45/45/45 41/41/41 44/44/44
f 44/44/44 46/46/46 45/45/45
f 47/47/47 45/45/45 46/46/46
f 48/48/48 47/47/47 46/46/46
f 49/49/49 43/43/43 41/41/41
f 50/50/50 47/47/47 48/48/48
f 48/48/48 51/51/51 50/50/50
f 51/51/51 52/52/52 50/50/50
f 53/53/53 52/52/52 51/51/51
f 53/53/53 54/54/54 52/52/52
f 55/55/55 52/52/52 54/54/54
f 54/54/54 56/56/56 55/55/55
f 57/57/57 55/55/55 56/56/56
f 57/57/57 56/56/56 58/58/58
f 59/59/59 58/58/58 56/56/56
f 59/59/59 60/60/60 58/58/58
f 61/61/61 58/58/58 60/60/60
f 60/60/60 62/62/62 61/61/61
f 63/63/63 61/61/61 62/62/62
f 62/62/62 64/64/64 63/63/63
f 65/65/65 63/63/63 64/64/64
f 67/67/67 49/49/49 66/66/66
f 68/68/68 66/66/66 49/49/49
f 66/66/66 69/69/69 67/67/67
f 70/70/70 67/67/67 69/69/69
f 69/69/69 71/71/71 70/70/70
f 72/72/72 70/70/70 71/71/71
f 72/72/72 71/71/71 73/73/73
f 74/74/74 73/73/73 71/71/71
f 73/73/73 74/74/74 75/75/75
f 76/76/76 75/75/75 74/74/74
f 75/75/75 76/76/76 77/77/77
f 78/78/78 77/77/77 76/76/76
f 78/78/78 79/79/79 77/77/77
f 80/80/80 77/77/77 79/79/79
f 68/68/68 49/49/49 41/41/41
f 83/83/83 82/82/82 81/81/81
f 84/84/84 81/81/81 82/82/82
f 81/81/81 84/84/84 85/85/85
f 86/86/86 85/85/85 84/84/84
f 82/82/82 83/83/83 87/87/87
f 88/88/88 87/87/87 83/83/83
f 87/87/87 88/88/88 89/89/89
f 90/90/90 89/89/89 88/88/88
f 89/89/89 90/90/90 91/91/91
f 92/92/92 91/91/91 90/90/90
f 91/91/91 92/92/92 93/93/93
f 94/94/94 93/93/93 92/92/92
f 93/93/93 94/94/94 95/95/95
f 96/96/96 95/95/95 94/94/94
f 85/85/85 86/86/86 97/97/97
f 98/98/98 97/97/97 86/86/86
f 97/97/97 98/98/98 99/99/99
f 100/100/100 99/99/99 98/98/98
f 99/99/99 100/100/100 101/101/101
f 102/102/102 101/101/101 100/100/100
f 101/101/101 102/102/102 103/103/103
f 104/104/104 103/103/103 102/102/102
f 103/103/103 104/104/104 105/105/105
f 106/106/106 105/105/105 104/104/104
f 105/105/105 106/106/106 107/107/107
f 108/108/108 107/107/107 106/106/106
f 107/107/107 108/108/108 109/109/109
f 110/110/110 109/109/109 108/108/108
f 96/96/96 111/111/111 95/95/95
f 109/109/109 110/110/110 112/112/112
f 113/113/113 112/112/112 110/110/110
f 113/113/113 114/114/114 112/112/112
f 115/115/115 112/112/112 114/114/114
f 116/116/116 95/95/95 111/111/111
f 116/116/116 111/111/111 117/117/117
f 118/118/118 117/117/117 111/111/111
f 121/121/121 120/120/120 119/119/119
f 122/122/122 119/119/119 120/120/120
f 122/122/122 120/120/120 123/123/123
f 124/124/124 123/123/123 120/120/120
f 127/127/127 126/126/126 125/125/125
f 128/128/128 125/125/125 126/126/126
f 126/126/126 127/127/127 129/129/129
f 130/130/130 129/129/129 127/127/127
f 129/129/129 130/130/130 131/131/131
f 132/132/132 131/131/131 130/130/130
f 131/131/131 132/132/132 133/133/133
f 134/134/134 133/133/133 132/132/132
f 137/137/137 136/136/136 135/135/135
f 138/138/138 135/135/135 136/136/136
f 135/135/135 138/138/138 139/139/139
f 140/140/140 139/139/139 138/138/138
f 139/139/139 140/140/140 141/141/141
f 142/142/142 141/141/141 140/140/140
f 141/141/141 142/142/142 143/143/143
f 144/144/144 143/143/143 142/142/142
f 143/143/143 144/144/144 145/145/145
f 146/146/146 145/145/145 144/144/144
f 137/137/137 147/147/147 136/136/136
f 148/148/148 136/136/136 147/147/147
f 148/148/148 147/147/147 149/149/149
f 150/150/150 149/149/149 147/147/147
f 153/153/153 152/152/152 151/151/151
f 154/154/154 151/151/151 152/152/152
f 151/151/151 154/154/154 155/155/155
f 156/156/156 155/155/155 154/154/154
f 155/155/155 156/156/156 157/157/157
f 158/158/158 157/157/157 156/156/156
f 157/157/157 158/158/158 159/159/159
f 160/160/160 159/159/159 158/158/158
f 159/159/159 160/160/160 161/161/161
f 162/162/162 161/161/161 160/160/160
f 161/161/161 162/162/162 163/163/163
f 164/164/164 163/163/163 162/162/162
f 164/164/164 165/165/165 163/163/163
f 166/166/166 163/163/163 165/165/165
