g Area_LY_Build_Common_Pillar_01_A_Lod2
v 0.5690781 3.622535 0.5800853
v 0.5690787 5.797888 -0.5819627
v 0.5690807 3.622519 -0.5819606
v 0.5690789 5.797854 0.580085
v -0.5856324 5.797854 -0.581966
v -0.5856342 3.62255 0.5800792
v -0.5856315 3.622489 -0.581965
v -0.5856323 5.797889 0.5800811
v 0.5690787 5.797888 -0.5819627
v -0.5856315 3.622489 -0.581965
v 0.5690807 3.622519 -0.5819606
v -0.5856324 5.797854 -0.581966
v -0.5856324 5.797854 -0.581966
v -0.5856302 7.978667 0.5800809
v -0.5856323 5.797889 0.5800811
v -0.5856315 7.978711 -0.581965
v -0.5856342 3.62255 0.5800792
v 0.5690789 5.797854 0.580085
v 0.5690781 3.622535 0.5800853
v -0.5856323 5.797889 0.5800811
v 1.00713 5.771863E-05 -1.008651
v -1.007125 5.769339E-05 -1.008651
v -1.00713 5.763046E-05 1.008651
v 1.007125 5.760522E-05 1.008652
v -1.907349E-08 1.452899 1.016552E-07
v -1.036227 1.4529 -1.039152
v 1.036233 1.4529 -1.039152
v -1.907349E-08 1.452899 1.016552E-07
v 1.036227 1.4529 1.039152
v -1.036233 1.4529 1.039152
v -0.5856323 5.797889 0.5800811
v 0.5690795 7.978712 0.5800847
v 0.5690789 5.797854 0.580085
v -0.5856302 7.978667 0.5800809
v 1.036233 1.4529 -1.039152
v 0.7864628 0.6245169 0.7876551
v 1.036227 1.4529 1.039152
v 0.7864674 0.624517 -0.7876547
v 1.00713 5.771863E-05 -1.008651
v 1.007125 5.760522E-05 1.008652
v -1.036233 1.4529 1.039152
v -0.786463 0.624517 -0.787655
v -1.036227 1.4529 -1.039152
v -0.7864674 0.6245169 0.7876547
v -1.00713 5.763046E-05 1.008651
v -1.007125 5.769339E-05 -1.008651
v -0.8389902 7.961015 -0.839381
v 0.83899 7.961015 0.8393838
v 0.8389902 7.961014 -0.8393798
v -0.8389902 7.961014 0.8393825
v -0.8389902 8.26535 -0.8393809
v 0.8389902 8.26535 -0.8393798
v -0.8389902 8.26535 0.8393824
v 0.83899 8.26535 0.8393838
v -0.5856324 5.797854 -0.581966
v 0.5690782 7.978667 -0.5819622
v -0.5856315 7.978711 -0.581965
v 0.5690787 5.797888 -0.5819627
v 0.5690789 5.797854 0.580085
v 0.5690782 7.978667 -0.5819622
v 0.5690787 5.797888 -0.5819627
v 0.5690795 7.978712 0.5800847
v 1.036227 1.4529 1.039152
v -1.907349E-08 1.452899 1.016552E-07
v 1.036233 1.4529 -1.039152
v -1.036227 1.4529 -1.039152
v -1.907349E-08 1.452899 1.016552E-07
v -1.036233 1.4529 1.039152
v 0.7864628 0.6245169 0.7876551
v -1.036233 1.4529 1.039152
v 1.036227 1.4529 1.039152
v -0.7864674 0.6245169 0.7876547
v 1.007125 5.760522E-05 1.008652
v -1.00713 5.763046E-05 1.008651
v -0.786463 0.624517 -0.787655
v 1.036233 1.4529 -1.039152
v -1.036227 1.4529 -1.039152
v 0.7864674 0.624517 -0.7876547
v -1.007125 5.769339E-05 -1.008651
v 1.00713 5.771863E-05 -1.008651
v -0.8389902 8.26535 0.8393824
v -0.8389902 7.961015 -0.839381
v -0.8389902 8.26535 -0.8393809
v -0.8389902 7.961014 0.8393825
v 0.83899 7.961015 0.8393838
v -0.8389902 8.26535 0.8393824
v 0.83899 8.26535 0.8393838
v -0.8389902 7.961014 0.8393825
v -0.8389902 7.961015 -0.839381
v 0.8389902 8.26535 -0.8393798
v -0.8389902 8.26535 -0.8393809
v 0.8389902 7.961014 -0.8393798
v 0.8389902 8.26535 -0.8393798
v 0.83899 7.961015 0.8393838
v 0.83899 8.26535 0.8393838
v 0.8389902 7.961014 -0.8393798
v 0.7940009 8.259347 0.5754992
v 1.538875 10.08611 -1.312077
v 0.7939996 8.259341 -0.5754925
v 1.538876 10.08611 1.312083
v 1.330143 10.08611 1.520808
v -0.5574292 8.259343 0.7759356
v -1.294015 10.08611 1.520809
v 0.5935602 8.259344 0.7771095
v -0.7578681 8.259342 0.5754941
v -1.500445 10.08611 -1.299766
v -1.502741 10.08611 1.312081
v -0.7578668 8.259347 -0.5754965
v 1.330148 10.08611 -1.520806
v -0.5574268 8.259342 -0.7759326
v 0.593562 8.259343 -0.775933
v -1.292862 10.08611 -1.514647
v 0.5690773 1.411671 0.5800856
v 0.5690807 3.622519 -0.5819606
v 0.5690827 1.411608 -0.5819585
v 0.5690781 3.622535 0.5800853
v -0.5856306 1.411581 -0.581964
v -0.5856342 3.62255 0.5800792
v -0.5856361 1.411669 0.5800774
v -0.5856315 3.622489 -0.581965
v 0.5690827 1.411608 -0.5819585
v -0.5856315 3.622489 -0.581965
v -0.5856306 1.411581 -0.581964
v 0.5690807 3.622519 -0.5819606
v -0.5856361 1.411669 0.5800774
v 0.5690781 3.622535 0.5800853
v 0.5690773 1.411671 0.5800856
v -0.5856342 3.62255 0.5800792
v -0.5574292 8.259343 0.7759365
v -1.502741 10.08611 1.312082
v -1.294015 10.08611 1.52081
v -0.7578681 8.259342 0.575495
v 1.538876 10.08611 1.312084
v 0.5935602 8.259344 0.7771105
v 1.330143 10.08611 1.520809
v 0.7940009 8.259347 0.5755002
v -0.5574268 8.259342 -0.7759316
v -1.500445 10.08611 -1.299764
v -0.7578668 8.259347 -0.5754955
v -1.292862 10.08611 -1.514646
v 0.593562 8.259343 -0.775932
v 1.538875 10.08611 -1.312076
v 1.330148 10.08611 -1.520804
v 0.7939996 8.259341 -0.5754915
v 1.330143 10.24312 1.520809
v -1.502741 10.24312 1.312082
v 1.538876 10.24312 1.312084
v -1.294015 10.24312 1.52081
v 1.538875 10.24312 -1.312076
v -1.292862 10.24312 -1.514646
v 1.538875 10.24312 -1.312076
v -1.500445 10.24312 -1.299764
v 1.330148 10.24312 -1.520804
v -1.502741 10.24312 1.312082
v 1.330143 10.08611 1.520809
v 1.538876 10.24312 1.312084
v 1.538876 10.08611 1.312084
v 1.330143 10.24312 1.520809
v 1.538876 10.08611 1.312084
v 1.538875 10.24312 -1.312076
v 1.538875 10.08611 -1.312076
v 1.538876 10.24312 1.312084
v 1.538875 10.08611 -1.312076
v 1.330148 10.24312 -1.520804
v 1.330148 10.08611 -1.520804
v 1.538875 10.24312 -1.312076
v 1.330148 10.08611 -1.520804
v -1.292862 10.24312 -1.514646
v -1.292862 10.08611 -1.514646
v 1.330148 10.24312 -1.520804
v -1.292862 10.08611 -1.514646
v -1.500445 10.24312 -1.299764
v -1.500445 10.08611 -1.299764
v -1.292862 10.24312 -1.514646
v -1.500445 10.08611 -1.299764
v -1.502741 10.24312 1.312082
v -1.502741 10.08611 1.312082
v -1.500445 10.24312 -1.299764
v -1.502741 10.08611 1.312082
v -1.294015 10.24312 1.52081
v -1.294015 10.08611 1.52081
v -1.502741 10.24312 1.312082
v -1.294015 10.08611 1.52081
v 1.330143 10.24312 1.520809
v 1.330143 10.08611 1.520809
v -1.294015 10.24312 1.52081
vt 0.7516773 0.04573698
vt 0.7680478 0.01535096
vt 0.7680478 0.04573698
vt 0.7516773 0.01535096
vt 0.7516773 0.01535096
vt 0.7680478 0.04573698
vt 0.7516773 0.04573698
vt 0.7680478 0.01535096
vt 0.7680478 0.01535096
vt 0.7873217 0.04573698
vt 0.7680478 0.04573698
vt 0.7873217 0.01535096
vt 0.7516773 0.01535096
vt 0.7680478 0.04573698
vt 0.7680478 0.01535096
vt 0.7516773 0.04573698
vt 0.7680478 0.04573698
vt 0.7873217 0.01535096
vt 0.7873217 0.04573698
vt 0.7680478 0.01535096
vt 0.7673789 0.08847389
vt 0.7674479 0.07347218
vt 0.7524235 0.07340292
vt 0.7523544 0.08840463
vt 0.7972432 0.1238814
vt 0.8074881 0.1202917
vt 0.7870219 0.1202917
vt 0.767054 0.1238814
vt 0.7779717 0.1202917
vt 0.756141 0.1202917
vt 0.7680478 0.01535096
vt 0.7873217 0.04573698
vt 0.7873217 0.01535096
vt 0.7680478 0.04573698
vt 0.8074936 0.1202917
vt 0.7868482 0.1050834
vt 0.7870219 0.1202917
vt 0.8077808 0.1050834
vt 0.8107584 0.09119006
vt 0.7839527 0.09119006
vt 0.7779717 0.1202917
vt 0.7557749 0.1050834
vt 0.7560964 0.1202917
vt 0.7782239 0.1050834
vt 0.781341 0.09119006
vt 0.7525934 0.09119006
vt 0.752945 0.08787566
vt 0.7659999 0.07318068
vt 0.752945 0.07318069
vt 0.7659999 0.08787565
vt 0.7536402 0.08652676
vt 0.7661176 0.08652594
vt 0.7536398 0.07404373
vt 0.7661169 0.07404291
vt 0.7873217 0.01535096
vt 0.7680478 0.04573698
vt 0.7873217 0.04573698
vt 0.7680478 0.01535096
vt 0.7516773 0.01535096
vt 0.7680478 0.04573698
vt 0.7680478 0.01535096
vt 0.7516773 0.04573698
vt 0.7870219 0.1202917
vt 0.7972432 0.1238814
vt 0.8074936 0.1202917
vt 0.7560964 0.1202917
vt 0.767054 0.1238814
vt 0.7779717 0.1202917
vt 0.7782239 0.1050834
vt 0.756141 0.1202917
vt 0.7779717 0.1202917
vt 0.7557749 0.1050834
vt 0.781341 0.09119006
vt 0.7525934 0.09119006
vt 0.8077808 0.1050834
vt 0.7870219 0.1202917
vt 0.8074881 0.1202917
vt 0.7868482 0.1050834
vt 0.8107584 0.09119006
vt 0.7839527 0.09119006
vt 0.8389312 0.0438038
vt 0.8349738 0.06563564
vt 0.8389319 0.06563558
vt 0.8349738 0.04380375
vt 0.8349739 0.02198207
vt 0.8389312 0.0438038
vt 0.8389316 0.02198207
vt 0.8349738 0.04380375
vt 0.8349791 0.02189907
vt 0.8389369 0.04372075
vt 0.8389369 0.02189907
vt 0.8349791 0.04372075
vt 0.8389369 0.04372075
vt 0.8349791 0.06555258
vt 0.8389369 0.06555258
vt 0.8349791 0.04372075
vt 0.8170066 0.04037904
vt 0.7913227 0.01379513
vt 0.8170066 0.02416521
vt 0.7913227 0.05070183
vt 0.7913227 0.01379513
vt 0.8170066 0.04037904
vt 0.7913227 0.05070183
vt 0.8170066 0.02416521
vt 0.7913226 0.05362811
vt 0.8170066 0.08016475
vt 0.8170066 0.04325804
vt 0.7913226 0.06984195
vt 0.8170066 0.08016475
vt 0.7913226 0.05362811
vt 0.7913226 0.06984195
vt 0.8170066 0.04325804
vt 0.7516773 0.04573698
vt 0.7680478 0.01535096
vt 0.7680478 0.04573698
vt 0.7516773 0.01535096
vt 0.7516773 0.04573698
vt 0.7680478 0.01535096
vt 0.7680478 0.04573698
vt 0.7516773 0.01535096
vt 0.7680478 0.04573698
vt 0.7873217 0.01535096
vt 0.7873217 0.04573698
vt 0.7680478 0.01535096
vt 0.7680478 0.04573698
vt 0.7873217 0.01535096
vt 0.7873217 0.04573698
vt 0.7680478 0.01535096
vt 0.8261234 0.06416135
vt 0.8298976 0.03890301
vt 0.8261234 0.03890301
vt 0.8298976 0.06416135
vt 0.8261234 0.03890301
vt 0.8298976 0.06416135
vt 0.8298976 0.03890301
vt 0.8261234 0.06416135
vt 0.8298976 0.06416135
vt 0.8261234 0.03890301
vt 0.8261234 0.06416135
vt 0.8298976 0.03890301
vt 0.8261234 0.06416135
vt 0.8298976 0.03890301
vt 0.8261234 0.03890301
vt 0.8298976 0.06416135
vt 0.7534795 0.07132409
vt 0.7756224 0.06969246
vt 0.7518695 0.06969246
vt 0.7739884 0.07132409
vt 0.7518695 0.04916206
vt 0.7534795 0.07132409
vt 0.7756224 0.06969246
vt 0.7518695 0.06969246
vt 0.7739884 0.07132409
vt 0.7518695 0.04916206
vt 0.7534795 0.07132409
vt 0.7518695 0.06969246
vt 0.7518695 0.06969246
vt 0.7534795 0.07132409
vt 0.7518695 0.06969246
vt 0.7518695 0.04916206
vt 0.7518695 0.04916206
vt 0.7518695 0.06969246
vt 0.7756224 0.06969246
vt 0.7739884 0.07132409
vt 0.7739884 0.07132409
vt 0.7756224 0.06969246
vt 0.7739884 0.07132409
vt 0.7534795 0.07132409
vt 0.7534795 0.07132409
vt 0.7739884 0.07132409
vt 0.7534795 0.07132409
vt 0.7518695 0.06969246
vt 0.7518695 0.06969246
vt 0.7534795 0.07132409
vt 0.7518695 0.06969246
vt 0.7518695 0.04916206
vt 0.7518695 0.04916206
vt 0.7518695 0.06969246
vt 0.7756224 0.06969246
vt 0.7739884 0.07132409
vt 0.7739884 0.07132409
vt 0.7756224 0.06969246
vt 0.7739884 0.07132409
vt 0.7534795 0.07132409
vt 0.7534795 0.07132409
vt 0.7739884 0.07132409
vn 1 0 1.885716E-06
vn 1 1.322312E-07 2.152331E-07
vn 1 4.802029E-07 2.639275E-06
vn 1 -1.46762E-07 -3.0738E-07
vn -1 6.349902E-07 -1.171947E-07
vn -1 0 -2.302902E-06
vn -1 -4.261069E-07 -2.2979E-06
vn -1 9.194221E-07 0
vn 2.995041E-06 -1.872281E-07 -1
vn 3.81996E-06 -8.097526E-07 -1
vn 3.832191E-06 -9.654848E-07 -1
vn 2.784771E-06 0 -1
vn -1 6.349902E-07 -1.171947E-07
vn -1 6.06305E-07 7.98964E-07
vn -1 9.194221E-07 0
vn -1 4.37293E-07 1.116149E-06
vn -4.960213E-06 -5.078434E-07 1
vn -3.662178E-06 -2.044071E-07 1
vn -5.541212E-06 -2.019045E-07 1
vn -3.359437E-06 -3.650784E-07 1
vn 0 -1 0
vn 0 -1 0
vn 0 -1 0
vn 0 -1 0
vn 0 1 0
vn 1.471209E-07 1 1.469709E-07
vn 0 1 0
vn 0 1 0
vn -1.471209E-07 1 -1.469709E-07
vn 0 1 0
vn -3.359437E-06 -3.650784E-07 1
vn -3.324082E-06 1.158009E-07 1
vn -3.662178E-06 -2.044071E-07 1
vn -3.303603E-06 1.049574E-07 1
vn 0.9574276 -0.2886735 2.743315E-06
vn 0.9996399 0.0268339 2.787828E-06
vn 0.9574277 -0.2886733 2.7978E-06
vn 0.99964 0.02683354 2.858354E-06
vn 0.9428646 0.333176 2.650719E-06
vn 0.9428645 0.3331765 2.479198E-06
vn -0.9574276 -0.2886735 -2.664572E-06
vn -0.9996399 0.02683391 -2.682297E-06
vn -0.9574276 -0.2886734 -2.692359E-06
vn -0.99964 0.02683359 -2.758928E-06
vn -0.9428646 0.333176 -2.533669E-06
vn -0.9428645 0.3331764 -2.378754E-06
vn 0 -1 0
vn 0 -1 0
vn -7.274841E-07 -1 7.27144E-07
vn 7.274842E-07 -1 -7.271443E-07
vn 0 1 0
vn 0 1 0
vn 0 1 0
vn 0 1 0
vn 2.784771E-06 0 -1
vn 2.590359E-06 3.776489E-07 -1
vn 2.477715E-06 4.372923E-07 -1
vn 2.995041E-06 -1.872281E-07 -1
vn 1 -1.46762E-07 -3.0738E-07
vn 1 -1.097275E-07 -7.968184E-07
vn 1 1.322312E-07 2.152331E-07
vn 1 -2.623761E-07 -1.083294E-06
vn -1.471209E-07 1 -1.469709E-07
vn 0 1 0
vn 0 1 0
vn 1.471209E-07 1 1.469709E-07
vn 0 1 0
vn 0 1 0
vn -1.944521E-07 0.02626155 0.9996551
vn -1.979962E-07 -0.2905067 0.956873
vn -1.195133E-07 -0.2905065 0.956873
vn -2.836054E-07 0.02626131 0.9996551
vn -2.479056E-07 0.3336242 0.9427062
vn -3.171816E-07 0.333624 0.9427063
vn 1.22501E-07 0.02626151 -0.9996551
vn 1.312111E-07 -0.2905067 -0.956873
vn 0 -0.2905064 -0.956873
vn 2.240059E-07 0.02626123 -0.9996551
vn 1.949051E-07 0.3336241 -0.9427062
vn 2.457671E-07 0.333624 -0.9427063
vn -1 0 0
vn -1 0 0
vn -1 0 0
vn -1 0 0
vn -8.18419E-07 2.506898E-07 1
vn -8.184192E-07 2.50689E-07 1
vn -8.18419E-07 2.506899E-07 1
vn -8.184193E-07 2.506889E-07 1
vn 6.872093E-07 2.220554E-07 -1
vn 7.222902E-07 0 -1
vn 6.820159E-07 2.506899E-07 -1
vn 7.274836E-07 0 -1
vn 1 0 0
vn 1 0 0
vn 1 0 0
vn 1 0 0
vn 0.9259796 -0.3775738 0
vn 0.9259796 -0.3775738 0
vn 0.9259797 -0.3775731 8.199228E-07
vn 0.9259793 -0.3775741 -4.307456E-07
vn -0.0003156468 -0.3772929 0.9260939
vn -0.0003951652 -0.3772224 0.9261225
vn 5.185657E-07 -0.377573 0.9259797
vn -0.0009445875 -0.3767354 0.9263204
vn -0.926217 -0.3769905 -0.0004731007
vn -0.9261921 -0.3770516 -0.000542479
vn -0.9260944 -0.377291 -0.0008143301
vn -0.9263857 -0.3765761 -2.580032E-06
vn -0.001447406 -0.3762898 -0.9265009
vn -0.00126465 -0.3764518 -0.9264354
vn -1.066745E-07 -0.3775728 -0.92598
vn -0.002175882 -0.3756434 -0.9267617
vn 1 5.211239E-07 3.945931E-06
vn 1 4.802029E-07 2.639275E-06
vn 1 9.14464E-07 4.694279E-06
vn 1 0 1.885716E-06
vn -1 4.640424E-07 -4.001526E-06
vn -1 0 -2.302902E-06
vn -1 8.627136E-07 -4.760061E-06
vn -1 -4.261069E-07 -2.2979E-06
vn 4.473751E-06 -6.138856E-07 -1
vn 3.81996E-06 -8.097526E-07 -1
vn 4.757178E-06 -4.658556E-07 -1
vn 3.832191E-06 -9.654848E-07 -1
vn -6.558755E-06 -1.633214E-07 1
vn -5.541212E-06 -2.019045E-07 1
vn -7.135749E-06 1.380372E-07 1
vn -4.960213E-06 -5.078434E-07 1
vn -0.6134099 -0.4974569 0.6134044
vn -0.6134112 -0.4974571 0.6134029
vn -0.6134114 -0.4974571 0.6134027
vn -0.6134098 -0.4974568 0.6134046
vn 0.61366 -0.4971856 0.6133741
vn 0.6150426 -0.4974355 0.6117846
vn 0.6135167 -0.4971595 0.6135387
vn 0.6151906 -0.4974622 0.6116142
vn -0.6157882 -0.4939166 -0.6138821
vn -0.6238739 -0.4953886 -0.6044595
vn -0.6149014 -0.4937516 -0.614903
vn -0.6247033 -0.4955363 -0.6034812
vn 0.6134094 -0.4974567 -0.613405
vn 0.6134099 -0.4974568 -0.6134045
vn 0.6134099 -0.4974568 -0.6134045
vn 0.6134093 -0.4974567 -0.6134051
vn 0 1 1.97073E-07
vn -1.405917E-07 1 1.908134E-06
vn 0 1 0
vn -4.65176E-07 1 6.313448E-06
vn 1.365415E-07 1 -1.90872E-06
vn 0 1 -1.984488E-07
vn 1.365415E-07 1 -1.90872E-06
vn 0 1 0
vn 4.505945E-07 1 -6.298882E-06
vn -1.405917E-07 1 1.908134E-06
vn 0.7070941 0 0.7071194
vn 0.7070941 0 0.7071194
vn 0.7070941 0 0.7071195
vn 0.7070941 0 0.7071195
vn 1 0 -4.651785E-07
vn 1 0 -4.651785E-07
vn 1 0 -4.651785E-07
vn 1 0 -4.651785E-07
vn 0.7071091 0 -0.7071044
vn 0.7071091 0 -0.7071044
vn 0.7071091 0 -0.7071044
vn 0.7071091 0 -0.7071044
vn -0.002347733 0 -0.9999973
vn -0.002347733 0 -0.9999973
vn -0.002347733 0 -0.9999973
vn -0.002347732 0 -0.9999973
vn -0.719216 0 -0.6947865
vn -0.7192161 0 -0.6947865
vn -0.719216 0 -0.6947865
vn -0.7192161 0 -0.6947865
vn -0.9999996 0 -0.000879126
vn -0.9999996 0 -0.000879126
vn -0.9999996 0 -0.000879126
vn -0.9999996 0 -0.0008791258
vn -0.7071109 0 0.7071025
vn -0.7071109 0 0.7071025
vn -0.7071109 0 0.7071026
vn -0.7071108 0 0.7071027
vn 4.651789E-07 0 1
vn 4.651789E-07 0 1
vn 4.651789E-07 0 1
vn 4.651789E-07 0 1
g Area_LY_Build_Common_Pillar_01_A_Lod2_0
f 3/3/3 2/2/2 1/1/1
f 4/4/4 1/1/1 2/2/2
f 7/7/7 6/6/6 5/5/5
f 8/8/8 5/5/5 6/6/6
f 11/11/11 10/10/10 9/9/9
f 12/12/12 9/9/9 10/10/10
f 15/15/15 14/14/14 13/13/13
f 16/16/16 13/13/13 14/14/14
f 19/19/19 18/18/18 17/17/17
f 20/20/20 17/17/17 18/18/18
f 23/23/23 22/22/22 21/21/21
f 21/21/21 24/24/24 23/23/23
f 27/27/27 26/26/26 25/25/25
f 30/30/30 29/29/29 28/28/28
f 33/33/33 32/32/32 31/31/31
f 34/34/34 31/31/31 32/32/32
f 37/37/37 36/36/36 35/35/35
f 38/38/38 35/35/35 36/36/36
f 38/38/38 36/36/36 39/39/39
f 40/40/40 39/39/39 36/36/36
f 43/43/43 42/42/42 41/41/41
f 44/44/44 41/41/41 42/42/42
f 44/44/44 42/42/42 45/45/45
f 46/46/46 45/45/45 42/42/42
f 49/49/49 48/48/48 47/47/47
f 47/47/47 48/48/48 50/50/50
f 53/53/53 52/52/52 51/51/51
f 54/54/54 52/52/52 53/53/53
f 57/57/57 56/56/56 55/55/55
f 58/58/58 55/55/55 56/56/56
f 61/61/61 60/60/60 59/59/59
f 62/62/62 59/59/59 60/60/60
f 65/65/65 64/64/64 63/63/63
f 68/68/68 67/67/67 66/66/66
f 71/71/71 70/70/70 69/69/69
f 72/72/72 69/69/69 70/70/70
f 69/69/69 72/72/72 73/73/73
f 74/74/74 73/73/73 72/72/72
f 77/77/77 76/76/76 75/75/75
f 78/78/78 75/75/75 76/76/76
f 75/75/75 78/78/78 79/79/79
f 80/80/80 79/79/79 78/78/78
f 83/83/83 82/82/82 81/81/81
f 84/84/84 81/81/81 82/82/82
f 87/87/87 86/86/86 85/85/85
f 88/88/88 85/85/85 86/86/86
f 91/91/91 90/90/90 89/89/89
f 92/92/92 89/89/89 90/90/90
f 95/95/95 94/94/94 93/93/93
f 96/96/96 93/93/93 94/94/94
f 99/99/99 98/98/98 97/97/97
f 100/100/100 97/97/97 98/98/98
f 103/103/103 102/102/102 101/101/101
f 104/104/104 101/101/101 102/102/102
f 107/107/107 106/106/106 105/105/105
f 108/108/108 105/105/105 106/106/106
f 111/111/111 110/110/110 109/109/109
f 112/112/112 109/109/109 110/110/110
f 115/115/115 114/114/114 113/113/113
f 116/116/116 113/113/113 114/114/114
f 119/119/119 118/118/118 117/117/117
f 120/120/120 117/117/117 118/118/118
f 123/123/123 122/122/122 121/121/121
f 124/124/124 121/121/121 122/122/122
f 127/127/127 126/126/126 125/125/125
f 128/128/128 125/125/125 126/126/126
f 131/131/131 130/130/130 129/129/129
f 132/132/132 129/129/129 130/130/130
f 135/135/135 134/134/134 133/133/133
f 136/136/136 133/133/133 134/134/134
f 139/139/139 138/138/138 137/137/137
f 140/140/140 137/137/137 138/138/138
f 143/143/143 142/142/142 141/141/141
f 144/144/144 141/141/141 142/142/142
f 147/147/147 146/146/146 145/145/145
f 148/148/148 145/145/145 146/146/146
f 149/149/149 146/146/146 147/147/147
f 152/152/152 151/151/151 150/150/150
f 153/153/153 150/150/150 151/151/151
f 154/154/154 151/151/151 152/152/152
f 157/157/157 156/156/156 155/155/155
f 158/158/158 155/155/155 156/156/156
f 161/161/161 160/160/160 159/159/159
f 162/162/162 159/159/159 160/160/160
f 165/165/165 164/164/164 163/163/163
f 166/166/166 163/163/163 164/164/164
f 169/169/169 168/168/168 167/167/167
f 170/170/170 167/167/167 168/168/168
f 173/173/173 172/172/172 171/171/171
f 174/174/174 171/171/171 172/172/172
f 177/177/177 176/176/176 175/175/175
f 178/178/178 175/175/175 176/176/176
f 181/181/181 180/180/180 179/179/179
f 182/182/182 179/179/179 180/180/180
f 185/185/185 184/184/184 183/183/183
f 186/186/186 183/183/183 184/184/184
