g Area_Common_Build_Hili_House_03_Col
v -1.121438 4.704596E-10 1.141088
v 0.6306543 4.704597E-10 -1.119563
v -1.121438 4.704597E-10 -1.119563
v 0.6306543 4.704596E-10 1.141088
v -0.01733673 2.034685 1.141088
v -0.6104487 2.034686 1.141088
v -0.01733673 2.034685 -1.119563
v -0.6104487 2.034685 -1.119563
vn -0.6503414 -0.5072103 0.5655031
vn 0.6672801 -0.487792 -0.5628467
vn -0.6503413 -0.5072103 -0.5655031
vn 0.66728 -0.487792 0.5628467
vn 0.4741761 0.6486539 0.5953193
vn -0.4959124 0.6358553 0.5914043
vn 0.474176 0.648654 -0.5953193
vn -0.4959123 0.635855 -0.5914044
g Area_Common_Build_Hili_House_03_Col_0
f 3/3/3 2/2/2 1/1/1
f 4/4/4 1/1/1 2/2/2
f 4/4/4 5/5/5 1/1/1
f 4/4/4 2/2/2 5/5/5
f 6/6/6 1/1/1 5/5/5
f 1/1/1 6/6/6 3/3/3
f 5/5/5 7/7/7 6/6/6
f 7/7/7 5/5/5 2/2/2
f 2/2/2 3/3/3 7/7/7
f 8/8/8 6/6/6 7/7/7
f 8/8/8 7/7/7 3/3/3
f 6/6/6 8/8/8 3/3/3
