g Area_Common_Build_Wall_I_02_Col
v -3.165562 3.927244 -2.400716
v -2.436625 4.013356 -4.536996
v -1.666573 4.013494 -3.55288
v -4.309606 4.11627 -3.180555
v -1.553252 5.056526 -4.924402
v -1.086078 5.056677 -3.652787
v 0.1786002 5.294128 -5.155989
v 0.1921241 5.29428 -3.82371
v 1.63394 5.139042 -4.833235
v 1.171771 5.139194 -3.668551
v 2.935156 5.072597 -4.02853
v 2.004732 5.072747 -2.928387
v 3.707618 7.456953 -3.682839
v 2.811009 7.457036 -2.753253
v -3.831741 3.50858 -1.220347
v -5.018727 3.287662 -1.185202
v -3.991955 2.148691 -0.009306534
v -5.124277 2.148496 -0.009306873
v -3.991786 1.828373 1.282889
v -5.068689 1.828178 1.632796
v -3.467211 1.898491 2.551914
v -4.287337 1.898296 3.517035
v -2.41538 1.948879 3.364427
v -3.028076 1.948728 4.207932
v 3.081452 0.845874 -4.190342
v -4.871338 0.845874 -1.606318
v -5.124277 0.845874 -0.009306873
v -4.137269 0.845874 -3.047004
v -2.993937 0.845874 -4.190336
v -1.553252 0.845874 -4.924402
v 0.1786002 0.845874 -5.155988
v 1.505936 0.845874 -4.94576
v -3.376003 0.845874 -4.716205
v -4.663138 0.845874 -3.429071
v -1.754117 0.845874 -5.542598
v 0.1955594 0.845874 -5.803312
v 1.689841 0.845874 -5.566643
v 3.463517 0.845874 -4.716213
v 4.750655 0.845874 -3.429076
v 4.224787 0.845874 -3.047009
v 5.577064 0.845874 -1.80718
v 4.958867 0.845874 -1.606316
v 4.224787 7.547046 -3.047009
v 4.591827 8.021765 -1.743978
v 3.178432 7.547065 -2.267168
v 3.449328 8.021785 -1.152828
v 5.861813 0.845874 -0.009307763
v 5.211803 0.845874 -0.009307462
v 4.958867 9.514502 -0.5562518
v 5.211803 9.571818 0.7515009
v 3.720225 9.514522 -0.1537931
v 3.906905 9.571838 0.7356312
v 4.958865 8.296465 1.587699
v 3.720223 8.296484 1.153502
v 4.59183 5.752353 2.130715
v 3.44933 5.749394 1.507826
v 4.958865 0.845874 1.587699
v 5.577062 0.845874 1.788562
v 4.750663 0.845874 3.410464
v 4.224794 0.845874 3.028397
v 3.463526 0.845874 4.6976
v 3.081459 0.845874 4.17173
v 4.224794 4.543169 3.028397
v 3.496428 5.634226 3.890611
v 3.178438 4.537227 2.216816
v 2.67248 5.750297 3.212741
v 1.640783 0.845874 4.905793
v 2.335988 5.016219 4.670306
v 0.04377302 0.845874 5.158737
v 0.007414989 4.924619 5.301804
v 1.885184 5.016371 3.572036
v 0.03893493 4.92477 4.166138
v -1.553248 3.644785 4.905797
v -1.293235 3.644936 3.839957
v -2.008255 2.001902 4.751566
v -1.588971 2.002053 3.814995
v -1.553248 0.845874 4.905797
v 1.841648 0.845874 5.523989
v 0.04377431 0.845874 5.808747
v -1.754112 0.845874 5.523994
v -2.57416 0.845874 5.138782
v -2.40606 0.845874 4.662659
v -2.390066 0.527627 4.693371
v -2.574096 0.51875 5.137578
v -1.754112 0.51875 5.523994
v 0.04377431 0.51875 5.808747
v 1.841648 0.51875 5.523989
v 3.463526 0.51875 4.6976
v 4.750663 0.51875 3.410464
v 5.577062 0.51875 1.788562
v 5.861813 0.51875 -0.009307763
v 5.577064 0.51875 -1.80718
v 4.750655 0.51875 -3.429076
v 3.463517 0.51875 -4.716213
v 1.689841 0.51875 -5.566643
v 0.1955594 0.51875 -5.803312
v -1.754117 0.51875 -5.542598
v -3.376003 0.51875 -4.716205
v -4.663138 0.51875 -3.429071
v -5.489534 0.845874 -1.807182
v -5.774287 0.845874 -0.0093071
v -5.068689 0.845874 1.632796
v -4.383278 0.845874 3.217477
v -5.489533 0.845874 1.78857
v -5.047124 0.845874 2.754081
v -5.489534 0.51875 -1.807182
v -5.774287 0.51875 -0.0093071
v -5.489533 0.51875 1.78857
v -5.0152 0.5365039 2.816712
v -5.170373 -0.09893554 -1.70348
v -5.438702 -0.09893554 -0.009306963
v -4.391644 -0.09893554 -3.231819
v -3.178751 -0.09893554 -4.444712
v -1.650415 -0.09893554 -5.223437
v 0.1868038 -0.09893554 -5.469114
v 1.594895 -0.09893554 -5.246096
v 3.266266 -0.09893554 -4.444718
v -3.836768 0.5266503 1.852477
v -3.382241 0.5365036 1.440637
v -3.890503 0.5384081 -0.004229088
v 4.479161 -0.09893554 -3.231824
v 5.257903 -0.09893554 -1.703479
v 5.526228 -0.09893554 -0.009307588
v 5.257902 -0.09893554 1.684861
v 4.479169 -0.09893554 3.213212
v 3.266274 -0.09893554 4.426105
v 1.737946 -0.09893554 5.204829
v 0.04377367 -0.09893554 5.473162
v 0.04377074 -0.09894042 3.916066
v -0.0004053497 0.5334718 3.901724
v 3.969132 -0.09894042 -0.009306896
v 2.351036 -0.09894042 3.166388
v 3.219453 -0.09894042 2.297972
v 1.256775 -0.09894042 3.723943
v 3.777014 -0.09894042 1.203695
v 2.166223 0.8376123 2.912014
v 2.965079 0.8376123 2.113158
v 1.159613 0.8376123 3.424909
v 0.04377014 0.8376123 3.601643
v 3.47798 0.8376123 1.106533
v 3.654709 0.8376123 -0.009306762
v 3.777016 -0.09894042 -1.22231
v 3.219447 -0.09894042 -2.316585
v 2.351031 -0.09894042 -3.185
v 1.154352 -0.09894042 -3.758775
v 0.1461783 -0.09894042 -3.918453
v -1.169245 -0.09894042 -3.742552
v -2.263512 -0.09894042 -3.184995
v -3.131927 -0.09894042 -2.316581
v -3.689487 -0.09894042 -1.222311
v -3.881606 -0.09894042 -0.009306449
v -2.078699 0.8376123 -2.930621
v -2.877553 0.8376123 -2.131768
v -1.072083 0.8376123 -3.443518
v 0.1379748 0.8376123 -3.605329
v 1.065394 0.8376123 -3.458441
v 2.166218 0.8376123 -2.930626
v -3.390452 0.8376123 -1.125149
v -3.567183 0.8376123 -0.00930635
v 2.965074 0.8376123 -2.131771
v 3.477981 0.8376123 -1.125148
v -3.401479 0.8228709 1.402869
v -3.68579 0.8228709 1.706533
v -3.336529 0.6543724 3.210924
v -2.078698 0.8376123 2.912013
v -1.147515 0.5365477 3.53229
v -1.110306 0.8376123 3.485123
v 2.148797 5.809363 3.728554
v -3.028076 0.845874 4.207932
v -3.809148 0.845874 3.821468
v -3.785189 0.5320655 3.86814
vn 0.4056798 0.7647313 0.5006095
vn -0.5788835 0.550396 -0.6016296
vn -0.2028547 0.5964262 0.7766117
vn -0.619238 0.7103629 -0.3345579
vn -0.5362614 0.6702046 -0.5130785
vn -0.3039898 0.6614274 0.6856413
vn 0.007284217 0.7027335 -0.7114158
vn -0.02937862 0.7818646 0.6227557
vn 0.3195122 0.6693606 -0.6707222
vn -0.1819997 0.7789847 0.6000491
vn 0.2339877 0.3732852 -0.8977237
vn -0.6575454 0.4557998 0.5999004
vn 0.0994148 0.6003328 -0.7935473
vn -0.7799654 0.6258082 -0.004270777
vn 0.3788718 0.706045 0.5982948
vn -0.7753695 0.5875944 0.231376
vn 0.5635393 0.6905065 0.453458
vn -0.7978971 0.5520161 0.2421537
vn 0.5252976 0.8489239 0.05822826
vn -0.7417421 0.6401584 0.2000396
vn 0.3334092 0.8712364 -0.3602572
vn -0.5992591 0.624792 0.5005232
vn 0.2529311 0.8589613 -0.4452091
vn -0.3544827 0.7092784 0.6093162
vn 0.3831102 0.7586523 -0.5269471
vn -0.6311876 0.7458705 -0.2127894
vn -0.6829989 0.7292029 -0.0421395
vn -0.5618119 0.7307295 -0.3878168
vn -0.3913818 0.7343823 -0.5545294
vn -0.1951155 0.744595 -0.6383637
vn 0.008105093 0.7411233 -0.67132
vn 0.2010242 0.7435088 -0.6377962
vn -0.4344654 0.6735334 -0.5979905
vn -0.59799 0.6735336 -0.4344658
vn -0.2205644 0.6711057 -0.7077913
vn 0.008896368 0.6759836 -0.736863
vn 0.2192412 0.6759835 -0.7035478
vn 0.4284884 0.6711055 -0.6049919
vn 0.5979886 0.673534 -0.434467
vn 0.5293013 0.749869 -0.3969085
vn 0.7029805 0.6735324 -0.2284132
vn 0.6318789 0.7484787 -0.2012675
vn 0.6078043 0.6427994 -0.4662433
vn 0.5607973 0.5825291 -0.5883591
vn -0.7148201 0.6891893 0.1185336
vn -0.8777916 0.455215 -0.1492018
vn 0.7391563 0.673534 4.401575E-07
vn 0.6667829 0.74522 -0.00689648
vn 0.5047277 0.6999792 -0.5052514
vn 0.6517367 0.6872135 0.3209001
vn -0.6941391 0.6866898 -0.2159352
vn -0.557739 0.712715 0.4253992
vn 0.4488553 0.2510067 0.8576272
vn -0.8658012 0.2267225 0.4460774
vn 0.3297233 0.2589391 0.9078729
vn -0.9498162 0.2435693 0.196273
vn 0.6359955 0.7425789 0.2099671
vn 0.7029805 0.6735332 0.2284112
vn 0.5979905 0.6735333 0.4344656
vn 0.5405043 0.7440713 0.3926994
vn 0.4344653 0.6735337 0.5979902
vn 0.3892421 0.7455934 0.5409077
vn 0.7696299 0.3836262 0.5103927
vn 0.6366961 0.6895164 0.3452319
vn -0.8530617 0.4125535 -0.3195077
vn -0.111633 0.7757076 -0.6211408
vn 0.2004842 0.7499761 0.6303505
vn 0.1898845 0.4807248 0.8560652
vn 0.01292135 0.7399214 0.6725693
vn -0.2090322 0.6769063 0.7057644
vn -0.6101287 0.4771634 -0.6325014
vn -0.3468439 0.7727874 -0.5315063
vn -0.7797641 0.40367 0.4785589
vn -0.534697 0.4249122 -0.7304442
vn -0.6245305 0.3537078 0.6963135
vn -0.3372241 0.5106161 -0.7909178
vn -0.1995236 0.7295334 0.6541951
vn 0.2284129 0.6735335 0.7029795
vn 1.35952E-06 0.6735334 0.7391568
vn -0.2165991 0.6766675 0.7037088
vn -0.7580972 0.5771624 0.3035989
vn -0.4406286 0.8790082 0.182184
vn -0.4513894 -0.8867539 0.09957445
vn -0.7569661 -0.5862499 0.2886406
vn -0.2168156 -0.6800878 0.7003366
vn -0.1760009 -0.4272747 0.8868259
vn 0.2999392 -0.2406174 0.9231142
vn 0.5705162 -0.2406175 0.785248
vn 0.785248 -0.2406176 0.5705162
vn 0.9231149 -0.2406175 0.2999368
vn 0.9706199 -0.2406176 5.448835E-07
vn 0.9231142 -0.2406175 -0.2999392
vn 0.7852464 -0.2406173 -0.5705186
vn 0.5612625 -0.2401883 -0.7920189
vn 0.2885493 -0.2402787 -0.9268254
vn 0.01197669 -0.2402788 -0.97063
vn -0.2890457 -0.2401886 -0.9266942
vn -0.5705162 -0.2406174 -0.7852482
vn -0.7852477 -0.2406175 -0.5705167
vn -0.7029802 0.6735331 -0.228412
vn -0.7391564 0.6735337 0
vn -0.6462482 0.7498677 0.1416392
vn -0.5866572 0.7245162 0.3618143
vn -0.7038628 0.6777658 0.212628
vn -0.6028066 0.6743696 0.4264385
vn -0.9231145 -0.2406175 -0.299938
vn -0.8864744 -0.4277714 0.1765636
vn -0.6996007 -0.6815466 0.2145999
vn -0.5796726 -0.6497094 0.49179
vn -0.5202213 -0.8371372 -0.16903
vn -0.4479878 -0.6852027 0.5742859
vn -0.4425262 -0.8371373 -0.3215146
vn -0.3215143 -0.8371372 -0.4425266
vn -0.1631617 -0.8354292 -0.5248203
vn 0.006220377 -0.8383767 -0.5450558
vn 0.1625148 -0.8383766 -0.5203015
vn 0.3173544 -0.8354288 -0.4487147
vn 0.3797935 -0.9235516 0.05300276
vn 0.7633222 -0.5745425 0.2953644
vn 0.2024969 -0.6179556 0.7596881
vn 0.4425253 -0.8371375 -0.3215156
vn 0.5202218 -0.8371367 -0.1690311
vn 0.5469924 -0.8371376 3.500219E-07
vn 0.5202215 -0.8371372 0.1690295
vn 0.4425266 -0.8371373 0.3215143
vn 0.3215143 -0.8371375 0.4425263
vn 0.1690307 -0.8371372 0.520221
vn -0.5753304 -0.6847118 0.4473976
vn -0.6112853 -0.6690722 -0.422697
vn -0.7240461 -0.6126682 -0.3168516
vn -0.5427464 -0.8398966 -2.892644E-07
vn -0.3190182 -0.839897 -0.4390905
vn -0.4390903 -0.8398972 -0.3190178
vn -0.1677183 -0.839897 -0.5161816
vn -0.5161818 -0.8398973 -0.167717
vn -0.5836076 -0.1072875 -0.8049171
vn -0.8079668 -0.1204188 -0.576792
vn -0.3111053 -0.1049864 -0.9445588
vn -0.1117252 -0.2013015 -0.9731367
vn -0.9429576 -0.14145 -0.3013684
vn -0.9884039 -0.151821 0.002865365
vn -0.5161803 -0.839898 0.1677178
vn -0.4390902 -0.8398966 0.3190197
vn -0.3119194 -0.8420638 0.4400398
vn -0.1624027 -0.8374176 0.5218785
vn -0.006814262 -0.8374175 0.5465212
vn 0.1606737 -0.8420637 0.514891
vn 0.3190179 -0.839897 0.4390906
vn 0.4390903 -0.839897 0.3190183
vn 0.5161816 -0.8398972 0.1677174
vn 0.4229859 -0.6554759 0.6256472
vn 0.582474 -0.1376348 0.8011122
vn 0.7972101 -0.1144494 0.5927541
vn 0.2945558 -0.1406753 0.9452234
vn -0.01092414 -0.1383612 0.9903216
vn -0.3045586 -0.151412 0.9403821
vn -0.5701979 -0.1751527 0.8026181
vn 0.9450955 -0.0883856 0.3146148
vn 0.9866229 -0.13046 0.09775216
vn -0.7931489 -0.1570216 0.5884378
vn -0.9410465 -0.152298 0.3020544
vn 0.9117597 0.2605368 0.3175135
vn 0.9874998 -0.02270132 0.1559771
vn 0.09344442 -0.9887004 -0.1172157
vn 0.4182139 -0.3295606 -0.8464555
vn 0.2186682 -0.7932863 -0.5682262
vn 0.3000829 0.005196982 -0.953899
vn -0.5829661 0.8112471 0.04504114
vn -0.3165984 0.7048675 0.6347655
vn -0.5753961 0.05092289 0.8162881
vn -0.4060832 -0.7128959 0.5717306
g Area_Common_Build_Wall_I_02_Col_0
f 3/3/3 2/2/2 1/1/1
f 4/4/4 1/1/1 2/2/2
f 2/2/2 3/3/3 5/5/5
f 6/6/6 5/5/5 3/3/3
f 5/5/5 6/6/6 7/7/7
f 8/8/8 7/7/7 6/6/6
f 7/7/7 8/8/8 9/9/9
f 10/10/10 9/9/9 8/8/8
f 9/9/9 10/10/10 11/11/11
f 12/12/12 11/11/11 10/10/10
f 11/11/11 12/12/12 13/13/13
f 14/14/14 13/13/13 12/12/12
f 1/1/1 4/4/4 15/15/15
f 4/4/4 16/16/16 15/15/15
f 15/15/15 16/16/16 17/17/17
f 18/18/18 17/17/17 16/16/16
f 17/17/17 18/18/18 19/19/19
f 20/20/20 19/19/19 18/18/18
f 19/19/19 20/20/20 21/21/21
f 22/22/22 21/21/21 20/20/20
f 21/21/21 22/22/22 23/23/23
f 22/22/22 24/24/24 23/23/23
f 11/11/11 25/25/25 9/9/9
f 16/16/16 26/26/26 18/18/18
f 27/27/27 18/18/18 26/26/26
f 18/18/18 27/27/27 20/20/20
f 26/26/26 16/16/16 28/28/28
f 4/4/4 28/28/28 16/16/16
f 28/28/28 4/4/4 29/29/29
f 2/2/2 29/29/29 4/4/4
f 29/29/29 2/2/2 30/30/30
f 5/5/5 30/30/30 2/2/2
f 30/30/30 5/5/5 31/31/31
f 7/7/7 31/31/31 5/5/5
f 31/31/31 7/7/7 32/32/32
f 9/9/9 32/32/32 7/7/7
f 32/32/32 9/9/9 25/25/25
f 29/29/29 33/33/33 28/28/28
f 34/34/34 28/28/28 33/33/33
f 28/28/28 34/34/34 26/26/26
f 30/30/30 35/35/35 29/29/29
f 33/33/33 29/29/29 35/35/35
f 31/31/31 36/36/36 30/30/30
f 35/35/35 30/30/30 36/36/36
f 32/32/32 37/37/37 31/31/31
f 36/36/36 31/31/31 37/37/37
f 37/37/37 32/32/32 38/38/38
f 25/25/25 38/38/38 32/32/32
f 38/38/38 25/25/25 39/39/39
f 40/40/40 39/39/39 25/25/25
f 25/25/25 11/11/11 40/40/40
f 13/13/13 40/40/40 11/11/11
f 39/39/39 40/40/40 41/41/41
f 42/42/42 41/41/41 40/40/40
f 40/40/40 43/43/43 42/42/42
f 43/43/43 40/40/40 13/13/13
f 44/44/44 42/42/42 43/43/43
f 43/43/43 45/45/45 44/44/44
f 43/43/43 13/13/13 45/45/45
f 46/46/46 44/44/44 45/45/45
f 41/41/41 42/42/42 47/47/47
f 48/48/48 47/47/47 42/42/42
f 42/42/42 49/49/49 48/48/48
f 44/44/44 46/46/46 49/49/49
f 49/49/49 42/42/42 44/44/44
f 50/50/50 48/48/48 49/49/49
f 49/49/49 51/51/51 50/50/50
f 51/51/51 49/49/49 46/46/46
f 52/52/52 50/50/50 51/51/51
f 50/50/50 52/52/52 53/53/53
f 54/54/54 53/53/53 52/52/52
f 53/53/53 54/54/54 55/55/55
f 56/56/56 55/55/55 54/54/54
f 55/55/55 57/57/57 53/53/53
f 53/53/53 57/57/57 50/50/50
f 48/48/48 50/50/50 57/57/57
f 57/57/57 58/58/58 48/48/48
f 47/47/47 48/48/48 58/58/58
f 58/58/58 57/57/57 59/59/59
f 60/60/60 59/59/59 57/57/57
f 59/59/59 60/60/60 61/61/61
f 62/62/62 61/61/61 60/60/60
f 60/60/60 63/63/63 62/62/62
f 60/60/60 57/57/57 63/63/63
f 55/55/55 63/63/63 57/57/57
f 64/64/64 62/62/62 63/63/63
f 63/63/63 65/65/65 64/64/64
f 63/63/63 55/55/55 65/65/65
f 56/56/56 65/65/65 55/55/55
f 66/66/66 64/64/64 65/65/65
f 62/62/62 64/64/64 67/67/67
f 68/68/68 67/67/67 64/64/64
f 67/67/67 68/68/68 69/69/69
f 70/70/70 69/69/69 68/68/68
f 68/68/68 71/71/71 70/70/70
f 72/72/72 70/70/70 71/71/71
f 70/70/70 72/72/72 73/73/73
f 74/74/74 73/73/73 72/72/72
f 73/73/73 74/74/74 75/75/75
f 76/76/76 75/75/75 74/74/74
f 75/75/75 77/77/77 73/73/73
f 77/77/77 69/69/69 70/70/70
f 73/73/73 77/77/77 70/70/70
f 67/67/67 78/78/78 62/62/62
f 69/69/69 79/79/79 67/67/67
f 78/78/78 67/67/67 79/79/79
f 77/77/77 80/80/80 69/69/69
f 79/79/79 69/69/69 80/80/80
f 80/80/80 77/77/77 81/81/81
f 82/82/82 81/81/81 77/77/77
f 82/82/82 83/83/83 81/81/81
f 84/84/84 81/81/81 83/83/83
f 81/81/81 84/84/84 80/80/80
f 85/85/85 80/80/80 84/84/84
f 80/80/80 85/85/85 79/79/79
f 84/84/84 83/83/83 85/85/85
f 79/79/79 86/86/86 78/78/78
f 86/86/86 79/79/79 85/85/85
f 87/87/87 78/78/78 86/86/86
f 78/78/78 87/87/87 61/61/61
f 61/61/61 62/62/62 78/78/78
f 88/88/88 61/61/61 87/87/87
f 61/61/61 88/88/88 59/59/59
f 89/89/89 59/59/59 88/88/88
f 59/59/59 89/89/89 58/58/58
f 90/90/90 58/58/58 89/89/89
f 58/58/58 90/90/90 47/47/47
f 91/91/91 47/47/47 90/90/90
f 47/47/47 91/91/91 41/41/41
f 92/92/92 41/41/41 91/91/91
f 41/41/41 92/92/92 39/39/39
f 93/93/93 39/39/39 92/92/92
f 39/39/39 93/93/93 38/38/38
f 94/94/94 38/38/38 93/93/93
f 38/38/38 94/94/94 37/37/37
f 95/95/95 37/37/37 94/94/94
f 37/37/37 95/95/95 36/36/36
f 96/96/96 36/36/36 95/95/95
f 36/36/36 96/96/96 35/35/35
f 97/97/97 35/35/35 96/96/96
f 35/35/35 97/97/97 33/33/33
f 98/98/98 33/33/33 97/97/97
f 33/33/33 98/98/98 34/34/34
f 99/99/99 34/34/34 98/98/98
f 34/34/34 99/99/99 100/100/100
f 100/100/100 26/26/26 34/34/34
f 26/26/26 100/100/100 27/27/27
f 101/101/101 27/27/27 100/100/100
f 27/27/27 101/101/101 102/102/102
f 102/102/102 20/20/20 27/27/27
f 20/20/20 102/102/102 22/22/22
f 103/103/103 22/22/22 102/102/102
f 104/104/104 102/102/102 101/101/101
f 102/102/102 104/104/104 103/103/103
f 105/105/105 103/103/103 104/104/104
f 100/100/100 106/106/106 101/101/101
f 106/106/106 100/100/100 99/99/99
f 107/107/107 101/101/101 106/106/106
f 101/101/101 107/107/107 104/104/104
f 108/108/108 104/104/104 107/107/107
f 104/104/104 108/108/108 105/105/105
f 109/109/109 105/105/105 108/108/108
f 106/106/106 110/110/110 107/107/107
f 111/111/111 107/107/107 110/110/110
f 110/110/110 106/106/106 112/112/112
f 99/99/99 112/112/112 106/106/106
f 112/112/112 99/99/99 113/113/113
f 98/98/98 113/113/113 99/99/99
f 113/113/113 98/98/98 114/114/114
f 97/97/97 114/114/114 98/98/98
f 114/114/114 97/97/97 115/115/115
f 96/96/96 115/115/115 97/97/97
f 115/115/115 96/96/96 116/116/116
f 95/95/95 116/116/116 96/96/96
f 116/116/116 95/95/95 117/117/117
f 94/94/94 117/117/117 95/95/95
f 109/109/109 108/108/108 118/118/118
f 119/119/119 118/118/118 108/108/108
f 119/119/119 108/108/108 120/120/120
f 107/107/107 120/120/120 108/108/108
f 117/117/117 94/94/94 121/121/121
f 93/93/93 121/121/121 94/94/94
f 121/121/121 93/93/93 122/122/122
f 92/92/92 122/122/122 93/93/93
f 122/122/122 92/92/92 123/123/123
f 91/91/91 123/123/123 92/92/92
f 123/123/123 91/91/91 124/124/124
f 90/90/90 124/124/124 91/91/91
f 124/124/124 90/90/90 125/125/125
f 89/89/89 125/125/125 90/90/90
f 125/125/125 89/89/89 126/126/126
f 88/88/88 126/126/126 89/89/89
f 126/126/126 88/88/88 127/127/127
f 87/87/87 127/127/127 88/88/88
f 127/127/127 87/87/87 128/128/128
f 86/86/86 128/128/128 87/87/87
f 128/128/128 86/86/86 129/129/129
f 128/128/128 129/129/129 127/127/127
f 130/130/130 129/129/129 86/86/86
f 123/123/123 131/131/131 122/122/122
f 126/126/126 132/132/132 125/125/125
f 133/133/133 125/125/125 132/132/132
f 125/125/125 133/133/133 124/124/124
f 127/127/127 134/134/134 126/126/126
f 132/132/132 126/126/126 134/134/134
f 134/134/134 127/127/127 129/129/129
f 135/135/135 124/124/124 133/133/133
f 131/131/131 123/123/123 135/135/135
f 124/124/124 135/135/135 123/123/123
f 132/132/132 136/136/136 133/133/133
f 137/137/137 133/133/133 136/136/136
f 133/133/133 137/137/137 135/135/135
f 134/134/134 138/138/138 132/132/132
f 136/136/136 132/132/132 138/138/138
f 129/129/129 139/139/139 134/134/134
f 138/138/138 134/134/134 139/139/139
f 130/130/130 139/139/139 129/129/129
f 140/140/140 135/135/135 137/137/137
f 135/135/135 140/140/140 131/131/131
f 141/141/141 131/131/131 140/140/140
f 131/131/131 141/141/141 142/142/142
f 142/142/142 122/122/122 131/131/131
f 122/122/122 142/142/142 121/121/121
f 143/143/143 121/121/121 142/142/142
f 121/121/121 143/143/143 117/117/117
f 144/144/144 117/117/117 143/143/143
f 117/117/117 144/144/144 116/116/116
f 145/145/145 116/116/116 144/144/144
f 116/116/116 145/145/145 115/115/115
f 146/146/146 115/115/115 145/145/145
f 115/115/115 146/146/146 114/114/114
f 147/147/147 114/114/114 146/146/146
f 114/114/114 147/147/147 113/113/113
f 148/148/148 113/113/113 147/147/147
f 113/113/113 148/148/148 112/112/112
f 149/149/149 112/112/112 148/148/148
f 112/112/112 149/149/149 110/110/110
f 150/150/150 110/110/110 149/149/149
f 110/110/110 150/150/150 111/111/111
f 151/151/151 111/111/111 150/150/150
f 148/148/148 152/152/152 149/149/149
f 153/153/153 149/149/149 152/152/152
f 149/149/149 153/153/153 150/150/150
f 147/147/147 154/154/154 148/148/148
f 152/152/152 148/148/148 154/154/154
f 146/146/146 155/155/155 147/147/147
f 154/154/154 147/147/147 155/155/155
f 155/155/155 146/146/146 156/156/156
f 145/145/145 156/156/156 146/146/146
f 156/156/156 145/145/145 157/157/157
f 144/144/144 157/157/157 145/145/145
f 150/150/150 158/158/158 151/151/151
f 158/158/158 150/150/150 153/153/153
f 159/159/159 151/151/151 158/158/158
f 157/157/157 144/144/144 160/160/160
f 143/143/143 160/160/160 144/144/144
f 160/160/160 143/143/143 161/161/161
f 142/142/142 161/161/161 143/143/143
f 161/161/161 142/142/142 141/141/141
f 152/152/152 3/3/3 153/153/153
f 1/1/1 153/153/153 3/3/3
f 153/153/153 1/1/1 158/158/158
f 155/155/155 8/8/8 154/154/154
f 6/6/6 154/154/154 8/8/8
f 3/3/3 152/152/152 6/6/6
f 154/154/154 6/6/6 152/152/152
f 158/158/158 15/15/15 159/159/159
f 15/15/15 158/158/158 1/1/1
f 17/17/17 159/159/159 15/15/15
f 159/159/159 17/17/17 162/162/162
f 162/162/162 119/119/119 159/159/159
f 120/120/120 159/159/159 119/119/119
f 119/119/119 162/162/162 118/118/118
f 163/163/163 118/118/118 162/162/162
f 118/118/118 163/163/163 164/164/164
f 165/165/165 164/164/164 163/163/163
f 164/164/164 165/165/165 166/166/166
f 167/167/167 166/166/166 165/165/165
f 19/19/19 162/162/162 17/17/17
f 162/162/162 19/19/19 163/163/163
f 163/163/163 21/21/21 165/165/165
f 19/19/19 21/21/21 163/163/163
f 23/23/23 165/165/165 21/21/21
f 165/165/165 23/23/23 167/167/167
f 76/76/76 167/167/167 23/23/23
f 76/76/76 74/74/74 167/167/167
f 167/167/167 74/74/74 139/139/139
f 72/72/72 139/139/139 74/74/74
f 139/139/139 72/72/72 138/138/138
f 71/71/71 138/138/138 72/72/72
f 138/138/138 71/71/71 136/136/136
f 66/66/66 136/136/136 71/71/71
f 136/136/136 66/66/66 137/137/137
f 65/65/65 137/137/137 66/66/66
f 137/137/137 65/65/65 140/140/140
f 56/56/56 140/140/140 65/65/65
f 56/56/56 54/54/54 140/140/140
f 140/140/140 54/54/54 141/141/141
f 52/52/52 141/141/141 54/54/54
f 141/141/141 52/52/52 161/161/161
f 51/51/51 161/161/161 52/52/52
f 71/71/71 168/168/168 66/66/66
f 66/66/66 168/168/168 64/64/64
f 68/68/68 168/168/168 71/71/71
f 64/64/64 168/168/168 68/68/68
f 51/51/51 46/46/46 161/161/161
f 46/46/46 45/45/45 161/161/161
f 160/160/160 161/161/161 45/45/45
f 45/45/45 14/14/14 160/160/160
f 14/14/14 12/12/12 160/160/160
f 157/157/157 160/160/160 12/12/12
f 157/157/157 12/12/12 156/156/156
f 10/10/10 156/156/156 12/12/12
f 156/156/156 10/10/10 155/155/155
f 8/8/8 155/155/155 10/10/10
f 14/14/14 45/45/45 13/13/13
f 170/170/170 169/169/169 24/24/24
f 24/24/24 169/169/169 75/75/75
f 24/24/24 75/75/75 23/23/23
f 76/76/76 23/23/23 75/75/75
f 77/77/77 75/75/75 169/169/169
f 170/170/170 82/82/82 169/169/169
f 169/169/169 82/82/82 77/77/77
f 170/170/170 171/171/171 82/82/82
f 83/83/83 82/82/82 171/171/171
f 171/171/171 170/170/170 109/109/109
f 105/105/105 109/109/109 170/170/170
f 105/105/105 170/170/170 103/103/103
f 109/109/109 164/164/164 171/171/171
f 171/171/171 164/164/164 83/83/83
f 118/118/118 164/164/164 109/109/109
f 166/166/166 83/83/83 164/164/164
f 166/166/166 85/85/85 83/83/83
f 85/85/85 166/166/166 86/86/86
f 130/130/130 86/86/86 166/166/166
f 166/166/166 167/167/167 130/130/130
f 139/139/139 130/130/130 167/167/167
f 103/103/103 170/170/170 22/22/22
f 22/22/22 170/170/170 24/24/24
f 151/151/151 159/159/159 120/120/120
f 151/151/151 120/120/120 111/111/111
f 107/107/107 111/111/111 120/120/120
