g Area_Common_Prop_Statue_E_01_Col
v -0.4967816 -2.533944E-17 0.3857267
v 0.6295346 2.533944E-17 -0.4419221
v -0.4967816 2.533944E-17 -0.4419221
v 0.6295346 -2.533944E-17 0.3857267
v 0.6295346 0.1875654 0.3857267
v -0.4967816 0.1875654 0.3857267
v 0.6295346 0.1875654 -0.4419221
v -0.4967816 0.1875654 -0.4419221
v -0.4599553 0.1744202 -0.1428461
v 0.1256588 0.1744202 0.332921
v 0.1256587 0.1744202 -0.3270119
v -0.4599553 0.1744202 0.1487552
v -0.4599553 0.6608339 0.1487552
v 0.1256587 0.6608339 0.332921
v -0.4599553 0.6608339 -0.1428461
v -0.4599553 1.147247 0.1487552
v -0.4599553 1.147247 -0.1428461
v -0.03694015 1.147247 -0.1974701
v -0.03694015 1.147247 0.2033792
v 0.1256587 0.6608339 -0.3270119
v 0.5927083 0.6608339 -0.159448
v 0.5927083 0.1744202 -0.159448
v 0.5927083 0.6608339 0.1653571
v 0.5927083 0.1744202 0.1653571
v 0.1722813 0.7838386 0.1843682
v 0.1722813 0.7838386 -0.1784591
vn -0.5773503 -0.5773503 0.5773502
vn 0.5773503 -0.5773503 -0.5773502
vn -0.5773501 -0.5773503 -0.5773503
vn 0.5773501 -0.5773503 0.5773503
vn 0.5773503 0.5773503 0.5773502
vn -0.5773501 0.5773503 0.5773503
vn 0.5773501 0.5773503 -0.5773503
vn -0.5773503 0.5773503 -0.5773502
vn -0.6479317 -0.5950873 -0.4754529
vn 0.01524949 -0.6418759 0.7666569
vn 0.01524951 -0.6418758 -0.766657
vn -0.6479317 -0.5950873 0.4754529
vn -0.7942589 0.02634124 0.6070082
vn 0.103217 0.2327433 0.9670454
vn -0.7942589 0.02634129 -0.6070083
vn -0.6094253 0.5844055 0.53579
vn -0.6094253 0.5844055 -0.53579
vn 0.3343985 0.7280939 -0.5983785
vn 0.3343985 0.7280939 0.5983787
vn 0.103217 0.2327434 -0.9670454
vn 0.7222387 0.501192 -0.4766319
vn 0.6556959 -0.5976597 -0.4613737
vn 0.7222386 0.5011921 0.4766318
vn 0.6556959 -0.5976597 0.4613737
vn 0.6104834 0.7030919 0.364653
vn 0.6104834 0.7030919 -0.3646528
g Area_Common_Prop_Statue_E_01_Col_0
f 3/3/3 2/2/2 1/1/1
f 4/4/4 1/1/1 2/2/2
f 4/4/4 5/5/5 1/1/1
f 6/6/6 1/1/1 5/5/5
f 1/1/1 6/6/6 3/3/3
f 5/5/5 7/7/7 6/6/6
f 2/2/2 7/7/7 4/4/4
f 5/5/5 4/4/4 7/7/7
f 8/8/8 6/6/6 7/7/7
f 3/3/3 8/8/8 2/2/2
f 7/7/7 2/2/2 8/8/8
f 8/8/8 3/3/3 6/6/6
f 11/11/11 10/10/10 9/9/9
f 12/12/12 9/9/9 10/10/10
f 12/12/12 10/10/10 13/13/13
f 14/14/14 13/13/13 10/10/10
f 13/13/13 15/15/15 12/12/12
f 9/9/9 12/12/12 15/15/15
f 13/13/13 16/16/16 15/15/15
f 17/17/17 15/15/15 16/16/16
f 17/17/17 16/16/16 18/18/18
f 17/17/17 18/18/18 15/15/15
f 19/19/19 18/18/18 16/16/16
f 16/16/16 13/13/13 19/19/19
f 14/14/14 19/19/19 13/13/13
f 20/20/20 15/15/15 18/18/18
f 15/15/15 20/20/20 9/9/9
f 11/11/11 9/9/9 20/20/20
f 20/20/20 21/21/21 11/11/11
f 22/22/22 11/11/11 21/21/21
f 11/11/11 22/22/22 10/10/10
f 21/21/21 23/23/23 22/22/22
f 24/24/24 22/22/22 23/23/23
f 24/24/24 10/10/10 22/22/22
f 23/23/23 14/14/14 24/24/24
f 10/10/10 24/24/24 14/14/14
f 25/25/25 14/14/14 23/23/23
f 19/19/19 25/25/25 18/18/18
f 19/19/19 14/14/14 25/25/25
f 25/25/25 23/23/23 26/26/26
f 21/21/21 26/26/26 23/23/23
f 26/26/26 20/20/20 18/18/18
f 26/26/26 18/18/18 25/25/25
f 21/21/21 20/20/20 26/26/26
