g Area_Common_Build_Ruin_H_02_Lod0
v 0.6128524 -0.4636536 0.2761384
v 0.4097448 -0.4582152 -0.3134828
v -0.7481681 -0.4570725 -0.266414
v -0.9452962 -0.4595784 0.2645012
v -0.961466 -0.3840227 -0.2418924
v -0.8359553 -0.4452602 0.3591965
v 0.01027931 -0.3781466 0.3485389
v 0.9439453 -0.4548058 0.16314
v 0.7211955 -0.4217041 0.334255
v 0.7944722 -0.4466136 -0.3211067
v 0.9416512 -0.4121861 -0.305752
v 0.9416512 -0.4121861 -0.305752
v 0.9419938 0.04573757 0.2413295
v 0.9456636 0.150021 -0.1145623
v 0.9439453 -0.4548058 0.16314
v 0.7211955 -0.4217041 0.334255
v 0.7436455 -0.04711399 0.343208
v 0.6690291 0.2857808 0.1525833
v 0.7011466 0.4324295 -0.3302669
v 0.5230319 0.4903115 0.1287365
v 0.7436455 -0.04711399 0.343208
v 0.9143335 -0.1765099 -0.3822985
v 0.4469684 0.05900631 0.3255157
v 0.2992157 0.4023345 0.3618206
v 0.1880452 0.4906826 0.3334541
v 0.4469684 0.05900631 0.3255157
v -0.6187216 0.4369493 0.3634604
v 0.2992157 0.4023345 0.3618206
v 0.01027931 -0.3781466 0.3485389
v -0.8359553 -0.4452602 0.3591965
v -0.9516444 0.01164288 0.3568377
v -0.9621398 0.415256 0.1444776
v 0.7436455 -0.04711399 0.343208
v -0.9452962 -0.4595784 0.2645012
v 0.7211955 -0.4217041 0.334255
v 0.1880452 0.4906826 0.3334541
v -0.6187216 0.4369493 0.3634604
v -0.9621398 0.415256 0.1444776
v -0.898194 0.4860379 -0.3208762
v 0.1880452 0.4906826 0.3334541
v 0.7011466 0.4324295 -0.3302669
v 0.5230319 0.4903115 0.1287365
v -0.961466 -0.3840227 -0.2418924
v -0.9664903 0.2684626 -0.2646404
v -0.9621398 0.415256 0.1444776
v -0.9516444 0.01164288 0.3568377
v -0.9452962 -0.4595784 0.2645012
v -0.6798428 -0.4013579 -0.3380064
v 0.4097448 -0.4582152 -0.3134828
v 0.3465088 -0.3435556 -0.364663
v -0.7481681 -0.4570725 -0.266414
v 0.7011466 0.4324295 -0.3302669
v -0.898194 0.4860379 -0.3208762
v -0.961466 -0.3840227 -0.2418924
v 0.9143335 -0.1765099 -0.3822985
v -0.8847171 -0.210526 -0.3282866
v 0.7944722 -0.4466136 -0.3211067
v -0.8847171 -0.210526 -0.3282866
v -0.9664903 0.2684626 -0.2646404
v -0.961466 -0.3840227 -0.2418924
v -0.898194 0.4860379 -0.3208762
v -0.9621398 0.415256 0.1444776
v 0.7944722 -0.4466136 -0.3211067
v 0.9416512 -0.4121861 -0.305752
v 0.9143335 -0.1765099 -0.3822985
vt 0.4356557 0.4473675
vt 0.5371543 0.4194544
vt 0.5341755 0.2434575
vt 0.4444668 0.2109016
vt 0.5315873 0.2092114
vt 0.4248312 0.2271567
vt 0.4170525 0.3560479
vt 0.453521 0.496731
vt 0.4243373 0.4640019
vt 0.5367925 0.4777974
vt 0.5337086 0.5002913
vt 0.2602323 0.6020687
vt 0.3148554 0.5030338
vt 0.257921 0.5181406
vt 0.3347894 0.5722435
vt 0.3729671 0.5502257
vt 0.3509317 0.5024829
vt 0.279139 0.4595556
vt 0.1889478 0.4793762
vt 0.2514311 0.4311346
vt 0.3353755 0.4747218
vt 0.2328731 0.5759659
vt 0.3254151 0.4307361
vt 0.2896727 0.3931195
vt 0.2739486 0.3780445
vt 0.3447996 0.4052333
vt 0.2883333 0.2473091
vt 0.2961917 0.3838094
vt 0.4050367 0.3387445
vt 0.4116828 0.2126325
vt 0.3470761 0.1966242
vt 0.2812014 0.1843771
vt 0.3608959 0.448754
vt 0.4148273 0.1900126
vt 0.4135416 0.4443642
vt 0.2824779 0.3675748
vt 0.2768103 0.2458847
vt 0.2401384 0.1894239
vt 0.1594743 0.1990288
vt 0.2656032 0.3690377
vt 0.1547472 0.4364837
vt 0.2291542 0.4188934
vt 0.1320038 0.703303
vt 0.04728153 0.7479345
vt 0.0633027 0.8239889
vt 0.1341086 0.8231007
vt 0.1902454 0.7859246
vt 0.02251924 0.2244824
vt 0.003356114 0.3857983
vt 0.02306188 0.3776591
vt 0.01019418 0.2121762
vt 0.1350162 0.4293408
vt 0.1464705 0.194552
vt 0.02211147 0.1797222
vt 0.04316881 0.4635268
vt 0.04938691 0.1947446
vt 0.003637592 0.4436848
vt 0.09019363 0.6947263
vt 0.0358724 0.7447175
vt 0.1223535 0.6991595
vt 0.0007271912 0.7502632
vt 0.05222617 0.8223508
vt 0.00173546 0.463687
vt 0.00635801 0.4847471
vt 0.04175551 0.4787518
vn 0.01444925 -0.945496 0.3253131
vn 0.009753697 -0.9998519 -0.01417178
vn -0.1253735 -0.9907608 -0.05171528
vn -0.06198571 -0.9978473 0.02141375
vn -0.3345138 -0.9335736 -0.128611
vn -0.001704568 -0.9822098 0.1877793
vn 0.04273668 -0.4528766 0.8905483
vn 0.0737251 -0.9967119 0.03361784
vn 0.1070919 -0.8901589 0.4428865
vn 0.110599 -0.9925593 -0.05093015
vn 0.2356666 -0.9677395 -0.08911509
vn 0.9980757 0.0172044 -0.05957182
vn 0.7586452 0.3360601 0.5581409
vn 0.8999155 0.4317403 -0.06125661
vn 0.9138454 -0.05919021 0.4017251
vn 0.5638825 -0.1034697 0.8193476
vn 0.3268936 0.2636577 0.9075379
vn 0.5656732 0.5891981 0.5769399
vn 0.7886261 0.6148628 0.003567268
vn 0.6439331 0.5584297 0.5229784
vn 0.3268936 0.2636577 0.9075379
vn 0.9560614 0.1255052 -0.2649432
vn 0.3439509 0.3327722 0.8780436
vn 0.4656048 0.5101708 0.7231445
vn 0.3822211 0.6813757 0.6242069
vn -0.004278708 0.02337222 0.9997177
vn -0.1511682 0.1224574 0.9808936
vn 0.001766845 -0.0005180016 0.9999983
vn 0.02104053 0.008515397 0.9997423
vn -0.3088998 -0.08020554 0.9477067
vn -0.2087871 0.08638886 0.974138
vn -0.5125884 0.3893288 0.7652948
vn -0.001551446 0.01953778 0.9998079
vn -0.6347535 -0.156815 0.7566352
vn 0.01855075 -0.02500114 0.9995153
vn 0.01381074 0.3213884 0.9468468
vn -0.08281034 0.9910282 0.1049066
vn -0.1444602 0.9810177 0.1293653
vn -0.05748716 0.9967493 0.05644632
vn -0.006418844 0.9991328 -0.04113867
vn 0.001304167 0.9962571 -0.08643084
vn -0.0977742 0.9819726 -0.1617714
vn -0.9996288 -0.01394139 0.02341033
vn -0.9998863 -0.007238195 0.01322976
vn -0.9997544 -0.01032407 0.0196137
vn -0.9995443 -0.01490607 0.02624717
vn -0.9993943 -0.01915674 0.02905372
vn -0.09937435 -0.4204682 -0.9018488
vn -0.004589247 -0.4201072 -0.9074629
vn -0.01456455 -0.1813781 -0.9833055
vn -0.2138221 -0.6614771 -0.7188382
vn -0.03058692 0.04969354 -0.9982961
vn -0.01008386 0.01681906 -0.9998078
vn -0.3199452 -0.3759089 -0.869671
vn -0.01783839 -0.04481322 -0.9988361
vn -0.1427444 -0.1031104 -0.984374
vn 0.03349009 -0.2620516 -0.9644725
vn -0.7104981 -0.02786499 -0.7031472
vn -0.8095956 0.1002519 -0.5783636
vn -0.7168048 -0.0298068 -0.6966366
vn -0.9321584 0.2178626 -0.2891654
vn -0.9566509 0.2772113 -0.08929175
vn 0.1656125 -0.287227 -0.9434369
vn 0.1656124 -0.287227 -0.9434369
vn 0.1656124 -0.2872269 -0.9434369
g Area_Common_Build_Ruin_H_02_Lod0_0
f 3/3/3 2/2/2 1/1/1
f 3/3/3 1/1/1 4/4/4
f 5/5/5 3/3/3 4/4/4
f 1/1/1 6/6/6 4/4/4
f 6/6/6 1/1/1 7/7/7
f 2/2/2 8/8/8 1/1/1
f 1/1/1 8/8/8 9/9/9
f 7/7/7 1/1/1 9/9/9
f 10/10/10 8/8/8 2/2/2
f 10/10/10 11/11/11 8/8/8
f 14/14/14 13/13/13 12/12/12
f 15/15/15 12/12/12 13/13/13
f 15/15/15 13/13/13 16/16/16
f 17/17/17 16/16/16 13/13/13
f 18/18/18 13/13/13 14/14/14
f 18/18/18 14/14/14 19/19/19
f 18/18/18 19/19/19 20/20/20
f 18/18/18 21/21/21 13/13/13
f 12/12/12 22/22/22 14/14/14
f 19/19/19 14/14/14 22/22/22
f 23/23/23 21/21/21 18/18/18
f 24/24/24 23/23/23 18/18/18
f 18/18/18 20/20/20 24/24/24
f 25/25/25 24/24/24 20/20/20
f 28/28/28 27/27/27 26/26/26
f 29/29/29 26/26/26 27/27/27
f 30/30/30 29/29/29 27/27/27
f 30/30/30 27/27/27 31/31/31
f 32/32/32 31/31/31 27/27/27
f 33/33/33 26/26/26 29/29/29
f 31/31/31 34/34/34 30/30/30
f 35/35/35 33/33/33 29/29/29
f 27/27/27 28/28/28 36/36/36
f 39/39/39 38/38/38 37/37/37
f 37/37/37 40/40/40 39/39/39
f 41/41/41 39/39/39 40/40/40
f 40/40/40 42/42/42 41/41/41
f 45/45/45 44/44/44 43/43/43
f 45/45/45 43/43/43 46/46/46
f 47/47/47 46/46/46 43/43/43
f 50/50/50 49/49/49 48/48/48
f 51/51/51 48/48/48 49/49/49
f 50/50/50 48/48/48 52/52/52
f 53/53/53 52/52/52 48/48/48
f 51/51/51 54/54/54 48/48/48
f 52/52/52 55/55/55 50/50/50
f 48/48/48 54/54/54 56/56/56
f 56/56/56 53/53/53 48/48/48
f 50/50/50 55/55/55 57/57/57
f 49/49/49 50/50/50 57/57/57
f 60/60/60 59/59/59 58/58/58
f 61/61/61 58/58/58 59/59/59
f 61/61/61 59/59/59 62/62/62
f 65/65/65 64/64/64 63/63/63
