g Area_Ly_Build_Common_OutdoorsHouse_05_Ocl_Col
v -4.616265 8.358919 -1.145994
v -1.802537 8.422481 -1.236551
v -3.524718 5.504685 2.920504
v -0.6519476 5.863852 2.408791
v 0.6503699 8.153955 -0.8539775
v 1.890738 5.068244 3.542312
v 6.601957 6.658396 1.276783
v 8.070218 4.855649 3.845204
v 9.764695 5.443852 3.007176
v -4.975402 4.694268 4.075127
v -6.644978 5.517537 2.902194
v 1.722975 6.327312 -1.881104
v 1.358148 5.667128 -3.634209
v 6.092198 5.788392 -3.312195
v 3.125462 5.013125 -5.370898
v 3.346136 6.76671 -0.7142932
vn -1.680703E-07 0.8185047 0.5745
vn 0 0.8185045 0.5745
vn 0 0.8185046 0.5745
vn 0 0.8185045 0.5745
vn 0 0.8185045 0.5745
vn 0 0.8185045 0.5745
vn 0 0.8185046 0.5745
vn 0 0.8185047 0.5745
vn 0 0.8185047 0.5745
vn -1.733463E-07 0.8185047 0.5745
vn -3.498772E-07 0.8185047 0.5744998
vn 0 0.9358421 -0.3524196
vn 0 0.9358421 -0.3524196
vn 0 0.9358421 -0.3524196
vn 0 0.9358421 -0.3524196
vn 0 0.9358421 -0.3524195
g Area_Ly_Build_Common_OutdoorsHouse_05_Ocl_Col_0
f 3/3/3 2/2/2 1/1/1
f 3/3/3 4/4/4 2/2/2
f 5/5/5 2/2/2 4/4/4
f 4/4/4 6/6/6 5/5/5
f 7/7/7 5/5/5 6/6/6
f 6/6/6 8/8/8 7/7/7
f 9/9/9 7/7/7 8/8/8
f 10/10/10 3/3/3 1/1/1
f 11/11/11 10/10/10 1/1/1
f 14/14/14 13/13/13 12/12/12
f 15/15/15 13/13/13 14/14/14
f 16/16/16 14/14/14 12/12/12
