g Area_Common_Build_Arch_C_02_Lod2
v 2.867959 -0.05314688 -0.6229442
v 1.630857 -0.05314706 0.6141577
v 2.867959 -0.05314706 0.6141577
v 1.630858 -0.05314688 -0.6229442
v 1.630857 0.1924218 0.6141579
v 2.867959 -0.05314706 0.6141577
v 1.630857 -0.05314706 0.6141577
v 2.867959 0.1924218 0.6141579
v 2.867959 0.1924218 0.6141579
v 2.867959 -0.05314688 -0.6229442
v 2.867959 -0.05314706 0.6141577
v 2.867959 0.1924214 -0.6229439
v 2.867959 0.1924214 -0.6229439
v 1.630858 -0.05314688 -0.6229442
v 2.867959 -0.05314688 -0.6229442
v 1.630858 0.1924214 -0.6229439
v 1.630858 0.1924214 -0.6229439
v 1.630857 -0.05314706 0.6141577
v 1.630858 -0.05314688 -0.6229442
v 1.630857 0.1924218 0.6141579
v 1.851241 1.117082 0.3937749
v 1.840843 4.624494 -0.4129556
v 1.840843 4.624495 0.4041758
v 1.851242 1.117081 -0.4025596
v 1.851242 1.117081 -0.4025596
v 2.657975 4.624494 -0.4129556
v 1.840843 4.624494 -0.4129556
v 2.647575 1.117081 -0.4025597
v 2.647575 1.117081 -0.4025597
v 2.657975 4.624495 0.4041758
v 2.657975 4.624494 -0.4129556
v 2.647576 1.117082 0.3937749
v 2.647576 1.117082 0.3937749
v 1.840843 4.624495 0.4041758
v 2.657975 4.624495 0.4041758
v 1.851241 1.117082 0.3937749
v 1.840843 4.624494 -0.4129556
v 2.789569 5.960258 -0.5445492
v 1.709249 5.960258 -0.5445492
v 2.657975 4.624494 -0.4129556
v 2.657975 4.624494 -0.4129556
v 2.789569 5.960258 0.5357714
v 2.789569 5.960258 -0.5445492
v 2.657975 4.624495 0.4041758
v 2.657975 4.624495 0.4041758
v 1.709248 5.960258 0.5357714
v 2.789569 5.960258 0.5357714
v 1.840843 4.624495 0.4041758
v 1.840843 4.624495 0.4041758
v 1.709249 5.960258 -0.5445492
v 1.709248 5.960258 0.5357714
v 1.840843 4.624494 -0.4129556
v 2.789569 5.960258 -0.5445492
v 1.709248 5.960258 0.5357714
v 1.709249 5.960258 -0.5445492
v 2.789569 5.960258 0.5357714
v 1.630857 0.1924218 0.6141579
v 2.647576 1.117082 0.3937749
v 2.867959 0.1924218 0.6141579
v 1.851241 1.117082 0.3937749
v 2.867959 0.1924218 0.6141579
v 2.647575 1.117081 -0.4025597
v 2.867959 0.1924214 -0.6229439
v 2.647576 1.117082 0.3937749
v 2.867959 0.1924214 -0.6229439
v 1.851242 1.117081 -0.4025596
v 1.630858 0.1924214 -0.6229439
v 2.647575 1.117081 -0.4025597
v 1.851242 1.117081 -0.4025596
v 1.630857 0.1924218 0.6141579
v 1.630858 0.1924214 -0.6229439
v 1.851241 1.117082 0.3937749
v 2.028078 7.314455 0.3558263
v 2.499842 7.373185 -0.4127621
v 1.823345 7.285623 -0.4047604
v 2.585778 7.445799 0.3534296
v 2.482427 8.533005 0.2876258
v 2.499842 7.373185 -0.4127621
v 2.585778 7.445799 0.3534296
v 2.346158 8.339591 -0.4358679
v 2.585778 7.445799 0.3534296
v 2.110395 8.495409 0.405791
v 2.482427 8.533005 0.2876258
v 1.721603 8.046513 0.4136773
v 2.028078 7.314455 0.3558263
v 1.823345 7.285623 -0.4047604
v 1.721603 8.046513 0.4136773
v 2.028078 7.314455 0.3558263
v 1.724717 7.912601 -0.3900103
v 1.749714 8.261369 0.4073702
v 1.666343 8.149708 -0.2064576
v 1.203154 9.269235 -0.05268674
v 1.29111 9.201591 0.5662922
v 1.203154 9.269235 -0.05268674
v 1.806792 9.594211 0.2318951
v 1.29111 9.201591 0.5662922
v 1.763235 9.594715 -0.2171006
v 1.666343 8.149708 -0.2064576
v 2.183593 8.600573 -0.3520831
v 1.203154 9.269235 -0.05268674
v 1.763235 9.594715 -0.2171006
v 2.650077 7.229763 -0.3750177
v 1.827858 7.305625 -0.4235769
v 1.917486 5.993536 -0.3700486
v 2.659901 5.985636 -0.3784359
v 2.669028 6.211603 0.4768245
v 2.400995 5.933987 0.4487207
v 1.806886 5.957598 0.4880586
v 2.609807 6.83254 0.5130329
v 1.761865 7.189004 0.4085558
v 2.669028 6.211603 0.4768245
v 2.692095 5.94819 0.07236739
v 2.400995 5.933987 0.4487207
v 2.570538 7.327448 0.02601112
v 1.761865 7.189004 0.4085558
v 1.827858 7.305625 -0.4235769
v 2.650077 7.229763 -0.3750177
v 2.609807 6.83254 0.5130329
v 1.917486 5.993536 -0.3700486
v 1.761865 7.189004 0.4085558
v 1.806886 5.957598 0.4880586
v 1.827858 7.305625 -0.4235769
v 1.724717 7.912601 -0.3900103
v 2.499842 7.373185 -0.4127621
v 2.346158 8.339591 -0.4358679
v 1.96943 8.311636 -0.4063758
v 1.823345 7.285623 -0.4047604
v 2.692095 5.94819 0.07236739
v 2.669028 6.211603 0.4768245
v 2.659901 5.985636 -0.3784359
v 2.650077 7.229763 -0.3750177
v 2.570538 7.327448 0.02601112
v 2.609807 6.83254 0.5130329
v 1.666343 8.149708 -0.2064576
v 2.283009 8.716104 0.0788635
v 2.183593 8.600573 -0.3520831
v 1.749714 8.261369 0.4073702
v 1.724717 7.912601 -0.3900103
v 1.96943 8.311636 -0.4063758
v 1.721603 8.046513 0.4136773
v 2.110395 8.495409 0.405791
v 2.143415 8.57599 -0.1691548
v 2.235973 8.914302 0.2970123
v 1.763235 9.594715 -0.2171006
v 2.183593 8.600573 -0.3520831
v 1.806792 9.594211 0.2318951
v 2.283009 8.716104 0.0788635
v 1.806792 9.594211 0.2318951
v 2.235973 8.914302 0.2970123
v 1.29111 9.201591 0.5662922
v 1.749714 8.261369 0.4073702
v 2.346158 8.339591 -0.4358679
v 2.143415 8.57599 -0.1691548
v 1.96943 8.311636 -0.4063758
v 2.482427 8.533005 0.2876258
v 2.110395 8.495409 0.405791
v 1.749714 8.261369 0.4073702
v 2.235973 8.914302 0.2970123
v 2.283009 8.716104 0.0788635
vt 0.5109102 1.429795
vt 0.6225069 1.320852
vt 0.5109076 1.320858
vt 0.6225045 1.429801
vt 0.5179797 1.483472
vt 0.5869215 1.469555
vt 0.5179797 1.469555
vt 0.5869215 1.483472
vt 0.645246 1.483472
vt 0.7141358 1.469555
vt 0.645246 1.469555
vt 0.7141358 1.483472
vt 0.5185019 1.451187
vt 0.587178 1.436325
vt 0.5185019 1.436325
vt 0.587178 1.451187
vt 0.6454254 1.451187
vt 0.7141412 1.436325
vt 0.6454254 1.436325
vt 0.7141412 1.451187
vt 0.54758 1.313796
vt 0.5115599 1.433003
vt 0.5501358 1.433003
vt 0.5137763 1.313796
vt 0.5478309 1.313796
vt 0.5115599 1.433003
vt 0.5501358 1.433003
vt 0.514027 1.313796
vt 0.5478309 1.313796
vt 0.5115599 1.433003
vt 0.5501361 1.433003
vt 0.514027 1.313796
vt 0.5478309 1.313796
vt 0.5115599 1.433003
vt 0.5501358 1.433003
vt 0.514027 1.313796
vt 0.8048331 1.341571
vt 0.7589767 1.400292
vt 0.8093198 1.400291
vt 0.7608261 1.341571
vt 0.8048331 1.341571
vt 0.7589767 1.400292
vt 0.8093198 1.400291
vt 0.7608261 1.341571
vt 0.8048331 1.341571
vt 0.7589767 1.400292
vt 0.8093198 1.400291
vt 0.7608261 1.341571
vt 0.8048331 1.341571
vt 0.7589767 1.400292
vt 0.8093198 1.400291
vt 0.7608261 1.341571
vt 0.5109076 1.320858
vt 0.6225045 1.429801
vt 0.6225069 1.320852
vt 0.5109102 1.429795
vt 0.7295978 1.186785
vt 0.6834379 1.155466
vt 0.6701224 1.186785
vt 0.7174867 1.155778
vt 0.7295978 1.186785
vt 0.6834379 1.155466
vt 0.6701224 1.186785
vt 0.7174866 1.155778
vt 0.7295978 1.186785
vt 0.6834379 1.155466
vt 0.6701224 1.186785
vt 0.7174866 1.155778
vt 0.717457 1.155742
vt 0.6701224 1.186785
vt 0.7295978 1.186785
vt 0.6832873 1.155475
vt 0.405414 1.171271
vt 0.3858562 1.202929
vt 0.4139042 1.202629
vt 0.3817428 1.17138
vt 0.3775986 1.145386
vt 0.3376793 1.174448
vt 0.3358216 1.148141
vt 0.3746613 1.171276
vt 0.4359881 1.245011
vt 0.4348084 1.206291
vt 0.4474192 1.210089
vt 0.4169471 1.21516
vt 0.4170035 1.241881
vt 0.3772594 1.243907
vt 0.4117928 1.214877
vt 0.379903 1.212328
vt 0.4026673 1.246338
vt 0.3555862 1.113903
vt 0.3842798 1.120111
vt 0.3840707 1.05208
vt 0.3567574 1.052288
vt 0.440803 1.081793
vt 0.4290939 1.104354
vt 0.4535763 1.099151
vt 0.4201584 1.091713
vt 0.2522723 1.111628
vt 0.2857083 1.106099
vt 0.2522723 1.051127
vt 0.2857083 1.04941
vt 0.355511 1.113734
vt 0.3842753 1.120229
vt 0.3836609 1.052098
vt 0.3567029 1.052296
vt 0.3183301 1.061429
vt 0.3095839 1.047384
vt 0.2903456 1.049773
vt 0.3156572 1.092064
vt 0.2892182 1.108841
vt 0.3241005 1.060963
vt 0.3377722 1.04934
vt 0.3224407 1.046532
vt 0.3113104 1.128348
vt 0.3400234 1.135419
vt 0.317562 1.153288
vt 0.3002728 1.136181
vt 0.331854 1.108995
vt 0.2522723 1.051127
vt 0.2857083 1.106099
vt 0.2857083 1.04941
vt 0.2522723 1.111628
vt 0.3768078 1.196774
vt 0.3363984 1.17971
vt 0.341623 1.209399
vt 0.3673607 1.207024
vt 0.372042 1.178314
vt 0.3377722 1.04934
vt 0.3241005 1.060963
vt 0.3531746 1.050417
vt 0.3532413 1.10615
vt 0.3409887 1.107157
vt 0.3227378 1.088542
vt 0.317562 1.153288
vt 0.3296824 1.120247
vt 0.3390639 1.135992
vt 0.3002728 1.136181
vt 0.3737555 1.245205
vt 0.3718041 1.229805
vt 0.3467581 1.24579
vt 0.3437821 1.226082
vt 0.3621331 1.221883
vt 0.3156572 1.092064
vt 0.2903456 1.049773
vt 0.2892182 1.108841
vt 0.3100375 1.047705
vt 0.3069642 1.104465
vt 0.3232042 1.04828
vt 0.3227378 1.088542
vt 0.3528087 1.053011
vt 0.3532413 1.10615
vt 0.3740615 1.21647
vt 0.3621331 1.221883
vt 0.3718041 1.229805
vt 0.3474548 1.211339
vt 0.3437821 1.226082
vt 0.3532413 1.10615
vt 0.3227378 1.088542
vt 0.3260316 1.097448
vn 0 -1 -1.387609E-07
vn 0 -1 -1.387609E-07
vn 0 -1 -1.387609E-07
vn 0 -1 -1.387609E-07
vn 0 -7.767063E-07 1
vn 0 -7.767063E-07 1
vn 0 -7.767063E-07 1
vn 0 -7.767063E-07 1
vn 1 0 0
vn 1 0 0
vn 1 0 0
vn 1 0 0
vn 0 1.223354E-06 -1
vn 0 1.10677E-06 -1
vn 0 1.242733E-06 -1
vn 0 1.087392E-06 -1
vn -1 0 -4.933721E-07
vn -1 0 -4.933721E-07
vn -1 0 -4.933721E-07
vn -1 0 -4.933721E-07
vn -0.9999956 -0.002964678 -1.305599E-06
vn -0.9999956 -0.002964427 -2.155926E-07
vn -0.9999956 -0.002964377 0
vn -0.9999956 -0.002964729 -1.528351E-06
vn 0 -0.002963964 -0.9999956
vn 0 -0.002963973 -0.9999956
vn 0 -0.002963974 -0.9999956
vn 0 -0.002963963 -0.9999956
vn 0.9999956 -0.002964772 -1.305355E-06
vn 0.9999956 -0.002965022 -2.155518E-07
vn 0.9999956 -0.002965073 0
vn 0.9999956 -0.00296472 -1.528067E-06
vn 0 -0.002965396 0.9999956
vn 0 -0.002965381 0.9999956
vn 0 -0.002965377 0.9999956
vn 0 -0.002965399 0.9999956
vn 0 -0.09804103 -0.9951823
vn 0 -0.09804103 -0.9951823
vn 0 -0.09804102 -0.9951823
vn 0 -0.09804103 -0.9951823
vn 0.9951823 -0.09804153 0
vn 0.9951823 -0.09804151 0
vn 0.9951823 -0.09804151 0
vn 0.9951823 -0.09804155 0
vn 0 -0.09804255 0.9951822
vn 0 -0.09804256 0.9951822
vn 0 -0.09804255 0.9951822
vn 0 -0.09804256 0.9951822
vn -0.9951822 -0.09804213 -1.983335E-07
vn -0.9951822 -0.09804223 -3.389728E-07
vn -0.9951822 -0.09804237 -5.622506E-07
vn -0.9951822 -0.09804195 0
vn 0 1 0
vn 0 1 0
vn 0 1 0
vn 0 1 0
vn 0 0.2318453 0.9727526
vn 0 0.2318453 0.9727526
vn 0 0.2318453 0.9727526
vn 0 0.2318454 0.9727526
vn 0.9727524 0.2318463 -8.666656E-07
vn 0.9727524 0.2318463 -8.268637E-07
vn 0.9727523 0.2318471 0
vn 0.9727527 0.2318452 -1.868743E-06
vn 0 0.2318467 -0.9727523
vn 0 0.2318467 -0.9727523
vn 0 0.2318468 -0.9727523
vn 0 0.2318467 -0.9727523
vn -0.9727525 0.231846 -1.096909E-06
vn -0.9727525 0.231846 -1.125546E-06
vn -0.9727524 0.2318466 -5.585698E-07
vn -0.9727527 0.2318452 -1.846531E-06
vn 0.1844299 -0.9821047 0.03815825
vn 0.1693025 -0.9851479 0.02864039
vn 0.1283995 -0.9917179 0.003031854
vn 0.2290045 -0.9711612 0.06635463
vn 0.9766819 0.1215381 -0.1769772
vn 0.9811674 0.1104334 -0.1584766
vn 0.9890725 0.08681042 -0.1191611
vn 0.9639489 0.148007 -0.2211255
vn 0.08577244 -0.02545181 0.9959896
vn 0.1795221 0.03225841 0.9832249
vn 0.2937456 0.08554722 0.9520479
vn 0.04263178 -0.03879754 0.9983373
vn 0.02079695 -0.07010699 0.9973227
vn -0.9507579 -0.2768982 0.1392367
vn -0.970163 0.2365939 0.05298173
vn -0.8851163 -0.3905514 0.2530586
vn -0.9865322 0.1606809 -0.03059527
vn -0.896512 -0.4129981 0.1603086
vn -0.8967483 -0.3976831 0.1941406
vn -0.8944203 -0.4316801 0.1168963
vn -0.8908334 -0.4476424 0.07766581
vn -0.514823 0.8483998 0.1231873
vn -0.5081853 0.8552746 0.1012573
vn -0.5269794 0.8335145 0.1659708
vn -0.4911473 0.8697184 0.04862333
vn -0.2828338 0.0147111 -0.9590561
vn -0.2839579 0.01292565 -0.9587495
vn -0.2851894 0.01096722 -0.9584085
vn -0.2864484 0.008962319 -0.9580538
vn 0.03385462 -0.0240784 -0.9991367
vn 0.0555215 -0.03691277 -0.9977749
vn 0.01318645 -0.01183323 -0.999843
vn -0.01126817 0.002658276 -0.999933
vn 0.036168 -0.07869988 0.996242
vn 0.05904512 -0.1568085 0.9858624
vn -0.02460146 -0.02089643 0.999479
vn -0.04584734 0.01356204 0.9988563
vn -0.09693133 0.06059553 0.9934448
vn 0.6177658 -0.6423598 0.4535848
vn 0.6177658 -0.6423599 0.4535848
vn 0.6177659 -0.6423599 0.4535848
vn 0.08700904 0.9705235 0.2247525
vn 0.02925924 0.918528 0.3942718
vn -0.0433426 0.9987928 0.02311515
vn 0.102356 0.9709656 -0.2162154
vn 0.2070594 0.6945018 0.6890527
vn -0.9919408 -0.05468822 -0.1142923
vn -0.9926975 -0.06172335 -0.1036419
vn -0.9905716 -0.04457919 -0.1295401
vn -0.9934802 -0.0714872 -0.08880685
vn -0.04401086 -0.007644975 -0.9990018
vn -0.03395048 -0.006632471 -0.9994016
vn 0.07323158 0.4568938 -0.8865017
vn -0.09443667 0.2583543 -0.9614233
vn -0.01457159 0.02122572 -0.9996685
vn 0.9835027 0.1720252 -0.05594611
vn 0.9975017 0.06977417 0.01104111
vn 0.9988645 0.04233765 -0.02184564
vn 0.99108 0.0958845 0.09255632
vn 0.9815655 0.1394452 0.1307068
vn 0.9954501 0.0940474 0.01530549
vn 0.6641038 -0.7462235 0.04600776
vn 0.7191284 -0.6259972 0.3016319
vn 0.6638318 -0.7464063 0.04695893
vn 0.695526 -0.7006254 0.1592717
vn -0.9865322 0.1606809 -0.03059527
vn -0.8259449 0.5624078 -0.03889073
vn -0.970163 0.2365939 0.05298173
vn -0.7797191 0.6260974 -0.00633778
vn -0.8456494 0.5330979 0.02614895
vn 0.8570372 0.4571288 -0.23774
vn 0.8633718 0.4781838 -0.161026
vn 0.8583832 0.4313214 -0.2777413
vn 0.8463122 0.5264142 -0.08150789
vn 0.7761701 0.5408755 -0.324058
vn 0.3452756 0.303019 0.8882366
vn 0.3008845 0.100695 0.9483296
vn 0.3118407 0.1455483 0.9389202
vn 0.264356 -0.03396904 0.9638267
vn 0.07323158 0.4568938 -0.8865017
vn 0.2480557 0.8958879 -0.3685831
vn -0.09443667 0.2583543 -0.9614233
vn 0.1290238 0.9916385 -0.002441859
vn -0.05696717 0.989157 0.1353628
vn 0.695526 -0.7006254 0.1592717
vn 0.7115246 -0.4368758 0.5503383
vn 0.7191284 -0.6259972 0.3016319
g Area_Common_Build_Arch_C_02_Lod2_0
f 3/3/3 2/2/2 1/1/1
f 4/4/4 1/1/1 2/2/2
f 7/7/7 6/6/6 5/5/5
f 8/8/8 5/5/5 6/6/6
f 11/11/11 10/10/10 9/9/9
f 12/12/12 9/9/9 10/10/10
f 15/15/15 14/14/14 13/13/13
f 16/16/16 13/13/13 14/14/14
f 19/19/19 18/18/18 17/17/17
f 20/20/20 17/17/17 18/18/18
f 23/23/23 22/22/22 21/21/21
f 24/24/24 21/21/21 22/22/22
f 27/27/27 26/26/26 25/25/25
f 28/28/28 25/25/25 26/26/26
f 31/31/31 30/30/30 29/29/29
f 32/32/32 29/29/29 30/30/30
f 35/35/35 34/34/34 33/33/33
f 36/36/36 33/33/33 34/34/34
f 39/39/39 38/38/38 37/37/37
f 40/40/40 37/37/37 38/38/38
f 43/43/43 42/42/42 41/41/41
f 44/44/44 41/41/41 42/42/42
f 47/47/47 46/46/46 45/45/45
f 48/48/48 45/45/45 46/46/46
f 51/51/51 50/50/50 49/49/49
f 52/52/52 49/49/49 50/50/50
f 55/55/55 54/54/54 53/53/53
f 56/56/56 53/53/53 54/54/54
f 59/59/59 58/58/58 57/57/57
f 60/60/60 57/57/57 58/58/58
f 63/63/63 62/62/62 61/61/61
f 64/64/64 61/61/61 62/62/62
f 67/67/67 66/66/66 65/65/65
f 68/68/68 65/65/65 66/66/66
f 71/71/71 70/70/70 69/69/69
f 72/72/72 69/69/69 70/70/70
f 75/75/75 74/74/74 73/73/73
f 76/76/76 73/73/73 74/74/74
f 79/79/79 78/78/78 77/77/77
f 77/77/77 78/78/78 80/80/80
f 83/83/83 82/82/82 81/81/81
f 82/82/82 84/84/84 81/81/81
f 85/85/85 81/81/81 84/84/84
f 88/88/88 87/87/87 86/86/86
f 86/86/86 87/87/87 89/89/89
f 92/92/92 91/91/91 90/90/90
f 90/90/90 93/93/93 92/92/92
f 96/96/96 95/95/95 94/94/94
f 97/97/97 94/94/94 95/95/95
f 100/100/100 99/99/99 98/98/98
f 101/101/101 99/99/99 100/100/100
f 104/104/104 103/103/103 102/102/102
f 104/104/104 102/102/102 105/105/105
f 108/108/108 107/107/107 106/106/106
f 106/106/106 109/109/109 108/108/108
f 110/110/110 108/108/108 109/109/109
f 113/113/113 112/112/112 111/111/111
f 116/116/116 115/115/115 114/114/114
f 117/117/117 116/116/116 114/114/114
f 118/118/118 114/114/114 115/115/115
f 121/121/121 120/120/120 119/119/119
f 122/122/122 119/119/119 120/120/120
f 125/125/125 124/124/124 123/123/123
f 125/125/125 123/123/123 126/126/126
f 127/127/127 123/123/123 124/124/124
f 130/130/130 129/129/129 128/128/128
f 130/130/130 131/131/131 129/129/129
f 131/131/131 132/132/132 129/129/129
f 133/133/133 129/129/129 132/132/132
f 136/136/136 135/135/135 134/134/134
f 137/137/137 134/134/134 135/135/135
f 140/140/140 139/139/139 138/138/138
f 141/141/141 139/139/139 140/140/140
f 141/141/141 142/142/142 139/139/139
f 145/145/145 144/144/144 143/143/143
f 146/146/146 143/143/143 144/144/144
f 143/143/143 147/147/147 145/145/145
f 150/150/150 149/149/149 148/148/148
f 151/151/151 149/149/149 150/150/150
f 154/154/154 153/153/153 152/152/152
f 153/153/153 155/155/155 152/152/152
f 153/153/153 156/156/156 155/155/155
f 159/159/159 158/158/158 157/157/157
