g Area_Ly_Build_Common_Archway_03_A_Col
v -1.027979 3.368912 -0.1531477
v -2.833655 3.393255 0.1178454
v -1.027979 3.380685 0.1178415
v -2.833655 3.393255 -0.1531439
v -0.4553166 3.790932 -0.220196
v -0.4553176 3.796819 0.2032938
v -2.946584 3.761022 -0.2201922
v -2.946584 3.761022 0.2032976
v -3.195642 4.128788 -0.2201922
v -0.411507 4.212953 -0.220196
v -0.4115089 4.212954 0.2032938
v -3.195642 4.128788 0.2032976
v -1.057908 4.33276 0.8920134
v -0.8831257 3.959224 0.8920134
v -1.057908 3.959224 0.8920134
v -0.8831257 4.33276 0.8920134
v -0.8831257 4.145621 -0.008449216
v -1.057906 4.145621 -0.008449216
v -1.057908 4.759717 -0.008449116
v -1.057908 4.349198 -0.9089119
v -1.057908 3.959229 -0.9089119
v -0.8831257 3.959228 -0.9089119
v -0.8831257 4.349198 -0.9089119
v -0.8831257 4.759717 -0.008449116
v -1.776806 0.7221425 0.279665
v -1.674991 0.003980248 -0.4028516
v -1.67499 0.003980187 0.3816589
v -1.776806 0.7221426 -0.3008576
v -2.356311 0.7221425 0.2796651
v -2.458126 0.003980187 0.3816587
v -2.356311 0.7221426 -0.3008574
v -2.458126 0.003980248 -0.4028516
v -2.231339 3.98051 0.1553726
v -1.840126 0.6777837 0.2091682
v -2.286119 0.6777838 0.2089357
v -1.894397 3.98051 0.1554456
v -2.231525 3.98051 -0.1834921
v -2.286713 0.6777837 -0.2375299
v -1.894584 3.98051 -0.1834193
v -1.840602 0.6777837 -0.2373441
v -2.136309 0.438155 -1.080921
v -2.006639 0.5644235 -1.112424
v -2.136309 0.5644231 -1.112424
v -2.006639 0.4381554 -1.080917
v -2.136306 0.4381559 1.194781
v -2.006639 0.438156 1.194781
v -2.136306 0.5644237 1.226438
v -2.00664 0.5644238 1.226434
v -1.890508 2.793689 0.05105652
v -1.524453 3.184061 -0.06795947
v -1.890508 2.793689 -0.06795952
v -1.524453 3.18406 0.05105658
v -1.523143 3.436571 -0.06795943
v -1.523143 3.436571 0.05105662
v -1.964028 3.426836 0.05105663
v -1.964058 2.825205 0.05105655
v -1.964028 3.426836 -0.06796329
v -1.964058 2.825205 -0.06796334
v -1.992255 3.623323 0.3437266
v -2.15571 3.900475 0.3942921
v -1.992427 3.900475 0.3973592
v -2.15576 3.623562 0.3450493
v -2.15576 3.623562 -0.3408112
v -2.15571 3.900475 -0.4056329
v -1.992428 3.900475 -0.4057443
v -1.992255 3.623323 -0.3394885
v 1.051889 3.377975 -0.1462312
v 2.896132 3.402318 0.1186809
v 2.896132 3.402318 -0.1462274
v 1.051889 3.389748 0.1186771
v 0.455841 3.795464 -0.220196
v 0.455842 3.801351 0.2032938
v 2.945638 3.765553 -0.2201922
v 2.945638 3.765553 0.2032976
v 3.195642 4.215148 -0.2201922
v 0.411507 4.212953 -0.220196
v 0.4115089 4.212954 0.2032938
v 3.195642 4.215148 0.2032976
v 1.057908 4.33276 0.8920134
v 0.8831257 3.959224 0.8920134
v 0.8831257 4.33276 0.8920134
v 1.057908 3.959224 0.8920134
v 0.8831257 4.145621 -0.008449216
v 1.057906 4.145621 -0.008449216
v 1.057908 4.759717 -0.008449116
v 1.057908 3.959229 -0.9089119
v 1.057908 4.349198 -0.9089119
v 0.8831257 3.959228 -0.9089119
v 0.8831257 4.349198 -0.9089119
v 0.8831257 4.759717 -0.008449116
v 1.776806 0.7221425 0.279665
v 1.674991 0.003980248 -0.4028516
v 1.776806 0.7221426 -0.3008576
v 1.67499 0.003980187 0.3816589
v 2.356311 0.7221425 0.2796651
v 2.458126 0.003980187 0.3816587
v 2.356311 0.7221426 -0.3008574
v 2.458126 0.003980248 -0.4028516
v 2.231339 3.98051 0.1553726
v 1.840126 0.6777837 0.2091682
v 1.894397 3.98051 0.1554456
v 2.286119 0.6777838 0.2089357
v 2.231525 3.98051 -0.1834921
v 2.286713 0.6777837 -0.2375299
v 1.894584 3.98051 -0.1834193
v 1.840602 0.6777837 -0.2373441
v 2.136309 0.4518334 -1.177855
v 2.006639 0.5781019 -1.209358
v 2.006639 0.4518338 -1.177851
v 2.136309 0.5781015 -1.209358
v 2.136306 0.4381559 1.089881
v 2.006639 0.438156 1.089881
v 2.136306 0.5644237 1.121537
v 2.00664 0.5644238 1.121534
v 1.90945 2.793689 0.05105652
v 1.560559 3.184061 -0.06795947
v 1.560559 3.18406 0.05105659
v 1.90945 2.793689 -0.06795952
v 1.561194 3.436571 -0.06795944
v 1.561194 3.436571 0.05105662
v 1.982999 2.825205 0.05105656
v 1.98297 3.426836 0.05105663
v 1.982999 2.825205 -0.06796334
v 1.98297 3.426836 -0.06796329
v 1.965727 1.937613 0.02408622
v 2.209611 1.780496 0.3209294
v 1.965631 1.780496 0.3207471
v 2.170283 1.937613 0.02408623
v 1.965159 0.02320839 1.205825
v 1.96576 1.780496 -0.3332457
v 2.209672 1.780496 -0.3330633
v 2.210083 0.02320839 1.205825
v 1.964772 0.02320824 -1.218141
v 2.209898 0.02320824 -1.218141
v 1.992255 3.623323 0.3437266
v 2.15571 3.900475 0.3942921
v 2.15576 3.623562 0.3450493
v 1.992427 3.900475 0.3973592
v 2.15576 3.623562 -0.3408112
v 2.15571 3.900475 -0.4056329
v 1.992255 3.623323 -0.3394885
v 1.992428 3.900475 -0.4057443
v -2.549205 5.558502 0.1402779
v -2.934894 6.052867 -0.1234644
v -2.934894 6.045923 0.09994852
v -2.549205 5.558502 -0.1307787
v -2.416601 5.963523 -0.1234644
v -2.416601 5.970468 0.09994848
v 2.549208 5.561147 0.1402779
v 2.549208 5.561147 -0.1307787
v 2.416599 5.963853 -0.1234644
v 2.416599 5.958265 0.09994848
v 2.931798 6.049307 -0.1234644
v 2.931798 6.049307 0.09994855
v -3.488581 4.105158 0.2348378
v -3.808954 4.897685 -0.1883572
v -3.808954 4.890741 0.1677163
v -3.488581 4.105158 -0.2028559
v 3.494189 4.182864 0.2348379
v 3.494189 4.182864 -0.2028559
v -3.354985 4.830529 -0.1883572
v -3.354985 4.837475 0.1677163
v 3.402051 4.829854 0.1677163
v 3.402051 4.835441 -0.1883572
v 3.794828 4.894125 -0.1883572
v 3.794828 4.894125 0.1677164
v -2.180655 1.947199 0.02408604
v -1.975896 1.790082 0.3209294
v -2.18066 1.790083 0.3207471
v -1.975878 1.947199 0.02408605
v -2.180688 0.02320824 1.205825
v -1.975343 0.02320824 1.205825
v -2.180653 1.790082 -0.3332457
v -1.975824 1.790083 -0.3330633
v -1.975559 0.02320839 -1.218141
v -2.180711 0.02320839 -1.218141
v 2.209898 0.02320824 -1.218141
v 2.209611 1.780496 0.3209294
v 2.209672 1.780496 -0.3330633
v 2.210083 0.02320839 1.205825
v -2.180655 1.947199 0.02408604
v -2.18066 1.790083 0.3207471
v -2.180653 1.790082 -0.3332457
v -2.180711 0.02320839 -1.218141
v -2.180688 0.02320824 1.205825
v -1.975824 1.790083 -0.3330633
v -1.975343 0.02320824 1.205825
v -1.975896 1.790082 0.3209294
v -1.975559 0.02320839 -1.218141
v -1.975878 1.947199 0.02408605
v 1.965159 0.02320839 1.205825
v 1.964772 0.02320824 -1.218141
v 1.965631 1.780496 0.3207471
v 1.96576 1.780496 -0.3332457
v 1.965727 1.937613 0.02408622
v 2.209672 1.780496 -0.3330633
v 2.209611 1.780496 0.3209294
v 2.170283 1.937613 0.02408623
vn 0.2335358 -0.7924167 -0.563504
vn -0.4867085 -0.7073411 0.5126241
vn 0.2288401 -0.7834433 0.5777965
vn -0.4858351 -0.6948937 -0.5301765
vn 0.6669976 -0.4019931 -0.6273085
vn 0.662605 -0.3992671 0.6336721
vn -0.5760996 -0.3315321 -0.7471249
vn -0.5683706 -0.3432068 0.7477726
vn -0.6973101 -0.4722303 -0.5392191
vn 0.7340663 -0.07673691 -0.6747282
vn 0.7340807 -0.07728069 0.6746504
vn -0.6973094 -0.4722299 0.5392203
vn -0.6042748 0.4259465 0.6733658
vn 0.5673692 -0.6385703 0.5199232
vn -0.5673694 -0.6385704 0.5199229
vn 0.604275 0.4259464 0.6733658
vn 0.7557038 -0.6549135 -1.605149E-06
vn -0.7557023 -0.6549153 -2.049258E-06
vn -0.6233799 0.7818971 0.00586797
vn -0.6032414 0.4314117 -0.6708084
vn -0.5673716 -0.6385672 -0.5199244
vn 0.567368 -0.6385707 -0.519924
vn 0.6032408 0.4314118 -0.6708087
vn 0.6233791 0.7818977 0.005868173
vn 0.5370727 0.6505449 0.5369769
vn 0.6932379 0.1967497 -0.6933331
vn 0.693238 0.1967497 0.693333
vn 0.5370725 0.650545 -0.5369769
vn -0.5370727 0.6505447 0.5369772
vn -0.693238 0.196749 0.6933331
vn -0.5370729 0.650545 -0.5369766
vn -0.6932378 0.1967494 -0.6933333
vn -0.7067215 0.02321644 0.7071107
vn 0.7071411 0.02305962 0.7066962
vn -0.7067318 0.02324264 0.7070996
vn 0.7069992 0.02311496 0.7068365
vn -0.706979 0.02331046 -0.7068503
vn -0.7073152 0.02336529 -0.706512
vn 0.706784 0.02315881 -0.7070502
vn 0.706695 0.02309645 -0.7071412
vn -0.5913041 -0.6355285 -0.4964504
vn 0.5655725 0.5076806 -0.649914
vn -0.5655715 0.5076837 -0.6499123
vn 0.5913188 -0.6355321 -0.4964283
vn -0.5913761 -0.6357675 0.4960584
vn 0.5913784 -0.6357627 0.4960621
vn -0.5655124 0.5073316 0.6502388
vn 0.565527 0.5073425 0.6502174
vn 0.4620145 -0.433235 0.773854
vn 0.7188694 -0.2864787 -0.6333693
vn 0.4620329 -0.4332315 -0.773845
vn 0.718868 -0.28648 0.6333703
vn 0.7132628 -0.003699282 -0.700887
vn 0.7132598 -0.003699462 0.7008901
vn 0 -1.561807E-07 1
vn 3.994784E-07 -1.268312E-07 1
vn 1.012292E-05 -3.113387E-06 -1
vn 5.203176E-05 0 -1
vn 0.5883936 -0.6225433 0.5159776
vn -0.5724326 0.5271593 0.6280317
vn 0.5624076 0.5225605 0.6408027
vn -0.5857045 -0.6197397 0.5223725
vn -0.5894557 -0.6322942 -0.5027384
vn -0.5663586 0.5122195 -0.6456539
vn 0.566094 0.5115966 -0.6463795
vn 0.5923511 -0.6338369 -0.497364
vn -0.2238435 -0.7992671 -0.5577333
vn 0.5464912 -0.6670682 0.5063273
vn 0.5456859 -0.6603555 -0.5159044
vn -0.2194941 -0.7843544 0.5801813
vn -0.6624646 -0.4119188 -0.6256704
vn -0.6592878 -0.407817 0.6316842
vn 0.5944386 -0.2681255 -0.7581236
vn 0.5898268 -0.2768807 0.7585785
vn 0.7239102 -0.4025415 -0.5602806
vn -0.727248 -0.0777714 -0.6819545
vn -0.7272624 -0.07833242 0.681875
vn 0.7239095 -0.4025413 0.5602816
vn 0.6042749 0.4259464 0.6733658
vn -0.5673693 -0.6385704 0.5199232
vn -0.6042749 0.4259465 0.6733658
vn 0.5673694 -0.6385704 0.5199229
vn -0.7557038 -0.6549135 -1.608321E-06
vn 0.7557021 -0.6549155 -1.605146E-06
vn 0.6233796 0.7818972 0.00586818
vn 0.5673712 -0.6385674 -0.5199246
vn 0.6032408 0.4314118 -0.6708088
vn -0.567368 -0.6385707 -0.5199241
vn -0.6032408 0.4314119 -0.6708087
vn -0.6233791 0.7818977 0.005868162
vn -0.5370727 0.6505449 0.5369769
vn -0.6932379 0.1967497 -0.6933331
vn -0.5370725 0.650545 -0.5369769
vn -0.693238 0.1967497 0.693333
vn 0.5370727 0.6505447 0.5369772
vn 0.693238 0.196749 0.6933331
vn 0.5370729 0.650545 -0.5369766
vn 0.6932378 0.1967494 -0.6933333
vn 0.7067215 0.02321644 0.7071107
vn -0.7071411 0.02305962 0.7066962
vn -0.7069992 0.02311496 0.7068365
vn 0.7067318 0.02324264 0.7070996
vn 0.706979 0.02331046 -0.7068503
vn 0.7073152 0.02336529 -0.706512
vn -0.706784 0.02315882 -0.7070502
vn -0.706695 0.02309645 -0.7071412
vn 0.5916767 -0.6338136 -0.4981959
vn -0.565316 0.509694 -0.6485598
vn -0.5916912 -0.6338171 -0.4981739
vn 0.5653152 0.5096966 -0.6485585
vn 0.5910047 -0.6374758 0.4943055
vn -0.5910069 -0.6374709 0.4943092
vn 0.5657694 0.5053136 0.6515852
vn -0.5657848 0.5053243 0.6515635
vn -0.4757852 -0.4252274 0.7699416
vn -0.7222612 -0.2746786 -0.6347365
vn -0.7222587 -0.274682 0.6347378
vn -0.4758023 -0.4252422 -0.7699229
vn -0.7117509 0.001789282 -0.7024297
vn -0.7117475 0.001789139 0.702433
vn -1.841796E-07 -3.231155E-07 1
vn 0 -1.157114E-07 1
vn -2.509789E-05 -1.874194E-05 -1
vn -9.109216E-06 0 -1
vn -7.744744E-05 0.9993381 0.03637688
vn -0.0004488219 0.6909347 0.7229171
vn -0.0005328415 0.6998612 0.7142787
vn 5.783654E-05 0.999257 0.03853859
vn -5.237719E-05 0.4497596 0.8931497
vn 0.0004649051 0.7251818 -0.6885573
vn 0.00049126 0.7171223 -0.6969472
vn 0 0.4497537 0.8931526
vn 5.290749E-05 0.4498217 -0.8931184
vn 5.559528E-07 0.4498274 -0.8931154
vn -0.5883934 -0.6225433 0.5159776
vn 0.5724326 0.5271593 0.6280317
vn 0.5857045 -0.6197396 0.5223725
vn -0.5624076 0.5225605 0.6408027
vn 0.5890175 -0.6317517 -0.5039328
vn 0.5658953 0.5114002 -0.6467088
vn -0.5919241 -0.6333023 -0.498552
vn -0.5656302 0.5107759 -0.6474336
vn -0.3450607 -0.6730475 0.6541714
vn -0.718519 0.4434437 -0.5358059
vn -0.7345076 0.4219904 0.5314345
vn -0.3440678 -0.6991678 -0.6267231
vn 0.05164822 0.6834285 -0.7281882
vn 0.05243363 0.7342517 0.6768494
vn 0.3447988 -0.6719577 0.6554285
vn 0.343581 -0.699141 -0.6270199
vn -0.05937531 0.6992971 -0.712361
vn -0.06045848 0.7120132 0.6995584
vn 0.7220052 0.4290194 -0.5428175
vn 0.7265009 0.4370494 0.5302681
vn -0.4434407 -0.6369544 0.6305946
vn -0.6542009 0.5244051 -0.544996
vn -0.6683986 0.5175903 0.5341756
vn -0.4436777 -0.6598266 -0.6064477
vn 0.4448565 -0.6295205 0.6370296
vn 0.4448033 -0.6559874 -0.609779
vn 0.04514838 0.6919855 -0.7204982
vn 0.04254521 0.7322729 0.6796811
vn -0.05828685 0.7184439 0.6931385
vn -0.05481879 0.7001402 -0.7118979
vn 0.6595286 0.5136451 -0.5488087
vn 0.6627935 0.5272741 0.5316831
vn -8.041275E-05 0.9993404 0.03631681
vn -0.0005321624 0.6989738 0.715147
vn -0.0006355235 0.6991314 0.7149929
vn 6.101637E-05 0.9993442 0.03621119
vn -5.228166E-05 0.4478088 0.8941293
vn 0 0.447804 0.8941317
vn 0.0005263826 0.7244653 -0.6893111
vn 0.0006124126 0.7246199 -0.6891484
vn 5.291678E-05 0.4478088 -0.8941293
vn 6.650366E-07 0.4478039 -0.8941317
vn 1 8.130103E-05 9.356031E-05
vn 1 8.130104E-05 9.356031E-05
vn 1 8.130103E-05 9.356031E-05
vn 1 0.0002299537 -7.616913E-05
vn -1 1.390654E-05 -1.166588E-05
vn -1 1.390654E-05 -1.166588E-05
vn -1 1.390654E-05 -1.166588E-05
vn -1 2.053394E-05 9.442452E-06
vn -1 2.053394E-05 9.442452E-06
vn 1 0.0003678038 0.0001096594
vn 1 0.0003678038 0.0001096593
vn 1 0.0003678038 0.0001096593
vn 1 0.0001944946 -8.932558E-05
vn 1 9.355375E-05 0.0001096592
vn -1 0.0003493217 0.0001596404
vn -1 0.0003493218 0.0001596404
vn -1 0.0003493217 0.0001596404
vn -1 0.000241788 -0.0001959867
vn -1 0.000241788 -0.0001959868
vn 0.9700309 0.2429813 9.086997E-05
vn 0.9700309 0.2429813 9.086998E-05
vn 0.9700309 0.2429813 9.086998E-05
g Area_Ly_Build_Common_Archway_03_A_Col_0
f 3/3/3 2/2/2 1/1/1
f 4/4/4 1/1/1 2/2/2
f 1/1/1 5/5/5 3/3/3
f 6/6/6 3/3/3 5/5/5
f 4/4/4 2/2/2 7/7/7
f 4/4/4 7/7/7 1/1/1
f 5/5/5 1/1/1 7/7/7
f 8/8/8 7/7/7 2/2/2
f 6/6/6 8/8/8 3/3/3
f 2/2/2 3/3/3 8/8/8
f 7/7/7 9/9/9 5/5/5
f 10/10/10 5/5/5 9/9/9
f 5/5/5 10/10/10 6/6/6
f 11/11/11 6/6/6 10/10/10
f 9/9/9 7/7/7 12/12/12
f 8/8/8 12/12/12 7/7/7
f 11/11/11 12/12/12 6/6/6
f 8/8/8 6/6/6 12/12/12
f 15/15/15 14/14/14 13/13/13
f 16/16/16 13/13/13 14/14/14
f 14/14/14 15/15/15 17/17/17
f 14/14/14 17/17/17 16/16/16
f 18/18/18 17/17/17 15/15/15
f 13/13/13 19/19/19 15/15/15
f 18/18/18 15/15/15 19/19/19
f 13/13/13 16/16/16 19/19/19
f 19/19/19 20/20/20 18/18/18
f 21/21/21 18/18/18 20/20/20
f 18/18/18 21/21/21 17/17/17
f 21/21/21 20/20/20 22/22/22
f 22/22/22 17/17/17 21/21/21
f 23/23/23 22/22/22 20/20/20
f 19/19/19 24/24/24 20/20/20
f 23/23/23 20/20/20 24/24/24
f 24/24/24 16/16/16 17/17/17
f 24/24/24 19/19/19 16/16/16
f 17/17/17 22/22/22 24/24/24
f 23/23/23 24/24/24 22/22/22
f 27/27/27 26/26/26 25/25/25
f 28/28/28 25/25/25 26/26/26
f 25/25/25 29/29/29 27/27/27
f 30/30/30 27/27/27 29/29/29
f 29/29/29 31/31/31 30/30/30
f 29/29/29 25/25/25 31/31/31
f 28/28/28 31/31/31 25/25/25
f 32/32/32 30/30/30 31/31/31
f 26/26/26 32/32/32 28/28/28
f 31/31/31 28/28/28 32/32/32
f 35/35/35 34/34/34 33/33/33
f 36/36/36 33/33/33 34/34/34
f 33/33/33 37/37/37 35/35/35
f 38/38/38 35/35/35 37/37/37
f 37/37/37 39/39/39 38/38/38
f 36/36/36 34/34/34 39/39/39
f 40/40/40 38/38/38 39/39/39
f 40/40/40 39/39/39 34/34/34
f 43/43/43 42/42/42 41/41/41
f 44/44/44 41/41/41 42/42/42
f 41/41/41 44/44/44 45/45/45
f 46/46/46 45/45/45 44/44/44
f 45/45/45 47/47/47 41/41/41
f 43/43/43 41/41/41 47/47/47
f 46/46/46 48/48/48 45/45/45
f 47/47/47 45/45/45 48/48/48
f 42/42/42 48/48/48 44/44/44
f 46/46/46 44/44/44 48/48/48
f 47/47/47 48/48/48 43/43/43
f 42/42/42 43/43/43 48/48/48
f 51/51/51 50/50/50 49/49/49
f 52/52/52 49/49/49 50/50/50
f 50/50/50 53/53/53 52/52/52
f 54/54/54 52/52/52 53/53/53
f 52/52/52 55/55/55 49/49/49
f 54/54/54 55/55/55 52/52/52
f 56/56/56 49/49/49 55/55/55
f 50/50/50 51/51/51 57/57/57
f 53/53/53 50/50/50 57/57/57
f 58/58/58 57/57/57 51/51/51
f 61/61/61 60/60/60 59/59/59
f 62/62/62 59/59/59 60/60/60
f 62/62/62 60/60/60 63/63/63
f 64/64/64 63/63/63 60/60/60
f 64/64/64 65/65/65 63/63/63
f 61/61/61 65/65/65 60/60/60
f 64/64/64 60/60/60 65/65/65
f 61/61/61 59/59/59 65/65/65
f 66/66/66 63/63/63 65/65/65
f 66/66/66 65/65/65 59/59/59
f 63/63/63 66/66/66 62/62/62
f 59/59/59 62/62/62 66/66/66
f 69/69/69 68/68/68 67/67/67
f 70/70/70 67/67/67 68/68/68
f 67/67/67 70/70/70 71/71/71
f 72/72/72 71/71/71 70/70/70
f 69/69/69 73/73/73 68/68/68
f 69/69/69 67/67/67 73/73/73
f 71/71/71 73/73/73 67/67/67
f 74/74/74 68/68/68 73/73/73
f 72/72/72 70/70/70 74/74/74
f 68/68/68 74/74/74 70/70/70
f 73/73/73 71/71/71 75/75/75
f 73/73/73 75/75/75 74/74/74
f 76/76/76 75/75/75 71/71/71
f 71/71/71 72/72/72 76/76/76
f 77/77/77 76/76/76 72/72/72
f 78/78/78 74/74/74 75/75/75
f 77/77/77 72/72/72 78/78/78
f 74/74/74 78/78/78 72/72/72
f 81/81/81 80/80/80 79/79/79
f 82/82/82 79/79/79 80/80/80
f 80/80/80 83/83/83 82/82/82
f 84/84/84 82/82/82 83/83/83
f 79/79/79 82/82/82 85/85/85
f 84/84/84 85/85/85 82/82/82
f 84/84/84 86/86/86 85/85/85
f 84/84/84 83/83/83 86/86/86
f 87/87/87 85/85/85 86/86/86
f 86/86/86 88/88/88 87/87/87
f 88/88/88 86/86/86 83/83/83
f 89/89/89 87/87/87 88/88/88
f 87/87/87 89/89/89 85/85/85
f 88/88/88 83/83/83 89/89/89
f 90/90/90 85/85/85 89/89/89
f 83/83/83 80/80/80 90/90/90
f 81/81/81 90/90/90 80/80/80
f 85/85/85 90/90/90 79/79/79
f 81/81/81 79/79/79 90/90/90
f 90/90/90 89/89/89 83/83/83
f 93/93/93 92/92/92 91/91/91
f 94/94/94 91/91/91 92/92/92
f 91/91/91 94/94/94 95/95/95
f 96/96/96 95/95/95 94/94/94
f 95/95/95 96/96/96 97/97/97
f 93/93/93 91/91/91 97/97/97
f 95/95/95 97/97/97 91/91/91
f 98/98/98 97/97/97 96/96/96
f 97/97/97 98/98/98 93/93/93
f 92/92/92 93/93/93 98/98/98
f 101/101/101 100/100/100 99/99/99
f 102/102/102 99/99/99 100/100/100
f 99/99/99 102/102/102 103/103/103
f 104/104/104 103/103/103 102/102/102
f 103/103/103 104/104/104 105/105/105
f 101/101/101 105/105/105 100/100/100
f 106/106/106 105/105/105 104/104/104
f 106/106/106 100/100/100 105/105/105
f 109/109/109 108/108/108 107/107/107
f 110/110/110 107/107/107 108/108/108
f 107/107/107 111/111/111 109/109/109
f 112/112/112 109/109/109 111/111/111
f 110/110/110 113/113/113 107/107/107
f 111/111/111 107/107/107 113/113/113
f 113/113/113 114/114/114 111/111/111
f 112/112/112 111/111/111 114/114/114
f 112/112/112 114/114/114 109/109/109
f 108/108/108 109/109/109 114/114/114
f 108/108/108 114/114/114 110/110/110
f 113/113/113 110/110/110 114/114/114
f 117/117/117 116/116/116 115/115/115
f 118/118/118 115/115/115 116/116/116
f 116/116/116 117/117/117 119/119/119
f 120/120/120 119/119/119 117/117/117
f 115/115/115 121/121/121 117/117/117
f 122/122/122 117/117/117 121/121/121
f 122/122/122 120/120/120 117/117/117
f 118/118/118 116/116/116 123/123/123
f 124/124/124 123/123/123 116/116/116
f 116/116/116 119/119/119 124/124/124
f 127/127/127 126/126/126 125/125/125
f 128/128/128 125/125/125 126/126/126
f 126/126/126 127/127/127 129/129/129
f 125/125/125 128/128/128 130/130/130
f 131/131/131 130/130/130 128/128/128
f 132/132/132 126/126/126 129/129/129
f 130/130/130 131/131/131 133/133/133
f 133/133/133 131/131/131 134/134/134
f 137/137/137 136/136/136 135/135/135
f 138/138/138 135/135/135 136/136/136
f 137/137/137 139/139/139 136/136/136
f 140/140/140 136/136/136 139/139/139
f 139/139/139 141/141/141 140/140/140
f 135/135/135 138/138/138 141/141/141
f 135/135/135 141/141/141 137/137/137
f 139/139/139 137/137/137 141/141/141
f 142/142/142 140/140/140 141/141/141
f 140/140/140 142/142/142 136/136/136
f 138/138/138 136/136/136 142/142/142
f 142/142/142 141/141/141 138/138/138
f 145/145/145 144/144/144 143/143/143
f 146/146/146 143/143/143 144/144/144
f 144/144/144 145/145/145 147/147/147
f 144/144/144 147/147/147 146/146/146
f 148/148/148 147/147/147 145/145/145
f 145/145/145 143/143/143 148/148/148
f 143/143/143 146/146/146 149/149/149
f 143/143/143 149/149/149 148/148/148
f 150/150/150 149/149/149 146/146/146
f 147/147/147 148/148/148 151/151/151
f 147/147/147 151/151/151 146/146/146
f 150/150/150 146/146/146 151/151/151
f 152/152/152 151/151/151 148/148/148
f 152/152/152 148/148/148 149/149/149
f 150/150/150 153/153/153 149/149/149
f 153/153/153 150/150/150 151/151/151
f 154/154/154 149/149/149 153/153/153
f 153/153/153 151/151/151 154/154/154
f 152/152/152 154/154/154 151/151/151
f 154/154/154 152/152/152 149/149/149
f 157/157/157 156/156/156 155/155/155
f 158/158/158 155/155/155 156/156/156
f 155/155/155 158/158/158 159/159/159
f 160/160/160 159/159/159 158/158/158
f 156/156/156 157/157/157 161/161/161
f 158/158/158 161/161/161 160/160/160
f 156/156/156 161/161/161 158/158/158
f 162/162/162 161/161/161 157/157/157
f 155/155/155 159/159/159 162/162/162
f 157/157/157 155/155/155 162/162/162
f 163/163/163 162/162/162 159/159/159
f 162/162/162 163/163/163 161/161/161
f 164/164/164 160/160/160 161/161/161
f 164/164/164 161/161/161 163/163/163
f 160/160/160 165/165/165 159/159/159
f 165/165/165 160/160/160 164/164/164
f 166/166/166 159/159/159 165/165/165
f 165/165/165 164/164/164 166/166/166
f 163/163/163 166/166/166 164/164/164
f 166/166/166 163/163/163 159/159/159
f 169/169/169 168/168/168 167/167/167
f 170/170/170 167/167/167 168/168/168
f 169/169/169 171/171/171 168/168/168
f 172/172/172 168/168/168 171/171/171
f 167/167/167 170/170/170 173/173/173
f 174/174/174 173/173/173 170/170/170
f 174/174/174 175/175/175 173/173/173
f 176/176/176 173/173/173 175/175/175
f 179/179/179 178/178/178 177/177/177
f 180/180/180 177/177/177 178/178/178
f 183/183/183 182/182/182 181/181/181
f 183/183/183 184/184/184 182/182/182
f 185/185/185 182/182/182 184/184/184
f 188/188/188 187/187/187 186/186/186
f 189/189/189 186/186/186 187/187/187
f 190/190/190 188/188/188 186/186/186
f 193/193/193 192/192/192 191/191/191
f 194/194/194 192/192/192 193/193/193
f 195/195/195 194/194/194 193/193/193
f 198/198/198 197/197/197 196/196/196
