g Area_Common_Build_Ruin_C_15_Lod0
v -0.203894 0.950982 0.2342944
v -0.2983636 1.133842 0.01930379
v -0.2043909 1.130005 0.2374383
v -0.2978162 0.9549392 0.01613163
v -0.1191614 0.9491455 0.3431292
v -0.4026636 1.14083 -0.2981989
v -0.4012488 0.9599621 -0.2986773
v -0.1195923 1.124255 0.3461976
v -0.2043909 1.130005 0.2374383
v -0.2834564 1.149312 0.01240651
v -0.189458 1.145616 0.2306309
v -0.2983636 1.133842 0.01930379
v -0.1049762 1.143922 0.3388125
v -0.38698 1.156136 -0.3035032
v -0.4026636 1.14083 -0.2981989
v -0.1195953 1.124261 0.34619
v -0.1195923 1.124255 0.3461976
v 0.159154 0.3797848 0.2748702
v -0.07923523 0.3839284 0.02067354
v -0.01178223 0.3802844 0.2180641
v 0.06652527 0.3858391 -0.0495027
v -0.1988464 0.3795985 0.2184709
v -0.2339221 0.3818177 0.09935518
v 0.2543182 0.3893813 0.02048402
v 0.2806628 0.3774366 0.4164023
v 0.3750732 0.4201958 0.3992936
v 0.1255347 0.3934459 -0.362029
v -0.334237 0.3889264 -0.206524
v 0.3982068 0.4396615 0.3942081
v -0.1988464 0.3795985 0.2184709
v -0.2344739 0.5740547 0.1027661
v -0.1993726 0.5718954 0.2218706
v -0.2339221 0.3818177 0.09935518
v -0.3356842 0.567866 -0.2060345
v -0.334237 0.3889264 -0.206524
v -0.1993726 0.5718954 0.2218706
v -0.2196094 0.5934969 0.095936
v -0.1803857 0.5915092 0.2173758
v -0.2344739 0.5740547 0.1027661
v -0.3197607 0.5822808 -0.2114203
v -0.3356842 0.567866 -0.2060345
v 0.05863953 0.9646288 -0.4542221
v 0.1884949 1.133241 -0.05934733
v 0.05722473 1.145497 -0.4537435
v 0.1889526 0.9582512 -0.06243267
v 0.3565796 1.12572 0.3442541
v 0.3569836 0.9509091 0.3411962
v 0.1738678 1.152353 -0.05119089
v 0.3565796 1.12572 0.3442541
v 0.3421301 1.144607 0.3530264
v 0.1884949 1.133241 -0.05934733
v 0.05722473 1.145497 -0.4537435
v 0.04101745 1.157516 -0.4482611
v 0.1255347 0.3934459 -0.362029
v 0.2523413 0.5774269 0.02418261
v 0.1240869 0.5725107 -0.3615394
v 0.2543182 0.3893813 0.02048402
v 0.4026623 0.5701973 0.4097171
v 0.3982068 0.4396615 0.3942081
v 0.2377136 0.5965378 0.03233859
v 0.4026623 0.5701973 0.4097171
v 0.3972461 0.5887799 0.4355825
v 0.2523413 0.5774269 0.02418261
v 0.1240869 0.5725107 -0.3615394
v 0.1079523 0.5867609 -0.3560824
v 0.2923633 0.5882946 0.454223
v 0.1493628 0.5888399 0.4046549
v 0.1008728 0.5945492 0.107013
v 0.3972461 0.5887799 0.4355825
v 0.2377136 0.5965378 0.03233859
v 0.02391479 0.5906103 0.2961488
v -0.0739032 0.5908445 0.2685185
v 0.1079523 0.5867609 -0.3560824
v -0.3197607 0.5822808 -0.2114203
v -0.2196094 0.5934969 0.095936
v -0.1803857 0.5915092 0.2173758
v -0.203894 0.950982 0.2342944
v 0.005076904 0.9555821 0.03924595
v -0.2978162 0.9549392 0.01613163
v 0.0155249 0.9493287 0.358583
v 0.1478979 0.9503857 0.3292784
v 0.3569836 0.9509091 0.3411962
v 0.1889526 0.9582512 -0.06243267
v 0.2531323 0.949963 0.370111
v -0.1191614 0.9491455 0.3431292
v 0.05863953 0.9646288 -0.4542221
v -0.4012488 0.9599621 -0.2986773
v 0.004560547 1.14989 0.04268606
v -0.189458 1.145616 0.2306309
v -0.2834564 1.149312 0.01240651
v 0.01993408 1.143794 0.359434
v 0.1447192 1.144852 0.3198013
v 0.1738678 1.152353 -0.05119089
v 0.3421301 1.144607 0.3530264
v 0.2478748 1.144068 0.3763392
v -0.1049762 1.143922 0.3388125
v -0.38698 1.156136 -0.3035032
v 0.04101745 1.157516 -0.4482611
v 0.0982727 0.5675033 -0.08335949
v 0.214284 0.9807742 0.2043402
v 0.09713562 0.9858713 -0.07593959
v 0.2154199 0.5624061 0.1969203
v 0.04876709 0.5730501 -0.3061252
v 0.04549439 0.9914185 -0.3050184
v 0.3112378 0.7952784 0.3995107
v 0.3256848 0.9768817 0.4224339
v 0.3268225 0.5585135 0.4150159
v -0.1276489 0.9779415 0.2852278
v -0.127019 0.7461431 0.2811194
v -0.2088806 0.9814745 0.09095066
v -0.2077429 0.5631059 0.08353289
v -0.2919708 0.9879783 -0.1908804
v -0.2886975 0.5696101 -0.1919876
v -0.1265106 0.559573 0.2778099
v 0.2806628 0.3774366 0.4164023
v 0.159154 0.3797848 0.2748702
v 0.1492541 0.4147118 0.3584098
v 0.01930237 0.4459874 0.2959583
v 0.2998767 0.4829298 0.4345105
v 0.3972461 0.5887799 0.4355825
v 0.1544415 0.4833976 0.3862335
v 0.2923633 0.5882946 0.454223
v 0.1493628 0.5888399 0.4046549
v 0.07753234 0.5311173 0.3420082
v 0.02391479 0.5906103 0.2961488
v 0.02105164 0.5216463 0.3057424
v -0.03355347 0.5063745 0.2970271
v -0.04224548 0.4243872 0.2646545
v 0.02391479 0.5906103 0.2961488
v -0.09588013 0.4641051 0.2672792
v -0.08793762 0.4241548 0.2680447
v -0.1988464 0.3795985 0.2184709
v -0.1993726 0.5718954 0.2218706
v -0.1165552 0.5116886 0.2618471
v -0.01178223 0.3802844 0.2180641
v -0.0739032 0.5908445 0.2685185
v -0.1803857 0.5915092 0.2173758
v -0.009643555 0.5595537 0.3003002
v -0.127019 0.7461431 0.2811194
v -0.01018982 0.7585604 0.3038279
v -0.1265106 0.559573 0.2778099
v 0.1109192 0.5578073 0.4111376
v 0.1211322 0.813945 0.3661532
v 0.3268225 0.5585135 0.4150159
v 0.3112378 0.7952784 0.3995107
v -0.02386475 0.9771369 0.3451553
v -0.1276489 0.9779415 0.2852278
v 0.3256848 0.9768817 0.4224339
v 0.1097797 0.9761754 0.418554
v 0.4026623 0.5701973 0.4097171
v 0.3750732 0.4201958 0.3992936
v 0.3982068 0.4396615 0.3942081
v 0.3569836 0.9509091 0.3411962
v 0.2531323 0.949963 0.370111
v 0.2559222 1.06972 0.346087
v 0.1478979 0.9503857 0.3292784
v 0.1493195 1.062367 0.3163114
v 0.2478748 1.144068 0.3763392
v 0.1447192 1.144852 0.3198013
v 0.01417786 0.9844405 0.3744235
v 0.02704834 1.095666 0.3605265
v -0.1191614 0.9491455 0.3431292
v -0.1195923 1.124255 0.3461976
v 0.0155249 0.9493287 0.358583
v 0.01993408 1.143794 0.359434
v -0.1049762 1.143922 0.3388125
v 0.3421301 1.144607 0.3530264
v 0.3565796 1.12572 0.3442541
v -0.1993726 0.5718954 0.2218706
v -0.1803857 0.5915092 0.2173758
v -0.1165552 0.5116886 0.2618471
v -0.4012488 0.9599621 -0.2986773
v 0.05722473 1.145497 -0.4537435
v -0.4026636 1.14083 -0.2981989
v 0.05863953 0.9646288 -0.4542221
v -0.38698 1.156136 -0.3035032
v 0.04101745 1.157516 -0.4482611
v -0.334237 0.3889264 -0.206524
v 0.1240869 0.5725107 -0.3615394
v -0.3356842 0.567866 -0.2060345
v 0.1255347 0.3934459 -0.362029
v -0.3197607 0.5822808 -0.2114203
v 0.1079523 0.5867609 -0.3560824
v -0.2919708 0.9879783 -0.1908804
v 0.04876709 0.5730501 -0.3061252
v 0.04549439 0.9914185 -0.3050184
v -0.2886975 0.5696101 -0.1919876
vt 0.400804 0.08258511
vt 0.4264673 0.1364569
vt 0.4265227 0.08232637
vt 0.4008032 0.1364569
vt 0.4005102 0.04915356
vt 0.4264672 0.1995991
vt 0.4008031 0.1995991
vt 0.4264739 0.05629267
vt 0.4303491 0.08305102
vt 0.4337 0.1364569
vt 0.4349763 0.08231154
vt 0.42815 0.1364569
vt 0.4436136 0.0585455
vt 0.4337 0.1995991
vt 0.42815 0.1995991
vt 0.4322039 0.0487243
vt 0.4322009 0.04871951
vt 0.3432218 0.0645893
vt 0.3674016 0.1364569
vt 0.3674016 0.0897845
vt 0.3384984 0.1364569
vt 0.3963048 0.1048858
vt 0.3963048 0.1364569
vt 0.3095951 0.1048858
vt 0.3378266 0.01816344
vt 0.3159228 0.01468265
vt 0.3095951 0.1995991
vt 0.3963048 0.1995991
vt 0.3096383 0.01160644
vt 0.4008033 0.1048858
vt 0.4264673 0.1364569
vt 0.4264674 0.1048858
vt 0.4008032 0.1364569
vt 0.4264672 0.1995991
vt 0.4008031 0.1995991
vt 0.42815 0.1048858
vt 0.4337 0.1364569
vt 0.4399843 0.08343615
vt 0.42815 0.1364569
vt 0.4337 0.1995991
vt 0.42815 0.1995991
vt 0.3050338 0.1995991
vt 0.2793473 0.1048858
vt 0.2793473 0.1995991
vt 0.3050338 0.1048858
vt 0.2793473 0.01017239
vt 0.3050338 0.01017239
vt 0.2723511 0.1048858
vt 0.2780276 0.01017239
vt 0.2723511 0.01017239
vt 0.2780276 0.1048858
vt 0.2780276 0.1995991
vt 0.2723511 0.1995991
vt 0.3050338 0.1995991
vt 0.2793473 0.1048858
vt 0.2793473 0.1995991
vt 0.3050338 0.1048858
vt 0.2793473 0.01017239
vt 0.2968288 0.01347074
vt 0.2723511 0.1048858
vt 0.2780276 0.01017239
vt 0.2723511 0.01017239
vt 0.2780276 0.1048858
vt 0.2780276 0.1995991
vt 0.2723511 0.1995991
vt 0.3345089 0.01607358
vt 0.35295 0.04174352
vt 0.3457242 0.1048858
vt 0.3095951 0.01017239
vt 0.3095951 0.1048858
vt 0.3674016 0.07331464
vt 0.380196 0.07699963
vt 0.3095951 0.1995991
vt 0.3963048 0.1995991
vt 0.3963048 0.1364569
vt 0.3926161 0.08057681
vt 0.3952227 0.08249156
vt 0.35295 0.1048858
vt 0.3963048 0.1364569
vt 0.3674016 0.04174352
vt 0.3423946 0.03559151
vt 0.3095951 0.01017239
vt 0.3095951 0.1048858
vt 0.3366109 0.01266456
vt 0.3887801 0.05709446
vt 0.3095951 0.1995991
vt 0.3963048 0.1995991
vt 0.35295 0.1048858
vt 0.3944738 0.08291179
vt 0.3963048 0.1364569
vt 0.3674016 0.04174352
vt 0.3407899 0.03759158
vt 0.3095951 0.1048858
vt 0.3095951 0.01017239
vt 0.334926 0.01403518
vt 0.3852699 0.05023078
vt 0.3963048 0.1995991
vt 0.3095951 0.1995991
vt 0.8181842 0.8782192
vt 0.8973602 0.8065821
vt 0.8181841 0.8065821
vt 0.8973602 0.8782192
vt 0.7390081 0.8782192
vt 0.7390081 0.8065821
vt 0.9532884 0.8302565
vt 0.9596314 0.8065822
vt 0.9596312 0.8782192
vt 0.03725494 0.8065821
vt 0.03725494 0.8424007
vt 0.09646109 0.8065821
vt 0.09646112 0.8782192
vt 0.166666 0.8065821
vt 0.166666 0.8782192
vt 0.03725498 0.8782192
vt -0.2554958 0.8765323
vt -0.09156984 0.9395998
vt -0.1182309 0.8638238
vt 0.02108574 0.8564919
vt -0.2736269 0.8051724
vt -0.3652568 0.7362394
vt -0.1304969 0.8147257
vt -0.2680426 0.7329336
vt -0.1296267 0.7445126
vt -0.04396152 0.7914389
vt 0.02386475 0.7541291
vt 0.01927269 0.802257
vt 0.07105696 0.8131742
vt 0.08736515 0.8779009
vt 0.02239633 0.753851
vt 0.1390052 0.8434892
vt 0.1290523 0.8723314
vt 0.2365503 0.9120855
vt 0.2683877 0.7871919
vt 0.1467848 0.7880462
vt 0.07295775 0.9332131
vt 0.0771575 0.754455
vt 0.1303165 0.7550413
vt 0.6940634 0.8611884
vt 0.7951852 0.7387881
vt 0.6944743 0.7300307
vt 0.7951852 0.8611884
vt 0.5929414 0.8611884
vt 0.6174958 0.6933295
vt 0.3906974 0.8611884
vt 0.4021749 0.704709
vt 0.6885829 0.6023466
vt 0.7951852 0.6163877
vt 0.390697 0.6163877
vt 0.592941 0.6163877
vt -0.3818225 0.7562665
vt -0.3454855 0.8532259
vt -0.3666342 0.8425059
vt 0.6342879 0.7024199
vt 0.7718615 0.7022884
vt 0.7634027 0.5822486
vt 0.9194087 0.6854026
vt 0.9116225 0.5794257
vt 0.7610371 0.485058
vt 0.9162603 0.4862418
vt 1.102215 0.6515176
vt 1.081428 0.5303034
vt 1.282441 0.6793942
vt 1.275498 0.4963351
vt 1.099821 0.6870655
vt 1.089284 0.4847192
vt 1.256908 0.4745744
vt 0.6395209 0.5065456
vt 0.6236447 0.5245733
vt 0.8563 0.2097715
vt 0.8799685 0.1668723
vt 0.8562907 0.1646632
vt 0.7661905 0.1328686
vt 0.9320719 0.07609882
vt 0.766193 0.0758592
vt 0.9320738 0.1328689
vt 0.7718903 0.07125746
vt 0.9263067 0.07169774
vt 0.7662038 0.1323338
vt 0.9320704 0.07601143
vt 0.7661865 0.07605057
vt 0.9320871 0.1323341
vt 0.7719724 0.07156599
vt 0.9262894 0.07147991
vt 0.7812138 0.08419052
vt 0.8885183 0.215783
vt 0.8885182 0.08419061
vt 0.7812142 0.2157829
vn -0.8607 -0.01139534 0.5089851
vn -0.9352374 -0.009069681 0.353905
vn -0.8613222 -0.01123257 0.5079349
vn -0.9352149 -0.009109288 0.3539634
vn -0.7890086 -0.01286319 0.6142475
vn -0.9500521 -0.008314096 0.3119805
vn -0.9500425 -0.00825672 0.3120112
vn -0.7888826 -0.01270741 0.6144125
vn -0.5945508 0.7175846 0.3627419
vn -0.6374781 0.7273466 0.2541429
vn -0.588107 0.7217195 0.3650358
vn -0.6362333 0.7276819 0.2562931
vn -0.5909636 0.6394235 0.4918331
vn -0.6403695 0.7339165 0.2264808
vn -0.6400093 0.7342539 0.2264052
vn -0.6147584 0.5353425 0.5792068
vn -0.5764665 0.5361773 0.6166039
vn 0.01559618 -0.9995009 -0.02747201
vn 0.002618297 -0.9997588 -0.02180492
vn 0.003623212 -0.9997995 -0.01969525
vn 0.01287323 -0.9996703 -0.02221587
vn 0.003623596 -0.9997995 -0.019695
vn 0.002703132 -0.9997651 -0.02150436
vn 0.07192489 -0.9969435 -0.03050177
vn 0.290179 -0.9557605 -0.04814347
vn 0.5262784 -0.8445217 -0.09906615
vn 0.009628923 -0.9997009 -0.0224807
vn 0.001675187 -0.9997136 -0.02387244
vn 0.6204211 -0.7725747 -0.1349291
vn -0.9592615 -0.007710683 0.2824141
vn -0.954873 -0.007961748 0.2969078
vn -0.9592211 -0.007619869 0.2825543
vn -0.9548635 -0.00805469 0.2969355
vn -0.9502126 -0.008440822 0.311488
vn -0.950229 -0.008536766 0.311435
vn -0.6804488 0.6961748 0.2287575
vn -0.7313565 0.6447819 0.2222026
vn -0.6727132 0.7036405 0.2287949
vn -0.7329621 0.6430071 0.2220549
vn -0.6291373 0.7535856 0.1905119
vn -0.6231109 0.7589502 0.1890165
vn 0.948876 0.008203466 -0.3155427
vn 0.936723 0.008648621 -0.3499647
vn 0.9488686 0.008257153 -0.3155632
vn 0.9366654 0.008582885 -0.3501207
vn 0.9232052 0.008935559 -0.3842036
vn 0.9232178 0.00885402 -0.3841751
vn 0.7107795 0.6568411 -0.2516988
vn 0.6967428 0.6615245 -0.2773714
vn 0.6965851 0.6617269 -0.2772849
vn 0.7147641 0.653425 -0.2492951
vn 0.5557228 0.8127691 -0.1748677
vn 0.5483091 0.8182255 -0.1728124
vn 0.9485293 0.01065402 -0.3165103
vn 0.9400258 0.01556909 -0.3407477
vn 0.9488518 0.00853437 -0.3156064
vn 0.9403911 0.01601025 -0.3397182
vn 0.9323776 0.01273212 -0.3612615
vn 0.9326675 0.01100481 -0.3605695
vn 0.7107288 0.6553454 -0.2557089
vn 0.7410082 0.6097212 -0.2813303
vn 0.7418661 0.608463 -0.2817931
vn 0.7124242 0.6539426 -0.2545798
vn 0.6074402 0.7627819 -0.2217661
vn 0.6026782 0.7668743 -0.220642
vn -0.001773306 0.9998181 0.01898853
vn -0.002974017 0.9998023 0.01966212
vn -0.0084692 0.9999609 0.002576423
vn -0.00182435 0.999814 0.01920107
vn -0.01457657 0.9998938 -8.4092E-05
vn -0.002999415 0.9998034 0.01960105
vn -0.003136557 0.9998042 0.01953988
vn -0.01789202 0.9996939 -0.01708632
vn -0.01078833 0.9996474 -0.0242629
vn -0.002764337 0.9998835 -0.01501125
vn -0.003627185 0.9998261 0.01829626
vn 0.003623842 -0.9997995 -0.01969529
vn 0.003835865 -0.9998147 -0.01886957
vn 0.003496767 -0.9998317 -0.01801159
vn 0.00362269 -0.9997994 -0.01969581
vn 0.003624462 -0.9997994 -0.01969723
vn 0.003624403 -0.9997994 -0.01969564
vn 0.00418733 -0.999817 -0.01867361
vn 0.003625097 -0.9997995 -0.01969179
vn 0.003619477 -0.9997997 -0.01968917
vn 0.004250145 -0.9998313 -0.01786834
vn 0.003858766 -0.9998376 -0.01759938
vn -0.003143592 0.9998228 0.01856327
vn -0.003361321 0.9998178 0.01879396
vn -0.004268256 0.9997594 0.02151757
vn -0.002579116 0.9998155 0.0190383
vn -0.00234364 0.9998071 0.01950551
vn -0.004761305 0.9998391 0.01729758
vn -0.001973604 0.9998159 0.0190915
vn -0.001576667 0.9998587 0.01673337
vn -0.001788129 0.999853 0.01705323
vn -0.0001019937 0.9998351 0.01815419
vn -1.195088E-05 0.9998795 0.01552932
vn 0.9530975 0.007955604 -0.3025588
vn 0.9096047 0.004595608 -0.4154494
vn 0.95293 0.008536546 -0.3030702
vn 0.9092208 0.01465397 -0.4160563
vn 0.975983 0.00705387 -0.2177324
vn 0.9755296 0.00821235 -0.2197147
vn 0.8945509 0.007837566 -0.4468975
vn 0.8903726 -0.01339381 -0.4550354
vn 0.8903856 0.02885783 -0.4542914
vn -0.9226194 -0.009341377 0.3855983
vn -0.9226201 -0.009346936 0.3855968
vn -0.9423621 -0.008492007 0.3344868
vn -0.9423669 -0.008692296 0.3344682
vn -0.9593018 -0.007862267 0.2822732
vn -0.9594617 -0.008252391 0.2817182
vn -0.9226183 -0.009354224 0.3856007
vn -0.2175576 -0.2913006 0.9315646
vn -0.3455854 -0.8441207 0.4099155
vn -0.4526657 -0.6001074 0.6595186
vn -0.3223494 -0.4654721 0.8242734
vn -0.05399765 -0.1945795 0.9793993
vn 0.5123577 -0.2165143 0.8310302
vn -0.4442623 -0.2509764 0.8600244
vn -0.08171168 -0.1851129 0.9793143
vn -0.4651129 -0.1463131 0.8730764
vn -0.573787 -0.07775554 0.8153052
vn -0.425756 0.1267989 0.8959095
vn -0.3663971 0.02193557 0.9302
vn -0.2725126 -0.04926428 0.9608902
vn -0.1008078 -0.5630457 0.8202544
vn -0.425756 0.1267989 0.8959095
vn -0.3195227 -0.1029725 0.941967
vn -0.07840443 -0.3881986 0.9182345
vn -0.3041728 -0.2712649 0.9131781
vn -0.2826015 0.2159103 0.9346225
vn -0.4380448 0.008406059 0.8989138
vn -0.09901901 -0.7248462 0.6817575
vn -0.358935 0.1591887 0.9196872
vn -0.2673353 0.2969529 0.9167065
vn -0.4500189 -0.01706522 0.8928559
vn -0.2313166 -0.07487726 0.9699928
vn -0.3440053 -0.07232627 0.936178
vn -0.1889479 -0.0179311 0.9818234
vn -0.3212322 0.1248406 0.9387357
vn -0.2405453 -0.09928541 0.9655466
vn -0.07906586 0.1255096 0.9889368
vn -0.1750329 -0.02365845 0.9842783
vn -0.4415227 -0.1331811 0.8873108
vn -0.5000756 -0.01670454 0.8658206
vn -0.1066281 -0.2023929 0.9734822
vn -0.216624 -0.2789615 0.9355504
vn 0.9041787 -0.1927892 0.3811733
vn 0.324257 -0.2106579 0.9222151
vn 0.3103858 -0.1225938 0.9426724
vn 0.1610595 0.09656668 0.9822091
vn -0.05172206 0.1975833 0.9789206
vn -0.05650048 -0.1123086 0.9920657
vn 0.005645498 0.09443729 0.9955148
vn -0.006707572 0.008285513 0.9999433
vn -0.06696953 -0.3146926 0.9468282
vn -0.08388923 -0.04679219 0.9953759
vn 0.03332818 -0.1013369 0.9942937
vn 0.1343888 0.05761699 0.9892523
vn -0.1592471 -0.03002392 0.9867821
vn -0.1182124 0.1443838 0.9824353
vn 0.05450536 -0.4088819 0.9109581
vn 0.1014712 0.04394623 0.9938673
vn -0.1457582 0.4408986 0.8856426
vn 0.1973873 -0.3133041 0.9289128
vn 0.1176407 -0.1794842 0.9767016
vn -0.2826015 0.2159103 0.9346225
vn -0.2673353 0.2969529 0.9167065
vn -0.4380448 0.008406059 0.8989138
vn -0.3203931 -5.407627E-07 -0.9472846
vn -0.320393 1.792186E-05 -0.9472848
vn -0.3203931 5.349627E-06 -0.9472846
vn -0.3203934 0 -0.9472846
vn -0.3203933 1.877284E-05 -0.9472846
vn -0.3203922 6.602814E-05 -0.9472849
vn -0.3203928 0 -0.9472848
vn -0.3203927 -2.315646E-06 -0.9472848
vn -0.3203929 -1.191226E-06 -0.9472848
vn -0.3203926 -6.462623E-07 -0.9472848
vn -0.3203929 -4.438285E-06 -0.9472848
vn -0.3203929 -6.562476E-06 -0.9472848
vn -0.320392 -1.019233E-07 -0.9472851
vn -0.3203919 0 -0.9472851
vn -0.3203923 -3.685367E-07 -0.9472849
vn -0.3203917 2.252174E-07 -0.9472852
g Area_Common_Build_Ruin_C_15_Lod0_0
f 3/3/3 2/2/2 1/1/1
f 4/4/4 1/1/1 2/2/2
f 5/5/5 3/3/3 1/1/1
f 2/2/2 6/6/6 4/4/4
f 7/7/7 4/4/4 6/6/6
f 8/8/8 3/3/3 5/5/5
f 11/11/11 10/10/10 9/9/9
f 12/12/12 9/9/9 10/10/10
f 13/13/13 11/11/11 9/9/9
f 10/10/10 14/14/14 12/12/12
f 15/15/15 12/12/12 14/14/14
f 9/9/9 16/16/16 13/13/13
f 17/17/17 16/16/16 9/9/9
f 17/17/17 13/13/13 16/16/16
f 20/20/20 19/19/19 18/18/18
f 21/21/21 18/18/18 19/19/19
f 20/20/20 22/22/22 19/19/19
f 23/23/23 19/19/19 22/22/22
f 24/24/24 18/18/18 21/21/21
f 18/18/18 24/24/24 25/25/25
f 26/26/26 25/25/25 24/24/24
f 21/21/21 19/19/19 27/27/27
f 24/24/24 21/21/21 27/27/27
f 28/28/28 27/27/27 19/19/19
f 23/23/23 28/28/28 19/19/19
f 29/29/29 26/26/26 24/24/24
f 32/32/32 31/31/31 30/30/30
f 33/33/33 30/30/30 31/31/31
f 31/31/31 34/34/34 33/33/33
f 35/35/35 33/33/33 34/34/34
f 38/38/38 37/37/37 36/36/36
f 39/39/39 36/36/36 37/37/37
f 37/37/37 40/40/40 39/39/39
f 41/41/41 39/39/39 40/40/40
f 44/44/44 43/43/43 42/42/42
f 45/45/45 42/42/42 43/43/43
f 43/43/43 46/46/46 45/45/45
f 47/47/47 45/45/45 46/46/46
f 50/50/50 49/49/49 48/48/48
f 51/51/51 48/48/48 49/49/49
f 51/51/51 52/52/52 48/48/48
f 53/53/53 48/48/48 52/52/52
f 56/56/56 55/55/55 54/54/54
f 57/57/57 54/54/54 55/55/55
f 55/55/55 58/58/58 57/57/57
f 59/59/59 57/57/57 58/58/58
f 62/62/62 61/61/61 60/60/60
f 63/63/63 60/60/60 61/61/61
f 63/63/63 64/64/64 60/60/60
f 65/65/65 60/60/60 64/64/64
f 68/68/68 67/67/67 66/66/66
f 66/66/66 69/69/69 68/68/68
f 70/70/70 68/68/68 69/69/69
f 71/71/71 67/67/67 68/68/68
f 72/72/72 71/71/71 68/68/68
f 70/70/70 73/73/73 68/68/68
f 68/68/68 73/73/73 74/74/74
f 75/75/75 68/68/68 74/74/74
f 75/75/75 76/76/76 68/68/68
f 72/72/72 68/68/68 76/76/76
f 79/79/79 78/78/78 77/77/77
f 78/78/78 80/80/80 77/77/77
f 78/78/78 81/81/81 80/80/80
f 81/81/81 78/78/78 82/82/82
f 83/83/83 82/82/82 78/78/78
f 84/84/84 81/81/81 82/82/82
f 77/77/77 80/80/80 85/85/85
f 83/83/83 78/78/78 86/86/86
f 78/78/78 87/87/87 86/86/86
f 79/79/79 87/87/87 78/78/78
f 90/90/90 89/89/89 88/88/88
f 89/89/89 91/91/91 88/88/88
f 88/88/88 91/91/91 92/92/92
f 88/88/88 92/92/92 93/93/93
f 93/93/93 92/92/92 94/94/94
f 95/95/95 94/94/94 92/92/92
f 96/96/96 91/91/91 89/89/89
f 90/90/90 88/88/88 97/97/97
f 88/88/88 98/98/98 97/97/97
f 93/93/93 98/98/98 88/88/88
f 101/101/101 100/100/100 99/99/99
f 102/102/102 99/99/99 100/100/100
f 99/99/99 103/103/103 101/101/101
f 104/104/104 101/101/101 103/103/103
f 105/105/105 102/102/102 100/100/100
f 106/106/106 105/105/105 100/100/100
f 107/107/107 102/102/102 105/105/105
f 110/110/110 109/109/109 108/108/108
f 111/111/111 109/109/109 110/110/110
f 110/110/110 112/112/112 111/111/111
f 113/113/113 111/111/111 112/112/112
f 114/114/114 109/109/109 111/111/111
f 117/117/117 116/116/116 115/115/115
f 118/118/118 116/116/116 117/117/117
f 115/115/115 119/119/119 117/117/117
f 119/119/119 115/115/115 120/120/120
f 121/121/121 117/117/117 119/119/119
f 119/119/119 122/122/122 121/121/121
f 122/122/122 119/119/119 120/120/120
f 123/123/123 121/121/121 122/122/122
f 121/121/121 124/124/124 117/117/117
f 118/118/118 117/117/117 124/124/124
f 121/121/121 123/123/123 124/124/124
f 124/124/124 123/123/123 125/125/125
f 124/124/124 126/126/126 118/118/118
f 124/124/124 125/125/125 126/126/126
f 118/118/118 126/126/126 127/127/127
f 118/118/118 127/127/127 128/128/128
f 127/127/127 126/126/126 129/129/129
f 127/127/127 130/130/130 128/128/128
f 131/131/131 128/128/128 130/130/130
f 131/131/131 132/132/132 128/128/128
f 131/131/131 130/130/130 132/132/132
f 132/132/132 130/130/130 133/133/133
f 134/134/134 133/133/133 130/130/130
f 134/134/134 130/130/130 127/127/127
f 128/128/128 132/132/132 135/135/135
f 118/118/118 128/128/128 135/135/135
f 118/118/118 135/135/135 116/116/116
f 129/129/129 136/136/136 127/127/127
f 134/134/134 127/127/127 136/136/136
f 137/137/137 134/134/134 136/136/136
f 140/140/140 139/139/139 138/138/138
f 141/141/141 138/138/138 139/139/139
f 138/138/138 142/142/142 140/140/140
f 143/143/143 140/140/140 142/142/142
f 142/142/142 144/144/144 143/143/143
f 145/145/145 143/143/143 144/144/144
f 140/140/140 146/146/146 139/139/139
f 147/147/147 139/139/139 146/146/146
f 145/145/145 148/148/148 143/143/143
f 149/149/149 143/143/143 148/148/148
f 146/146/146 140/140/140 149/149/149
f 143/143/143 149/149/149 140/140/140
f 120/120/120 151/151/151 150/150/150
f 152/152/152 150/150/150 151/151/151
f 115/115/115 151/151/151 120/120/120
f 155/155/155 154/154/154 153/153/153
f 154/154/154 155/155/155 156/156/156
f 157/157/157 156/156/156 155/155/155
f 155/155/155 158/158/158 157/157/157
f 159/159/159 157/157/157 158/158/158
f 157/157/157 160/160/160 156/156/156
f 160/160/160 157/157/157 161/161/161
f 160/160/160 161/161/161 162/162/162
f 163/163/163 162/162/162 161/161/161
f 164/164/164 160/160/160 162/162/162
f 164/164/164 156/156/156 160/160/160
f 161/161/161 157/157/157 165/165/165
f 159/159/159 165/165/165 157/157/157
f 165/165/165 163/163/163 161/161/161
f 166/166/166 163/163/163 165/165/165
f 158/158/158 155/155/155 167/167/167
f 168/168/168 155/155/155 153/153/153
f 167/167/167 155/155/155 168/168/168
f 171/171/171 170/170/170 169/169/169
f 174/174/174 173/173/173 172/172/172
f 175/175/175 172/172/172 173/173/173
f 174/174/174 176/176/176 173/173/173
f 177/177/177 173/173/173 176/176/176
f 180/180/180 179/179/179 178/178/178
f 181/181/181 178/178/178 179/179/179
f 180/180/180 182/182/182 179/179/179
f 183/183/183 179/179/179 182/182/182
f 186/186/186 185/185/185 184/184/184
f 187/187/187 184/184/184 185/185/185
