g Area_Common_Build_Pillar_B_07_Lod0
v -0.3528101 0.004857498 -0.351993
v -0.3528015 -1.354071 -1.062076
v -0.3528012 -1.506719 -0.3519933
v -0.3528104 0.004855698 -1.062076
v -0.3528189 0.9696226 -1.062076
v -0.3528186 1.403538 -0.3519928
v -0.3528104 0.004855698 -1.062076
v -1.062885 -0.7475698 -1.062076
v -0.3528015 -1.354071 -1.062076
v -1.062893 0.004855698 -1.062076
v -1.062902 0.6342777 -1.062075
v -0.3528189 0.9696226 -1.062076
v -0.7674536 1.004591 -1.062075
v -1.062885 -0.7475698 -1.062076
v -1.062894 0.004856278 -0.3519929
v -1.062885 -0.9002176 -0.3519935
v -1.062893 0.004855698 -1.062076
v -1.062902 0.6342777 -1.062075
v -1.062903 1.104359 -0.3519926
v -1.062903 0.9976113 -0.6900135
v -0.3528101 0.004857498 -0.351993
v -1.062885 -0.9002176 -0.3519935
v -1.062894 0.004856278 -0.3519929
v -0.3528012 -1.506719 -0.3519933
v -1.062903 1.104359 -0.3519926
v -0.3528186 1.403538 -0.3519928
v 1.062892 0.004856308 -1.062076
v 0.3528171 -1.956757 -1.062077
v 1.062901 -1.557318 -1.062077
v 0.3528082 0.004857529 -1.062076
v 0.6286896 -2.192389 -1.062076
v 0.3527997 1.476587 -1.062076
v 1.062883 1.221033 -1.062076
v 0.7680954 1.651563 -1.062076
v 0.3528091 0.004857498 -0.3519921
v 0.3528171 -1.956757 -1.062077
v 0.3528082 0.004857529 -1.062076
v 0.3528174 -2.109409 -0.3519922
v 0.3527997 1.476587 -1.062076
v 0.3528006 1.700835 -0.3519919
v 0.3528091 0.004857498 -0.3519921
v 1.0629 -2.129205 -0.3519918
v 0.3528174 -2.109409 -0.3519922
v 1.062891 0.004856278 -0.3519917
v 0.3528006 1.700835 -0.3519919
v 1.062883 2.000014 -0.3519917
v 0.4339505 -2.178707 -0.3519921
v 1.062891 0.004856278 -0.3519917
v 1.062901 -1.557318 -1.062077
v 1.0629 -2.129205 -0.3519918
v 1.062892 0.004856308 -1.062076
v 1.0629 -2.240183 -0.7956285
v 1.062891 0.004856278 -0.3519917
v 1.062883 1.221033 -1.062076
v 1.062883 2.000014 -0.3519917
v 1.062883 1.920139 -0.6049167
v 0.8721963 0.004518699 0.8702955
v 0.8721969 0.004519386 -0.8702946
v 0.8722058 -2.117403 -0.2448128
v 0.8722052 -1.976619 0.8702958
v 0.8722052 -2.073297 0.4626586
v 0.8722061 -1.616779 -0.870295
v 0.8721884 1.755985 -0.8702947
v 0.8721878 2.305673 0.8702953
v 0.8722061 -1.616779 -0.870295
v 0.6923877 -2.288023 -0.8702946
v 0.8722058 -2.23411 -0.8702947
v -0.8683884 -0.9549209 -0.870295
v 0.8721969 0.004519386 -0.8702946
v -0.8683975 0.004519386 -0.8702945
v -0.009252014 1.122161 -0.8702943
v 0.2897803 1.510601 -0.8702944
v -0.2847043 1.009647 -0.8702941
v -0.8684061 0.9490854 -0.8702941
v 0.8721884 1.755985 -0.8702947
v -0.8683884 -0.9549209 -0.870295
v -0.8683908 -0.7886624 0.8702949
v -0.8683902 -1.194593 0.4219745
v -0.8683993 0.00451992 0.8702955
v -0.8683975 0.004519386 -0.8702945
v -0.8684061 0.9490854 -0.8702941
v -0.8684091 1.572311 0.8702958
v -0.8683908 -0.7886624 0.8702949
v 0.8722052 -1.976619 0.8702958
v 0.7496582 -2.004556 0.8702958
v 0.8721963 0.004518699 0.8702955
v -0.8683993 0.00451992 0.8702955
v -0.8684091 1.572311 0.8702958
v 0.8721878 2.305673 0.8702953
v -1.062885 -1.051556 0.3519908
v -0.352811 0.004856857 0.3519907
v -1.062893 0.004858078 0.3519912
v -0.3528018 -1.658057 0.3519905
v -1.062902 1.326681 0.3519915
v -0.3528195 1.625858 0.351991
v -0.3528018 -1.658057 0.3519905
v -0.3528107 0.004855605 1.062075
v -0.352811 0.004856857 0.3519907
v -0.3528015 -1.213584 1.062075
v -0.3528018 -1.698028 0.5379187
v -0.3528195 1.625858 0.351991
v -0.3528192 1.850108 1.062075
v 1.062894 0.004856857 0.3519934
v 0.7407458 -2.126161 0.3519936
v 1.062903 -2.133479 0.3519934
v 0.3528088 0.004856857 0.3519935
v 0.3528174 -1.79482 0.3519936
v 0.3528 1.923158 0.3519936
v 1.062885 2.222338 0.3519934
v -1.062885 -0.9002176 -0.3519935
v -0.3528015 -1.354071 -1.062076
v -1.062885 -0.7475698 -1.062076
v -0.3528012 -1.506719 -0.3519933
v -0.3528018 -1.658057 0.3519905
v -1.062885 -1.057198 0.3782372
v -0.3528018 -1.698028 0.5379187
v -1.062885 -1.051556 0.3519908
v -0.3528015 -1.213584 1.062075
v -1.062885 -0.4251712 1.062075
v 1.062903 -2.032082 1.062076
v 0.8481162 -2.081048 1.062076
v 0.3528177 -1.531114 1.062076
v 1.062894 0.004855605 1.062076
v 0.3528094 0.004855605 1.062076
v 0.3528006 2.147406 1.062076
v 1.062885 2.253031 1.062076
v 0.8155984 2.342394 1.062076
v -0.3528107 0.004855605 1.062075
v -1.062885 -0.4251712 1.062075
v -1.062893 0.004855605 1.062075
v -0.3528015 -1.213584 1.062075
v -1.062902 1.550929 1.062075
v -0.3528192 1.850108 1.062075
v -1.062885 -0.4251712 1.062075
v -1.062893 0.004858078 0.3519912
v -1.062893 0.004855605 1.062075
v -1.062885 -1.057198 0.3782372
v -1.062885 -1.051556 0.3519908
v -1.062902 1.326681 0.3519915
v -1.062902 1.550929 1.062075
v 0.3528177 -1.531114 1.062076
v 0.3528174 -1.868902 0.6965973
v 0.3528174 -1.79482 0.3519936
v 0.3528088 0.004856857 0.3519935
v 0.3528094 0.004855605 1.062076
v 0.3528 1.923158 0.3519936
v 0.3528006 2.147406 1.062076
v -0.8683902 -1.194593 0.4219745
v 0.7635449 -2.028128 0.6242641
v 0.355643 -2.091979 -0.1949421
v -0.8683908 -0.7886624 0.8702949
v 0.7496582 -2.004556 0.8702958
v 0.8722052 -2.073297 0.4626586
v 0.8722052 -1.976619 0.8702958
v 0.8722058 -2.117403 -0.2448128
v 0.6923877 -2.288023 -0.8702946
v 0.8722058 -2.23411 -0.8702947
v -0.8683884 -0.9549209 -0.870295
v 1.062903 -2.032082 1.062076
v 0.8727655 -2.217624 0.4625237
v 0.8481162 -2.081048 1.062076
v 1.062903 -2.185174 0.4165816
v 0.7407458 -2.126161 0.3519936
v 1.062903 -2.133479 0.3519934
v 0.3528174 -1.868902 0.6965973
v 0.3528177 -1.531114 1.062076
v 0.3528174 -1.79482 0.3519936
v 1.062903 -2.133479 0.3519934
v 1.062903 -2.185174 0.4165816
v 1.062903 -2.032082 1.062076
v 1.062894 0.004856857 0.3519934
v 1.062894 0.004855605 1.062076
v 1.062885 2.222338 0.3519934
v 1.062885 2.253031 1.062076
v 1.062885 2.283068 0.544297
v 0.4339505 -2.178707 -0.3519921
v 0.6460419 -2.342394 -0.8652292
v 0.3528174 -2.109409 -0.3519922
v 1.0629 -2.129205 -0.3519918
v 1.0629 -2.240183 -0.7956285
v 0.6286896 -2.192389 -1.062076
v 1.062901 -1.557318 -1.062077
v 0.3528171 -1.956757 -1.062077
v 0.8722058 -2.23411 -0.8702947
v 0.8722058 -2.117403 -0.2448128
v 0.8722061 -1.616779 -0.870295
v 0.3528006 1.700835 -0.3519919
v 1.062883 1.920139 -0.6049167
v 1.062883 2.000014 -0.3519917
v 0.7680954 1.651563 -1.062076
v 0.3527997 1.476587 -1.062076
v 1.062883 1.221033 -1.062076
v -1.062902 1.550929 1.062075
v -0.3528195 1.625858 0.351991
v -0.3528192 1.850108 1.062075
v -1.062902 1.326681 0.3519915
v 0.3528006 2.147406 1.062076
v 1.062885 2.283068 0.544297
v 0.8155984 2.342394 1.062076
v 1.062885 2.222338 0.3519934
v 1.062885 2.253031 1.062076
v 0.3528 1.923158 0.3519936
v 0.8721884 1.755985 -0.8702947
v 0.8721878 2.305673 0.8702953
v 0.2966949 1.966532 -0.2264121
v 0.2897803 1.510601 -0.8702944
v -0.4332593 1.65156 0.1079078
v -0.8684091 1.572311 0.8702958
v -0.8684061 0.9490854 -0.8702941
v -0.009252014 1.122161 -0.8702943
v -0.3528186 1.403538 -0.3519928
v -1.062903 1.104359 -0.3519926
v -1.062903 0.9976113 -0.6900135
v -0.7674536 1.004591 -1.062075
v -1.062902 0.6342777 -1.062075
v -0.3528189 0.9696226 -1.062076
v -0.009252014 1.122161 -0.8702943
v -0.8684061 0.9490854 -0.8702941
v -0.2847043 1.009647 -0.8702941
vt 0.9081712 0.7112697
vt 0.946601 0.5975051
vt 0.9081712 0.5874944
vt 0.946601 0.7112697
vt 0.9465739 0.7780144
vt 0.9081447 0.8034504
vt 0.9554366 0.7112697
vt 0.9926008 0.6372793
vt 0.9553649 0.5975051
vt 0.9925947 0.7112697
vt 0.9926032 0.7569758
vt 0.9552994 0.7749944
vt 0.978624 0.7774451
vt 0.9081712 0.6372793
vt 0.946601 0.7112697
vt 0.946601 0.6272687
vt 0.9081711 0.7112697
vt 0.9081447 0.7530024
vt 0.9465739 0.7850643
vt 0.9314876 0.7805935
vt 0.9925946 0.7112697
vt 0.9553649 0.6272687
vt 0.9554366 0.7112697
vt 0.9926008 0.5874944
vt 0.9552994 0.7838303
vt 0.9926032 0.8061085
vt 0.9081712 0.7112697
vt 0.9465739 0.5577508
vt 0.9081712 0.5841761
vt 0.946601 0.7112697
vt 0.9316707 0.5425282
vt 0.9465739 0.8102242
vt 0.9081447 0.7914818
vt 0.9258482 0.8227654
vt 0.9925947 0.7112697
vt 0.9552994 0.5579808
vt 0.9554366 0.7112697
vt 0.9926032 0.5479701
vt 0.9552994 0.808241
vt 0.9926032 0.824715
vt 0.9081711 0.7112697
vt 0.9465739 0.5464419
vt 0.9081447 0.5479701
vt 0.9466011 0.7112697
vt 0.9081447 0.8229471
vt 0.9465739 0.8445505
vt 0.9125621 0.5434255
vt 0.9554366 0.7112697
vt 0.9926008 0.5841761
vt 0.9552994 0.5466718
vt 0.9925945 0.7112697
vt 0.9786516 0.5393939
vt 0.9554366 0.7112697
vt 0.9926032 0.7948617
vt 0.9552994 0.8425672
vt 0.9642051 0.8390968
vt 0.7698024 0.6478004
vt 0.8307555 0.6478004
vt 0.808852 0.5733281
vt 0.7701613 0.577446
vt 0.7842223 0.5741985
vt 0.8307555 0.5882354
vt 0.8308048 0.699979
vt 0.7698024 0.7167678
vt 0.8387165 0.5882354
vt 0.8450134 0.5682474
vt 0.8387164 0.5686688
vt 0.899663 0.6079442
vt 0.8387165 0.6478004
vt 0.8996696 0.6478004
vt 0.8699036 0.6802986
vt 0.8609645 0.6924285
vt 0.8801324 0.6774539
vt 0.899663 0.6777564
vt 0.8387165 0.7003993
vt 0.7698022 0.6079442
vt 0.8307555 0.6120103
vt 0.8150558 0.5996718
vt 0.8307555 0.6478004
vt 0.7698022 0.6478004
vt 0.7698022 0.6777087
vt 0.8308048 0.6943385
vt 0.8387163 0.6120103
vt 0.899663 0.5773304
vt 0.8963355 0.5745428
vt 0.8996695 0.6478004
vt 0.8387163 0.6478004
vt 0.8387163 0.6949299
vt 0.899663 0.716104
vt 0.9081447 0.8047397
vt 0.946601 0.7112697
vt 0.9081712 0.7112697
vt 0.9465739 0.8442841
vt 0.9081712 0.6214603
vt 0.946601 0.6040534
vt 0.9552994 0.8445139
vt 0.9925947 0.7112697
vt 0.9554366 0.7112697
vt 0.9926032 0.8153654
vt 0.965166 0.8471352
vt 0.9553649 0.6022855
vt 0.9926008 0.5893472
vt 0.9925946 0.7112697
vt 0.9792839 0.8757099
vt 0.9926008 0.868114
vt 0.9554366 0.7112697
vt 0.9552994 0.8452499
vt 0.9552994 0.5818985
vt 0.9926032 0.5649364
vt 0.2247693 0.7135559
vt 0.1621948 0.6509335
vt 0.2247693 0.6509335
vt 0.1621948 0.7135559
vt 0.1621948 0.7756404
vt 0.2247693 0.7779552
vt 0.1621948 0.7920375
vt 0.2247693 0.7756405
vt 0.1621948 0.8382629
vt 0.2247693 0.8382629
vt 0.9553649 0.8653116
vt 0.9697645 0.8698367
vt 0.9926032 0.8349404
vt 0.9554366 0.7112697
vt 0.9925947 0.7112697
vt 0.9926032 0.5698504
vt 0.9552994 0.5607622
vt 0.9633428 0.554405
vt 0.9081711 0.7112697
vt 0.9465739 0.7634314
vt 0.946601 0.7112697
vt 0.9081447 0.8153654
vt 0.946601 0.6089672
vt 0.9081712 0.5871341
vt 0.9552994 0.7636613
vt 0.9925946 0.7112697
vt 0.9554366 0.7112697
vt 0.9926032 0.8051097
vt 0.9926032 0.8047397
vt 0.9926008 0.6236734
vt 0.9553649 0.6071994
vt 0.9081447 0.8308971
vt 0.9308441 0.8582821
vt 0.9467683 0.8492591
vt 0.946601 0.7112697
vt 0.9081711 0.7112697
vt 0.9467683 0.5845565
vt 0.9081712 0.5683864
vt 0.2076299 0.7818123
vt 0.07690535 0.8003708
vt 0.09976476 0.7274063
vt 0.20763 0.8213499
vt 0.07737947 0.833458
vt 0.05418967 0.7786729
vt 0.05560696 0.8295094
vt 0.05424383 0.7230082
vt 0.07008982 0.6678468
vt 0.05424369 0.6678468
vt 0.2076298 0.6678468
vt 0.02758025 0.8480065
vt 0.05737949 0.7776945
vt 0.07020308 0.8467321
vt 0.03174382 0.7750246
vt 0.08369139 0.7714409
vt 0.03609602 0.752286
vt 0.1215809 0.8075498
vt 0.116376 0.8609563
vt 0.1224798 0.7701292
vt 0.9081712 0.8704005
vt 0.9149561 0.878973
vt 0.9467683 0.8641188
vt 0.9081712 0.7112697
vt 0.946601 0.7112697
vt 0.9081447 0.5634723
vt 0.9465739 0.5626935
vt 0.9176998 0.5608924
vt 0.09286402 0.7135561
vt 0.07417392 0.6682935
vt 0.1000137 0.7135561
vt 0.0374392 0.7135561
vt 0.0374392 0.6744317
vt 0.07570305 0.6509335
vt 0.0374392 0.6509335
vt 0.1000137 0.6509335
vt 0.8551072 0.2128247
vt 0.8551073 0.2584126
vt 0.8551072 0.2128246
vt 0.1767019 0.7285055
vt 0.08953878 0.6977494
vt 0.1066913 0.7261875
vt 0.1233952 0.6516479
vt 0.1750805 0.6577456
vt 0.0604931 0.6581916
vt 0.2318994 0.8515218
vt 0.16351 0.78308
vt 0.1618885 0.8492037
vt 0.2302778 0.7807618
vt 0.2091625 0.8190614
vt 0.1201905 0.7763654
vt 0.143857 0.8271739
vt 0.140773 0.7506196
vt 0.1015122 0.8367797
vt 0.2075411 0.7483016
vt 0.03465337 0.6588954
vt 0.03541821 0.835843
vt 0.09446325 0.7218722
vt 0.1010373 0.657279
vt 0.1723208 0.7576165
vt 0.2168787 0.8399744
vt 0.2095782 0.6568173
vt 0.1224911 0.6526788
vt 0.1313035 0.6624379
vt 0.2318995 0.7152262
vt 0.230966 0.6814322
vt 0.1977521 0.6417904
vt 0.2317714 0.6321131
vt 0.1378844 0.6354364
vt 0.1224911 0.6526788
vt 0.2095782 0.6568173
vt 0.1459113 0.6796303
vn 1 7.029031E-06 -9.908601E-07
vn 1 6.032535E-06 4.888655E-07
vn 1 5.854879E-06 8.28858E-07
vn 1 7.68477E-06 -4.297944E-07
vn 1 6.931895E-06 -3.045346E-06
vn 1 6.109274E-06 -4.163012E-06
vn -4.174291E-07 6.181361E-07 -1
vn 0 5.242415E-07 -1
vn 3.47211E-07 2.807162E-07 -1
vn -4.297748E-07 9.918321E-07 -1
vn -7.996812E-07 3.676129E-07 -1
vn -9.812502E-07 0 -1
vn -7.710099E-07 -4.14989E-07 -1
vn -1 -1.064214E-05 -1.616501E-06
vn -1 -1.075458E-05 0
vn -1 -1.01155E-05 -2.174547E-06
vn -1 -1.246616E-05 -8.595399E-07
vn -1 -9.949323E-06 1.935958E-06
vn -1 -7.585674E-06 3.302692E-06
vn -1 -4.965528E-06 1.56813E-06
vn 0 -3.441048E-07 1
vn -2.651594E-07 -3.398919E-07 1
vn 1.611662E-07 -4.586124E-07 1
vn -4.410529E-07 -2.01895E-07 1
vn 2.481185E-07 -1.86705E-07 1
vn 2.838328E-07 -1.636395E-07 1
vn 2.163847E-07 1.1787E-07 -1
vn 1.074556E-07 -1.149809E-07 -1
vn 0 1.296751E-07 -1
vn 2.148874E-07 0 -1
vn 2.196288E-07 -3.904339E-07 -1
vn 3.965534E-07 0 -1
vn 4.737856E-07 1.222892E-07 -1
vn 4.01049E-07 0 -1
vn -1 -4.981061E-06 1.32935E-06
vn -1 -4.016928E-06 0
vn -1 -5.158839E-06 1.289322E-06
vn -1 -3.897212E-06 -4.080379E-07
vn -1 -5.222237E-06 2.49932E-06
vn -1 -5.038345E-06 2.880455E-06
vn -5.428662E-07 0 1
vn -5.808351E-07 0 1
vn -5.88485E-07 0 1
vn -5.033169E-07 0 1
vn -3.226856E-07 0 1
vn -2.686091E-07 0 1
vn -5.79151E-07 4.228959E-07 1
vn 1 5.761274E-06 0
vn 1 3.524599E-06 2.565568E-06
vn 1 1.831891E-06 1.90514E-06
vn 1 6.471114E-06 4.297742E-07
vn 1 -4.071621E-07 1.01854E-07
vn 1 5.761274E-06 0
vn 1 4.632851E-06 -3.347334E-06
vn 1 2.502723E-06 -2.745551E-06
vn 1 0 0
vn 1 4.315974E-06 0
vn 1 4.701695E-06 7.75576E-07
vn 1 3.152884E-06 1.059511E-06
vn 1 3.907968E-06 0
vn 1 -4.934753E-06 1.170365E-06
vn 1 3.895711E-06 3.605956E-06
vn 1 4.19911E-06 -3.332023E-07
vn 1 3.71332E-06 -8.220282E-07
vn -1.492485E-07 -2.802366E-07 -1
vn -4.561444E-07 -5.597669E-07 -1
vn -7.003533E-07 -4.943464E-07 -1
vn 0 2.569968E-07 -1
vn -1.13059E-07 2.394198E-07 -1
vn -1.146329E-07 4.630803E-07 -1
vn -3.987041E-07 2.154272E-07 -1
vn -4.921352E-07 0 -1
vn -6.855943E-07 7.776591E-07 -1
vn 0 4.038567E-07 -1
vn -5.056355E-07 0 -1
vn -1 -8.305259E-06 -9.504486E-07
vn -1 -7.766987E-06 -6.607405E-07
vn -1 0 -1.407492E-06
vn -1 -8.749495E-06 -2.990666E-07
vn -1 -9.294353E-06 -1.051971E-06
vn -1 -7.808773E-06 -3.80348E-07
vn -1 -6.228908E-06 4.769976E-07
vn -1.8936E-07 -3.326954E-07 1
vn -2.737348E-07 3.053746E-07 1
vn -1.207268E-07 5.295622E-07 1
vn 0 0 1
vn 0 -4.577418E-07 1
vn 1.270653E-07 0 1
vn 2.210851E-07 0 1
vn -3.980487E-07 2.314409E-07 -1
vn -6.481425E-07 2.666437E-07 -1
vn -6.98384E-07 3.320909E-07 -1
vn -2.926213E-07 1.605772E-07 -1
vn -8.235347E-07 1.636386E-07 -1
vn -8.653163E-07 1.411932E-07 -1
vn 1 3.588058E-06 -1.895474E-06
vn 1 5.56228E-06 -1.226156E-06
vn 1 5.388472E-06 -4.297644E-07
vn 1 6.867018E-06 -4.728146E-06
vn 1 -5.11074E-07 -1.098702E-07
vn 1 4.771699E-06 -1.570461E-06
vn 1 4.630761E-06 -1.892198E-06
vn -1.995398E-07 0 -1
vn -3.425817E-07 0 -1
vn -4.740494E-07 0 -1
vn -1.60677E-07 0 -1
vn -1.526494E-07 0 -1
vn -3.314279E-07 0 -1
vn -3.688032E-07 0 -1
vn -0.6409617 -0.750429 -0.1613209
vn -0.6409617 -0.750429 -0.1613209
vn -0.6409618 -0.7504289 -0.161321
vn -0.6409616 -0.7504291 -0.1613207
vn -0.6409616 -0.750428 -0.1613262
vn -0.6808798 -0.7051399 0.1979404
vn -0.6809705 -0.7070169 0.1908043
vn -0.6409625 -0.7504293 -0.1613164
vn -0.6319405 -0.5691563 0.5260346
vn -0.6319402 -0.5691566 0.5260344
vn 0 2.07329E-07 1
vn 0 2.302E-07 1
vn 0 1.665126E-07 1
vn 1.514544E-07 0 1
vn 2.148869E-07 0 1
vn 0 0 1
vn 0 0 1
vn 0 0 1
vn 0 -4.74278E-07 1
vn -2.493812E-07 -1.007547E-06 1
vn 2.148875E-07 -9.117471E-07 1
vn -5.941116E-07 -4.383173E-07 1
vn 2.284992E-07 0 1
vn 2.323071E-07 0 1
vn -1 -1.318358E-05 4.04966E-06
vn -1 -9.478616E-06 2.304029E-06
vn -1 -1.324083E-05 2.934005E-07
vn -1 -8.002015E-06 1.765478E-06
vn -1 -8.088614E-06 -1.738773E-06
vn -1 -6.185518E-06 1.378847E-06
vn -1 -5.921628E-06 1.870079E-06
vn -1 -3.93955E-06 1.60078E-06
vn -1 7.329675E-07 1.575702E-07
vn -1 -3.003567E-06 1.545221E-06
vn -1 -4.904038E-06 1.043355E-06
vn -1 -4.934525E-06 1.00675E-06
vn -1 -4.221855E-06 1.9176E-06
vn -1 -4.130637E-06 2.164029E-06
vn -0.5379208 -0.7815533 0.3159363
vn -0.2676786 -0.940886 0.2075616
vn -0.4077416 -0.9085113 0.0913996
vn -0.4452382 -0.6976383 0.5613054
vn -0.2280581 -0.9703478 0.08009234
vn -0.1217592 -0.9808322 0.1521272
vn 0.1473319 -0.97914 0.1399218
vn -0.004378919 -0.9861486 0.1658062
vn -0.1293999 -0.9852459 0.1120106
vn 0.2827094 -0.9429318 0.1759403
vn -0.6349007 -0.7613761 -0.1311766
vn 0.2165581 -0.949919 0.2252923
vn -0.1897756 -0.9749718 -0.1158239
vn -0.2212569 -0.9319332 0.2873077
vn 0.09174504 -0.9518214 -0.2926067
vn -0.4794446 -0.8700923 -0.114334
vn -0.0177357 -0.7806036 -0.6247747
vn -0.6112145 -0.7647786 0.2037906
vn -0.6319398 -0.5691574 0.5260342
vn -0.6409615 -0.7504284 -0.1613239
vn 1 1.158759E-06 2.643085E-07
vn 1 -4.553959E-06 1.080062E-06
vn 1 3.956324E-06 -1.796424E-07
vn 1 4.107599E-06 -4.054474E-07
vn 1 4.107322E-06 -4.041586E-07
vn 1 3.371812E-06 -1.892103E-07
vn 1 3.69211E-06 -1.595917E-07
vn 1 0 0
vn -0.4138981 -0.9027879 0.1168866
vn -0.1847216 -0.9586933 -0.2162985
vn -0.6994575 -0.7105052 -0.07708183
vn 0.1249267 -0.9481131 0.292361
vn 0.3802441 -0.8655415 -0.325964
vn -0.09562443 -0.7044818 -0.7032505
vn 0.4694302 -0.3209594 -0.8225693
vn -0.7101318 -0.662136 -0.239351
vn 1 -4.943466E-07 0
vn 1 3.152884E-06 1.059511E-06
vn 1 3.895711E-06 3.605956E-06
vn -0.3728065 0.8848342 -0.2794347
vn -0.1896752 0.8950841 -0.4035439
vn -0.3728067 0.8848348 -0.2794327
vn 0.0634229 0.8420807 -0.5356097
vn -0.3728053 0.8848348 -0.2794346
vn 0.6243649 0.427508 -0.6537625
vn -0.3728054 0.8848343 -0.2794356
vn -0.3728055 0.8848343 -0.2794356
vn -0.372806 0.8848339 -0.2794361
vn -0.3728051 0.8848347 -0.2794351
vn -0.3728051 0.8848354 -0.2794332
vn -0.2765431 0.930876 -0.2387342
vn -0.1210912 0.9779952 -0.169889
vn -0.3728057 0.8848347 -0.2794343
vn 0.3393579 0.9390786 0.05447642
vn -0.3728066 0.8848339 -0.2794352
vn -0.1944356 0.8676847 -0.4575131
vn -0.2807014 0.9463532 -0.1600698
vn -0.3327652 0.8769085 -0.3468412
vn -0.5868782 0.6637474 -0.4636954
vn -0.4769304 0.8282741 -0.2941081
vn -0.4763091 0.8601398 -0.1824535
vn -0.2916947 0.8080999 -0.5117507
vn -0.4091924 0.7101021 -0.572989
vn -0.23113 0.8996264 -0.3704745
vn -0.3728057 0.8848349 -0.2794336
vn -0.4719042 0.8049677 -0.3596294
vn -0.3491778 0.8126504 -0.4665556
vn -0.6676224 0.5326503 -0.5201576
vn 0.07177796 0.8510938 -0.5200839
vn -0.4091924 0.7101021 -0.572989
vn -0.2916947 0.8080999 -0.5117507
vn 1.886185E-07 -1.817936E-06 -1
g Area_Common_Build_Pillar_B_07_Lod0_0
f 3/3/3 2/2/2 1/1/1
f 4/4/4 1/1/1 2/2/2
f 4/4/4 5/5/5 1/1/1
f 1/1/1 5/5/5 6/6/6
f 9/9/9 8/8/8 7/7/7
f 10/10/10 7/7/7 8/8/8
f 10/10/10 11/11/11 7/7/7
f 12/12/12 7/7/7 11/11/11
f 11/11/11 13/13/13 12/12/12
f 16/16/16 15/15/15 14/14/14
f 17/17/17 14/14/14 15/15/15
f 17/17/17 15/15/15 18/18/18
f 19/19/19 18/18/18 15/15/15
f 19/19/19 20/20/20 18/18/18
f 23/23/23 22/22/22 21/21/21
f 24/24/24 21/21/21 22/22/22
f 23/23/23 21/21/21 25/25/25
f 26/26/26 25/25/25 21/21/21
f 29/29/29 28/28/28 27/27/27
f 30/30/30 27/27/27 28/28/28
f 31/31/31 28/28/28 29/29/29
f 30/30/30 32/32/32 27/27/27
f 33/33/33 27/27/27 32/32/32
f 32/32/32 34/34/34 33/33/33
f 37/37/37 36/36/36 35/35/35
f 38/38/38 35/35/35 36/36/36
f 37/37/37 35/35/35 39/39/39
f 40/40/40 39/39/39 35/35/35
f 43/43/43 42/42/42 41/41/41
f 44/44/44 41/41/41 42/42/42
f 41/41/41 44/44/44 45/45/45
f 46/46/46 45/45/45 44/44/44
f 47/47/47 42/42/42 43/43/43
f 50/50/50 49/49/49 48/48/48
f 51/51/51 48/48/48 49/49/49
f 52/52/52 49/49/49 50/50/50
f 51/51/51 54/54/54 53/53/53
f 53/53/53 54/54/54 55/55/55
f 54/54/54 56/56/56 55/55/55
f 59/59/59 58/58/58 57/57/57
f 57/57/57 60/60/60 59/59/59
f 61/61/61 59/59/59 60/60/60
f 62/62/62 58/58/58 59/59/59
f 58/58/58 63/63/63 57/57/57
f 64/64/64 57/57/57 63/63/63
f 67/67/67 66/66/66 65/65/65
f 66/66/66 68/68/68 65/65/65
f 65/65/65 68/68/68 69/69/69
f 68/68/68 70/70/70 69/69/69
f 69/69/69 70/70/70 71/71/71
f 69/69/69 71/71/71 72/72/72
f 73/73/73 71/71/71 70/70/70
f 74/74/74 73/73/73 70/70/70
f 75/75/75 69/69/69 72/72/72
f 78/78/78 77/77/77 76/76/76
f 77/77/77 79/79/79 76/76/76
f 76/76/76 79/79/79 80/80/80
f 80/80/80 79/79/79 81/81/81
f 82/82/82 81/81/81 79/79/79
f 85/85/85 84/84/84 83/83/83
f 84/84/84 86/86/86 83/83/83
f 83/83/83 86/86/86 87/87/87
f 87/87/87 86/86/86 88/88/88
f 89/89/89 88/88/88 86/86/86
f 92/92/92 91/91/91 90/90/90
f 93/93/93 90/90/90 91/91/91
f 92/92/92 94/94/94 91/91/91
f 95/95/95 91/91/91 94/94/94
f 98/98/98 97/97/97 96/96/96
f 97/97/97 99/99/99 96/96/96
f 99/99/99 100/100/100 96/96/96
f 98/98/98 101/101/101 97/97/97
f 102/102/102 97/97/97 101/101/101
f 105/105/105 104/104/104 103/103/103
f 103/103/103 104/104/104 106/106/106
f 106/106/106 104/104/104 107/107/107
f 106/106/106 108/108/108 103/103/103
f 109/109/109 103/103/103 108/108/108
f 112/112/112 111/111/111 110/110/110
f 113/113/113 110/110/110 111/111/111
f 116/116/116 115/115/115 114/114/114
f 117/117/117 114/114/114 115/115/115
f 115/115/115 116/116/116 118/118/118
f 119/119/119 115/115/115 118/118/118
f 122/122/122 121/121/121 120/120/120
f 120/120/120 123/123/123 122/122/122
f 124/124/124 122/122/122 123/123/123
f 124/124/124 123/123/123 125/125/125
f 126/126/126 125/125/125 123/123/123
f 127/127/127 125/125/125 126/126/126
f 130/130/130 129/129/129 128/128/128
f 131/131/131 128/128/128 129/129/129
f 130/130/130 128/128/128 132/132/132
f 133/133/133 132/132/132 128/128/128
f 136/136/136 135/135/135 134/134/134
f 137/137/137 134/134/134 135/135/135
f 138/138/138 137/137/137 135/135/135
f 135/135/135 136/136/136 139/139/139
f 140/140/140 139/139/139 136/136/136
f 143/143/143 142/142/142 141/141/141
f 143/143/143 141/141/141 144/144/144
f 145/145/145 144/144/144 141/141/141
f 144/144/144 145/145/145 146/146/146
f 147/147/147 146/146/146 145/145/145
f 150/150/150 149/149/149 148/148/148
f 148/148/148 149/149/149 151/151/151
f 152/152/152 151/151/151 149/149/149
f 149/149/149 150/150/150 153/153/153
f 149/149/149 153/153/153 154/154/154
f 152/152/152 149/149/149 154/154/154
f 155/155/155 153/153/153 150/150/150
f 150/150/150 156/156/156 155/155/155
f 157/157/157 155/155/155 156/156/156
f 156/156/156 150/150/150 158/158/158
f 158/158/158 150/150/150 148/148/148
f 161/161/161 160/160/160 159/159/159
f 162/162/162 159/159/159 160/160/160
f 163/163/163 160/160/160 161/161/161
f 164/164/164 160/160/160 163/163/163
f 162/162/162 160/160/160 164/164/164
f 165/165/165 163/163/163 161/161/161
f 166/166/166 165/165/165 161/161/161
f 167/167/167 163/163/163 165/165/165
f 170/170/170 169/169/169 168/168/168
f 168/168/168 171/171/171 170/170/170
f 172/172/172 170/170/170 171/171/171
f 171/171/171 173/173/173 172/172/172
f 174/174/174 172/172/172 173/173/173
f 175/175/175 174/174/174 173/173/173
f 178/178/178 177/177/177 176/176/176
f 176/176/176 177/177/177 179/179/179
f 180/180/180 179/179/179 177/177/177
f 181/181/181 180/180/180 177/177/177
f 182/182/182 180/180/180 181/181/181
f 181/181/181 177/177/177 183/183/183
f 183/183/183 177/177/177 178/178/178
f 186/186/186 185/185/185 184/184/184
f 189/189/189 188/188/188 187/187/187
f 188/188/188 190/190/190 187/187/187
f 187/187/187 190/190/190 191/191/191
f 188/188/188 192/192/192 190/190/190
f 195/195/195 194/194/194 193/193/193
f 196/196/196 193/193/193 194/194/194
f 199/199/199 198/198/198 197/197/197
f 200/200/200 197/197/197 198/198/198
f 199/199/199 201/201/201 198/198/198
f 202/202/202 197/197/197 200/200/200
f 205/205/205 204/204/204 203/203/203
f 206/206/206 205/205/205 203/203/203
f 205/205/205 207/207/207 204/204/204
f 208/208/208 204/204/204 207/207/207
f 208/208/208 207/207/207 209/209/209
f 207/207/207 205/205/205 210/210/210
f 206/206/206 210/210/210 205/205/205
f 207/207/207 210/210/210 209/209/209
f 213/213/213 212/212/212 211/211/211
f 214/214/214 213/213/213 211/211/211
f 215/215/215 213/213/213 214/214/214
f 216/216/216 214/214/214 211/211/211
f 219/219/219 218/218/218 217/217/217
