g Area_Common_Build_Ruin_H_02_Lod1
v -0.8927627 0.4863409 -0.3220415
v 0.1934574 0.4905252 0.3322667
v -0.6133074 0.4367992 0.3623135
v 0.7065774 0.4326854 -0.331439
v 0.5284491 0.4902759 0.1275423
v -0.9567186 0.4152594 0.143347
v 0.7266341 -0.4218797 0.3334753
v 0.9471063 -0.4119543 -0.3065418
v -0.9560105 -0.3837691 -0.2426576
v -0.8305143 -0.4454004 0.3584583
v 0.9493892 -0.4548779 0.1623708
v 0.7065774 0.4326854 -0.331439
v 0.9510968 0.1501289 -0.1156094
v 0.5284491 0.4902759 0.1275423
v 0.9471063 -0.4119543 -0.3065418
v 0.9474205 0.04561478 0.240331
v 0.9493892 -0.4548779 0.1623708
v 0.1934574 0.4905252 0.3322667
v 0.7266341 -0.4218797 0.3334753
v -0.6133074 0.4367992 0.3623135
v 0.7266341 -0.4218797 0.3334753
v -0.8305143 -0.4454004 0.3584583
v 0.1934574 0.4905252 0.3322667
v 0.9474205 0.04561478 0.240331
v -0.9462167 0.01150803 0.3558922
v -0.9567186 0.4152594 0.143347
v -0.6743848 -0.4010512 -0.3387693
v 0.7065774 0.4326854 -0.331439
v -0.8927627 0.4863409 -0.3220415
v 0.9471063 -0.4119543 -0.3065418
v -0.9560105 -0.3837691 -0.2426576
v -0.9462167 0.01150803 0.3558922
v -0.9560105 -0.3837691 -0.2426576
v -0.9567186 0.4152594 0.143347
v -0.8927627 0.4863409 -0.3220415
v -0.8305143 -0.4454004 0.3584583
vt 0.1594743 0.1990288
vt 0.2656032 0.3690377
vt 0.2768103 0.2458847
vt 0.1547472 0.4364837
vt 0.2291542 0.4188934
vt 0.2401384 0.1894239
vt 0.4243373 0.4640019
vt 0.5337086 0.5002913
vt 0.5315873 0.2092114
vt 0.4248312 0.2271567
vt 0.453521 0.496731
vt 0.1889478 0.4793762
vt 0.257921 0.5181406
vt 0.2514311 0.4311346
vt 0.2602323 0.6020687
vt 0.3148554 0.5030338
vt 0.3347894 0.5722435
vt 0.2739486 0.3780445
vt 0.3729671 0.5502257
vt 0.2883333 0.2473091
vt 0.4135416 0.4443642
vt 0.4116828 0.2126325
vt 0.2824779 0.3675748
vt 0.3608959 0.448754
vt 0.3470761 0.1966242
vt 0.2812014 0.1843771
vt 0.02251924 0.2244824
vt 0.1350162 0.4293408
vt 0.1464705 0.194552
vt 0.003637592 0.4436848
vt 0.02211147 0.1797222
vt 0.1341086 0.8231007
vt 0.1320038 0.703303
vt 0.0633027 0.8239889
vt 0.04728153 0.7479345
vt 0.1902454 0.7859246
vn -0.05744273 0.9967157 0.05708159
vn -0.00638475 0.9991595 -0.04049299
vn -0.0827693 0.9909648 0.1055366
vn 0.00133285 0.9963118 -0.08579492
vn -0.0977633 0.9820732 -0.1611666
vn -0.1444061 0.9809444 0.1299805
vn -0.05837182 -0.997111 -0.04860358
vn -0.05937413 -0.9975892 -0.03592373
vn 0.005851831 -0.9965315 -0.0830104
vn 0.01334007 -0.9944102 -0.1047401
vn -0.2118319 -0.9733301 -0.08806596
vn 0.7843038 0.6146863 -0.08383406
vn 0.9101274 0.3862045 -0.1500472
vn 0.5516374 0.6582625 0.5122371
vn 0.985609 0.05232003 -0.1607408
vn 0.9079946 0.2983009 0.294215
vn 0.9137425 -0.05902175 0.4019838
vn 0.4258925 0.5778756 0.6961863
vn 0.5932454 -0.121623 0.7957812
vn -0.1489267 0.1229363 0.9811767
vn 0.1014579 0.05509049 0.9933134
vn 0.006356327 -0.00593487 0.9999622
vn 0.06583884 0.03979453 0.9970365
vn 0.1830241 0.108247 0.9771309
vn -0.1605511 0.1108678 0.9807812
vn -0.5124083 0.3895478 0.7653041
vn -0.1134543 -0.7304824 -0.6734416
vn 0.01204939 -0.01116719 -0.9998651
vn -0.07128882 0.001259145 -0.9974549
vn 0.01938696 -0.06567754 -0.9976526
vn -0.3263171 -0.2539612 -0.9105059
vn -0.9915727 -0.1000523 0.08229832
vn -0.9958942 -0.08195896 0.03843668
vn -0.9975853 0.02949212 -0.06287879
vn -0.9900831 0.06039669 -0.1268374
vn -0.9547379 -0.2407865 0.1746352
g Area_Common_Build_Ruin_H_02_Lod1_0
f 3/3/3 2/2/2 1/1/1
f 4/4/4 1/1/1 2/2/2
f 2/2/2 5/5/5 4/4/4
f 1/1/1 6/6/6 3/3/3
f 9/9/9 8/8/8 7/7/7
f 9/9/9 7/7/7 10/10/10
f 8/8/8 11/11/11 7/7/7
f 14/14/14 13/13/13 12/12/12
f 12/12/12 13/13/13 15/15/15
f 13/13/13 16/16/16 15/15/15
f 14/14/14 16/16/16 13/13/13
f 17/17/17 15/15/15 16/16/16
f 18/18/18 16/16/16 14/14/14
f 17/17/17 16/16/16 19/19/19
f 22/22/22 21/21/21 20/20/20
f 21/21/21 23/23/23 20/20/20
f 24/24/24 23/23/23 21/21/21
f 22/22/22 20/20/20 25/25/25
f 26/26/26 25/25/25 20/20/20
f 29/29/29 28/28/28 27/27/27
f 28/28/28 30/30/30 27/27/27
f 31/31/31 27/27/27 30/30/30
f 31/31/31 29/29/29 27/27/27
f 34/34/34 33/33/33 32/32/32
f 34/34/34 35/35/35 33/33/33
f 36/36/36 32/32/32 33/33/33
