g Area_Common_Build_Hili_House_05_Col
v -0.1609721 0.3473865 0.1534138
v 0.1609722 -0.01306793 0.1177871
v -0.1609722 -0.01306793 0.1177871
v 0.1609722 0.3473865 0.1534138
v -0.1259263 0.8029385 -0.3402797
v 0.1259263 0.8029385 -0.3402797
v 0.1259263 0.6697023 -0.6405205
v -0.1259263 0.6697023 -0.6405205
v 0.08254151 1.474573 -0.5129455
v -0.08254151 1.474573 -0.5129455
v 0.03398754 2.408213 -0.2702287
v -0.03398754 2.408213 -0.2702287
v 0.03398754 2.408213 -0.352884
v -0.03398754 2.408213 -0.352884
v 0.08254151 1.404601 -0.755416
v -0.08254151 1.404601 -0.755416
vn -0.6427108 0.2835636 0.7116984
vn 0.5634154 -0.7715713 0.2953655
vn -0.5634155 -0.7715713 0.2953654
vn 0.6427108 0.2835635 0.7116983
vn -0.7760069 0.3614499 0.5168824
vn 0.7760068 0.3614498 0.5168824
vn 0.6428273 -0.3432737 -0.6847892
vn -0.6428272 -0.3432738 -0.6847892
vn 0.771811 0.04871715 0.6339828
vn -0.7718111 0.04871719 0.6339828
vn 0.5513738 0.514863 0.656432
vn -0.5513738 0.5148629 0.656432
vn 0.5828866 0.6776667 -0.4483426
vn -0.5828866 0.6776667 -0.4483425
vn 0.642585 0.1142672 -0.757646
vn -0.6425849 0.1142673 -0.7576461
g Area_Common_Build_Hili_House_05_Col_0
f 3/3/3 2/2/2 1/1/1
f 4/4/4 1/1/1 2/2/2
f 1/1/1 4/4/4 5/5/5
f 1/1/1 5/5/5 3/3/3
f 6/6/6 5/5/5 4/4/4
f 4/4/4 2/2/2 6/6/6
f 7/7/7 6/6/6 2/2/2
f 2/2/2 3/3/3 7/7/7
f 8/8/8 7/7/7 3/3/3
f 8/8/8 3/3/3 5/5/5
f 6/6/6 9/9/9 5/5/5
f 6/6/6 7/7/7 9/9/9
f 10/10/10 5/5/5 9/9/9
f 5/5/5 10/10/10 8/8/8
f 9/9/9 11/11/11 10/10/10
f 12/12/12 10/10/10 11/11/11
f 11/11/11 13/13/13 12/12/12
f 14/14/14 12/12/12 13/13/13
f 13/13/13 11/11/11 15/15/15
f 9/9/9 15/15/15 11/11/11
f 13/13/13 15/15/15 14/14/14
f 15/15/15 9/9/9 7/7/7
f 16/16/16 14/14/14 15/15/15
f 14/14/14 16/16/16 12/12/12
f 10/10/10 12/12/12 16/16/16
f 15/15/15 7/7/7 16/16/16
f 8/8/8 16/16/16 7/7/7
f 16/16/16 8/8/8 10/10/10
