g Area_Ly_Build_Common_Archway_02_B_Col
v -2.48203 5.511771 0.4072964
v 2.482028 5.766346 -0.008569902
v 2.48203 5.511771 0.4072964
v -2.482028 5.766346 -0.008569902
v -2.48203 5.51282 -0.4244362
v -2.434609 5.076135 0.8536707
v -2.48203 5.327821 0.8733883
v -2.434609 5.076261 -0.8708071
v -2.48203 5.353461 -0.8905257
v 2.434609 5.076261 -0.8708071
v 2.434609 5.076135 0.8536707
v 2.48203 5.51282 -0.4244362
v 2.48203 5.327821 0.8733883
v 2.48203 5.353461 -0.8905257
v 3.408897 4.702397 -0.008569902
v 1.0379 4.431528 0.4978872
v 1.0379 4.702397 -0.008569902
v 3.408899 4.431528 0.4978872
v 1.0379 4.449169 -0.4207209
v 3.408899 4.449169 -0.4207209
v 3.408899 4.271253 0.8733883
v 1.0379 4.271253 0.8733883
v 1.037901 4.007956 0.8536708
v 3.361477 4.00772 0.8536708
v 3.408899 4.289512 -0.8905256
v 1.0379 4.289512 -0.8905256
v 1.037901 4.008091 -0.870807
v 3.361477 4.007846 -0.870807
v -3.398767 4.702397 -0.007361908
v -1.027771 4.455255 -0.437299
v -1.027771 4.702397 -0.007361698
v -3.398769 4.455255 -0.4372992
v -1.027771 4.449169 0.4047894
v -3.398769 4.449169 0.4047891
v -3.398769 4.292753 -0.8893201
v -1.027771 4.292753 -0.8893199
v -1.027771 4.007956 -0.8696025
v -3.351348 4.00772 -0.8696026
v -3.398769 4.289512 0.8745939
v -1.027771 4.289512 0.874594
v -1.027771 4.008091 0.8548754
v -3.351348 4.007846 0.8548753
vn -0.7593892 0.5692909 0.3150175
vn 0.6064534 0.7951187 0.0007309765
vn 0.7593892 0.5692909 0.3150175
vn -0.6064535 0.7951186 0.0007308654
vn -0.7646797 0.5715882 -0.2975767
vn -0.5341373 -0.6388329 0.5537057
vn -0.6582858 0.366824 0.657343
vn -0.5364618 -0.6340607 -0.5569341
vn -0.6492714 0.3924592 -0.6514772
vn 0.5364616 -0.6340607 -0.5569345
vn 0.5341374 -0.6388329 0.5537056
vn 0.7646797 0.5715881 -0.2975767
vn 0.6582858 0.366824 0.657343
vn 0.6492715 0.3924591 -0.651477
vn 0.6103626 0.7917677 -0.02368964
vn 0 0.9016311 0.4325061
vn 0 0.9995527 -0.02990661
vn 0.7516274 0.5829921 0.3085067
vn 0 0.9050629 -0.4252777
vn 0.7649066 0.5711578 -0.2978196
vn 0.6586437 0.3596593 0.660934
vn 0 0.5195432 0.8544441
vn -6.979544E-05 -0.7330382 0.6801874
vn 0.536131 -0.6358077 0.5552586
vn 0.6483648 0.3943383 -0.6512452
vn 0 0.5535539 -0.8328133
vn -7.101786E-05 -0.7313523 -0.6819998
vn 0.5370228 -0.6332489 -0.5573171
vn -0.6081628 0.7937275 0.01160347
vn 0 0.9075385 -0.4199689
vn 0 0.9998932 0.01461744
vn -0.7589679 0.5797648 -0.2963789
vn 0 0.905063 0.4252777
vn -0.7649657 0.5711788 0.2976277
vn -0.6494035 0.388418 -0.6537634
vn 0 0.546585 -0.8374037
vn 7.002203E-05 -0.7311225 -0.6822461
vn -0.537828 -0.6323696 -0.557539
vn -0.648365 0.3943382 0.6512452
vn 0 0.5535539 0.8328133
vn 7.09739E-05 -0.7313523 0.6819999
vn -0.5370228 -0.6332489 0.5573171
g Area_Ly_Build_Common_Archway_02_B_Col_0
f 3/3/3 2/2/2 1/1/1
f 4/4/4 1/1/1 2/2/2
f 4/4/4 5/5/5 1/1/1
f 4/4/4 2/2/2 5/5/5
f 1/1/1 5/5/5 6/6/6
f 7/7/7 1/1/1 6/6/6
f 8/8/8 6/6/6 5/5/5
f 9/9/9 8/8/8 5/5/5
f 8/8/8 10/10/10 6/6/6
f 8/8/8 9/9/9 10/10/10
f 11/11/11 6/6/6 10/10/10
f 12/12/12 5/5/5 2/2/2
f 10/10/10 12/12/12 11/11/11
f 3/3/3 11/11/11 12/12/12
f 12/12/12 2/2/2 3/3/3
f 11/11/11 13/13/13 6/6/6
f 7/7/7 6/6/6 13/13/13
f 7/7/7 13/13/13 1/1/1
f 3/3/3 1/1/1 13/13/13
f 3/3/3 13/13/13 11/11/11
f 10/10/10 14/14/14 12/12/12
f 14/14/14 10/10/10 9/9/9
f 12/12/12 14/14/14 5/5/5
f 9/9/9 5/5/5 14/14/14
f 17/17/17 16/16/16 15/15/15
f 18/18/18 15/15/15 16/16/16
f 17/17/17 15/15/15 19/19/19
f 20/20/20 19/19/19 15/15/15
f 20/20/20 15/15/15 18/18/18
f 18/18/18 16/16/16 21/21/21
f 22/22/22 21/21/21 16/16/16
f 22/22/22 23/23/23 21/21/21
f 24/24/24 21/21/21 23/23/23
f 18/18/18 21/21/21 24/24/24
f 18/18/18 24/24/24 20/20/20
f 20/20/20 25/25/25 19/19/19
f 26/26/26 19/19/19 25/25/25
f 26/26/26 25/25/25 27/27/27
f 23/23/23 27/27/27 24/24/24
f 28/28/28 27/27/27 25/25/25
f 28/28/28 25/25/25 20/20/20
f 28/28/28 20/20/20 24/24/24
f 28/28/28 24/24/24 27/27/27
f 31/31/31 30/30/30 29/29/29
f 32/32/32 29/29/29 30/30/30
f 31/31/31 29/29/29 33/33/33
f 34/34/34 33/33/33 29/29/29
f 34/34/34 29/29/29 32/32/32
f 32/32/32 30/30/30 35/35/35
f 36/36/36 35/35/35 30/30/30
f 36/36/36 37/37/37 35/35/35
f 38/38/38 35/35/35 37/37/37
f 32/32/32 35/35/35 38/38/38
f 32/32/32 38/38/38 34/34/34
f 34/34/34 39/39/39 33/33/33
f 40/40/40 33/33/33 39/39/39
f 40/40/40 39/39/39 41/41/41
f 37/37/37 41/41/41 38/38/38
f 42/42/42 41/41/41 39/39/39
f 42/42/42 39/39/39 34/34/34
f 42/42/42 34/34/34 38/38/38
f 42/42/42 38/38/38 41/41/41
