g Area_Common_Build_Hili_House_21_Ocl
v 4.360406 0 1.587059
v -1.220703E-06 3.051758E-07 1.907349E-07
v 4.640246 0 1.525879E-07
v 4.360404 0 -1.587061
v 3.554633 0 -2.982696
v 2.320121 0 -4.018574
v 0.8057678 0 -4.569752
v -0.8057739 0 -4.569751
v -2.320126 0 -4.018571
v -3.554637 0 -2.982693
v -4.360408 0 -1.587057
v -4.640248 0 8.392334E-07
v -4.360408 0 1.587059
v -3.554636 0 2.982694
v -2.320124 0 4.018573
v -0.8057715 -5.684342E-16 4.569752
v 0.805769 -5.684342E-16 4.569752
v 2.320123 0 4.018573
v 3.554635 0 2.982694
vt 0.6710101 0.9698462
vt 0.5 0.4999999
vt 0.5 1
vt 0.3289896 0.9698462
vt 0.1786059 0.883022
vt 0.06698719 0.7499998
vt 0.007596076 0.5868238
vt 0.007596165 0.4131757
vt 0.06698743 0.2499998
vt 0.1786064 0.1169777
vt 0.32899 0.03015369
vt 0.5000001 2.980232E-08
vt 0.6710101 0.03015372
vt 0.8213938 0.1169778
vt 0.9330127 0.25
vt 0.9924039 0.4131759
vt 0.9924039 0.5868241
vt 0.9330127 0.75
vt 0.8213938 0.8830222
vn 0 1 0
vn 0 1 0
vn 0 1 0
vn 0 1 0
vn 0 1 0
vn 0 1 0
vn 0 1 0
vn 0 1 0
vn 0 1 0
vn 0 1 0
vn 0 1 0
vn 0 1 0
vn 0 1 0
vn 0 1 0
vn 0 1 0
vn 0 1 0
vn 0 1 0
vn 0 1 0
vn 0 1 0
g Area_Common_Build_Hili_House_21_Ocl_0
f 3/3/3 2/2/2 1/1/1
f 4/4/4 2/2/2 3/3/3
f 5/5/5 2/2/2 4/4/4
f 6/6/6 2/2/2 5/5/5
f 7/7/7 2/2/2 6/6/6
f 8/8/8 2/2/2 7/7/7
f 9/9/9 2/2/2 8/8/8
f 10/10/10 2/2/2 9/9/9
f 11/11/11 2/2/2 10/10/10
f 12/12/12 2/2/2 11/11/11
f 13/13/13 2/2/2 12/12/12
f 14/14/14 2/2/2 13/13/13
f 15/15/15 2/2/2 14/14/14
f 16/16/16 2/2/2 15/15/15
f 17/17/17 2/2/2 16/16/16
f 18/18/18 2/2/2 17/17/17
f 19/19/19 2/2/2 18/18/18
f 1/1/1 2/2/2 19/19/19
