g Area_Common_Prop_Klee_Pit_Col
v 0.4277418 0.2767858 1.47448
v 1.131055 0.01982907 2.301503
v -0.1623449 0.2323039 1.905449
v -0.03672185 0.0192391 2.528654
v -0.06037737 0.4258381 1.606666
v 0.04455266 0.4328025 1.147735
v -0.4611095 0.3494648 1.26919
v -0.2792583 0.5668976 0.6288429
v -0.5335333 0.6204327 0.8127382
v -0.4129089 0.4709957 0.3813647
v -0.0008102989 0.1192328 -0.02330048
v -0.003196443 0.4959092 0.6202229
v -1.01811 0.5310261 0.4227284
v -0.9481531 0.5956019 0.8494508
v 0.4791331 0.6928692 1.05203
v 0.6482021 0.6374546 0.5589945
v 0.9576111 0.5624046 1.207673
v 0.7047502 0.5463142 -0.0702167
v 1.361392 0.4901466 1.619037
v 1.65635 0.2457599 0.9187623
v 1.815541 0.02104848 1.729914
v -0.7273685 0.5096837 0.09209672
v -0.9429014 0.6270663 0.03509314
v -0.9494052 0.4711849 -0.5494829
v -0.5529925 0.5394694 -0.4987566
v -0.5913698 0.6804503 -0.8201422
v -0.2844372 0.5967833 -0.9150068
v 0.2705502 0.5565119 -0.6734526
v 0.05951689 0.2731239 -1.513044
v -0.7987304 0.4867707 -1.196818
v -0.9960809 0.2000763 -1.605781
v -1.308323 0.4553337 -1.155695
v -1.697217 0.1979387 -1.08514
v -2.251454 0.02030482 -1.273186
v -1.225908 0.02049225 -2.274679
v -1.137063 0.5548143 -0.7694557
v -1.372419 0.3934531 -0.506945
v -1.878662 0.1536035 -0.05499236
v -1.467469 0.5157694 0.2199168
v -2.544061 0.02033042 0.03247643
v -2.237605 0.01813752 1.269896
v -1.714149 0.1462882 0.8354564
v 0.07159347 0.01983743 -2.536934
v 1.272467 0.01751146 -2.189002
v -0.8876859 0.1534043 1.590502
v -1.354884 0.01996298 2.188411
v 0.6692458 0.2467569 -1.273142
v 1.308296 0.2770018 -0.6995746
v 2.213673 0.01959181 -1.273748
v 1.526044 0.2701054 -0.02477592
v 1.19568 0.4261162 0.7155443
v 2.265081 0.02104843 1.193606
v 2.520443 0.0199262 -0.09397729
vn -0.008347965 0.8972653 0.441413
vn 0.07710772 0.88254 0.4638723
vn -0.1038674 0.9256123 0.3639415
vn -0.02817517 0.9545695 0.2966533
vn 0.00747449 0.9368656 0.3496097
vn -0.1377558 0.9596969 0.2449597
vn -0.09593799 0.9336945 0.3449791
vn 0.1574485 0.9765244 -0.1470038
vn 0.1540241 0.9748051 0.1613434
vn 0.2128603 0.9188508 -0.3322704
vn -0.02161523 0.999428 0.02600612
vn -0.03154595 0.968305 -0.2477709
vn -0.1207501 0.9890692 0.08462619
vn -0.2581058 0.9413676 0.2172748
vn -0.1146621 0.9549001 0.2738946
vn 0.02989128 0.9854206 -0.1674895
vn 0.1281812 0.9729269 0.1923091
vn -0.02654607 0.99783 -0.06025472
vn 0.2798016 0.9097636 0.3066613
vn 0.3995599 0.9166994 -0.003769254
vn 0.5288246 0.7877818 0.3158233
vn 0.3255879 0.9454885 0.006651487
vn 0.1549953 0.9875572 -0.02659162
vn -0.1385542 0.97539 0.1715141
vn 0.06723084 0.9555501 0.2870612
vn 0.02891607 0.9995665 0.005542818
vn 0.128489 0.9734898 -0.1892306
vn 0.07485889 0.9971927 0.001737886
vn 0.07605753 0.9453697 -0.3170037
vn -0.05944943 0.8882565 -0.4554846
vn -0.1309499 0.915782 -0.3797307
vn -0.3909184 0.8463935 -0.361664
vn -0.3564515 0.9159603 -0.1842802
vn -0.2487952 0.9584611 -0.1394752
vn -0.1100388 0.9689642 -0.2213591
vn -0.2822932 0.9535231 0.1053761
vn -0.4047187 0.9132765 -0.04613853
vn -0.3834706 0.9235177 -0.008081388
vn -0.4241317 0.8997668 0.1026251
vn -0.2075654 0.9780512 0.01823384
vn -0.1581785 0.9829838 0.09339327
vn -0.3105148 0.9348519 0.1721407
vn 0.01023161 0.9707161 -0.2400117
vn 0.11484 0.9744364 -0.1930945
vn -0.1670213 0.9413288 0.2932644
vn -0.09114926 0.9846965 0.1485418
vn 0.1548869 0.9569005 -0.2456654
vn 0.2264535 0.9629496 -0.1464479
vn 0.2011939 0.9721415 -0.1202573
vn 0.2971196 0.9537256 -0.04612479
vn 0.3773195 0.9247944 -0.04884118
vn 0.2760969 0.9544871 0.1128049
vn 0.2433985 0.9698862 -0.008818007
g Area_Common_Prop_Klee_Pit_Col_0
f 3/3/3 2/2/2 1/1/1
f 3/3/3 4/4/4 2/2/2
f 3/3/3 1/1/1 5/5/5
f 5/5/5 1/1/1 6/6/6
f 6/6/6 7/7/7 5/5/5
f 3/3/3 5/5/5 7/7/7
f 6/6/6 8/8/8 7/7/7
f 7/7/7 8/8/8 9/9/9
f 9/9/9 8/8/8 10/10/10
f 11/11/11 10/10/10 8/8/8
f 6/6/6 12/12/12 8/8/8
f 12/12/12 11/11/11 8/8/8
f 10/10/10 13/13/13 9/9/9
f 7/7/7 9/9/9 14/14/14
f 14/14/14 9/9/9 13/13/13
f 6/6/6 1/1/1 15/15/15
f 6/6/6 15/15/15 12/12/12
f 12/12/12 15/15/15 16/16/16
f 11/11/11 12/12/12 16/16/16
f 16/16/16 15/15/15 17/17/17
f 18/18/18 11/11/11 16/16/16
f 15/15/15 1/1/1 17/17/17
f 19/19/19 17/17/17 1/1/1
f 17/17/17 19/19/19 20/20/20
f 21/21/21 20/20/20 19/19/19
f 21/21/21 19/19/19 2/2/2
f 19/19/19 1/1/1 2/2/2
f 22/22/22 10/10/10 11/11/11
f 22/22/22 13/13/13 10/10/10
f 22/22/22 23/23/23 13/13/13
f 24/24/24 23/23/23 22/22/22
f 24/24/24 22/22/22 25/25/25
f 24/24/24 25/25/25 26/26/26
f 27/27/27 26/26/26 25/25/25
f 25/25/25 28/28/28 27/27/27
f 28/28/28 29/29/29 27/27/27
f 26/26/26 27/27/27 30/30/30
f 30/30/30 27/27/27 29/29/29
f 31/31/31 30/30/30 29/29/29
f 32/32/32 30/30/30 31/31/31
f 32/32/32 31/31/31 33/33/33
f 34/34/34 33/33/33 31/31/31
f 34/34/34 31/31/31 35/35/35
f 35/35/35 31/31/31 29/29/29
f 32/32/32 33/33/33 36/36/36
f 30/30/30 32/32/32 36/36/36
f 26/26/26 36/36/36 24/24/24
f 36/36/36 26/26/26 30/30/30
f 36/36/36 33/33/33 37/37/37
f 23/23/23 24/24/24 37/37/37
f 24/24/24 36/36/36 37/37/37
f 38/38/38 37/37/37 33/33/33
f 37/37/37 38/38/38 39/39/39
f 40/40/40 38/38/38 33/33/33
f 34/34/34 40/40/40 33/33/33
f 41/41/41 38/38/38 40/40/40
f 41/41/41 42/42/42 38/38/38
f 39/39/39 38/38/38 42/42/42
f 39/39/39 42/42/42 13/13/13
f 39/39/39 23/23/23 37/37/37
f 39/39/39 13/13/13 23/23/23
f 35/35/35 29/29/29 43/43/43
f 43/43/43 29/29/29 44/44/44
f 42/42/42 41/41/41 45/45/45
f 41/41/41 46/46/46 45/45/45
f 46/46/46 4/4/4 45/45/45
f 13/13/13 42/42/42 14/14/14
f 42/42/42 45/45/45 14/14/14
f 29/29/29 47/47/47 44/44/44
f 47/47/47 48/48/48 44/44/44
f 48/48/48 49/49/49 44/44/44
f 49/49/49 48/48/48 50/50/50
f 48/48/48 18/18/18 50/50/50
f 18/18/18 16/16/16 50/50/50
f 50/50/50 16/16/16 51/51/51
f 50/50/50 51/51/51 20/20/20
f 52/52/52 50/50/50 20/20/20
f 16/16/16 17/17/17 51/51/51
f 17/17/17 20/20/20 51/51/51
f 21/21/21 52/52/52 20/20/20
f 50/50/50 53/53/53 49/49/49
f 53/53/53 50/50/50 52/52/52
f 45/45/45 7/7/7 14/14/14
f 3/3/3 7/7/7 45/45/45
f 28/28/28 18/18/18 48/48/48
f 48/48/48 47/47/47 28/28/28
f 18/18/18 28/28/28 11/11/11
f 28/28/28 25/25/25 11/11/11
f 22/22/22 11/11/11 25/25/25
f 45/45/45 4/4/4 3/3/3
f 29/29/29 28/28/28 47/47/47
