g Area_Common_Build_Plinth_B_02_Col
v -3.100309 -0.01347988 0.7833161
v 3.100276 0.7238956 0.6560571
v 3.100276 -0.01347972 0.7833163
v -3.100309 0.7238954 0.6560572
v 3.100276 0.7238956 -0.6560571
v -3.100309 0.7238954 -0.6560572
v 3.100276 -0.01347966 -0.7833163
v -3.100309 -0.01347981 -0.7833161
vn -0.5688918 -0.52978 0.6290431
vn 0.5868735 0.6193035 0.5215771
vn 0.5688918 -0.5297799 0.6290432
vn -0.5868735 0.6193035 0.5215772
vn 0.5868735 0.6193035 -0.5215771
vn -0.5868735 0.6193035 -0.5215772
vn 0.5688918 -0.5297798 -0.6290433
vn -0.5688918 -0.52978 -0.6290431
g Area_Common_Build_Plinth_B_02_Col_0
f 3/3/3 2/2/2 1/1/1
f 4/4/4 1/1/1 2/2/2
f 2/2/2 5/5/5 4/4/4
f 2/2/2 3/3/3 5/5/5
f 6/6/6 4/4/4 5/5/5
f 4/4/4 6/6/6 1/1/1
f 5/5/5 7/7/7 6/6/6
f 7/7/7 5/5/5 3/3/3
f 8/8/8 6/6/6 7/7/7
f 1/1/1 8/8/8 3/3/3
f 7/7/7 3/3/3 8/8/8
f 8/8/8 1/1/1 6/6/6
