g Area_Common_Prop_Fire_C_01_B_Col
v 0.3636784 1.285694E-17 -0.2099698
v 0.4199398 0.7074006 -1.892447E-08
v 0.3636785 0.7074005 -0.2099698
v 0.4199397 0 0
v 0.2099698 2.226888E-17 -0.3636785
v 0.2099699 0.7074005 -0.3636785
v -1.835615E-08 2.571389E-17 -0.4199397
v 5.483627E-08 0.7074006 -0.4199397
v -0.2099699 2.226888E-17 -0.3636784
v -0.2099698 0.7074006 -0.3636785
v -0.3636784 1.285695E-17 -0.2099699
v -0.3636784 0.7074006 -0.2099699
v -0.4199397 3.882689E-24 -6.340913E-08
v -0.4199396 0.7074006 -8.568168E-08
v -0.3636785 -1.285694E-17 0.2099698
v -0.3636784 0.7074006 0.2099697
v -0.20997 -2.226888E-17 0.3636784
v -0.2099699 0.7074006 0.3636783
v -1.952351E-07 -2.571389E-17 0.4199397
v -8.821488E-08 0.7074006 0.4199396
v 0.2099696 -2.226889E-17 0.3636785
v 0.2099697 0.7074005 0.3636785
v 0.3636783 -1.285696E-17 0.2099701
v 0.3636784 0.7074006 0.2099701
v 2.384186E-09 0.7074006 -3.352761E-08
v -0.1241678 0.3348892 0.3283314
v -0.3785256 0.7983143 0.5324984
v -0.2761641 0.7983143 0.5915967
v -0.2265293 0.3348892 0.2692331
v -0.1201182 0.7440541 0.3190725
v -0.2224796 0.7440541 0.2599741
v -0.2943231 0.7632341 0.3854696
v -0.3566859 1.245337 0.7310646
v -0.4590473 1.245337 0.6719663
v -0.4246305 1.319127 0.6115826
v -0.322269 1.319127 0.6706809
v -0.1919617 0.7632341 0.4445679
v -0.2222595 0.3348892 -0.2716982
v -0.2718945 0.7983143 -0.594062
v -0.3742558 0.7983143 -0.5349636
v -0.1198981 0.3348892 -0.3307967
v -0.2162658 0.744054 -0.2635617
v -0.1139045 0.7440541 -0.3226601
v -0.186665 0.7632341 -0.4476262
v -0.4547777 1.245337 -0.6744315
v -0.3524163 1.245337 -0.7335299
v -0.317331 1.319127 -0.6735321
v -0.4196923 1.319127 -0.6144337
v -0.2890263 0.7632341 -0.3885277
v 0.3464273 0.3348892 -0.05663326
v 0.6504199 0.7983143 0.06156348
v 0.6504198 0.7983143 -0.0566333
v 0.3464274 0.3348892 0.06156351
v 0.336384 0.744054 -0.05551092
v 0.336384 0.744054 0.06268585
v 0.4809881 0.7632341 0.06215641
v 0.8114635 1.245337 -0.0566333
v 0.8114635 1.245337 0.06156341
v 0.7419613 1.319127 0.06194939
v 0.7419613 1.319127 -0.0562474
v 0.480988 0.7632341 -0.05604031
vn 0.6557219 -0.6532267 -0.3785811
vn 0.7571625 0.6532267 -1.261133E-07
vn 0.6557218 0.6532266 -0.3785813
vn 0.7571624 -0.6532268 1.041055E-07
vn 0.3785812 -0.6532266 -0.6557218
vn 0.3785815 0.6532264 -0.6557219
vn 0 -0.6532269 -0.7571623
vn 1.707299E-07 0.6532269 -0.7571623
vn -0.3785811 -0.6532268 -0.6557218
vn -0.3785812 0.6532266 -0.6557219
vn -0.6557219 -0.6532267 -0.3785812
vn -0.6557218 0.6532268 -0.378581
vn -0.7571624 -0.6532268 0
vn -0.7571624 0.6532268 -1.357089E-07
vn -0.6557219 -0.6532267 0.378581
vn -0.6557219 0.6532267 0.3785811
vn -0.3785814 -0.6532267 0.6557217
vn -0.3785813 0.6532267 0.6557217
vn -3.494969E-07 -0.6532267 0.7571624
vn -1.490226E-07 0.6532268 0.7571624
vn 0.3785808 -0.6532267 0.6557221
vn 0.3785808 0.6532266 0.6557222
vn 0.6557217 -0.6532268 0.3785815
vn 0.6557215 0.6532267 0.3785817
vn 0 1 0
vn 0.5859988 -0.8070918 0.07216848
vn -0.9170051 -0.3273947 0.2278469
vn 0.2649372 -0.3263971 0.907344
vn -0.3543234 -0.808033 -0.4706779
vn 0.8126295 0.5286391 -0.2453039
vn -0.1987458 0.5268973 -0.8263652
vn -0.5598065 0.4465999 -0.6979722
vn 0.4016701 -0.2060402 0.8923051
vn -0.97276 -0.20748 0.1033926
vn -0.165339 0.3381199 -0.9264653
vn 0.8839173 0.3384382 -0.3227223
vn 0.8847318 0.4476905 0.1297033
vn -0.3554989 -0.8070914 0.4714063
vn 0.2611815 -0.3273948 -0.9080732
vn -0.9182515 -0.3263971 -0.2242298
vn 0.5847805 -0.8080331 -0.07151372
vn -0.1938753 0.5286387 0.82641
vn 0.8150261 0.5268974 0.2410637
vn 0.8843649 0.4465998 -0.1358206
vn -0.973594 -0.2060404 -0.0982959
vn 0.3968396 -0.2074801 -0.8941311
vn 0.885012 0.33812 0.320045
vn -0.162473 0.3384383 0.926856
vn -0.5546921 0.4476906 0.7013486
vn -0.2305 -0.8070917 -0.543574
vn 0.6558237 -0.3273947 0.6802264
vn 0.6533143 -0.3263972 -0.6831144
vn -0.2304572 -0.8080331 0.5421917
vn -0.6187543 0.5286388 -0.5811059
vn -0.6162803 0.5268971 0.5853016
vn -0.3245585 0.4465998 0.8337927
vn 0.5719241 -0.2060404 -0.7940089
vn 0.5759208 -0.20748 0.7907385
vn -0.7196727 0.3381198 0.6064208
vn -0.7214441 0.3384381 -0.6041341
vn -0.3300398 0.4476907 -0.8310516
g Area_Common_Prop_Fire_C_01_B_Col_0
f 3/3/3 2/2/2 1/1/1
f 4/4/4 1/1/1 2/2/2
f 1/1/1 5/5/5 3/3/3
f 6/6/6 3/3/3 5/5/5
f 5/5/5 7/7/7 6/6/6
f 4/4/4 7/7/7 1/1/1
f 1/1/1 7/7/7 5/5/5
f 8/8/8 6/6/6 7/7/7
f 7/7/7 9/9/9 8/8/8
f 10/10/10 8/8/8 9/9/9
f 9/9/9 11/11/11 10/10/10
f 9/9/9 7/7/7 11/11/11
f 12/12/12 10/10/10 11/11/11
f 11/11/11 13/13/13 12/12/12
f 11/11/11 7/7/7 13/13/13
f 14/14/14 12/12/12 13/13/13
f 13/13/13 15/15/15 14/14/14
f 13/13/13 7/7/7 15/15/15
f 16/16/16 14/14/14 15/15/15
f 15/15/15 17/17/17 16/16/16
f 15/15/15 7/7/7 17/17/17
f 18/18/18 16/16/16 17/17/17
f 17/17/17 19/19/19 18/18/18
f 17/17/17 7/7/7 19/19/19
f 20/20/20 18/18/18 19/19/19
f 19/19/19 21/21/21 20/20/20
f 19/19/19 7/7/7 21/21/21
f 22/22/22 20/20/20 21/21/21
f 21/21/21 23/23/23 22/22/22
f 24/24/24 22/22/22 23/23/23
f 23/23/23 4/4/4 24/24/24
f 2/2/2 24/24/24 4/4/4
f 23/23/23 7/7/7 4/4/4
f 21/21/21 7/7/7 23/23/23
f 14/14/14 25/25/25 12/12/12
f 16/16/16 25/25/25 14/14/14
f 18/18/18 25/25/25 16/16/16
f 20/20/20 25/25/25 18/18/18
f 22/22/22 25/25/25 20/20/20
f 24/24/24 25/25/25 22/22/22
f 2/2/2 25/25/25 24/24/24
f 3/3/3 25/25/25 2/2/2
f 6/6/6 25/25/25 3/3/3
f 8/8/8 25/25/25 6/6/6
f 10/10/10 25/25/25 8/8/8
f 12/12/12 25/25/25 10/10/10
f 28/28/28 27/27/27 26/26/26
f 29/29/29 26/26/26 27/27/27
f 26/26/26 29/29/29 30/30/30
f 31/31/31 30/30/30 29/29/29
f 32/32/32 31/31/31 29/29/29
f 27/27/27 32/32/32 29/29/29
f 28/28/28 33/33/33 27/27/27
f 34/34/34 27/27/27 33/33/33
f 34/34/34 35/35/35 27/27/27
f 35/35/35 32/32/32 27/27/27
f 28/28/28 36/36/36 33/33/33
f 35/35/35 36/36/36 32/32/32
f 37/37/37 36/36/36 28/28/28
f 32/32/32 37/37/37 31/31/31
f 30/30/30 31/31/31 37/37/37
f 37/37/37 32/32/32 36/36/36
f 26/26/26 37/37/37 28/28/28
f 30/30/30 37/37/37 26/26/26
f 40/40/40 39/39/39 38/38/38
f 41/41/41 38/38/38 39/39/39
f 38/38/38 41/41/41 42/42/42
f 43/43/43 42/42/42 41/41/41
f 44/44/44 43/43/43 41/41/41
f 39/39/39 44/44/44 41/41/41
f 40/40/40 45/45/45 39/39/39
f 46/46/46 39/39/39 45/45/45
f 46/46/46 47/47/47 39/39/39
f 47/47/47 44/44/44 39/39/39
f 40/40/40 48/48/48 45/45/45
f 47/47/47 48/48/48 44/44/44
f 49/49/49 48/48/48 40/40/40
f 44/44/44 49/49/49 43/43/43
f 42/42/42 43/43/43 49/49/49
f 49/49/49 44/44/44 48/48/48
f 38/38/38 49/49/49 40/40/40
f 42/42/42 49/49/49 38/38/38
f 52/52/52 51/51/51 50/50/50
f 53/53/53 50/50/50 51/51/51
f 50/50/50 53/53/53 54/54/54
f 55/55/55 54/54/54 53/53/53
f 56/56/56 55/55/55 53/53/53
f 51/51/51 56/56/56 53/53/53
f 52/52/52 57/57/57 51/51/51
f 58/58/58 51/51/51 57/57/57
f 58/58/58 59/59/59 51/51/51
f 59/59/59 56/56/56 51/51/51
f 52/52/52 60/60/60 57/57/57
f 59/59/59 60/60/60 56/56/56
f 61/61/61 60/60/60 52/52/52
f 56/56/56 61/61/61 55/55/55
f 54/54/54 55/55/55 61/61/61
f 61/61/61 56/56/56 60/60/60
f 50/50/50 61/61/61 52/52/52
f 54/54/54 61/61/61 50/50/50
