g Area_Common_Build_Hili_SentryPost_02_A_Ocl
v -2.557742 6.843966 0.9897701
v 2.571767 6.843966 1.170578
v 1.537307 6.843966 2.544343
v -1.48572 6.843966 2.438709
v -2.139502 6.843966 -1.345941
v 2.512128 6.843966 -1.024679
v -0.7065442 6.843965 -2.226761
v 1.770851 6.843966 -2.171746
v -3.000383 4.028606 1.077231
v 2.4351 4.028607 1.495008
v 0.8541873 4.028607 2.781313
v -2.17633 4.028607 2.420332
v -2.940826 4.028606 -0.8652833
v 2.666664 4.028606 -0.7938387
v -1.927256 4.028606 -2.438915
v 1.863834 4.028606 -2.322317
vn 0 1 -1.331581E-07
vn 0 1 -1.331581E-07
vn 0 1 -1.331581E-07
vn 0 1 -1.331581E-07
vn 0 1 -1.331581E-07
vn 0 1 -1.331581E-07
vn 0 1 -1.331581E-07
vn 0 1 -1.331581E-07
vn 0 1 -1.331581E-07
vn 0 1 -1.331581E-07
vn 0 1 -1.331581E-07
vn 0 1 -1.331581E-07
vn 0 1 -1.331581E-07
vn 0 1 -1.331581E-07
vn 0 1 -1.331581E-07
vn 0 1 -1.331581E-07
g Area_Common_Build_Hili_SentryPost_02_A_Ocl_0
f 3/3/3 2/2/2 1/1/1
f 4/4/4 3/3/3 1/1/1
f 5/5/5 1/1/1 2/2/2
f 6/6/6 5/5/5 2/2/2
f 5/5/5 6/6/6 7/7/7
f 6/6/6 8/8/8 7/7/7
f 11/11/11 10/10/10 9/9/9
f 12/12/12 11/11/11 9/9/9
f 13/13/13 9/9/9 10/10/10
f 14/14/14 13/13/13 10/10/10
f 13/13/13 14/14/14 15/15/15
f 14/14/14 16/16/16 15/15/15
