g Area_Common_Build_Camp_Pirates_01_Ocl
v 3.509427 3.517529 0.4949349
v -3.066541 3.517529 -1.898523
v 3.087396 3.517529 -1.898523
v 1.225617 3.517529 -3.460741
v -1.204763 3.517529 -3.460741
v 2.294235 3.517529 2.599705
v 0.01042567 3.517529 3.430943
v -2.273383 3.517529 2.599704
v -3.488572 3.517529 0.4949331
v 3.136899 3.455048 -1.295531
v 7.33516 1.962044 -1.295531
v 7.33516 1.962044 0.4993781
v 3.136899 3.455048 0.4993781
v -0.7048962 3.455049 2.945898
v -2.942956 1.962044 6.786528
v -4.497393 1.962044 5.889073
v -2.259333 3.455049 2.048444
v -2.314067 3.455046 -2.419186
v -4.794763 1.962044 -6.111042
v -3.270559 1.962044 -7.058934
v -1.086726 3.455046 -3.182461
vn 0 1 0
vn 0 1 0
vn 0 1 0
vn 0 1 0
vn 0 1 0
vn 0 1 0
vn 0 1 0
vn -1.223912E-07 1 0
vn 0 1 0
vn 0.3350673 0.9421943 0
vn 0.3350673 0.9421943 0
vn 0.3350673 0.9421943 0
vn 0.3350673 0.9421943 0
vn -0.1591979 0.9479579 0.275739
vn -0.1591979 0.9479579 0.275739
vn -0.1591979 0.9479578 0.275739
vn -0.1591979 0.9479579 0.275739
vn -0.1681447 0.947958 -0.2703757
vn -0.1681447 0.947958 -0.2703757
vn -0.1681447 0.947958 -0.2703757
vn -0.1681447 0.947958 -0.2703757
g Area_Common_Build_Camp_Pirates_01_Ocl_0
f 3/3/3 2/2/2 1/1/1
f 4/4/4 2/2/2 3/3/3
f 5/5/5 2/2/2 4/4/4
f 1/1/1 2/2/2 6/6/6
f 6/6/6 2/2/2 7/7/7
f 7/7/7 2/2/2 8/8/8
f 8/8/8 2/2/2 9/9/9
f 12/12/12 11/11/11 10/10/10
f 13/13/13 12/12/12 10/10/10
f 16/16/16 15/15/15 14/14/14
f 17/17/17 16/16/16 14/14/14
f 20/20/20 19/19/19 18/18/18
f 21/21/21 20/20/20 18/18/18
