g Area_Common_Build_Plinth_B_01_Lod0
v 0.9195756 0.0002825165 1.08561
v -0.9195756 0.0002824783 -1.08561
v -0.9195756 0.0002825165 1.08561
v 0.9195756 0.0002824783 -1.08561
v -1.08561 0.0002825355 0.9195755
v -1.08561 0.0002824783 -0.9195756
v 1.08561 0.0002824783 -0.9195756
v 1.08561 0.0002825355 0.9195755
v -0.9195756 0.4486682 1.08561
v 0.9195756 0.0002825165 1.08561
v -0.9195756 0.0002825165 1.08561
v 0.9195756 0.4486682 1.08561
v 1.08561 0.4486682 0.9195756
v 1.08561 0.0002824783 -0.9195756
v 1.08561 0.0002825355 0.9195755
v 1.08561 0.4486681 -0.9195756
v 0.9195756 0.4486681 -1.08561
v -0.9195756 0.0002824783 -1.08561
v 0.9195756 0.0002824783 -1.08561
v -0.9195756 0.4486681 -1.08561
v -1.08561 0.4486681 -0.9195756
v -1.08561 0.0002825355 0.9195755
v -1.08561 0.0002824783 -0.9195756
v -1.08561 0.4486682 0.9195756
v -0.9195756 0.4486682 1.08561
v 0.791029 0.5861835 0.9617876
v 0.9195756 0.4486682 1.08561
v -0.791029 0.5861835 0.9617876
v 1.08561 0.4486682 0.9195756
v 0.9617878 0.5861835 -0.7910288
v 1.08561 0.4486681 -0.9195756
v 0.9617878 0.5861835 0.7910288
v 0.9195756 0.4486681 -1.08561
v -0.791029 0.5861835 -0.9617876
v -0.9195756 0.4486681 -1.08561
v 0.791029 0.5861835 -0.9617876
v -1.08561 0.4486681 -0.9195756
v -0.9617878 0.5861835 0.7910288
v -1.08561 0.4486682 0.9195756
v -0.9617878 0.5861835 -0.7910288
v 1.08561 0.4486682 0.9195756
v 0.9195756 0.0002825165 1.08561
v 0.9195756 0.4486682 1.08561
v 1.08561 0.0002825355 0.9195755
v -1.08561 0.4486682 0.9195756
v -0.791029 0.5861835 0.9617876
v -0.9195756 0.4486682 1.08561
v -0.9617878 0.5861835 0.7910288
v 0.9195756 0.4486681 -1.08561
v 1.08561 0.0002824783 -0.9195756
v 1.08561 0.4486681 -0.9195756
v 0.9195756 0.0002824783 -1.08561
v -1.08561 0.4486681 -0.9195756
v -0.9195756 0.0002824783 -1.08561
v -0.9195756 0.4486681 -1.08561
v -1.08561 0.0002824783 -0.9195756
v 0.9617878 0.5861835 0.7910288
v 0.9195756 0.4486682 1.08561
v 0.791029 0.5861835 0.9617876
v 1.08561 0.4486682 0.9195756
v -1.08561 0.0002825355 0.9195755
v -0.9195756 0.4486682 1.08561
v -0.9195756 0.0002825165 1.08561
v -1.08561 0.4486682 0.9195756
v 0.791029 0.5861835 -0.9617876
v 1.08561 0.4486681 -0.9195756
v 0.9617878 0.5861835 -0.7910288
v 0.9195756 0.4486681 -1.08561
v -0.9617878 0.5861835 -0.7910288
v -0.9195756 0.4486681 -1.08561
v -0.791029 0.5861835 -0.9617876
v -1.08561 0.4486681 -0.9195756
v 0.6549373 0.5861835 0.6549372
v -0.791029 0.5861835 0.9617876
v -0.6549373 0.5861835 0.6549372
v 0.791029 0.5861835 0.9617876
v 0.9617878 0.5861835 0.7910288
v 0.6549373 0.5861834 -0.6549372
v 0.9617878 0.5861835 -0.7910288
v 0.791029 0.5861835 -0.9617876
v -0.6549373 0.5861834 -0.6549372
v -0.791029 0.5861835 -0.9617876
v -0.9617878 0.5861835 -0.7910288
v -0.9617878 0.5861835 0.7910288
v 0.9322745 0.5772836 -0.7896913
v 0.9322742 0.8929237 0.789691
v 0.9322745 0.8929236 -0.7896912
v 0.9322745 0.5772838 0.789691
v 0.7896913 0.5772838 0.9322743
v -0.7896909 0.8929237 0.9322743
v 0.7896913 0.8929237 0.9322743
v -0.789691 0.5772838 0.9322743
v -0.9322742 0.5772838 0.7896912
v -0.9322742 0.8929236 -0.789691
v -0.9322742 0.8929237 0.7896912
v -0.9322742 0.5772836 -0.789691
v -0.7896912 0.5772836 -0.9322743
v 0.789691 0.8929234 -0.9322743
v -0.7896911 0.8929234 -0.9322743
v 0.789691 0.5772836 -0.9322743
v 0.7896913 0.5772838 0.9322743
v 0.9322742 0.8929237 0.789691
v 0.9322745 0.5772838 0.789691
v 0.7896913 0.8929237 0.9322743
v -0.9322742 0.5772838 0.7896912
v -0.7896909 0.8929237 0.9322743
v -0.789691 0.5772838 0.9322743
v -0.9322742 0.8929237 0.7896912
v -0.7896912 0.5772836 -0.9322743
v -0.9322742 0.8929236 -0.789691
v -0.9322742 0.5772836 -0.789691
v -0.7896911 0.8929234 -0.9322743
v 0.789691 0.8929234 -0.9322743
v 0.9322745 0.5772836 -0.7896913
v 0.9322745 0.8929236 -0.7896912
v 0.789691 0.5772836 -0.9322743
v -1.08561 1.276706 -0.9195758
v 1.08561 1.276706 0.9195756
v -1.08561 1.276706 0.9195753
v 1.08561 1.276706 -0.9195756
v -0.9195757 1.276706 1.08561
v 0.9195754 1.276706 1.08561
v 0.9195756 1.276706 -1.08561
v -0.9195756 1.276706 -1.08561
v -1.08561 1.018179 0.9195756
v -1.08561 1.276706 -0.9195758
v -1.08561 1.276706 0.9195753
v -1.08561 1.018179 -0.9195755
v -0.9195756 1.018179 -1.08561
v 0.9195756 1.276706 -1.08561
v -0.9195756 1.276706 -1.08561
v 0.9195756 1.018179 -1.08561
v 1.08561 1.018179 -0.9195753
v 1.08561 1.276706 0.9195756
v 1.08561 1.276706 -0.9195756
v 1.08561 1.018179 0.9195758
v 0.9195754 1.018179 1.08561
v -0.9195757 1.276706 1.08561
v 0.9195754 1.276706 1.08561
v -0.9195757 1.018179 1.08561
v -1.08561 1.018179 0.9195756
v -0.9617877 0.8806638 -0.791029
v -1.08561 1.018179 -0.9195755
v -0.9617877 0.8806639 0.7910291
v -0.9195756 1.018179 -1.08561
v 0.7910288 0.8806636 -0.9617876
v 0.9195756 1.018179 -1.08561
v -0.7910288 0.8806636 -0.9617876
v 1.08561 1.018179 -0.9195753
v 0.9617875 0.8806639 0.7910293
v 1.08561 1.018179 0.9195758
v 0.9617875 0.8806638 -0.7910288
v 0.9195754 1.018179 1.08561
v -0.791029 0.8806639 0.9617879
v -0.9195757 1.018179 1.08561
v 0.7910287 0.8806639 0.9617879
v -0.9195756 1.018179 -1.08561
v -1.08561 1.276706 -0.9195758
v -1.08561 1.018179 -0.9195755
v -0.9195756 1.276706 -1.08561
v -0.9195757 1.018179 1.08561
v -0.9617877 0.8806639 0.7910291
v -1.08561 1.018179 0.9195756
v -0.791029 0.8806639 0.9617879
v 1.08561 1.018179 -0.9195753
v 0.9195756 1.276706 -1.08561
v 0.9195756 1.018179 -1.08561
v 1.08561 1.276706 -0.9195756
v 0.9195754 1.018179 1.08561
v 1.08561 1.276706 0.9195756
v 1.08561 1.018179 0.9195758
v 0.9195754 1.276706 1.08561
v -0.7910288 0.8806636 -0.9617876
v -1.08561 1.018179 -0.9195755
v -0.9617877 0.8806638 -0.791029
v -0.9195756 1.018179 -1.08561
v -0.9195757 1.276706 1.08561
v -1.08561 1.018179 0.9195756
v -1.08561 1.276706 0.9195753
v -0.9195757 1.018179 1.08561
v 0.9617875 0.8806638 -0.7910288
v 0.9195756 1.018179 -1.08561
v 0.7910288 0.8806636 -0.9617876
v 1.08561 1.018179 -0.9195753
v 0.7910287 0.8806639 0.9617879
v 1.08561 1.018179 0.9195758
v 0.9617875 0.8806639 0.7910293
v 0.9195754 1.018179 1.08561
v -0.6549373 0.8806638 -0.6549371
v -0.9617877 0.8806639 0.7910291
v -0.6549373 0.8806639 0.6549374
v -0.9617877 0.8806638 -0.791029
v -0.7910288 0.8806636 -0.9617876
v 0.6549371 0.8806638 -0.6549371
v 0.7910288 0.8806636 -0.9617876
v 0.9617875 0.8806638 -0.7910288
v 0.6549371 0.8806638 0.6549374
v 0.9617875 0.8806639 0.7910293
v 0.7910287 0.8806639 0.9617879
v -0.791029 0.8806639 0.9617879
vt 0.31193 0.6636715
vt 0.4602035 0.834641
vt 0.4602109 0.6636716
vt 0.3119374 0.8346411
vt 0.4736325 0.6767797
vt 0.4736325 0.8215329
vt 0.2985083 0.8215157
vt 0.2985083 0.6767973
vt 0.02943346 0.5946119
vt 0.1667234 0.5649009
vt 0.02943346 0.5649009
vt 0.1667234 0.5946119
vt 0.19616 0.5946119
vt 0.3333466 0.5649009
vt 0.19616 0.5649009
vt 0.3333466 0.5946119
vt 0.0292962 0.5411652
vt 0.1665889 0.5114543
vt 0.0292962 0.5114543
vt 0.1665889 0.5411652
vt 0.1959855 0.5411652
vt 0.3333574 0.5114543
vt 0.1959855 0.5114543
vt 0.3333574 0.5411652
vt 0.02943346 0.5993159
vt 0.1573093 0.6147034
vt 0.1667234 0.5993159
vt 0.03910399 0.6147034
vt 0.19616 0.5993159
vt 0.3239726 0.6147034
vt 0.3333466 0.5993159
vt 0.2057428 0.6147034
vt 0.0292962 0.5453358
vt 0.1569486 0.5607232
vt 0.1665889 0.5453358
vt 0.038687 0.5607232
vt 0.1959855 0.5453358
vt 0.3253572 0.5607232
vt 0.3333574 0.5453358
vt 0.2040322 0.5607232
vt 0.190546 0.5946119
vt 0.1728508 0.5649009
vt 0.1728508 0.5946119
vt 0.190546 0.5649009
vt 0.006160084 0.5993159
vt 0.02392033 0.6147034
vt 0.02392033 0.5993159
vt 0.006160084 0.6147034
vt 0.02373172 0.5411652
vt 0.005996117 0.5114543
vt 0.005996117 0.5411652
vt 0.02373172 0.5114543
vt 0.190546 0.5411652
vt 0.1726603 0.5114543
vt 0.1726603 0.5411652
vt 0.190546 0.5114543
vt 0.190546 0.6147034
vt 0.1728508 0.5993159
vt 0.1728508 0.6147034
vt 0.190546 0.5993159
vt 0.006160084 0.5649009
vt 0.02392033 0.5946119
vt 0.02392033 0.5649009
vt 0.006160084 0.5946119
vt 0.02373172 0.5607232
vt 0.005996117 0.5453358
vt 0.005996117 0.5607232
vt 0.02373172 0.5453358
vt 0.190546 0.5607232
vt 0.1726603 0.5453358
vt 0.1726603 0.5607232
vt 0.190546 0.5453358
vt 0.4671877 0.4992324
vt 0.3542018 0.4752557
vt 0.3648359 0.4992326
vt 0.4778218 0.4752556
vt 0.4911646 0.4885984
vt 0.4671879 0.6015843
vt 0.4911648 0.6122183
vt 0.4778219 0.6255614
vt 0.364836 0.6015844
vt 0.3542019 0.6255614
vt 0.3408591 0.6106863
vt 0.340859 0.4901308
vt 0.02943346 0.5946119
vt 0.1667234 0.5649009
vt 0.02943346 0.5649009
vt 0.1667234 0.5946119
vt 0.19616 0.5946119
vt 0.3333466 0.5649009
vt 0.19616 0.5649009
vt 0.3333466 0.5946119
vt 0.0292962 0.5411652
vt 0.1665889 0.5114543
vt 0.0292962 0.5114543
vt 0.1665889 0.5411652
vt 0.1959855 0.5411652
vt 0.3333574 0.5114543
vt 0.1959855 0.5114543
vt 0.3333574 0.5411652
vt 0.190546 0.5946119
vt 0.1728508 0.5649009
vt 0.1728508 0.5946119
vt 0.190546 0.5649009
vt 0.02373172 0.5411652
vt 0.005996117 0.5114543
vt 0.005996117 0.5411652
vt 0.02373172 0.5114543
vt 0.190546 0.5411652
vt 0.1726603 0.5114543
vt 0.1726603 0.5411652
vt 0.190546 0.5114543
vt 0.006160084 0.5649009
vt 0.02392033 0.5946119
vt 0.02392033 0.5649009
vt 0.006160084 0.5946119
vt 0.31193 0.6636715
vt 0.4602035 0.834641
vt 0.4602109 0.6636716
vt 0.3119374 0.8346411
vt 0.4736325 0.6767797
vt 0.4736325 0.8215329
vt 0.2985083 0.8215157
vt 0.2985083 0.6767973
vt 0.02943346 0.5946119
vt 0.1667234 0.5649009
vt 0.02943346 0.5649009
vt 0.1667234 0.5946119
vt 0.19616 0.5946119
vt 0.3333466 0.5649009
vt 0.19616 0.5649009
vt 0.3333466 0.5946119
vt 0.0292962 0.5411652
vt 0.1665889 0.5114543
vt 0.0292962 0.5114543
vt 0.1665889 0.5411652
vt 0.1959855 0.5411652
vt 0.3333574 0.5114543
vt 0.1959855 0.5114543
vt 0.3333574 0.5411652
vt 0.02943346 0.5993159
vt 0.1573093 0.6147034
vt 0.1667234 0.5993159
vt 0.03910399 0.6147034
vt 0.19616 0.5993159
vt 0.3239726 0.6147034
vt 0.3333466 0.5993159
vt 0.2057428 0.6147034
vt 0.0292962 0.5453358
vt 0.1569486 0.5607232
vt 0.1665889 0.5453358
vt 0.038687 0.5607232
vt 0.1959855 0.5453358
vt 0.3253572 0.5607232
vt 0.3333574 0.5453358
vt 0.2040322 0.5607232
vt 0.190546 0.5946119
vt 0.1728508 0.5649009
vt 0.1728508 0.5946119
vt 0.190546 0.5649009
vt 0.006160084 0.5993159
vt 0.02392033 0.6147034
vt 0.02392033 0.5993159
vt 0.006160084 0.6147034
vt 0.02373172 0.5411652
vt 0.005996117 0.5114543
vt 0.005996117 0.5411652
vt 0.02373172 0.5114543
vt 0.190546 0.5411652
vt 0.1726603 0.5114543
vt 0.1726603 0.5411652
vt 0.190546 0.5114543
vt 0.190546 0.6147034
vt 0.1728508 0.5993159
vt 0.1728508 0.6147034
vt 0.190546 0.5993159
vt 0.006160084 0.5649009
vt 0.02392033 0.5946119
vt 0.02392033 0.5649009
vt 0.006160084 0.5946119
vt 0.02373172 0.5607232
vt 0.005996117 0.5453358
vt 0.005996117 0.5607232
vt 0.02373172 0.5453358
vt 0.190546 0.5607232
vt 0.1726603 0.5453358
vt 0.1726603 0.5607232
vt 0.190546 0.5453358
vt 0.4671877 0.4992324
vt 0.3542018 0.4752557
vt 0.3648359 0.4992326
vt 0.4778218 0.4752556
vt 0.4911646 0.4885984
vt 0.4671879 0.6015843
vt 0.4911648 0.6122183
vt 0.4778219 0.6255614
vt 0.364836 0.6015844
vt 0.3542019 0.6255614
vt 0.3408591 0.6106863
vt 0.340859 0.4901308
vn 0 -1 0
vn 0 -1 0
vn 0 -1 0
vn 0 -1 0
vn -1.267111E-07 -1 0
vn 0 -1 0
vn 0 -1 0
vn 1.45989E-07 -1 0
vn 0 0 1
vn 0 0 1
vn 0 0 1
vn 0 0 1
vn 1 1.701525E-07 0
vn 1 1.701525E-07 0
vn 1 1.701525E-07 0
vn 1 1.701525E-07 0
vn 0 3.40305E-07 -1
vn 0 3.40305E-07 -1
vn 0 3.40305E-07 -1
vn 0 3.40305E-07 -1
vn -1 1.701525E-07 0
vn -1 1.701525E-07 0
vn -1 1.701525E-07 0
vn -1 1.701525E-07 0
vn 0 0.6691401 0.7431362
vn 0 0.6691401 0.7431362
vn 0 0.6691401 0.7431363
vn 0 0.6691401 0.7431362
vn 0.7431369 0.6691395 0
vn 0.7431369 0.6691394 0
vn 0.7431369 0.6691395 0
vn 0.7431369 0.6691395 0
vn 0 0.6691399 -0.7431365
vn 0 0.6691399 -0.7431365
vn 0 0.6691399 -0.7431365
vn 0 0.6691399 -0.7431365
vn -0.7431368 0.6691394 0
vn -0.7431369 0.6691394 0
vn -0.7431369 0.6691395 0
vn -0.7431369 0.6691395 0
vn 0.7071068 0 0.7071068
vn 0.7071068 0 0.7071068
vn 0.7071068 0 0.7071068
vn 0.7071068 0 0.7071068
vn -0.4316128 0.7920989 0.4316129
vn -0.4316128 0.7920989 0.4316129
vn -0.4316128 0.7920989 0.4316128
vn -0.4316128 0.7920989 0.431613
vn 0.7071068 2.40632E-07 -0.7071068
vn 0.7071068 2.40632E-07 -0.7071068
vn 0.7071068 2.40632E-07 -0.7071068
vn 0.7071068 2.406319E-07 -0.7071068
vn -0.7071068 2.40632E-07 -0.7071068
vn -0.7071068 2.40632E-07 -0.7071068
vn -0.7071068 2.40632E-07 -0.7071068
vn -0.7071068 2.40632E-07 -0.7071068
vn 0.4316128 0.7920989 0.4316129
vn 0.4316128 0.7920989 0.4316129
vn 0.4316127 0.792099 0.4316128
vn 0.4316129 0.7920988 0.4316129
vn -0.7071068 0 0.7071068
vn -0.7071068 0 0.7071068
vn -0.7071068 0 0.7071068
vn -0.7071068 0 0.7071068
vn 0.431613 0.7920988 -0.4316129
vn 0.4316129 0.7920988 -0.4316128
vn 0.4316129 0.7920988 -0.4316128
vn 0.431613 0.7920988 -0.431613
vn -0.4316129 0.7920988 -0.4316129
vn -0.4316129 0.7920988 -0.4316128
vn -0.4316131 0.7920988 -0.4316129
vn -0.4316129 0.7920988 -0.4316129
vn 0 1 0
vn 1.140446E-07 1 1.748979E-07
vn 0 1 0
vn -1.140446E-07 1 1.748979E-07
vn -1.664437E-07 1 0
vn 0 1 0
vn -1.152881E-07 1 0
vn 0 1 1.048186E-07
vn 0 1 0
vn 0 1 1.048186E-07
vn 1.132728E-07 1 0
vn 1.644284E-07 1 0
vn 1 1.21411E-07 1.689607E-07
vn 1 8.454365E-07 0
vn 1 0 1.932248E-07
vn 1 9.668479E-07 0
vn 0 0 1
vn 0 0 1
vn 0 0 1
vn 0 0 1
vn -1 0 0
vn -1 2.113591E-07 0
vn -1 0 0
vn -1 2.417119E-07 0
vn 0 0 -1
vn 0 0 -1
vn 0 0 -1
vn 0 0 -1
vn 0.7071074 4.36239E-07 0.7071061
vn 0.7071076 2.474262E-07 0.7071059
vn 0.7071071 6.83665E-07 0.7071064
vn 0.7071078 0 0.7071056
vn -0.7071064 1.709161E-07 0.7071071
vn -0.7071064 1.709161E-07 0.7071071
vn -0.7071064 1.709161E-07 0.7071071
vn -0.7071064 1.709162E-07 0.7071071
vn -0.7071073 1.709163E-07 -0.7071062
vn -0.7071074 1.709163E-07 -0.7071061
vn -0.7071073 1.709163E-07 -0.7071062
vn -0.7071074 1.709163E-07 -0.7071061
vn 0.7071059 2.181195E-07 -0.7071077
vn 0.7071058 1.237132E-07 -0.7071077
vn 0.7071061 3.418326E-07 -0.7071075
vn 0.7071056 0 -0.7071078
vn 0 1 -1.659329E-07
vn 0 1 -1.659329E-07
vn 0 1 -1.659329E-07
vn 0 1 -1.659329E-07
vn 0 1 0
vn 0 1 0
vn 0 1 0
vn 0 1 0
vn -1 -2.951105E-07 0
vn -1 -2.951105E-07 0
vn -1 -2.951106E-07 0
vn -1 -2.951106E-07 0
vn 1.207616E-07 -1.449315E-06 -1
vn 0 -1.206679E-06 -1
vn 1.244497E-07 -1.475552E-06 -1
vn 0 -1.180442E-06 -1
vn 1 -2.951104E-07 0
vn 1 -2.951104E-07 0
vn 1 -2.951104E-07 0
vn 1 -2.951104E-07 0
vn -1.207616E-07 6.164581E-07 1
vn 0 8.590942E-07 1
vn -1.244497E-07 5.902209E-07 1
vn 0 8.853314E-07 1
vn -0.7431363 -0.6691399 0
vn -0.7431361 -0.6691403 1.028966E-07
vn -0.743136 -0.6691403 1.048932E-07
vn -0.7431363 -0.6691399 0
vn 0 -0.6691399 -0.7431365
vn 0 -0.6691395 -0.7431369
vn 0 -0.6691394 -0.7431369
vn 0 -0.6691399 -0.7431365
vn 0.7431358 -0.6691405 0
vn 0.7431367 -0.6691397 2.201062E-07
vn 0.7431367 -0.6691397 2.282039E-07
vn 0.7431357 -0.6691407 0
vn 0 -0.6691395 0.7431369
vn 0 -0.6691391 0.7431372
vn 0 -0.6691391 0.7431372
vn 0 -0.6691394 0.7431368
vn -0.7071068 -1.043373E-06 -0.7071068
vn -0.7071068 -1.043373E-06 -0.7071068
vn -0.7071068 -1.043373E-06 -0.7071068
vn -0.7071068 -1.043373E-06 -0.7071068
vn -0.4316131 -0.7920986 0.431613
vn -0.4316131 -0.7920986 0.431613
vn -0.4316131 -0.7920987 0.4316131
vn -0.4316132 -0.7920986 0.431613
vn 0.7071068 -8.346985E-07 -0.7071068
vn 0.7071068 -8.346983E-07 -0.7071068
vn 0.7071068 -8.346983E-07 -0.7071068
vn 0.7071068 -8.346983E-07 -0.7071068
vn 0.7071068 4.173492E-07 0.7071068
vn 0.7071068 4.173492E-07 0.7071068
vn 0.7071068 4.173492E-07 0.7071068
vn 0.7071068 4.173492E-07 0.7071068
vn -0.4316127 -0.7920992 -0.4316126
vn -0.4316127 -0.7920991 -0.4316126
vn -0.4316127 -0.7920992 -0.4316125
vn -0.4316126 -0.7920991 -0.4316126
vn -0.7071068 6.260237E-07 0.7071068
vn -0.7071068 6.260237E-07 0.7071068
vn -0.7071068 6.260237E-07 0.7071068
vn -0.7071068 6.260237E-07 0.7071068
vn 0.4316128 -0.7920992 -0.4316124
vn 0.4316129 -0.7920991 -0.4316123
vn 0.4316132 -0.792099 -0.4316124
vn 0.4316125 -0.7920993 -0.4316125
vn 0.4316129 -0.7920987 0.4316132
vn 0.4316129 -0.7920986 0.4316132
vn 0.4316129 -0.7920985 0.4316134
vn 0.4316129 -0.7920988 0.4316129
vn 0 -1 3.480619E-07
vn 0 -1 0
vn 0 -1 0
vn -1.610975E-07 -1 3.632315E-07
vn -1.401587E-07 -1 5.59433E-07
vn 0 -1 3.06479E-07
vn 1.401585E-07 -1 5.59433E-07
vn 1.804943E-07 -1 3.245798E-07
vn 1.762388E-07 -1 3.218161E-07
vn 3.983355E-07 -1 2.230732E-07
vn 1.29178E-07 -1 3.958471E-07
vn 0 -1 0
g Area_Common_Build_Plinth_B_01_Lod0_0
f 3/3/3 2/2/2 1/1/1
f 4/4/4 1/1/1 2/2/2
f 3/3/3 5/5/5 2/2/2
f 6/6/6 2/2/2 5/5/5
f 4/4/4 7/7/7 1/1/1
f 8/8/8 1/1/1 7/7/7
f 11/11/11 10/10/10 9/9/9
f 12/12/12 9/9/9 10/10/10
f 15/15/15 14/14/14 13/13/13
f 16/16/16 13/13/13 14/14/14
f 19/19/19 18/18/18 17/17/17
f 20/20/20 17/17/17 18/18/18
f 23/23/23 22/22/22 21/21/21
f 24/24/24 21/21/21 22/22/22
f 27/27/27 26/26/26 25/25/25
f 28/28/28 25/25/25 26/26/26
f 31/31/31 30/30/30 29/29/29
f 32/32/32 29/29/29 30/30/30
f 35/35/35 34/34/34 33/33/33
f 36/36/36 33/33/33 34/34/34
f 39/39/39 38/38/38 37/37/37
f 40/40/40 37/37/37 38/38/38
f 43/43/43 42/42/42 41/41/41
f 44/44/44 41/41/41 42/42/42
f 47/47/47 46/46/46 45/45/45
f 48/48/48 45/45/45 46/46/46
f 51/51/51 50/50/50 49/49/49
f 52/52/52 49/49/49 50/50/50
f 55/55/55 54/54/54 53/53/53
f 56/56/56 53/53/53 54/54/54
f 59/59/59 58/58/58 57/57/57
f 60/60/60 57/57/57 58/58/58
f 63/63/63 62/62/62 61/61/61
f 64/64/64 61/61/61 62/62/62
f 67/67/67 66/66/66 65/65/65
f 68/68/68 65/65/65 66/66/66
f 71/71/71 70/70/70 69/69/69
f 72/72/72 69/69/69 70/70/70
f 75/75/75 74/74/74 73/73/73
f 76/76/76 73/73/73 74/74/74
f 77/77/77 73/73/73 76/76/76
f 73/73/73 77/77/77 78/78/78
f 79/79/79 78/78/78 77/77/77
f 80/80/80 78/78/78 79/79/79
f 78/78/78 80/80/80 81/81/81
f 82/82/82 81/81/81 80/80/80
f 83/83/83 81/81/81 82/82/82
f 81/81/81 83/83/83 75/75/75
f 84/84/84 75/75/75 83/83/83
f 74/74/74 75/75/75 84/84/84
f 87/87/87 86/86/86 85/85/85
f 88/88/88 85/85/85 86/86/86
f 91/91/91 90/90/90 89/89/89
f 92/92/92 89/89/89 90/90/90
f 95/95/95 94/94/94 93/93/93
f 96/96/96 93/93/93 94/94/94
f 99/99/99 98/98/98 97/97/97
f 100/100/100 97/97/97 98/98/98
f 103/103/103 102/102/102 101/101/101
f 104/104/104 101/101/101 102/102/102
f 107/107/107 106/106/106 105/105/105
f 108/108/108 105/105/105 106/106/106
f 111/111/111 110/110/110 109/109/109
f 112/112/112 109/109/109 110/110/110
f 115/115/115 114/114/114 113/113/113
f 116/116/116 113/113/113 114/114/114
f 119/119/119 118/118/118 117/117/117
f 120/120/120 117/117/117 118/118/118
f 119/119/119 121/121/121 118/118/118
f 122/122/122 118/118/118 121/121/121
f 120/120/120 123/123/123 117/117/117
f 124/124/124 117/117/117 123/123/123
f 127/127/127 126/126/126 125/125/125
f 128/128/128 125/125/125 126/126/126
f 131/131/131 130/130/130 129/129/129
f 132/132/132 129/129/129 130/130/130
f 135/135/135 134/134/134 133/133/133
f 136/136/136 133/133/133 134/134/134
f 139/139/139 138/138/138 137/137/137
f 140/140/140 137/137/137 138/138/138
f 143/143/143 142/142/142 141/141/141
f 144/144/144 141/141/141 142/142/142
f 147/147/147 146/146/146 145/145/145
f 148/148/148 145/145/145 146/146/146
f 151/151/151 150/150/150 149/149/149
f 152/152/152 149/149/149 150/150/150
f 155/155/155 154/154/154 153/153/153
f 156/156/156 153/153/153 154/154/154
f 159/159/159 158/158/158 157/157/157
f 160/160/160 157/157/157 158/158/158
f 163/163/163 162/162/162 161/161/161
f 164/164/164 161/161/161 162/162/162
f 167/167/167 166/166/166 165/165/165
f 168/168/168 165/165/165 166/166/166
f 171/171/171 170/170/170 169/169/169
f 172/172/172 169/169/169 170/170/170
f 175/175/175 174/174/174 173/173/173
f 176/176/176 173/173/173 174/174/174
f 179/179/179 178/178/178 177/177/177
f 180/180/180 177/177/177 178/178/178
f 183/183/183 182/182/182 181/181/181
f 184/184/184 181/181/181 182/182/182
f 187/187/187 186/186/186 185/185/185
f 188/188/188 185/185/185 186/186/186
f 191/191/191 190/190/190 189/189/189
f 192/192/192 189/189/189 190/190/190
f 193/193/193 189/189/189 192/192/192
f 189/189/189 193/193/193 194/194/194
f 195/195/195 194/194/194 193/193/193
f 196/196/196 194/194/194 195/195/195
f 194/194/194 196/196/196 197/197/197
f 198/198/198 197/197/197 196/196/196
f 199/199/199 197/197/197 198/198/198
f 197/197/197 199/199/199 191/191/191
f 200/200/200 191/191/191 199/199/199
f 190/190/190 191/191/191 200/200/200
