g Area_Common_Build_ShortWall_I_01_Lod2
v -1.193454 0.3969797 0.1385533
v -1.375655 -0.3408217 -0.2629969
v -1.217436 0.3928065 -0.263914
v -1.360146 -0.3408215 0.1650064
v -1.196817 -0.3408217 -0.3900772
v -0.7937091 0.2950901 -0.4419487
v -0.9633042 -0.3408216 -0.5119206
v 0.008769969 0.07425649 -0.4724459
v 0.2028163 -0.3408216 -0.4989463
v 0.8002414 -0.01275795 -0.3648592
v 0.7956663 -0.3408217 -0.4539234
v 1.079965 -0.3408216 -0.3265219
v 0.9928538 0.06184416 -0.3035524
v 1.113437 0.03060238 -0.04523171
v 1.194535 -0.3408216 -0.1774761
v 0.7721526 0.1276621 -0.3278823
v 1.115708 -0.3408217 0.3799343
v 1.183789 -0.0309552 0.1789852
v 1.21065 -0.3408215 0.1867931
v 1.056765 0.04305599 0.3481367
v 0.1645745 -0.3407393 0.394276
v 0.8068818 0.1515246 0.3398921
v 1.113437 0.03060238 -0.04523171
v 1.194535 -0.3408216 -0.1774761
v 0.3674854 0.1855724 0.3029911
v 0.1855143 0.3658351 0.2832107
v -0.3679313 0.3867072 0.2986062
v -0.4903014 -0.319949 0.3701844
v -0.5411313 0.3539518 0.3225182
v -1.066398 0.383072 0.2940854
v -1.102682 -0.3408215 0.3411975
v -1.193454 0.3969797 0.1385533
v -1.360146 -0.3408215 0.1650064
v -1.193454 0.398284 0.1385533
v -1.217436 0.3941108 -0.263914
v -1.080274 0.5195495 -0.1899596
v -1.08931 0.5228925 0.2012828
v -1.007516 0.5453837 -0.33562
v -0.793709 0.2963944 -0.4419487
v -0.5880919 0.5691804 -0.4023332
v -0.1928834 0.4800996 -0.3850479
v 0.008769969 0.07556078 -0.4724459
v 0.05189278 0.2475719 -0.3743348
v -0.3211714 0.3910312 0.1778796
v -0.375972 0.5289202 0.2202148
v -0.5202912 0.5660604 0.2861235
v 0.1414311 0.3444446 0.1704314
v 0.3516814 0.2337666 0.1704314
v 0.5500988 0.2027441 -0.3157934
v 0.8002414 -0.0114537 -0.3648592
v 0.7721526 0.1289664 -0.3278823
v 0.891682 0.1173146 -0.05774756
v 0.9928538 0.06314844 -0.3035524
v 1.113437 0.03190666 -0.04523171
v 1.056765 0.04436027 0.3481367
v 1.183789 -0.02965088 0.1789852
v 0.8068818 0.1528289 0.3398921
v 0.3674854 0.1868767 0.3029911
v -1.08931 0.5228925 0.2012828
v -1.080274 0.5195495 -0.1899596
v -0.3679313 0.3880115 0.2986062
v 0.1414311 0.3444446 0.1704314
v 0.1855143 0.3671394 0.2832107
v -0.3211714 0.3910312 0.1778796
v -0.375972 0.5289202 0.2202148
v -0.5202912 0.5660604 0.2861235
v -0.5411313 0.3552561 0.3225182
v -1.08931 0.5228925 0.2012828
v -1.066398 0.3843763 0.2940854
v -1.193454 0.398284 0.1385533
v 0.1414311 0.3444446 0.1704314
v 0.3674854 0.1868767 0.3029911
v 0.1855143 0.3671394 0.2832107
v 0.3516814 0.2337666 0.1704314
vt 0.05061632 0.5493797
vt 0.05010253 0.5401894
vt 0.04706103 0.5476687
vt 0.05414023 0.5419735
vt 0.04797398 0.5396455
vt 0.04286148 0.5458024
vt 0.04522704 0.5391979
vt 0.03449067 0.5432084
vt 0.03262496 0.5384864
vt 0.0249126 0.5437569
vt 0.02550561 0.5381989
vt 0.02229782 0.5381625
vt 0.02296206 0.5453739
vt 0.02108924 0.5442356
vt 0.02020049 0.5383314
vt 0.02510663 0.545813
vt 0.05958268 0.5611524
vt 0.0618828 0.5657614
vt 0.0625971 0.5616094
vt 0.05869929 0.566362
vt 0.04582075 0.5610144
vt 0.05527105 0.5682014
vt 0.06678814 0.5676571
vt 0.06743838 0.5625698
vt 0.04884641 0.5682909
vt 0.04601455 0.5706946
vt 0.03841694 0.5709634
vt 0.03696235 0.5611972
vt 0.03597831 0.5702797
vt 0.02887462 0.5704066
vt 0.02859115 0.5606399
vt 0.02672218 0.5709581
vt 0.02494972 0.5607848
vt 0.05061632 0.5493797
vt 0.04706103 0.5476687
vt 0.04708702 0.5494461
vt 0.05064433 0.5509767
vt 0.04497419 0.5489975
vt 0.04286148 0.5458024
vt 0.0404945 0.5484098
vt 0.03641647 0.5476699
vt 0.03449067 0.5432084
vt 0.03366281 0.5459843
vt 0.03526754 0.5539095
vt 0.03777135 0.5544741
vt 0.03932713 0.5551924
vt 0.03176574 0.5524485
vt 0.02866478 0.5525036
vt 0.02811726 0.5459909
vt 0.0249126 0.5437569
vt 0.02510663 0.545813
vt 0.02376349 0.5488496
vt 0.02296206 0.5453739
vt 0.02148521 0.5486394
vt 0.02146135 0.5528426
vt 0.02039791 0.5508742
vt 0.02408787 0.553148
vt 0.02759173 0.5534207
vt 0.04555747 0.5546188
vt 0.045738 0.5507091
vt 0.03841694 0.5709634
vt 0.04555539 0.5722511
vt 0.04601455 0.5706946
vt 0.03939058 0.5725055
vt 0.03788706 0.573168
vt 0.03597343 0.5730801
vt 0.03597831 0.5702797
vt 0.0282036 0.5724883
vt 0.02887462 0.5704066
vt 0.02672218 0.5709581
vt 0.04582153 0.5723416
vt 0.04884641 0.5682909
vt 0.04601455 0.5706946
vt 0.04904075 0.5719073
vn -0.9031585 0.1666378 0.3956471
vn -0.8916734 0.1964206 -0.4078452
vn -0.8339781 0.2152334 -0.5080897
vn -0.8652912 0.2117866 0.454332
vn -0.4915774 0.1600143 -0.8560064
vn -0.1963868 0.1403407 -0.9704312
vn -0.2666656 0.1703391 -0.9486169
vn 0.05031531 0.09743126 -0.9939696
vn 0.08658658 0.1304362 -0.9876686
vn 0.2129989 0.2126495 -0.9536309
vn 0.2303978 0.2519584 -0.9399117
vn 0.6290911 0.2682873 -0.7295659
vn 0.5599479 0.2073785 -0.8021548
vn 0.9317493 0.2107653 -0.2956709
vn 0.8753781 0.320118 -0.3622674
vn 0.188645 0.285193 -0.9397223
vn 0.5340596 0.1192309 0.8369972
vn 0.9835199 0.1215541 0.1338405
vn 0.9766491 0.1382919 0.1644141
vn 0.3427146 0.1333866 0.9299218
vn -0.007004315 0.1341557 0.9909355
vn -0.01074915 0.1236485 0.9922679
vn 0.9317493 0.2107653 -0.2956709
vn 0.8753781 0.320118 -0.3622674
vn -0.008829174 0.1741882 0.9846728
vn 0.03731719 0.1540943 0.9873512
vn 0.05169067 0.1103683 0.9925457
vn -0.02916604 0.0857003 0.995894
vn 0.03546695 0.07317275 0.9966884
vn -0.4586233 0.08039389 0.8849868
vn -0.3459627 0.1114809 0.9316018
vn -0.9031585 0.1666378 0.3956471
vn -0.8652912 0.2117866 0.454332
vn -0.7843122 0.5863991 0.2024609
vn -0.6746709 0.6362941 -0.3740975
vn -0.433894 0.9007237 -0.02080684
vn -0.4503849 0.776961 0.4398694
vn -0.3325039 0.7694991 -0.5452635
vn -0.1260393 0.1894626 -0.973765
vn 0.03955451 0.7638901 -0.6441329
vn 0.4379188 0.7446195 -0.5037547
vn 0.1864149 0.3760125 -0.9076696
vn 0.3649822 0.7444605 -0.5590764
vn 0.6273904 0.7576439 0.1798805
vn 0.6188817 0.6996117 0.357112
vn 0.09306575 0.7631725 0.6394579
vn 0.2965542 0.9330969 -0.2034344
vn 0.2867799 0.9543753 0.08321726
vn 0.1924107 0.8284763 -0.5259327
vn 0.09363993 0.3354371 -0.9373972
vn 0.2330568 0.8044376 -0.5464108
vn 0.3038688 0.9522737 -0.02895954
vn 0.3219691 0.9437394 -0.07544427
vn 0.394899 0.9187245 0.0002179429
vn 0.4299707 0.9026043 0.02074913
vn 0.5551303 0.8300281 0.05369889
vn 0.2733997 0.9618499 0.009868262
vn 0.2590554 0.9392365 0.225222
vn -0.4503849 0.776961 0.4398694
vn -0.433894 0.9007237 -0.02080684
vn 0.4839132 0.6070622 0.6303202
vn 0.2965542 0.9330969 -0.2034344
vn 0.4367634 0.8334819 -0.3384456
vn 0.6273904 0.7576439 0.1798805
vn 0.6188817 0.6996117 0.357112
vn 0.09306575 0.7631725 0.6394579
vn -0.02924 0.2124242 0.9767399
vn -0.4503849 0.776961 0.4398694
vn -0.2855089 0.5003918 0.8173694
vn -0.7843122 0.5863991 0.2024609
vn 0.2965542 0.9330969 -0.2034344
vn 0.2590554 0.9392365 0.225222
vn 0.4367634 0.8334819 -0.3384456
vn 0.2867799 0.9543753 0.08321726
g Area_Common_Build_ShortWall_I_01_Lod2_0
f 3/3/3 2/2/2 1/1/1
f 4/4/4 1/1/1 2/2/2
f 2/2/2 3/3/3 5/5/5
f 6/6/6 5/5/5 3/3/3
f 7/7/7 5/5/5 6/6/6
f 6/6/6 8/8/8 7/7/7
f 7/7/7 8/8/8 9/9/9
f 8/8/8 10/10/10 9/9/9
f 11/11/11 9/9/9 10/10/10
f 12/12/12 11/11/11 10/10/10
f 12/12/12 10/10/10 13/13/13
f 13/13/13 14/14/14 12/12/12
f 15/15/15 12/12/12 14/14/14
f 16/16/16 13/13/13 10/10/10
f 19/19/19 18/18/18 17/17/17
f 20/20/20 17/17/17 18/18/18
f 17/17/17 20/20/20 21/21/21
f 22/22/22 21/21/21 20/20/20
f 18/18/18 19/19/19 23/23/23
f 24/24/24 23/23/23 19/19/19
f 22/22/22 25/25/25 21/21/21
f 25/25/25 26/26/26 21/21/21
f 26/26/26 27/27/27 21/21/21
f 28/28/28 21/21/21 27/27/27
f 28/28/28 27/27/27 29/29/29
f 29/29/29 30/30/30 28/28/28
f 31/31/31 28/28/28 30/30/30
f 30/30/30 32/32/32 31/31/31
f 33/33/33 31/31/31 32/32/32
f 36/36/36 35/35/35 34/34/34
f 37/37/37 36/36/36 34/34/34
f 38/38/38 35/35/35 36/36/36
f 38/38/38 39/39/39 35/35/35
f 40/40/40 39/39/39 38/38/38
f 40/40/40 41/41/41 39/39/39
f 41/41/41 42/42/42 39/39/39
f 43/43/43 42/42/42 41/41/41
f 41/41/41 44/44/44 43/43/43
f 45/45/45 44/44/44 41/41/41
f 40/40/40 45/45/45 41/41/41
f 46/46/46 45/45/45 40/40/40
f 47/47/47 43/43/43 44/44/44
f 47/47/47 48/48/48 43/43/43
f 49/49/49 43/43/43 48/48/48
f 43/43/43 49/49/49 50/50/50
f 50/50/50 42/42/42 43/43/43
f 51/51/51 50/50/50 49/49/49
f 48/48/48 52/52/52 49/49/49
f 51/51/51 49/49/49 52/52/52
f 51/51/51 52/52/52 53/53/53
f 53/53/53 52/52/52 54/54/54
f 54/54/54 52/52/52 55/55/55
f 56/56/56 54/54/54 55/55/55
f 57/57/57 55/55/55 52/52/52
f 57/57/57 52/52/52 48/48/48
f 58/58/58 57/57/57 48/48/48
f 46/46/46 60/60/60 59/59/59
f 40/40/40 60/60/60 46/46/46
f 38/38/38 60/60/60 40/40/40
f 63/63/63 62/62/62 61/61/61
f 64/64/64 61/61/61 62/62/62
f 65/65/65 61/61/61 64/64/64
f 66/66/66 61/61/61 65/65/65
f 67/67/67 61/61/61 66/66/66
f 66/66/66 68/68/68 67/67/67
f 69/69/69 67/67/67 68/68/68
f 70/70/70 69/69/69 68/68/68
f 73/73/73 72/72/72 71/71/71
f 74/74/74 71/71/71 72/72/72
