g Area_Ly_Build_Common_Hili_House_05_Lod1
v 0.1038187 0.3431739 -0.258831
v 0.1345637 0.3081565 0.1153412
v 0.1038187 0.5054234 -0.1723986
v 0.1345638 0.04117019 0.1079567
v -9.536743E-08 0.3083068 -0.277495
v -1.335144E-07 -0.01421005 0.1063755
v -0.1038187 0.3431741 -0.2588311
v -0.1345639 0.04117012 0.1079566
v -7.629394E-08 0.3633656 0.1168189
v -1.144409E-07 0.537762 -0.1552611
v -0.1345638 0.3081565 0.1153412
v -0.1038187 0.5054234 -0.1723988
v -0.1345639 0.04117012 0.1079566
v -0.1038187 0.3431741 -0.2588311
v 0.09537157 0.4954671 -0.4002027
v 0.09537164 0.6232702 -0.2884654
v -0.001382542 0.4674765 -0.4242627
v -0.09813654 0.4954671 -0.4002028
v -0.0981365 0.6232703 -0.2884654
v -0.09813654 0.4954671 -0.4002028
v -0.001382503 0.6482173 -0.2662424
v 0.08204679 0.8683421 -0.4525475
v 0.08204675 0.7954069 -0.5912672
v 0.06986463 1.120522 -0.6863188
v 0.06986463 1.148554 -0.5428416
v -3.814697E-08 1.113315 -0.71688
v -0.001330891 0.7786763 -0.6209782
v -0.06986463 1.120522 -0.6863189
v -0.08470841 0.7954069 -0.5912675
v -1.907349E-08 1.152958 -0.5139725
v -0.001330891 0.8818223 -0.4247987
v -0.06986465 1.148554 -0.5428416
v -0.08470849 0.8683419 -0.4525474
v -0.08470841 0.7954069 -0.5912675
v -0.06986463 1.120522 -0.6863189
v 0.05603479 1.499579 -0.5492504
v 0.05603475 1.509592 -0.6659877
v 0.001354942 1.510869 -0.6906458
v -0.05332487 1.509592 -0.6659878
v -0.05332487 1.509592 -0.6659878
v -0.05332479 1.499579 -0.5492502
v 0.001354942 1.496709 -0.5255541
v 0.05264196 1.614141 -0.6386251
v 0.05264196 1.597434 -0.5336667
v 0.002016888 1.61698 -0.6607383
v -0.04860822 1.614142 -0.638625
v -0.04860815 1.597434 -0.5336669
v -0.04860822 1.614142 -0.638625
v 0.002016888 1.593351 -0.5123047
v 0.04217085 1.863064 -0.5441533
v 0.04217087 1.836103 -0.4672826
v 0.02534519 2.183551 -0.3648655
v 0.02534515 2.155611 -0.3244926
v 0.001034508 2.189277 -0.3732633
v 0.002374573 1.868345 -0.5602567
v -0.02327625 2.18355 -0.3648657
v -0.0374217 1.863063 -0.5441532
v 0.00103447 2.149765 -0.3161668
v 0.002374611 1.830217 -0.4515446
v -0.03742167 1.836103 -0.4672827
v -0.02327625 2.155611 -0.3244928
v -0.0374217 1.863063 -0.5441532
v -0.02327625 2.18355 -0.3648657
v 0.000183569 2.37477 -0.2050093
v 0.000183569 2.37477 -0.2050093
v -0.1136052 0.2789783 0.1276933
v -7.629394E-08 0.004727554 0.1247201
v -0.1136052 0.05178169 0.1252303
v -3.814697E-08 0.3260324 0.1282033
v -7.629394E-08 0.3633656 0.1168189
v 0.1136051 0.2789784 0.1276933
v 0.1345637 0.3081565 0.1153412
v 0.1136051 0.05178161 0.1252303
v 0.1345638 0.04117019 0.1079567
v -0.1345638 0.3081565 0.1153412
v -0.1345639 0.04117012 0.1079566
v -1.335144E-07 -0.01421005 0.1063755
v 0.1308324 0.4362592 -0.3479505
v 0.001616894 0.5091732 -0.4790984
v 0.001509162 0.3895842 -0.3983073
v 0.1309401 0.5558482 -0.4287415
v -0.1277063 0.5558482 -0.4287415
v -0.127814 0.4362593 -0.3479504
v 0.1036109 0.6666798 -0.3091671
v 0.1185187 0.5583867 -0.2087918
v 0.001616897 0.6962706 -0.2772421
v 0.001616893 0.5879773 -0.1768669
v -0.1003771 0.6666797 -0.3091671
v -0.1090466 0.5583867 -0.2087918
v -0.1090466 0.5583867 -0.2087918
v -0.1003771 0.6666797 -0.3091671
v 0.1308324 0.4362592 -0.3479505
v 0.001509162 0.3895842 -0.3983073
v 0.001616873 0.4944288 -0.277795
v -0.127814 0.4362593 -0.3479504
v 0.1185187 0.5583867 -0.2087918
v 0.001616893 0.5879773 -0.1768669
v -0.1090466 0.5583867 -0.2087918
v 0.001616894 0.5091732 -0.4790984
v 0.001616886 0.602722 -0.3781702
v -0.1277063 0.5558482 -0.4287415
v 0.1309401 0.5558482 -0.4287415
v -0.1003771 0.6666797 -0.3091671
v 0.001616897 0.6962706 -0.2772421
v 0.1036109 0.6666798 -0.3091671
v -0.0005156447 1.717494 -0.64036
v 0.06043269 1.581611 -0.6520874
v 0.05562234 1.712643 -0.6176182
v -0.0005112799 1.586877 -0.6767756
v -0.05665376 1.712643 -0.6176182
v -0.06145546 1.581611 -0.6520872
v -0.06145546 1.557006 -0.5367364
v -0.05665378 1.689998 -0.5114566
v -0.00051128 1.551739 -0.5091596
v -0.0005156447 1.682144 -0.4774868
v 0.06043269 1.557005 -0.5367365
v 0.05562233 1.689998 -0.5114566
v 0.05562234 1.712643 -0.6176182
v 0.06043269 1.581611 -0.6520874
v 0.06043269 1.557005 -0.5367365
v -0.0005112799 1.586877 -0.6767756
v -0.00051128 1.551739 -0.5091596
v 0.06043269 1.581611 -0.6520874
v -0.06145546 1.557006 -0.5367364
v -0.06145546 1.581611 -0.6520872
v -0.0005156447 1.717494 -0.64036
v 0.05562233 1.689998 -0.5114566
v -0.0005156447 1.682144 -0.4774868
v 0.05562234 1.712643 -0.6176182
v -0.05665378 1.689998 -0.5114566
v -0.05665376 1.712643 -0.6176182
vt 0.2121244 0.4136584
vt 0.168804 0.3171917
vt 0.16537 0.4136584
vt 0.2247026 0.3171917
vt 0.2356676 0.4136584
vt 0.2528358 0.3171917
vt 0.2588168 0.4136584
vt 0.2809979 0.3171917
vt 0.1406256 0.3171917
vt 0.1414842 0.4136584
vt 0.1123874 0.3171917
vt 0.1176779 0.4136584
vt 0.05544338 0.3171917
vt 0.07068215 0.4136583
vt 0.207909 0.4626615
vt 0.163458 0.4626615
vt 0.2301447 0.4626615
vt 0.2521607 0.4626615
vt 0.1186853 0.4626615
vt 0.07461588 0.4626615
vt 0.1410585 0.4626615
vt 0.1606188 0.5556145
vt 0.2002705 0.5556145
vt 0.1929778 0.6513985
vt 0.1587757 0.6513985
vt 0.2101247 0.6513985
vt 0.2200071 0.5556145
vt 0.2272742 0.6513985
vt 0.2397273 0.5556145
vt 0.1415056 0.6513985
vt 0.1408625 0.5556145
vt 0.1242356 0.6513985
vt 0.1210763 0.5556145
vt 0.08184124 0.5556145
vt 0.08942552 0.6513985
vt 0.1559539 0.7597163
vt 0.1835696 0.7597163
vt 0.1973642 0.7597163
vt 0.2111437 0.7597163
vt 0.1003469 0.7597163
vt 0.1280095 0.7597163
vt 0.1419743 0.7597163
vt 0.1808003 0.7879582
vt 0.1550008 0.7879582
vt 0.1936178 0.7879582
vt 0.2064164 0.7879582
vt 0.1290085 0.7879582
vt 0.1036613 0.7879582
vt 0.142002 0.7879582
vt 0.1730305 0.8537183
vt 0.1524609 0.8537183
vt 0.1616304 0.9353511
vt 0.149068 0.9350036
vt 0.1679699 0.9357083
vt 0.1832644 0.8537183
vt 0.1742602 0.936235
vt 0.1934377 0.8537183
vt 0.1427335 0.9350463
vt 0.1421162 0.8537183
vt 0.1317682 0.8537183
vt 0.1364013 0.9351988
vt 0.1117345 0.8537183
vt 0.1238213 0.9358228
vt 0.147983 0.9864092
vt 0.1345337 0.9852483
vt 0.03962699 0.98283
vt 0.04046697 0.8971484
vt 0.01512532 0.9219978
vt 0.07511744 0.983178
vt 0.07835174 0.9912079
vt 0.1004591 0.9583283
vt 0.1084241 0.9617195
vt 0.07595746 0.8974963
vt 0.0793485 0.8895312
vt 0.03623588 0.9907951
vt 0.007160267 0.9186067
vt 0.03723269 0.8891183
vt 0.3719233 0.9397697
vt 0.421488 0.9946665
vt 0.421488 0.9397697
vt 0.3719233 0.9946665
vt 0.4710519 0.9946665
vt 0.4710518 0.9397697
vt 0.3097699 0.9946665
vt 0.3097699 0.9397697
vt 0.2725972 0.9946665
vt 0.2725971 0.9397697
vt 0.2354237 0.9946665
vt 0.2354237 0.9397697
vt 0.5169505 0.9397698
vt 0.5169505 0.9946665
vt 0.03090805 0.6698624
vt 0.007874043 0.6925694
vt 0.03912218 0.7011822
vt 0.01602177 0.7238709
vt 0.06635632 0.6857732
vt 0.07037032 0.7097951
vt 0.05461588 0.7283682
vt 0.07037032 0.7765443
vt 0.03912218 0.7679315
vt 0.0473363 0.7992512
vt 0.0622226 0.7452428
vt 0.01188803 0.7833404
vt 0.007874043 0.7593185
vt 0.02362847 0.7407454
vt 0.0069634 0.3763719
vt 0.04398116 0.3532884
vt 0.0069634 0.3532884
vt 0.04398116 0.3763719
vt 0.0069634 0.3991625
vt 0.04398116 0.3991625
vt 0.04398116 0.4436238
vt 0.0069634 0.4436238
vt 0.04398116 0.466041
vt 0.0069634 0.466041
vt 0.04398116 0.4888316
vt 0.0069634 0.4888316
vt 0.0069634 0.5332928
vt 0.04398116 0.5332928
vt 0.05671681 0.5806801
vt 0.02026375 0.5442191
vt 0.04111232 0.5959815
vt 0.04211752 0.5444333
vt 0.01925845 0.5957674
vt 0.004659191 0.5595205
vt 0.04110707 0.65815
vt 0.04209913 0.6079412
vt 0.02080013 0.6077322
vt 0.05631538 0.6432369
vt 0.005591765 0.6226454
vt 0.01980801 0.6579411
vn 0.7992742 -0.4038212 -0.4450723
vn 0.9126343 0.3714292 0.1707017
vn 0.8308915 0.462167 0.3098724
vn 0.6487698 -0.5646485 -0.5101665
vn -0.001757934 -0.7237459 -0.6900643
vn -0.002540446 -0.7627166 -0.6467279
vn -0.8014496 -0.4104149 -0.4350151
vn -0.6448628 -0.559482 -0.5207034
vn -2.24852E-06 0.8418974 0.5396376
vn 0.001696927 0.7774938 0.6288882
vn -0.9172727 0.3673504 0.1538326
vn -0.8326346 0.4538882 0.3173407
vn -0.6448628 -0.559482 -0.5207034
vn -0.8014496 -0.4104149 -0.4350151
vn 0.8034816 -0.3374669 -0.4904421
vn 0.8308753 0.3834073 0.4032928
vn -0.0008213714 -0.6091912 -0.793023
vn -0.8055585 -0.3423367 -0.4836124
vn -0.8324735 0.3739441 0.4088444
vn -0.8055585 -0.3423367 -0.4836124
vn 0.001184114 0.637811 0.770192
vn 0.8444973 0.2607836 0.4677779
vn 0.8065799 -0.2192779 -0.5489499
vn 0.8112047 -0.03684198 -0.5836005
vn 0.8561075 0.1200581 0.5026589
vn -0.002084453 -0.1084256 -0.9941024
vn -0.001779424 -0.405452 -0.9141145
vn -0.8099643 -0.03537113 -0.5854116
vn -0.8055927 -0.2121817 -0.5531721
vn -0.001897497 0.1784337 0.98395
vn -0.0006099879 0.44544 0.8953115
vn -0.855181 0.1222436 0.5037082
vn -0.8443729 0.2714067 0.4619231
vn -0.8055927 -0.2121817 -0.5531721
vn -0.8099643 -0.03537113 -0.5854116
vn 0.8496086 -0.005847844 0.5273812
vn 0.8219969 0.1155477 -0.5576465
vn -0.0005428576 0.1669168 -0.9859708
vn -0.8214386 0.1229424 -0.5568875
vn -0.8214386 0.1229424 -0.5568875
vn -0.849218 0.004850772 0.5280201
vn -0.0003302288 -0.04825535 0.998835
vn 0.8253306 0.2004438 -0.5278747
vn 0.8443607 -0.08167347 0.5295134
vn 0.001094057 0.3187268 -0.9478461
vn -0.8247448 0.207029 -0.5262461
vn -0.8441471 -0.07480037 0.5308678
vn -0.8247448 0.207029 -0.5262461
vn 0.0006698065 -0.1938935 0.9810224
vn 0.8196635 0.2740157 -0.5030579
vn 0.8448364 -0.1442845 0.5152023
vn 0.8184357 0.3722908 -0.4376785
vn 0.8351721 -0.1880533 0.5168399
vn -6.055331E-05 0.5902154 -0.8072457
vn 0.0006054557 0.4362535 -0.8998236
vn -0.819082 0.367016 -0.4409126
vn -0.8196539 0.272348 -0.5039784
vn -0.0001467596 -0.4161289 0.9093056
vn 0.0006691063 -0.3203693 0.9472926
vn -0.8448093 -0.1465743 0.5146001
vn -0.8362377 -0.1937346 0.5130044
vn -0.8196539 0.272348 -0.5039784
vn -0.819082 0.367016 -0.4409126
vn -0.00338751 0.8265675 0.5628273
vn -0.00338751 0.8265675 0.5628273
vn -0.2607277 0.07775787 0.9622759
vn 0.002222896 -0.4531891 0.8914115
vn -0.3270997 -0.2561711 0.9096054
vn 0 0.1789608 0.9838562
vn -1.592823E-07 0.2947249 0.9555821
vn 0.2519914 0.08302194 0.9641617
vn 0.2811964 0.2006498 0.9384392
vn 0.3221507 -0.2629628 0.9094337
vn 0.4913925 -0.3368531 0.8031584
vn -0.280348 0.1963906 0.9395934
vn -0.4921335 -0.3301885 0.8054689
vn 0.002146898 -0.6941406 0.7198362
vn 0.8620016 -0.2593798 -0.4355175
vn 0.000235767 -0.5597994 -0.8286282
vn -0.0002067787 -0.5597992 -0.8286282
vn 0.917358 -0.2234022 -0.3294625
vn -0.9071211 -0.2159571 -0.3612392
vn -0.859763 -0.2853538 -0.4235338
vn 0.7900543 0.4522034 0.4139158
vn 0.8128822 0.4444645 0.3763958
vn -0.01049968 0.6884094 0.7252463
vn -0.01501306 0.6846841 0.7286853
vn -0.7742139 0.457201 0.4376757
vn -0.78989 0.4361766 0.4310729
vn -0.78989 0.4361766 0.4310729
vn -0.7742139 0.457201 0.4376757
vn 0.0185171 -0.7526465 0.6581643
vn -4.779494E-06 -0.7544467 0.6563613
vn -0.0001902672 -0.7469497 0.6648805
vn -0.01869664 -0.7524478 0.6583864
vn 0.009986792 -0.7417525 0.6705993
vn 0 -0.7334104 0.6797861
vn -0.010048 -0.7413561 0.6710365
vn 0 0.7334102 -0.6797863
vn -1.194696E-07 0.7334105 -0.679786
vn -4.678761E-07 0.7334105 -0.679786
vn 3.663082E-07 0.7334102 -0.6797862
vn -5.862938E-07 0.7334108 -0.6797857
vn -2.9896E-07 0.7334107 -0.6797858
vn 1.733808E-07 0.7334105 -0.679786
vn -8.535463E-06 0.2685563 -0.9632639
vn 0.8264613 0.1714084 -0.5362657
vn 0.8340858 0.168774 -0.5251822
vn 7.170158E-06 0.2685561 -0.963264
vn -0.8340945 0.1687187 -0.5251861
vn -0.826456 0.1713607 -0.5362892
vn -0.8425269 -0.07107518 0.5339445
vn -0.865901 -0.08785598 0.4924398
vn -0.01822466 -0.2125635 0.9769772
vn -0.01827199 -0.2112419 0.977263
vn 0.8524222 -0.09257789 0.5145926
vn 0.8741977 -0.0599728 0.4818524
vn 0.8340858 0.168774 -0.5251822
vn 0.8264613 0.1714084 -0.5362657
vn -0.006610363 -0.9785585 -0.2058628
vn -1.694498E-06 -0.9782473 -0.2074419
vn -2.527099E-06 -0.9787253 -0.2051753
vn -4.902306E-06 -0.9779972 -0.2086177
vn 0.006605802 -0.9785587 -0.2058626
vn 2.368226E-06 -0.9779975 -0.2086167
vn 0 0.9777426 0.2098082
vn -0.006788867 0.9773679 0.211438
vn 0 0.9772474 0.2121029
vn -7.903238E-07 0.9779976 0.2086161
vn 0.006788845 0.9773679 0.211438
vn 7.903221E-07 0.9779976 0.2086161
g Area_Ly_Build_Common_Hili_House_05_Lod1_0
f 3/3/3 2/2/2 1/1/1
f 4/4/4 1/1/1 2/2/2
f 1/1/1 4/4/4 5/5/5
f 6/6/6 5/5/5 4/4/4
f 5/5/5 6/6/6 7/7/7
f 8/8/8 7/7/7 6/6/6
f 2/2/2 3/3/3 9/9/9
f 10/10/10 9/9/9 3/3/3
f 9/9/9 10/10/10 11/11/11
f 12/12/12 11/11/11 10/10/10
f 11/11/11 12/12/12 13/13/13
f 14/14/14 13/13/13 12/12/12
f 1/1/1 15/15/15 3/3/3
f 16/16/16 3/3/3 15/15/15
f 3/3/3 16/16/16 10/10/10
f 15/15/15 1/1/1 17/17/17
f 5/5/5 17/17/17 1/1/1
f 5/5/5 7/7/7 17/17/17
f 18/18/18 17/17/17 7/7/7
f 12/12/12 19/19/19 14/14/14
f 20/20/20 14/14/14 19/19/19
f 19/19/19 12/12/12 21/21/21
f 10/10/10 21/21/21 12/12/12
f 21/21/21 10/10/10 16/16/16
f 16/16/16 15/15/15 22/22/22
f 16/16/16 22/22/22 21/21/21
f 23/23/23 22/22/22 15/15/15
f 23/23/23 24/24/24 22/22/22
f 25/25/25 22/22/22 24/24/24
f 24/24/24 23/23/23 26/26/26
f 27/27/27 26/26/26 23/23/23
f 23/23/23 15/15/15 27/27/27
f 17/17/17 27/27/27 15/15/15
f 17/17/17 18/18/18 27/27/27
f 26/26/26 27/27/27 28/28/28
f 29/29/29 28/28/28 27/27/27
f 29/29/29 27/27/27 18/18/18
f 25/25/25 30/30/30 22/22/22
f 31/31/31 22/22/22 30/30/30
f 21/21/21 31/31/31 19/19/19
f 31/31/31 21/21/21 22/22/22
f 30/30/30 32/32/32 31/31/31
f 33/33/33 31/31/31 32/32/32
f 33/33/33 19/19/19 31/31/31
f 33/33/33 32/32/32 34/34/34
f 33/33/33 34/34/34 19/19/19
f 20/20/20 19/19/19 34/34/34
f 35/35/35 34/34/34 32/32/32
f 25/25/25 24/24/24 36/36/36
f 37/37/37 36/36/36 24/24/24
f 37/37/37 24/24/24 38/38/38
f 26/26/26 38/38/38 24/24/24
f 38/38/38 26/26/26 39/39/39
f 28/28/28 39/39/39 26/26/26
f 35/35/35 32/32/32 40/40/40
f 41/41/41 40/40/40 32/32/32
f 41/41/41 32/32/32 42/42/42
f 30/30/30 42/42/42 32/32/32
f 36/36/36 42/42/42 25/25/25
f 30/30/30 25/25/25 42/42/42
f 37/37/37 43/43/43 36/36/36
f 44/44/44 36/36/36 43/43/43
f 43/43/43 37/37/37 45/45/45
f 38/38/38 45/45/45 37/37/37
f 45/45/45 38/38/38 46/46/46
f 39/39/39 46/46/46 38/38/38
f 41/41/41 47/47/47 40/40/40
f 48/48/48 40/40/40 47/47/47
f 47/47/47 41/41/41 49/49/49
f 42/42/42 49/49/49 41/41/41
f 44/44/44 49/49/49 36/36/36
f 42/42/42 36/36/36 49/49/49
f 43/43/43 50/50/50 44/44/44
f 51/51/51 44/44/44 50/50/50
f 50/50/50 52/52/52 51/51/51
f 53/53/53 51/51/51 52/52/52
f 52/52/52 50/50/50 54/54/54
f 55/55/55 54/54/54 50/50/50
f 50/50/50 43/43/43 55/55/55
f 45/45/45 55/55/55 43/43/43
f 54/54/54 55/55/55 56/56/56
f 57/57/57 56/56/56 55/55/55
f 55/55/55 45/45/45 57/57/57
f 46/46/46 57/57/57 45/45/45
f 53/53/53 58/58/58 51/51/51
f 59/59/59 51/51/51 58/58/58
f 49/49/49 59/59/59 47/47/47
f 51/51/51 59/59/59 44/44/44
f 49/49/49 44/44/44 59/59/59
f 59/59/59 58/58/58 60/60/60
f 47/47/47 60/60/60 48/48/48
f 60/60/60 47/47/47 59/59/59
f 61/61/61 60/60/60 58/58/58
f 60/60/60 61/61/61 62/62/62
f 62/62/62 48/48/48 60/60/60
f 63/63/63 62/62/62 61/61/61
f 64/64/64 53/53/53 52/52/52
f 64/64/64 52/52/52 54/54/54
f 64/64/64 54/54/54 56/56/56
f 64/64/64 61/61/61 58/58/58
f 64/64/64 58/58/58 53/53/53
f 65/65/65 63/63/63 61/61/61
f 68/68/68 67/67/67 66/66/66
f 69/69/69 66/66/66 67/67/67
f 69/69/69 70/70/70 66/66/66
f 69/69/69 71/71/71 70/70/70
f 72/72/72 70/70/70 71/71/71
f 71/71/71 73/73/73 72/72/72
f 71/71/71 69/69/69 73/73/73
f 67/67/67 73/73/73 69/69/69
f 74/74/74 72/72/72 73/73/73
f 75/75/75 66/66/66 70/70/70
f 68/68/68 66/66/66 76/76/76
f 75/75/75 76/76/76 66/66/66
f 68/68/68 76/76/76 67/67/67
f 77/77/77 67/67/67 76/76/76
f 74/74/74 73/73/73 77/77/77
f 67/67/67 77/77/77 73/73/73
f 80/80/80 79/79/79 78/78/78
f 81/81/81 78/78/78 79/79/79
f 79/79/79 80/80/80 82/82/82
f 83/83/83 82/82/82 80/80/80
f 81/81/81 84/84/84 78/78/78
f 85/85/85 78/78/78 84/84/84
f 84/84/84 86/86/86 85/85/85
f 87/87/87 85/85/85 86/86/86
f 86/86/86 88/88/88 87/87/87
f 89/89/89 87/87/87 88/88/88
f 83/83/83 90/90/90 82/82/82
f 91/91/91 82/82/82 90/90/90
f 94/94/94 93/93/93 92/92/92
f 95/95/95 93/93/93 94/94/94
f 94/94/94 92/92/92 96/96/96
f 96/96/96 97/97/97 94/94/94
f 97/97/97 98/98/98 94/94/94
f 94/94/94 98/98/98 95/95/95
f 101/101/101 100/100/100 99/99/99
f 99/99/99 100/100/100 102/102/102
f 101/101/101 103/103/103 100/100/100
f 100/100/100 103/103/103 104/104/104
f 100/100/100 104/104/104 105/105/105
f 100/100/100 105/105/105 102/102/102
f 108/108/108 107/107/107 106/106/106
f 109/109/109 106/106/106 107/107/107
f 106/106/106 109/109/109 110/110/110
f 111/111/111 110/110/110 109/109/109
f 111/111/111 112/112/112 110/110/110
f 113/113/113 110/110/110 112/112/112
f 112/112/112 114/114/114 113/113/113
f 115/115/115 113/113/113 114/114/114
f 114/114/114 116/116/116 115/115/115
f 117/117/117 115/115/115 116/116/116
f 117/117/117 116/116/116 118/118/118
f 119/119/119 118/118/118 116/116/116
f 122/122/122 121/121/121 120/120/120
f 123/123/123 120/120/120 121/121/121
f 122/122/122 124/124/124 121/121/121
f 125/125/125 121/121/121 124/124/124
f 128/128/128 127/127/127 126/126/126
f 129/129/129 126/126/126 127/127/127
f 128/128/128 126/126/126 130/130/130
f 131/131/131 130/130/130 126/126/126
