g Area_Common_Build_Hili_Defence_04_Lod2
v -0.6487393 0.2831014 0.2626728
v -0.625163 0.2420075 0.5065361
v -1.189554 0.616043 0.4898649
v -0.8397288 0.1839931 0.4297851
v -0.6487393 0.2831014 0.2626728
v -0.4470485 -0.2602251 0.5593956
v -0.5604205 -0.259877 0.1438935
v -0.8412929 -0.2606761 0.423032
v -0.5604205 -0.259877 0.1438935
v 2.163829 0.5262318 -0.6757448
v 2.513865 0.8472055 -1.007573
v 2.247497 0.6037388 -0.4806193
v 2.423776 0.4993065 -0.6063727
v 2.423776 0.4993065 -0.6063727
v 1.840592 -0.2652965 -0.4437475
v 1.9614 -0.264501 0.004866687
v 2.361859 -0.2653461 -0.2120362
v 2.361859 -0.2653461 -0.2120362
v -2.269937 1.629135 -0.1507594
v -2.236335 -0.2678023 0.02967848
v -1.953193 -0.2684387 -0.0425425
v -1.920288 1.584029 -0.01558625
v -1.920288 1.584029 -0.01558625
v -1.953193 -0.2684387 -0.0425425
v -1.977213 -0.2683853 0.2945192
v -1.920288 1.584029 -0.01558625
v -1.977213 -0.2683853 0.2945192
v -2.269937 1.629135 -0.1507594
v -2.236335 -0.2678023 0.02967848
v 0.6671122 1.337395 0.04538032
v 0.6439663 -0.2745167 0.1983474
v 1.006139 1.255768 0.0607872
v 0.2828097 -0.2661049 0.2760124
v 0.6671122 1.337395 0.04538032
v 0.6370585 -0.2741201 0.3870935
v 0.2828097 -0.2661049 0.2760124
v 1.006139 1.255768 0.0607872
v 0.03480471 1.412653 0.1361688
v 0.3779055 -0.2576491 -0.2615629
v 0.2795087 1.456875 0.1329251
v 0.09210353 -0.2652356 -0.150963
v 0.2795087 1.456875 0.1329251
v 0.3779055 -0.2576491 -0.2615629
v 0.3795179 -0.2617348 -0.04766607
v 0.03480471 1.412653 0.1361688
v 0.3795179 -0.2617348 -0.04766607
v 0.09210353 -0.2652356 -0.150963
v 0.2795087 1.456875 0.1329251
v -0.9426814 1.355256 0.1099704
v -0.8688893 -0.2784294 0.2102597
v -1.284026 1.422845 0.09252726
v -1.261058 -0.2806895 0.08399682
v -1.284026 1.422845 0.09252726
v -1.261058 -0.2806895 0.08399682
v -0.86452 -0.278358 -0.007376437
v -0.9426814 1.355256 0.1099704
v 0.8148974 0.7180376 0.3313479
v -0.9794075 0.2111562 0.08968579
v 0.9043112 0.4563484 0.2971433
v -1.044429 0.4447445 0.1321605
v 0.8346246 0.4467537 0.3615901
v -1.044429 0.4447445 0.1321605
v 0.8148974 0.7180376 0.3313479
v -0.9975569 0.2092991 0.193059
v 0.09305727 0.8020231 0.1242117
v -1.98177 1.333892 -0.01638349
v 0.1554711 1.071842 0.04354375
v -2.122577 1.065974 0.1003924
v 0.1554711 1.071842 0.04354375
v -2.103803 1.07254 -0.1030307
v 0.1118069 0.8084481 -0.06243192
v -1.98177 1.333892 -0.01638349
v 2.908089 1.601631 -0.3906702
v 2.510342 -0.2717345 -0.1856824
v 2.50263 -0.2717384 -0.3522645
v 2.908089 1.601631 -0.3906702
v 2.797801 -0.2809892 -0.375998
v 3.290618 1.484813 -0.427204
v 2.50263 -0.2717384 -0.3522645
v 3.290618 1.484813 -0.427204
v 2.797801 -0.2809892 -0.375998
v 2.805007 -0.2809844 -0.2196137
v 2.311108 1.466913 0.0234525
v 2.567467 -0.2842294 -0.2256538
v 2.608246 1.46445 -0.09418911
v 2.209531 -0.2834252 -0.09066574
v 2.311108 1.466913 0.0234525
v 2.603825 -0.2844273 -0.01702806
v 2.275342 -0.2836233 0.1147681
v 2.608246 1.46445 -0.09418911
v 1.72102 1.409225 -0.4008083
v 1.509842 -0.2686235 0.04554505
v 1.807069 -0.2679018 -0.06223782
v 1.390084 1.36868 -0.2893424
v 1.72102 1.409225 -0.4008083
v 1.539847 -0.2660773 0.2544831
v 1.390084 1.36868 -0.2893424
v 1.836991 -0.2653555 0.1467542
v 3.135847 0.4523056 -0.3087245
v 0.7485317 0.9217563 0.1215978
v 3.159592 0.7209468 -0.4353558
v 0.7230821 0.649494 0.2118348
v 3.159592 0.7209468 -0.4353558
v 0.7072435 0.6439124 0.07502847
v 3.11727 0.4465779 -0.5032333
v 0.7485317 0.9217563 0.1215978
v 0.7508859 0.3756651 0.2409509
v 1.523135 -0.08028021 0.1441073
v 0.6880208 0.1946127 0.27424
v 1.585281 0.08513185 0.08327251
v 1.521622 -0.09749073 0.09151343
v 0.7508859 0.3756651 0.2409509
v 0.6877897 0.1924469 0.2276987
v 1.585281 0.08513185 0.08327251
v -0.9975569 0.2092991 0.193059
v -3.04405 0.2154432 -0.3273292
v -1.044429 0.4447445 0.1321605
v -3.076555 0.02173956 -0.2254321
v -0.9794075 0.2111562 0.08968579
v -3.04405 0.2154432 -0.3273292
v -2.970484 0.02168288 -0.4027606
v -1.044429 0.4447445 0.1321605
v 2.908089 1.601631 -0.3906702
v 2.805007 -0.2809844 -0.2196137
v 2.510342 -0.2717345 -0.1856824
v 3.290618 1.484813 -0.427204
v -0.05319137 1.003032 0.2984966
v 0.09929672 -0.2715765 0.4936092
v 0.116852 1.065715 0.3405308
v -0.1162695 -0.2696433 0.5183361
v -0.05319137 1.003032 0.2984966
v 0.07806793 -0.2698474 0.6477871
v -0.1162695 -0.2696433 0.5183361
v 0.116852 1.065715 0.3405308
vt 0.2844222 0.07458915
vt 0.2931994 0.07730283
vt 0.298207 0.05315275
vt 0.305679 0.07285468
vt 0.3200587 0.06794735
vt 0.2951245 0.1096354
vt 0.2781202 0.1084291
vt 0.3089521 0.1015746
vt 0.3242711 0.1016906
vt 0.1782441 0.06912908
vt 0.1711901 0.04742871
vt 0.1725142 0.06992631
vt 0.1850027 0.06431291
vt 0.1641772 0.06707884
vt 0.1898538 0.1033822
vt 0.1716364 0.1108837
vt 0.2000823 0.09213541
vt 0.1555616 0.1017619
vt 0.6371911 0.9990191
vt 0.7392946 0.9990191
vt 0.7392946 0.9737474
vt 0.6388052 0.9737474
vt 0.6408464 0.9608956
vt 0.7392946 0.9737474
vt 0.7392946 0.9480439
vt 0.6430752 0.9990191
vt 0.7392946 0.9990191
vt 0.6397181 0.9737474
vt 0.7392946 0.9737474
vt 0.6352503 0.9990191
vt 0.7392946 0.9737474
vt 0.6352503 0.9737474
vt 0.7392946 0.9990191
vt 0.6352503 0.9737474
vt 0.7392946 0.9990191
vt 0.7392946 0.9737474
vt 0.6352503 0.9990191
vt 0.6289067 0.9737474
vt 0.7392946 0.9480439
vt 0.6289067 0.9480439
vt 0.7392946 0.9737474
vt 0.6289056 0.9863833
vt 0.7392946 0.9990191
vt 0.7392946 0.9737474
vt 0.6289067 0.9480439
vt 0.7392946 0.9737474
vt 0.7392946 0.9480439
vt 0.6289067 0.9737474
vt 0.6320897 0.9990191
vt 0.7392946 0.9990191
vt 0.6280258 0.9737474
vt 0.7392946 0.9737474
vt 0.6280258 0.9990191
vt 0.7392946 0.9990191
vt 0.7392946 0.9737474
vt 0.6395443 0.9737474
vt 0.6305476 0.9990191
vt 0.7392946 0.9737474
vt 0.6325759 0.9737474
vt 0.7392946 0.9990191
vt 0.6357692 0.9990191
vt 0.7392946 0.9737474
vt 0.6337504 0.9737474
vt 0.7392946 0.9990191
vt 0.6289056 0.9990191
vt 0.7392946 0.9737474
vt 0.6289056 0.9737474
vt 0.7392946 0.9990191
vt 0.6289056 0.9990191
vt 0.7392946 0.9737474
vt 0.6289056 0.9737474
vt 0.7392946 0.9990191
vt 0.6369067 0.9863833
vt 0.7392946 0.9990191
vt 0.7392946 0.9737474
vt 0.6347552 0.9737474
vt 0.7392946 0.9480439
vt 0.6333264 0.9480439
vt 0.7392946 0.9737474
vt 0.6377842 0.9863833
vt 0.7392946 0.9990191
vt 0.7392946 0.9737474
vt 0.6279435 0.9737474
vt 0.7392946 0.9480439
vt 0.6279435 0.9480439
vt 0.7392946 0.9737474
vt 0.6279435 0.9480439
vt 0.7392946 0.9737474
vt 0.7392946 0.9480439
vt 0.6279435 0.9737474
vt 0.6344305 0.9737474
vt 0.7392946 0.9990191
vt 0.7392946 0.9737474
vt 0.6369792 0.9990191
vt 0.6386039 0.9990191
vt 0.7392946 0.9737474
vt 0.6409909 0.9737474
vt 0.7392946 0.9990191
vt 0.6289056 0.9990191
vt 0.7392946 0.9737474
vt 0.6289056 0.9737474
vt 0.7392946 0.9990191
vt 0.6289056 0.9990191
vt 0.7392946 0.9737474
vt 0.6289056 0.9737474
vt 0.7392946 0.9990191
vt 0.7392946 0.9737474
vt 0.6847173 0.9990191
vt 0.7392946 0.9990191
vt 0.6847173 0.9737474
vt 0.6847173 0.9737474
vt 0.7392946 0.9990191
vt 0.7392946 0.9737474
vt 0.6847173 0.9990191
vt 0.6289056 0.9990191
vt 0.7392946 0.9737474
vt 0.6289056 0.9737474
vt 0.7392946 0.9990191
vt 0.6289056 0.9737474
vt 0.7392946 0.9990191
vt 0.7392946 0.9737474
vt 0.6289056 0.9990191
vt 0.6397626 0.9480439
vt 0.7392946 0.9737474
vt 0.7392946 0.9480439
vt 0.6396998 0.9737474
vt 0.6280186 0.9737474
vt 0.7392946 0.9480439
vt 0.6280186 0.9480439
vt 0.7392946 0.9737474
vt 0.6280186 0.9480439
vt 0.7392946 0.9737474
vt 0.7392946 0.9480439
vt 0.6280186 0.9737474
vn 0.3253323 0.5480139 -0.7706099
vn 0.5220248 0.4343878 0.7340282
vn -0.7711428 0.6202828 0.1434857
vn -0.9268966 -0.3328716 0.1733758
vn 0.3253323 0.5480139 -0.7706099
vn 0.7025921 0.2431879 0.668748
vn 0.29076 0.2493646 -0.9237294
vn -0.9783431 0.0169265 0.2062969
vn 0.29076 0.2493646 -0.9237294
vn -0.7353389 0.1478559 -0.6613739
vn 0.4074281 0.5427428 -0.7344607
vn -0.1509917 0.7529514 0.6405198
vn 0.9835697 -0.1490866 -0.1018031
vn 0.9835697 -0.1490866 -0.1018031
vn -0.8224779 0.1131741 -0.5574241
vn -0.3504911 0.5424149 0.7635065
vn 0.973165 -0.04567539 0.2255297
vn 0.973165 -0.04567539 0.2255297
vn 0.3021729 -0.003923787 -0.953245
vn -0.2462152 -0.0960995 -0.9644392
vn -0.1761669 -0.08533174 -0.9806548
vn 0.3613814 0.007148643 -0.9323907
vn 0.9972948 -0.0187488 0.07107426
vn 0.9972948 -0.0187488 0.07107425
vn 0.9972948 -0.0187488 0.07107425
vn -0.3369661 0.1655161 0.926854
vn -0.6733392 0.06886653 0.7361194
vn -0.3916807 0.1525044 0.9073747
vn -0.7136883 0.05378953 0.6983951
vn -0.01095882 -0.09431187 -0.9954823
vn -0.1836942 -0.09025139 -0.9788316
vn 0.02241098 -0.09476869 -0.9952471
vn -0.2113865 -0.08932994 -0.9733118
vn -0.03670351 0.2079477 0.977451
vn -0.2534043 0.2051822 0.9453499
vn -0.2887267 0.2037481 0.9354804
vn 0.005462976 0.2073319 0.9782555
vn -0.08464551 0.2143241 -0.9730881
vn -0.332275 0.1533485 -0.9306328
vn -0.05285304 0.2210321 -0.9738333
vn -0.3604203 0.145367 -0.9213933
vn 0.9982514 0.05876303 -0.006402935
vn 0.9982514 0.05876303 -0.006402936
vn 0.9982514 0.05876303 -0.006402936
vn -0.005915464 -0.1103378 0.9938765
vn -0.2999437 -0.1649109 0.9395946
vn -0.3314538 -0.1701257 0.9280063
vn 0.03172523 -0.1026256 0.994214
vn -0.03919749 0.05946204 0.9974607
vn -0.273559 -0.0001897015 0.9618551
vn -0.08586504 0.04791481 0.9951539
vn -0.3064098 -0.008897608 0.9518582
vn 0.01623835 0.06260666 -0.9979062
vn -0.2245533 0.001852059 -0.97446
vn -0.1884993 0.01118609 -0.9820096
vn 0.06562299 0.0746169 -0.9950507
vn 0.08676771 0.1615314 -0.9830458
vn 0.1302647 0.21682 -0.9674814
vn 0.08767871 0.1585029 -0.9834578
vn 0.1386826 0.2144115 -0.9668478
vn -0.1205602 0.1114937 0.986425
vn -0.1841354 0.2060256 0.9610659
vn -0.1206815 0.1013096 0.9875081
vn -0.174703 0.2235945 0.9588974
vn 0.01041074 0.2933127 0.9559599
vn 0.03381194 0.3766159 0.9257523
vn 0.008032953 0.2847282 0.9585747
vn 0.0357598 0.3834522 0.9228682
vn 0.06056772 0.357684 -0.9318764
vn 0.0619386 0.2955969 -0.9533027
vn 0.06041272 0.3639498 -0.9294572
vn 0.06208931 0.287844 -0.9556625
vn -0.9761801 0.2122041 0.04518837
vn -0.9761801 0.212204 0.04518836
vn -0.9761801 0.2122041 0.04518837
vn -0.09411314 -0.002245533 -0.995559
vn -0.08207562 -0.002959001 -0.9966217
vn -0.09572384 -0.00214998 -0.9954056
vn -0.08024251 -0.003067549 -0.9967707
vn 0.9619115 -0.2697445 -0.04431808
vn 0.9619115 -0.2697445 -0.04431809
vn 0.9619115 -0.2697445 -0.04431808
vn -0.3644164 0.07864943 -0.9279089
vn -0.3532586 0.08086826 -0.9320239
vn -0.3664252 0.07824763 -0.9271515
vn -0.3515435 0.08120739 -0.9326428
vn 0.3686127 0.04014304 0.9287159
vn 0.3716879 0.04068593 0.9274658
vn 0.3721482 0.04076722 0.9272776
vn 0.3681062 0.04005365 0.9289206
vn -0.2941948 -0.2109555 -0.9321734
vn -0.327659 -0.2041631 -0.9224733
vn -0.3333745 -0.2029686 -0.9206874
vn -0.288505 -0.2120768 -0.9336962
vn 0.2727289 0.3247409 0.9056281
vn 0.3157545 0.3158275 0.8947357
vn 0.2656187 0.3261394 0.9072375
vn 0.3228946 0.314272 0.892733
vn 0.2370097 0.3894113 0.8900479
vn 0.2254775 0.2957166 0.9282843
vn 0.2378408 0.3968653 0.8865268
vn 0.2243905 0.2876193 0.9310876
vn -0.2045839 0.259384 -0.9438567
vn -0.2056906 0.1968824 -0.9586077
vn -0.2044499 0.2646854 -0.9424127
vn -0.2057465 0.1914293 -0.9596996
vn 0.1990301 0.1308142 0.9712233
vn 0.2526021 0.2281201 0.9402943
vn 0.1893649 0.1135746 0.9753162
vn 0.2617206 0.2450014 0.9335291
vn -0.1718384 0.03106666 -0.9846352
vn -0.1296833 0.100313 -0.9864682
vn -0.1216812 0.1132283 -0.9860898
vn -0.1795345 0.01819811 -0.9835833
vn -0.174703 0.2235945 0.9588974
vn -0.2169096 0.4646601 0.858511
vn -0.1841354 0.2060256 0.9610659
vn -0.2144711 0.4826737 0.8491338
vn 0.1302647 0.21682 -0.9674814
vn 0.1821768 0.4008749 -0.8978368
vn 0.1808952 0.4156819 -0.8913391
vn 0.1386826 0.2144115 -0.9668478
vn 0.119581 0.08334316 0.9893202
vn 0.1169768 0.08351273 0.9896171
vn 0.1165837 0.08353828 0.9896613
vn 0.1199268 0.08332059 0.9892802
vn 0.2449734 -0.1180014 -0.962322
vn -0.08104256 -0.1602828 -0.9837385
vn 0.2774499 -0.1128558 -0.9540887
vn -0.113872 -0.1636271 -0.9799283
vn -0.3329107 0.2174529 0.9175428
vn -0.5263433 0.1741028 0.8322566
vn -0.5463049 0.1687916 0.8204026
vn -0.3102407 0.2216858 0.9244491
g Area_Common_Build_Hili_Defence_04_Lod2_0
f 3/3/3 2/2/2 1/1/1
f 3/3/3 4/4/4 2/2/2
f 3/3/3 5/5/5 4/4/4
f 2/2/2 6/6/6 1/1/1
f 7/7/7 1/1/1 6/6/6
f 6/6/6 2/2/2 8/8/8
f 4/4/4 8/8/8 2/2/2
f 4/4/4 5/5/5 8/8/8
f 9/9/9 8/8/8 5/5/5
f 12/12/12 11/11/11 10/10/10
f 11/11/11 13/13/13 10/10/10
f 12/12/12 14/14/14 11/11/11
f 10/10/10 15/15/15 12/12/12
f 10/10/10 13/13/13 15/15/15
f 16/16/16 12/12/12 15/15/15
f 17/17/17 15/15/15 13/13/13
f 14/14/14 12/12/12 18/18/18
f 16/16/16 18/18/18 12/12/12
f 21/21/21 20/20/20 19/19/19
f 22/22/22 21/21/21 19/19/19
f 25/25/25 24/24/24 23/23/23
f 28/28/28 27/27/27 26/26/26
f 29/29/29 27/27/27 28/28/28
f 32/32/32 31/31/31 30/30/30
f 33/33/33 30/30/30 31/31/31
f 36/36/36 35/35/35 34/34/34
f 37/37/37 34/34/34 35/35/35
f 40/40/40 39/39/39 38/38/38
f 41/41/41 38/38/38 39/39/39
f 44/44/44 43/43/43 42/42/42
f 47/47/47 46/46/46 45/45/45
f 48/48/48 45/45/45 46/46/46
f 51/51/51 50/50/50 49/49/49
f 52/52/52 50/50/50 51/51/51
f 55/55/55 54/54/54 53/53/53
f 56/56/56 55/55/55 53/53/53
f 59/59/59 58/58/58 57/57/57
f 60/60/60 57/57/57 58/58/58
f 63/63/63 62/62/62 61/61/61
f 64/64/64 61/61/61 62/62/62
f 67/67/67 66/66/66 65/65/65
f 68/68/68 65/65/65 66/66/66
f 71/71/71 70/70/70 69/69/69
f 72/72/72 69/69/69 70/70/70
f 75/75/75 74/74/74 73/73/73
f 78/78/78 77/77/77 76/76/76
f 79/79/79 76/76/76 77/77/77
f 82/82/82 81/81/81 80/80/80
f 85/85/85 84/84/84 83/83/83
f 86/86/86 83/83/83 84/84/84
f 89/89/89 88/88/88 87/87/87
f 90/90/90 87/87/87 88/88/88
f 93/93/93 92/92/92 91/91/91
f 94/94/94 91/91/91 92/92/92
f 97/97/97 96/96/96 95/95/95
f 98/98/98 95/95/95 96/96/96
f 101/101/101 100/100/100 99/99/99
f 102/102/102 99/99/99 100/100/100
f 105/105/105 104/104/104 103/103/103
f 106/106/106 103/103/103 104/104/104
f 109/109/109 108/108/108 107/107/107
f 110/110/110 107/107/107 108/108/108
f 113/113/113 112/112/112 111/111/111
f 114/114/114 111/111/111 112/112/112
f 117/117/117 116/116/116 115/115/115
f 118/118/118 115/115/115 116/116/116
f 121/121/121 120/120/120 119/119/119
f 122/122/122 119/119/119 120/120/120
f 125/125/125 124/124/124 123/123/123
f 126/126/126 123/123/123 124/124/124
f 129/129/129 128/128/128 127/127/127
f 130/130/130 127/127/127 128/128/128
f 133/133/133 132/132/132 131/131/131
f 134/134/134 131/131/131 132/132/132
