g Area_Common_Build_Plinth_C_01_Lod1
v 5.312607 2.790476 1.07611
v 5.312499 1.843846 -1.161693
v 5.312499 1.843846 1.072155
v 5.312504 2.790477 -1.162579
v -5.30027 2.790477 -1.162579
v -5.300215 1.843846 1.072155
v -5.30027 1.843846 -1.161693
v -5.300215 2.790476 1.07611
v -5.300215 2.790476 1.07611
v 5.312499 1.843846 1.072155
v -5.300215 1.843846 1.072155
v 5.312607 2.790476 1.07611
v 5.312504 2.790477 -1.162579
v -5.30027 1.843846 -1.161693
v 5.312499 1.843846 -1.161693
v -5.30027 2.790477 -1.162579
v -6.161101 4.068526 1.763501
v 6.208289 2.991792 1.764096
v -6.161112 2.991792 1.763499
v 6.208289 4.068526 1.764096
v 6.208289 2.991792 1.764096
v -5.300215 2.790476 1.07611
v -6.161112 2.991792 1.763499
v 5.312607 2.790476 1.07611
v 6.207964 2.991792 -1.863182
v 6.208289 4.068526 1.764096
v 6.207778 4.068527 -1.863182
v 6.208289 2.991792 1.764096
v 5.312504 2.790477 -1.162579
v 6.208289 2.991792 1.764096
v 6.207964 2.991792 -1.863182
v 5.312607 2.790476 1.07611
v -6.158927 2.991792 -1.864635
v 6.207778 4.068527 -1.863182
v -6.159413 4.068527 -1.864435
v 6.207964 2.991792 -1.863182
v 5.312504 2.790477 -1.162579
v -6.158927 2.991792 -1.864635
v -5.30027 2.790477 -1.162579
v 6.207964 2.991792 -1.863182
v -6.161112 2.991792 1.763499
v -6.159413 4.068527 -1.864435
v -6.161101 4.068526 1.763501
v -6.158927 2.991792 -1.864635
v -5.300215 2.790476 1.07611
v -6.158927 2.991792 -1.864635
v -6.161112 2.991792 1.763499
v -5.30027 2.790477 -1.162579
v 6.208289 4.068526 1.764096
v -6.159413 4.068527 -1.864435
v 6.207778 4.068527 -1.863182
v -6.161101 4.068526 1.763501
v -6.44559 -0.3660675 -2.235073
v 6.492134 0.7445837 -2.275042
v -6.445596 0.7445816 -2.234925
v 6.492134 -0.3660663 -2.275042
v 6.492134 0.7445837 -2.275042
v -5.30027 1.843846 -1.161693
v -6.445596 0.7445816 -2.234925
v 5.312499 1.843846 -1.161693
v 6.491741 0.7445831 2.21534
v 6.492134 -0.3660663 -2.275042
v 6.491516 -0.3660672 2.215339
v 6.492134 0.7445837 -2.275042
v 5.312499 1.843846 1.072155
v 6.492134 0.7445837 -2.275042
v 6.491741 0.7445831 2.21534
v 5.312499 1.843846 -1.161693
v -6.444629 0.7445813 2.245799
v 6.491516 -0.3660672 2.215339
v -6.444845 -0.3660684 2.241603
v 6.491741 0.7445831 2.21534
v 5.312499 1.843846 1.072155
v -6.444629 0.7445813 2.245799
v -5.300215 1.843846 1.072155
v 6.491741 0.7445831 2.21534
v -6.445596 0.7445816 -2.234925
v -6.444845 -0.3660684 2.241603
v -6.44559 -0.3660675 -2.235073
v -6.444629 0.7445813 2.245799
v -5.30027 1.843846 -1.161693
v -6.444629 0.7445813 2.245799
v -6.445596 0.7445816 -2.234925
v -5.300215 1.843846 1.072155
v -6.44559 -0.3660675 -2.235073
v 6.491516 -0.3660672 2.215339
v 6.492134 -0.3660663 -2.275042
v -6.444845 -0.3660684 2.241603
vt 0.9524 0.8352293
vt 0.9933383 0.8614716
vt 0.9523942 0.8614708
vt 0.9933394 0.8352305
vt 0.9554903 0.8352305
vt 0.9959125 0.8614716
vt 0.9554896 0.8614716
vt 0.9959125 0.8352305
vt 0.7520461 0.8352305
vt 0.9523942 0.8614708
vt 0.7521136 0.8614748
vt 0.9524 0.8352293
vt 0.752005 0.8352305
vt 0.9554896 0.8614716
vt 0.752004 0.8614716
vt 0.9554903 0.8352305
vt 0.9991402 0.8644586
vt 0.7513208 0.884653
vt 0.9991456 0.884653
vt 0.7513208 0.8644586
vt 0.9959921 0.9790036
vt 0.7696384 0.9649046
vt 0.7527059 0.9789924
vt 0.9783753 0.9649046
vt 0.9978083 0.884653
vt 0.9354774 0.8644586
vt 0.9993104 0.8644586
vt 0.9354774 0.884653
vt 0.8942512 0.9637473
vt 0.8419204 0.9801612
vt 0.9067775 0.9801584
vt 0.8542226 0.9637473
vt 0.7532409 0.884653
vt 0.9993104 0.8644586
vt 0.7531379 0.8644586
vt 0.9978083 0.884653
vt 0.9783567 0.9791121
vt 0.7527305 0.9647726
vt 0.7696205 0.9791356
vt 0.9959673 0.9647726
vt 0.7748411 0.8846518
vt 0.8683659 0.8644586
vt 0.7748344 0.8644586
vt 0.8685711 0.884653
vt 0.8542128 0.9798549
vt 0.9067851 0.9640536
vt 0.8419129 0.9640536
vt 0.8942414 0.9798304
vt 0.9274601 0.9084468
vt 0.8390019 0.9343898
vt 0.9274539 0.9343898
vt 0.8389924 0.9084468
vt 0.9991402 0.8644586
vt 0.7513208 0.884653
vt 0.9991456 0.884653
vt 0.7513208 0.8644586
vt 0.7509323 0.9075086
vt 0.9618182 0.9352292
vt 0.9822643 0.9077362
vt 0.7720585 0.9354572
vt 0.9978083 0.884653
vt 0.9354774 0.8644586
vt 0.9993104 0.8644586
vt 0.9354774 0.884653
vt 0.8469098 0.9357712
vt 0.90676 0.906943
vt 0.8264705 0.9069445
vt 0.8868517 0.9357728
vt 0.7532409 0.884653
vt 0.9993104 0.8644586
vt 0.7531379 0.8644586
vt 0.9978083 0.884653
vt 0.9611963 0.9356439
vt 0.7509477 0.9070893
vt 0.7714374 0.9358217
vt 0.982255 0.9072673
vt 0.7748411 0.8846518
vt 0.8683659 0.8644586
vt 0.7748344 0.8644586
vt 0.8685711 0.884653
vt 0.8457476 0.9355511
vt 0.9066716 0.9071717
vt 0.8265547 0.907168
vt 0.8856894 0.9355474
vt 0.9294457 0.9343898
vt 0.8370167 0.9084468
vt 0.8369131 0.9343898
vt 0.9295394 0.9084468
vn 0.9999365 -0.001451116 0.01118203
vn 0.9999166 -0.001378888 -0.01284342
vn 1 -0.0001147688 2.732367E-07
vn 1 -5.201209E-06 -4.607582E-05
vn -0.9999379 0 -0.01114235
vn -0.9999263 0 0.01213821
vn -1 0 2.459059E-05
vn -1 -1.025188E-07 2.453742E-05
vn -0.002512343 0 0.9999969
vn 0.002453267 -6.802723E-06 0.999997
vn 0 -0.004178023 0.9999913
vn 0 -0.004177942 0.9999913
vn 0.002449279 -1.400626E-07 -0.999997
vn -0.002512837 0 -0.9999969
vn 0 0.449918 -0.8930699
vn 0 -0.0009357104 -0.9999996
vn -4.82609E-05 -1.732116E-06 1
vn -4.810733E-05 0 1
vn -4.827043E-05 -1.841757E-06 1
vn -4.809778E-05 1.417136E-07 1
vn 0.1289607 -0.9843433 0.1201561
vn -0.110503 -0.98258 0.149417
vn -0.1313391 -0.983605 0.1235773
vn 0.1054151 -0.9829891 0.1503995
vn 1 0.0001411301 -0.0001314117
vn 1 3.176033E-05 -9.894594E-05
vn 1 0.0001728905 -0.0001408395
vn 1 0 -8.95181E-05
vn 0.1058153 -0.983412 -0.1473225
vn 0.1289607 -0.9843433 0.1201561
vn 0.1277596 -0.9845654 -0.1196175
vn 0.1054151 -0.9829891 0.1503995
vn 0.0001021779 0.00017542 -1
vn 0.0001165674 1.015093E-05 -1
vn 0.0001012836 0.0001856905 -1
vn 0.0001174617 -1.214055E-07 -1
vn 0.1058153 -0.983412 -0.1473225
vn -0.1299474 -0.983847 -0.1231211
vn -0.111206 -0.983033 -0.1458741
vn 0.1277596 -0.9845654 -0.1196175
vn -0.9999999 -7.416579E-05 -0.0004903826
vn -0.9999998 -0.0003667437 -0.0005772167
vn -0.9999999 1.077109E-05 -0.0004651742
vn -0.9999998 -0.0004516707 -0.0006024223
vn -0.110503 -0.98258 0.149417
vn -0.1299474 -0.983847 -0.1231211
vn -0.1313391 -0.983605 0.1235773
vn -0.111206 -0.983033 -0.1458741
vn 0 1 1.998106E-07
vn 0 1 1.997876E-07
vn 0 1 1.998172E-07
vn 0 1 1.99781E-07
vn -0.003100155 0.0001257396 -0.9999952
vn -0.002220692 0.2829154 -0.9591423
vn -0.002976713 0.280086 -0.9599702
vn -0.003089384 2.747709E-07 -0.9999952
vn -0.002220692 0.2829154 -0.9591423
vn -0.002083117 0.700474 -0.713675
vn -0.002976713 0.280086 -0.9599702
vn 0 0.449918 -0.8930699
vn 1 -0.0001710151 0.000129834
vn 1 -3.12173E-05 9.525644E-05
vn 1 -0.0002022324 0.0001375553
vn 1 0 8.753518E-05
vn 0.6818166 0.7315231 4.754367E-05
vn 0.6817867 0.731551 2.783974E-05
vn 0.6818352 0.7315058 5.9784E-05
vn 0.6817446 0.7315903 1.362994E-07
vn 0.002047889 -0.00357256 0.9999915
vn 0.002336837 -0.0002072209 0.9999973
vn 0.002030208 -0.003778478 0.9999908
vn 0.002354517 -1.300474E-06 0.9999973
vn 0.001529584 0.7221643 0.6917199
vn 0.0002301274 0.7287045 0.6848283
vn 0 0.7298558 0.6836012
vn 0.001629814 0.721657 0.6922489
vn -1 2.570619E-05 0.0001742184
vn -1 0.0001625708 0.0002081752
vn -1 -4.968061E-06 0.0001666079
vn -1 0.000193174 0.0002157681
vn -0.6925644 0.721356 0.0001228059
vn -0.6926326 0.7212906 7.881931E-05
vn -0.6925232 0.7213957 0.0001494735
vn -0.6927284 0.7211986 1.698534E-05
vn 0 -1 -2.043875E-07
vn 0 -1 -2.040118E-07
vn 0 -1 -2.038734E-07
vn 0 -1 -2.045262E-07
g Area_Common_Build_Plinth_C_01_Lod1_0
f 3/3/3 2/2/2 1/1/1
f 4/4/4 1/1/1 2/2/2
f 7/7/7 6/6/6 5/5/5
f 8/8/8 5/5/5 6/6/6
f 11/11/11 10/10/10 9/9/9
f 12/12/12 9/9/9 10/10/10
f 15/15/15 14/14/14 13/13/13
f 16/16/16 13/13/13 14/14/14
f 19/19/19 18/18/18 17/17/17
f 20/20/20 17/17/17 18/18/18
f 23/23/23 22/22/22 21/21/21
f 24/24/24 21/21/21 22/22/22
f 27/27/27 26/26/26 25/25/25
f 28/28/28 25/25/25 26/26/26
f 31/31/31 30/30/30 29/29/29
f 32/32/32 29/29/29 30/30/30
f 35/35/35 34/34/34 33/33/33
f 36/36/36 33/33/33 34/34/34
f 39/39/39 38/38/38 37/37/37
f 40/40/40 37/37/37 38/38/38
f 43/43/43 42/42/42 41/41/41
f 44/44/44 41/41/41 42/42/42
f 47/47/47 46/46/46 45/45/45
f 48/48/48 45/45/45 46/46/46
f 51/51/51 50/50/50 49/49/49
f 52/52/52 49/49/49 50/50/50
f 55/55/55 54/54/54 53/53/53
f 56/56/56 53/53/53 54/54/54
f 59/59/59 58/58/58 57/57/57
f 60/60/60 57/57/57 58/58/58
f 63/63/63 62/62/62 61/61/61
f 64/64/64 61/61/61 62/62/62
f 67/67/67 66/66/66 65/65/65
f 68/68/68 65/65/65 66/66/66
f 71/71/71 70/70/70 69/69/69
f 72/72/72 69/69/69 70/70/70
f 75/75/75 74/74/74 73/73/73
f 76/76/76 73/73/73 74/74/74
f 79/79/79 78/78/78 77/77/77
f 80/80/80 77/77/77 78/78/78
f 83/83/83 82/82/82 81/81/81
f 84/84/84 81/81/81 82/82/82
f 87/87/87 86/86/86 85/85/85
f 88/88/88 85/85/85 86/86/86
