g Area_Common_Build_ShortWall_K_01_Col
v -0.6135534 -0.1105022 2.884182
v 0.05319054 -0.337587 -3.038128
v -0.5784166 -0.2435591 -2.874544
v 0.05319059 -0.2045301 3.092964
v 0.05319059 1.573097 3.361686
v -0.595985 1.601222 3.152904
v 0.05319054 2.518884 -0.07275642
v -0.5784166 2.481106 -2.874544
v 0.05319054 2.518884 -3.038128
v -0.5784166 2.481106 -1.557923
v 0.05319054 2.518884 -1.637107
v 0.05319054 2.500812 -0.7587033
v -0.5784166 2.481106 -0.08781158
v 0.05319057 2.518884 3.26117
v -0.5784166 2.481106 3.052389
v -0.5784166 2.408838 -0.7324359
v -0.6547397 2.2694 -0.1444597
v -0.2999156 2.2694 -0.8449491
v -0.6547397 2.2694 -0.8449492
v -0.2999156 2.2694 -0.1444597
v -0.2999156 2.572076 -0.1444594
v -0.6547397 2.572076 -0.1444597
v -0.2999156 2.572076 -0.8449492
v -0.6547397 2.572076 -0.8449492
v -0.6475073 0.5945692 3.568599
v -0.2290702 0.5945697 2.904655
v -0.6475071 0.5945697 2.904655
v -0.2290702 0.5945692 3.568599
v -0.2290702 1.060358 3.5686
v -0.6475073 1.060358 3.568599
v -0.2290702 1.060359 2.904655
v -0.6475071 1.060359 2.904655
v -0.7016246 0.1933976 3.144204
v -0.2831875 0.1933983 2.749973
v -0.7016246 0.1933983 2.749973
v -0.2831874 0.1933976 3.144204
v -0.2831874 0.5671975 3.144204
v -0.7016246 0.5671975 3.144204
v -0.2831875 0.5671984 2.749973
v -0.7016246 0.5671984 2.749973
v -0.6758848 0.6126804 -1.919941
v -0.2574476 0.6126808 -2.939497
v -0.6758845 0.6126808 -2.939497
v -0.2574476 0.6126804 -1.919941
v -0.2574476 1.078469 -1.919941
v -0.6758848 1.078469 -1.919941
v -0.2574476 1.07847 -2.939496
v -0.6758845 1.07847 -2.939496
v -0.6157997 -0.1662973 -2.821891
v -0.01799353 -0.166297 -3.272366
v -0.6157995 -0.166297 -3.272366
v -0.01799349 -0.1662973 -2.821891
v -0.01799349 0.2409636 -2.821891
v -0.6157997 0.2409636 -2.821891
v -0.01799353 0.2409643 -3.272365
v -0.6157995 0.2409643 -3.272365
v -0.6478695 1.808109 -2.569887
v -0.2574477 1.808109 -2.958006
v -0.6478694 1.808109 -2.958006
v -0.2574476 1.808109 -2.569887
v -0.2574476 2.378654 -2.569887
v -0.6478696 2.378654 -2.569887
v -0.2574477 2.378655 -2.958005
v -0.6478694 2.378655 -2.958005
vn -0.6986772 -0.5677853 0.4352814
vn 0.4713782 -0.6117869 -0.6352317
vn -0.6772065 -0.547305 -0.4917811
vn 0.4709074 -0.634526 0.6128811
vn 0.5576988 -0.01805742 0.8298469
vn -0.7858164 -0.0003418247 0.6184596
vn 0.6827548 0.7305862 -0.009472218
vn -0.6550744 0.5711559 -0.4946296
vn 0.4920806 0.5817025 -0.6476719
vn -0.716432 0.69688 0.03291573
vn 0.6784608 0.7343645 0.0199909
vn 0.6674325 0.7444665 -0.01742209
vn -0.719103 0.6944809 -0.02423024
vn 0.4806726 0.6082122 0.6316895
vn -0.6642607 0.6043617 0.4398917
vn -0.7701184 0.6374564 -0.02381306
vn -0.5773503 -0.5773504 0.57735
vn 0.5773503 -0.5773502 -0.5773503
vn -0.5773501 -0.5773501 -0.5773505
vn 0.5773503 -0.5773507 0.5773498
vn 0.5773501 0.57735 0.5773507
vn -0.5773504 0.5773503 0.57735
vn 0.5773502 0.5773502 -0.5773503
vn -0.5773502 0.5773503 -0.5773503
vn -0.5773504 -0.5773506 0.5773499
vn 0.5773503 -0.5773498 -0.5773507
vn -0.5773502 -0.5773499 -0.5773507
vn 0.5773503 -0.5773507 0.5773498
vn 0.5773502 0.5773498 0.5773509
vn -0.5773506 0.5773499 0.5773503
vn 0.5773502 0.5773509 -0.5773498
vn -0.5773501 0.5773509 -0.5773498
vn -0.5773503 -0.5773509 0.5773498
vn 0.5773503 -0.5773495 -0.577351
vn -0.5773503 -0.5773495 -0.577351
vn 0.5773502 -0.577351 0.5773495
vn 0.5773503 0.5773493 0.5773512
vn -0.5773506 0.5773496 0.5773507
vn 0.5773501 0.5773512 -0.5773494
vn -0.5773501 0.5773512 -0.5773494
vn -0.5773503 -0.5773506 0.57735
vn 0.5773502 -0.57735 -0.5773506
vn -0.5773502 -0.57735 -0.5773507
vn 0.5773503 -0.5773506 0.57735
vn 0.5773501 0.5773499 0.5773509
vn -0.5773505 0.5773501 0.5773502
vn 0.5773503 0.5773507 -0.5773497
vn -0.5773501 0.5773507 -0.5773499
vn -0.5773503 -0.5773504 0.57735
vn 0.5773502 -0.5773497 -0.5773509
vn -0.5773501 -0.5773497 -0.577351
vn 0.5773503 -0.5773505 0.5773501
vn 0.5773504 0.5773497 0.5773507
vn -0.5773504 0.5773498 0.5773506
vn 0.5773503 0.5773512 -0.5773494
vn -0.5773502 0.5773512 -0.5773494
vn -0.5773504 -0.5773505 0.57735
vn 0.5773501 -0.5773497 -0.577351
vn -0.5773501 -0.5773498 -0.5773509
vn 0.5773503 -0.5773505 0.57735
vn 0.5773504 0.5773497 0.5773507
vn -0.5773505 0.5773496 0.5773507
vn 0.5773501 0.5773512 -0.5773494
vn -0.57735 0.5773512 -0.5773496
g Area_Common_Build_ShortWall_K_01_Col_0
f 3/3/3 2/2/2 1/1/1
f 4/4/4 1/1/1 2/2/2
f 4/4/4 5/5/5 1/1/1
f 6/6/6 1/1/1 5/5/5
f 7/7/7 5/5/5 4/4/4
f 3/3/3 8/8/8 2/2/2
f 9/9/9 2/2/2 8/8/8
f 10/10/10 8/8/8 3/3/3
f 8/8/8 10/10/10 9/9/9
f 11/11/11 9/9/9 10/10/10
f 9/9/9 11/11/11 2/2/2
f 11/11/11 12/12/12 2/2/2
f 4/4/4 2/2/2 12/12/12
f 12/12/12 7/7/7 4/4/4
f 7/7/7 12/12/12 13/13/13
f 6/6/6 13/13/13 1/1/1
f 7/7/7 13/13/13 14/14/14
f 14/14/14 5/5/5 7/7/7
f 15/15/15 14/14/14 13/13/13
f 14/14/14 15/15/15 5/5/5
f 6/6/6 5/5/5 15/15/15
f 15/15/15 13/13/13 6/6/6
f 16/16/16 13/13/13 12/12/12
f 11/11/11 16/16/16 12/12/12
f 13/13/13 16/16/16 1/1/1
f 1/1/1 16/16/16 3/3/3
f 16/16/16 10/10/10 3/3/3
f 10/10/10 16/16/16 11/11/11
f 19/19/19 18/18/18 17/17/17
f 20/20/20 17/17/17 18/18/18
f 20/20/20 21/21/21 17/17/17
f 22/22/22 17/17/17 21/21/21
f 17/17/17 22/22/22 19/19/19
f 21/21/21 23/23/23 22/22/22
f 18/18/18 23/23/23 20/20/20
f 21/21/21 20/20/20 23/23/23
f 24/24/24 22/22/22 23/23/23
f 19/19/19 24/24/24 18/18/18
f 23/23/23 18/18/18 24/24/24
f 24/24/24 19/19/19 22/22/22
f 27/27/27 26/26/26 25/25/25
f 28/28/28 25/25/25 26/26/26
f 28/28/28 29/29/29 25/25/25
f 30/30/30 25/25/25 29/29/29
f 25/25/25 30/30/30 27/27/27
f 29/29/29 31/31/31 30/30/30
f 26/26/26 31/31/31 28/28/28
f 29/29/29 28/28/28 31/31/31
f 32/32/32 30/30/30 31/31/31
f 27/27/27 32/32/32 26/26/26
f 31/31/31 26/26/26 32/32/32
f 32/32/32 27/27/27 30/30/30
f 35/35/35 34/34/34 33/33/33
f 36/36/36 33/33/33 34/34/34
f 36/36/36 37/37/37 33/33/33
f 38/38/38 33/33/33 37/37/37
f 33/33/33 38/38/38 35/35/35
f 37/37/37 39/39/39 38/38/38
f 34/34/34 39/39/39 36/36/36
f 37/37/37 36/36/36 39/39/39
f 40/40/40 38/38/38 39/39/39
f 35/35/35 40/40/40 34/34/34
f 39/39/39 34/34/34 40/40/40
f 40/40/40 35/35/35 38/38/38
f 43/43/43 42/42/42 41/41/41
f 44/44/44 41/41/41 42/42/42
f 44/44/44 45/45/45 41/41/41
f 46/46/46 41/41/41 45/45/45
f 41/41/41 46/46/46 43/43/43
f 45/45/45 47/47/47 46/46/46
f 42/42/42 47/47/47 44/44/44
f 45/45/45 44/44/44 47/47/47
f 48/48/48 46/46/46 47/47/47
f 43/43/43 48/48/48 42/42/42
f 47/47/47 42/42/42 48/48/48
f 48/48/48 43/43/43 46/46/46
f 51/51/51 50/50/50 49/49/49
f 52/52/52 49/49/49 50/50/50
f 52/52/52 53/53/53 49/49/49
f 54/54/54 49/49/49 53/53/53
f 49/49/49 54/54/54 51/51/51
f 53/53/53 55/55/55 54/54/54
f 50/50/50 55/55/55 52/52/52
f 53/53/53 52/52/52 55/55/55
f 56/56/56 54/54/54 55/55/55
f 51/51/51 56/56/56 50/50/50
f 55/55/55 50/50/50 56/56/56
f 56/56/56 51/51/51 54/54/54
f 59/59/59 58/58/58 57/57/57
f 60/60/60 57/57/57 58/58/58
f 60/60/60 61/61/61 57/57/57
f 62/62/62 57/57/57 61/61/61
f 57/57/57 62/62/62 59/59/59
f 61/61/61 63/63/63 62/62/62
f 58/58/58 63/63/63 60/60/60
f 61/61/61 60/60/60 63/63/63
f 64/64/64 62/62/62 63/63/63
f 59/59/59 64/64/64 58/58/58
f 63/63/63 58/58/58 64/64/64
f 64/64/64 59/59/59 62/62/62
