g Area_Common_Build_Hili_House_16_Col
v 0 -0.09178284 1.091919
v -1.045987 1.427666 0.2066832
v 0 1.427666 1.091919
v -1.045987 -0.09178284 0.2066832
v -1.045987 -0.09178284 -0.2066832
v -1.045987 1.427666 -0.2066833
v 1.045987 -0.09178284 0.2066832
v 1.045987 1.427666 0.2066832
v 1.045987 1.427666 -0.2066833
v 1.045987 -0.09178284 -0.2066832
v 0 -0.09178284 -1.091919
v 0 1.427666 -1.091919
v 0 1.427666 0.8916115
v -0.8930875 1.427666 0.1357772
v 0.8930875 1.427666 0.1357772
v 0.8930875 1.427666 -0.1357772
v 0 1.427666 -0.8916115
v -0.8930875 1.427666 -0.1357772
v -0.8930875 -0.09178284 -0.1357772
v -0.8930875 -0.09178284 0.1357772
v 0 -0.09178284 -0.8916115
v 0.8930875 -0.09178284 -0.1357772
v 0.8930875 -0.09178284 0.1357772
v 0 -0.09178284 0.8916115
vn 0 -0.5865908 0.8098834
vn -0.7092376 0.6235423 0.3289029
vn 0 0.5865906 0.8098836
vn -0.7092375 -0.6235423 0.3289029
vn -0.7092376 -0.6235422 -0.3289029
vn -0.7092376 0.6235422 -0.3289029
vn 0.7092376 -0.6235422 0.3289029
vn 0.7092376 0.6235424 0.3289029
vn 0.7092376 0.6235422 -0.328903
vn 0.7092376 -0.6235424 -0.3289029
vn 0 -0.5865908 -0.8098834
vn 0 0.586591 -0.8098834
vn 0 0.8844953 -0.4665491
vn 0.5255542 0.8151029 -0.2437213
vn -0.5255542 0.8151028 -0.2437213
vn -0.5255542 0.8151028 0.2437214
vn 0 0.8844953 0.4665491
vn 0.5255542 0.8151028 0.2437214
vn 0.5255542 -0.8151028 0.2437213
vn 0.5255542 -0.8151029 -0.2437213
vn 0 -0.8844953 0.4665491
vn -0.5255542 -0.8151028 0.2437213
vn -0.5255542 -0.8151028 -0.2437213
vn 0 -0.8844953 -0.4665491
g Area_Common_Build_Hili_House_16_Col_0
f 3/3/3 2/2/2 1/1/1
f 4/4/4 1/1/1 2/2/2
f 4/4/4 2/2/2 5/5/5
f 6/6/6 5/5/5 2/2/2
f 1/1/1 7/7/7 3/3/3
f 8/8/8 3/3/3 7/7/7
f 8/8/8 7/7/7 9/9/9
f 10/10/10 9/9/9 7/7/7
f 10/10/10 11/11/11 9/9/9
f 12/12/12 9/9/9 11/11/11
f 6/6/6 12/12/12 5/5/5
f 11/11/11 5/5/5 12/12/12
f 3/3/3 13/13/13 2/2/2
f 14/14/14 2/2/2 13/13/13
f 2/2/2 14/14/14 6/6/6
f 8/8/8 15/15/15 3/3/3
f 13/13/13 3/3/3 15/15/15
f 9/9/9 16/16/16 8/8/8
f 15/15/15 8/8/8 16/16/16
f 12/12/12 17/17/17 9/9/9
f 16/16/16 9/9/9 17/17/17
f 6/6/6 18/18/18 12/12/12
f 17/17/17 12/12/12 18/18/18
f 18/18/18 6/6/6 14/14/14
f 5/5/5 19/19/19 4/4/4
f 18/18/18 14/14/14 19/19/19
f 18/18/18 19/19/19 17/17/17
f 20/20/20 4/4/4 19/19/19
f 20/20/20 19/19/19 14/14/14
f 14/14/14 13/13/13 20/20/20
f 11/11/11 21/21/21 5/5/5
f 21/21/21 17/17/17 19/19/19
f 19/19/19 5/5/5 21/21/21
f 10/10/10 22/22/22 11/11/11
f 21/21/21 11/11/11 22/22/22
f 16/16/16 17/17/17 22/22/22
f 21/21/21 22/22/22 17/17/17
f 22/22/22 10/10/10 23/23/23
f 15/15/15 16/16/16 23/23/23
f 22/22/22 23/23/23 16/16/16
f 7/7/7 23/23/23 10/10/10
f 23/23/23 7/7/7 24/24/24
f 24/24/24 20/20/20 13/13/13
f 13/13/13 15/15/15 24/24/24
f 23/23/23 24/24/24 15/15/15
f 1/1/1 24/24/24 7/7/7
f 24/24/24 1/1/1 20/20/20
f 4/4/4 20/20/20 1/1/1
