g Area_Ly_Build_Common_OutdoorsHouse_04_B_Col
v -7.783982 3.090987 6.760507
v -7.752392 2.889539 6.576994
v -7.654767 3.41935 5.771305
v -7.696499 3.613437 5.962786
v -7.271043 3.625464 6.021226
v -7.555058 5.075234 4.468655
v -7.135998 5.154539 4.415161
v -7.542876 4.894819 4.391885
v -7.489745 4.458235 4.066683
v -7.61075 2.808249 5.939605
v -7.689962 5.736614 3.479224
v -7.611978 5.541451 3.190029
v -7.740032 6.603423 2.975882
v -7.314495 6.456727 3.094934
v -7.079779 4.900457 4.376668
v -6.956792 6.986378 2.816881
v -7.532393 7.17345 2.610476
v -6.569888 7.844304 2.420868
v -3.090064 7.355558 3.085744
v -5.281493 8.247596 2.330468
v -5.132277 8.445302 2.106912
v -7.155135 8.731565 1.326871
v -2.431192 7.712798 3.13631
v -2.700742 7.459828 3.318775
v -1.463954 7.002911 3.904961
v -2.648939 9.331488 1.301062
v -2.563898 8.606465 2.216133
v -7.856952 7.491075 2.262182
v -7.86308 7.30511 2.021983
v -8.654898 7.216586 2.054661
v -8.672751 7.428111 2.325438
v -7.738752 6.632371 2.590087
v -2.67136 6.492615 3.813658
v -2.717285 6.36607 3.667435
v -6.955611 6.386077 3.362747
v -2.2737 5.927726 4.357963
v -1.86271 5.629801 4.62577
v -2.315949 5.765836 4.291031
v -1.904959 5.467911 4.558821
v -6.944018 6.283802 3.256997
v -6.726259 5.094491 3.977874
v -2.480399 4.738276 5.392508
v -1.717368 5.05037 5.169429
v -1.658719 3.903301 6.154372
v 0.07062401 4.419904 6.315711
v 0.2142266 3.619519 6.042676
v 0.03805035 3.606215 7.430673
v 0.07340074 3.369097 7.297331
v 7.676403 4.474397 7.057851
v -1.671981 3.398186 5.999813
v -6.07381 3.116426 6.62472
v -6.0464 3.000897 6.592076
v -7.590951 2.669395 5.925352
v -7.336176 2.901569 6.635436
v -7.367764 3.103014 6.818948
v -7.23855 3.431377 5.829744
v 1.043127 3.415887 6.819917
v 6.496129 4.101524 6.831313
v 6.362833 4.462608 5.850358
v 7.413382 5.589777 5.291842
v 6.011703 4.852201 4.892329
v 7.118884 6.703306 4.337232
v 7.315563 7.015682 4.689776
v 7.487874 5.945175 5.635137
v 7.549376 5.292565 6.469104
v 5.734813 6.605415 3.336915
v 6.884917 7.975902 3.538766
v 3.400114 5.425124 5.568862
v 3.543682 4.805429 6.417723
v 3.669281 4.286151 7.423596
v 7.681096 4.809387 7.429814
v 3.196634 6.401087 4.649653
v 3.01626 7.502126 3.867678
v 6.97724 8.23455 3.946788
v 6.741638 9.270249 2.926042
v 6.967809 9.541669 3.319657
v 5.942117 9.893894 2.914053
v 6.014523 9.56496 2.938529
v 2.877411 8.684499 3.232081
v 2.745146 9.521253 2.599036
v 5.541247 10.32396 2.288689
v 5.501935 8.59815 2.339923
v 5.407125 10.50495 1.091066
v 5.678416 10.59786 2.321087
v 5.087117 10.98872 1.786549
v 6.541271 11.18264 1.287159
v 6.760672 9.62093 -0.7501603
v 5.486328 8.991389 -0.2683184
v 5.641659 7.817392 -1.125196
v 6.867476 8.465063 -1.568143
v 6.675611 11.01146 -0.01304669
v 6.595597 11.54032 0.8308945
v 5.980895 11.79727 1.408039
v 6.814364 9.995589 -1.123096
v 2.597557 10.16084 -0.05500385
v 2.877411 9.154401 -1.210673
v 6.980355 8.8461 -2.016334
v 3.016258 8.12946 -2.072251
v 7.216251 7.79202 -2.999516
v 7.118881 7.376258 -2.646553
v 7.457099 6.5243 -3.854281
v 7.553452 6.943833 -4.105997
v 7.7494 5.770948 -5.713824
v 7.853574 6.133564 -6.056798
v 4.239929 5.686666 -6.11499
v 4.587146 5.021072 -5.774741
v 6.345124 5.564925 -4.617605
v 3.652682 5.096706 -5.786792
v 3.39194 5.684484 -5.814892
v 5.939042 5.740403 -3.4016
v 3.627713 6.959922 -3.675433
v 2.95699 6.193434 -4.630317
v 3.038619 7.336269 -2.96939
v 3.019754 7.463183 -3.167935
v 3.142731 7.232776 -3.399138
v 2.522297 6.845741 -3.470089
v 2.31287 6.911246 -3.57572
v 2.175634 7.139134 -3.293854
v 2.597494 6.505033 -3.87589
v 2.453993 5.999117 -4.342368
v 2.442671 6.520965 -3.440757
v 0.3846399 6.164152 -3.841804
v 0.2633598 6.405032 -3.579109
v -1.456945 6.361295 -3.098916
v -1.496211 5.615939 -5.198724
v -2.14667 5.428544 -4.11862
v 0.9123991 5.254015 -6.2707
v -1.20243 5.127457 -5.906894
v -1.164799 4.673851 -5.83795
v 0.935756 5.001338 -6.16647
v -1.754616 4.656581 -5.986554
v -1.734709 4.411782 -5.860819
v -2.219357 4.628725 -5.967201
v -2.19945 4.383927 -5.841469
v -3.252664 4.665308 -5.878931
v -3.246029 4.48714 -5.808583
v -6.895012 3.877442 -5.073203
v -7.117589 4.426567 -5.624403
v -7.6969 4.391048 -5.487035
v -7.590953 3.791751 -5.05974
v -7.784991 5.391747 -2.848671
v -7.783496 5.524513 -2.960625
v -6.818819 5.762993 -3.235174
v -2.650179 5.013644 -5.551155
v -8.020157 6.805677 -1.969878
v -6.430022 7.557969 -1.372149
v -9.115175 7.481094 -1.271978
v -3.433636 5.590374 -3.644493
v -7.746399 6.82905 -1.18959
v -9.068219 7.109784 -1.623508
v -8.876392 6.64897 -1.730739
v -8.873957 6.569387 -1.451018
v -2.452301 8.061473 -1.320706
v -6.541745 8.354049 -0.2828383
v -2.563898 8.856545 -0.2314976
v -6.638743 8.891422 0.7722758
v -2.626314 9.387697 0.8183203
v -9.244277 8.130477 -0.3056812
v -9.087253 7.706766 -0.07317062
v -8.93148 6.986449 -1.08692
v -9.346548 8.659846 0.7464524
v 0.2499163 8.57138 -1.268609
v 2.424407 10.53589 0.8129969
v -9.121157 8.149177 0.8323793
v -7.988602 7.953355 0.9896752
v -7.886092 7.754372 -0.01667314
v 3.414671 10.99435 1.138474
v 4.852968 11.4586 1.305879
v 3.14233 10.76818 1.560034
v -9.06119 7.52886 1.724601
v -9.138331 8.317509 1.27243
v -9.061492 7.753085 2.007817
v -8.813479 7.203067 2.062185
v -8.983291 7.0453 2.283382
v -9.00483 7.255487 2.447926
v -8.609019 6.857879 2.481113
v -8.746367 7.107021 2.60144
v -8.641481 7.158005 2.565898
v -8.713386 7.789279 2.00425
v -0.896363 8.733619 0.9812987
v 3.083958 5.257973 -5.920853
v 2.694295 5.793575 -4.973392
v 0.453531 3.874809 7.302888
v 0.2822348 6.311659 -3.475683
v 2.274564 7.214605 -2.919574
v 0.8308012 7.491307 -2.394786
vn -0.6791356 0.08489029 0.7290874
vn -0.6897517 -0.6594276 0.2989947
vn -0.9831815 -0.08836054 -0.1598327
vn -0.8073518 0.4963047 0.3191625
vn 0.6513455 0.5572082 0.5150418
vn -0.633417 0.7620251 -0.1345385
vn 0.4575118 0.8486295 -0.2655384
vn -0.9573073 0.252266 -0.1411547
vn -0.5731282 -0.5964669 -0.5619175
vn -0.8579939 -0.1702562 -0.4846228
vn -0.8795433 0.249367 0.4052403
vn -0.6077374 -0.4943441 -0.6215135
vn -0.7475471 0.2915529 0.5968
vn -0.103528 0.5333592 0.8395296
vn 0.3686301 0.800894 0.4718904
vn -0.14861 0.5397987 0.8285725
vn -0.2061228 0.5636881 0.7998556
vn -0.1707651 0.5975462 0.7834398
vn -0.3454891 0.1285172 0.9295808
vn -0.1328076 0.6760893 0.7247519
vn -0.1026781 0.7804181 0.6167697
vn -0.139128 0.8712896 0.4706356
vn -0.1108959 0.6744025 0.7299886
vn -0.2981681 0.4639813 0.8341565
vn -0.1449799 0.5487741 0.8233029
vn -0.1585747 0.9116002 0.3792615
vn -0.1174748 0.7358346 0.6668935
vn -0.3964955 0.2986911 0.8680871
vn -0.1948046 -0.9223033 -0.3337782
vn 0.3190249 -0.8920543 -0.3200972
vn 0.3097036 0.4066268 0.8594989
vn -0.686648 -0.4774749 -0.5482083
vn -0.7473472 0.2128754 0.6294094
vn -0.5645634 0.3581153 0.7436543
vn -0.7412113 0.3222629 0.5888569
vn -0.5600184 0.2175711 0.7994012
vn -0.4528752 0.3371529 0.8253677
vn -0.4524773 0.3358188 0.8261296
vn -0.5791113 0.3824351 0.7199816
vn -0.7226297 0.3617179 0.5890386
vn 0.09231446 0.7300225 0.6771597
vn -0.09688171 0.702298 0.7052598
vn -0.1620165 0.7024382 0.6930593
vn -0.04839396 0.1890227 0.9807795
vn -0.3537074 0.5722664 0.7398664
vn -0.2232706 -0.9275018 -0.2998176
vn -0.6638603 0.03374788 0.7470948
vn -0.5600386 -0.7557789 0.3393449
vn 0.7356356 -0.6659106 0.12411
vn 0.175767 -0.9629593 0.2044878
vn -0.005171442 0.3756461 0.9267488
vn 0.1279278 -0.702801 0.6997894
vn -0.5132365 -0.7647927 -0.3894617
vn 0.349918 -0.6218662 0.7005996
vn 0.4469415 0.118111 0.8867316
vn 0.5890055 0.5986835 0.5428172
vn 0.1003603 -0.9910045 -0.08853209
vn 0.2010327 -0.9649093 0.1689255
vn 0.2581274 -0.8414773 -0.4746433
vn 0.8015214 -0.3797267 -0.4619209
vn 0.09282464 -0.8401781 -0.5343073
vn 0.742032 -0.3022559 -0.5983559
vn 0.8141499 0.4551595 0.3605408
vn 0.7510887 0.5251988 0.40004
vn 0.6761203 0.6630795 0.3212273
vn 0.3219308 -0.5163607 -0.7935567
vn 0.8038161 -0.1722601 -0.569391
vn -0.1071955 0.7357183 0.6687508
vn -0.1138481 0.8357918 0.5371132
vn -0.01616735 0.2552326 0.9667445
vn 0.5864759 0.1731873 0.7912347
vn -0.09705895 0.6122693 0.7846693
vn -0.08323248 0.5161321 0.8524553
vn 0.7280458 0.4316479 0.5325686
vn 0.6292121 0.1286686 -0.7665093
vn 0.7430648 0.6273432 0.2330136
vn 0.5355983 0.798534 0.2747326
vn 0.3783982 0.1133206 -0.9186801
vn -0.1193595 0.5348818 0.8364537
vn -0.1687448 0.6249185 0.7622349
vn 0.90246 -0.207134 -0.3777054
vn 0.4424251 -0.3084531 -0.8420907
vn 0.6311306 -0.6970837 0.3402184
vn 0.7701316 0.534521 0.3481158
vn 0.1179849 0.6463599 0.7538557
vn 0.7350549 -0.1324321 0.6649481
vn 0.8487773 -0.2858233 0.4448393
vn 0.3488699 -0.5668808 0.7462814
vn 0.3242835 -0.6104206 0.7226526
vn 0.8014398 -0.3042687 0.514893
vn 0.6456085 0.6417545 -0.4139334
vn 0.659072 0.7371747 -0.1489881
vn 0.1476291 0.9063649 0.3958642
vn 0.6716493 0.5538361 -0.4920901
vn -0.1820289 0.8080453 -0.560293
vn -0.128971 0.679719 -0.7220448
vn 0.7384546 0.5209535 -0.4281264
vn -0.1286213 0.6959602 -0.7064673
vn 0.754692 0.5691664 -0.3263277
vn 0.7901734 -0.357447 0.4978532
vn 0.7935064 -0.4594122 0.3991091
vn 0.7792443 0.6067018 -0.1571343
vn 0.6696593 -0.725912 -0.1568702
vn 0.658237 0.182253 -0.7304162
vn -0.1126087 0.2716937 -0.9557728
vn 0.04304733 -0.9427412 -0.3307358
vn 0.2194632 -0.9346054 0.2799082
vn -0.05841839 -0.9075304 -0.4159037
vn -0.303834 0.5323434 -0.7901236
vn 0.08163609 -0.9304417 0.3572308
vn -0.1319949 0.8014351 -0.5833346
vn -0.4047457 0.7788202 -0.4791869
vn -0.1253438 0.944683 -0.3030892
vn 0.133635 0.9910043 -0.007217765
vn -0.08455934 0.6145248 -0.7843526
vn 0.01376317 0.06635569 -0.9977011
vn 0.07610339 0.2731998 -0.9589421
vn -0.2733783 0.8838813 -0.3794973
vn -0.5803251 0.6593366 -0.4780147
vn -0.2832285 0.8490801 -0.4459198
vn -0.361285 0.350603 -0.8640317
vn -0.08192953 0.8381655 -0.5392272
vn -0.2129644 0.9690117 -0.1251501
vn -0.1463286 0.7865245 -0.5999726
vn -0.4237528 0.7917833 -0.4399009
vn -0.2951291 0.8609783 -0.4142645
vn 0.003902619 0.3675212 -0.930007
vn -0.2035029 0.4258292 -0.8816213
vn 0.2485715 -0.8749967 -0.4154432
vn 0.06126165 -0.6797653 -0.7308667
vn -0.09848587 0.1429893 -0.984812
vn 0.2133178 -0.938374 -0.2719367
vn -0.002989254 0.2635055 -0.9646532
vn 0.05341789 -0.9522191 -0.3007077
vn -0.1420161 0.3311698 -0.9328226
vn -0.08861572 -0.4468292 -0.8902196
vn 0.0800419 -0.9913352 -0.1041526
vn -0.1887762 0.1397361 -0.9720274
vn -0.658387 0.1554718 -0.7364476
vn -0.4655874 -0.8753521 -0.1303338
vn -0.6820639 -0.6351727 0.3624148
vn -0.8532564 0.2751711 -0.4429834
vn -0.1726884 0.7873627 -0.5918097
vn 0.03954289 0.8785945 -0.4759288
vn -0.6017486 0.151889 -0.78411
vn -0.07123758 0.7581074 -0.6482272
vn -0.7898352 0.4098129 -0.4563044
vn -0.05874683 0.8369524 -0.5441135
vn -0.08167814 -0.8283984 0.5541523
vn -0.7884738 0.210097 -0.5780728
vn -0.4498154 -0.6255895 -0.6374196
vn -0.4133335 -0.8921833 0.1821108
vn -0.105015 0.7467341 -0.6567801
vn -0.08276854 0.845098 -0.5281654
vn -0.1368988 0.8353399 -0.5324152
vn -0.1080306 0.9824235 -0.1522282
vn -0.1715358 0.9684439 -0.1808089
vn -0.8142448 0.4613529 -0.3523619
vn -0.6311452 -0.7055691 0.3222235
vn -0.610764 -0.6280291 0.482231
vn -0.7951908 0.6021927 0.07096102
vn -0.1347138 0.7142472 -0.6868064
vn -0.2584324 0.9328771 -0.2509043
vn -0.7555843 -0.6532768 0.04818455
vn 0.02047909 -0.9815491 -0.1901104
vn 0.03372204 -0.9051154 0.4238264
vn -0.3285646 0.9402928 -0.08885211
vn -0.2551942 0.9590802 0.1226424
vn -0.2862815 0.8300505 0.4786012
vn -0.7483959 -0.5559587 -0.3616818
vn -0.7667152 0.4381099 0.4692627
vn -0.7156171 0.4639507 0.5221512
vn -0.06150906 -0.7780088 -0.6252351
vn -0.6870883 -0.7183134 -0.1092505
vn -0.7263401 0.157502 0.6690466
vn 0.4571077 -0.8529695 0.2519835
vn -0.2113733 -0.05670249 0.9757592
vn 0.6501482 0.3288275 0.684967
vn -0.07188441 0.7004561 0.7100661
vn 0.1144381 -0.9861265 -0.120244
vn 0.01357933 0.2165231 -0.9761831
vn -0.2608937 0.8490799 -0.459345
vn -0.1730197 0.7217919 0.6701348
vn -0.1591605 0.9855042 0.05872995
vn -0.189251 0.8675466 -0.4599423
vn -0.1135407 0.6970502 -0.7079757
g Area_Ly_Build_Common_OutdoorsHouse_04_B_Col_0
f 3/3/3 2/2/2 1/1/1
f 1/1/1 4/4/4 3/3/3
f 4/4/4 1/1/1 5/5/5
f 4/4/4 5/5/5 6/6/6
f 7/7/7 6/6/6 5/5/5
f 6/6/6 7/7/7 8/8/8
f 8/8/8 4/4/4 6/6/6
f 4/4/4 8/8/8 3/3/3
f 8/8/8 9/9/9 3/3/3
f 3/3/3 9/9/9 10/10/10
f 10/10/10 2/2/2 3/3/3
f 8/8/8 11/11/11 9/9/9
f 12/12/12 9/9/9 11/11/11
f 11/11/11 13/13/13 12/12/12
f 11/11/11 14/14/14 13/13/13
f 15/15/15 14/14/14 11/11/11
f 15/15/15 8/8/8 7/7/7
f 8/8/8 15/15/15 11/11/11
f 16/16/16 13/13/13 14/14/14
f 16/16/16 17/17/17 13/13/13
f 16/16/16 18/18/18 17/17/17
f 16/16/16 19/19/19 18/18/18
f 19/19/19 20/20/20 18/18/18
f 20/20/20 21/21/21 18/18/18
f 22/22/22 18/18/18 21/21/21
f 21/21/21 20/20/20 23/23/23
f 24/24/24 23/23/23 20/20/20
f 24/24/24 20/20/20 19/19/19
f 23/23/23 24/24/24 25/25/25
f 26/26/26 22/22/22 21/21/21
f 26/26/26 21/21/21 27/27/27
f 27/27/27 21/21/21 23/23/23
f 18/18/18 22/22/22 28/28/28
f 28/28/28 17/17/17 18/18/18
f 28/28/28 13/13/13 17/17/17
f 13/13/13 28/28/28 29/29/29
f 29/29/29 28/28/28 30/30/30
f 31/31/31 30/30/30 28/28/28
f 29/29/29 32/32/32 13/13/13
f 32/32/32 12/12/12 13/13/13
f 24/24/24 33/33/33 25/25/25
f 34/34/34 33/33/33 24/24/24
f 24/24/24 19/19/19 34/34/34
f 34/34/34 19/19/19 35/35/35
f 16/16/16 35/35/35 19/19/19
f 33/33/33 36/36/36 25/25/25
f 33/33/33 34/34/34 36/36/36
f 37/37/37 25/25/25 36/36/36
f 38/38/38 36/36/36 34/34/34
f 36/36/36 38/38/38 37/37/37
f 39/39/39 37/37/37 38/38/38
f 35/35/35 16/16/16 40/40/40
f 14/14/14 40/40/40 16/16/16
f 15/15/15 40/40/40 14/14/14
f 39/39/39 38/38/38 15/15/15
f 41/41/41 40/40/40 15/15/15
f 35/35/35 40/40/40 41/41/41
f 41/41/41 34/34/34 35/35/35
f 41/41/41 15/15/15 38/38/38
f 38/38/38 34/34/34 41/41/41
f 39/39/39 15/15/15 42/42/42
f 39/39/39 42/42/42 43/43/43
f 37/37/37 39/39/39 43/43/43
f 42/42/42 44/44/44 43/43/43
f 45/45/45 43/43/43 44/44/44
f 45/45/45 44/44/44 46/46/46
f 45/45/45 46/46/46 47/47/47
f 48/48/48 47/47/47 46/46/46
f 49/49/49 47/47/47 48/48/48
f 50/50/50 46/46/46 44/44/44
f 44/44/44 51/51/51 50/50/50
f 52/52/52 50/50/50 51/51/51
f 50/50/50 52/52/52 53/53/53
f 52/52/52 54/54/54 53/53/53
f 52/52/52 51/51/51 54/54/54
f 53/53/53 54/54/54 2/2/2
f 54/54/54 55/55/55 2/2/2
f 1/1/1 2/2/2 55/55/55
f 55/55/55 5/5/5 1/1/1
f 55/55/55 54/54/54 5/5/5
f 56/56/56 5/5/5 54/54/54
f 56/56/56 51/51/51 44/44/44
f 54/54/54 51/51/51 56/56/56
f 5/5/5 56/56/56 7/7/7
f 15/15/15 7/7/7 56/56/56
f 15/15/15 56/56/56 42/42/42
f 42/42/42 56/56/56 44/44/44
f 48/48/48 57/57/57 49/49/49
f 46/46/46 57/57/57 48/48/48
f 46/46/46 58/58/58 57/57/57
f 58/58/58 49/49/49 57/57/57
f 59/59/59 49/49/49 58/58/58
f 46/46/46 59/59/59 58/58/58
f 49/49/49 59/59/59 60/60/60
f 61/61/61 60/60/60 59/59/59
f 60/60/60 61/61/61 62/62/62
f 62/62/62 63/63/63 60/60/60
f 64/64/64 60/60/60 63/63/63
f 65/65/65 60/60/60 64/64/64
f 49/49/49 60/60/60 65/65/65
f 66/66/66 62/62/62 61/61/61
f 66/66/66 67/67/67 62/62/62
f 62/62/62 67/67/67 63/63/63
f 63/63/63 68/68/68 64/64/64
f 65/65/65 64/64/64 69/69/69
f 68/68/68 69/69/69 64/64/64
f 69/69/69 70/70/70 65/65/65
f 71/71/71 65/65/65 70/70/70
f 71/71/71 70/70/70 49/49/49
f 71/71/71 49/49/49 65/65/65
f 69/69/69 68/68/68 45/45/45
f 43/43/43 45/45/45 68/68/68
f 68/68/68 72/72/72 43/43/43
f 72/72/72 68/68/68 63/63/63
f 37/37/37 43/43/43 72/72/72
f 37/37/37 72/72/72 25/25/25
f 73/73/73 25/25/25 72/72/72
f 74/74/74 73/73/73 72/72/72
f 74/74/74 63/63/63 67/67/67
f 63/63/63 74/74/74 72/72/72
f 67/67/67 75/75/75 74/74/74
f 76/76/76 74/74/74 75/75/75
f 76/76/76 73/73/73 74/74/74
f 76/76/76 75/75/75 77/77/77
f 78/78/78 77/77/77 75/75/75
f 76/76/76 77/77/77 79/79/79
f 76/76/76 79/79/79 73/73/73
f 73/73/73 79/79/79 25/25/25
f 80/80/80 79/79/79 77/77/77
f 81/81/81 77/77/77 78/78/78
f 78/78/78 82/82/82 81/81/81
f 75/75/75 82/82/82 78/78/78
f 83/83/83 81/81/81 82/82/82
f 84/84/84 80/80/80 77/77/77
f 84/84/84 77/77/77 81/81/81
f 81/81/81 83/83/83 84/84/84
f 83/83/83 85/85/85 84/84/84
f 86/86/86 85/85/85 83/83/83
f 86/86/86 83/83/83 87/87/87
f 88/88/88 87/87/87 83/83/83
f 88/88/88 89/89/89 87/87/87
f 90/90/90 87/87/87 89/89/89
f 91/91/91 86/86/86 87/87/87
f 92/92/92 86/86/86 91/91/91
f 93/93/93 86/86/86 92/92/92
f 86/86/86 93/93/93 85/85/85
f 92/92/92 91/91/91 93/93/93
f 94/94/94 91/91/91 87/87/87
f 91/91/91 94/94/94 95/95/95
f 96/96/96 95/95/95 94/94/94
f 94/94/94 97/97/97 96/96/96
f 94/94/94 87/87/87 97/97/97
f 90/90/90 97/97/97 87/87/87
f 98/98/98 96/96/96 97/97/97
f 97/97/97 90/90/90 99/99/99
f 100/100/100 99/99/99 90/90/90
f 100/100/100 90/90/90 89/89/89
f 100/100/100 101/101/101 99/99/99
f 102/102/102 99/99/99 101/101/101
f 101/101/101 103/103/103 102/102/102
f 104/104/104 102/102/102 103/103/103
f 104/104/104 103/103/103 105/105/105
f 106/106/106 105/105/105 103/103/103
f 103/103/103 107/107/107 106/106/106
f 103/103/103 101/101/101 107/107/107
f 106/106/106 108/108/108 105/105/105
f 105/105/105 108/108/108 109/109/109
f 100/100/100 110/110/110 101/101/101
f 110/110/110 107/107/107 101/101/101
f 102/102/102 104/104/104 111/111/111
f 105/105/105 111/111/111 104/104/104
f 102/102/102 111/111/111 99/99/99
f 111/111/111 98/98/98 97/97/97
f 105/105/105 109/109/109 111/111/111
f 99/99/99 111/111/111 97/97/97
f 89/89/89 110/110/110 100/100/100
f 112/112/112 111/111/111 109/109/109
f 113/113/113 98/98/98 111/111/111
f 113/113/113 111/111/111 114/114/114
f 115/115/115 114/114/114 111/111/111
f 111/111/111 116/116/116 115/115/115
f 117/117/117 115/115/115 116/116/116
f 115/115/115 117/117/117 114/114/114
f 118/118/118 114/114/114 117/117/117
f 114/114/114 118/118/118 113/113/113
f 119/119/119 116/116/116 111/111/111
f 111/111/111 112/112/112 119/119/119
f 119/119/119 112/112/112 120/120/120
f 121/121/121 116/116/116 119/119/119
f 121/121/121 117/117/117 116/116/116
f 119/119/119 120/120/120 121/121/121
f 117/117/117 122/122/122 118/118/118
f 122/122/122 121/121/121 120/120/120
f 122/122/122 117/117/117 121/121/121
f 123/123/123 118/118/118 122/122/122
f 124/124/124 123/123/123 122/122/122
f 124/124/124 122/122/122 125/125/125
f 124/124/124 125/125/125 126/126/126
f 122/122/122 127/127/127 125/125/125
f 128/128/128 125/125/125 127/127/127
f 128/128/128 127/127/127 129/129/129
f 130/130/130 129/129/129 127/127/127
f 128/128/128 129/129/129 131/131/131
f 128/128/128 131/131/131 125/125/125
f 131/131/131 126/126/126 125/125/125
f 132/132/132 131/131/131 129/129/129
f 131/131/131 132/132/132 133/133/133
f 131/131/131 133/133/133 126/126/126
f 134/134/134 133/133/133 132/132/132
f 133/133/133 134/134/134 135/135/135
f 136/136/136 135/135/135 134/134/134
f 136/136/136 137/137/137 135/135/135
f 136/136/136 134/134/134 137/137/137
f 138/138/138 135/135/135 137/137/137
f 138/138/138 137/137/137 139/139/139
f 140/140/140 139/139/139 137/137/137
f 139/139/139 141/141/141 138/138/138
f 140/140/140 141/141/141 139/139/139
f 142/142/142 138/138/138 141/141/141
f 135/135/135 138/138/138 143/143/143
f 142/142/142 143/143/143 138/138/138
f 133/133/133 135/135/135 144/144/144
f 142/142/142 145/145/145 143/143/143
f 142/142/142 141/141/141 145/145/145
f 145/145/145 146/146/146 143/143/143
f 146/146/146 145/145/145 147/147/147
f 148/148/148 143/143/143 146/146/146
f 144/144/144 135/135/135 148/148/148
f 135/135/135 143/143/143 148/148/148
f 141/141/141 149/149/149 145/145/145
f 145/145/145 150/150/150 147/147/147
f 149/149/149 151/151/151 145/145/145
f 151/151/151 150/150/150 145/145/145
f 151/151/151 149/149/149 152/152/152
f 150/150/150 151/151/151 152/152/152
f 147/147/147 150/150/150 152/152/152
f 153/153/153 148/148/148 146/146/146
f 148/148/148 153/153/153 124/124/124
f 146/146/146 154/154/154 153/153/153
f 155/155/155 153/153/153 154/154/154
f 154/154/154 156/156/156 155/155/155
f 157/157/157 155/155/155 156/156/156
f 154/154/154 158/158/158 156/156/156
f 147/147/147 158/158/158 146/146/146
f 154/154/154 146/146/146 158/158/158
f 158/158/158 147/147/147 159/159/159
f 160/160/160 159/159/159 147/147/147
f 152/152/152 160/160/160 147/147/147
f 152/152/152 149/149/149 160/160/160
f 161/161/161 156/156/156 158/158/158
f 155/155/155 157/157/157 95/95/95
f 162/162/162 155/155/155 95/95/95
f 153/153/153 155/155/155 162/162/162
f 163/163/163 95/95/95 157/157/157
f 161/161/161 158/158/158 164/164/164
f 159/159/159 164/164/164 158/158/158
f 164/164/164 159/159/159 165/165/165
f 166/166/166 165/165/165 159/159/159
f 159/159/159 160/160/160 166/166/166
f 95/95/95 163/163/163 167/167/167
f 168/168/168 95/95/95 167/167/167
f 168/168/168 167/167/167 169/169/169
f 167/167/167 163/163/163 169/169/169
f 91/91/91 95/95/95 168/168/168
f 168/168/168 93/93/93 91/91/91
f 168/168/168 85/85/85 93/93/93
f 168/168/168 169/169/169 85/85/85
f 149/149/149 166/166/166 160/160/160
f 170/170/170 164/164/164 165/165/165
f 164/164/164 170/170/170 171/171/171
f 164/164/164 171/171/171 161/161/161
f 172/172/172 171/171/171 170/170/170
f 173/173/173 170/170/170 165/165/165
f 170/170/170 174/174/174 172/172/172
f 173/173/173 174/174/174 170/170/170
f 175/175/175 172/172/172 174/174/174
f 174/174/174 173/173/173 176/176/176
f 174/174/174 176/176/176 177/177/177
f 175/175/175 174/174/174 177/177/177
f 30/30/30 176/176/176 173/173/173
f 176/176/176 30/30/30 178/178/178
f 178/178/178 177/177/177 176/176/176
f 31/31/31 178/178/178 30/30/30
f 177/177/177 178/178/178 31/31/31
f 175/175/175 177/177/177 31/31/31
f 175/175/175 31/31/31 172/172/172
f 31/31/31 179/179/179 172/172/172
f 172/172/172 179/179/179 171/171/171
f 179/179/179 22/22/22 171/171/171
f 30/30/30 173/173/173 165/165/165
f 29/29/29 30/30/30 165/165/165
f 28/28/28 179/179/179 31/31/31
f 28/28/28 22/22/22 179/179/179
f 171/171/171 22/22/22 161/161/161
f 156/156/156 161/161/161 22/22/22
f 22/22/22 26/26/26 156/156/156
f 157/157/157 156/156/156 26/26/26
f 157/157/157 26/26/26 163/163/163
f 169/169/169 163/163/163 26/26/26
f 169/169/169 26/26/26 80/80/80
f 27/27/27 80/80/80 26/26/26
f 80/80/80 27/27/27 79/79/79
f 23/23/23 79/79/79 27/27/27
f 23/23/23 25/25/25 79/79/79
f 165/165/165 180/180/180 29/29/29
f 166/166/166 180/180/180 165/165/165
f 149/149/149 180/180/180 166/166/166
f 141/141/141 180/180/180 149/149/149
f 140/140/140 180/180/180 141/141/141
f 137/137/137 180/180/180 140/140/140
f 134/134/134 180/180/180 137/137/137
f 132/132/132 180/180/180 134/134/134
f 129/129/129 180/180/180 132/132/132
f 108/108/108 180/180/180 129/129/129
f 130/130/130 108/108/108 129/129/129
f 108/108/108 130/130/130 181/181/181
f 127/127/127 181/181/181 130/130/130
f 109/109/109 108/108/108 181/181/181
f 109/109/109 181/181/181 182/182/182
f 181/181/181 127/127/127 182/182/182
f 127/127/127 122/122/122 182/182/182
f 182/182/182 122/122/122 120/120/120
f 182/182/182 120/120/120 112/112/112
f 112/112/112 109/109/109 182/182/182
f 106/106/106 180/180/180 108/108/108
f 107/107/107 180/180/180 106/106/106
f 110/110/110 180/180/180 107/107/107
f 89/89/89 180/180/180 110/110/110
f 88/88/88 180/180/180 89/89/89
f 83/83/83 180/180/180 88/88/88
f 82/82/82 180/180/180 83/83/83
f 66/66/66 180/180/180 82/82/82
f 82/82/82 67/67/67 66/66/66
f 75/75/75 67/67/67 82/82/82
f 61/61/61 180/180/180 66/66/66
f 59/59/59 180/180/180 61/61/61
f 46/46/46 180/180/180 59/59/59
f 50/50/50 180/180/180 46/46/46
f 53/53/53 180/180/180 50/50/50
f 10/10/10 180/180/180 53/53/53
f 53/53/53 2/2/2 10/10/10
f 9/9/9 180/180/180 10/10/10
f 12/12/12 180/180/180 9/9/9
f 32/32/32 180/180/180 12/12/12
f 29/29/29 180/180/180 32/32/32
f 47/47/47 183/183/183 45/45/45
f 45/45/45 183/183/183 69/69/69
f 70/70/70 69/69/69 183/183/183
f 183/183/183 47/47/47 70/70/70
f 70/70/70 47/47/47 49/49/49
f 124/124/124 126/126/126 148/148/148
f 144/144/144 148/148/148 126/126/126
f 133/133/133 144/144/144 126/126/126
f 184/184/184 123/123/123 124/124/124
f 123/123/123 184/184/184 118/118/118
f 185/185/185 118/118/118 184/184/184
f 118/118/118 185/185/185 113/113/113
f 113/113/113 185/185/185 98/98/98
f 186/186/186 98/98/98 185/185/185
f 186/186/186 185/185/185 184/184/184
f 186/186/186 184/184/184 124/124/124
f 162/162/162 98/98/98 186/186/186
f 96/96/96 98/98/98 162/162/162
f 96/96/96 162/162/162 95/95/95
f 162/162/162 186/186/186 153/153/153
f 124/124/124 153/153/153 186/186/186
f 85/85/85 169/169/169 84/84/84
f 80/80/80 84/84/84 169/169/169
