g Area_Ly_Build_Common_Hili_House_14_Col
v -0.1964001 -9.127405E-18 0.1490618
v 0.1017236 9.127405E-18 -0.1490618
v -0.1964001 9.127405E-18 -0.1490618
v 0.1017236 -9.127405E-18 0.1490618
v -0.3480255 1.211756 0.365426
v 0.1261883 1.211756 0.365426
v 0.1261883 1.211756 -0.3782604
v -0.3480255 1.211756 -0.3782605
v -0.4 2.089156 0.4742471
v -0.08527298 2.089156 0.4742471
v -0.08527298 2.223848 -0.5451391
v -0.4 2.223848 -0.5451391
vn -0.5444037 -0.6551955 0.5237781
vn 0.5810165 -0.6288105 -0.5167372
vn -0.5448792 -0.6576867 -0.5201488
vn 0.5804296 -0.6264662 0.5202323
vn -0.701023 -0.1660574 0.6935357
vn 0.726415 -0.02322271 0.6868639
vn 0.7302869 -0.04381765 -0.6817337
vn -0.7039483 -0.1816053 -0.6866413
vn -0.5948148 0.4845193 0.6414331
vn 0.4999798 0.5533314 0.6662166
vn 0.4989605 0.6181582 -0.6073869
vn -0.577727 0.5634123 -0.5905913
g Area_Ly_Build_Common_Hili_House_14_Col_0
f 3/3/3 2/2/2 1/1/1
f 4/4/4 1/1/1 2/2/2
f 1/1/1 4/4/4 5/5/5
f 6/6/6 5/5/5 4/4/4
f 4/4/4 2/2/2 6/6/6
f 7/7/7 6/6/6 2/2/2
f 3/3/3 8/8/8 2/2/2
f 7/7/7 2/2/2 8/8/8
f 5/5/5 8/8/8 1/1/1
f 3/3/3 1/1/1 8/8/8
f 5/5/5 6/6/6 9/9/9
f 5/5/5 9/9/9 8/8/8
f 10/10/10 9/9/9 6/6/6
f 10/10/10 11/11/11 9/9/9
f 10/10/10 6/6/6 11/11/11
f 7/7/7 11/11/11 6/6/6
f 12/12/12 9/9/9 11/11/11
f 11/11/11 7/7/7 12/12/12
f 8/8/8 12/12/12 7/7/7
f 12/12/12 8/8/8 9/9/9
