g Area_Common_Flower_LongGras_MD_Lod3
v 0.01790818 -0.04289672 -0.03381323
v -0.1475191 -0.02165084 0.07093796
v -0.05625841 0.6416264 -0.1046218
v -0.2839618 -0.01947564 0.5918993
v -0.2815527 -0.02176134 0.5259439
v -0.1195309 0.3904201 0.550639
v 0.1821794 -0.0307186 0.6385136
v 0.1501461 -0.03731101 0.7157449
v -0.004159153 0.6471714 0.6646301
v -0.08876184 -0.02106356 -0.6807712
v -0.02243283 -0.02523604 -0.6443017
v -0.1070568 0.4330426 -0.5167513
v 0.2437133 -0.0404618 -0.2770043
v 0.3192038 -0.04151395 -0.3599377
v 0.3444833 0.7856783 -0.2715901
v 0.2861015 -0.02569111 0.3520451
v 0.3789566 -0.02394411 0.3441262
v 0.3456451 0.4818613 0.4892925
v 0.5628601 -0.04172915 0.09331807
v 0.6215134 -0.03917493 0.03343051
v 0.7194389 0.7526336 0.221829
v -0.41508 -0.03375619 0.1212276
v -0.4661031 -0.03546972 0.1557192
v -0.5315295 0.6589016 0.03840329
v 0.156224 -0.03789954 0.2126372
v 0.07190429 -0.04238192 0.1384037
v 0.2166516 0.7485251 0.011373
v -0.358894 -0.03380742 -0.5097194
v -0.3638526 -0.03754884 -0.4349311
v -0.446429 0.685383 -0.441892
vt 0.06439847 0.01269646
vt 0.06439847 0.01269646
vt 0.06439847 0.01269646
vt 0.2749845 0.5585272
vt 0.2749845 0.5585272
vt 0.2749845 0.5585272
vt -0.1580522 0.676534
vt -0.1580522 0.676534
vt -0.1580522 0.676534
vt 0.05804778 -0.6555943
vt 0.05804778 -0.6555943
vt 0.05804778 -0.6555943
vt -0.2844597 -0.3162386
vt -0.2844597 -0.3162386
vt -0.2844597 -0.3162386
vt -0.3309428 0.3549984
vt -0.3309428 0.3549984
vt -0.3309428 0.3549984
vt -0.5982464 0.07091975
vt -0.5982464 0.07091975
vt -0.5982464 0.07091975
vt 0.4449219 0.1337082
vt 0.4449219 0.1337082
vt 0.4449219 0.1337082
vt -0.1189493 0.1677039
vt -0.1189493 0.1677039
vt -0.1189493 0.1677039
vt 0.3654236 -0.4708761
vt 0.3654236 -0.4708761
vt 0.3654236 -0.4708761
vn 0.5425454 0.1443846 0.827525
vn 0.5425454 0.1443846 0.827525
vn 0.5425453 0.1443846 0.827525
vn -0.9287105 0.3678569 -0.0466705
vn -0.9287105 0.3678569 -0.04667051
vn -0.9287105 0.3678569 -0.04667051
vn 0.8917972 0.2301301 0.3895356
vn 0.8917972 0.2301301 0.3895356
vn 0.8917972 0.2301301 0.3895356
vn 0.472278 0.3162089 -0.822779
vn 0.472278 0.3162089 -0.8227791
vn 0.472278 0.3162089 -0.8227791
vn -0.7356339 0.09412651 -0.6708077
vn -0.7356339 0.09412651 -0.6708077
vn -0.735634 0.09412652 -0.6708076
vn -0.0868618 0.2695315 -0.9590661
vn -0.0868618 0.2695316 -0.9590661
vn -0.0868618 0.2695316 -0.9590661
vn -0.6976438 0.2463522 -0.6727583
vn -0.6976438 0.2463522 -0.6727583
vn -0.6976437 0.2463522 -0.6727584
vn 0.5455393 0.1893388 0.8164176
vn 0.5455393 0.1893388 0.8164176
vn 0.5455393 0.1893388 0.8164176
vn -0.6492914 0.2350051 0.7233209
vn -0.6492914 0.2350051 0.7233209
vn -0.6492915 0.2350051 0.723321
vn 0.9909264 0.1138754 0.07139589
vn 0.9909264 0.1138754 0.07139589
vn 0.9909264 0.1138754 0.07139589
g Area_Common_Flower_LongGras_MD_Lod3_0
f 3/3/3 2/2/2 1/1/1
f 6/6/6 5/5/5 4/4/4
f 9/9/9 8/8/8 7/7/7
f 12/12/12 11/11/11 10/10/10
f 15/15/15 14/14/14 13/13/13
f 18/18/18 17/17/17 16/16/16
f 21/21/21 20/20/20 19/19/19
f 24/24/24 23/23/23 22/22/22
f 27/27/27 26/26/26 25/25/25
f 30/30/30 29/29/29 28/28/28
