g Area_Common_Build_ShortWall_C_01_Col
v 1.569897 -0.2129309 0.4166389
v 0.9103863 -0.2129309 0.8933547
v 1.394755 -0.2188843 1.247917
v 0.9590716 -0.2129309 0.2961527
v 1.394755 0.40966 1.247917
v 0.9103863 0.4156134 0.8933547
v 1.569897 0.4156132 0.4166388
v 0.9590716 0.4156132 0.2961527
v 2.082127 -1.928025 -3.356754
v 1.514566 0.950493 -0.6598675
v 1.279419 1.607773 -3.202211
v 0 1.798203 -3.127783
v -2.10444 -1.928025 -3.042917
v -1.10222 1.723951 -3.063603
v -0.6491526 1.919173 -2.56517
v 1.955692 -1.930899 -0.6908692
v -2.098486 -1.930899 -0.875914
v 0.5454848 -1.918275 1.243657
v 1.448534 0.693291 0.1058697
v 1.678878 -0.03023109 0.5163749
v 0.8454122 0.8312915 0.2638966
v 0.6602982 -0.1266212 1.106733
v 1.685768 -0.04907467 1.076505
v 0.6881453 1.101036 -0.3968178
v 1.204957 1.797817 -0.7225238
v 1.888905 -1.933773 0.9848769
v -0.01160034 0.1279085 0.7748269
v -0.5734413 0.8587975 0.2846829
v -1.148977 0.918652 0.5226567
v -1.048822 0.2345692 0.8698723
v -1.388116 0.7295855 0.4067444
v -1.534981 -0.03023109 0.6143622
v -0.8362389 -0.363259 1.393872
v -1.603437 -0.1445986 1.120026
v -1.826114 -1.933773 1.071139
v -1.27579 0.9802661 0.06905197
v -1.167568 1.457896 -0.008313598
v -1.098748 1.500825 -0.2335998
v -0.1187433 1.177974 -0.3327302
v -1.01441 1.834044 -0.2514203
v -0.606666 1.801955 -0.2596675
v 0.804207 1.821467 -0.8537421
v 0 1.846089 -0.8396173
v 0.783771 1.900345 -1.436282
v 1.360989 1.728651 -1.233171
v -1.027015 1.840309 -1.088873
v 1.218238 1.910109 -2.4973
v 1.16852 1.732983 -1.482395
v -0.7877731 1.854886 -1.0821
v -1.077188 1.939684 -2.116128
v 1.513433 0.2788531 -0.2678543
v 0.9214014 0.2788531 0.4798625
v 1.466103 0.2788531 0.524485
v 0.8919461 0.2788531 -0.3049788
v 1.466103 0.9073974 0.524485
v 0.9214014 0.9073974 0.4798625
v 1.513433 0.9073972 -0.2678543
v 0.8919461 0.9073972 -0.3049788
vn 0.6814079 -0.5758695 -0.4517273
vn -0.7213556 -0.6103816 0.3272313
vn 0.2952152 -0.5629312 0.7719821
vn -0.4948347 -0.57162 -0.6545145
vn 0.2980382 0.5535817 0.7776378
vn -0.7172278 0.6135156 0.3304286
vn 0.6815616 0.5774748 -0.4494404
vn -0.4948347 0.5716198 -0.6545146
vn 0.6245377 -0.5086452 -0.5926489
vn 0.8706339 0.4005738 0.2855475
vn 0.5504043 0.49027 -0.6757887
vn -0.02547951 0.6844335 -0.7286299
vn -0.6718364 -0.5043272 -0.542485
vn -0.5460847 0.5407289 -0.6398467
vn -0.005707528 0.991384 -0.1308628
vn 0.7548598 -0.6553512 0.02648841
vn -0.7963561 -0.604026 0.03113486
vn 0.06550986 -0.6842965 0.7262553
vn 0.6749695 0.606563 0.4201159
vn 0.8425187 0.5087864 0.1769141
vn 0.1806357 0.789044 0.5871801
vn 0.09549329 0.4616874 0.8818876
vn 0.53483 0.6246324 0.5690266
vn 0.1601659 0.7265384 0.6681983
vn 0.4028632 0.7180581 0.5675331
vn 0.6409414 -0.5745969 0.5089523
vn 0.07244891 0.7509421 0.6563818
vn 0.1944373 0.748926 0.6334857
vn -0.2130849 0.7789292 0.5898001
vn -0.281701 0.4962976 0.821178
vn -0.8395518 0.4132703 0.3526476
vn -0.8480423 0.4414201 0.2932109
vn -0.09615421 0.3019564 0.9484601
vn -0.5482638 0.6378603 0.5408707
vn -0.6013675 -0.5825792 0.546771
vn -0.7949024 0.4963776 0.3489116
vn -0.3891726 0.8027939 0.4517374
vn -0.6631998 0.5779658 0.4755225
vn 0.236096 0.647626 0.7244579
vn -0.4538046 0.6479633 0.6117229
vn 0.1916784 0.6195138 0.7612241
vn -0.02703707 0.8710323 0.490481
vn 0.1131931 0.9184901 0.3788975
vn 0.1026878 0.9943189 0.02801913
vn 0.8358402 0.4554044 -0.3065585
vn -0.6307302 0.773267 0.06509611
vn 0.6410117 0.7648821 -0.06371254
vn 0.7165153 0.68993 -0.102968
vn -0.01583703 0.9985253 0.05192804
vn -0.5710309 0.8209249 0.002434785
vn 0.6107495 -0.5773503 -0.5418963
vn -0.5866094 -0.5838816 0.5612233
vn 0.5356556 -0.5761984 0.6173075
vn -0.5733467 -0.5724116 -0.5861899
vn 0.5356556 0.5761984 0.6173075
vn -0.5866094 0.5838817 0.5612232
vn 0.6107496 0.5773502 -0.5418963
vn -0.5733468 0.5724115 -0.5861899
g Area_Common_Build_ShortWall_C_01_Col_0
f 3/3/3 2/2/2 1/1/1
f 4/4/4 1/1/1 2/2/2
f 3/3/3 5/5/5 2/2/2
f 6/6/6 2/2/2 5/5/5
f 2/2/2 6/6/6 4/4/4
f 5/5/5 7/7/7 6/6/6
f 5/5/5 3/3/3 7/7/7
f 1/1/1 7/7/7 3/3/3
f 8/8/8 6/6/6 7/7/7
f 7/7/7 1/1/1 8/8/8
f 4/4/4 8/8/8 1/1/1
f 8/8/8 4/4/4 6/6/6
f 11/11/11 10/10/10 9/9/9
f 11/11/11 9/9/9 12/12/12
f 9/9/9 13/13/13 12/12/12
f 12/12/12 13/13/13 14/14/14
f 15/15/15 12/12/12 14/14/14
f 9/9/9 16/16/16 13/13/13
f 16/16/16 9/9/9 10/10/10
f 17/17/17 13/13/13 16/16/16
f 18/18/18 17/17/17 16/16/16
f 10/10/10 19/19/19 16/16/16
f 20/20/20 16/16/16 19/19/19
f 19/19/19 21/21/21 20/20/20
f 20/20/20 21/21/21 22/22/22
f 18/18/18 23/23/23 22/22/22
f 23/23/23 16/16/16 20/20/20
f 23/23/23 20/20/20 22/22/22
f 24/24/24 21/21/21 19/19/19
f 10/10/10 24/24/24 19/19/19
f 25/25/25 24/24/24 10/10/10
f 26/26/26 16/16/16 23/23/23
f 26/26/26 23/23/23 18/18/18
f 26/26/26 18/18/18 16/16/16
f 21/21/21 27/27/27 22/22/22
f 28/28/28 27/27/27 21/21/21
f 24/24/24 28/28/28 21/21/21
f 28/28/28 29/29/29 27/27/27
f 30/30/30 27/27/27 29/29/29
f 22/22/22 27/27/27 30/30/30
f 29/29/29 31/31/31 30/30/30
f 32/32/32 30/30/30 31/31/31
f 31/31/31 17/17/17 32/32/32
f 30/30/30 32/32/32 33/33/33
f 33/33/33 18/18/18 22/22/22
f 33/33/33 22/22/22 30/30/30
f 34/34/34 33/33/33 32/32/32
f 34/34/34 35/35/35 33/33/33
f 17/17/17 35/35/35 34/34/34
f 32/32/32 17/17/17 34/34/34
f 36/36/36 17/17/17 31/31/31
f 31/31/31 29/29/29 36/36/36
f 29/29/29 28/28/28 36/36/36
f 36/36/36 28/28/28 37/37/37
f 37/37/37 17/17/17 36/36/36
f 38/38/38 17/17/17 37/37/37
f 37/37/37 28/28/28 38/38/38
f 39/39/39 38/38/38 28/28/28
f 38/38/38 39/39/39 40/40/40
f 41/41/41 40/40/40 39/39/39
f 28/28/28 24/24/24 39/39/39
f 24/24/24 42/42/42 39/39/39
f 43/43/43 39/39/39 42/42/42
f 43/43/43 41/41/41 39/39/39
f 44/44/44 43/43/43 42/42/42
f 42/42/42 25/25/25 44/44/44
f 42/42/42 24/24/24 25/25/25
f 45/45/45 44/44/44 25/25/25
f 40/40/40 46/46/46 38/38/38
f 46/46/46 17/17/17 38/38/38
f 25/25/25 10/10/10 45/45/45
f 44/44/44 47/47/47 43/43/43
f 47/47/47 44/44/44 48/48/48
f 45/45/45 48/48/48 44/44/44
f 45/45/45 10/10/10 48/48/48
f 12/12/12 43/43/43 47/47/47
f 43/43/43 12/12/12 15/15/15
f 49/49/49 43/43/43 15/15/15
f 40/40/40 49/49/49 46/46/46
f 40/40/40 41/41/41 49/49/49
f 41/41/41 43/43/43 49/49/49
f 46/46/46 49/49/49 50/50/50
f 15/15/15 50/50/50 49/49/49
f 50/50/50 15/15/15 14/14/14
f 47/47/47 11/11/11 12/12/12
f 47/47/47 48/48/48 11/11/11
f 48/48/48 10/10/10 11/11/11
f 14/14/14 13/13/13 50/50/50
f 13/13/13 17/17/17 50/50/50
f 50/50/50 17/17/17 46/46/46
f 35/35/35 17/17/17 18/18/18
f 35/35/35 18/18/18 33/33/33
f 53/53/53 52/52/52 51/51/51
f 54/54/54 51/51/51 52/52/52
f 53/53/53 55/55/55 52/52/52
f 56/56/56 52/52/52 55/55/55
f 52/52/52 56/56/56 54/54/54
f 55/55/55 57/57/57 56/56/56
f 55/55/55 53/53/53 57/57/57
f 51/51/51 57/57/57 53/53/53
f 58/58/58 56/56/56 57/57/57
f 57/57/57 51/51/51 58/58/58
f 54/54/54 58/58/58 51/51/51
f 58/58/58 54/54/54 56/56/56
