g Area_Common_Build_Ruin_Wall_A_01_Col
v 5.000065 10.0001 -3.883073
v -5.000319 10.00025 3.882982
v -5.000319 10.0001 -3.883073
v 5.000065 10.00025 3.882982
v 5.000065 10.11114 -3.883095
v -5.000319 10.11114 -3.883096
v 5.000065 10.11185 -4.108215
v 5.000065 9.890729 -4.107447
v -5.000319 10.11185 -4.108215
v -5.000319 10.11165 3.882745
v 5.000065 10.11165 3.882746
v -5.000319 10.11151 4.108016
v -5.000319 9.890411 4.107628
v 5.000066 10.11151 4.108016
v 5.000066 9.890412 4.107628
v -5.000319 9.89027 4.038995
v 5.000066 9.89027 4.038995
v -5.000319 8.816857 4.03883
v 5.000066 8.816856 4.03883
v -5.000319 8.658915 4.174394
v 5.000066 8.658915 4.174394
v -5.000319 8.372398 4.174487
v 5.000066 8.372397 4.174487
v -5.000319 8.163319 4.000306
v 5.000066 8.163319 4.000306
v -5.000319 0.6920633 4.000127
v 5.000066 0.6920627 4.000127
v -5.000319 0.4823524 4.238914
v 5.000066 0.4823521 4.238914
v -5.000319 -9.177058E-05 4.238945
v 5.000066 -9.177058E-05 4.238945
v -5.000319 -0.0004114556 -4.238804
v 5.000065 -0.0004114556 -4.238804
v -5.000319 0.4822575 -4.238626
v 5.000065 0.4822575 -4.238626
v -5.000319 0.6933343 -4.000638
v 5.000065 0.6933343 -4.000638
v -5.000319 8.160352 -4.000069
v 5.000065 8.160352 -4.000069
v -5.000319 8.372399 -4.174351
v 5.000065 8.372399 -4.174351
v -5.000319 8.659068 -4.174694
v 5.000065 8.659068 -4.174694
v -5.000319 8.817359 -4.038741
v 5.000065 8.817359 -4.038741
v -5.000319 9.890676 -4.038433
v 5.000065 9.890676 -4.038433
v -5.000319 9.890729 -4.107447
vn 0.9045135 0.3015742 0.3015098
vn -0.9047816 0.3008158 -0.3014633
vn -0.9045115 0.3015785 0.3015117
vn 0.9047795 0.3008195 -0.3014658
vn 0.5775274 0.5764027 0.5781195
vn -0.5775273 0.5764053 0.5781171
vn 0.5770012 0.577437 -0.5776125
vn 0.5775731 -0.5780217 -0.5764548
vn -0.5770025 0.5774368 -0.5776114
vn -0.5772056 0.5769812 -0.5778636
vn 0.5772061 0.5769848 -0.5778596
vn -0.5772894 0.5767002 0.5780604
vn -0.5775508 -0.5771596 0.5773404
vn 0.5772906 0.5766993 0.57806
vn 0.5775509 -0.5771585 0.5773414
vn -0.9042736 -0.3016149 0.3021884
vn 0.9042738 -0.3016109 0.3021918
vn -0.79425 0.2109497 0.5697957
vn 0.7942501 0.2109502 0.5697953
vn -0.6366864 0.2678985 0.7230911
vn 0.636686 0.2678991 0.7230913
vn -0.6378935 -0.2619995 0.724188
vn 0.6378936 -0.2620004 0.7241875
vn -0.7923093 -0.2076649 0.5736909
vn 0.7923098 -0.2076651 0.5736902
vn -0.8126965 0.2402842 0.5308372
vn 0.8126963 0.2402847 0.530837
vn -0.6250052 0.3219385 0.7111428
vn 0.6250052 0.3219381 0.7111431
vn -0.5773485 -0.577321 0.5773813
vn 0.577349 -0.5773212 0.5773807
vn -0.5773293 -0.5772657 -0.5774559
vn 0.5773289 -0.5772656 -0.5774563
vn -0.6254206 0.3201723 -0.7115749
vn 0.6254208 0.3201724 -0.7115747
vn -0.812041 0.239389 -0.5322428
vn 0.812041 0.239389 -0.5322428
vn -0.7914582 -0.2061032 -0.5754262
vn 0.7914581 -0.2061033 -0.5754263
vn -0.6385974 -0.2599479 -0.7243069
vn 0.6385974 -0.2599479 -0.7243069
vn -0.6365287 0.2675135 -0.7233725
vn 0.6365283 0.267514 -0.7233727
vn -0.7942351 0.2111756 -0.5697328
vn 0.7942353 0.2111752 -0.5697327
vn -0.904479 -0.3014351 -0.3017527
vn 0.9044783 -0.3014382 -0.3017516
vn -0.5775731 -0.5780222 -0.5764544
g Area_Common_Build_Ruin_Wall_A_01_Col_0
f 3/3/3 2/2/2 1/1/1
f 4/4/4 1/1/1 2/2/2
f 1/1/1 5/5/5 3/3/3
f 6/6/6 3/3/3 5/5/5
f 5/5/5 7/7/7 6/6/6
f 5/5/5 8/8/8 7/7/7
f 5/5/5 1/1/1 8/8/8
f 9/9/9 6/6/6 7/7/7
f 7/7/7 8/8/8 9/9/9
f 2/2/2 10/10/10 4/4/4
f 11/11/11 4/4/4 10/10/10
f 10/10/10 12/12/12 11/11/11
f 10/10/10 13/13/13 12/12/12
f 10/10/10 2/2/2 13/13/13
f 14/14/14 11/11/11 12/12/12
f 12/12/12 13/13/13 14/14/14
f 15/15/15 14/14/14 13/13/13
f 14/14/14 15/15/15 11/11/11
f 11/11/11 15/15/15 4/4/4
f 13/13/13 16/16/16 15/15/15
f 16/16/16 13/13/13 2/2/2
f 2/2/2 3/3/3 16/16/16
f 17/17/17 15/15/15 16/16/16
f 17/17/17 4/4/4 15/15/15
f 16/16/16 18/18/18 17/17/17
f 19/19/19 17/17/17 18/18/18
f 18/18/18 20/20/20 19/19/19
f 21/21/21 19/19/19 20/20/20
f 20/20/20 22/22/22 21/21/21
f 23/23/23 21/21/21 22/22/22
f 21/21/21 23/23/23 19/19/19
f 22/22/22 24/24/24 23/23/23
f 22/22/22 20/20/20 24/24/24
f 18/18/18 24/24/24 20/20/20
f 25/25/25 23/23/23 24/24/24
f 25/25/25 19/19/19 23/23/23
f 24/24/24 26/26/26 25/25/25
f 27/27/27 25/25/25 26/26/26
f 26/26/26 28/28/28 27/27/27
f 29/29/29 27/27/27 28/28/28
f 28/28/28 30/30/30 29/29/29
f 31/31/31 29/29/29 30/30/30
f 30/30/30 32/32/32 31/31/31
f 30/30/30 28/28/28 32/32/32
f 33/33/33 31/31/31 32/32/32
f 32/32/32 34/34/34 33/33/33
f 28/28/28 26/26/26 34/34/34
f 34/34/34 32/32/32 28/28/28
f 35/35/35 33/33/33 34/34/34
f 33/33/33 35/35/35 31/31/31
f 29/29/29 31/31/31 35/35/35
f 34/34/34 36/36/36 35/35/35
f 36/36/36 34/34/34 26/26/26
f 26/26/26 24/24/24 36/36/36
f 37/37/37 35/35/35 36/36/36
f 35/35/35 37/37/37 29/29/29
f 27/27/27 29/29/29 37/37/37
f 36/36/36 38/38/38 37/37/37
f 38/38/38 36/36/36 24/24/24
f 39/39/39 37/37/37 38/38/38
f 37/37/37 39/39/39 27/27/27
f 25/25/25 27/27/27 39/39/39
f 38/38/38 40/40/40 39/39/39
f 41/41/41 39/39/39 40/40/40
f 40/40/40 42/42/42 41/41/41
f 43/43/43 41/41/41 42/42/42
f 41/41/41 43/43/43 39/39/39
f 42/42/42 44/44/44 43/43/43
f 42/42/42 40/40/40 44/44/44
f 38/38/38 44/44/44 40/40/40
f 45/45/45 43/43/43 44/44/44
f 45/45/45 39/39/39 43/43/43
f 44/44/44 46/46/46 45/45/45
f 47/47/47 45/45/45 46/46/46
f 46/46/46 48/48/48 47/47/47
f 8/8/8 47/47/47 48/48/48
f 48/48/48 9/9/9 8/8/8
f 44/44/44 38/38/38 18/18/18
f 24/24/24 18/18/18 38/38/38
f 39/39/39 45/45/45 25/25/25
f 19/19/19 25/25/25 45/45/45
f 45/45/45 47/47/47 19/19/19
f 47/47/47 8/8/8 1/1/1
f 9/9/9 48/48/48 6/6/6
f 6/6/6 48/48/48 3/3/3
f 46/46/46 3/3/3 48/48/48
f 46/46/46 16/16/16 3/3/3
f 18/18/18 16/16/16 44/44/44
f 46/46/46 44/44/44 16/16/16
f 1/1/1 4/4/4 47/47/47
f 17/17/17 47/47/47 4/4/4
f 17/17/17 19/19/19 47/47/47
