g Area_Common_Build_Ruin_B_07_Lod0
v -0.4143091 2.018921 0.4281417
v 0.3186518 0.03821158 0.3328268
v -0.3190236 0.03821158 0.332827
v 0.4139375 2.018921 0.4281417
v -0.4155488 2.044077 0.4041673
v 0.4151771 2.044077 0.4041672
v -0.3442086 0.03821158 0.307642
v -0.4395237 2.018921 -0.4253192
v -0.4395233 2.018921 0.4029277
v -0.3442086 0.03821161 -0.3300334
v -0.4155493 2.044077 -0.4265588
v -0.4155488 2.044077 0.4041673
v 0.4391513 2.018921 -0.425319
v 0.3438368 0.03821158 0.3076417
v 0.4391516 2.018921 0.4029276
v 0.3438368 0.03821161 -0.3300336
v 0.4151771 2.044077 0.4041672
v 0.4151768 2.044077 -0.4265586
v 0.3186518 0.03821161 -0.3552186
v -0.4143097 2.018921 -0.4505333
v -0.3190236 0.03821161 -0.3552184
v 0.4139372 2.018921 -0.4505331
v 0.4151768 2.044077 -0.4265586
v -0.4155493 2.044077 -0.4265588
v 0.4151771 2.044077 0.4041672
v -0.4155493 2.044077 -0.4265588
v 0.4151768 2.044077 -0.4265586
v -0.4155488 2.044077 0.4041673
v -0.3442086 0.03821158 0.307642
v -0.3190236 0.03821161 -0.3552184
v -0.3442086 0.03821161 -0.3300334
v 0.3186518 0.03821158 0.3328268
v 0.3438368 0.03821161 -0.3300336
v 0.3186518 0.03821161 -0.3552186
v 0.3438368 0.03821158 0.3076417
v -0.3190236 0.03821158 0.332827
v -0.5041826 1.724911 0.3663844
v -0.3390309 2.286592 0.3591069
v -0.51395 2.286592 0.3591069
v -0.3487983 1.724911 0.3663844
v -0.5041826 1.724911 0.4821614
v -0.3390309 2.286592 0.4894392
v -0.3487983 1.724911 0.4821614
v -0.51395 2.286592 0.4894392
v -0.5041826 1.724911 0.3663844
v -0.3487983 1.724911 0.4821614
v -0.3487983 1.724911 0.3663844
v -0.5041826 1.724911 0.4821614
v -0.3487983 1.724911 0.3663844
v -0.3390309 2.286592 0.4894392
v -0.3390309 2.286592 0.3591069
v -0.3487983 1.724911 0.4821614
v -0.3390309 2.286592 0.3591069
v -0.51395 2.286592 0.4894392
v -0.51395 2.286592 0.3591069
v -0.3390309 2.286592 0.4894392
v -0.51395 2.286592 0.3591069
v -0.5041826 1.724911 0.4821614
v -0.5041826 1.724911 0.3663844
v -0.51395 2.286592 0.4894392
v 0.3487945 1.724912 0.3645775
v 0.5139464 2.286592 0.3573
v 0.3390271 2.286592 0.3573
v 0.504179 1.724912 0.3645775
v 0.3487945 1.724911 0.4803544
v 0.5139464 2.286592 0.4876322
v 0.504179 1.724911 0.4803544
v 0.3390271 2.286592 0.4876322
v 0.3487945 1.724912 0.3645775
v 0.504179 1.724911 0.4803544
v 0.504179 1.724912 0.3645775
v 0.3487945 1.724911 0.4803544
v 0.504179 1.724912 0.3645775
v 0.5139464 2.286592 0.4876322
v 0.5139464 2.286592 0.3573
v 0.504179 1.724911 0.4803544
v 0.5139464 2.286592 0.3573
v 0.3390271 2.286592 0.4876322
v 0.3390271 2.286592 0.3573
v 0.5139464 2.286592 0.4876322
v 0.3390271 2.286592 0.3573
v 0.3487945 1.724911 0.4803544
v 0.3487945 1.724912 0.3645775
v 0.3390271 2.286592 0.4876322
v -0.5041826 1.724911 -0.4803544
v -0.3390309 2.286592 -0.487632
v -0.51395 2.286592 -0.487632
v -0.3487983 1.724911 -0.4803544
v -0.5041826 1.724911 -0.3645775
v -0.3390309 2.286592 -0.3572997
v -0.3487983 1.724911 -0.3645775
v -0.51395 2.286592 -0.3572997
v -0.5041826 1.724911 -0.4803544
v -0.3487983 1.724911 -0.3645775
v -0.3487983 1.724911 -0.4803544
v -0.5041826 1.724911 -0.3645775
v -0.3487983 1.724911 -0.4803544
v -0.3390309 2.286592 -0.3572997
v -0.3390309 2.286592 -0.487632
v -0.3487983 1.724911 -0.3645775
v -0.3390309 2.286592 -0.487632
v -0.51395 2.286592 -0.3572997
v -0.51395 2.286592 -0.487632
v -0.3390309 2.286592 -0.3572997
v -0.51395 2.286592 -0.487632
v -0.5041826 1.724911 -0.3645775
v -0.5041826 1.724911 -0.4803544
v -0.51395 2.286592 -0.3572997
v 0.3487945 1.724912 -0.4821613
v 0.5139464 2.286592 -0.489439
v 0.3390271 2.286592 -0.489439
v 0.504179 1.724912 -0.4821613
v 0.3487945 1.724911 -0.3663844
v 0.5139464 2.286592 -0.3591066
v 0.504179 1.724911 -0.3663844
v 0.3390271 2.286592 -0.3591066
v 0.3487945 1.724912 -0.4821613
v 0.504179 1.724911 -0.3663844
v 0.504179 1.724912 -0.4821613
v 0.3487945 1.724911 -0.3663844
v 0.504179 1.724912 -0.4821613
v 0.5139464 2.286592 -0.3591066
v 0.5139464 2.286592 -0.489439
v 0.504179 1.724911 -0.3663844
v 0.5139464 2.286592 -0.489439
v 0.3390271 2.286592 -0.3591066
v 0.3390271 2.286592 -0.489439
v 0.5139464 2.286592 -0.3591066
v 0.3390271 2.286592 -0.489439
v 0.3487945 1.724911 -0.3663844
v 0.3487945 1.724912 -0.4821613
v 0.3390271 2.286592 -0.3591066
v -0.4143091 2.018921 0.4281417
v -0.4395233 2.018921 0.4029277
v -0.4155488 2.044077 0.4041673
v -0.3442086 0.03821158 0.307642
v -0.3190236 0.03821158 0.332827
v 0.4139375 2.018921 0.4281417
v 0.4151771 2.044077 0.4041672
v 0.4391516 2.018921 0.4029276
v 0.3186518 0.03821158 0.3328268
v 0.3438368 0.03821158 0.3076417
v 0.4391513 2.018921 -0.425319
v 0.4151768 2.044077 -0.4265586
v 0.4139372 2.018921 -0.4505331
v 0.3438368 0.03821161 -0.3300336
v 0.3186518 0.03821161 -0.3552186
v -0.4155493 2.044077 -0.4265588
v -0.4395237 2.018921 -0.4253192
v -0.4143097 2.018921 -0.4505333
v -0.3190236 0.03821161 -0.3552184
v -0.3442086 0.03821161 -0.3300334
vt 0.5084323 0.6991886
vt 0.01 0.514744
vt 0.01 0.6752108
vt 0.5084323 0.490766
vt 0.5147626 0.6995007
vt 0.5147626 0.4904541
vt 0.01 0.03428996
vt 0.5084323 0.2187348
vt 0.5084323 0.01031194
vt 0.01 0.1947567
vt 0.5147626 0.2190467
vt 0.5147626 0.01
vt 0.5084323 0.730993
vt 0.01 0.9154378
vt 0.5084323 0.9394157
vt 0.01 0.7549709
vt 0.5147626 0.9397277
vt 0.5147626 0.7306811
vt 0.01 0.4349838
vt 0.5084323 0.250539
vt 0.01 0.274517
vt 0.5084323 0.4589617
vt 0.5147626 0.4592737
vt 0.5147626 0.250227
vt 0.545943 0.2190467
vt 0.7549897 0.01
vt 0.545943 0.01000006
vt 0.7549896 0.2190467
vt 0.7127475 0.4233691
vt 0.545943 0.4170314
vt 0.5522807 0.4233691
vt 0.719085 0.2565647
vt 0.5522807 0.250227
vt 0.545943 0.2565646
vt 0.7127474 0.250227
vt 0.7190851 0.4170314
vt 0.545943 0.8083366
vt 0.6872863 0.8498959
vt 0.6872863 0.8058786
vt 0.545943 0.847438
vt 0.545943 0.6072109
vt 0.6872863 0.5656516
vt 0.545943 0.5681096
vt 0.6872863 0.6096689
vt 0.9300915 0.5947861
vt 0.89099 0.5656516
vt 0.89099 0.5947861
vt 0.9300915 0.5656516
vt 0.7184665 0.6314605
vt 0.8598097 0.6624265
vt 0.8598097 0.6296293
vt 0.7184665 0.6605951
vt 0.922789 0.3254246
vt 0.9668062 0.3582219
vt 0.9668062 0.3254246
vt 0.922789 0.3582219
vt 0.9197183 0.1819724
vt 0.778375 0.1510066
vt 0.778375 0.1801411
vt 0.9197183 0.1491752
vt 0.778375 0.01245791
vt 0.9197183 0.05401728
vt 0.9197183 0.01
vt 0.778375 0.05155937
vt 0.545943 0.5320135
vt 0.6872863 0.4904541
vt 0.545943 0.492912
vt 0.6872863 0.5344713
vt 0.99 0.1143321
vt 0.9508985 0.08519759
vt 0.9508985 0.1143321
vt 0.99 0.08519759
vt 0.7184666 0.8077101
vt 0.8598097 0.8386759
vt 0.8598097 0.8058787
vt 0.7184665 0.8368444
vt 0.89099 0.4904541
vt 0.9350073 0.5232514
vt 0.9350073 0.4904541
vt 0.89099 0.5232514
vt 0.8916087 0.4221995
vt 0.7502654 0.3912336
vt 0.7502654 0.4203681
vt 0.8916087 0.3894022
vt 0.7184665 0.733139
vt 0.8598097 0.7746984
vt 0.8598097 0.7306811
vt 0.7184665 0.7722405
vt 0.7184665 0.5320134
vt 0.8598097 0.4904541
vt 0.7184665 0.492912
vt 0.8598097 0.5344713
vt 0.9300915 0.8350131
vt 0.89099 0.8058786
vt 0.89099 0.8350131
vt 0.9300915 0.8058786
vt 0.545943 0.6426806
vt 0.6872863 0.6736465
vt 0.6872863 0.6408492
vt 0.545943 0.6718151
vt 0.89099 0.7306811
vt 0.9350073 0.7634782
vt 0.9350073 0.7306811
vt 0.89099 0.7634782
vt 0.8916087 0.3582219
vt 0.7502654 0.327256
vt 0.7502654 0.3563905
vt 0.8916087 0.3254246
vt 0.7502654 0.252685
vt 0.8916087 0.2942443
vt 0.8916087 0.250227
vt 0.7502654 0.2917864
vt 0.545943 0.7722405
vt 0.6872863 0.7306811
vt 0.545943 0.733139
vt 0.6872863 0.7746984
vt 0.99 0.03913449
vt 0.9508985 0.01
vt 0.9508985 0.03913449
vt 0.99 0.01
vt 0.7184666 0.567483
vt 0.8598097 0.5984489
vt 0.8598097 0.5656516
vt 0.7184665 0.5966175
vt 0.922789 0.250227
vt 0.9668062 0.2830243
vt 0.9668062 0.250227
vt 0.922789 0.2830243
vt 0.9197183 0.1179949
vt 0.778375 0.08702899
vt 0.778375 0.1161635
vt 0.9197183 0.08519759
vt 0.947676 0.8810762
vt 0.947676 0.8900493
vt 0.9551886 0.8855627
vt 0.545943 0.8900442
vt 0.545943 0.8810813
vt 0.947676 0.9703562
vt 0.9551886 0.9658696
vt 0.947676 0.961383
vt 0.545943 0.9703509
vt 0.545943 0.9613882
vt 0.4117331 0.9798811
vt 0.4192456 0.9753945
vt 0.4117331 0.970908
vt 0.01 0.9798759
vt 0.01 0.9709131
vt 0.9551886 0.9257162
vt 0.947676 0.9212296
vt 0.947676 0.9302027
vt 0.545943 0.9301975
vt 0.545943 0.9212348
vn -0.03281156 -0.03510074 0.998845
vn 0.03128144 -0.3419261 0.9392061
vn -0.03128144 -0.3419261 0.9392061
vn 0.03281156 -0.03510074 0.998845
vn -0.02898326 0.9991596 0.02898326
vn 0.02898326 0.9991596 0.02898326
vn -0.9392061 -0.3419261 0.03128144
vn -0.998845 -0.03510074 -0.03281156
vn -0.998845 -0.03510074 0.03281156
vn -0.9392061 -0.3419261 -0.03128144
vn -0.02898326 0.9991596 -0.02898326
vn -0.02898326 0.9991596 0.02898326
vn 0.998845 -0.03510074 -0.03281156
vn 0.9392061 -0.3419261 0.03128144
vn 0.998845 -0.03510074 0.03281156
vn 0.9392061 -0.3419261 -0.03128144
vn 0.02898326 0.9991596 0.02898326
vn 0.02898326 0.9991596 -0.02898326
vn 0.03128144 -0.3419261 -0.9392061
vn -0.03281156 -0.03510074 -0.998845
vn -0.03128144 -0.3419261 -0.9392061
vn 0.03280977 -0.03662486 -0.9987903
vn 0.02898326 0.9991596 -0.02898326
vn -0.02898326 0.9991596 -0.02898326
vn 0.02898326 0.9991596 0.02898326
vn -0.02898326 0.9991596 -0.02898326
vn 0.02898326 0.9991596 -0.02898326
vn -0.02898326 0.9991596 0.02898326
vn -0.9392061 -0.3419261 0.03128144
vn -0.03128144 -0.3419261 -0.9392061
vn -0.9392061 -0.3419261 -0.03128144
vn 0.03128144 -0.3419261 0.9392061
vn 0.9392061 -0.3419261 -0.03128144
vn 0.03128144 -0.3419261 -0.9392061
vn 0.9392061 -0.3419261 0.03128144
vn -0.03128144 -0.3419261 0.9392061
vn 0 -0.01295567 -0.9999161
vn 0 -0.01295568 -0.9999161
vn 0 -0.01295568 -0.9999161
vn 0 -0.01295568 -0.9999161
vn 0 -0.01295615 0.9999161
vn 0 -0.01295615 0.9999161
vn 0 -0.01295615 0.9999161
vn 0 -0.01295615 0.9999161
vn 0 -1 0
vn 0 -1 0
vn 0 -1 0
vn 0 -1 0
vn 0.9998488 -0.017387 0
vn 0.9998488 -0.017387 0
vn 0.9998488 -0.017387 0
vn 0.9998488 -0.017387 0
vn 0 1 0
vn 0 1 0
vn 0 1 0
vn 0 1 0
vn -0.9998488 -0.017387 0
vn -0.9998488 -0.017387 0
vn -0.9998488 -0.017387 0
vn -0.9998488 -0.017387 0
vn 0 -0.01295568 -0.9999161
vn 0 -0.01295568 -0.9999161
vn 0 -0.01295568 -0.9999161
vn 0 -0.01295568 -0.9999161
vn 0 -0.01295615 0.9999161
vn 0 -0.01295615 0.9999161
vn 0 -0.01295615 0.9999161
vn 0 -0.01295615 0.9999161
vn 0 -1 -1.317948E-06
vn 0 -1 -1.317948E-06
vn 0 -1 -1.317948E-06
vn 0 -1 -1.317948E-06
vn 0.9998488 -0.01738693 0
vn 0.9998488 -0.01738693 0
vn 0.9998488 -0.01738693 0
vn 0.9998488 -0.01738693 0
vn 0 1 0
vn 0 1 0
vn 0 1 0
vn 0 1 0
vn -0.9998488 -0.01738706 0
vn -0.9998488 -0.01738707 0
vn -0.9998488 -0.01738707 0
vn -0.9998488 -0.01738706 0
vn 0 -0.01295581 -0.9999161
vn 0 -0.01295581 -0.9999161
vn 0 -0.01295581 -0.9999161
vn 0 -0.01295581 -0.9999161
vn 0 -0.01295608 0.9999161
vn 0 -0.01295608 0.9999161
vn 0 -0.01295608 0.9999161
vn 0 -0.01295608 0.9999161
vn 0 -1 0
vn 0 -1 0
vn 0 -1 0
vn 0 -1 0
vn 0.9998488 -0.01738699 0
vn 0.9998488 -0.017387 0
vn 0.9998488 -0.017387 0
vn 0.9998488 -0.017387 0
vn 0 1 0
vn 0 1 0
vn 0 1 0
vn 0 1 0
vn -0.9998488 -0.017387 0
vn -0.9998488 -0.017387 0
vn -0.9998488 -0.017387 0
vn -0.9998488 -0.017387 0
vn 0 -0.01295582 -0.9999161
vn 0 -0.01295582 -0.9999161
vn 0 -0.01295582 -0.9999161
vn 0 -0.01295582 -0.9999161
vn 0 -0.01295608 0.9999161
vn 0 -0.01295608 0.9999161
vn 0 -0.01295608 0.9999161
vn 0 -0.01295609 0.9999161
vn 0 -1 -1.317948E-06
vn 0 -1 -1.317948E-06
vn 0 -1 -1.317948E-06
vn 0 -1 -1.317948E-06
vn 0.9998488 -0.01738693 0
vn 0.9998488 -0.01738693 0
vn 0.9998488 -0.01738693 0
vn 0.9998488 -0.01738693 0
vn 0 1 0
vn 0 1 0
vn 0 1 0
vn 0 1 0
vn -0.9998488 -0.01738707 0
vn -0.9998488 -0.01738707 0
vn -0.9998488 -0.01738707 0
vn -0.9998488 -0.01738707 0
vn -0.03281156 -0.03510074 0.998845
vn -0.998845 -0.03510074 0.03281156
vn -0.02898326 0.9991596 0.02898326
vn -0.9392061 -0.3419261 0.03128144
vn -0.03128144 -0.3419261 0.9392061
vn 0.03281156 -0.03510074 0.998845
vn 0.02898326 0.9991596 0.02898326
vn 0.998845 -0.03510074 0.03281156
vn 0.03128144 -0.3419261 0.9392061
vn 0.9392061 -0.3419261 0.03128144
vn 0.998845 -0.03510074 -0.03281156
vn 0.02898326 0.9991596 -0.02898326
vn 0.03280977 -0.03662486 -0.9987903
vn 0.9392061 -0.3419261 -0.03128144
vn 0.03128144 -0.3419261 -0.9392061
vn -0.02898326 0.9991596 -0.02898326
vn -0.998845 -0.03510074 -0.03281156
vn -0.03281156 -0.03510074 -0.998845
vn -0.03128144 -0.3419261 -0.9392061
vn -0.9392061 -0.3419261 -0.03128144
g Area_Common_Build_Ruin_B_07_Lod0_0
f 3/3/3 2/2/2 1/1/1
f 4/4/4 1/1/1 2/2/2
f 1/1/1 4/4/4 5/5/5
f 6/6/6 5/5/5 4/4/4
f 9/9/9 8/8/8 7/7/7
f 10/10/10 7/7/7 8/8/8
f 8/8/8 9/9/9 11/11/11
f 12/12/12 11/11/11 9/9/9
f 15/15/15 14/14/14 13/13/13
f 16/16/16 13/13/13 14/14/14
f 15/15/15 13/13/13 17/17/17
f 18/18/18 17/17/17 13/13/13
f 21/21/21 20/20/20 19/19/19
f 22/22/22 19/19/19 20/20/20
f 22/22/22 20/20/20 23/23/23
f 24/24/24 23/23/23 20/20/20
f 27/27/27 26/26/26 25/25/25
f 28/28/28 25/25/25 26/26/26
f 31/31/31 30/30/30 29/29/29
f 30/30/30 32/32/32 29/29/29
f 33/33/33 32/32/32 30/30/30
f 34/34/34 33/33/33 30/30/30
f 35/35/35 32/32/32 33/33/33
f 29/29/29 32/32/32 36/36/36
f 39/39/39 38/38/38 37/37/37
f 40/40/40 37/37/37 38/38/38
f 43/43/43 42/42/42 41/41/41
f 44/44/44 41/41/41 42/42/42
f 47/47/47 46/46/46 45/45/45
f 48/48/48 45/45/45 46/46/46
f 51/51/51 50/50/50 49/49/49
f 52/52/52 49/49/49 50/50/50
f 55/55/55 54/54/54 53/53/53
f 56/56/56 53/53/53 54/54/54
f 59/59/59 58/58/58 57/57/57
f 60/60/60 57/57/57 58/58/58
f 63/63/63 62/62/62 61/61/61
f 64/64/64 61/61/61 62/62/62
f 67/67/67 66/66/66 65/65/65
f 68/68/68 65/65/65 66/66/66
f 71/71/71 70/70/70 69/69/69
f 72/72/72 69/69/69 70/70/70
f 75/75/75 74/74/74 73/73/73
f 76/76/76 73/73/73 74/74/74
f 79/79/79 78/78/78 77/77/77
f 80/80/80 77/77/77 78/78/78
f 83/83/83 82/82/82 81/81/81
f 84/84/84 81/81/81 82/82/82
f 87/87/87 86/86/86 85/85/85
f 88/88/88 85/85/85 86/86/86
f 91/91/91 90/90/90 89/89/89
f 92/92/92 89/89/89 90/90/90
f 95/95/95 94/94/94 93/93/93
f 96/96/96 93/93/93 94/94/94
f 99/99/99 98/98/98 97/97/97
f 100/100/100 97/97/97 98/98/98
f 103/103/103 102/102/102 101/101/101
f 104/104/104 101/101/101 102/102/102
f 107/107/107 106/106/106 105/105/105
f 108/108/108 105/105/105 106/106/106
f 111/111/111 110/110/110 109/109/109
f 112/112/112 109/109/109 110/110/110
f 115/115/115 114/114/114 113/113/113
f 116/116/116 113/113/113 114/114/114
f 119/119/119 118/118/118 117/117/117
f 120/120/120 117/117/117 118/118/118
f 123/123/123 122/122/122 121/121/121
f 124/124/124 121/121/121 122/122/122
f 127/127/127 126/126/126 125/125/125
f 128/128/128 125/125/125 126/126/126
f 131/131/131 130/130/130 129/129/129
f 132/132/132 129/129/129 130/130/130
f 135/135/135 134/134/134 133/133/133
f 134/134/134 136/136/136 133/133/133
f 137/137/137 133/133/133 136/136/136
f 140/140/140 139/139/139 138/138/138
f 138/138/138 141/141/141 140/140/140
f 142/142/142 140/140/140 141/141/141
f 145/145/145 144/144/144 143/143/143
f 143/143/143 146/146/146 145/145/145
f 147/147/147 145/145/145 146/146/146
f 150/150/150 149/149/149 148/148/148
f 150/150/150 151/151/151 149/149/149
f 152/152/152 149/149/149 151/151/151
