g Area_Common_Build_Plinth_E_02_Lod1
v -1.078977 -0.2345924 -1.079849
v 1.08307 -0.2345924 1.083847
v 1.08307 -0.2345924 -1.079849
v -1.078977 -0.2345924 1.083847
v -1.078977 0.1302597 1.083847
v 1.08307 -0.2345924 1.083847
v -1.078977 -0.2345924 1.083847
v 1.08307 0.1302597 1.083847
v 1.08307 0.1302597 1.083847
v 1.08307 -0.2345924 -1.079849
v 1.08307 -0.2345924 1.083847
v 1.08307 0.1302597 -1.079849
v -1.078977 0.1302597 -1.079849
v 1.08307 -0.2345924 -1.079849
v 1.08307 0.1302597 -1.079849
v -1.078977 -0.2345924 -1.079849
v -1.078977 0.1302597 1.083847
v -1.078977 -0.2345924 -1.079849
v -1.078977 0.1302597 -1.079849
v -1.078977 -0.2345924 1.083847
v -1.078977 0.1302597 1.083847
v 0.9568855 0.267775 0.9576621
v 1.08307 0.1302597 1.083847
v -0.9527929 0.267775 0.9576621
v 1.08307 0.1302597 1.083847
v 0.9568855 0.267775 -0.9536645
v 1.08307 0.1302597 -1.079849
v 0.9568855 0.267775 0.9576621
v 0.9568855 0.267775 -0.9536645
v -1.078977 0.1302597 -1.079849
v 1.08307 0.1302597 -1.079849
v -0.9527929 0.267775 -0.9536645
v -0.9527929 0.267775 0.9576621
v -1.078977 0.1302597 -1.079849
v -0.9527929 0.267775 -0.9536645
v -1.078977 0.1302597 1.083847
v 1.08307 0.9582974 1.083847
v -1.08561 0.9582973 -0.4136669
v 1.08307 0.9582973 -1.079849
v -1.078978 0.9582974 1.083847
v 1.08307 0.6997705 -1.079849
v -0.4347579 0.9582972 -1.08561
v -0.6693503 0.6997704 -1.08561
v 1.08307 0.9582973 -1.079849
v 1.08307 0.6997705 -1.079849
v 1.08307 0.9582974 1.083847
v 1.08307 0.9582973 -1.079849
v 1.08307 0.6997706 1.083847
v 1.08307 0.6997706 1.083847
v -1.078978 0.9582974 1.083847
v 1.08307 0.9582974 1.083847
v -1.078978 0.6997706 1.083847
v -0.9527929 0.5622553 0.9576624
v -1.08561 0.6997706 -0.2248562
v -1.078978 0.6997706 1.083847
v -0.8764082 0.5622551 -0.8764083
v -0.8764082 0.5622551 -0.8764083
v 1.08307 0.6997705 -1.079849
v -0.6693503 0.6997704 -1.08561
v 0.9568853 0.5622551 -0.9536645
v 1.08307 0.6997705 -1.079849
v 0.9568852 0.5622553 0.9576625
v 1.08307 0.6997706 1.083847
v 0.9568853 0.5622551 -0.9536645
v 1.08307 0.6997706 1.083847
v -0.9527929 0.5622553 0.9576624
v -1.078978 0.6997706 1.083847
v 0.9568852 0.5622553 0.9576625
v -0.8807003 2.723476 -0.8873188
v 0.749005 2.723476 0.03992649
v 0.1829437 2.723476 0.3524171
v 0.8748804 2.723476 -0.8873189
v 0.884242 2.723476 -0.1321283
v 0.08536306 2.723476 0.8842421
v -0.8807004 2.723476 0.8166237
v -0.8807003 2.512902 0.8166237
v 0.08536306 2.723476 0.8842421
v 0.2633305 2.512902 0.8842422
v -0.8807004 2.723476 0.8166237
v -0.8807003 2.512902 0.8166237
v -0.8807003 2.723476 -0.8873188
v -0.8807004 2.723476 0.8166237
v -0.8807003 2.512902 -0.8873189
v 0.8748804 2.512903 -0.887319
v -0.8807003 2.723476 -0.8873188
v -0.8807003 2.512902 -0.8873189
v 0.8748804 2.723476 -0.8873189
v -0.7138448 2.400895 0.7138447
v 0.2633305 2.512902 0.8842422
v 0.2649851 2.40089 0.7017261
v -0.8807003 2.512902 0.8166237
v 0.4372678 2.400895 0.7046079
v -0.8807003 2.512902 0.8166237
v -0.7138448 2.400895 -0.7138445
v -0.8807003 2.512902 -0.8873189
v -0.7138448 2.400895 0.7138447
v -0.7138448 2.400895 -0.7138445
v 0.8748804 2.512903 -0.887319
v -0.8807003 2.512902 -0.8873189
v 0.7138448 2.400895 -0.7138445
v 0.8748804 2.512903 -0.887319
v 0.884242 2.723476 -0.1321283
v 0.8748804 2.723476 -0.8873189
v 0.884242 2.512903 0.09428993
v 0.7197733 2.400895 0.3430382
v 0.884242 2.512903 0.09428993
v 0.6795281 2.4009 0.02158108
v 0.8748804 2.512903 -0.887319
v 0.7138448 2.400895 -0.7138445
v 0.08536306 2.723476 0.8842421
v 0.1829437 2.723476 0.3524171
v 0.4071003 2.615606 0.6600404
v 0.749005 2.723476 0.03992649
v 0.2633305 2.512902 0.8842422
v 0.4372678 2.400895 0.7046079
v 0.7197733 2.400895 0.3430382
v 0.884242 2.512903 0.09428993
v 0.884242 2.723476 -0.1321283
v -1.08561 0.6997706 -0.2248562
v -1.078978 0.9582974 1.083847
v -1.078978 0.6997706 1.083847
v -1.08561 0.9582973 -0.4136669
v -1.08561 0.6997706 -0.2248562
v -0.4347579 0.9582972 -1.08561
v -1.08561 0.9582973 -0.4136669
v -0.6693503 0.6997704 -1.08561
v -0.8764082 0.5622551 -0.8764083
v 0.9568852 0.5622553 0.9576625
v 0.9568855 0.267775 -0.9536645
v 0.9568855 0.267775 0.9576621
v 0.9568853 0.5622551 -0.9536645
v 0.9568853 0.5622551 -0.9536645
v -0.9527929 0.267775 -0.9536645
v 0.9568855 0.267775 -0.9536645
v -0.8764082 0.5622551 -0.8764083
v -0.8764082 0.5622551 -0.8764083
v -0.9527929 0.267775 0.9576621
v -0.9527929 0.267775 -0.9536645
v -0.9527929 0.5622553 0.9576624
v 0.9568852 0.5622553 0.9576625
v -0.9527929 0.267775 0.9576621
v -0.9527929 0.5622553 0.9576624
v 0.9568855 0.267775 0.9576621
v -0.7138448 2.400895 0.7138447
v -0.8162437 1.344705 -0.8747157
v -0.7138448 2.400895 -0.7138445
v -0.9364459 0.9355496 0.9345751
v -0.9364459 0.9355497 -0.5535163
v -0.7138448 2.400895 -0.7138445
v 0.9351649 0.9355497 -0.9370352
v 0.7138448 2.400895 -0.7138445
v -0.8162437 1.344705 -0.8747157
v -0.552927 0.9355497 -0.9370352
v 0.7138448 2.400895 -0.7138445
v 0.7948817 1.668222 0.7928672
v 0.6795281 2.4009 0.02158108
v 0.9351649 0.9355497 -0.9370352
v 0.9594738 0.9355496 0.965215
v -0.9364459 0.9355497 -0.5535163
v -0.552927 0.9355497 -0.9370352
v -0.8162437 1.344705 -0.8747157
v 0.7197733 2.400895 0.3430382
v 0.2649851 2.40089 0.7017261
v 0.4372678 2.400895 0.7046079
v 0.6795281 2.4009 0.02158108
v 0.2649851 2.40089 0.7017261
v 0.6795281 2.4009 0.02158108
v 0.7948817 1.668222 0.7928672
v -0.7138448 2.400895 0.7138447
v 0.7948817 1.668222 0.7928672
v -0.9364459 0.9355496 0.9345751
v 0.2649851 2.40089 0.7017261
v 0.9594738 0.9355496 0.965215
v 1.08307 0.9582973 -1.079849
v -1.08561 0.9582973 -0.4136669
v -0.4347579 0.9582972 -1.08561
vt 0.7336833 0.4132544
vt 0.6540542 0.3355193
vt 0.654056 0.4132502
vt 0.7336851 0.335515
vt 0.51535 0.2968443
vt 0.5816012 0.2825068
vt 0.51535 0.2825068
vt 0.5816012 0.2968443
vt 0.5985792 0.2968443
vt 0.6647804 0.2825068
vt 0.5985792 0.2825068
vt 0.6647804 0.2968443
vt 0.5815363 0.2710529
vt 0.5152838 0.2567155
vt 0.5152838 0.2710529
vt 0.5815363 0.2567155
vt 0.6647857 0.2710529
vt 0.598495 0.2567155
vt 0.598495 0.2710529
vt 0.6647857 0.2567155
vt 0.51535 0.2991143
vt 0.5770582 0.3065397
vt 0.5816012 0.2991143
vt 0.5200167 0.3065397
vt 0.5985792 0.2991143
vt 0.6602569 0.3065397
vt 0.6647804 0.2991143
vt 0.6032035 0.3065397
vt 0.5198154 0.2804908
vt 0.5815363 0.2730654
vt 0.5152838 0.2730654
vt 0.5768842 0.2804908
vt 0.6609251 0.2804908
vt 0.598495 0.2730654
vt 0.602378 0.2804908
vt 0.6647857 0.2730654
vt 0.7336833 0.4132544
vt 0.6774455 0.3322874
vt 0.654056 0.4132502
vt 0.7336851 0.335515
vt 0.6647804 0.2968443
vt 0.6160305 0.2825068
vt 0.6075862 0.2968443
vt 0.6647804 0.2825068
vt 0.5152838 0.2710529
vt 0.5815363 0.2567155
vt 0.5152838 0.2567155
vt 0.5815363 0.2710529
vt 0.598495 0.2709974
vt 0.6647857 0.25666
vt 0.598495 0.25666
vt 0.6647857 0.2709974
vt 0.5200167 0.3065397
vt 0.5565755 0.2991143
vt 0.51535 0.2991143
vt 0.5770582 0.3065397
vt 0.6032035 0.3065397
vt 0.6647804 0.2991143
vt 0.6075862 0.2991143
vt 0.6602569 0.3065397
vt 0.5152838 0.2730654
vt 0.5768842 0.2804908
vt 0.5815363 0.2730654
vt 0.5198154 0.2804908
vt 0.598495 0.2730654
vt 0.6609251 0.2804908
vt 0.6647857 0.2730654
vt 0.602378 0.2804908
vt 0.654056 0.4132502
vt 0.7303788 0.3724838
vt 0.7028884 0.357708
vt 0.7336833 0.4132544
vt 0.7369899 0.3806721
vt 0.6980308 0.3322874
vt 0.6540542 0.3355193
vt 0.5816012 0.2968443
vt 0.5447004 0.2825068
vt 0.5368295 0.2968443
vt 0.5816012 0.2825068
vt 0.5985792 0.2968443
vt 0.6647804 0.2825068
vt 0.5985792 0.2825068
vt 0.6647804 0.2968443
vt 0.5815363 0.2710529
vt 0.5152838 0.2567155
vt 0.5152838 0.2710529
vt 0.5815363 0.2567155
vt 0.5507978 0.2990294
vt 0.5205742 0.3065457
vt 0.5205742 0.2990294
vt 0.5507978 0.3065457
vt 0.5154018 0.2990294
vt 0.5985792 0.2991143
vt 0.6602569 0.3065397
vt 0.6647804 0.2991143
vt 0.6032035 0.3065397
vt 0.5198154 0.2804908
vt 0.5815363 0.2730654
vt 0.5152838 0.2730654
vt 0.5768842 0.2804908
vt 0.598495 0.2710529
vt 0.6257933 0.2567155
vt 0.598495 0.2567155
vt 0.6358129 0.2710529
vt 0.6638095 0.2728801
vt 0.6562465 0.2804556
vt 0.6540264 0.2728801
vt 0.6311613 0.2804556
vt 0.6311613 0.2728801
vt 0.1406135 0.3283875
vt 0.1703425 0.3389291
vt 0.1616638 0.3175412
vt 0.2033279 0.3206225
vt 0.145544 0.3131984
vt 0.1591132 0.3049859
vt 0.1856769 0.3016255
vt 0.2036876 0.3057516
vt 0.2159758 0.31894
vt 0.5565755 0.2968443
vt 0.51535 0.2825068
vt 0.51535 0.2968443
vt 0.563377 0.2825068
vt 0.1722193 0.3007703
vt 0.2378899 0.2801605
vt 0.1833038 0.284869
vt 0.2299914 0.2992359
vt 0.2133828 0.3089527
vt 0.5155027 0.2968612
vt 0.5814934 0.2824828
vt 0.5155027 0.2824828
vt 0.5814934 0.2968612
vt 0.5155027 0.2968612
vt 0.5814934 0.2824828
vt 0.5155027 0.2824828
vt 0.5814934 0.2968612
vt 0.5155026 0.2968612
vt 0.5814934 0.2824828
vt 0.5155027 0.2824828
vt 0.5814934 0.2968612
vt 0.5814934 0.2968612
vt 0.5155027 0.2824828
vt 0.5155027 0.2968612
vt 0.5814934 0.2824828
vt 0.571631 0.190518
vt 0.5121408 0.1426696
vt 0.5177836 0.1907071
vt 0.5803559 0.1233549
vt 0.5205759 0.1233549
vt 0.57508 0.1906085
vt 0.5092213 0.1234536
vt 0.5181108 0.1906064
vt 0.5791942 0.1422172
vt 0.5686171 0.1234536
vt 0.5733984 0.1904515
vt 0.513555 0.1572581
vt 0.5438294 0.1907768
vt 0.5822077 0.1232852
vt 0.5087342 0.1232853
vt 0.1751604 0.3291948
vt 0.2004415 0.3101444
vt 0.1744952 0.2980428
vt 0.6369003 0.2932883
vt 0.6085275 0.2827504
vt 0.6130843 0.290516
vt 0.6501492 0.2827504
vt 0.161963 0.3286963
vt 0.2003029 0.302406
vt 0.1422153 0.2794691
vt 0.518171 0.1905017
vt 0.5753964 0.1573693
vt 0.5094256 0.1233311
vt 0.5539998 0.1907309
vt 0.5820993 0.123331
vt 0.654056 0.4132502
vt 0.6774455 0.3322874
vt 0.6507494 0.3575379
vn 0 -1 0
vn 0 -1 0
vn 0 -1 0
vn 0 -1 0
vn 0 2.091093E-07 1
vn 0 2.091093E-07 1
vn 0 2.091093E-07 1
vn 0 2.091093E-07 1
vn 1 0 0
vn 1 0 0
vn 1 0 0
vn 1 0 0
vn 0 0 -1
vn 0 1.86854E-07 -1
vn 0 2.091093E-07 -1
vn 0 0 -1
vn -1 0 0
vn -1 0 0
vn -1 0 0
vn -1 0 0
vn 0 0.6760999 0.73681
vn 0 0.6760999 0.73681
vn 0 0.6760999 0.73681
vn 0 0.6760999 0.73681
vn 0.7368102 0.6760996 0
vn 0.7368102 0.6760996 0
vn 0.7368102 0.6760997 0
vn 0.7368102 0.6760997 0
vn 0 0.6760998 -0.73681
vn 0 0.6761001 -0.7368098
vn 0 0.6760999 -0.73681
vn 0 0.6761001 -0.7368098
vn -0.7368101 0.6760997 0
vn -0.7368102 0.6760996 0
vn -0.7368102 0.6760997 0
vn -0.7368101 0.6760997 0
vn 0 1 0
vn 0 1 0
vn 0 1 0
vn 0 1 -1.018942E-07
vn 0.003741167 -0.0003204633 -0.999993
vn 0.003324682 -0.002765627 -0.9999907
vn 0.003287527 -0.002983758 -0.9999902
vn 0.003795751 0 -0.9999928
vn 1 0 0
vn 1 0 0
vn 1 0 0
vn 1 0 0
vn -1.358042E-07 -5.455035E-07 1
vn 0 0 1
vn -1.411513E-07 -5.902209E-07 1
vn 0 0 1
vn -0.7244834 -0.6892912 0.001214189
vn -0.6105434 -0.7916346 -0.02348476
vn -0.7350994 -0.6779491 0.003725541
vn -0.6025153 -0.7977128 -0.02509328
vn -0.001864846 -0.8200574 -0.5722783
vn -0.02741522 -0.6855856 -0.7274757
vn 0.001801757 -0.8364487 -0.5480423
vn -0.03163644 -0.6598461 -0.7507345
vn 0.7368099 -0.6761 1.115666E-07
vn 0.7368098 -0.6761001 1.001961E-07
vn 0.7368098 -0.6761001 0
vn 0.7368099 -0.6761 1.127975E-07
vn 0 -0.6760994 0.7368104
vn 0 -0.6760991 0.7368106
vn 0 -0.6760991 0.7368106
vn 0 -0.6760994 0.7368104
vn 0 1 0
vn 0 1 0
vn 0 1 0
vn 0 1 0
vn 0 1 0
vn 0 1 0
vn 0 1 0
vn -0.06834692 -0.006796945 0.9976385
vn -0.05996309 -0.04511314 0.9971807
vn -0.05892929 -0.04980412 0.9970191
vn -0.06982292 0 0.9975594
vn -1 -3.339549E-07 0
vn -1 0 0
vn -1 -3.623157E-07 0
vn -1 0 0
vn 0 3.623159E-07 -1
vn 0 3.623157E-07 -1
vn 0 3.623157E-07 -1
vn 0 3.623159E-07 -1
vn -0.03742425 -0.7229806 0.6898541
vn -0.001673605 -0.8434764 0.5371636
vn -0.001154327 -0.8522974 0.5230561
vn -0.04163985 -0.7084823 0.704499
vn -0.008723325 -0.8522961 0.5229868
vn -0.5573524 -0.830276 0
vn -0.5573524 -0.830276 0
vn -0.5573524 -0.830276 0
vn -0.5573524 -0.830276 0
vn 0 -0.8401008 -0.5424303
vn 0 -0.8401005 -0.5424306
vn 0 -0.8401008 -0.5424303
vn 0 -0.8401005 -0.5424307
vn 0.9999276 -0.001775021 -0.01190057
vn 0.9999101 -0.009088352 -0.009861146
vn 0.9999232 0 -0.01239545
vn 0.999902 -0.01025369 -0.00953611
vn 0.4959368 -0.8661351 -0.06210308
vn 0.4886265 -0.8718812 -0.03266921
vn 0.4948594 -0.8686215 -0.02471246
vn 0.5595776 -0.8285788 0.01816656
vn 0.590633 -0.8064692 0.02756593
vn 0.512365 0.7795842 0.3601815
vn 0.217878 0.9596537 0.1777463
vn 0.6099742 0.6496729 0.4537142
vn 0.6044657 0.6099467 0.5124317
vn 0.6639447 0.4204733 0.6183685
vn 0.7667608 0.2319734 0.5985535
vn 0.7367489 0.4011473 0.5443177
vn 0.6020243 0.5387812 0.5893059
vn 0.6548259 0.5534315 0.5147007
vn -0.9999856 0.00294808 0.004485574
vn -0.9999875 0.0004016139 0.004988623
vn -0.9999872 0 0.005067958
vn -0.999985 0.003234622 0.004428966
vn -0.7919781 -0.05209497 -0.608323
vn -0.771973 0.4505512 -0.4483986
vn -0.6403632 -0.4529991 -0.6202635
vn -0.7071622 0.6188448 -0.3419833
vn -0.7398717 0.5697086 -0.3578015
vn 1 9.858925E-07 0
vn 1 5.685873E-07 0
vn 1 1.03632E-06 0
vn 1 5.181602E-07 0
vn -0.004100916 0.02659409 -0.999638
vn -0.03607795 0.2339624 -0.971576
vn 0 0 -1
vn -0.04061652 0.2633947 -0.9638327
vn -0.9732618 0.2296693 -0.003658149
vn -0.9989556 0.02626681 -0.03738674
vn -0.9679666 0.2510793 0
vn -0.9991339 0 -0.04161158
vn 0 -1.270165E-06 1
vn 0 -1.061555E-06 1
vn 0 -1.03632E-06 1
vn 0 -1.2954E-06 1
vn -0.9914591 0.1286162 -0.02160373
vn -0.9855576 0.1689499 -0.01149542
vn -0.9953331 0.09649875 0
vn -0.9854548 0.1676902 -0.02754811
vn -0.9594527 0.2818696 0
vn 0 0.1505761 -0.9885983
vn 0 0.1505761 -0.9885983
vn 0 0.1505761 -0.9885983
vn 0 0.1505761 -0.9885983
vn 0 0.1505761 -0.9885983
vn 0.9865401 0.1615214 0.02548341
vn 0.9815137 0.1913297 0.004880768
vn 0.9783046 0.2020798 0.04564874
vn 0.9859487 0.1667886 0.009312997
vn 0.9762313 0.2163721 -0.01247529
vn -0.6679554 -0.3281329 -0.6679554
vn -0.6679554 -0.3281329 -0.6679554
vn -0.6679554 -0.3281329 -0.6679554
vn 1.89022E-06 -1 -1.164174E-05
vn 1.858773E-05 -1 9.529404E-06
vn 2.885047E-05 -1 2.254176E-05
vn -1.167096E-06 -1 -1.551818E-05
vn 0.7053461 0.5636162 0.4299112
vn 0.7053462 0.5636162 0.4299112
vn 0.705346 0.5636162 0.4299112
vn 0.0173191 0.1424032 0.9896572
vn 0.0002980597 0.183887 0.9829473
vn 0.009103267 0.1691073 0.9855556
vn 0.01227191 0.1321711 0.9911509
vn -0.01574231 0.225601 0.9740926
vn 0 1 -1.616355E-07
vn 0 1 -1.616354E-07
vn 0 1 -1.616354E-07
g Area_Common_Build_Plinth_E_02_Lod1_0
f 3/3/3 2/2/2 1/1/1
f 4/4/4 1/1/1 2/2/2
f 7/7/7 6/6/6 5/5/5
f 8/8/8 5/5/5 6/6/6
f 11/11/11 10/10/10 9/9/9
f 12/12/12 9/9/9 10/10/10
f 15/15/15 14/14/14 13/13/13
f 16/16/16 13/13/13 14/14/14
f 19/19/19 18/18/18 17/17/17
f 20/20/20 17/17/17 18/18/18
f 23/23/23 22/22/22 21/21/21
f 24/24/24 21/21/21 22/22/22
f 27/27/27 26/26/26 25/25/25
f 28/28/28 25/25/25 26/26/26
f 31/31/31 30/30/30 29/29/29
f 32/32/32 29/29/29 30/30/30
f 35/35/35 34/34/34 33/33/33
f 36/36/36 33/33/33 34/34/34
f 39/39/39 38/38/38 37/37/37
f 40/40/40 37/37/37 38/38/38
f 43/43/43 42/42/42 41/41/41
f 44/44/44 41/41/41 42/42/42
f 47/47/47 46/46/46 45/45/45
f 48/48/48 45/45/45 46/46/46
f 51/51/51 50/50/50 49/49/49
f 52/52/52 49/49/49 50/50/50
f 55/55/55 54/54/54 53/53/53
f 56/56/56 53/53/53 54/54/54
f 59/59/59 58/58/58 57/57/57
f 60/60/60 57/57/57 58/58/58
f 63/63/63 62/62/62 61/61/61
f 64/64/64 61/61/61 62/62/62
f 67/67/67 66/66/66 65/65/65
f 68/68/68 65/65/65 66/66/66
f 71/71/71 70/70/70 69/69/69
f 72/72/72 69/69/69 70/70/70
f 72/72/72 70/70/70 73/73/73
f 71/71/71 69/69/69 74/74/74
f 75/75/75 74/74/74 69/69/69
f 78/78/78 77/77/77 76/76/76
f 79/79/79 76/76/76 77/77/77
f 82/82/82 81/81/81 80/80/80
f 83/83/83 80/80/80 81/81/81
f 86/86/86 85/85/85 84/84/84
f 87/87/87 84/84/84 85/85/85
f 90/90/90 89/89/89 88/88/88
f 91/91/91 88/88/88 89/89/89
f 92/92/92 89/89/89 90/90/90
f 95/95/95 94/94/94 93/93/93
f 96/96/96 93/93/93 94/94/94
f 99/99/99 98/98/98 97/97/97
f 100/100/100 97/97/97 98/98/98
f 103/103/103 102/102/102 101/101/101
f 104/104/104 101/101/101 102/102/102
f 107/107/107 106/106/106 105/105/105
f 106/106/106 107/107/107 108/108/108
f 109/109/109 108/108/108 107/107/107
f 112/112/112 111/111/111 110/110/110
f 111/111/111 112/112/112 113/113/113
f 110/110/110 114/114/114 112/112/112
f 115/115/115 112/112/112 114/114/114
f 112/112/112 116/116/116 113/113/113
f 116/116/116 112/112/112 115/115/115
f 117/117/117 113/113/113 116/116/116
f 118/118/118 113/113/113 117/117/117
f 121/121/121 120/120/120 119/119/119
f 122/122/122 119/119/119 120/120/120
f 125/125/125 124/124/124 123/123/123
f 126/126/126 123/123/123 124/124/124
f 127/127/127 123/123/123 126/126/126
f 130/130/130 129/129/129 128/128/128
f 131/131/131 128/128/128 129/129/129
f 134/134/134 133/133/133 132/132/132
f 135/135/135 132/132/132 133/133/133
f 138/138/138 137/137/137 136/136/136
f 139/139/139 136/136/136 137/137/137
f 142/142/142 141/141/141 140/140/140
f 143/143/143 140/140/140 141/141/141
f 146/146/146 145/145/145 144/144/144
f 147/147/147 144/144/144 145/145/145
f 148/148/148 147/147/147 145/145/145
f 151/151/151 150/150/150 149/149/149
f 152/152/152 149/149/149 150/150/150
f 153/153/153 152/152/152 150/150/150
f 156/156/156 155/155/155 154/154/154
f 157/157/157 154/154/154 155/155/155
f 158/158/158 157/157/157 155/155/155
f 161/161/161 160/160/160 159/159/159
f 164/164/164 163/163/163 162/162/162
f 165/165/165 162/162/162 163/163/163
f 168/168/168 167/167/167 166/166/166
f 171/171/171 170/170/170 169/169/169
f 172/172/172 169/169/169 170/170/170
f 173/173/173 170/170/170 171/171/171
f 176/176/176 175/175/175 174/174/174
