g Area_Common_Build_Ruin_B_08_Lod0
v 0.9364052 1.346927 0.9970213
v -0.8770123 0.04716014 0.9337799
v -0.9364035 1.361042 0.9970213
v 0.877014 0.04716014 0.9337799
v -0.9364052 1.422117 0.9364063
v 0.9364069 1.407088 0.9364063
v -0.9337789 0.04716015 0.8770132
v -0.9970209 1.346927 -0.9364043
v -0.9970202 1.361042 0.9364045
v -0.9337797 0.04716022 -0.8770132
v -0.936406 1.407088 -0.9364061
v -0.9364042 1.346927 -0.9970211
v -0.9364052 1.422117 0.9364063
v -0.9364035 1.361042 0.9970213
v -0.8770123 0.04716014 0.9337799
v -0.8770131 0.04716023 -0.9337797
v 0.9970219 1.346927 0.9364045
v 0.9337798 0.04716022 -0.8770131
v 0.9337807 0.04716015 0.8770134
v 0.9970213 1.361042 -0.9364043
v 0.9364069 1.407088 0.9364063
v 0.9364052 1.346927 0.9970213
v 0.9364063 1.422117 -0.9364061
v 0.9364045 1.361042 -0.9970211
v 0.8770132 0.04716023 -0.9337796
v 0.877014 0.04716014 0.9337799
v 0.8770132 0.04716023 -0.9337796
v -0.9364042 1.346927 -0.9970211
v -0.8770131 0.04716023 -0.9337797
v 0.9364045 1.361042 -0.9970211
v 0.9364063 1.422117 -0.9364061
v -0.936406 1.407088 -0.9364061
v 0.9364069 1.407088 0.9364063
v -0.936406 1.407088 -0.9364061
v 0.9364063 1.422117 -0.9364061
v -0.9364052 1.422117 0.9364063
vt 0.7328901 0.8607714
vt 0.5718641 0.745356
vt 0.5665904 0.8620247
vt 0.7276164 0.745356
vt 0.5665902 0.867448
vt 0.7328903 0.8661135
vt 0.5765986 0.7310978
vt 0.727835 0.8394964
vt 0.5716455 0.8406736
vt 0.7228818 0.7310978
vt 0.7278351 0.8445138
vt 0.7328903 0.8394964
vt 0.5716454 0.8457671
vt 0.5665902 0.8406736
vt 0.5718644 0.7310978
vt 0.7276161 0.7310978
vt 0.5716455 0.8394964
vt 0.7228818 0.7310978
vt 0.5765986 0.7310978
vt 0.727835 0.8406736
vt 0.5716454 0.8445138
vt 0.5665902 0.8394964
vt 0.7278351 0.8457671
vt 0.7328903 0.8406736
vt 0.7276161 0.7310978
vt 0.5718644 0.7310978
vt 0.7276164 0.745356
vt 0.5665903 0.8607714
vt 0.5718641 0.745356
vt 0.7328901 0.8620247
vt 0.7328902 0.867448
vt 0.5665902 0.8661135
vt 0.5909482 0.7476043
vt 0.7085323 0.8651891
vt 0.708544 0.7476084
vt 0.5909516 0.8652
vn 0.03051998 -0.003051999 0.9995295
vn -0.03129146 -0.04970381 0.9982737
vn -0.03051998 -0.003051999 0.9995295
vn 0.03129146 -0.04970381 0.9982737
vn -0.03050592 0.999069 0.03050592
vn 0.03126783 0.9990454 0.0305052
vn -0.9982495 -0.0497026 0.03205388
vn -0.9995295 -0.003051999 -0.03051998
vn -0.9995295 -0.003051999 0.03051998
vn -0.9982949 -0.04975256 -0.0305289
vn -0.03126783 0.9990454 -0.0305052
vn -0.03051998 -0.003051999 -0.9995295
vn -0.03050592 0.999069 0.03050592
vn -0.03051998 -0.003051999 0.9995295
vn -0.03129146 -0.04970381 0.9982737
vn -0.03129146 -0.04970381 -0.9982737
vn 0.9995295 -0.003051999 0.03051998
vn 0.9982495 -0.0497026 -0.03205388
vn 0.9982973 -0.04970497 0.03052897
vn 0.9995295 -0.003051999 -0.03051998
vn 0.03126783 0.9990454 0.0305052
vn 0.03051998 -0.003051999 0.9995295
vn 0.03050592 0.999069 -0.03050592
vn 0.03051998 -0.003051999 -0.9995295
vn 0.03129146 -0.04970381 -0.9982737
vn 0.03129146 -0.04970381 0.9982737
vn 0.03129146 -0.04970381 -0.9982737
vn -0.03051998 -0.003051999 -0.9995295
vn -0.03129146 -0.04970381 -0.9982737
vn 0.03051998 -0.003051999 -0.9995295
vn 0.03050592 0.999069 -0.03050592
vn -0.03126783 0.9990454 -0.0305052
vn 0.03126783 0.9990454 0.0305052
vn -0.03126783 0.9990454 -0.0305052
vn 0.03050592 0.999069 -0.03050592
vn -0.03050592 0.999069 0.03050592
g Area_Common_Build_Ruin_B_08_Lod0_0
f 3/3/3 2/2/2 1/1/1
f 4/4/4 1/1/1 2/2/2
f 3/3/3 1/1/1 5/5/5
f 6/6/6 5/5/5 1/1/1
f 9/9/9 8/8/8 7/7/7
f 10/10/10 7/7/7 8/8/8
f 8/8/8 9/9/9 11/11/11
f 12/12/12 8/8/8 11/11/11
f 13/13/13 11/11/11 9/9/9
f 13/13/13 9/9/9 14/14/14
f 9/9/9 7/7/7 14/14/14
f 15/15/15 14/14/14 7/7/7
f 10/10/10 8/8/8 16/16/16
f 12/12/12 16/16/16 8/8/8
f 19/19/19 18/18/18 17/17/17
f 20/20/20 17/17/17 18/18/18
f 17/17/17 20/20/20 21/21/21
f 17/17/17 21/21/21 22/22/22
f 23/23/23 21/21/21 20/20/20
f 24/24/24 23/23/23 20/20/20
f 20/20/20 18/18/18 24/24/24
f 25/25/25 24/24/24 18/18/18
f 22/22/22 26/26/26 17/17/17
f 19/19/19 17/17/17 26/26/26
f 29/29/29 28/28/28 27/27/27
f 30/30/30 27/27/27 28/28/28
f 30/30/30 28/28/28 31/31/31
f 32/32/32 31/31/31 28/28/28
f 35/35/35 34/34/34 33/33/33
f 36/36/36 33/33/33 34/34/34
