g Area_CS_MdBuild_SdBridge01_02
v 0.1115654 0.5079247 -0.2541524
v -0.03591487 0.5089892 -0.2501186
v 0.06784178 0.4921044 -0.3973219
v -0.1563446 0.4974869 -0.386812
v -0.1214371 0.5001152 -0.1570246
v -0.3582476 0.4880266 -0.3668531
v -0.267424 0.4988305 -0.1086617
v -0.3238635 0.4936355 -0.07099748
v -0.3268183 -0.4951631 0.1466622
v -0.123152 -0.4806024 -0.1431905
v -0.3406245 -0.4969569 -0.08773407
v -0.1066787 -0.4826643 0.144757
v 0.1016016 -0.4550754 -0.1630326
v -0.1155991 -0.471868 -0.3781417
v 0.1287332 -0.4470309 -0.4118794
v 0.1186901 -0.4594139 0.1042129
v 0.3192604 -0.452494 0.01549858
v 0.1086545 -0.4827911 0.26156
v 0.3382042 -0.4532273 0.1200994
v 0.3483044 -0.4554379 0.2340954
v 0.2904974 -0.4546246 -0.08672357
v 0.243959 -0.4383739 -0.3341362
v 0.3009323 -0.4408589 -0.1903186
v -0.3388366 -0.4981571 -0.3510277
v 0.2904974 -0.4546246 -0.08672357
v 0.2544247 -0.4794782 0.2683999
v -0.1333355 -0.4900154 0.3780555
v -0.2862043 -0.4976588 0.3997643
v -0.3406245 -0.4969569 -0.08773407
v -0.3388366 -0.4981571 -0.3510277
v -0.3573918 -0.1166131 -0.3784148
v -0.3284263 0.1761532 -0.003853178
v -0.3756995 0.3144685 -0.3821402
v -0.3130887 0.01469888 0.2085949
v -0.3047101 -0.2336704 0.3791236
v -0.3268183 -0.4951631 0.1466622
v -0.3211446 0.3465971 0.008659248
v -0.3238635 0.4936355 -0.07099748
v -0.3582476 0.4880266 -0.3668531
v -0.278501 -0.3472004 0.4497689
v -0.2862043 -0.4976588 0.3997643
v -0.1242612 0.3288934 -0.4059282
v -0.3573918 -0.1166131 -0.3784148
v -0.1091928 -0.1010846 -0.4073529
v -0.3756995 0.3144685 -0.3821402
v -0.3388366 -0.4981571 -0.3510277
v -0.1155991 -0.471868 -0.3781417
v 0.1612416 -0.3904098 -0.4198382
v 0.1788822 -0.2917127 -0.425446
v 0.1502751 -0.1201718 -0.4378058
v 0.1705686 0.02311093 -0.4416458
v 0.1645905 0.2078687 -0.4286164
v -0.3582476 0.4880266 -0.3668531
v -0.1563446 0.4974869 -0.386812
v 0.1189783 0.3658526 -0.4195386
v 0.06784178 0.4921044 -0.3973219
v 0.1287332 -0.4470309 -0.4118794
v 0.2569688 -0.02702682 -0.3088353
v 0.2094522 0.05947558 -0.3050207
v 0.2094134 -0.00593723 -0.3347803
v 0.2713436 -0.1702423 -0.3367831
v 0.2021236 -0.1565848 -0.3492266
v 0.2768612 -0.03716445 -0.2923884
v 0.3093315 -0.1810289 -0.3241374
v 0.2267879 -0.2484575 -0.3523604
v 0.3022172 -0.2575361 -0.3311855
v 0.2586334 -0.3070464 -0.3535308
v 0.200248 0.1114276 -0.2714018
v 0.2904974 -0.4546246 -0.08672357
v 0.3008005 -0.3574614 -0.1032561
v 0.3009323 -0.4408589 -0.1903186
v 0.3104158 -0.3595886 -0.002303076
v 0.3192604 -0.452494 0.01549858
v 0.1788822 -0.2917127 -0.425446
v 0.2267879 -0.2484575 -0.3523604
v 0.2021236 -0.1565848 -0.3492266
v 0.1502751 -0.1201718 -0.4378058
v 0.2094134 -0.00593723 -0.3347803
v 0.1705686 0.02311093 -0.4416458
v 0.1645905 0.2078687 -0.4286164
v 0.2071451 0.1821593 -0.3489495
v 0.1189783 0.3658526 -0.4195386
v 0.1525825 0.3476498 -0.311927
v 0.1658803 0.344115 -0.2206247
v 0.1879925 0.1788791 -0.2241015
v 0.200248 0.1114276 -0.2714018
v 0.2348371 0.01534896 -0.197265
v 0.1380691 0.2003448 -0.01227237
v 0.1297203 0.3597647 -0.1567917
v 0.183635 0.004279115 -0.1036047
v 0.2320493 -0.1523525 -0.1095991
v 0.2477181 -0.1771898 -0.2064134
v 0.3008005 -0.3574614 -0.1032561
v 0.2809343 -0.3368438 -0.2727004
v 0.2538427 -0.1876521 -0.003625784
v 0.3104158 -0.3595886 -0.002303076
v 0.3009323 -0.4408589 -0.1903186
v 0.221462 0.0333893 0.02200858
v 0.3185679 -0.2153842 0.08837577
v 0.3382042 -0.4532273 0.1200994
v 0.3483044 -0.4554379 0.2340954
v 0.3192604 -0.452494 0.01549858
v 0.243959 -0.4383739 -0.3341362
v 0.2586334 -0.3070464 -0.3535308
v 0.1612416 -0.3904098 -0.4198382
v 0.1287332 -0.4470309 -0.4118794
v 0.3022172 -0.2575361 -0.3311855
v 0.2586334 -0.3070464 -0.3535308
v 0.3093315 -0.1810289 -0.3241374
v 0.2768612 -0.03716445 -0.2923884
v 0.2094522 0.05947558 -0.3050207
v 0.06784178 0.4921044 -0.3973219
v 0.1115654 0.5079247 -0.2541524
v -0.278501 -0.3472004 0.4497689
v -0.1333355 -0.4900154 0.3780555
v -0.2862043 -0.4976588 0.3997643
v 0.3185679 -0.2153842 0.08837577
v 0.2544247 -0.4794782 0.2683999
v 0.06136582 -0.2140519 0.2849598
v 0.3483044 -0.4554379 0.2340954
v 0.221462 0.0333893 0.02200858
v 0.1086545 -0.4827911 0.26156
v -0.3047101 -0.2336704 0.3791236
v -0.1333355 -0.4900154 0.3780555
v -0.278501 -0.3472004 0.4497689
v -0.01339396 -0.04061309 0.1985057
v 0.1380691 0.2003448 -0.01227237
v -0.08852282 0.1842692 0.05196619
v 0.1297203 0.3597647 -0.1567917
v -0.1214371 0.5001152 -0.1570246
v -0.03591487 0.5089892 -0.2501186
v 0.1115654 0.5079247 -0.2541524
v -0.267424 0.4988305 -0.1086617
v -0.3238635 0.4936355 -0.07099748
v -0.3130887 0.01469888 0.2085949
v -0.3284263 0.1761532 -0.003853178
v -0.3211446 0.3465971 0.008659248
vt 0.5912517 1.573815
vt 0.5517857 1.576744
vt 0.5819476 1.61358
vt 0.5217322 1.616144
vt 0.5275584 1.55433
vt 0.4692046 1.616107
vt 0.4883578 1.545327
vt 0.4729585 1.536822
vt 0.4012016 1.64685
vt 0.458861 1.720427
vt 0.4012901 1.709429
vt 0.4584739 1.643251
vt 0.517666 1.720872
vt 0.4641217 1.782988
vt 0.5281157 1.786087
vt 0.5178313 1.649276
vt 0.571411 1.668983
vt 0.5122403 1.607496
vt 0.574343 1.64061
vt 0.5748079 1.610068
vt 0.565596 1.697275
vt 0.55727 1.764362
vt 0.5702106 1.72584
vt 0.4053243 1.780041
vt 0.5651681 1.704094
vt 0.5495749 1.60281
vt 0.4473815 1.581868
vt 0.4071858 1.57933
vt 0.1387231 1.492899
vt 0.14235 1.555262
vt 0.2331592 1.556182
vt 0.2965658 1.46268
vt 0.3353702 1.551138
vt 0.2551107 1.41473
vt 0.1937688 1.378008
vt 0.135328 1.437079
vt 0.3366829 1.457014
vt 0.3727086 1.473664
vt 0.376338 1.544361
vt 0.1658342 1.361913
vt 0.1309858 1.375904
vt 0.4834244 1.452072
vt 0.3870634 1.397771
vt 0.3854759 1.455321
vt 0.4792189 1.39469
vt 0.3092141 1.389179
vt 0.3061526 1.439642
vt 0.3091766 1.507008
vt 0.3322835 1.516202
vt 0.376737 1.5146
vt 0.4128987 1.521132
vt 0.4564008 1.518605
vt 0.5185684 1.39682
vt 0.5212902 1.441712
vt 0.492916 1.505846
vt 0.5182381 1.492888
vt 0.291995 1.494318
vt 0.3169746 1.279115
vt 0.3274147 1.252964
vt 0.3330935 1.273915
vt 0.3194596 1.324174
vt 0.3386543 1.319636
vt 0.3091447 1.281299
vt 0.308526 1.327734
vt 0.3340398 1.348466
vt 0.3122587 1.352759
vt 0.3271716 1.368479
vt 0.3226584 1.234997
vt 0.2854218 1.421145
vt 0.2992291 1.423069
vt 0.2889203 1.435482
vt 0.3006088 1.411489
vt 0.3002903 1.404498
vt 0.3827586 1.512398
vt 0.391624 1.499139
vt 0.4021937 1.501592
vt 0.4025321 1.520212
vt 0.4217862 1.506139
vt 0.4165995 1.528488
vt 0.4395424 1.528656
vt 0.4404865 1.51145
vt 0.4582681 1.538018
vt 0.4623711 1.508501
vt 0.4661346 1.492866
vt 0.4465553 1.488322
vt 0.4332347 1.501476
vt 0.4269742 1.483777
vt 0.4583723 1.45442
vt 0.4709559 1.482624
vt 0.4321656 1.461416
vt 0.4125731 1.456869
vt 0.407385 1.479231
vt 0.3871207 1.448416
vt 0.3877958 1.474685
vt 0.4133689 1.435845
vt 0.3899037 1.429133
vt 0.3686725 1.466206
vt 0.4407889 1.43747
vt 0.4119723 1.416929
vt 0.3837906 1.403071
vt 0.3886524 1.382123
vt 0.3799166 1.419764
vt 0.3592612 1.500007
vt 0.3826068 1.497043
vt 0.3703388 1.522681
vt 0.3593194 1.529134
vt 0.3927254 1.499389
vt 0.384576 1.497499
vt 0.4021983 1.501587
vt 0.4217842 1.506133
vt 0.430582 1.499786
vt 0.4717644 1.538496
vt 0.4825907 1.511114
vt 0.3637919 1.223007
vt 0.4007828 1.217191
vt 0.3756359 1.195434
vt 0.4532133 1.320614
vt 0.465477 1.260462
vt 0.4070426 1.287022
vt 0.4796926 1.273533
vt 0.4170215 1.358143
vt 0.4409641 1.250646
vt 0.3481898 1.247604
vt 0.4007828 1.217191
vt 0.3637919 1.223007
vt 0.3804443 1.314884
vt 0.3857892 1.378424
vt 0.3487631 1.356872
vt 0.3761978 1.417778
vt 0.3213042 1.42044
vt 0.3360677 1.438795
vt 0.3610683 1.448612
vt 0.2966171 1.406565
vt 0.2864861 1.397861
vt 0.329885 1.300353
vt 0.3059786 1.342371
vt 0.2988315 1.371395
vn 0.01968033 0.8717951 0.4894753
vn 0.1059626 0.9709275 0.2146431
vn 0.01167273 0.9943164 -0.1058239
vn -0.03764198 0.998816 -0.03081677
vn 0.1807505 0.8772748 0.4446551
vn -0.04556186 0.9988537 -0.01467537
vn 0.1444181 0.9146305 0.3776167
vn 0.2023724 0.8156403 0.5420113
vn 0.05918875 -0.9981636 -0.01288329
vn 0.09581971 -0.9952775 -0.01553105
vn 0.07599874 -0.9971 0.003977566
vn 0.06206063 -0.9975091 -0.03352592
vn 0.07903308 -0.9963933 -0.03089057
vn 0.1078417 -0.9937187 -0.02988657
vn 0.09444422 -0.9952897 -0.02187771
vn 0.06508696 -0.9951192 -0.07417193
vn 0.02097942 -0.9997532 -0.007311022
vn 0.04053694 -0.9926273 -0.1142268
vn 0.02945477 -0.9994076 -0.01779889
vn 0.09047602 -0.987414 -0.1297216
vn 0.0152998 -0.9993718 -0.03196958
vn 0.07949198 -0.9963497 -0.03111746
vn 0.05934904 -0.9946402 -0.08466838
vn 0.09541806 -0.995325 -0.01495177
vn 0.0152998 -0.9993718 -0.03196958
vn 0.1167193 -0.969618 -0.2149831
vn 0.03868655 -0.9989636 -0.02398162
vn 0.04745582 -0.9987206 -0.01746309
vn -0.9989107 -0.003517978 0.04653125
vn -0.9987751 -0.04904324 -0.006558815
vn -0.9975964 -0.01678216 0.0672277
vn -0.9947507 0.00397312 0.1022509
vn -0.9927331 0.02414688 0.1178891
vn -0.9971607 0.0104757 0.0745712
vn -0.9917176 -0.03131674 0.1245609
vn -0.9957559 0.0109976 0.09137488
vn -0.9899842 0.0421699 0.1347329
vn -0.9896904 0.06277935 0.1287306
vn -0.9895192 0.08951961 0.1133041
vn -0.9801468 -0.06421162 0.1875873
vn -0.98737 -0.002097751 0.1584176
vn -0.08504685 0.05754199 -0.994714
vn -0.1095593 -0.04115966 -0.9931277
vn -0.116803 -0.03756393 -0.9924445
vn -0.09635374 0.03939459 -0.9945673
vn -0.1111374 -0.07628095 -0.9908732
vn -0.1185776 -0.07529621 -0.9900858
vn -0.1151807 -0.06095051 -0.9914728
vn -0.09926632 -0.05571391 -0.9934999
vn -0.1202317 -0.05275581 -0.9913431
vn -0.1022356 0.01318942 -0.9946728
vn -0.05328884 0.05968129 -0.996794
vn -0.1003885 0.09557018 -0.9903476
vn -0.07666472 0.09791685 -0.9922373
vn -0.06850275 0.08477539 -0.9940426
vn -0.06477316 0.128422 -0.989602
vn -0.1300728 -0.06439535 -0.9894111
vn 0.6394215 0.3146825 -0.7015091
vn 0.9344318 0.2385378 -0.2644557
vn 0.7867693 0.1191163 -0.6056446
vn 0.3101813 0.1452663 -0.9395133
vn 0.6009847 0.09649107 -0.7934147
vn 0.9465137 0.2693639 -0.1776372
vn 0.9326935 0.09076872 -0.3490615
vn 0.4860269 0.2115182 -0.847961
vn 0.913811 -0.09595536 -0.3946415
vn 0.721604 -0.1054055 -0.6842347
vn 0.9779073 0.2080806 0.01999283
vn 0.9956619 -0.06481376 -0.06675761
vn 0.9917237 0.1170785 -0.05269542
vn 0.9922545 -0.006395696 -0.1240572
vn 0.9737419 0.1153567 -0.1962643
vn 0.9744384 0.05083621 -0.2188274
vn 0.7343281 0.06361322 -0.6758074
vn 0.4860269 0.2115182 -0.847961
vn 0.6009847 0.09649107 -0.7934147
vn 0.8885083 0.007541914 -0.4587985
vn 0.7867693 0.1191163 -0.6056446
vn 0.936739 -0.03024749 -0.3487195
vn 0.9002256 0.1660805 -0.402506
vn 0.9745883 0.1247406 -0.1860577
vn 0.8986583 0.3674317 -0.2395979
vn 0.9219416 0.339121 -0.1871378
vn 0.9452266 0.2518276 0.2076766
vn 0.9677892 0.1959966 0.1580171
vn 0.9779073 0.2080806 0.01999283
vn 0.9335715 0.2230129 0.2805518
vn 0.9602006 0.2578076 0.1074714
vn 0.9005107 0.2520875 0.3543054
vn 0.9681006 0.2143102 0.1298169
vn 0.9737754 0.2271873 0.01213514
vn 0.9649025 0.1314355 0.2273492
vn 0.9917237 0.1170785 -0.05269542
vn 0.9868295 -0.04563065 -0.1551947
vn 0.9193426 0.2401562 -0.3116634
vn 0.9737419 0.1153567 -0.1962643
vn 0.9922545 -0.006395696 -0.1240572
vn 0.8947019 0.2909232 -0.3389279
vn 0.8994497 0.1798912 -0.3982832
vn 0.9896158 0.06502531 -0.1281881
vn 0.9937398 0.07048172 -0.08668033
vn 0.9744384 0.05083621 -0.2188274
vn 0.8049012 -0.1959497 -0.5601229
vn 0.721604 -0.1054055 -0.6842347
vn 0.6027505 -0.2789381 -0.7475865
vn 0.531245 -0.4092785 -0.7418017
vn 0.913811 -0.09595536 -0.3946415
vn 0.721604 -0.1054055 -0.6842347
vn 0.9326935 0.09076872 -0.3490615
vn 0.9465137 0.2693639 -0.1776372
vn 0.9344318 0.2385378 -0.2644557
vn 0.8915105 0.3619637 -0.2723807
vn 0.9297287 0.3436114 -0.1324222
vn 0.1488686 -0.3187277 0.9360826
vn 0.1488685 -0.3187277 0.9360826
vn 0.1488685 -0.3187277 0.9360826
vn 0.5218249 0.4097756 0.7481862
vn 0.2566745 0.2913066 0.9215522
vn 0.3444085 0.2958168 0.8909968
vn 0.1695227 0.5266572 0.8330031
vn 0.4832359 0.4276822 0.7639183
vn 0.1224985 -0.01316939 0.9923813
vn 0.3510776 0.4034093 0.8449884
vn 0.4685218 0.3097742 0.8273616
vn 0.7195907 0.4789738 0.5027657
vn 0.2536412 0.5386081 0.8034722
vn 0.2551045 0.5801155 0.7735552
vn 0.1118888 0.5676365 0.8156406
vn 0.2349867 0.6209756 0.747777
vn 0.1807505 0.8772748 0.4446551
vn 0.1059626 0.9709275 0.2146431
vn 0.01968033 0.8717951 0.4894753
vn 0.1444181 0.9146305 0.3776167
vn 0.2023724 0.8156403 0.5420113
vn 0.05354205 0.6346154 0.7709711
vn -0.221635 0.3826388 0.89692
vn 0.04538611 0.3177137 0.9470998
g Area_CS_MdBuild_SdBridge01_02_0
f 3/3/3 2/2/2 1/1/1
f 3/3/3 4/4/4 2/2/2
f 2/2/2 4/4/4 5/5/5
f 4/4/4 6/6/6 5/5/5
f 7/7/7 5/5/5 6/6/6
f 8/8/8 7/7/7 6/6/6
f 11/11/11 10/10/10 9/9/9
f 12/12/12 9/9/9 10/10/10
f 12/12/12 10/10/10 13/13/13
f 13/13/13 10/10/10 14/14/14
f 14/14/14 15/15/15 13/13/13
f 13/13/13 16/16/16 12/12/12
f 16/16/16 13/13/13 17/17/17
f 16/16/16 18/18/18 12/12/12
f 17/17/17 19/19/19 16/16/16
f 19/19/19 20/20/20 16/16/16
f 17/17/17 13/13/13 21/21/21
f 22/22/22 13/13/13 15/15/15
f 13/13/13 22/22/22 23/23/23
f 14/14/14 10/10/10 24/24/24
f 11/11/11 24/24/24 10/10/10
f 23/23/23 25/25/25 13/13/13
f 16/16/16 26/26/26 18/18/18
f 16/16/16 20/20/20 26/26/26
f 18/18/18 27/27/27 12/12/12
f 12/12/12 27/27/27 9/9/9
f 28/28/28 9/9/9 27/27/27
f 31/31/31 30/30/30 29/29/29
f 32/32/32 31/31/31 29/29/29
f 33/33/33 31/31/31 32/32/32
f 34/34/34 32/32/32 29/29/29
f 35/35/35 34/34/34 29/29/29
f 35/35/35 29/29/29 36/36/36
f 32/32/32 37/37/37 33/33/33
f 38/38/38 33/33/33 37/37/37
f 39/39/39 33/33/33 38/38/38
f 35/35/35 36/36/36 40/40/40
f 36/36/36 41/41/41 40/40/40
g Area_CS_MdBuild_SdBridge01_02_1
f 44/44/44 43/43/43 42/42/42
f 45/45/45 42/42/42 43/43/43
f 43/43/43 44/44/44 46/46/46
f 47/47/47 46/46/46 44/44/44
f 48/48/48 47/47/47 44/44/44
f 49/49/49 48/48/48 44/44/44
f 50/50/50 49/49/49 44/44/44
f 51/51/51 44/44/44 42/42/42
f 51/51/51 50/50/50 44/44/44
f 42/42/42 52/52/52 51/51/51
f 45/45/45 53/53/53 42/42/42
f 54/54/54 42/42/42 53/53/53
f 55/55/55 52/52/52 42/42/42
f 42/42/42 56/56/56 55/55/55
f 42/42/42 54/54/54 56/56/56
f 57/57/57 47/47/47 48/48/48
f 60/60/60 59/59/59 58/58/58
f 60/60/60 58/58/58 61/61/61
f 61/61/61 62/62/62 60/60/60
f 61/61/61 58/58/58 63/63/63
f 63/63/63 64/64/64 61/61/61
f 61/61/61 65/65/65 62/62/62
f 61/61/61 64/64/64 66/66/66
f 67/67/67 61/61/61 66/66/66
f 67/67/67 65/65/65 61/61/61
f 68/68/68 63/63/63 58/58/58
f 59/59/59 68/68/68 58/58/58
g Area_CS_MdBuild_SdBridge01_02_2
f 71/71/71 70/70/70 69/69/69
f 69/69/69 70/70/70 72/72/72
f 73/73/73 69/69/69 72/72/72
f 76/76/76 75/75/75 74/74/74
f 74/74/74 77/77/77 76/76/76
f 77/77/77 78/78/78 76/76/76
f 77/77/77 79/79/79 78/78/78
f 78/78/78 79/79/79 80/80/80
f 80/80/80 81/81/81 78/78/78
f 81/81/81 80/80/80 82/82/82
f 82/82/82 83/83/83 81/81/81
f 81/81/81 83/83/83 84/84/84
f 84/84/84 85/85/85 81/81/81
f 81/81/81 85/85/85 86/86/86
f 85/85/85 87/87/87 86/86/86
f 87/87/87 85/85/85 88/88/88
f 88/88/88 85/85/85 89/89/89
f 89/89/89 85/85/85 84/84/84
f 88/88/88 90/90/90 87/87/87
f 87/87/87 90/90/90 91/91/91
f 91/91/91 92/92/92 87/87/87
f 92/92/92 91/91/91 93/93/93
f 93/93/93 94/94/94 92/92/92
f 93/93/93 91/91/91 95/95/95
f 95/95/95 96/96/96 93/93/93
f 97/97/97 94/94/94 93/93/93
f 98/98/98 90/90/90 88/88/88
f 91/91/91 90/90/90 98/98/98
f 98/98/98 95/95/95 91/91/91
f 95/95/95 98/98/98 99/99/99
f 96/96/96 95/95/95 99/99/99
f 99/99/99 100/100/100 96/96/96
f 100/100/100 99/99/99 101/101/101
f 100/100/100 102/102/102 96/96/96
f 94/94/94 97/97/97 103/103/103
f 104/104/104 94/94/94 103/103/103
f 104/104/104 103/103/103 105/105/105
f 105/105/105 74/74/74 104/104/104
f 103/103/103 106/106/106 105/105/105
f 74/74/74 75/75/75 104/104/104
f 94/94/94 108/108/108 107/107/107
f 107/107/107 92/92/92 94/94/94
f 107/107/107 109/109/109 92/92/92
f 92/92/92 109/109/109 110/110/110
f 110/110/110 87/87/87 92/92/92
f 87/87/87 110/110/110 86/86/86
f 86/86/86 111/111/111 81/81/81
f 111/111/111 78/78/78 81/81/81
f 113/113/113 83/83/83 112/112/112
f 82/82/82 112/112/112 83/83/83
f 113/113/113 84/84/84 83/83/83
f 113/113/113 89/89/89 84/84/84
f 116/116/116 115/115/115 114/114/114
f 119/119/119 118/118/118 117/117/117
f 120/120/120 117/117/117 118/118/118
f 121/121/121 119/119/119 117/117/117
f 122/122/122 118/118/118 119/119/119
f 123/123/123 122/122/122 119/119/119
f 124/124/124 122/122/122 123/123/123
f 125/125/125 124/124/124 123/123/123
f 123/123/123 119/119/119 126/126/126
f 121/121/121 126/126/126 119/119/119
f 127/127/127 126/126/126 121/121/121
f 128/128/128 126/126/126 127/127/127
f 129/129/129 128/128/128 127/127/127
f 130/130/130 128/128/128 129/129/129
f 131/131/131 130/130/130 129/129/129
f 132/132/132 131/131/131 129/129/129
f 133/133/133 128/128/128 130/130/130
f 134/134/134 128/128/128 133/133/133
f 135/135/135 126/126/126 128/128/128
f 123/123/123 126/126/126 135/135/135
f 136/136/136 135/135/135 128/128/128
f 137/137/137 136/136/136 128/128/128
f 134/134/134 137/137/137 128/128/128
