g Area_Common_Build_Plinth_A_02_Lod0
v 3.444752 0.650485 1.190351
v -3.444788 0.6504847 1.190351
v -3.444788 0.6504852 0.003616544
v 3.444752 0.6504852 0.003616688
v 3.444752 0.5087888 1.331749
v -3.444788 0.5087881 1.331749
v -3.444788 0.6504847 1.190351
v 3.444752 0.650485 1.190351
v 3.444752 -0.01513412 0.003616676
v -3.444788 -0.01513397 0.003616489
v -3.444788 -0.01497747 1.331749
v 3.444752 -0.01497732 1.33175
v 3.444752 0.5087886 -1.331749
v -3.444788 0.5087889 -1.331749
v -3.444788 -0.01497717 -1.33175
v 3.444752 -0.01497721 -1.331749
v 3.444752 3.305853 0.002130005
v 3.444752 3.305853 1.004889
v -3.444788 3.305853 1.001276
v -3.444788 3.305854 -0.0007210994
v 3.444752 3.08224 1.228032
v -3.444788 3.08224 1.223625
v -3.444788 3.305853 1.001276
v 3.444752 3.305853 1.004889
v 3.444752 2.778422 1.228032
v 3.444752 2.778174 0.002130012
v -3.444788 2.778569 -0.001090412
v -3.444788 2.778422 1.223627
v 3.444752 2.778422 -1.223772
v 3.444752 3.08224 -1.223772
v -3.444788 3.08224 -1.217799
v -3.444788 2.778422 -1.217801
v -3.444788 3.305854 -0.0007210994
v -3.444788 3.305854 -0.002198227
v -3.444788 3.305853 -0.9964017
v 3.444752 2.728378 1.006478
v -3.444788 2.728378 1.006478
v -3.444788 3.227511 1.006478
v 3.444752 3.227511 1.006478
v 3.444752 3.384459 0.8204477
v 3.444752 3.227511 1.006478
v -3.444788 3.227511 1.006478
v -3.444788 3.384459 0.820448
v 3.444752 3.384459 0.4742192
v -3.444788 3.38446 0.4742192
v -3.444788 2.728378 0.4742192
v 3.444752 2.728378 0.4742192
v 3.444752 3.38446 -0.3556646
v -3.444788 3.384459 -0.3556639
v -3.444788 3.384459 -0.7018927
v 3.444752 3.384459 -0.7018936
v 3.444752 2.728378 -0.3556646
v 3.444752 2.728378 -0.887924
v -3.444788 2.728378 -0.8879232
v -3.444788 2.728378 -0.355664
v -3.444788 -0.01497747 1.331749
v -3.444788 0.5087881 1.331749
v 3.444752 0.5087888 1.331749
v 3.444752 -0.01497732 1.33175
v -3.444788 0.6504852 0.003616544
v -3.444788 0.650485 -1.190351
v 3.444752 0.6504849 -1.19035
v 3.444752 0.6504852 0.003616688
v -3.444788 0.650485 -1.190351
v -3.444788 0.5087889 -1.331749
v 3.444752 0.5087886 -1.331749
v 3.444752 0.6504849 -1.19035
v -3.444788 -0.01497717 -1.33175
v -3.444788 -0.01513397 0.003616489
v 3.444752 -0.01513412 0.003616676
v 3.444752 -0.01497721 -1.331749
v -3.444788 3.305853 -0.9964017
v -3.444788 3.08224 -1.217799
v 3.444752 3.08224 -1.223772
v 3.444752 3.305853 -1.00063
v -3.444788 2.778422 -1.217801
v -3.444788 2.778569 -0.001090412
v 3.444752 2.778174 0.002130012
v 3.444752 2.778422 -1.223772
v -3.444788 2.778422 1.223627
v -3.444788 3.08224 1.223625
v 3.444752 3.08224 1.228032
v 3.444752 2.778422 1.228032
v -3.444788 3.384459 0.820448
v -3.444788 3.38446 0.4742192
v 3.444752 3.384459 0.4742192
v 3.444752 3.384459 0.8204477
v -3.444788 2.728378 0.4742192
v -3.444788 2.728378 1.006478
v 3.444752 2.728378 1.006478
v 3.444752 2.728378 0.4742192
v -3.444788 3.338015 0.5082467
v -3.444788 3.338015 -0.385841
v 3.444752 3.338015 -0.385841
v 3.444752 3.338015 0.5082467
v -3.444788 3.227511 -0.8879234
v -3.444788 2.728378 -0.8879232
v 3.444752 2.728378 -0.887924
v 3.444752 3.227511 -0.8879242
v -3.444788 3.384459 -0.7018927
v -3.444788 3.227511 -0.8879234
v 3.444752 3.227511 -0.8879242
v 3.444752 3.384459 -0.7018936
v -3.444788 2.728378 -0.355664
v -3.444788 3.384459 -0.3556639
v 3.444752 3.38446 -0.3556646
v 3.444752 2.728378 -0.3556646
v 3.444752 2.557948 1.153985
v -3.444788 2.557948 1.153985
v -3.444788 2.863744 1.153985
v 3.444752 2.863744 1.153985
v 3.444752 2.863744 1.153985
v -3.444788 2.863744 1.153985
v -3.444788 2.863744 0.8645021
v 3.444752 2.863744 0.8645024
v 3.444752 2.557948 -0.7931424
v -3.444788 2.557948 -0.7931424
v -3.444788 2.863744 -0.7931422
v 3.444752 2.863744 -0.7931422
v 3.444752 2.863744 -0.7931422
v -3.444788 2.863744 -0.7931422
v -3.444788 2.863744 -1.082625
v 3.444752 2.863744 -1.082625
v -3.444788 2.863744 0.8645021
v -3.444788 2.557945 0.864502
v 3.444752 2.557945 0.864502
v 3.444752 2.863744 0.8645024
v -3.444788 2.557945 0.864502
v -3.444788 2.557948 1.153985
v 3.444752 2.557948 1.153985
v 3.444752 2.557945 0.864502
v -3.444788 2.863744 -1.082625
v -3.444788 2.557945 -1.082625
v 3.444752 2.557945 -1.082625
v 3.444752 2.863744 -1.082625
v -3.444788 2.557945 -1.082625
v -3.444788 2.557948 -0.7931424
v 3.444752 2.557948 -0.7931424
v 3.444752 2.557945 -1.082625
v -3.444788 3.305854 -0.002198227
v -3.444788 3.305854 -0.0007210994
v -3.444788 3.305853 1.001276
v -3.444788 3.08224 1.223625
v -3.444788 2.778569 -0.001090412
v -3.444788 3.08224 -1.217799
v -3.444788 3.305853 -0.9964017
v -3.444788 2.778422 -1.217801
v -3.444788 2.778422 1.223627
v -3.444788 0.6504852 0.003616544
v -3.444788 0.6504847 1.190351
v -3.444788 0.650485 -1.190351
v -3.444788 3.227511 1.006478
v -3.444788 2.728378 1.006478
v -3.444788 3.384459 0.820448
v -3.444788 2.728378 0.4742192
v -3.444788 3.38446 0.4742192
v -3.444788 3.384459 -0.7018927
v -3.444788 3.384459 -0.3556639
v -3.444788 3.227511 -0.8879234
v -3.444788 2.728378 -0.355664
v -3.444788 2.728378 -0.8879232
v -3.444788 2.863744 1.153985
v -3.444788 2.557948 1.153985
v -3.444788 2.863744 0.8645021
v -3.444788 2.557945 0.864502
v -3.444788 2.863744 -0.7931422
v -3.444788 2.557948 -0.7931424
v -3.444788 2.863744 -1.082625
v -3.444788 2.557945 -1.082625
v -3.444788 3.305854 -0.0007210994
v -3.444788 3.305853 -0.9964017
v 3.444752 3.305853 -1.00063
v 3.444752 3.305853 0.002130005
v -3.444788 0.650485 -1.190351
v -3.444788 -0.01497717 -1.33175
v -3.444788 0.5087889 -1.331749
v -3.444788 0.6504847 1.190351
v -3.444788 -0.01497747 1.331749
v -3.444788 0.5087881 1.331749
v -3.444788 -0.01497717 -1.33175
v -3.444788 -0.01497747 1.331749
v -3.444788 -0.01513397 0.003616489
v 3.444752 0.650485 1.190351
v 3.444752 0.6504852 0.003616688
v 3.444752 0.5087888 1.331749
v 3.444752 -0.01513412 0.003616676
v 3.444752 -0.01497732 1.33175
v 3.444752 0.5087886 -1.331749
v 3.444752 -0.01497721 -1.331749
v 3.444752 0.6504849 -1.19035
v 3.444752 3.305853 1.004889
v 3.444752 3.305853 0.002130005
v 3.444752 3.08224 1.228032
v 3.444752 2.778174 0.002130012
v 3.444752 2.778422 1.228032
v 3.444752 3.08224 -1.223772
v 3.444752 2.778422 -1.223772
v 3.444752 3.305853 -1.00063
v 3.444752 2.728378 1.006478
v 3.444752 3.227511 1.006478
v 3.444752 2.728378 0.4742192
v 3.444752 3.384459 0.4742192
v 3.444752 3.384459 0.8204477
v 3.444752 3.227511 -0.8879242
v 3.444752 2.728378 -0.887924
v 3.444752 3.384459 -0.7018936
v 3.444752 2.728378 -0.3556646
v 3.444752 3.38446 -0.3556646
v 3.444752 2.557948 1.153985
v 3.444752 2.863744 1.153985
v 3.444752 2.557945 0.864502
v 3.444752 2.863744 0.8645024
v 3.444752 2.557948 -0.7931424
v 3.444752 2.863744 -0.7931422
v 3.444752 2.557945 -1.082625
v 3.444752 2.863744 -1.082625
v 3.444752 2.784978 -0.9612665
v -3.444788 2.784978 -0.9714026
v -3.444788 0.5296921 -0.9714035
v 3.444752 0.5296921 -0.9612674
v -3.444788 2.784981 1.049628
v 3.444752 2.784982 1.041886
v 3.444752 0.5296921 1.041885
v -3.444788 0.529692 1.049628
v 3.444752 2.784982 1.041886
v 3.444752 2.784978 -0.9612665
v 3.444752 0.5296921 -0.9612674
v 3.444752 0.5296921 1.041885
v -3.444788 0.529692 1.049628
v -3.444788 0.5296921 -0.9714035
v -3.444788 2.784978 -0.9714026
v -3.444788 2.784981 1.049628
vt 0.0001411062 0.5408891
vt 0.9999533 0.5408894
vt 0.9999533 0.457807
vt 0.0001411062 0.4578072
vt 0.0001411062 0.5810884
vt 0.9999533 0.581087
vt 0.9999533 0.5471438
vt 0.0001411062 0.5471447
vt 0.0001411062 0.7442989
vt 0.9999533 0.744299
vt 0.9999533 0.6372412
vt 0.0001411062 0.6372408
vt 0.9999533 0.5874819
vt 0.0001411062 0.587482
vt 0.0001411062 0.6316873
vt 0.9999533 0.6316851
vt 0.9999533 0.4577983
vt 0.9999533 0.5408894
vt 0.0001411062 0.5408892
vt 0.0411742 0.4578071
vt 0.9999533 0.5810869
vt 0.0001411062 0.5810877
vt 0.0001411062 0.5471444
vt 0.9999533 0.547134
vt 0.9999533 0.6372548
vt 0.9999533 0.7442988
vt 0.04117399 0.7442989
vt 0.0001411062 0.6372409
vt 0.0001411062 0.6316876
vt 0.0001411062 0.587482
vt 0.9999533 0.5874819
vt 0.9999533 0.6316859
vt 0.6809343 0.7124593
vt 0.6809726 0.7124593
vt 0.7067034 0.7124593
vt 1.352761 0.457807
vt 0.3529489 0.4578072
vt 0.3529489 0.5408893
vt 1.352761 0.5408894
vt 1.352761 0.5810868
vt 1.352761 0.5471437
vt 0.3529489 0.5471444
vt 0.3529489 0.5810878
vt 1.352761 0.6372412
vt 0.3529489 0.6372409
vt 0.3529489 0.7442989
vt 1.352761 0.7442989
vt 0.3529489 0.6316875
vt 1.352761 0.6316859
vt 1.352761 0.5874819
vt 0.3529489 0.587482
vt 0.3529489 0.4578083
vt 0.3529489 0.5408896
vt 1.352761 0.5408894
vt 1.352761 0.4578072
vt 0.9999533 0.6316856
vt 0.9999533 0.5874819
vt 0.0001411062 0.587482
vt 0.0001411062 0.6316875
vt 0.0001411062 0.4578072
vt 0.0001411062 0.5408891
vt 0.9999533 0.5408894
vt 0.9999533 0.4578069
vt 0.0001411062 0.5471444
vt 0.0001411062 0.5810878
vt 0.9999533 0.5810868
vt 0.9999533 0.5471437
vt 0.0001411062 0.6372409
vt 0.0001411062 0.744299
vt 0.9999533 0.7442989
vt 0.9999533 0.6372413
vt 0.9999533 0.5471439
vt 0.9999533 0.5810872
vt 0.0001411062 0.5810721
vt 0.0001411062 0.5471446
vt 0.9999533 0.6372412
vt 0.9552629 0.7441344
vt 0.0001411062 0.7442946
vt 0.0001411062 0.6372407
vt 0.0001411062 0.631687
vt 0.0001411062 0.587482
vt 0.9999533 0.5874819
vt 0.9999533 0.6316855
vt 0.3529489 0.587482
vt 0.3529489 0.6316871
vt 1.352761 0.6316853
vt 1.352761 0.5874819
vt 0.3529489 0.457808
vt 0.3529489 0.5408896
vt 1.352761 0.5408894
vt 1.352761 0.4578069
vt 0.0001411062 0.6489142
vt 0.0001411062 0.7338082
vt 0.9999533 0.7338082
vt 0.9999533 0.6489141
vt 1.352761 0.5408893
vt 1.352761 0.4578071
vt 0.3529489 0.4578072
vt 0.3529489 0.5408891
vt 1.352761 0.5810871
vt 1.352761 0.5471439
vt 0.3529489 0.5471445
vt 0.3529489 0.5810879
vt 1.352761 0.744299
vt 1.352761 0.6372412
vt 0.3529489 0.6372408
vt 0.3529489 0.7442989
vt 0.9999533 0.7526091
vt 0.0001411062 0.7526092
vt 0.0001411062 0.8034989
vt 0.9999533 0.8034988
vt 0.9999533 0.8092754
vt 0.0001411062 0.8092754
vt 0.0001411062 0.8541089
vt 0.9999533 0.8541089
vt 0.9999533 0.7526091
vt 0.0001411062 0.7526092
vt 0.0001411062 0.8034989
vt 0.9999533 0.8034988
vt 0.9999533 0.8092754
vt 0.0001411062 0.8092754
vt 0.0001411062 0.8541089
vt 0.9999533 0.8541089
vt 0.0001411062 0.8541089
vt 0.0001411062 0.8092754
vt 0.9999533 0.8092754
vt 0.9999533 0.8541089
vt 0.0001411062 0.8034988
vt 0.0001411062 0.7526091
vt 0.9999533 0.7526091
vt 0.9999533 0.8034988
vt 0.0001411062 0.8541089
vt 0.0001411062 0.8092754
vt 0.9999533 0.8092754
vt 0.9999533 0.8541089
vt 0.0001411062 0.8034988
vt 0.0001411062 0.7526091
vt 0.9999533 0.7526091
vt 0.9999533 0.8034988
vt 0.6809726 0.7124593
vt 0.6809343 0.7124593
vt 0.6550018 0.7124593
vt 0.6492472 0.7182467
vt 0.6809438 0.7261059
vt 0.7124333 0.7182467
vt 0.7067034 0.7124593
vt 0.7124333 0.7261097
vt 0.6492472 0.7261097
vt 0.6778729 0.6579551
vt 0.6471592 0.6579551
vt 0.7087737 0.6579551
vt 0.6373065 0.6773132
vt 0.6243886 0.6773132
vt 0.6413684 0.682128
vt 0.6243886 0.6910886
vt 0.6413684 0.6910886
vt 0.6211915 0.6669158
vt 0.6211915 0.6579551
vt 0.6171294 0.6717305
vt 0.6042114 0.6579551
vt 0.6042114 0.6717305
vt 0.6010146 0.6579551
vt 0.5931004 0.6579551
vt 0.6010146 0.6654471
vt 0.5931003 0.6654471
vt 0.6471158 0.7124593
vt 0.6392015 0.7124593
vt 0.6471158 0.7199515
vt 0.6392015 0.7199514
vt 0.9552616 0.4578071
vt 0.9999533 0.5408894
vt 0.0001411062 0.5408768
vt 0.0001411062 0.4578073
vt 0.7087737 0.6579551
vt 0.7124333 0.6751779
vt 0.7124333 0.6616224
vt 0.6471592 0.6579551
vt 0.6434997 0.6751779
vt 0.6434997 0.6616224
vt 0.7124333 0.6751779
vt 0.6434997 0.6751779
vt 0.6778729 0.675182
vt 0.7087737 0.6773132
vt 0.6780602 0.6773132
vt 0.7124333 0.6809806
vt 0.6780602 0.6945401
vt 0.7124333 0.694536
vt 0.6434997 0.6809806
vt 0.6434997 0.694536
vt 0.6471593 0.6773132
vt 0.7066584 0.6966712
vt 0.680706 0.6966712
vt 0.7124333 0.7024586
vt 0.680706 0.7103282
vt 0.7124333 0.7103217
vt 0.6489786 0.7024586
vt 0.6489786 0.7103217
vt 0.6547536 0.6966712
vt 0.6042116 0.6910886
vt 0.6171294 0.6910886
vt 0.6042116 0.6773132
vt 0.6211915 0.6773132
vt 0.6211915 0.6862738
vt 0.6373065 0.6579551
vt 0.6243883 0.6579551
vt 0.6413684 0.6627697
vt 0.6243883 0.6717305
vt 0.6413684 0.6717305
vt 0.5931004 0.6848053
vt 0.6010146 0.6848053
vt 0.5931003 0.6773132
vt 0.6010146 0.6773132
vt 0.6389331 0.7041633
vt 0.6468472 0.7041633
vt 0.6389331 0.6966712
vt 0.6468472 0.6966712
vt 0.9999533 0.004358873
vt 0.0001411062 0.004358984
vt 0.0001411062 0.2956642
vt 0.9999533 0.2956641
vt 0.9999533 0.004358546
vt 0.0001411062 0.004358687
vt 0.0001411062 0.2956643
vt 0.9999533 0.2956641
vt 0.5198802 0.7086886
vt 0.51988 0.6568453
vt 0.4615113 0.6568453
vt 0.4615113 0.7086886
vt 0.5230771 0.6568453
vt 0.5230771 0.7091512
vt 0.5814459 0.7091512
vt 0.5814459 0.6568453
vn 0 1 1.92867E-07
vn 0 1 1.92867E-07
vn 0 1 0
vn 0 1 0
vn 0 0.706362 0.7078509
vn 0 0.706362 0.7078508
vn 0 0.706362 0.7078509
vn 0 0.706362 0.7078508
vn 0 -1 2.399803E-07
vn 0 -1 2.39971E-07
vn 0 -1 0.000117947
vn 0 -1 0.000117947
vn 0 8.739851E-07 -1
vn 0 8.739851E-07 -1
vn 0 8.739851E-07 -1
vn 0 8.739851E-07 -1
vn 0 1 0
vn 0 1 6.089033E-07
vn 0 1 6.089033E-07
vn -0.0001098578 1 0
vn -0.0004123377 0.7057316 0.7084791
vn -0.0004123377 0.7057317 0.7084791
vn -0.0004123377 0.7057316 0.7084791
vn -0.0004123377 0.7057316 0.7084791
vn -2.868167E-05 -1 4.059682E-05
vn -2.867451E-05 -1 0
vn -2.86745E-05 -1 0
vn -2.868167E-05 -1 4.059682E-05
vn -0.0008667858 3.013601E-06 -0.9999996
vn -0.0008667858 3.013601E-06 -0.9999996
vn -0.0008667858 3.013601E-06 -0.9999996
vn -0.0008667858 3.013601E-06 -0.9999996
vn -0.0001098578 1 0
vn -1 0 0
vn -0.0002196737 1 -6.108279E-07
vn 0 -2.292791E-07 1
vn 0 -2.292791E-07 1
vn 0 -2.292791E-07 1
vn 0 -2.292791E-07 1
vn 0 0.7643221 0.6448346
vn 0 0.7643221 0.6448346
vn 0 0.7643221 0.6448346
vn 0 0.7643221 0.6448346
vn 0 0 -1
vn 0 0 -1
vn 0 0 -1
vn 0 0 -1
vn 0 1 -1.322142E-06
vn 0 1 -1.322142E-06
vn 0 1 -1.322142E-06
vn 0 1 -1.322142E-06
vn 0 -1 0
vn 0 -1 0
vn 0 -1 0
vn 0 -1 0
vn 0 5.826569E-07 1
vn 0 5.826569E-07 1
vn 0 5.826569E-07 1
vn 0 5.826569E-07 1
vn 0 1 0
vn 0 1 -1.277991E-07
vn 0 1 -1.277991E-07
vn 0 1 0
vn 0 0.7063619 -0.7078509
vn 0 0.7063619 -0.7078509
vn 0 0.7063619 -0.7078509
vn 0 0.7063619 -0.7078509
vn 0 -1 -0.0001174671
vn 0 -1 2.39971E-07
vn 0 -1 2.399803E-07
vn 0 -1 -0.0001174671
vn -0.0005250376 0.7049736 -0.7092333
vn -0.0005250375 0.7049736 -0.7092332
vn -0.0005250376 0.7049736 -0.7092332
vn -0.0005250376 0.7049736 -0.7092332
vn -2.866734E-05 -1 -4.072989E-05
vn -2.86745E-05 -1 0
vn -2.867451E-05 -1 0
vn -2.866734E-05 -1 -4.072989E-05
vn -0.0006394557 2.636719E-06 0.9999999
vn -0.0006394557 2.636719E-06 0.9999999
vn -0.0006394557 2.636719E-06 0.9999999
vn -0.0006394557 2.636719E-06 0.9999999
vn 0 1 4.407143E-07
vn 0 1 4.407143E-07
vn 0 1 4.407143E-07
vn 0 1 4.407143E-07
vn 0 -1 0
vn 0 -1 0
vn 0 -1 0
vn 0 -1 0
vn 0 1 -1.706632E-07
vn 0 1 -1.706632E-07
vn 0 1 -1.706632E-07
vn 0 1 -1.706632E-07
vn -1.107388E-07 -3.057055E-07 -1
vn -1.107388E-07 -3.057055E-07 -1
vn -1.107388E-07 -3.057055E-07 -1
vn -1.107388E-07 -3.057055E-07 -1
vn 0 0.7643226 -0.644834
vn 0 0.7643227 -0.644834
vn 0 0.7643226 -0.644834
vn 0 0.7643227 -0.644834
vn 0 0 1
vn 0 0 1
vn 0 0 1
vn 0 0 1
vn 0 -4.989855E-07 1
vn 0 -4.989855E-07 1
vn 0 -4.989855E-07 1
vn 0 -4.989855E-07 1
vn 0 1 0
vn 0 1 0
vn 0 1 0
vn 0 1 0
vn 0 -4.989855E-07 1
vn 0 -4.989855E-07 1
vn 0 -4.989855E-07 1
vn 0 -4.989855E-07 1
vn 0 1 0
vn 0 1 0
vn 0 1 0
vn 0 1 0
vn 0 9.979632E-07 -1
vn 0 9.979632E-07 -1
vn 0 9.979632E-07 -1
vn 0 9.979632E-07 -1
vn 0 -1 8.433686E-06
vn 0 -1 8.433686E-06
vn 0 -1 8.433686E-06
vn 0 -1 8.433686E-06
vn 0 9.979622E-07 -1
vn 0 9.979622E-07 -1
vn 0 9.979622E-07 -1
vn 0 9.979622E-07 -1
vn 0 -1 9.487897E-06
vn 0 -1 9.487897E-06
vn 0 -1 9.487897E-06
vn 0 -1 9.487897E-06
vn -1 0 0
vn -1 0 0
vn -1 0 0
vn -1 0 0
vn -1 0 0
vn -1 0 0
vn -1 0 0
vn -1 0 0
vn -1 0 0
vn -1 0 0
vn -1 0 0
vn -1 0 0
vn -1 0 0
vn -1 0 0
vn -1 0 0
vn -1 0 0
vn -1 0 0
vn -1 0 0
vn -1 0 0
vn -1 0 0
vn -1 0 0
vn -1 0 0
vn -1 0 0
vn -1 0 0
vn -1 0 0
vn -1 0 0
vn -1 0 0
vn -1 0 0
vn -1 0 0
vn -1 0 0
vn -0.0001098578 1 0
vn -0.0002196737 1 -6.108279E-07
vn 0 1 -6.108279E-07
vn 0 1 0
vn -1 0 0
vn -1 0 0
vn -1 0 0
vn -1 0 0
vn -1 0 0
vn -1 0 0
vn -1 0 0
vn -1 0 0
vn -1 0 0
vn 1 0 0
vn 1 0 0
vn 1 0 0
vn 1 0 0
vn 1 0 0
vn 1 0 0
vn 1 0 0
vn 1 0 0
vn 1 0 0
vn 1 0 0
vn 1 0 0
vn 1 0 0
vn 1 0 0
vn 1 0 0
vn 1 0 0
vn 1 0 0
vn 1 0 0
vn 1 0 0
vn 1 0 0
vn 1 0 0
vn 1 0 0
vn 1 0 0
vn 1 0 0
vn 1 0 0
vn 1 0 0
vn 1 0 0
vn 1 0 0
vn 1 0 0
vn 1 0 0
vn 1 0 0
vn 1 0 0
vn 1 0 0
vn 1 0 0
vn 1 0 0
vn 0.001471236 3.889848E-07 -0.9999989
vn 0.001471236 3.889848E-07 -0.9999989
vn 0.001471236 3.889848E-07 -0.9999989
vn 0.001471236 3.889848E-07 -0.9999989
vn 0.001123804 -2.197796E-07 0.9999994
vn 0.001123804 -2.197796E-07 0.9999994
vn 0.001123804 -2.197796E-07 0.9999994
vn 0.001123804 -2.197796E-07 0.9999994
vn 1 0 0
vn 1 0 0
vn 1 0 0
vn 1 0 0
vn -1 0 0
vn -1 0 0
vn -1 0 0
vn -1 0 0
g Area_Common_Build_Plinth_A_02_Lod0_0
f 3/3/3 2/2/2 1/1/1
f 4/4/4 3/3/3 1/1/1
f 7/7/7 6/6/6 5/5/5
f 8/8/8 7/7/7 5/5/5
f 11/11/11 10/10/10 9/9/9
f 12/12/12 11/11/11 9/9/9
f 15/15/15 14/14/14 13/13/13
f 16/16/16 15/15/15 13/13/13
f 19/19/19 18/18/18 17/17/17
f 20/20/20 19/19/19 17/17/17
f 23/23/23 22/22/22 21/21/21
f 24/24/24 23/23/23 21/21/21
f 27/27/27 26/26/26 25/25/25
f 28/28/28 27/27/27 25/25/25
f 31/31/31 30/30/30 29/29/29
f 32/32/32 31/31/31 29/29/29
f 35/35/35 34/34/34 33/33/33
f 38/38/38 37/37/37 36/36/36
f 39/39/39 38/38/38 36/36/36
f 42/42/42 41/41/41 40/40/40
f 43/43/43 42/42/42 40/40/40
f 46/46/46 45/45/45 44/44/44
f 47/47/47 46/46/46 44/44/44
f 50/50/50 49/49/49 48/48/48
f 51/51/51 50/50/50 48/48/48
f 54/54/54 53/53/53 52/52/52
f 55/55/55 54/54/54 52/52/52
f 58/58/58 57/57/57 56/56/56
f 59/59/59 58/58/58 56/56/56
f 62/62/62 61/61/61 60/60/60
f 63/63/63 62/62/62 60/60/60
f 66/66/66 65/65/65 64/64/64
f 67/67/67 66/66/66 64/64/64
f 70/70/70 69/69/69 68/68/68
f 71/71/71 70/70/70 68/68/68
f 74/74/74 73/73/73 72/72/72
f 75/75/75 74/74/74 72/72/72
f 78/78/78 77/77/77 76/76/76
f 79/79/79 78/78/78 76/76/76
f 82/82/82 81/81/81 80/80/80
f 83/83/83 82/82/82 80/80/80
f 86/86/86 85/85/85 84/84/84
f 87/87/87 86/86/86 84/84/84
f 90/90/90 89/89/89 88/88/88
f 91/91/91 90/90/90 88/88/88
f 94/94/94 93/93/93 92/92/92
f 95/95/95 94/94/94 92/92/92
f 98/98/98 97/97/97 96/96/96
f 99/99/99 98/98/98 96/96/96
f 102/102/102 101/101/101 100/100/100
f 103/103/103 102/102/102 100/100/100
f 106/106/106 105/105/105 104/104/104
f 107/107/107 106/106/106 104/104/104
f 110/110/110 109/109/109 108/108/108
f 111/111/111 110/110/110 108/108/108
f 114/114/114 113/113/113 112/112/112
f 115/115/115 114/114/114 112/112/112
f 118/118/118 117/117/117 116/116/116
f 119/119/119 118/118/118 116/116/116
f 122/122/122 121/121/121 120/120/120
f 123/123/123 122/122/122 120/120/120
f 126/126/126 125/125/125 124/124/124
f 127/127/127 126/126/126 124/124/124
f 130/130/130 129/129/129 128/128/128
f 131/131/131 130/130/130 128/128/128
f 134/134/134 133/133/133 132/132/132
f 135/135/135 134/134/134 132/132/132
f 138/138/138 137/137/137 136/136/136
f 139/139/139 138/138/138 136/136/136
f 142/142/142 141/141/141 140/140/140
f 143/143/143 142/142/142 140/140/140
f 144/144/144 143/143/143 140/140/140
f 145/145/145 144/144/144 140/140/140
f 146/146/146 145/145/145 140/140/140
f 147/147/147 144/144/144 145/145/145
f 148/148/148 143/143/143 144/144/144
f 151/151/151 150/150/150 149/149/149
f 154/154/154 153/153/153 152/152/152
f 155/155/155 153/153/153 154/154/154
f 156/156/156 155/155/155 154/154/154
f 159/159/159 158/158/158 157/157/157
f 160/160/160 158/158/158 159/159/159
f 161/161/161 160/160/160 159/159/159
f 164/164/164 163/163/163 162/162/162
f 165/165/165 163/163/163 164/164/164
f 168/168/168 167/167/167 166/166/166
f 169/169/169 167/167/167 168/168/168
f 172/172/172 171/171/171 170/170/170
f 173/173/173 172/172/172 170/170/170
f 176/176/176 175/175/175 174/174/174
f 175/175/175 177/177/177 174/174/174
f 178/178/178 177/177/177 175/175/175
f 179/179/179 177/177/177 178/178/178
f 182/182/182 181/181/181 180/180/180
f 185/185/185 184/184/184 183/183/183
f 186/186/186 184/184/184 185/185/185
f 187/187/187 186/186/186 185/185/185
f 188/188/188 184/184/184 186/186/186
f 189/189/189 188/188/188 186/186/186
f 190/190/190 184/184/184 188/188/188
f 193/193/193 192/192/192 191/191/191
f 194/194/194 192/192/192 193/193/193
f 195/195/195 194/194/194 193/193/193
f 196/196/196 192/192/192 194/194/194
f 197/197/197 196/196/196 194/194/194
f 198/198/198 192/192/192 196/196/196
f 201/201/201 200/200/200 199/199/199
f 202/202/202 200/200/200 201/201/201
f 203/203/203 200/200/200 202/202/202
f 206/206/206 205/205/205 204/204/204
f 207/207/207 205/205/205 206/206/206
f 208/208/208 207/207/207 206/206/206
f 211/211/211 210/210/210 209/209/209
f 212/212/212 210/210/210 211/211/211
f 215/215/215 214/214/214 213/213/213
f 216/216/216 214/214/214 215/215/215
g Area_Common_Build_Plinth_A_02_Lod0_1
f 219/219/219 218/218/218 217/217/217
f 220/220/220 219/219/219 217/217/217
f 223/223/223 222/222/222 221/221/221
f 224/224/224 223/223/223 221/221/221
f 227/227/227 226/226/226 225/225/225
f 228/228/228 227/227/227 225/225/225
f 231/231/231 230/230/230 229/229/229
f 232/232/232 231/231/231 229/229/229
