g Area_Common_Build_Hili_House_16_Water01
v -0.6070982 0.4434566 0.5094158
v -0.7447162 0.4434566 -0.2710544
v -0.6070982 0.4434566 -0.5094159
v -0.7447162 0.4434566 0.2710543
v -0.7925105 0.4434566 -1.242341E-08
v -0.3962553 0.4434566 0.6863339
v -0.3962553 0.4434566 -0.686334
v -0.1376184 0.4434566 0.7804701
v -0.1376184 0.4434566 -0.7804701
v 0.1376176 0.4434566 0.7804706
v 0.1376176 0.4434566 -0.7804706
v 0.3962549 0.4434566 0.6863343
v 0.3962549 0.4434566 -0.6863344
v 0.607098 0.4434566 0.5094161
v 0.607098 0.4434566 -0.5094162
v 0.744716 0.4434566 0.2710551
v 0.7925103 0.4434566 -1.242341E-08
v 0.744716 0.4434566 -0.2710551
vt 0.5733961 0.5541426
vt 0.5900337 0.4597865
vt 0.5733961 0.4309695
vt 0.5900337 0.5253255
vt 0.5958118 0.492556
vt 0.547906 0.5755313
vt 0.547906 0.4095807
vt 0.5166377 0.586912
vt 0.5166377 0.3982
vt 0.4833626 0.5869121
vt 0.4833626 0.3981999
vt 0.4520943 0.5755314
vt 0.4520943 0.4095807
vt 0.4266042 0.5541426
vt 0.4266042 0.4309694
vt 0.4099666 0.5253256
vt 0.4041885 0.492556
vt 0.4099666 0.4597864
vn 1.359162E-07 1 0
vn 1.359159E-07 1 0
vn 0 1 0
vn -3.990751E-07 1 0
vn -3.990742E-07 1 0
vn 0 1 0
vn 0 1 0
vn 0 1 0
vn 0 1 0
vn 0 1 0
vn 0 1 0
vn 0 1 0
vn 0 1 0
vn 0 1 0
vn 0 1 0
vn 1.858006E-07 1 0
vn 0 1 0
vn -7.500144E-07 1 2.729829E-07
g Area_Common_Build_Hili_House_16_Water01_0
f 3/3/3 2/2/2 1/1/1
f 1/1/1 2/2/2 4/4/4
f 4/4/4 2/2/2 5/5/5
f 1/1/1 6/6/6 3/3/3
f 7/7/7 3/3/3 6/6/6
f 6/6/6 8/8/8 7/7/7
f 9/9/9 7/7/7 8/8/8
f 8/8/8 10/10/10 9/9/9
f 11/11/11 9/9/9 10/10/10
f 10/10/10 12/12/12 11/11/11
f 13/13/13 11/11/11 12/12/12
f 12/12/12 14/14/14 13/13/13
f 15/15/15 13/13/13 14/14/14
f 16/16/16 15/15/15 14/14/14
f 17/17/17 15/15/15 16/16/16
f 18/18/18 15/15/15 17/17/17
