g Area_Common_Build_Hili_House_21_B_Col
v 1.957005 0.504509 3.703821
v 3.855724 0.5045092 1.597093
v 1.89608 0.504509 3.556737
v 4.002809 0.5045091 1.658018
v 2.70149 3.738544 1.118994
v 1.335428 3.738544 2.485055
v 2.804545 3.738544 1.16168
v 1.378115 3.738544 2.58811
v 3.855724 0.5045095 -1.597093
v 4.002809 0.5045095 -1.658018
v 2.701491 3.738545 -1.118994
v 2.804545 3.738544 -1.161681
v 1.597093 0.5045099 -3.855724
v 1.658018 0.5045099 -4.002809
v 1.118994 3.738545 -2.701491
v 1.16168 3.738544 -2.804546
v -1.597093 0.5045101 -3.855723
v -1.658018 0.5045101 -4.002809
v -1.118994 3.738545 -2.701491
v -1.161681 3.738545 -2.804546
v -3.855724 0.5045099 -1.597093
v -4.002809 0.5045099 -1.658018
v -2.701491 3.738545 -1.118994
v -2.804545 3.738544 -1.161681
v -3.855724 0.5045095 1.597093
v -4.002809 0.5045095 1.658018
v -2.701491 3.738545 1.118994
v -2.804545 3.738545 1.161681
v -1.721619 0.5045092 3.855723
v -1.782543 0.5045091 4.002809
v -1.243521 3.738544 2.70149
v -1.286207 3.738544 2.804544
v 2.944392 3.79036 1.16168
v 4.142655 0.556325 -1.658018
v 4.142655 0.5563245 1.658017
v 2.944391 3.79036 -1.161681
v -2.97204 3.800604 -1.161681
v -4.170303 0.5665691 1.658018
v -4.170303 0.5665696 -1.658018
v -2.97204 3.800605 1.161681
v 1.378115 3.738544 2.58811
v 1.2181 0.5011756 2.972488
v 1.335428 3.738544 2.485055
v 1.2181 0.5011756 2.972488
v 1.378115 3.738544 2.58811
v 1.08383 0.5011756 3.058029
v -1.138456 0.5045092 2.960056
v -1.286207 3.738544 2.804544
v -1.243521 3.738544 2.70149
v -1.286207 3.738544 2.804544
v -1.138456 0.5045092 2.960056
v -0.9913707 0.5045092 3.02098
v 1.89608 0.504509 3.556737
v 1.08383 0.5011756 3.058029
v 1.957005 0.504509 3.703821
v 1.2181 0.5011756 2.972488
v 1.957005 0.504509 3.703821
v 1.08383 0.5011756 3.058029
v 1.378115 3.738544 2.58811
v 1.335428 3.738544 2.485055
v 1.2181 0.5011756 2.972488
v 1.89608 0.504509 3.556737
v -1.782543 0.5045091 4.002809
v -1.138456 0.5045092 2.960056
v -1.721619 0.5045092 3.855723
v -0.9913707 0.5045092 3.02098
v -1.721619 0.5045092 3.855723
v -1.138456 0.5045092 2.960056
v -1.243521 3.738544 2.70149
v -1.286207 3.738544 2.804544
v -0.9913707 0.5045092 3.02098
v -1.782543 0.5045091 4.002809
v 2.804545 3.738544 1.16168
v 4.142655 0.5563245 1.658017
v 4.002809 0.5045091 1.658018
v 2.944392 3.79036 1.16168
v 4.002809 0.5045091 1.658018
v 4.142655 0.556325 -1.658018
v 4.002809 0.5045095 -1.658018
v 4.142655 0.5563245 1.658017
v 4.002809 0.5045095 -1.658018
v 2.944391 3.79036 -1.161681
v 2.804545 3.738544 -1.161681
v 4.142655 0.556325 -1.658018
v 2.804545 3.738544 -1.161681
v 2.944392 3.79036 1.16168
v 2.804545 3.738544 1.16168
v 2.944391 3.79036 -1.161681
v -2.804545 3.738544 -1.161681
v -4.170303 0.5665696 -1.658018
v -4.002809 0.5045099 -1.658018
v -2.97204 3.800604 -1.161681
v -4.002809 0.5045099 -1.658018
v -4.170303 0.5665691 1.658018
v -4.002809 0.5045095 1.658018
v -4.170303 0.5665696 -1.658018
v -4.002809 0.5045095 1.658018
v -2.97204 3.800605 1.161681
v -2.804545 3.738545 1.161681
v -4.170303 0.5665691 1.658018
v -2.804545 3.738545 1.161681
v -2.97204 3.800604 -1.161681
v -2.804545 3.738544 -1.161681
v -2.97204 3.800605 1.161681
vn 0.6351464 -0.4395202 0.6351464
vn -0.4195991 -0.8909146 -0.1738038
vn -0.3464785 -0.8717254 -0.3464786
vn 0.4130925 -0.811609 0.4130926
vn -0.6751856 0.682575 -0.279671
vn -0.5289215 0.6636896 -0.5289217
vn 0.3381136 0.87827 0.3381139
vn 0.4713729 0.7453958 0.4713731
vn -0.4195994 -0.8909146 0.1738036
vn 0.4130922 -0.8116091 -0.4130924
vn -0.6751842 0.6825765 0.2796705
vn 0.3381153 0.8782693 -0.3381141
vn -0.1738038 -0.8909146 0.4195991
vn 0.3351234 -0.4828197 -0.8090596
vn -0.2796705 0.6825765 0.6751843
vn 0.2456443 0.7667888 -0.5930377
vn 0.1738038 -0.8909144 0.4195994
vn -0.3351234 -0.4828204 -0.8090593
vn 0.2796707 0.682576 0.6751847
vn -0.2456444 0.7667887 -0.5930379
vn 0.4195992 -0.8909146 0.1738036
vn -0.413093 -0.8116084 -0.413093
vn 0.6751846 0.6825761 0.2796705
vn -0.3381152 0.8782694 -0.338114
vn 0.427355 -0.8880495 -0.1695161
vn -0.4228241 -0.8129727 0.4003689
vn 0.6873966 0.6754861 -0.2668415
vn -0.3442925 0.8819602 0.3218835
vn 0.3475538 -0.8782738 -0.3283922
vn -0.6536264 -0.4433042 0.6133955
vn 0.5497424 0.6596892 -0.5124387
vn -0.5024993 0.7292576 0.4644112
vn 0.9377041 0.3474349 0
vn 0.9377041 0.3474349 0
vn 0.9377041 0.3474348 0
vn 0.9377041 0.347435 -1.605318E-07
vn -0.9377041 0.3474349 0
vn -0.9377041 0.347435 0
vn -0.9377041 0.347435 1.634149E-07
vn -0.9377041 0.3474349 0
vn -0.9200701 0.09072573 0.3811038
vn -0.9200701 0.09072573 0.3811038
vn -0.9200701 0.09072573 0.3811038
vn -0.5358553 -0.07338102 -0.8411149
vn -0.5358553 -0.07338102 -0.8411149
vn -0.5358553 -0.07338102 -0.8411149
vn 0.9221898 0.06049908 0.3819762
vn 0.9221898 0.06049908 0.3819762
vn 0.9221898 0.06049908 0.3819762
vn 0.3825434 -0.02693251 -0.9235449
vn 0.3825434 -0.02693251 -0.923545
vn 0.3825434 -0.02693251 -0.9235449
vn 0.005503624 -0.9999822 -0.002279838
vn 0.005503623 -0.9999822 -0.002279838
vn 0.005503623 -0.9999822 -0.002279838
vn 0.002089833 -0.9999925 0.0032803
vn -0.5865626 0.1683145 0.7922212
vn -0.5865626 0.1683145 0.7922212
vn -0.5865626 0.1683145 0.7922212
vn 0.647085 -0.1363928 -0.7501186
vn 0.647085 -0.1363928 -0.7501186
vn 0.647085 -0.1363928 -0.7501187
vn -5.149599E-06 -1 -3.272352E-06
vn -5.149599E-06 -1 -3.272352E-06
vn -5.149599E-06 -1 -3.272352E-06
vn 0 -1 -1.23022E-07
vn -0.8359292 -0.0706722 -0.5442681
vn -0.8359292 -0.0706722 -0.5442681
vn -0.8359292 -0.0706722 -0.5442681
vn 0.7737325 0.112265 0.6234858
vn 0.7737325 0.112265 0.6234858
vn 0.7737325 0.112265 0.6234858
vn -0.04948968 0.1335713 0.9898028
vn -0.04948971 0.1335713 0.9898028
vn -0.04948971 0.1335713 0.9898028
vn -0.04948979 0.1335713 0.9898028
vn 0.3474348 -0.9377041 -1.223594E-07
vn 0.3474348 -0.9377041 -1.223594E-07
vn 0.3474348 -0.9377041 -1.361263E-07
vn 0.3474349 -0.9377041 -1.314022E-07
vn -0.04949047 0.1335709 -0.9898028
vn -0.04949047 0.1335709 -0.9898028
vn -0.04949048 0.133571 -0.9898028
vn -0.04949044 0.1335709 -0.9898028
vn -0.3474351 0.937704 0
vn -0.3474351 0.937704 0
vn -0.3474352 0.937704 0
vn -0.3474351 0.937704 0
vn 0.04949039 0.1335709 -0.9898028
vn 0.04949042 0.1335709 -0.9898028
vn 0.04949039 0.1335709 -0.9898028
vn 0.04949005 0.133571 -0.9898028
vn -0.3474347 -0.9377042 0
vn -0.3474347 -0.9377042 0
vn -0.3474347 -0.9377042 0
vn -0.3474346 -0.9377042 0
vn 0.0494906 0.133571 0.9898028
vn 0.04949058 0.133571 0.9898028
vn 0.0494906 0.133571 0.9898028
vn 0.04949057 0.133571 0.9898028
vn 0.3474351 0.937704 0
vn 0.3474351 0.937704 0
vn 0.3474351 0.937704 0
vn 0.3474348 0.9377041 0
g Area_Common_Build_Hili_House_21_B_Col_0
f 3/3/3 2/2/2 1/1/1
f 4/4/4 1/1/1 2/2/2
f 2/2/2 3/3/3 5/5/5
f 6/6/6 5/5/5 3/3/3
f 5/5/5 6/6/6 7/7/7
f 8/8/8 7/7/7 6/6/6
f 1/1/1 4/4/4 8/8/8
f 7/7/7 8/8/8 4/4/4
f 2/2/2 9/9/9 4/4/4
f 10/10/10 4/4/4 9/9/9
f 5/5/5 11/11/11 2/2/2
f 9/9/9 2/2/2 11/11/11
f 7/7/7 12/12/12 5/5/5
f 11/11/11 5/5/5 12/12/12
f 9/9/9 13/13/13 10/10/10
f 14/14/14 10/10/10 13/13/13
f 10/10/10 14/14/14 12/12/12
f 11/11/11 15/15/15 9/9/9
f 13/13/13 9/9/9 15/15/15
f 12/12/12 16/16/16 11/11/11
f 15/15/15 11/11/11 16/16/16
f 16/16/16 12/12/12 14/14/14
f 13/13/13 17/17/17 14/14/14
f 18/18/18 14/14/14 17/17/17
f 14/14/14 18/18/18 16/16/16
f 15/15/15 19/19/19 13/13/13
f 17/17/17 13/13/13 19/19/19
f 16/16/16 20/20/20 15/15/15
f 19/19/19 15/15/15 20/20/20
f 20/20/20 16/16/16 18/18/18
f 17/17/17 21/21/21 18/18/18
f 22/22/22 18/18/18 21/21/21
f 18/18/18 22/22/22 20/20/20
f 19/19/19 23/23/23 17/17/17
f 21/21/21 17/17/17 23/23/23
f 20/20/20 24/24/24 19/19/19
f 23/23/23 19/19/19 24/24/24
f 24/24/24 20/20/20 22/22/22
f 21/21/21 25/25/25 22/22/22
f 26/26/26 22/22/22 25/25/25
f 23/23/23 27/27/27 21/21/21
f 25/25/25 21/21/21 27/27/27
f 24/24/24 28/28/28 23/23/23
f 27/27/27 23/23/23 28/28/28
f 25/25/25 29/29/29 26/26/26
f 30/30/30 26/26/26 29/29/29
f 26/26/26 30/30/30 28/28/28
f 27/27/27 31/31/31 25/25/25
f 29/29/29 25/25/25 31/31/31
f 28/28/28 32/32/32 27/27/27
f 31/31/31 27/27/27 32/32/32
f 32/32/32 28/28/28 30/30/30
f 35/35/35 34/34/34 33/33/33
f 36/36/36 33/33/33 34/34/34
f 39/39/39 38/38/38 37/37/37
f 40/40/40 37/37/37 38/38/38
f 43/43/43 42/42/42 41/41/41
f 46/46/46 45/45/45 44/44/44
f 49/49/49 48/48/48 47/47/47
f 52/52/52 51/51/51 50/50/50
f 55/55/55 54/54/54 53/53/53
f 56/56/56 53/53/53 54/54/54
f 59/59/59 58/58/58 57/57/57
f 62/62/62 61/61/61 60/60/60
f 65/65/65 64/64/64 63/63/63
f 66/66/66 63/63/63 64/64/64
f 69/69/69 68/68/68 67/67/67
f 72/72/72 71/71/71 70/70/70
f 75/75/75 74/74/74 73/73/73
f 76/76/76 73/73/73 74/74/74
f 79/79/79 78/78/78 77/77/77
f 80/80/80 77/77/77 78/78/78
f 83/83/83 82/82/82 81/81/81
f 84/84/84 81/81/81 82/82/82
f 87/87/87 86/86/86 85/85/85
f 88/88/88 85/85/85 86/86/86
f 91/91/91 90/90/90 89/89/89
f 92/92/92 89/89/89 90/90/90
f 95/95/95 94/94/94 93/93/93
f 96/96/96 93/93/93 94/94/94
f 99/99/99 98/98/98 97/97/97
f 100/100/100 97/97/97 98/98/98
f 103/103/103 102/102/102 101/101/101
f 104/104/104 101/101/101 102/102/102
