g Area_Common_Build_Ruin_Wall_A_01_Lod1
v -4.999999 8.811164 4.000005
v 5 8.811164 4.043357
v -4.999999 8.811164 4.043358
v 5 8.811164 4.000004
v -4.999999 8.372398 4.174256
v 5 8.208447 4.037784
v -4.999999 8.208447 4.037784
v 5 8.372398 4.174255
v -4.999999 8.658845 4.174257
v 5 8.811164 4.043357
v 5 8.658845 4.174256
v -4.999999 8.811164 4.043358
v -4.999999 8.372398 4.174256
v 5 8.658845 4.174256
v 5 8.372398 4.174255
v -4.999999 8.658845 4.174257
v -4.999999 8.208447 4.000006
v 5 8.208447 4.037784
v 5 8.208447 4.000006
v -4.999999 8.208447 4.037784
v -4.999999 8.811166 -4.000001
v 5 8.811166 -4.043354
v 5 8.811166 -4.000001
v -4.999999 8.811166 -4.043355
v -4.999999 8.372399 -4.174253
v 5 8.208449 -4.037781
v 5 8.372399 -4.174252
v -4.999999 8.208449 -4.037781
v -4.999999 8.658846 -4.174253
v 5 8.811166 -4.043354
v -4.999999 8.811166 -4.043355
v 5 8.658846 -4.174253
v -4.999999 8.372399 -4.174253
v 5 8.658846 -4.174253
v -4.999999 8.658846 -4.174253
v 5 8.372399 -4.174252
v -4.999999 8.208449 -4.000003
v 5 8.208449 -4.037781
v -4.999999 8.208449 -4.037781
v 5 8.208449 -4.000003
v -2.99585 9.89073 4.107446
v 5 10.11103 4.107446
v 5 9.89073 4.107446
v -2.993964 10.11103 4.107446
v -2.944266 10.11103 3.883198
v 5 10.11103 4.107446
v -2.993964 10.11103 4.107446
v 5 10.11103 3.883198
v -3.004646 9.999996 3.883198
v 5 10.11103 3.883198
v -2.944266 10.11103 3.883198
v 5 9.999996 3.883198
v -3.067449 10.11103 3.883198
v -5 9.999996 3.883198
v -5 10.11103 3.883198
v -2.99585 9.89073 4.107446
v 5 9.89073 4.000007
v -3.004646 9.89073 4.000007
v 5 9.89073 4.107446
v -5 9.89073 4.107446
v -3.013442 9.89073 4.107446
v -5 9.89073 4.000007
v -5 9.890732 -4.10744
v 5 10.11103 -4.10744
v -5 10.11103 -4.10744
v 5 9.890732 -4.10744
v -5 10.11103 -4.10744
v 5 10.11103 -3.883192
v -5 10.11103 -3.883192
v 5 10.11103 -4.10744
v -5 10.11103 -3.883192
v 5 9.999998 -3.883192
v -5 9.999998 -3.883192
v 5 10.11103 -3.883192
v -5 9.890733 -4.000001
v 5 9.890732 -4.10744
v -5 9.890732 -4.10744
v 5 9.890733 -4.000001
v -3.013442 9.89073 4.107446
v -5 10.11103 4.107446
v -3.084013 10.11103 4.107446
v -5 9.89073 4.107446
v -3.084013 10.11103 4.107446
v -5 10.11103 3.883198
v -3.067449 10.11103 3.883198
v -5 10.11103 4.107446
v 5 8.811164 4.0384
v -5 9.89073 4.038399
v 5 9.890731 4.0384
v -5 8.811164 4.038399
v 5 8.811166 -4.038396
v -5 9.890732 -4.038395
v -5 8.811166 -4.038395
v 5 9.890732 -4.038396
v -4.999998 0.4822036 4.238493
v 5 0.6195075 4.08158
v 5 0.4822053 4.238492
v -4.999998 0.6195058 4.081581
v 4.999997 0.6195065 4
v -4.999996 0.6195057 4
v -4.999999 -3.240929E-06 4.23853
v 5 0.4822053 4.238492
v 5 -1.562465E-06 4.238548
v -4.999998 0.4822036 4.238493
v -4.999998 0.4822044 -4.238493
v 5 0.6195082 -4.08158
v -4.999998 0.6195065 -4.081581
v 5 0.4822061 -4.238492
v 4.999997 0.6195073 -4
v -4.999996 0.6195064 -4
v -4.999999 -2.49984E-06 -4.23853
v 5 0.4822061 -4.238492
v -4.999998 0.4822044 -4.238493
v 5 -8.213741E-07 -4.238548
v -3.004646 9.999996 3.883198
v -3.040127 10.11103 3.910478
v -3.067449 10.11103 3.883198
v -3.084013 10.11103 4.107446
v -3.004645 9.999996 4.000007
v -3.013442 9.89073 4.107446
v -3.004646 9.89073 4.000007
v -2.99585 9.89073 4.107446
v -2.993964 10.11103 4.107446
v -2.991168 10.08522 3.961251
v -2.944266 10.11103 3.883198
v -5.000031 10 -3.999992
v 4.999969 9.999997 4.000005
v -5.000027 9.999997 4.000005
v 4.99997 10 -3.999992
v 4.999969 9.999997 4.000005
v -5.000027 -2.791097E-06 3.999998
v -5.000027 9.999997 4.000005
v 4.999976 -2.791097E-06 3.999998
v -5.000031 10 -3.999992
v 4.99997 2.791097E-06 -3.999999
v 4.99997 10 -3.999992
v -5.000031 2.791097E-06 -4
v 4.999969 -5.09899E-06 4.000005
v 4.99997 10 -3.999992
v 4.99997 2.161751E-07 -3.999992
v 4.999969 9.999997 4.000005
v -5.000031 2.161752E-07 -3.999993
v -5.000027 9.999997 4.000005
v -5.000027 -5.09899E-06 4.000005
v -5.000031 10 -3.999992
v -4.999998 0.6195058 4.081581
v -4.999998 -1.589562E-07 4
v -4.999996 0.6195057 4
v -4.999998 -1.567401E-07 4.081581
v -4.999998 0.4822036 4.238493
v -4.999999 -3.240929E-06 4.23853
v 5 0.6195075 4.08158
v 4.999998 -1.589562E-07 4
v 4.999998 -1.567401E-07 4.081581
v 4.999997 0.6195065 4
v 5 0.4822053 4.238492
v 5 -1.562465E-06 4.238548
v -4.999998 0.6195065 -4.081581
v -4.999998 5.40426E-07 -4
v -4.999998 5.569063E-07 -4.081581
v -4.999996 0.6195064 -4
v -4.999998 0.4822044 -4.238493
v -4.999999 -2.49984E-06 -4.23853
v 5 0.6195082 -4.08158
v 4.999998 5.40426E-07 -4
v 4.999997 0.6195073 -4
v 4.999998 5.569063E-07 -4.081581
v 5 0.4822061 -4.238492
v 5 -8.213741E-07 -4.238548
vt 7.652541E-07 0.1242132
vt 0.999998 0.1177353
vt 7.564904E-07 0.1177353
vt 0.999998 0.1242133
vt 7.232538E-07 0.04831801
vt 0.999998 0.0193817
vt 7.85245E-07 0.01938171
vt 0.999998 0.04831802
vt 7.236031E-07 0.09049179
vt 0.999998 0.1177353
vt 0.999998 0.09049174
vt 7.564904E-07 0.1177353
vt 7.232538E-07 0.04831801
vt 0.999998 0.08717432
vt 0.999998 0.04831802
vt 6.672581E-07 0.08717432
vt 7.948973E-07 0.01120426
vt 0.999998 0.01658331
vt 0.999998 0.01120424
vt 7.85245E-07 0.01658333
vt 7.652541E-07 0.1242132
vt 0.999998 0.1177353
vt 0.999998 0.1242133
vt 7.564904E-07 0.1177353
vt 7.232538E-07 0.04831801
vt 0.999998 0.0193817
vt 0.999998 0.04831802
vt 7.85245E-07 0.01938171
vt 7.236031E-07 0.09049179
vt 0.999998 0.1177353
vt 7.564904E-07 0.1177353
vt 0.999998 0.09049174
vt 7.232538E-07 0.04831801
vt 0.999998 0.08717432
vt 6.672581E-07 0.08717432
vt 0.999998 0.04831802
vt 7.948973E-07 0.01120426
vt 0.999998 0.01658331
vt 7.85245E-07 0.01658333
vt 0.999998 0.01120424
vt 0.2004147 0.7731928
vt 1 0.8018021
vt 1 0.7731928
vt 0.201916 0.8018021
vt 0.6068905 0.8017127
vt 1.4 0.7731927
vt 0.601916 0.7731927
vt 1.4 0.801802
vt 0.2004147 0.7874974
vt 1 0.7731928
vt 0.2068858 0.7731927
vt 1 0.7874974
vt 0.1946036 0.7728876
vt 0 0.7874974
vt 0 0.7731928
vt 0.2004147 0.7731928
vt 1 0.7874974
vt 0.2004147 0.7874974
vt 1 0.7731928
vt 0 0.7731928
vt 0.2000419 0.7731928
vt 0 0.7874974
vt 0 0.7731928
vt 1 0.8018021
vt 0 0.8018021
vt 1 0.7731928
vt 0.4 0.7731927
vt 1.4 0.801802
vt 0.4 0.801802
vt 1.4 0.7731927
vt 0 0.7731928
vt 1 0.7874974
vt 0 0.7874974
vt 1 0.7731928
vt 0 0.7874974
vt 1 0.7731928
vt 0 0.7731928
vt 1 0.7874974
vt 0.2000419 0.7731928
vt 0 0.8018021
vt 0.1929356 0.8018021
vt 0 0.7731928
vt 0.5929357 0.7731927
vt 0.4 0.801802
vt 0.5946036 0.801802
vt 0.4 0.7731927
vt -0.0001047699 0.338884
vt 1.000008 0.4516164
vt -0.0001047699 0.4516172
vt 1.000008 0.3387493
vt 1.000117 0.338884
vt 3.933907E-06 0.4516164
vt 3.933907E-06 0.3387493
vt 1.000117 0.4516172
vt 0.749148 0.1196969
vt 0.0003113163 0.1573622
vt 0.0003113163 0.1196969
vt 0.749148 0.1573622
vt 0.0003113163 0.1842637
vt 0.749148 0.1842637
vt 0.749148 0.09098301
vt 0.0003113163 0.1196969
vt 0.000311361 0.09098301
vt 0.749148 0.1196969
vt 0.749148 0.1196969
vt 0.0003113163 0.1573622
vt 0.749148 0.1573622
vt 0.0003113163 0.1196969
vt 0.0003113163 0.1842637
vt 0.749148 0.1842637
vt 0.749148 0.09098301
vt 0.0003113163 0.1196969
vt 0.749148 0.1196969
vt 0.000311361 0.09098301
vt 0.4161993 0.6240413
vt 0.4027297 0.6410781
vt 0.4063771 0.6487941
vt 0.3666363 0.6237676
vt 0.400758 0.6002039
vt 0.3666704 0.5788304
vt 0.3853617 0.5786059
vt 0.3926871 0.5608933
vt 0.4322174 0.5781918
vt 0.4299421 0.6070457
vt 0.4418786 0.6240008
vt 0.0001397133 0.8408282
vt 0.9999779 -0.009739314
vt 0.0001401901 -0.009739491
vt 0.9999775 0.8408282
vt 0.9999095 0.999962
vt 3.433965E-05 0.000329848
vt 3.437027E-05 0.999962
vt 0.99991 0.000329848
vt 0.99991 0.999962
vt 3.433965E-05 0.000329848
vt 3.433965E-05 0.999962
vt 0.99991 0.000329848
vt 0.003925867 -0.001476161
vt 0.8038261 0.9983997
vt 0.8038259 -0.001475862
vt 0.003926107 0.9983994
vt 0.803826 0.9983993
vt 0.003925987 -0.001475795
vt 0.003925927 0.9983997
vt 0.803826 -0.001476221
vt 0.001999983 0.3411288
vt 0.1771045 0.3180696
vt 0.001999994 0.3180696
vt 0.1771045 0.3411288
vt 0.04080871 0.3854802
vt 0.1771054 0.3854906
vt 0.001999983 0.3411288
vt 0.1771045 0.3180696
vt 0.1771045 0.3411288
vt 0.001999994 0.3180696
vt 0.04080871 0.3854802
vt 0.1771054 0.3854906
vt 0.001999983 0.3411288
vt 0.1771045 0.3180696
vt 0.1771045 0.3411288
vt 0.001999994 0.3180696
vt 0.04080871 0.3854802
vt 0.1771054 0.3854906
vt 0.001999983 0.3411288
vt 0.1771045 0.3180696
vt 0.001999994 0.3180696
vt 0.1771045 0.3411288
vt 0.04080871 0.3854802
vt 0.1771054 0.3854906
vn 0 1 0
vn 0 1 0
vn 0 1 0
vn 0 1 0
vn 0 -0.6397579 0.7685765
vn 0 -0.6397572 0.7685772
vn 0 -0.639758 0.7685765
vn 0 -0.639757 0.7685772
vn 0 0.6517648 0.7584211
vn 0 0.6517657 0.7584204
vn 0 0.6517657 0.7584204
vn 0 0.6517648 0.7584211
vn 0 -3.215576E-06 1
vn 0 -4.242117E-06 1
vn 0 -4.261539E-06 1
vn 0 -3.196154E-06 1
vn 0 -1 0
vn 0 -1 0
vn 0 -1 0
vn 0 -1 0
vn 0 1 0
vn 0 1 0
vn 0 1 0
vn 0 1 0
vn 0 -0.6397579 -0.7685765
vn 0 -0.6397572 -0.7685772
vn 0 -0.639757 -0.7685772
vn 0 -0.639758 -0.7685765
vn 0 0.6517648 -0.7584211
vn 0 0.6517657 -0.7584204
vn 0 0.6517648 -0.7584211
vn 0 0.6517657 -0.7584204
vn 0 -1.084807E-06 -1
vn 0 -2.111348E-06 -1
vn 0 -1.065385E-06 -1
vn 0 -2.130769E-06 -1
vn 0 -1 0
vn 0 -1 0
vn 0 -1 0
vn 0 -1 0
vn 0 -2.770574E-06 1
vn 0 -2.770575E-06 1
vn 0 -2.770574E-06 1
vn 0 -2.770575E-06 1
vn 0 1 -2.67883E-06
vn 0 1 0
vn 0 1 -2.72177E-06
vn 0 1 0
vn 0 0 -1
vn 0 0 -1
vn 0 0 -1
vn 0 0 -1
vn 0 0 -1
vn 0 0 -1
vn 0 0 -1
vn 0 -1 -5.680931E-06
vn 0 -1 -5.68093E-06
vn 0 -1 -5.68093E-06
vn 0 -1 -5.68093E-06
vn 0 -1 -5.680931E-06
vn 0 -1 -5.680931E-06
vn 0 -1 -5.680931E-06
vn 0 -2.770574E-06 -1
vn 0 -2.770574E-06 -1
vn 0 -2.770574E-06 -1
vn 0 -2.770574E-06 -1
vn 0 1 0
vn 0 1 0
vn 0 1 0
vn 0 1 0
vn 0 0 1
vn 0 0 1
vn 0 0 1
vn 0 0 1
vn 0 -1 5.680931E-06
vn 0 -1 5.680931E-06
vn 0 -1 5.68093E-06
vn 0 -1 5.68093E-06
vn 0 -2.770574E-06 1
vn 0 -2.770574E-06 1
vn 0 -2.770574E-06 1
vn 0 -2.770574E-06 1
vn 0 1 0
vn 0 1 0
vn 0 1 0
vn 0 1 0
vn 0 0 1
vn 0 -2.633306E-07 1
vn 0 0 1
vn 0 -2.826837E-07 1
vn 0 0 -1
vn 0 -2.633306E-07 -1
vn 0 -2.826837E-07 -1
vn 0 0 -1
vn 0 0.7525665 0.6585162
vn -1.24777E-07 0.9361005 0.3517326
vn 0 0.7525672 0.6585155
vn 0 0.9360992 0.3517362
vn -1.674318E-07 1 -1.163894E-05
vn 0 1 -1.870378E-06
vn 0 7.71484E-05 1
vn -1.742517E-06 0.0001139793 1
vn -1.800556E-06 0.0001151829 1
vn 0 7.594477E-05 1
vn 0 0.7525666 -0.6585161
vn -1.24777E-07 0.9361004 -0.351733
vn 0 0.936099 -0.3517365
vn 0 0.7525674 -0.6585153
vn -1.674317E-07 1 1.070374E-05
vn 0 1 9.351901E-07
vn 0 7.71484E-05 -1
vn -1.742517E-06 0.0001139793 -1
vn 0 7.594476E-05 -1
vn -1.800556E-06 0.0001151829 -1
vn -0.04692106 0.9592256 -0.2787198
vn 0.6530068 0.7412052 -0.155554
vn 0.4609149 0.7579273 -0.4616315
vn 0.8727148 0.4310545 0.2292617
vn -0.3093071 0.8760937 0.3698498
vn 0.9611019 0.1503967 0.2316549
vn 8.835563E-06 0 1
vn -0.9962981 0.004235909 0.08586148
vn -0.9825332 0.185834 0.009709417
vn -0.8563243 0.4918727 -0.1573847
vn -0.7878495 0.5408568 -0.2945623
vn 0 1 6.103517E-07
vn 0 1 6.103518E-07
vn 0 1 6.103518E-07
vn 0 1 6.103518E-07
vn 0 -6.866455E-07 1
vn 0 -6.866455E-07 1
vn 0 -7.019043E-07 1
vn 0 -6.713867E-07 1
vn 0 7.476808E-07 -1
vn 0 7.476808E-07 -1
vn 0 7.629395E-07 -1
vn 0 7.324219E-07 -1
vn 1 0 1.52588E-07
vn 1 0 1.52588E-07
vn 1 0 1.52588E-07
vn 1 0 1.52588E-07
vn -1 0 6.103518E-07
vn -1 0 6.103518E-07
vn -1 0 6.103518E-07
vn -1 0 6.103518E-07
vn -1 2.049345E-06 -1.556214E-05
vn -1 2.874344E-07 -2.182695E-06
vn -1 3.448281E-06 -2.618526E-05
vn -1 1.012016E-06 -3.110013E-06
vn -1 3.478206E-07 -1.068882E-06
vn -1 2.530902E-06 -7.777679E-06
vn 1 -7.20509E-07 -2.566765E-05
vn 1 -3.48921E-06 -3.429929E-06
vn 1 -2.365787E-06 -6.564651E-06
vn 1 1.477813E-06 -4.114874E-05
vn 1 -3.399486E-06 -5.112168E-06
vn 1 0 -1.555367E-05
vn -1 2.049346E-06 1.556214E-05
vn -1 2.874344E-07 2.182695E-06
vn -1 1.012016E-06 3.110012E-06
vn -1 3.448281E-06 2.618526E-05
vn -1 3.478206E-07 1.068883E-06
vn -1 2.530902E-06 7.777679E-06
vn 1 -7.205093E-07 2.566765E-05
vn 1 -3.48921E-06 3.429928E-06
vn 1 1.477812E-06 4.114874E-05
vn 1 -2.365788E-06 6.564649E-06
vn 1 -3.399487E-06 5.112166E-06
vn 1 0 1.555367E-05
g Area_Common_Build_Ruin_Wall_A_01_Lod1_0
f 3/3/3 2/2/2 1/1/1
f 4/4/4 1/1/1 2/2/2
f 7/7/7 6/6/6 5/5/5
f 8/8/8 5/5/5 6/6/6
f 11/11/11 10/10/10 9/9/9
f 12/12/12 9/9/9 10/10/10
f 15/15/15 14/14/14 13/13/13
f 16/16/16 13/13/13 14/14/14
f 19/19/19 18/18/18 17/17/17
f 20/20/20 17/17/17 18/18/18
f 23/23/23 22/22/22 21/21/21
f 24/24/24 21/21/21 22/22/22
f 27/27/27 26/26/26 25/25/25
f 28/28/28 25/25/25 26/26/26
f 31/31/31 30/30/30 29/29/29
f 32/32/32 29/29/29 30/30/30
f 35/35/35 34/34/34 33/33/33
f 36/36/36 33/33/33 34/34/34
f 39/39/39 38/38/38 37/37/37
f 40/40/40 37/37/37 38/38/38
f 43/43/43 42/42/42 41/41/41
f 44/44/44 41/41/41 42/42/42
f 47/47/47 46/46/46 45/45/45
f 48/48/48 45/45/45 46/46/46
f 51/51/51 50/50/50 49/49/49
f 52/52/52 49/49/49 50/50/50
f 49/49/49 54/54/54 53/53/53
f 55/55/55 53/53/53 54/54/54
f 58/58/58 57/57/57 56/56/56
f 59/59/59 56/56/56 57/57/57
f 61/61/61 60/60/60 58/58/58
f 62/62/62 58/58/58 60/60/60
f 65/65/65 64/64/64 63/63/63
f 66/66/66 63/63/63 64/64/64
f 69/69/69 68/68/68 67/67/67
f 70/70/70 67/67/67 68/68/68
f 73/73/73 72/72/72 71/71/71
f 74/74/74 71/71/71 72/72/72
f 77/77/77 76/76/76 75/75/75
f 78/78/78 75/75/75 76/76/76
f 81/81/81 80/80/80 79/79/79
f 82/82/82 79/79/79 80/80/80
f 85/85/85 84/84/84 83/83/83
f 86/86/86 83/83/83 84/84/84
f 89/89/89 88/88/88 87/87/87
f 90/90/90 87/87/87 88/88/88
f 93/93/93 92/92/92 91/91/91
f 94/94/94 91/91/91 92/92/92
f 97/97/97 96/96/96 95/95/95
f 98/98/98 95/95/95 96/96/96
f 96/96/96 99/99/99 98/98/98
f 100/100/100 98/98/98 99/99/99
f 103/103/103 102/102/102 101/101/101
f 104/104/104 101/101/101 102/102/102
f 107/107/107 106/106/106 105/105/105
f 108/108/108 105/105/105 106/106/106
f 106/106/106 107/107/107 109/109/109
f 110/110/110 109/109/109 107/107/107
f 113/113/113 112/112/112 111/111/111
f 114/114/114 111/111/111 112/112/112
g Area_Common_Build_Ruin_Wall_A_01_Lod1_1
f 117/117/117 116/116/116 115/115/115
f 116/116/116 118/118/118 115/115/115
f 116/116/116 117/117/117 118/118/118
f 119/119/119 115/115/115 118/118/118
f 118/118/118 120/120/120 119/119/119
f 121/121/121 119/119/119 120/120/120
f 121/121/121 122/122/122 119/119/119
f 123/123/123 119/119/119 122/122/122
f 119/119/119 123/123/123 115/115/115
f 124/124/124 115/115/115 123/123/123
f 124/124/124 125/125/125 115/115/115
f 124/124/124 123/123/123 125/125/125
f 128/128/128 127/127/127 126/126/126
f 129/129/129 126/126/126 127/127/127
g Area_Common_Build_Ruin_Wall_A_01_Lod1_2
f 132/132/132 131/131/131 130/130/130
f 133/133/133 130/130/130 131/131/131
f 136/136/136 135/135/135 134/134/134
f 137/137/137 134/134/134 135/135/135
f 140/140/140 139/139/139 138/138/138
f 141/141/141 138/138/138 139/139/139
f 144/144/144 143/143/143 142/142/142
f 145/145/145 142/142/142 143/143/143
f 148/148/148 147/147/147 146/146/146
f 149/149/149 146/146/146 147/147/147
f 146/146/146 149/149/149 150/150/150
f 151/151/151 150/150/150 149/149/149
f 154/154/154 153/153/153 152/152/152
f 155/155/155 152/152/152 153/153/153
f 152/152/152 156/156/156 154/154/154
f 157/157/157 154/154/154 156/156/156
f 160/160/160 159/159/159 158/158/158
f 161/161/161 158/158/158 159/159/159
f 158/158/158 162/162/162 160/160/160
f 163/163/163 160/160/160 162/162/162
f 166/166/166 165/165/165 164/164/164
f 167/167/167 164/164/164 165/165/165
f 164/164/164 167/167/167 168/168/168
f 169/169/169 168/168/168 167/167/167
