g Area_Common_Build_Hili_House_05_Lod1
v -7.629394E-08 0.3633656 0.116819
v -1.335144E-07 -0.01421005 0.1063755
v -0.1345638 0.1746633 0.1116489
v 0.1345637 0.1746634 0.1116489
v -3.814697E-08 1.113315 -0.71688
v 0.08204678 0.8318745 -0.5219074
v 0.06986463 1.134538 -0.6145802
v -0.001330891 0.7786763 -0.6209782
v -0.06986465 1.134538 -0.6145803
v -0.08470845 0.8318744 -0.5219074
v -1.907349E-08 1.152958 -0.5139725
v -0.001330891 0.8818223 -0.4247987
v -0.06986465 1.134538 -0.6145803
v -0.08470845 0.8318744 -0.5219074
v 0.09959517 0.4918336 -0.2799744
v -0.0006913185 0.3878917 -0.3508788
v -0.1009776 0.4918337 -0.2799745
v -0.1009776 0.4918337 -0.2799745
v -0.0006913089 0.5929896 -0.2107517
v 0.001685915 1.563925 -0.675692
v 0.05433837 1.555187 -0.5968825
v 0.001685915 1.54503 -0.5189293
v -0.05096651 1.555186 -0.5968825
v -0.05096651 1.555186 -0.5968825
v 0.1148539 0.4973229 -0.2783711
v 0.001616894 0.516473 -0.4564481
v 0.001509162 0.396884 -0.375657
v 0.1074538 0.6112641 -0.3689543
v -0.1075854 0.6112639 -0.3689543
v -0.111974 0.497323 -0.2783711
v 0.001616897 0.6962706 -0.2772421
v 0.001616893 0.5879773 -0.1768669
v -0.1075854 0.6112639 -0.3689543
v -0.111974 0.497323 -0.2783711
v 0.001115685 1.716278 -0.6298265
v 0.06206403 1.569308 -0.5895271
v 0.05322074 1.701267 -0.5594509
v 0.001120054 1.586877 -0.6718908
v -0.05098949 1.701267 -0.5594509
v -0.05982413 1.569308 -0.589527
v 0.001120054 1.551739 -0.5042748
v 0.001115685 1.683468 -0.478654
v 0.06206403 1.569308 -0.5895271
v 0.05322074 1.701267 -0.5594509
v 0.001685915 1.563925 -0.675692
v 0.05433837 1.555187 -0.5968825
v 0.000183569 2.415962 -0.2936123
v -0.05096651 1.555186 -0.5968825
v 0.001685915 1.54503 -0.5189293
v -0.05096651 1.555186 -0.5968825
v 0.1345637 0.1746634 0.1116489
v -0.0006913185 0.3878917 -0.3508788
v -1.335144E-07 -0.01421005 0.1063755
v 0.09959517 0.4918336 -0.2799744
v -0.1009776 0.4918337 -0.2799745
v -0.1345638 0.1746633 0.1116489
v -7.629394E-08 0.3633656 0.116819
v -0.0006913089 0.5929896 -0.2107517
v -0.1345638 0.1746633 0.1116489
v -0.1009776 0.4918337 -0.2799745
vt 0.2593387 0.1234531
vt 0.2547744 0.1121208
vt 0.25305 0.1194007
vt 0.2610631 0.1161732
vt 0.2760617 0.08299655
vt 0.2724859 0.07145648
vt 0.2719356 0.08299655
vt 0.2772524 0.07145648
vt 0.278128 0.08299655
vt 0.2796283 0.07145648
vt 0.2677945 0.08299655
vt 0.2677171 0.07145648
vt 0.2636169 0.08299655
vt 0.2629697 0.07145648
vt 0.2733017 0.05730556
vt 0.2788065 0.05730556
vt 0.2815272 0.05730556
vt 0.2622415 0.05730555
vt 0.2677663 0.05730556
vt 0.2742987 0.097748
vt 0.2710867 0.097748
vt 0.2678527 0.097748
vt 0.264632 0.097748
vt 0.2758998 0.097748
vt 0.291159 0.1177395
vt 0.3008747 0.1243535
vt 0.3008747 0.1177395
vt 0.291159 0.1243535
vt 0.309611 0.1243535
vt 0.309611 0.1177395
vt 0.2829363 0.1243535
vt 0.2829363 0.1177395
vt 0.2784576 0.1243535
vt 0.2784576 0.1177395
vt 0.2509328 0.04986133
vt 0.2553926 0.04708022
vt 0.2509328 0.04708022
vt 0.2553926 0.04986133
vt 0.2509328 0.05528548
vt 0.2553926 0.05528548
vt 0.2553926 0.06066467
vt 0.2509328 0.06066467
vt 0.2553926 0.06608883
vt 0.2509328 0.06608883
vt 0.274073 0.09944928
vt 0.2709746 0.09944928
vt 0.268575 0.1233587
vt 0.275615 0.09944928
vt 0.2678544 0.09944928
vt 0.264762 0.09944928
vt 0.2744508 0.04273129
vt 0.2791392 0.05435361
vt 0.2812076 0.04273129
vt 0.2734862 0.05435361
vt 0.2819282 0.05435361
vt 0.2846006 0.04273129
vt 0.2676885 0.04273129
vt 0.267792 0.05435361
vt 0.2608561 0.04273129
vt 0.2620927 0.0543536
vn 0 -0.02764862 0.9996177
vn 0 -0.02764862 0.9996177
vn 0.0003661916 -0.02764862 0.9996176
vn -0.0003663882 -0.02764862 0.9996176
vn -0.00420028 -0.0938188 -0.9955804
vn 0.9982902 0.001964805 -0.05841806
vn 0.9975709 0.0321792 -0.06177881
vn -0.004051329 -0.4122255 -0.9110729
vn -0.997557 0.03082432 -0.06268786
vn -0.997486 0.01582246 -0.069074
vn -0.003974657 0.1715278 0.9851713
vn -0.001793808 0.4729427 0.8810914
vn -0.997557 0.03082432 -0.06268786
vn -0.997486 0.01582246 -0.069074
vn 0.996929 0.007058854 -0.07799205
vn -0.005340812 -0.6684144 -0.7437699
vn -0.9971803 -0.005922876 -0.07480821
vn -0.9971803 -0.005922876 -0.07480821
vn 0.005343607 0.7122878 0.7018673
vn 0.0002603936 0.2449383 -0.9695386
vn 0.9972517 0.06100458 -0.04204256
vn 0.001680405 -0.1166717 0.9931691
vn -0.997165 0.06158503 -0.04323323
vn -0.997165 0.06158503 -0.04323323
vn 0.9977227 0.02114295 -0.06404974
vn 0.01176786 -0.5626169 -0.8266339
vn 0.005337932 -0.5676337 -0.8232638
vn 0.9975026 0.07028937 0.006924819
vn -0.9977059 0.06689995 0.01036643
vn -0.9989552 0.00218695 -0.04564729
vn 0.01007316 0.6772477 0.7356861
vn 0.006726464 0.6731234 0.7394996
vn -0.9977059 0.06689995 0.01036643
vn -0.9989552 0.00218695 -0.04564729
vn 4.785199E-05 0.3090416 -0.9510486
vn 0.9983262 0.05663297 -0.01171908
vn 0.9974268 0.07018014 -0.01464079
vn 6.566133E-05 0.3090507 -0.9510456
vn -0.9984732 0.05478112 -0.007078411
vn -0.9977655 0.06681342 -5.637792E-05
vn -0.00950084 -0.1725326 0.9849579
vn -0.01062975 -0.1709154 0.9852284
vn 0.9983262 0.05663297 -0.01171908
vn 0.9974268 0.07018014 -0.01464079
vn 0.0002603936 0.2449383 -0.9695386
vn 0.9972517 0.06100458 -0.04204256
vn -0.001703695 0.9434978 0.3313744
vn -0.997165 0.06158503 -0.04323323
vn 0.001680405 -0.1166717 0.9931691
vn -0.997165 0.06158503 -0.04323323
vn 0.9522132 -0.2028304 -0.2283634
vn -0.005340812 -0.6684144 -0.7437699
vn -0.0033411 -0.7430677 -0.6692079
vn 0.996929 0.007058854 -0.07799205
vn -0.9971803 -0.005922876 -0.07480821
vn -0.9465003 -0.2078591 -0.2468434
vn 0.004619791 0.8213117 0.5704611
vn 0.005343607 0.7122878 0.7018673
vn -0.9465003 -0.2078591 -0.2468434
vn -0.9971803 -0.005922876 -0.07480821
g Area_Common_Build_Hili_House_05_Lod1_0
f 3/3/3 2/2/2 1/1/1
f 4/4/4 1/1/1 2/2/2
f 7/7/7 6/6/6 5/5/5
f 8/8/8 5/5/5 6/6/6
f 5/5/5 8/8/8 9/9/9
f 10/10/10 9/9/9 8/8/8
f 7/7/7 11/11/11 6/6/6
f 12/12/12 6/6/6 11/11/11
f 11/11/11 13/13/13 12/12/12
f 14/14/14 12/12/12 13/13/13
f 6/6/6 15/15/15 8/8/8
f 16/16/16 8/8/8 15/15/15
f 10/10/10 8/8/8 17/17/17
f 16/16/16 17/17/17 8/8/8
f 14/14/14 18/18/18 12/12/12
f 19/19/19 12/12/12 18/18/18
f 12/12/12 19/19/19 6/6/6
f 15/15/15 6/6/6 19/19/19
f 5/5/5 20/20/20 7/7/7
f 21/21/21 7/7/7 20/20/20
f 11/11/11 22/22/22 13/13/13
f 21/21/21 22/22/22 7/7/7
f 11/11/11 7/7/7 22/22/22
f 23/23/23 13/13/13 22/22/22
f 20/20/20 5/5/5 24/24/24
f 9/9/9 24/24/24 5/5/5
f 27/27/27 26/26/26 25/25/25
f 28/28/28 25/25/25 26/26/26
f 26/26/26 27/27/27 29/29/29
f 30/30/30 29/29/29 27/27/27
f 28/28/28 31/31/31 25/25/25
f 32/32/32 25/25/25 31/31/31
f 31/31/31 33/33/33 32/32/32
f 34/34/34 32/32/32 33/33/33
f 37/37/37 36/36/36 35/35/35
f 38/38/38 35/35/35 36/36/36
f 35/35/35 38/38/38 39/39/39
f 40/40/40 39/39/39 38/38/38
f 40/40/40 41/41/41 39/39/39
f 42/42/42 39/39/39 41/41/41
f 41/41/41 43/43/43 42/42/42
f 44/44/44 42/42/42 43/43/43
f 47/47/47 46/46/46 45/45/45
f 47/47/47 45/45/45 48/48/48
f 47/47/47 49/49/49 46/46/46
f 47/47/47 50/50/50 49/49/49
f 53/53/53 52/52/52 51/51/51
f 54/54/54 51/51/51 52/52/52
f 52/52/52 53/53/53 55/55/55
f 56/56/56 55/55/55 53/53/53
f 51/51/51 54/54/54 57/57/57
f 58/58/58 57/57/57 54/54/54
f 57/57/57 58/58/58 59/59/59
f 60/60/60 59/59/59 58/58/58
