g Area_Common_Build_Hili_SentryPost_02_B_Col
v 0.2229281 6.854788 -0.5324199
v 0.7430769 -3.287742E-07 -0.1772206
v 0.5950759 6.854788 -0.1426781
v 0.2790984 -3.938875E-07 -0.666213
v -0.3260316 6.854788 -0.5243077
v -0.4079521 -3.925355E-07 -0.65606
v -0.5891962 6.854788 0.1398907
v -0.7366145 -2.819078E-07 0.1747395
v -0.2217165 6.854788 0.5318456
v -0.2766953 -2.165869E-07 0.6652916
v 0.2957713 6.854788 0.5386583
v 0.3829892 -2.165397E-07 0.6656457
vn 0.386534 0.0176546 -0.9221061
vn 0.984009 0.01872664 -0.1771314
vn 0.9846835 0.01924109 -0.1732864
vn 0.3879081 0.0177893 -0.9215263
vn -0.5682422 0.01899743 -0.822642
vn -0.5679178 0.01897131 -0.8228666
vn -0.9822649 0.01858453 0.1865753
vn -0.9821149 0.01855306 0.1873657
vn -0.4035833 0.01768856 0.9147719
vn -0.3978605 0.01727226 0.9172834
vn 0.5412011 0.01945863 0.8406681
vn 0.55051 0.01835959 0.8346267
g Area_Common_Build_Hili_SentryPost_02_B_Col_0
f 3/3/3 2/2/2 1/1/1
f 4/4/4 1/1/1 2/2/2
f 1/1/1 4/4/4 5/5/5
f 6/6/6 5/5/5 4/4/4
f 5/5/5 6/6/6 7/7/7
f 8/8/8 7/7/7 6/6/6
f 7/7/7 8/8/8 9/9/9
f 10/10/10 9/9/9 8/8/8
f 9/9/9 10/10/10 11/11/11
f 12/12/12 11/11/11 10/10/10
f 11/11/11 12/12/12 3/3/3
f 2/2/2 3/3/3 12/12/12
