g Area_Common_Build_Pillar_B_06_Lod0
v 1.053225 -0.02032713 -0.3455113
v 0.3431443 4.087523 -0.3455114
v 1.053227 4.087521 -0.3455117
v 0.3431426 -0.02032683 -0.345511
v 1.053228 5.052284 -0.3455117
v 0.3431451 5.486199 -0.3455114
v 1.053225 -0.02032713 -0.3455113
v 1.053227 4.087521 -1.055595
v 1.053225 -0.0203271 -1.055595
v 1.053227 4.087521 -0.3455117
v 1.053227 4.716939 -1.055595
v 1.053228 5.087253 -0.7601464
v 1.053228 5.052284 -0.3455117
v 0.3431424 -0.0203268 -1.055596
v 1.053227 4.087521 -1.055595
v 0.3431442 4.087522 -1.055595
v 1.053225 -0.0203271 -1.055595
v 0.6811658 5.080273 -1.055596
v 0.3431449 5.187021 -1.055596
v 1.053227 4.716939 -1.055595
v 0.3431424 -0.0203268 -1.055596
v 0.3431443 4.087523 -0.3455114
v 0.3431426 -0.02032683 -0.345511
v 0.3431442 4.087522 -1.055595
v 0.3431449 5.187021 -1.055596
v 0.3431451 5.486199 -0.3455114
v 1.053226 -0.02032716 0.3601073
v 1.053228 4.087522 1.07019
v 1.053228 4.087523 0.3601068
v 1.053226 -0.02032719 1.070191
v 1.053229 5.559248 0.3601069
v 1.053228 5.303694 1.07019
v 1.053228 5.734224 0.7754023
v 1.053226 -0.02032716 0.3601073
v 0.3431433 4.087523 0.3601074
v 0.3431417 -0.02032747 0.3601079
v 1.053228 4.087523 0.3601068
v 1.053229 5.559248 0.3601069
v 0.3431442 5.783496 0.3601075
v 0.3431411 -0.0203275 1.070191
v 0.3431433 4.087523 0.3601074
v 0.3431429 4.087522 1.07019
v 0.3431417 -0.02032747 0.3601079
v 0.3431442 5.783496 0.3601075
v 0.343144 6.082675 1.07019
v 0.3431411 -0.0203275 1.070191
v 1.053228 4.087522 1.07019
v 1.053226 -0.02032719 1.070191
v 0.3431429 4.087522 1.07019
v 1.053228 5.303694 1.07019
v 0.343144 6.082675 1.07019
v -0.3608395 4.087523 -0.3455123
v -0.3608416 -0.0203271 -1.055596
v -0.3608412 -0.02032713 -0.3455116
v -0.36084 4.087524 -1.055595
v -0.3608392 5.409343 -1.055595
v -0.3608387 5.70852 -0.3455123
v -0.3608395 4.087523 -0.3455123
v -1.070926 -0.02032713 -0.3455113
v -1.070924 4.087521 -0.345512
v -0.3608412 -0.02032713 -0.3455116
v -0.3608387 5.70852 -0.3455123
v -1.070923 5.932769 -0.345512
v -1.070924 4.087521 -1.055595
v -1.070926 -0.02032713 -0.3455113
v -1.070926 -0.0203271 -1.055595
v -1.070924 4.087521 -0.345512
v -1.070923 5.633591 -1.055595
v -1.070923 5.932769 -0.345512
v -1.070924 4.087521 -1.055595
v -0.3608416 -0.0203271 -1.055596
v -0.36084 4.087524 -1.055595
v -1.070926 -0.0203271 -1.055595
v -0.3608392 5.409343 -1.055595
v -1.070923 5.633591 -1.055595
v -1.070925 4.087521 1.070193
v -0.3608438 -0.02032689 1.070193
v -1.070927 -0.02032689 1.070193
v -0.3608421 4.087523 1.070192
v -0.360841 6.304999 1.070192
v -1.070924 6.335692 1.070192
v -0.5531446 6.365729 1.070192
v -1.070925 4.087521 1.070193
v -1.070927 -0.02032686 0.3601079
v -1.070925 4.087521 0.3601077
v -1.070927 -0.02032689 1.070193
v -1.070924 6.230068 0.3601075
v -1.070924 6.335692 1.070192
v -1.070924 6.425056 0.8229054
v -0.3608422 4.087523 0.3601071
v -1.070927 -0.02032686 0.3601079
v -0.360844 -0.02032716 0.3601076
v -1.070925 4.087521 0.3601077
v -0.3608413 6.00582 0.3601072
v -1.070924 6.230068 0.3601075
v -0.3608422 4.087523 0.3601071
v -0.3608438 -0.02032689 1.070193
v -0.3608421 4.087523 1.070192
v -0.360844 -0.02032716 0.3601076
v -0.3608413 6.00582 0.3601072
v -0.360841 6.304999 1.070192
v -0.879146 -0.02082432 0.8794951
v 0.8614459 4.087185 0.8794955
v 0.8614442 -0.02082401 0.879496
v -0.8791443 4.087184 0.8794949
v 0.861447 5.838647 0.8794956
v -0.8791431 6.388334 0.8794951
v 0.8614442 -0.02082401 0.879496
v 0.8614457 4.087185 -0.8610989
v 0.861444 -0.02082424 -0.8610997
v 0.8614459 4.087185 0.8794955
v 0.8614467 5.204822 -0.001944809
v 0.861447 5.838647 0.8794956
v 0.8614467 5.593262 0.2970875
v 0.8614464 5.092308 -0.2773971
v 0.8614464 5.031747 -0.8610988
v 0.861444 -0.02082424 -0.8610997
v -0.8791444 4.087185 -0.8611007
v -0.8791462 -0.02082393 -0.8611009
v 0.8614457 4.087185 -0.8610989
v 0.8614464 5.031747 -0.8610988
v -0.8791435 5.654973 -0.8611019
v -0.8791462 -0.02082393 -0.8611009
v -0.8791443 4.087184 0.8794949
v -0.879146 -0.02082432 0.8794951
v -0.8791444 4.087185 -0.8611007
v -0.8791435 5.654973 -0.8611019
v -0.8791431 6.388334 0.8794951
v 0.3431424 -0.0203268 -1.055596
v 1.053225 -0.02032713 -0.3455113
v 1.053225 -0.0203271 -1.055595
v 0.3431426 -0.02032683 -0.345511
v 0.3431411 -0.0203275 1.070191
v 1.053226 -0.02032716 0.3601073
v 0.3431417 -0.02032747 0.3601079
v 1.053226 -0.02032719 1.070191
v -1.070926 -0.02032713 -0.3455113
v -0.3608416 -0.0203271 -1.055596
v -1.070926 -0.0203271 -1.055595
v -0.3608412 -0.02032713 -0.3455116
v -1.070927 -0.02032686 0.3601079
v -0.3608438 -0.02032689 1.070193
v -0.360844 -0.02032716 0.3601076
v -1.070927 -0.02032689 1.070193
v -0.8791462 -0.02082393 -0.8611009
v 0.8614442 -0.02082401 0.879496
v 0.861444 -0.02082424 -0.8610997
v -0.879146 -0.02082432 0.8794951
v 0.343144 6.082675 1.07019
v 0.596069 6.002801 1.07019
v 1.053228 5.303694 1.07019
v 0.343144 6.082675 1.07019
v 1.053228 5.734224 0.7754023
v 0.596069 6.002801 1.07019
v 1.053229 5.559248 0.3601069
v 1.053228 5.303694 1.07019
v 0.3431442 5.783496 0.3601075
v -0.3608392 5.409343 -1.055595
v -0.3608387 5.70852 -0.3455123
v -1.070923 5.633591 -1.055595
v -1.070923 5.932769 -0.345512
v -1.070924 6.230068 0.3601075
v -0.5531446 6.365729 1.070192
v -1.070924 6.425056 0.8229054
v -0.360841 6.304999 1.070192
v -1.070924 6.335692 1.070192
v -0.3608413 6.00582 0.3601072
v 0.861447 5.838647 0.8794956
v -0.8791431 6.388334 0.8794951
v 0.2175644 6.049193 0.3040022
v 0.8614467 5.593262 0.2970875
v -0.1167556 5.734221 -0.4259523
v -0.8791435 5.654973 -0.8611019
v 0.8614464 5.031747 -0.8610988
v 0.8614467 5.204822 -0.001944809
v 0.3431451 5.486199 -0.3455114
v 0.3431449 5.187021 -1.055596
v 0.6811658 5.080273 -1.055596
v 1.053228 5.087253 -0.7601464
v 1.053227 4.716939 -1.055595
v 1.053228 5.052284 -0.3455117
v 0.8614467 5.204822 -0.001944809
v 0.8614464 5.031747 -0.8610988
v 0.8614464 5.092308 -0.2773971
vt 0.946601 0.505504
vt 0.9078531 0.7031749
vt 0.946601 0.7031749
vt 0.9081712 0.505504
vt 0.946574 0.7704924
vt 0.9081058 0.7956462
vt 0.9554366 0.505504
vt 0.9925947 0.7031749
vt 0.9925947 0.505504
vt 0.9554366 0.7031749
vt 0.9926032 0.7492239
vt 0.9786241 0.7696932
vt 0.9552994 0.7672425
vt 0.946601 0.505504
vt 0.9078531 0.7031749
vt 0.946601 0.7031749
vt 0.9081711 0.505504
vt 0.9314877 0.7728416
vt 0.946574 0.7775424
vt 0.9081058 0.7451982
vt 0.9554366 0.505504
vt 0.9925946 0.7031749
vt 0.9925946 0.505504
vt 0.9554366 0.7031749
vt 0.9552994 0.7760785
vt 0.9926032 0.7983566
vt 0.946601 0.505504
vt 0.9078531 0.7031749
vt 0.946601 0.7031749
vt 0.9081712 0.505504
vt 0.946574 0.8027023
vt 0.9081058 0.7836776
vt 0.9258483 0.8150134
vt 0.9554366 0.505504
vt 0.9925947 0.7031749
vt 0.9925947 0.505504
vt 0.9554366 0.7031749
vt 0.9552994 0.8004891
vt 0.9926032 0.8169631
vt 0.946601 0.505504
vt 0.9078531 0.7031749
vt 0.9466011 0.7031749
vt 0.9081711 0.505504
vt 0.9081058 0.8151429
vt 0.946574 0.8370286
vt 0.9554366 0.505504
vt 0.9925945 0.7031749
vt 0.9925946 0.505504
vt 0.9554366 0.7031749
vt 0.9926032 0.7871098
vt 0.9552994 0.8348154
vt 0.9466009 0.7031749
vt 0.9078531 0.505504
vt 0.946601 0.505504
vt 0.9081711 0.7031749
vt 0.9084237 0.7938128
vt 0.9468433 0.8111674
vt 0.9554366 0.7031749
vt 0.9925947 0.505504
vt 0.9925947 0.7031749
vt 0.9554366 0.505504
vt 0.9556174 0.8129352
vt 0.9928402 0.8258736
vt 0.9466009 0.7031749
vt 0.9078531 0.505504
vt 0.946601 0.505504
vt 0.9081711 0.7031749
vt 0.9468433 0.8062535
vt 0.9084237 0.828139
vt 0.9554365 0.7031749
vt 0.9925946 0.505504
vt 0.9925945 0.7031749
vt 0.9554366 0.505504
vt 0.9928402 0.7915473
vt 0.9556174 0.8080214
vt 0.9466009 0.7031749
vt 0.9078531 0.505504
vt 0.946601 0.505504
vt 0.9081711 0.7031749
vt 0.9083582 0.8518008
vt 0.9468264 0.8522972
vt 0.9083582 0.8543807
vt 0.9554366 0.7031749
vt 0.9925947 0.505504
vt 0.9925947 0.7031749
vt 0.9554366 0.505504
vt 0.9928557 0.8453704
vt 0.9555519 0.8544585
vt 0.9555519 0.8608157
vt 0.9466009 0.7031749
vt 0.9078531 0.505504
vt 0.946601 0.505504
vt 0.9081711 0.7031749
vt 0.9468433 0.8306642
vt 0.9084237 0.8468866
vt 0.9554365 0.7031749
vt 0.9925946 0.505504
vt 0.9925945 0.7031749
vt 0.9554366 0.505504
vt 0.9555519 0.8333223
vt 0.9928557 0.8502843
vt 0.7698023 0.5419639
vt 0.8307555 0.7229408
vt 0.8307555 0.5419639
vt 0.7698024 0.7229408
vt 0.8305519 0.7746973
vt 0.7695495 0.7914861
vt 0.8387165 0.5419639
vt 0.8996696 0.7229408
vt 0.8996696 0.5419639
vt 0.83859 0.7229408
vt 0.8696507 0.7550169
vt 0.83859 0.7751176
vt 0.8607117 0.7671468
vt 0.8798795 0.7521722
vt 0.8994102 0.7524746
vt 0.7698022 0.5419639
vt 0.8307555 0.7229408
vt 0.8307554 0.5419639
vt 0.7698022 0.7229408
vt 0.7695494 0.752427
vt 0.8305519 0.7690567
vt 0.8387163 0.5419639
vt 0.8996695 0.7229408
vt 0.8996695 0.5419639
vt 0.83859 0.7229408
vt 0.83859 0.7696482
vt 0.8994102 0.7908222
vt 0.2596008 0.8403538
vt 0.006360682 0.5960098
vt 0.2596003 0.5960099
vt 0.006360682 0.8403538
vt 0.006360682 0.8403538
vt 0.2596 0.5960091
vt 0.2595999 0.8403536
vt 0.006360579 0.5960091
vt 0.006360359 0.8403544
vt 0.2595999 0.59601
vt 0.2595998 0.8403544
vt 0.006360359 0.5960099
vt 0.2596008 0.840354
vt 0.006360682 0.5960099
vt 0.2596008 0.5960099
vt 0.006360682 0.8403538
vt 0.2596008 0.840354
vt 0.006360682 0.5960099
vt 0.2596008 0.5960099
vt 0.006360682 0.8403538
vt 0.9552994 0.8348154
vt 0.9552994 0.831345
vt 0.9926032 0.7871098
vt 0.1006643 0.7824651
vt 0.1198531 0.6968369
vt 0.0809602 0.7497965
vt 0.1792271 0.7038417
vt 0.04759367 0.704354
vt 0.1810898 0.785128
vt 0.1071882 0.6909154
vt 0.03048811 0.6935784
vt 0.109051 0.7722017
vt 0.02862538 0.7695388
vt 0.194128 0.7942666
vt 0.09192057 0.7452191
vt 0.1191076 0.803586
vt 0.1155648 0.7156433
vt 0.07046363 0.8146206
vt 0.1922654 0.7129805
vt 0.03290402 0.639179
vt 0.03378264 0.8424494
vt 0.1016112 0.7115242
vt 0.1091632 0.6373222
vt 0.1910509 0.7525859
vt 0.2422373 0.8471954
vt 0.2338507 0.6367918
vt 0.1338085 0.6320376
vt 0.06770822 0.7194721
vt 0.1832689 0.7801131
vt 0.1821965 0.741292
vt 0.1440417 0.695753
vt 0.1831218 0.6846362
vt 0.07526807 0.6884539
vt 0.1338085 0.6320376
vt 0.2338507 0.6367918
vt 0.1607127 0.6629984
vn 4.29775E-07 1.021498E-07 1
vn 4.264089E-07 0 1
vn 4.29775E-07 0 1
vn 4.297749E-07 1.021498E-07 1
vn 4.18098E-07 0 1
vn 4.131084E-07 0 1
vn 1 -4.251489E-07 -3.106228E-07
vn 1 -4.47739E-07 -2.207414E-07
vn 1 -4.271727E-07 -3.223308E-07
vn 1 -5.090657E-07 -3.248574E-07
vn 1 -5.494723E-07 -2.72165E-07
vn 1 -7.28303E-07 -6.520057E-07
vn 1 -8.698859E-07 -9.933786E-07
vn 1.625435E-06 0 -1
vn 1.196263E-06 -2.219033E-07 -1
vn 7.537354E-07 -2.864206E-07 -1
vn 1.719099E-06 0 -1
vn 6.896147E-07 -4.747335E-07 -1
vn -1.533944E-07 -4.857281E-07 -1
vn 3.399286E-06 1.212119E-07 -1
vn -1 4.096118E-07 1.55311E-07
vn -1 5.112431E-07 0
vn -1 4.085998E-07 1.611651E-07
vn -1 5.21197E-07 1.074427E-07
vn -1 5.878165E-07 0
vn -1 5.727462E-07 0
vn 1 -4.416976E-07 5.13802E-07
vn 1 -4.996118E-07 3.171066E-07
vn 1 -4.894188E-07 3.2233E-07
vn 1 -4.457453E-07 5.372183E-07
vn 1 -4.074144E-07 3.054664E-07
vn 1 -4.926816E-07 2.524619E-07
vn 1 0 4.010491E-07
vn -8.59548E-07 -1.11436E-07 -1
vn -8.57515E-07 0 -1
vn -8.595479E-07 -1.11436E-07 -1
vn -8.59548E-07 0 -1
vn -8.487443E-07 0 -1
vn -8.453413E-07 0 -1
vn -1 4.033611E-07 -7.824119E-07
vn -1 4.748713E-07 -6.026478E-07
vn -1 4.815831E-07 -5.797428E-07
vn -1 3.993133E-07 -8.058281E-07
vn -1 5.469972E-07 -5.200857E-07
vn -1 5.544749E-07 -5.022258E-07
vn 0 0 1
vn -4.063577E-07 1.457699E-07 1
vn 0 0 1
vn -3.645347E-07 1.117266E-07 1
vn -1.193132E-07 0 1
vn 0 0 1
vn 1 -4.736626E-07 -6.357242E-07
vn 1 -4.086E-07 -6.446616E-07
vn 1 -4.086E-07 -6.446615E-07
vn 1 -4.784649E-07 -6.446636E-07
vn 1 -5.253863E-07 -6.019542E-07
vn 1 -5.177266E-07 -5.876955E-07
vn 4.297737E-07 0 1
vn 4.297738E-07 1.764407E-07 1
vn 4.280577E-07 0 1
vn 4.297739E-07 1.764407E-07 1
vn 4.195891E-07 0 1
vn 4.167164E-07 0 1
vn -1 5.590157E-07 1.074437E-07
vn -1 4.271728E-07 1.074436E-07
vn -1 4.271727E-07 1.074436E-07
vn -1 5.379983E-07 0
vn -1 5.710247E-07 -1.534716E-07
vn -1 5.375003E-07 -2.264643E-07
vn 0 -1.080516E-07 -1
vn -7.658837E-07 0 -1
vn 0 -1.091534E-07 -1
vn -8.595479E-07 0 -1
vn 0 -3.60823E-07 -1
vn -1.090883E-07 -3.454292E-07 -1
vn 3.87669E-07 0 1
vn 4.297749E-07 1.114362E-07 1
vn 4.297749E-07 1.114362E-07 1
vn 4.297749E-07 0 1
vn 0 0 1
vn 0 0 1
vn 0 0 1
vn -1 4.971653E-07 0
vn -1 4.086E-07 1.074434E-07
vn -1 5.069766E-07 1.074434E-07
vn -1 4.086E-07 1.074434E-07
vn -1 5.100471E-07 -1.337648E-07
vn -1 4.79424E-07 -1.787577E-07
vn -1 3.941807E-07 -1.660777E-07
vn -8.361337E-07 0 -1
vn -4.766072E-07 -1.033407E-07 -1
vn -4.29775E-07 -1.114362E-07 -1
vn -8.14223E-07 0 -1
vn -5.337662E-07 0 -1
vn -4.578888E-07 0 -1
vn 1 -4.575163E-07 -2.148868E-07
vn 1 -4.178863E-07 -2.148866E-07
vn 1 -4.577123E-07 -2.154163E-07
vn 1 -4.178863E-07 -2.148866E-07
vn 1 -4.985706E-07 -2.187347E-07
vn 1 -4.988833E-07 -2.195794E-07
vn -4.812532E-07 0 1
vn -3.730246E-07 0 1
vn -5.259867E-07 1.114322E-07 1
vn -3.449576E-07 0 1
vn -3.373085E-07 0 1
vn -3.277664E-07 0 1
vn 1 -4.271559E-07 0
vn 1 -5.389011E-07 -1.045258E-07
vn 1 -4.271559E-07 0
vn 1 -5.592952E-07 0
vn 1 -4.706712E-07 -2.169284E-07
vn 1 -3.785061E-07 0
vn 1 5.970286E-07 -7.755341E-07
vn 1 -1.431628E-07 -7.991327E-07
vn 1 -6.461743E-07 0
vn 7.907828E-07 0 -1
vn 1.157588E-06 -1.627633E-07 -1
vn 7.013157E-07 0 -1
vn 1.051973E-06 1.332453E-07 -1
vn 1.245229E-06 -2.753511E-07 -1
vn 1.491927E-06 -7.299528E-07 -1
vn -1 4.318945E-07 0
vn -1 4.868579E-07 0
vn -1 4.271561E-07 0
vn -1 4.905131E-07 0
vn -1 5.325263E-07 0
vn -1 5.304752E-07 0
vn -4.297748E-07 -1 0
vn -4.297748E-07 -1 0
vn -4.297748E-07 -1 0
vn -4.297749E-07 -1 0
vn 4.297739E-07 -1 0
vn 4.297739E-07 -1 0
vn 4.297739E-07 -1 0
vn 4.297739E-07 -1 0
vn 0 -1 0
vn 0 -1 0
vn 0 -1 0
vn 0 -1 0
vn -4.297747E-07 -1 3.861247E-07
vn -4.297747E-07 -1 3.861247E-07
vn -4.297747E-07 -1 3.861247E-07
vn 0 -1 0
vn -1.75329E-07 -1 1.314963E-07
vn -1.75329E-07 -1 1.314963E-07
vn -1.75329E-07 -1 1.314963E-07
vn 1.75329E-07 -1 -2.191604E-07
vn 0 0 1
vn 0 0 1
vn -1.193132E-07 0 1
vn 0.2794342 0.8848339 -0.3728076
vn 0.5356095 0.8420807 0.06342266
vn 0.4035427 0.8950837 -0.1896796
vn 0.2794351 0.8848343 -0.3728058
vn 0.6537627 0.4275081 0.6243645
vn 0.2794346 0.8848343 -0.3728063
vn 0.2794352 0.8848347 -0.3728051
vn 0.2794357 0.8848343 -0.3728055
vn 0.2794356 0.8848343 -0.3728054
vn 0.2794361 0.8848339 -0.3728059
vn 0.2794333 0.8848352 -0.372805
vn 0.2387341 0.930876 -0.2765429
vn 0.1698892 0.9779952 -0.1210914
vn 0.2794343 0.8848347 -0.3728057
vn -0.05447641 0.9390787 0.3393574
vn 0.2794354 0.8848339 -0.3728066
vn 0.4575131 0.8676847 -0.1944356
vn 0.1600697 0.9463532 -0.2807015
vn 0.3468412 0.8769085 -0.3327651
vn 0.4636954 0.6637475 -0.5868781
vn 0.294108 0.828274 -0.4769305
vn 0.1824534 0.8601398 -0.4763092
vn 0.5117508 0.8080998 -0.2916949
vn 0.5729892 0.710102 -0.4091924
vn 0.3704742 0.8996266 -0.2311297
vn 0.2794336 0.8848349 -0.3728057
vn 0.359629 0.8049676 -0.4719048
vn 0.4665553 0.8126507 -0.3491777
vn 0.5201572 0.53265 -0.667623
vn 0.5200838 0.8510938 0.07177911
vn 0.5729892 0.710102 -0.4091924
vn 0.5117508 0.8080998 -0.2916949
vn 1 -3.635872E-06 3.77237E-07
g Area_Common_Build_Pillar_B_06_Lod0_0
f 3/3/3 2/2/2 1/1/1
f 4/4/4 1/1/1 2/2/2
f 3/3/3 5/5/5 2/2/2
f 2/2/2 5/5/5 6/6/6
f 9/9/9 8/8/8 7/7/7
f 10/10/10 7/7/7 8/8/8
f 8/8/8 11/11/11 10/10/10
f 11/11/11 12/12/12 10/10/10
f 10/10/10 12/12/12 13/13/13
f 16/16/16 15/15/15 14/14/14
f 17/17/17 14/14/14 15/15/15
f 16/16/16 18/18/18 15/15/15
f 19/19/19 18/18/18 16/16/16
f 15/15/15 18/18/18 20/20/20
f 23/23/23 22/22/22 21/21/21
f 24/24/24 21/21/21 22/22/22
f 24/24/24 22/22/22 25/25/25
f 26/26/26 25/25/25 22/22/22
f 29/29/29 28/28/28 27/27/27
f 30/30/30 27/27/27 28/28/28
f 29/29/29 31/31/31 28/28/28
f 32/32/32 28/28/28 31/31/31
f 31/31/31 33/33/33 32/32/32
f 36/36/36 35/35/35 34/34/34
f 37/37/37 34/34/34 35/35/35
f 37/37/37 35/35/35 38/38/38
f 39/39/39 38/38/38 35/35/35
f 42/42/42 41/41/41 40/40/40
f 43/43/43 40/40/40 41/41/41
f 41/41/41 42/42/42 44/44/44
f 45/45/45 44/44/44 42/42/42
f 48/48/48 47/47/47 46/46/46
f 49/49/49 46/46/46 47/47/47
f 47/47/47 50/50/50 49/49/49
f 51/51/51 49/49/49 50/50/50
f 54/54/54 53/53/53 52/52/52
f 55/55/55 52/52/52 53/53/53
f 55/55/55 56/56/56 52/52/52
f 57/57/57 52/52/52 56/56/56
f 60/60/60 59/59/59 58/58/58
f 61/61/61 58/58/58 59/59/59
f 58/58/58 62/62/62 60/60/60
f 63/63/63 60/60/60 62/62/62
f 66/66/66 65/65/65 64/64/64
f 67/67/67 64/64/64 65/65/65
f 64/64/64 67/67/67 68/68/68
f 69/69/69 68/68/68 67/67/67
f 72/72/72 71/71/71 70/70/70
f 73/73/73 70/70/70 71/71/71
f 72/72/72 70/70/70 74/74/74
f 75/75/75 74/74/74 70/70/70
f 78/78/78 77/77/77 76/76/76
f 79/79/79 76/76/76 77/77/77
f 79/79/79 80/80/80 76/76/76
f 81/81/81 76/76/76 80/80/80
f 82/82/82 81/81/81 80/80/80
f 85/85/85 84/84/84 83/83/83
f 86/86/86 83/83/83 84/84/84
f 85/85/85 83/83/83 87/87/87
f 88/88/88 87/87/87 83/83/83
f 89/89/89 87/87/87 88/88/88
f 92/92/92 91/91/91 90/90/90
f 93/93/93 90/90/90 91/91/91
f 90/90/90 93/93/93 94/94/94
f 95/95/95 94/94/94 93/93/93
f 98/98/98 97/97/97 96/96/96
f 99/99/99 96/96/96 97/97/97
f 96/96/96 100/100/100 98/98/98
f 101/101/101 98/98/98 100/100/100
f 104/104/104 103/103/103 102/102/102
f 105/105/105 102/102/102 103/103/103
f 103/103/103 106/106/106 105/105/105
f 107/107/107 105/105/105 106/106/106
f 110/110/110 109/109/109 108/108/108
f 111/111/111 108/108/108 109/109/109
f 111/111/111 109/109/109 112/112/112
f 111/111/111 112/112/112 113/113/113
f 114/114/114 113/113/113 112/112/112
f 115/115/115 112/112/112 109/109/109
f 116/116/116 115/115/115 109/109/109
f 119/119/119 118/118/118 117/117/117
f 120/120/120 117/117/117 118/118/118
f 120/120/120 118/118/118 121/121/121
f 122/122/122 121/121/121 118/118/118
f 125/125/125 124/124/124 123/123/123
f 126/126/126 123/123/123 124/124/124
f 126/126/126 124/124/124 127/127/127
f 128/128/128 127/127/127 124/124/124
f 131/131/131 130/130/130 129/129/129
f 132/132/132 129/129/129 130/130/130
f 135/135/135 134/134/134 133/133/133
f 136/136/136 133/133/133 134/134/134
f 139/139/139 138/138/138 137/137/137
f 140/140/140 137/137/137 138/138/138
f 143/143/143 142/142/142 141/141/141
f 144/144/144 141/141/141 142/142/142
f 147/147/147 146/146/146 145/145/145
f 148/148/148 145/145/145 146/146/146
f 151/151/151 150/150/150 149/149/149
f 154/154/154 153/153/153 152/152/152
f 155/155/155 152/152/152 153/153/153
f 154/154/154 156/156/156 153/153/153
f 157/157/157 152/152/152 155/155/155
f 160/160/160 159/159/159 158/158/158
f 161/161/161 159/159/159 160/160/160
f 164/164/164 163/163/163 162/162/162
f 165/165/165 162/162/162 163/163/163
f 164/164/164 166/166/166 163/163/163
f 167/167/167 162/162/162 165/165/165
f 170/170/170 169/169/169 168/168/168
f 171/171/171 170/170/170 168/168/168
f 170/170/170 172/172/172 169/169/169
f 173/173/173 169/169/169 172/172/172
f 173/173/173 172/172/172 174/174/174
f 172/172/172 170/170/170 175/175/175
f 171/171/171 175/175/175 170/170/170
f 172/172/172 175/175/175 174/174/174
f 178/178/178 177/177/177 176/176/176
f 179/179/179 178/178/178 176/176/176
f 180/180/180 178/178/178 179/179/179
f 181/181/181 179/179/179 176/176/176
f 184/184/184 183/183/183 182/182/182
