g Area_Common_Build_Pillar_H_01_Col
v 1.466636 1.473266 1.46577
v -1.406824 1.767555 1.405997
v 1.406826 1.767552 1.405994
v -1.466634 1.473269 1.465772
v 1.466634 1.473271 -1.465776
v 1.406824 1.767557 -1.406001
v -1.466637 1.473274 -1.465774
v -1.406827 1.76756 -1.405998
v 1.054332 2.319384 1.053708
v -1.054331 2.319387 1.05371
v 1.043754 2.431357 1.240556
v -1.043753 2.431359 1.240558
v 1.043754 2.723714 1.240556
v -1.043753 2.723717 1.240558
v 1.241231 2.723715 1.043079
v 1.241231 2.431357 1.043079
v -1.24123 2.43136 1.043081
v -1.24123 2.723718 1.043081
v 1.24123 2.723718 -1.043085
v 1.24123 2.43136 -1.043085
v 1.043753 2.723719 -1.240562
v 1.043752 2.431361 -1.240562
v -1.043755 2.723722 -1.24056
v -1.043755 2.431363 -1.24056
v -1.241232 2.723721 -1.043083
v -1.241232 2.431363 -1.043083
v 0.9709123 2.882323 0.9703376
v -0.9709114 2.882326 0.9703392
v 0.9709106 2.882326 -0.9703432
v -0.970913 2.882329 -0.9703416
v 0.9705623 3.550391 0.9699876
v -0.9705615 3.550394 0.9699892
v 0.9705606 3.550394 -0.9699937
v -0.8866835 3.550396 -1.053872
v -1.054443 3.550397 -0.8861127
v 1.061244 3.793522 1.261342
v -1.061243 3.793524 1.261345
v 1.26203 3.793522 1.060556
v -1.262029 3.793525 1.060558
v 1.262028 3.793525 -1.060563
v -1.061245 3.793528 -1.261347
v 1.061242 3.793526 -1.261348
v -1.262031 3.793529 -1.060561
v 1.061244 4.171113 1.261342
v -1.061243 4.171115 1.261345
v 1.26203 4.171113 1.060556
v -1.262029 4.171116 1.060558
v 1.262028 4.171116 -1.060563
v -1.061245 4.171119 -1.261346
v 1.061242 4.171117 -1.261348
v -1.262031 4.17112 -1.060561
v -4.317734E-07 4.171115 -2.072127E-06
v 1.05433 2.319388 -1.053714
v -1.054332 2.319391 -1.053712
v 1.895825 0.3994361 -1.638423
v 1.895829 -0.04408875 1.638414
v 1.89583 0.3994321 1.638414
v 1.895825 -0.04408485 -1.638423
v 1.63149 -0.04408881 1.902753
v 1.63149 0.3994321 1.902754
v -1.631486 0.399435 1.902758
v 1.342554 1.051967 1.595696
v -1.342552 1.05197 1.595698
v -1.631486 -0.04408584 1.902757
v 1.596564 1.051967 1.341686
v -1.895825 0.3994356 1.638418
v -1.895825 -0.04408509 1.638418
v -1.596562 1.051971 1.341689
v 1.596561 1.051971 -1.341693
v -1.895829 -0.04407951 -1.638419
v -1.895829 0.3994412 -1.638419
v -1.63149 -0.04407936 -1.902759
v -1.63149 0.3994413 -1.902759
v 1.631485 0.3994367 -1.902762
v -1.342555 1.051975 -1.595701
v 1.342552 1.051972 -1.595703
v 1.631485 -0.04408409 -1.902763
v -1.596564 1.051975 -1.341691
v -1.511414 1.281533 -1.796399
v 1.511411 1.28153 -1.796402
v -1.797372 1.281533 -1.510441
v -1.797369 1.281529 1.51044
v -1.511412 1.281528 1.796398
v 1.511414 1.281524 1.796395
v 1.797372 1.281524 1.510437
v 1.797369 1.281529 -1.510444
v 1.511414 1.54524 1.796395
v -1.511412 1.545243 1.796397
v 1.797371 1.54524 1.510437
v -1.797369 1.545244 1.51044
v 1.797369 1.545244 -1.510444
v 1.511411 1.545245 -1.796402
v -1.511415 1.545249 -1.796399
v -1.797372 1.545249 -1.510441
v -3.309537E-07 1.545244 -2.124576E-06
v -0.3605959 4.09914 0.8556837
v 0.3745504 6.975059 0.888797
v 0.3605956 4.099139 0.855683
v -0.3745512 6.975059 0.8887978
v 0.8892838 6.975057 0.3743052
v 0.856151 4.099139 0.3603601
v -0.8561513 4.099142 0.3603614
v -0.8892846 6.975061 0.3743066
v 0.8892831 6.97506 -0.3743131
v 0.8561503 4.09914 -0.3603665
v 0.3745498 6.975061 -0.8888038
v 0.360595 4.099142 -0.8556885
v -0.3745518 6.975061 -0.8888032
v -0.3605964 4.099143 -0.8556879
v -0.8892853 6.975063 -0.3743118
v -0.8561519 4.099143 -0.3603652
v 0.7003403 8.492791 1.661888
v -0.700341 8.492792 1.661889
v -1.662797 8.492794 0.6998863
v 1.662795 8.492793 -0.6998935
v 1.662797 8.492791 0.6998837
v -0.7003421 8.492795 -1.661894
v 0.7003392 8.492795 -1.661896
v -1.662799 8.492798 -0.699891
v 1.655561 8.747467 -1.430782
v 1.669672 8.409198 1.442961
v 1.655565 8.747462 1.43077
v 1.669668 8.409204 -1.442974
v 1.436865 8.409198 1.675767
v 1.424725 8.747462 1.661609
v -1.424724 8.747466 1.661612
v 1.251809 8.960448 1.487839
v -1.251809 8.960453 1.487841
v -1.436863 8.409201 1.67577
v 1.48865 8.960449 1.250998
v -1.655562 8.747467 1.430774
v -1.669669 8.409204 1.442965
v -1.488649 8.960455 1.251
v 1.488647 8.960455 -1.251009
v -1.669673 8.40921 -1.44297
v -1.655566 8.747474 -1.430779
v -1.436867 8.409211 -1.675777
v -1.424727 8.747475 -1.661618
v 1.424721 8.747468 -1.661621
v -1.251811 8.960458 -1.487847
v 1.251806 8.960455 -1.487849
v 1.436862 8.409204 -1.67578
v -1.488652 8.96046 -1.251007
v 1.59656 10.19476 -1.341694
v -1.342555 10.19477 -1.595702
v 1.342551 10.19476 -1.595704
v -1.596565 10.19477 -1.341692
v -1.596563 10.19476 1.341686
v -1.342553 10.19476 1.595696
v 1.342553 10.19476 1.595693
v 1.596563 10.19476 1.341684
v 1.511413 10.43629 1.796392
v -1.511413 10.43629 1.796395
v 1.797371 10.43629 1.510434
v -1.79737 10.43629 1.510437
v 1.797368 10.43629 -1.510445
v 1.51141 10.4363 -1.796403
v -1.511415 10.4363 -1.7964
v -1.797373 10.4363 -1.510443
v 1.511413 10.78936 1.796392
v -1.511413 10.78937 1.796395
v 1.797371 10.78937 1.510434
v -1.79737 10.78937 1.510437
v 1.797368 10.78937 -1.510445
v -1.511415 10.78938 -1.7964
v 1.51141 10.78937 -1.796403
v -1.797373 10.78938 -1.510443
vn 0.6796291 0.2761636 0.6795866
vn -0.6326808 0.4465593 0.6326925
vn 0.6326821 0.4465594 0.632691
vn -0.6796272 0.2761625 0.6795889
vn 0.6796287 0.2761633 -0.6795871
vn 0.6326813 0.4465598 -0.6326917
vn -0.6796296 0.276163 -0.6795863
vn -0.632682 0.4465601 -0.6326908
vn 0.6740636 -0.3017277 0.6742395
vn -0.6740631 -0.3017276 0.6742399
vn 0.3256829 -0.4359051 0.8389979
vn -0.3256831 -0.4359048 0.838998
vn 0.3356353 0.4555334 0.824523
vn -0.3356339 0.4555336 0.8245236
vn 0.8245139 0.4555676 0.3356112
vn 0.8389863 -0.4359401 0.3256657
vn -0.8389865 -0.4359393 0.3256663
vn -0.8245134 0.455568 0.335612
vn 0.8245136 0.455568 -0.3356116
vn 0.8389854 -0.4359402 -0.325668
vn 0.3356342 0.455535 -0.8245225
vn 0.3256814 -0.4359039 -0.8389991
vn -0.3356344 0.4555352 -0.8245224
vn -0.3256832 -0.4359035 -0.8389986
vn -0.8245136 0.4555686 -0.3356108
vn -0.8389864 -0.435939 -0.3256669
vn 0.509005 0.6940805 0.5090837
vn -0.5090037 0.6940801 0.5090855
vn 0.5191453 0.6865405 -0.509068
vn -0.5421711 0.6500714 -0.5324073
vn 0.5620767 -0.6066658 0.5621622
vn -0.5527716 -0.6072937 0.5706468
vn 0.5743957 -0.5968095 -0.5602571
vn -0.2793199 -0.4534233 -0.8463969
vn -0.8362535 -0.4712806 -0.2803118
vn 0.3472892 -0.3967914 0.8496745
vn -0.3472894 -0.3967918 0.8496743
vn 0.8496672 -0.3968312 0.3472617
vn -0.8493091 -0.392648 0.3528477
vn 0.8496665 -0.3968307 -0.3472639
vn -0.3645126 -0.371258 -0.8539895
vn 0.3472878 -0.3967904 -0.8496755
vn -0.8532065 -0.3679962 -0.3696179
vn 0.2971094 0.6302623 0.7172835
vn -0.2971077 0.6302617 0.7172845
vn 0.7172842 0.6302617 0.2971086
vn -0.7172825 0.6302631 0.2971096
vn 0.7172834 0.6302627 -0.2971087
vn -0.2971075 0.6302629 -0.7172837
vn 0.2971081 0.6302631 -0.7172832
vn -0.7172824 0.6302638 -0.2971085
vn 1.271651E-06 1 1.52531E-06
vn 0.6740612 -0.3017269 -0.6742421
vn -0.674063 -0.3017262 -0.6742406
vn 0.8865972 0.2540473 -0.3865301
vn 0.7172832 -0.6302633 0.2971076
vn 0.8865974 0.2540475 0.3865292
vn 0.7172824 -0.6302633 -0.2971098
vn 0.2971084 -0.6302633 0.717283
vn 0.385257 0.2556691 0.8866851
vn -0.3852559 0.2556689 0.8866856
vn 0.3163586 -0.1674916 0.9337364
vn -0.3163587 -0.1674913 0.9337366
vn -0.2971086 -0.6302631 0.7172831
vn 0.9337848 -0.1710946 0.314281
vn -0.8865969 0.2540475 0.3865306
vn -0.7172839 -0.630262 0.2971089
vn -0.9337846 -0.1710947 0.3142815
vn 0.9337842 -0.1710948 -0.3142827
vn -0.7172846 -0.6302612 -0.2971085
vn -0.8865977 0.2540482 -0.3865281
vn -0.29711 -0.6302613 -0.717284
vn -0.3852579 0.2556702 -0.8866844
vn 0.3852558 0.25567 -0.8866853
vn -0.3163592 -0.1674901 -0.9337366
vn 0.3163577 -0.1674902 -0.933737
vn 0.2971074 -0.630262 -0.7172844
vn -0.9337849 -0.1710938 -0.3142814
vn -0.3688824 -0.3727393 -0.8514642
vn 0.368881 -0.3727392 -0.8514647
vn -0.8514629 -0.3727752 -0.3688491
vn -0.8514626 -0.3727756 0.3688492
vn -0.3688819 -0.3727399 0.8514641
vn 0.3688821 -0.3727401 0.8514639
vn 0.8514628 -0.372776 0.3688486
vn 0.8514621 -0.3727757 -0.3688504
vn 0.2971092 0.6302621 0.7172836
vn -0.297108 0.6302621 0.7172841
vn 0.7172839 0.630262 0.2971086
vn -0.7172831 0.6302627 0.2971092
vn 0.7172836 0.6302626 -0.2971083
vn 0.2971086 0.6302631 -0.7172831
vn -0.2971085 0.6302633 -0.7172828
vn -0.7172834 0.6302631 -0.2971076
vn 1.227465E-06 1 1.504968E-06
vn -0.3825263 -0.01249374 0.9238601
vn 0.3677772 -0.2718723 0.8892836
vn 0.3825282 -0.01249369 0.9238594
vn -0.3677767 -0.2718724 0.8892838
vn 0.8891553 -0.2719698 0.3680154
vn 0.9237691 -0.01249845 0.3827459
vn -0.9237685 -0.01249859 0.3827473
vn -0.889155 -0.2719702 0.3680159
vn 0.8891542 -0.2719704 -0.3680173
vn 0.9237688 -0.0124986 -0.3827465
vn 0.3677759 -0.2718728 -0.8892839
vn 0.3825271 -0.0124941 -0.9238598
vn -0.3677776 -0.2718724 -0.8892834
vn -0.3825276 -0.01249418 -0.9238596
vn -0.8891549 -0.2719709 -0.3680156
vn -0.9237691 -0.01249879 -0.3827457
vn 0.335337 -0.4837624 0.8084077
vn -0.335337 -0.4837627 0.8084075
vn -0.8082815 -0.4838992 0.3354439
vn 0.8082806 -0.4838989 -0.3354465
vn 0.8082817 -0.4838989 0.3354438
vn -0.335338 -0.4837625 -0.8084072
vn 0.335336 -0.4837626 -0.8084081
vn -0.8082814 -0.483899 -0.3354446
vn 0.8428608 0.3917119 -0.3689816
vn 0.7304573 -0.6105134 0.3061135
vn 0.8428603 0.391713 0.3689815
vn 0.7304561 -0.6105132 -0.3061169
vn 0.3060888 -0.6104835 0.7304927
vn 0.3667868 0.3939837 0.84276
vn -0.3667854 0.3939827 0.842761
vn 0.3127865 0.3763027 0.8721014
vn -0.3127852 0.3763027 0.8721019
vn -0.3060893 -0.6104857 0.7304906
vn 0.8762278 0.3689651 0.3099832
vn -0.8428601 0.3917118 0.3689832
vn -0.7304584 -0.6105117 0.3061143
vn -0.8762292 0.3689609 0.3099843
vn 0.8762289 0.3689626 -0.3099831
vn -0.7304571 -0.6105127 -0.3061153
vn -0.8428616 0.3917126 -0.368979
vn -0.3060907 -0.6104795 -0.7304953
vn -0.366787 0.3939879 -0.8427578
vn 0.366786 0.3939855 -0.8427595
vn -0.312784 0.376307 -0.8721005
vn 0.3127862 0.3763029 -0.8721015
vn 0.3060876 -0.6104801 -0.730496
vn -0.8762287 0.3689639 -0.3099821
vn 0.8251888 -0.4702356 -0.3129566
vn -0.3129289 -0.4701361 -0.825256
vn 0.3129277 -0.4701336 -0.8252579
vn -0.8251899 -0.4702349 -0.3129548
vn -0.8251904 -0.4702336 0.3129552
vn -0.312926 -0.4701388 0.8252556
vn 0.3129271 -0.4701374 0.825256
vn 0.8251889 -0.4702381 0.3129528
vn 0.3704779 -0.3626854 0.8551055
vn -0.370478 -0.362686 0.8551052
vn 0.8551035 -0.3627242 0.3704447
vn -0.8551047 -0.3627206 0.3704453
vn 0.8551026 -0.3627235 -0.3704473
vn 0.3704773 -0.3626836 -0.8551065
vn -0.3704793 -0.3626854 -0.8551049
vn -0.8551046 -0.362721 -0.3704451
vn 0.2971095 0.6302617 0.7172838
vn -0.2971076 0.6302621 0.7172842
vn 0.7172843 0.6302615 0.2971088
vn -0.7172822 0.6302636 0.2971093
vn 0.7172843 0.6302618 -0.2971081
vn -0.2971085 0.6302633 -0.717283
vn 0.2971089 0.630263 -0.717283
vn -0.7172834 0.6302633 -0.2971075
g Area_Common_Build_Pillar_H_01_Col_0
f 3/3/3 2/2/2 1/1/1
f 4/4/4 1/1/1 2/2/2
f 1/1/1 5/5/5 3/3/3
f 6/6/6 3/3/3 5/5/5
f 5/5/5 7/7/7 6/6/6
f 8/8/8 6/6/6 7/7/7
f 2/2/2 8/8/8 4/4/4
f 7/7/7 4/4/4 8/8/8
f 3/3/3 9/9/9 2/2/2
f 10/10/10 2/2/2 9/9/9
f 2/2/2 10/10/10 8/8/8
f 9/9/9 11/11/11 10/10/10
f 12/12/12 10/10/10 11/11/11
f 11/11/11 13/13/13 12/12/12
f 14/14/14 12/12/12 13/13/13
f 13/13/13 11/11/11 15/15/15
f 16/16/16 15/15/15 11/11/11
f 16/16/16 11/11/11 9/9/9
f 12/12/12 14/14/14 17/17/17
f 12/12/12 17/17/17 10/10/10
f 18/18/18 17/17/17 14/14/14
f 15/15/15 16/16/16 19/19/19
f 20/20/20 19/19/19 16/16/16
f 16/16/16 9/9/9 20/20/20
f 19/19/19 20/20/20 21/21/21
f 22/22/22 21/21/21 20/20/20
f 21/21/21 22/22/22 23/23/23
f 24/24/24 23/23/23 22/22/22
f 23/23/23 24/24/24 25/25/25
f 26/26/26 25/25/25 24/24/24
f 17/17/17 18/18/18 26/26/26
f 25/25/25 26/26/26 18/18/18
f 13/13/13 27/27/27 14/14/14
f 15/15/15 27/27/27 13/13/13
f 28/28/28 14/14/14 27/27/27
f 14/14/14 28/28/28 18/18/18
f 18/18/18 28/28/28 25/25/25
f 19/19/19 29/29/29 15/15/15
f 27/27/27 15/15/15 29/29/29
f 21/21/21 29/29/29 19/19/19
f 23/23/23 30/30/30 21/21/21
f 29/29/29 21/21/21 30/30/30
f 25/25/25 30/30/30 23/23/23
f 30/30/30 25/25/25 28/28/28
f 27/27/27 31/31/31 28/28/28
f 32/32/32 28/28/28 31/31/31
f 28/28/28 32/32/32 30/30/30
f 29/29/29 33/33/33 27/27/27
f 31/31/31 27/27/27 33/33/33
f 30/30/30 34/34/34 29/29/29
f 33/33/33 29/29/29 34/34/34
f 35/35/35 34/34/34 30/30/30
f 35/35/35 30/30/30 32/32/32
f 31/31/31 36/36/36 32/32/32
f 37/37/37 32/32/32 36/36/36
f 38/38/38 36/36/36 31/31/31
f 37/37/37 39/39/39 32/32/32
f 32/32/32 39/39/39 35/35/35
f 33/33/33 40/40/40 31/31/31
f 38/38/38 31/31/31 40/40/40
f 34/34/34 41/41/41 33/33/33
f 42/42/42 33/33/33 41/41/41
f 42/42/42 40/40/40 33/33/33
f 35/35/35 43/43/43 34/34/34
f 41/41/41 34/34/34 43/43/43
f 43/43/43 35/35/35 39/39/39
f 36/36/36 44/44/44 37/37/37
f 45/45/45 37/37/37 44/44/44
f 37/37/37 45/45/45 39/39/39
f 38/38/38 46/46/46 36/36/36
f 44/44/44 36/36/36 46/46/46
f 47/47/47 39/39/39 45/45/45
f 39/39/39 47/47/47 43/43/43
f 40/40/40 48/48/48 38/38/38
f 46/46/46 38/38/38 48/48/48
f 41/41/41 49/49/49 42/42/42
f 50/50/50 42/42/42 49/49/49
f 42/42/42 50/50/50 40/40/40
f 48/48/48 40/40/40 50/50/50
f 43/43/43 51/51/51 41/41/41
f 49/49/49 41/41/41 51/51/51
f 51/51/51 43/43/43 47/47/47
f 44/44/44 52/52/52 45/45/45
f 46/46/46 52/52/52 44/44/44
f 45/45/45 52/52/52 47/47/47
f 48/48/48 52/52/52 46/46/46
f 49/49/49 52/52/52 50/50/50
f 51/51/51 52/52/52 49/49/49
f 50/50/50 52/52/52 48/48/48
f 47/47/47 52/52/52 51/51/51
f 53/53/53 20/20/20 9/9/9
f 22/22/22 20/20/20 53/53/53
f 22/22/22 53/53/53 24/24/24
f 54/54/54 24/24/24 53/53/53
f 26/26/26 24/24/24 54/54/54
f 26/26/26 54/54/54 17/17/17
f 10/10/10 17/17/17 54/54/54
f 9/9/9 3/3/3 53/53/53
f 6/6/6 53/53/53 3/3/3
f 53/53/53 6/6/6 54/54/54
f 8/8/8 54/54/54 6/6/6
f 54/54/54 8/8/8 10/10/10
f 57/57/57 56/56/56 55/55/55
f 58/58/58 55/55/55 56/56/56
f 56/56/56 57/57/57 59/59/59
f 56/56/56 59/59/59 58/58/58
f 60/60/60 59/59/59 57/57/57
f 60/60/60 61/61/61 59/59/59
f 60/60/60 62/62/62 61/61/61
f 63/63/63 61/61/61 62/62/62
f 64/64/64 59/59/59 61/61/61
f 57/57/57 65/65/65 60/60/60
f 62/62/62 60/60/60 65/65/65
f 57/57/57 55/55/55 65/65/65
f 61/61/61 66/66/66 64/64/64
f 61/61/61 63/63/63 66/66/66
f 67/67/67 64/64/64 66/66/66
f 68/68/68 66/66/66 63/63/63
f 69/69/69 65/65/65 55/55/55
f 67/67/67 66/66/66 70/70/70
f 67/67/67 70/70/70 64/64/64
f 71/71/71 70/70/70 66/66/66
f 66/66/66 68/68/68 71/71/71
f 70/70/70 71/71/71 72/72/72
f 72/72/72 64/64/64 70/70/70
f 73/73/73 72/72/72 71/71/71
f 73/73/73 74/74/74 72/72/72
f 73/73/73 75/75/75 74/74/74
f 73/73/73 71/71/71 75/75/75
f 76/76/76 74/74/74 75/75/75
f 76/76/76 69/69/69 74/74/74
f 77/77/77 72/72/72 74/74/74
f 72/72/72 77/77/77 64/64/64
f 78/78/78 75/75/75 71/71/71
f 78/78/78 71/71/71 68/68/68
f 74/74/74 55/55/55 77/77/77
f 55/55/55 74/74/74 69/69/69
f 58/58/58 77/77/77 55/55/55
f 77/77/77 58/58/58 59/59/59
f 59/59/59 64/64/64 77/77/77
f 75/75/75 79/79/79 76/76/76
f 80/80/80 76/76/76 79/79/79
f 76/76/76 80/80/80 69/69/69
f 78/78/78 81/81/81 75/75/75
f 79/79/79 75/75/75 81/81/81
f 81/81/81 78/78/78 82/82/82
f 68/68/68 82/82/82 78/78/78
f 82/82/82 68/68/68 83/83/83
f 63/63/63 83/83/83 68/68/68
f 83/83/83 63/63/63 84/84/84
f 62/62/62 84/84/84 63/63/63
f 84/84/84 62/62/62 85/85/85
f 65/65/65 85/85/85 62/62/62
f 85/85/85 65/65/65 86/86/86
f 69/69/69 86/86/86 65/65/65
f 86/86/86 69/69/69 80/80/80
f 84/84/84 87/87/87 83/83/83
f 88/88/88 83/83/83 87/87/87
f 83/83/83 88/88/88 82/82/82
f 85/85/85 89/89/89 84/84/84
f 87/87/87 84/84/84 89/89/89
f 90/90/90 82/82/82 88/88/88
f 82/82/82 90/90/90 81/81/81
f 86/86/86 91/91/91 85/85/85
f 89/89/89 85/85/85 91/91/91
f 91/91/91 86/86/86 92/92/92
f 80/80/80 92/92/92 86/86/86
f 92/92/92 80/80/80 93/93/93
f 79/79/79 93/93/93 80/80/80
f 93/93/93 79/79/79 94/94/94
f 81/81/81 94/94/94 79/79/79
f 94/94/94 81/81/81 90/90/90
f 87/87/87 95/95/95 88/88/88
f 89/89/89 95/95/95 87/87/87
f 88/88/88 95/95/95 90/90/90
f 91/91/91 95/95/95 89/89/89
f 93/93/93 95/95/95 92/92/92
f 94/94/94 95/95/95 93/93/93
f 92/92/92 95/95/95 91/91/91
f 90/90/90 95/95/95 94/94/94
f 98/98/98 97/97/97 96/96/96
f 99/99/99 96/96/96 97/97/97
f 97/97/97 98/98/98 100/100/100
f 101/101/101 100/100/100 98/98/98
f 96/96/96 99/99/99 102/102/102
f 103/103/103 102/102/102 99/99/99
f 100/100/100 101/101/101 104/104/104
f 105/105/105 104/104/104 101/101/101
f 104/104/104 105/105/105 106/106/106
f 107/107/107 106/106/106 105/105/105
f 106/106/106 107/107/107 108/108/108
f 109/109/109 108/108/108 107/107/107
f 108/108/108 109/109/109 110/110/110
f 111/111/111 110/110/110 109/109/109
f 102/102/102 103/103/103 111/111/111
f 110/110/110 111/111/111 103/103/103
f 97/97/97 112/112/112 99/99/99
f 113/113/113 99/99/99 112/112/112
f 99/99/99 113/113/113 103/103/103
f 114/114/114 103/103/103 113/113/113
f 103/103/103 114/114/114 110/110/110
f 104/104/104 115/115/115 100/100/100
f 116/116/116 100/100/100 115/115/115
f 112/112/112 97/97/97 116/116/116
f 100/100/100 116/116/116 97/97/97
f 108/108/108 117/117/117 106/106/106
f 118/118/118 106/106/106 117/117/117
f 110/110/110 119/119/119 108/108/108
f 117/117/117 108/108/108 119/119/119
f 119/119/119 110/110/110 114/114/114
f 106/106/106 118/118/118 104/104/104
f 115/115/115 104/104/104 118/118/118
f 122/122/122 121/121/121 120/120/120
f 123/123/123 120/120/120 121/121/121
f 121/121/121 122/122/122 124/124/124
f 124/124/124 123/123/123 121/121/121
f 125/125/125 124/124/124 122/122/122
f 125/125/125 126/126/126 124/124/124
f 125/125/125 127/127/127 126/126/126
f 128/128/128 126/126/126 127/127/127
f 129/129/129 124/124/124 126/126/126
f 127/127/127 125/125/125 130/130/130
f 122/122/122 130/130/130 125/125/125
f 122/122/122 120/120/120 130/130/130
f 126/126/126 131/131/131 129/129/129
f 132/132/132 129/129/129 131/131/131
f 129/129/129 132/132/132 124/124/124
f 132/132/132 123/123/123 124/124/124
f 131/131/131 126/126/126 133/133/133
f 128/128/128 133/133/133 126/126/126
f 134/134/134 130/130/130 120/120/120
f 132/132/132 131/131/131 135/135/135
f 136/136/136 135/135/135 131/131/131
f 135/135/135 136/136/136 137/137/137
f 135/135/135 137/137/137 132/132/132
f 137/137/137 123/123/123 132/132/132
f 138/138/138 137/137/137 136/136/136
f 138/138/138 139/139/139 137/137/137
f 138/138/138 140/140/140 139/139/139
f 141/141/141 139/139/139 140/140/140
f 141/141/141 134/134/134 139/139/139
f 142/142/142 137/137/137 139/139/139
f 140/140/140 138/138/138 143/143/143
f 136/136/136 143/143/143 138/138/138
f 136/136/136 131/131/131 143/143/143
f 133/133/133 143/143/143 131/131/131
f 139/139/139 120/120/120 142/142/142
f 120/120/120 139/139/139 134/134/134
f 123/123/123 142/142/142 120/120/120
f 142/142/142 123/123/123 137/137/137
f 134/134/134 144/144/144 130/130/130
f 140/140/140 145/145/145 141/141/141
f 146/146/146 141/141/141 145/145/145
f 141/141/141 146/146/146 134/134/134
f 144/144/144 134/134/134 146/146/146
f 143/143/143 147/147/147 140/140/140
f 145/145/145 140/140/140 147/147/147
f 147/147/147 143/143/143 148/148/148
f 133/133/133 148/148/148 143/143/143
f 148/148/148 133/133/133 149/149/149
f 128/128/128 149/149/149 133/133/133
f 149/149/149 128/128/128 150/150/150
f 127/127/127 150/150/150 128/128/128
f 150/150/150 127/127/127 151/151/151
f 130/130/130 151/151/151 127/127/127
f 151/151/151 130/130/130 144/144/144
f 150/150/150 152/152/152 149/149/149
f 153/153/153 149/149/149 152/152/152
f 149/149/149 153/153/153 148/148/148
f 151/151/151 154/154/154 150/150/150
f 152/152/152 150/150/150 154/154/154
f 155/155/155 148/148/148 153/153/153
f 148/148/148 155/155/155 147/147/147
f 144/144/144 156/156/156 151/151/151
f 154/154/154 151/151/151 156/156/156
f 146/146/146 157/157/157 144/144/144
f 156/156/156 144/144/144 157/157/157
f 157/157/157 146/146/146 158/158/158
f 145/145/145 158/158/158 146/146/146
f 158/158/158 145/145/145 159/159/159
f 147/147/147 159/159/159 145/145/145
f 159/159/159 147/147/147 155/155/155
f 152/152/152 160/160/160 153/153/153
f 161/161/161 153/153/153 160/160/160
f 153/153/153 161/161/161 155/155/155
f 154/154/154 162/162/162 152/152/152
f 160/160/160 152/152/152 162/162/162
f 163/163/163 155/155/155 161/161/161
f 155/155/155 163/163/163 159/159/159
f 156/156/156 164/164/164 154/154/154
f 162/162/162 154/154/154 164/164/164
f 158/158/158 165/165/165 157/157/157
f 166/166/166 157/157/157 165/165/165
f 157/157/157 166/166/166 156/156/156
f 164/164/164 156/156/156 166/166/166
f 165/165/165 161/161/161 166/166/166
f 160/160/160 166/166/166 161/161/161
f 164/164/164 166/166/166 162/162/162
f 160/160/160 162/162/162 166/166/166
f 159/159/159 167/167/167 158/158/158
f 165/165/165 158/158/158 167/167/167
f 167/167/167 159/159/159 163/163/163
f 163/163/163 161/161/161 167/167/167
f 165/165/165 167/167/167 161/161/161
