g Area_LY_Build_Common_Pillar_01_C_Lod1
v -0.6303142 4.787435 -0.4918305
v -0.6303137 5.88139 0.489944
v -0.6303166 4.787616 0.4899434
v -0.6303135 5.881322 -0.4918344
v -0.6316097 6.483177 0.2465355
v -0.6303129 6.454369 0.4899437
v -0.6303142 6.956398 -0.4918329
v -0.6303141 7.409882 -0.4918328
v -0.490888 5.88139 0.6201552
v -0.6303166 4.787616 0.4899434
v -0.6303137 5.88139 0.489944
v -0.4908917 4.787525 0.6201563
v -0.492185 5.88139 -0.6220346
v -0.4908837 4.787616 -0.6220344
v 0.474338 4.787525 -0.6220366
v 0.4743338 6.546191 -0.6220346
v -0.490889 6.956465 -0.6220325
v -0.4908877 7.455249 -0.6220338
v -0.6303135 5.881322 -0.4918344
v -0.4908837 4.787616 -0.6220344
v -0.492185 5.88139 -0.6220346
v -0.6303142 4.787435 -0.4918305
v 0.4743338 6.546191 -0.6220346
v 0.6137629 4.787525 -0.4918256
v 0.6137588 6.547035 -0.4918276
v 0.474338 4.787525 -0.6220366
v -0.4908835 2.9691 -0.6220339
v 0.2128566 3.075234 -0.6220345
v -0.4908837 4.787616 -0.6220344
v 0.4743381 3.693661 -0.6220349
v 0.6137629 3.692912 -0.4055809
v 0.474338 4.787525 -0.6220366
v 0.6137629 3.692912 -0.4055809
v 0.474338 4.787525 -0.6220366
v 0.4743381 3.693661 -0.6220349
v 0.6137629 4.787525 -0.4918256
v -0.4908837 4.787616 -0.6220344
v -0.6303141 2.9165 -0.4918304
v -0.4908835 2.9691 -0.6220339
v -0.6303142 4.787435 -0.4918305
v -0.6303141 2.9165 -0.4918304
v -0.6303142 4.787435 -0.4918305
v -0.6303146 3.034462 -0.08961145
v -0.6303157 3.693662 0.4899393
v -0.6303166 4.787616 0.4899434
v -0.6303157 3.693662 0.4899393
v -0.4908917 4.787525 0.6201563
v -0.4908915 3.920853 0.6201549
v -0.6303166 4.787616 0.4899434
v -0.571484 5.96063 0.6954255
v -0.6303137 5.88139 0.489944
v -0.7109129 5.96077 0.5652163
v -0.490888 5.88139 0.6201552
v -0.7055877 6.9557 -0.5724365
v -0.5661636 5.960785 -0.7026403
v -0.5661611 6.955373 -0.7026378
v -0.7055873 5.96077 -0.5724404
v -0.5661636 5.960785 -0.7026403
v -0.490889 6.956465 -0.6220325
v -0.5661611 6.955373 -0.7026378
v -0.492185 5.88139 -0.6220346
v -0.7055873 5.96077 -0.5724404
v -0.6303135 5.881322 -0.4918344
v -0.5661636 5.960785 -0.7026403
v -0.492185 5.88139 -0.6220346
v -0.6303135 5.881322 -0.4918344
v -0.7055877 6.9557 -0.5724365
v -0.6303142 6.956398 -0.4918329
v -0.7055873 5.96077 -0.5724404
v 0.4252474 4.786236 0.6201535
v 0.6137599 5.523688 0.4899517
v 0.61376 4.855847 0.4899502
v 0.4743333 5.528229 0.6201538
v 0.6137599 5.523688 0.4899517
v 0.6137588 6.547035 -0.4918276
v 0.6137629 4.787525 -0.4918256
v 0.61376 4.855847 0.4899502
v 0.6137605 4.787451 0.3168467
v -0.4908877 7.455249 -0.6220338
v -0.5661611 6.955373 -0.7026378
v -0.490889 6.956465 -0.6220325
v -0.566159 7.468243 -0.7026358
v -0.5661611 6.955373 -0.7026378
v -0.7055883 7.447179 -0.5724326
v -0.7055877 6.9557 -0.5724365
v -0.566159 7.468243 -0.7026358
v -0.7055877 6.9557 -0.5724365
v -0.6303141 7.409882 -0.4918328
v -0.6303142 6.956398 -0.4918329
v -0.7055883 7.447179 -0.5724326
v -0.6303129 6.454369 0.4899437
v -0.7109129 5.96077 0.5652163
v -0.6303137 5.88139 0.489944
v -0.7109125 6.460877 0.5652149
v -0.7109129 5.96077 0.5652163
v -0.5714843 6.46176 0.6954249
v -0.571484 5.96063 0.6954255
v -0.7109125 6.460877 0.5652149
v -0.571484 5.96063 0.6954255
v -0.4908876 6.517633 0.6201541
v -0.490888 5.88139 0.6201552
v -0.5714843 6.46176 0.6954249
v -0.4908876 6.517633 0.6201541
v 0.1098812 5.632694 0.6203882
v -0.490888 5.88139 0.6201552
v -0.4908917 4.787525 0.6201563
v 0.4252474 4.786236 0.6201535
v 0.4743333 5.528229 0.6201538
v 0.2826253 4.407032 0.620154
v -0.4908915 3.920853 0.6201549
v -0.4908917 4.787525 0.6201563
v 0.4252474 4.786236 0.6201535
v 0.6137629 3.692912 -0.4055809
v 0.6140856 4.380095 -0.3064802
v 0.6137629 4.787525 -0.4918256
v 0.6137605 4.787451 0.3168467
v 0.4743333 5.528229 0.6201538
v 0.1098812 5.632694 0.6203882
v 0.6137599 5.523688 0.4899517
v 0.6137588 6.547035 -0.4918276
v -0.334126 6.436726 0.2099052
v -0.4908876 6.517633 0.6201541
v -0.6303129 6.454369 0.4899437
v -0.6316097 6.483177 0.2465355
v 0.4743338 6.546191 -0.6220346
v -0.4908877 7.455249 -0.6220338
v -0.5714843 6.46176 0.6954249
v -0.7109125 6.460877 0.5652149
v -0.6303141 7.409882 -0.4918328
v -0.7055883 7.447179 -0.5724326
v -0.566159 7.468243 -0.7026358
v 0.6140856 4.380095 -0.3064802
v 0.2826253 4.407032 0.620154
v 0.6137605 4.787451 0.3168467
v 0.6137629 3.692912 -0.4055809
v 0.61376 4.855847 0.4899502
v 0.4252474 4.786236 0.6201535
v -0.6303146 3.034462 -0.08961145
v 0.2128566 3.075234 -0.6220345
v -0.4908835 2.9691 -0.6220339
v -0.6303141 2.9165 -0.4918304
v -0.4908915 3.920853 0.6201549
v -0.6303157 3.693662 0.4899393
vt 0.0006186763 0.5011206
vt 0.05914087 0.5617908
vt 0.05914087 0.5011206
vt 0.0006657688 0.5617908
vt 0.04464764 0.5958338
vt 0.05914087 0.5942032
vt 0.0006901433 0.622606
vt 0.0006941225 0.6479297
vt 0.07823042 0.5617908
vt 0.06183639 0.5011206
vt 0.06183639 0.5617908
vt 0.07823042 0.5010995
vt 0.134685 0.5617908
vt 0.134685 0.5009001
vt 0.08092596 0.5010995
vt 0.08092596 0.5993982
vt 0.134685 0.622606
vt 0.134685 0.6522831
vt 0.1383002 0.5617908
vt 0.151879 0.5009001
vt 0.151879 0.5617908
vt 0.1382954 0.5011206
vt 0.07823024 0.5986634
vt 0.06183639 0.5011206
vt 0.06183621 0.5987102
vt 0.07823042 0.5010995
vt 0.0006821979 0.6027818
vt 0.04336455 0.5967709
vt 0.0006186763 0.5011206
vt 0.05914087 0.5617908
vt 0.06748844 0.5617971
vt 0.05914087 0.5011206
vt 0.07823042 0.5617908
vt 0.06183639 0.5011206
vt 0.06183639 0.5617908
vt 0.07823042 0.5010995
vt 0.1382954 0.5011206
vt 0.151879 0.6057535
vt 0.1383019 0.6027818
vt 0.151879 0.5009001
vt 0.134685 0.6058016
vt 0.134685 0.5009001
vt 0.1128323 0.5990806
vt 0.08092596 0.5617908
vt 0.08092596 0.5010995
vt 0.07823042 0.5617908
vt 0.06183639 0.5011206
vt 0.06183639 0.5491898
vt 0.07823042 0.5010995
vt 0.4330544 0.8554553
vt 0.4251058 0.8663782
vt 0.4330544 0.8663782
vt 0.4251058 0.8554553
vt 0.299412 0.9531912
vt 0.2563145 0.9654058
vt 0.299412 0.9654058
vt 0.2563145 0.9531912
vt 0.2564695 0.9684006
vt 0.3032744 0.9758457
vt 0.2995668 0.9684006
vt 0.2527622 0.9758457
vt 0.2536594 0.9531912
vt 0.2466869 0.9531912
vt 0.2536594 0.9654058
vt 0.2466869 0.9654058
vt 0.2526035 0.9426687
vt 0.2994082 0.9501142
vt 0.3031158 0.9426688
vt 0.2563107 0.9501142
vt 0.1517772 0.5012399
vt 0.1382986 0.5419554
vt 0.1382958 0.5049149
vt 0.151879 0.5421302
vt 0.0006503725 0.5419554
vt 0.05914088 0.599446
vt 0.05914087 0.5011206
vt 0.0006216215 0.5049149
vt 0.01093712 0.5011206
vt 0.4597214 0.8690858
vt 0.484578 0.8760185
vt 0.4889731 0.8690858
vt 0.4608123 0.8760185
vt 0.4845203 0.8788117
vt 0.46194 0.8901857
vt 0.4845203 0.8901857
vt 0.4607545 0.8788117
vt 0.4845302 0.8930556
vt 0.4639646 0.8999885
vt 0.4889251 0.8999887
vt 0.4619498 0.8930556
vt 0.2800955 0.9855071
vt 0.2536674 0.9788491
vt 0.2494463 0.985507
vt 0.2837026 0.9788491
vt 0.4357757 0.8663782
vt 0.4658466 0.8554553
vt 0.4357757 0.8554553
vt 0.4658111 0.8663782
vt 0.4355029 0.8529484
vt 0.4653154 0.8462905
vt 0.431282 0.8462905
vt 0.4655738 0.8529484
vt 0.08092596 0.597782
vt 0.1145843 0.5479765
vt 0.08092596 0.5617908
vt 0.08092596 0.5010995
vt 0.1346786 0.5012308
vt 0.134685 0.5421302
vt 0.01217484 0.5222228
vt 0.05914087 0.5491898
vt 0.05914087 0.5011206
vt 0.003594639 0.5011969
vt 0.08567391 0.5561751
vt 0.09133074 0.5237631
vt 0.08092596 0.5010995
vt 0.125446 0.5009353
vt 0.4504387 0.9121781
vt 0.4347289 0.9119284
vt 0.456046 0.917937
vt 0.445889 0.977828
vt 0.4032994 0.9406553
vt 0.3920382 0.9209603
vt 0.3884848 0.9287266
vt 0.3905915 0.9391628
vt 0.4372016 0.9813796
vt 0.3853823 0.9956366
vt 0.3878571 0.9191715
vt 0.3838271 0.9259481
vt 0.3806481 0.9886253
vt 0.3770418 0.9915093
vt 0.3816237 0.9979984
vt 0.4532757 0.9487173
vt 0.431042 0.9887822
vt 0.4575912 0.9826415
vt 0.4336338 0.9289427
vt 0.4579772 0.9911466
vt 0.4500598 0.9956695
vt 0.3620519 0.9405139
vt 0.4006243 0.9071289
vt 0.3659354 0.9137047
vt 0.3574196 0.9204335
vt 0.3889658 0.9862363
vt 0.3770324 0.9763544
vn -1 6.289202E-07 -1.65276E-06
vn -0.9999995 -0.0008124548 0.0006512197
vn -1 9.244943E-07 -2.331479E-06
vn -0.9999998 -0.0004686441 -0.0004956002
vn -0.9999995 -0.000697986 0.0007438975
vn -0.9999858 1.333642E-06 0.005327941
vn -0.9999985 0 -0.001754522
vn -0.9999985 4.210411E-07 -0.001754284
vn -0.6825447 1.586655E-06 0.7308439
vn -0.6825505 -1.666347E-07 0.7308384
vn -0.6825439 1.403014E-06 0.7308447
vn -0.6825514 0 0.7308376
vn -1.324145E-06 1.082852E-06 -1
vn -2.023082E-06 -6.044854E-07 -1
vn 0.3750832 -0.01329696 -0.9268958
vn 0.2953754 9.612629E-07 -0.9553813
vn -2.524456E-06 -9.182323E-07 -1
vn -3.239433E-06 -2.600309E-06 -1
vn -0.6855409 -0.0007267136 -0.7280337
vn -0.6826973 -4.564758E-05 -0.7307012
vn -0.6859142 -0.0008161882 -0.7276819
vn -0.6825107 -1.105318E-06 -0.7308756
vn 0.2953754 9.612629E-07 -0.9553813
vn 0.9134217 -0.01612332 -0.406695
vn 0.848272 1.36624E-06 -0.5295607
vn 0.3750832 -0.01329696 -0.9268958
vn -8.261696E-07 -2.727009E-07 -1
vn 0.1146011 -0.04845595 -0.9922292
vn -2.023082E-06 -6.044854E-07 -1
vn 0.5154332 -0.1124208 -0.8495236
vn 0.8228375 -0.1416899 -0.5503293
vn 0.3750832 -0.01329696 -0.9268958
vn 0.8228375 -0.1416899 -0.5503293
vn 0.3750832 -0.01329696 -0.9268958
vn 0.5154332 -0.1124208 -0.8495236
vn 0.9134217 -0.01612332 -0.406695
vn -0.6826973 -4.564758E-05 -0.7307012
vn -0.6825094 -2.69699E-07 -0.7308767
vn -0.6825093 -2.852126E-07 -0.7308769
vn -0.6825107 -1.105318E-06 -0.7308756
vn -1 0 -1.120157E-06
vn -1 6.289202E-07 -1.65276E-06
vn -1 -1.092335E-07 -1.329639E-06
vn -1 -3.658307E-07 -1.884068E-06
vn -1 9.244943E-07 -2.331479E-06
vn -0.6825567 -1.827317E-06 0.7308326
vn -0.6825514 0 0.7308376
vn -0.6825587 -1.368345E-06 0.7308308
vn -0.6825505 -1.666347E-07 0.7308384
vn -0.3992332 -0.8112684 0.4271492
vn -0.3994206 -0.8111683 0.4271642
vn -0.3997597 -0.8109869 0.4271913
vn -0.3988939 -0.8114496 0.4271219
vn -0.6825138 4.205015E-06 -0.7308727
vn -0.6825173 2.626049E-06 -0.7308695
vn -0.6825134 4.356715E-06 -0.7308731
vn -0.6825178 2.491934E-06 -0.7308691
vn 0.7360371 -0.0008418619 -0.6769406
vn 0.7312553 -6.23494E-05 -0.6821039
vn 0.7308722 -1.504452E-07 -0.6825143
vn 0.7363088 -0.0008863258 -0.6766452
vn -0.3988878 -0.8113919 -0.4272372
vn -0.4003713 -0.8105836 -0.4273839
vn -0.4011701 -0.8101471 -0.4274625
vn -0.4026643 -0.8093284 -0.4276085
vn -0.7308674 -2.896821E-06 0.6825194
vn -0.730859 -1.636389E-06 0.6825285
vn -0.7308583 -1.537542E-06 0.6825292
vn -0.7308685 -3.061519E-06 0.6825183
vn 0.5924107 -0.009205187 0.8055835
vn 0.6609619 -0.03662619 0.7495252
vn 0.5683089 -1.721044E-06 0.8228153
vn 0.6810389 -0.0450539 0.7308599
vn 1 1.47248E-06 1.926587E-06
vn 0.848272 1.36624E-06 -0.5295607
vn 0.9134217 -0.01612332 -0.406695
vn 1 1.602289E-07 2.941835E-06
vn 1 0.0001376665 2.937362E-06
vn 0.7308635 -8.179617E-07 -0.6825236
vn 0.7308708 -3.172109E-06 -0.6825158
vn 0.7308722 -3.619356E-06 -0.6825143
vn 0.7308623 -4.044003E-07 -0.682525
vn -0.6825134 4.356715E-06 -0.7308731
vn -0.6825125 5.508728E-06 -0.7308739
vn -0.6825138 4.205015E-06 -0.7308727
vn -0.6825121 5.669657E-06 -0.7308742
vn -0.7308556 -8.463906E-07 0.6825321
vn -0.7308425 -5.501744E-06 0.6825461
vn -0.7308584 1.351557E-07 0.6825292
vn -0.7308403 -6.311285E-06 0.6825486
vn -0.6825373 -1.02246E-06 -0.7308508
vn -0.682542 4.27093E-07 -0.7308465
vn -0.6825426 6.168842E-07 -0.7308459
vn -0.6825365 -1.278042E-06 -0.7308516
vn -0.6825306 1.07789E-06 0.730857
vn -0.6825328 2.234603E-06 0.7308549
vn -0.6825296 5.784156E-07 0.7308579
vn -0.6825339 2.735788E-06 0.730854
vn 0.6825479 7.720906E-07 0.7308409
vn 0.6825465 1.118173E-06 0.7308421
vn 0.682548 7.300549E-07 0.7308408
vn 0.6825463 1.201869E-06 0.7308424
vn -0.0003873205 1.559105E-06 1
vn -4.019001E-05 -7.984688E-05 1
vn -0.0003873999 1.367225E-06 1
vn -7.421068E-05 -8.427687E-05 1
vn 9.604388E-05 -0.0001239155 1
vn 0.0006310054 -4.215497E-05 0.9999999
vn 2.683649E-06 -6.599786E-07 1
vn 2.228849E-06 -1.584556E-06 1
vn -7.421068E-05 -8.427687E-05 1
vn 9.604388E-05 -0.0001239155 1
vn 0.9999979 -0.0001659302 -0.002105537
vn 0.999999 0.0001751441 -0.001355781
vn 0.9134217 -0.01612332 -0.406695
vn 1 0.0001376665 2.937362E-06
vn 0.2667141 0.9299274 0.2531773
vn 0.4462008 0.6706955 0.5925135
vn 0.3138078 0.742637 0.5916207
vn 0.1499436 0.9166067 0.3706065
vn 0.4591388 0.7329715 0.5019406
vn 0.03141464 0.9989449 0.03349882
vn -0.1036443 0.9919645 -0.07255664
vn 0.1924026 0.8611871 0.4704658
vn 0.2073868 0.9233859 0.3230313
vn 0.2919606 0.8211216 0.4904267
vn -0.3384166 0.9388773 0.06311533
vn 0.0371462 0.9982254 -0.046542
vn 0.270032 0.7677431 0.5810794
vn 0.03563149 0.9504375 0.3088672
vn -0.0002780646 0.9872116 0.1594146
vn 0.926931 -0.1662364 0.336399
vn 0.7070131 -0.4821773 0.517337
vn 0.8221233 -0.5029715 0.2667075
vn 0.65386 -0.4783038 0.586253
vn 0.7905042 -0.4689464 0.3939449
vn 0.609049 -0.2290681 0.7593334
vn 0.3996136 -0.7609531 0.5111353
vn 0.4140507 -0.6814047 0.6035309
vn 0.256531 -0.9489233 0.1836745
vn 0.5298798 -0.813796 0.2386705
vn 0.3798559 -0.6138666 0.6920095
vn 0.3507166 -0.618338 0.7033178
g Area_LY_Build_Common_Pillar_01_C_Lod1_0
f 3/3/3 2/2/2 1/1/1
f 4/4/4 1/1/1 2/2/2
f 4/4/4 2/2/2 5/5/5
f 6/6/6 5/5/5 2/2/2
f 4/4/4 5/5/5 7/7/7
f 7/7/7 5/5/5 8/8/8
f 11/11/11 10/10/10 9/9/9
f 12/12/12 9/9/9 10/10/10
f 15/15/15 14/14/14 13/13/13
f 16/16/16 15/15/15 13/13/13
f 17/17/17 16/16/16 13/13/13
f 18/18/18 16/16/16 17/17/17
f 21/21/21 20/20/20 19/19/19
f 22/22/22 19/19/19 20/20/20
f 25/25/25 24/24/24 23/23/23
f 26/26/26 23/23/23 24/24/24
f 29/29/29 28/28/28 27/27/27
f 28/28/28 29/29/29 30/30/30
f 31/31/31 28/28/28 30/30/30
f 32/32/32 30/30/30 29/29/29
f 35/35/35 34/34/34 33/33/33
f 36/36/36 33/33/33 34/34/34
f 39/39/39 38/38/38 37/37/37
f 40/40/40 37/37/37 38/38/38
f 43/43/43 42/42/42 41/41/41
f 43/43/43 44/44/44 42/42/42
f 45/45/45 42/42/42 44/44/44
f 48/48/48 47/47/47 46/46/46
f 49/49/49 46/46/46 47/47/47
f 52/52/52 51/51/51 50/50/50
f 53/53/53 50/50/50 51/51/51
f 56/56/56 55/55/55 54/54/54
f 57/57/57 54/54/54 55/55/55
f 60/60/60 59/59/59 58/58/58
f 61/61/61 58/58/58 59/59/59
f 64/64/64 63/63/63 62/62/62
f 65/65/65 63/63/63 64/64/64
f 68/68/68 67/67/67 66/66/66
f 69/69/69 66/66/66 67/67/67
f 72/72/72 71/71/71 70/70/70
f 73/73/73 70/70/70 71/71/71
f 76/76/76 75/75/75 74/74/74
f 74/74/74 77/77/77 76/76/76
f 78/78/78 76/76/76 77/77/77
f 81/81/81 80/80/80 79/79/79
f 82/82/82 79/79/79 80/80/80
f 85/85/85 84/84/84 83/83/83
f 86/86/86 83/83/83 84/84/84
f 89/89/89 88/88/88 87/87/87
f 90/90/90 87/87/87 88/88/88
f 93/93/93 92/92/92 91/91/91
f 94/94/94 91/91/91 92/92/92
f 97/97/97 96/96/96 95/95/95
f 98/98/98 95/95/95 96/96/96
f 101/101/101 100/100/100 99/99/99
f 102/102/102 99/99/99 100/100/100
f 105/105/105 104/104/104 103/103/103
f 106/106/106 104/104/104 105/105/105
f 106/106/106 107/107/107 104/104/104
f 108/108/108 104/104/104 107/107/107
f 111/111/111 110/110/110 109/109/109
f 112/112/112 111/111/111 109/109/109
f 115/115/115 114/114/114 113/113/113
f 116/116/116 114/114/114 115/115/115
f 119/119/119 118/118/118 117/117/117
f 119/119/119 120/120/120 118/118/118
f 121/121/121 118/118/118 120/120/120
f 121/121/121 122/122/122 118/118/118
f 122/122/122 121/121/121 123/123/123
f 123/123/123 121/121/121 124/124/124
f 120/120/120 125/125/125 121/121/121
f 126/126/126 121/121/121 125/125/125
f 122/122/122 123/123/123 127/127/127
f 128/128/128 127/127/127 123/123/123
f 124/124/124 121/121/121 129/129/129
f 126/126/126 129/129/129 121/121/121
f 129/129/129 126/126/126 130/130/130
f 131/131/131 130/130/130 126/126/126
f 134/134/134 133/133/133 132/132/132
f 135/135/135 132/132/132 133/133/133
f 136/136/136 133/133/133 134/134/134
f 137/137/137 133/133/133 136/136/136
f 138/138/138 135/135/135 133/133/133
f 139/139/139 135/135/135 138/138/138
f 139/139/139 138/138/138 140/140/140
f 141/141/141 140/140/140 138/138/138
f 133/133/133 142/142/142 138/138/138
f 143/143/143 138/138/138 142/142/142
