g Area_Common_Build_Hili_House_22_Lod0
v 0.02149262 1.614367 -1.312806
v 0.9218684 -1.918057 -1.07155
v 0.9218652 1.614367 -1.071547
v 0.02149568 -1.918057 -1.312809
v 1.580983 -1.918057 -0.4124326
v 1.580977 1.614366 -0.412429
v -0.8788926 1.614367 -1.071547
v -0.8788888 -1.918057 -1.071548
v -1.53801 1.614366 -0.4124283
v -1.53801 -1.918057 -0.4124307
v -1.779257 1.614367 0.4879476
v -1.779255 -1.918057 0.487944
v -1.53801 1.614366 1.388318
v -1.538008 -1.918058 1.388314
v -0.8788922 1.614368 2.04744
v -0.8788896 -1.918058 2.047436
v 0.02149314 1.614366 2.288685
v 0.02149442 -1.918057 2.288684
v 0.9218644 1.614367 2.04744
v 0.9218675 -1.918057 2.047434
v 1.580978 1.614365 1.388317
v 1.580982 -1.918058 1.388311
v 1.822228 1.614367 0.487947
v 1.822236 -1.918057 0.4879422
v 1.580977 1.614366 -0.412429
v 1.580983 -1.918057 -0.4124326
v -0.748605 1.783946 2.811333
v -1.095583 1.822759 2.904945
v -1.686159 1.895366 1.715283
v 0.5355747 1.882705 1.663911
v 0.2138727 1.752399 2.730087
v 0.3368793 1.867979 2.718899
v 0.005497765 1.671265 2.861611
v 0.8774865 1.811551 2.912259
v 1.419229 1.776153 2.864248
v -1.939755 1.810385 2.94135
v -0.1372571 1.918058 -0.2657154
v 2.027685 1.889723 -0.8590255
v -2.349931 1.867729 0.4599849
v -2.714951 1.864117 -0.7564238
v -2.675419 1.855291 0.9312837
v -2.806386 1.890266 1.862765
v -2.77925 1.821736 -2.23015
v -2.330975 1.837562 -2.688526
v -2.720342 1.797641 -0.2303106
v -2.831394 1.829692 0.8266303
v 0.3718818 1.72008 2.85942
v -2.808511 1.745863 1.133576
v 1.758551 1.786894 -2.974092
v 0.56582 1.788223 -2.87905
v 0.2838007 1.807739 -2.730203
v -1.437497 1.86849 -2.994063
v 0.1438184 1.801158 -2.915718
v -1.789753 1.824914 -2.738875
v -2.356607 1.803177 2.856824
v -2.7262 1.772074 2.59238
v 2.696466 1.813394 -2.633957
v 2.758632 1.815624 -2.36235
v 2.747308 1.828066 -0.8689729
v 2.61429 1.782024 -0.5779671
v 2.783805 1.815469 -0.2204476
v 2.831394 1.835142 0.4165996
v 1.908194 1.824425 1.688011
v 2.768281 1.792546 1.966475
v 2.589761 1.780552 2.883511
v 1.579788 1.803965 2.950578
v 2.347356 1.749744 2.982481
v 0.005497765 1.671265 2.861611
v 0.2138727 1.315738 2.730087
v 0.005498071 1.396871 2.861611
v 0.2138727 1.752399 2.730087
v 0.3718818 1.72008 2.85942
v 0.3718818 1.348057 2.85942
v 0.8774865 1.811551 2.912259
v 0.8774868 1.256586 2.912261
v 1.419229 1.776153 2.864248
v 1.419229 1.291984 2.864248
v 1.579788 1.264171 2.950578
v 1.579788 1.803965 2.950578
v 2.347356 1.749744 2.982481
v 2.347355 1.318393 2.982481
v -0.748605 1.783946 2.811333
v -0.9220939 1.264784 2.858139
v -1.095583 1.822759 2.904945
v -1.939755 1.257752 2.94135
v -1.939755 1.810385 2.94135
v -2.356607 1.26496 2.856824
v -2.356607 1.803177 2.856824
v -2.7262 1.772074 2.59238
v -2.7262 1.296063 2.59238
v 2.577615 1.534068 2.994063
v 2.589761 1.780552 2.883511
v 2.589761 1.287584 2.883511
v 2.747308 1.828066 -0.8689729
v 2.61429 1.286115 -0.5779671
v 2.61429 1.782024 -0.5779671
v 2.747308 1.240073 -0.8689729
v 2.783805 1.25267 -0.2204476
v 2.783805 1.815469 -0.2204476
v 2.831394 1.835142 0.4165996
v 2.831394 1.232996 0.4165996
v 2.768281 1.275591 1.966475
v 2.768281 1.792546 1.966475
v 2.758632 1.252515 -2.36235
v 2.758632 1.815624 -2.36235
v 2.696466 1.254746 -2.633957
v 2.696466 1.813394 -2.633957
v 2.589761 1.780552 2.883511
v 2.589761 1.287584 2.883511
v 2.577615 1.534068 2.994063
v -2.720342 1.797641 -0.2303106
v -2.831394 1.238446 0.8266303
v -2.720342 1.270498 -0.2303106
v -2.831394 1.829692 0.8266303
v -2.808511 1.745863 1.133576
v -2.808511 1.322275 1.133576
v -2.725158 1.188968 -0.4712835
v -2.714951 1.864117 -0.7564238
v -2.77925 1.821736 -2.23015
v -2.77925 1.246403 -2.23015
v -2.806386 1.890266 1.862765
v -2.806386 1.177871 1.862765
v -2.7262 1.296063 2.59238
v -2.7262 1.772074 2.59238
v 0.1438184 1.801158 -2.915718
v -1.437497 1.19965 -2.994063
v 0.1438184 1.266981 -2.915718
v -1.437497 1.86849 -2.994063
v 0.2838007 1.2604 -2.730203
v 0.2838007 1.807739 -2.730203
v 0.56582 1.279917 -2.87905
v 0.56582 1.788223 -2.87905
v -1.789753 1.243225 -2.738876
v 1.758551 1.281245 -2.974092
v 1.758551 1.786894 -2.974092
v 2.696466 1.254746 -2.633957
v 2.696466 1.813394 -2.633957
v -1.789753 1.824914 -2.738875
v -2.330975 1.837562 -2.688526
v -2.330975 1.230578 -2.688526
v -2.77925 1.821736 -2.23015
v -2.77925 1.246403 -2.23015
v -1.437497 1.19965 -2.994063
v 0.2838007 1.2604 -2.730203
v 0.1438184 1.266981 -2.915718
v -1.789753 1.243225 -2.738876
v -2.725158 1.188968 -0.4712835
v -2.77925 1.246403 -2.23015
v -2.330975 1.230578 -2.688526
v -2.349931 1.200409 0.4599849
v -2.720342 1.270498 -0.2303106
v -2.831394 1.238446 0.8266303
v -2.675419 1.212846 0.9312837
v -2.808511 1.322275 1.133576
v -2.806386 1.177871 1.862765
v -2.356607 1.26496 2.856824
v -2.7262 1.296063 2.59238
v -1.939755 1.257752 2.94135
v -0.9220939 1.264784 2.858139
v 1.758551 1.281245 -2.974092
v 0.56582 1.279917 -2.87905
v 2.758632 1.252515 -2.36235
v 2.696466 1.254746 -2.633957
v 2.747308 1.240073 -0.8689729
v 2.61429 1.286115 -0.5779671
v 2.783805 1.25267 -0.2204476
v 2.831394 1.232996 0.4165996
v 0.3368793 1.200157 2.718899
v 0.8774868 1.256586 2.912261
v 0.3718818 1.348057 2.85942
v 0.2138727 1.315738 2.730087
v 1.419229 1.291984 2.864248
v 1.579788 1.264171 2.950578
v 2.768281 1.275591 1.966475
v 2.589761 1.287584 2.883511
v 2.347355 1.318393 2.982481
v 0.2138727 1.315738 2.730087
v -0.9220939 1.264784 2.858139
v 0.005498071 1.396871 2.861611
v -0.9220939 1.264784 2.858139
v 0.2138727 1.315738 2.730087
v 0.3368793 1.200157 2.718899
vt -0.1236983 0.4208337
vt -0.3531551 -0.2310277
vt -0.353155 0.4208336
vt -0.1236991 -0.2310277
vt -0.5411991 -0.2310278
vt -0.5411997 0.4208335
vt 0.1092348 0.4208336
vt 0.1092338 -0.2310277
vt 0.3027586 0.4208335
vt 0.3027583 -0.2310278
vt 0.4625838 0.4208336
vt 0.4625833 -0.2310278
vt 0.6067287 0.4208336
vt 0.6067286 -0.2310281
vt 0.7461756 0.4208337
vt 0.7461758 -0.231028
vt 0.8849728 0.4208336
vt 0.884973 -0.2310279
vt 1.023257 0.4208336
vt 1.023257 -0.2310279
vt 1.161216 0.4208333
vt 1.161217 -0.2310281
vt 1.302867 0.4208336
vt 1.302868 -0.2310278
vt 1.4588 0.4208335
vt 1.458801 -0.2310278
vt 0.8516172 0.03229741
vt 0.8391382 0.02899196
vt 0.8179494 0.07199243
vt 0.8983091 0.07346252
vt 0.8863355 0.03495362
vt 0.891602 0.03531251
vt 0.8787079 0.03214287
vt 0.911092 0.02850239
vt 0.9305099 0.03026509
vt 0.8086983 0.02773692
vt 0.8741435 0.1431873
vt 0.9523602 0.1644533
vt 0.7940289 0.1173375
vt 0.7789494 0.1613123
vt 0.782205 0.100286
vt 0.77852 0.06667619
vt 0.7782898 0.2144047
vt 0.7951741 0.2308135
vt 0.7789494 0.1421926
vt 0.7786949 0.1042
vt 0.8908473 0.02960062
vt 0.7789494 0.09308499
vt 0.9427607 0.239917
vt 0.8997321 0.2374324
vt 0.889612 0.2320805
vt 0.8274351 0.239917
vt 0.8845625 0.239917
vt 0.814684 0.2325495
vt 0.7936887 0.03076832
vt 0.7789494 0.0401756
vt 0.9770441 0.2284814
vt 0.9770441 0.2186755
vt 0.9770441 0.1648224
vt 0.9737006 0.154247
vt 0.9770441 0.1413255
vt 0.9770441 0.1184342
vt 0.9479957 0.07264166
vt 0.9770441 0.06263322
vt 0.9770441 0.02959775
vt 0.9362844 0.02717254
vt 0.9640305 0.0258717
vt 0.8802029 0.02313245
vt 0.8878726 0.005454261
vt 0.8802029 0.008320461
vt 0.8878726 0.02599864
vt 0.8943129 0.02313245
vt 0.8943129 0.008320461
vt 0.9126941 0.02313245
vt 0.9126941 0.008320461
vt 0.9323359 0.02313245
vt 0.9323359 0.008320461
vt 0.9389626 0.008320461
vt 0.9389625 0.02313245
vt 0.9665504 0.02313245
vt 0.9665504 0.008320461
vt 0.8529844 0.02313245
vt 0.8465058 0.008320461
vt 0.8400273 0.02313245
vt 0.8095585 0.008320461
vt 0.8095585 0.02313245
vt 0.7941901 0.008320461
vt 0.7941902 0.02313245
vt 0.7777809 0.02313245
vt 0.7777809 0.008320461
vt 0.9743241 0.01572645
vt 0.9760445 0.02313245
vt 0.9760445 0.008320461
vt 0.9807156 0.1667543
vt 0.9964581 0.1554524
vt 0.9807156 0.1554524
vt 0.9964581 0.1667543
vt 0.9964581 0.141532
vt 0.9807156 0.141532
vt 0.9807156 0.1187278
vt 0.9964581 0.1187278
vt 0.9964581 0.06296095
vt 0.9807156 0.06296095
vt 0.9964581 0.2204426
vt 0.9807156 0.2204426
vt 0.9964581 0.2304199
vt 0.9807156 0.2304199
vt 0.9807156 0.02926229
vt 0.9964581 0.02926229
vt 0.9885868 0.02522399
vt 0.7734522 0.1434919
vt 0.7582623 0.1052417
vt 0.758185 0.1434919
vt 0.7733781 0.1052526
vt 0.7734522 0.09415935
vt 0.758185 0.09415935
vt 0.758185 0.1521881
vt 0.7734522 0.1624794
vt 0.7733262 0.2156713
vt 0.7583088 0.2156799
vt 0.7733669 0.06789327
vt 0.7582704 0.06788316
vt 0.758185 0.04142469
vt 0.7734522 0.04142468
vt 0.884693 0.2442586
vt 0.8277586 0.2566117
vt 0.8846931 0.2566117
vt 0.8277584 0.2442586
vt 0.8926778 0.2601282
vt 0.8927166 0.2407287
vt 0.9041054 0.2566117
vt 0.9041053 0.2442586
vt 0.8124893 0.2566117
vt 0.9472224 0.2566117
vt 0.9472222 0.2442586
vt 0.9833087 0.2566117
vt 0.9833086 0.2442586
vt 0.8124891 0.2442586
vt 0.7929488 0.2442586
vt 0.792949 0.2566117
vt 0.77141 0.2444526
vt 0.7714087 0.2564547
vt 0.8274351 0.239917
vt 0.889612 0.2320805
vt 0.8845626 0.239917
vt 0.814684 0.2325495
vt 0.7789493 0.1510521
vt 0.7782898 0.2144047
vt 0.7951741 0.2308135
vt 0.7940289 0.1173375
vt 0.7789493 0.1421926
vt 0.7786949 0.1042
vt 0.782205 0.100286
vt 0.7789493 0.09308499
vt 0.7785199 0.06667619
vt 0.7936887 0.03076832
vt 0.7789493 0.0401756
vt 0.8086982 0.02773692
vt 0.8453777 0.03064469
vt 0.9427607 0.239917
vt 0.8997321 0.2374324
vt 0.9770442 0.2186755
vt 0.9770442 0.2284814
vt 0.9770442 0.1648224
vt 0.9737006 0.154247
vt 0.9770442 0.1413255
vt 0.9770442 0.1184342
vt 0.891602 0.03531251
vt 0.9110921 0.02850239
vt 0.8908473 0.02960062
vt 0.8863355 0.03495362
vt 0.93051 0.03026509
vt 0.9362844 0.02717254
vt 0.9770442 0.06263322
vt 0.9770442 0.02959775
vt 0.9640304 0.0258717
vt 0.8863355 0.03495362
vt 0.8453777 0.03064469
vt 0.8787079 0.03214287
vt 0.8453777 0.03064469
vt 0.8863355 0.03495362
vt 0.891602 0.03531251
vn 1.687284E-06 8.428041E-07 -1
vn 0.5000032 1.210521E-06 -0.8660237
vn 0.5000041 1.580215E-06 -0.866023
vn 8.033915E-07 5.249715E-07 -1
vn 0.8660264 1.721872E-06 -0.4999984
vn 0.8660275 2.321562E-06 -0.4999964
vn -0.5000014 0 -0.8660246
vn -0.5000003 1.99573E-07 -0.8660253
vn -0.8660275 0 -0.4999964
vn -0.8660271 0 -0.499997
vn -1 -4.661694E-07 1.305671E-06
vn -1 -6.621371E-07 1.76971E-06
vn -0.8660278 -1.076876E-06 0.499996
vn -0.866028 -1.057529E-06 0.4999957
vn -0.4999959 -1.212131E-06 0.8660278
vn -0.4999969 -9.344607E-07 0.8660272
vn 1.440706E-06 -6.760962E-07 1
vn 2.260761E-06 -8.669685E-07 1
vn 0.4999993 -5.430009E-07 0.8660258
vn 0.5000012 -9.586863E-07 0.8660247
vn 0.866028 0 0.4999955
vn 0.8660271 7.457024E-07 0.499997
vn 1 1.900027E-06 9.826239E-07
vn 1 2.080534E-06 1.363188E-06
vn 0.8660275 2.321562E-06 -0.4999964
vn 0.8660264 1.721872E-06 -0.4999984
vn 0.0522894 0.9934033 0.1020579
vn 0.06360577 0.9975447 0.02930623
vn -0.003982878 0.9994861 0.03180796
vn 0.01289639 0.9991102 0.04015483
vn -0.2868167 0.9103618 0.298291
vn -0.3653205 0.8833023 0.2937993
vn 0.07729873 0.7891754 0.609284
vn 0.04653623 0.9913244 0.122924
vn -0.2213122 0.9434891 0.246676
vn -0.0216752 0.9976714 0.06466755
vn 0.001217059 0.9999511 -0.009817617
vn 0.04735306 0.9988353 -0.009267832
vn -0.06769287 0.9976372 -0.01173807
vn -0.05526431 0.9984667 -0.003163577
vn -0.2010015 0.9790708 0.03192027
vn -0.07534777 0.996739 0.02887956
vn -0.02816745 0.9995413 -0.01112771
vn -0.01516004 0.9996952 -0.01948789
vn -0.3338847 0.9388785 0.08383407
vn -0.1899907 0.9803262 0.05351779
vn -0.2846247 0.624044 0.7277073
vn -0.6731297 0.7382428 -0.04351866
vn -0.005496331 0.9988042 -0.04857868
vn 0.01299029 0.9988509 -0.04613012
vn 0.04624372 0.9980288 -0.04242621
vn -0.03901605 0.9992383 -0.0008136638
vn 0.0458973 0.9964917 -0.06998262
vn -0.03381909 0.9993148 -0.01503914
vn -0.05307867 0.9941733 0.09381927
vn -0.2087753 0.9614983 0.1787003
vn 0.007580062 0.9991665 -0.04011198
vn 0.06162155 0.9979144 -0.0192253
vn 0.08617144 0.9932814 0.0772438
vn 0.2081055 0.9762488 -0.06025405
vn 0.155622 0.9853553 -0.0696899
vn 0.04306408 0.9989401 0.01625809
vn 0.03413849 0.999079 0.02599493
vn 0.02952467 0.9992946 0.02320841
vn 0.03073752 0.9960542 0.08325431
vn -0.02524121 0.9956567 0.08961295
vn 0.04788855 0.9144133 0.4019392
vn 0.2605413 0 0.9654627
vn -0.1047682 1.772827E-07 0.9944966
vn 0.2691785 0.01718236 0.9629371
vn -0.1047688 0 0.9944966
vn -0.3831623 0 0.923681
vn -0.3831629 5.867905E-07 0.9236808
vn -0.004103174 1.782887E-06 0.9999917
vn -0.004102957 1.655861E-06 0.9999917
vn -0.2086289 5.761027E-07 0.9779949
vn -0.2086284 0 0.977995
vn -0.2581112 0 0.9661153
vn -0.2581112 0 0.9661153
vn 0.05601172 0.1084881 0.9925185
vn 0.05601134 -0.1084878 0.9925185
vn 0.09975856 0.0443151 0.9940243
vn 0.08416609 0.01070607 0.9963942
vn 0.1433998 -0.02490632 0.9893513
vn -0.0707615 -0.01095572 0.9974331
vn -0.07717355 0 0.9970177
vn -0.3937066 0 0.9192361
vn -0.3937066 0 0.9192361
vn -0.5818939 0 0.8132647
vn -0.5818939 0 0.8132647
vn 0.1565713 0 0.9876667
vn 0.308753 0.3765355 0.8734372
vn 0.308752 -0.3765353 0.8734376
vn 0.9783337 0 0.207034
vn 0.9999994 0 0.001093541
vn 0.9999994 0 0.001093492
vn 0.9783337 0 0.207034
vn 0.9684866 0 -0.2490656
vn 0.9684866 0 -0.2490657
vn 0.9998577 0 -0.01686938
vn 0.9998577 0 -0.01686933
vn 0.9933358 0 0.1152561
vn 0.9933358 0 0.115256
vn 0.9941623 0 -0.1078953
vn 0.9941623 0 -0.1078954
vn 0.9747921 0 -0.2231155
vn 0.9747921 0 -0.2231155
vn 0.9847642 0 0.1738953
vn 0.9847642 0 0.1738954
vn 0.9940187 0 0.1092101
vn -0.9986345 0.004567764 -0.05204066
vn -0.9997452 4.883634E-07 -0.02257283
vn -0.999313 0 -0.03705926
vn -0.9997452 5.160253E-07 -0.02257273
vn -0.9992254 6.468251E-07 0.03935206
vn -0.9992254 5.483696E-07 0.03935206
vn -0.9997174 0.013015 0.01988839
vn -0.9993713 0.02550838 0.02462123
vn -0.999408 0.007741262 0.03352057
vn -0.9995275 5.301828E-07 0.03073945
vn -0.998383 1.207257E-07 0.05684402
vn -0.998383 0 0.05684415
vn -0.9940148 0 0.1092454
vn -0.9940148 0 0.1092454
vn 0.4661 0 -0.884732
vn -0.2782699 1.295261E-07 -0.9605029
vn 0.4661002 0 -0.8847319
vn -0.2782704 6.576421E-07 -0.9605027
vn 0.2265394 0 -0.974002
vn 0.2265396 0 -0.9740019
vn -0.2826705 0 -0.959217
vn -0.2826704 0 -0.959217
vn -0.3581349 9.933906E-07 -0.9336699
vn 0.1355157 -1.760174E-07 -0.9907752
vn 0.1355161 0 -0.9907752
vn 0.3409238 -1.235002E-07 -0.940091
vn 0.3409238 0 -0.9400909
vn -0.358135 2.147242E-06 -0.9336699
vn -0.4299909 7.972036E-07 -0.9028333
vn -0.4299915 2.210926E-07 -0.9028329
vn -0.7149404 3.696905E-07 -0.6991854
vn -0.7149404 3.792283E-07 -0.6991854
vn 0.009027909 -0.9857357 0.1680581
vn 0.01658686 -0.9995754 -0.02395683
vn 0.04589736 -0.9964916 -0.0699843
vn 0.005011844 -0.9997768 0.02052568
vn -0.08096145 -0.9961752 0.03286546
vn -0.01294685 -0.9997368 -0.01893611
vn 0.02916933 -0.9975891 0.06296841
vn -0.04669417 -0.9988856 -0.00687087
vn -0.5449601 -0.811737 0.2100037
vn -0.1899922 -0.9803258 0.05351711
vn -0.2377623 -0.9711996 0.01550834
vn -0.6731309 -0.7382419 -0.04351882
vn 0.02390498 -0.9993056 0.02858249
vn -0.03565739 -0.9977107 0.05746288
vn -0.208775 -0.9614985 0.1786999
vn -0.004576691 -0.9997048 0.02385936
vn -0.01670484 -0.9948772 0.09970182
vn -0.005655916 -0.9995389 -0.02983494
vn -0.01086931 -0.9885927 -0.1502203
vn -0.008499331 -0.9998415 -0.0156475
vn -0.0275526 -0.9996185 -0.001902843
vn 0.0218218 -0.9983077 0.05390241
vn 0.02934484 -0.9978881 0.05794975
vn 0.002340673 -0.9982545 -0.05901163
vn 0.01362431 -0.9998765 -0.007827486
vn -0.1088963 -0.8928813 0.4369262
vn 0.045573 -0.9871743 0.1530034
vn -0.2846256 -0.6240436 0.7277072
vn -0.05607046 -0.2802112 0.9582994
vn -0.01673896 -0.9997557 0.01443637
vn -0.06758545 -0.9976922 -0.006512517
vn 0.0313688 -0.9991621 0.02628941
vn 0.02843401 -0.9963599 0.08036412
vn 0.04788841 -0.9144122 0.4019416
vn -0.05607046 -0.2802112 0.9582994
vn -0.01670484 -0.9948772 0.09970182
vn 0.1061625 -0.762314 0.638441
vn -0.01670484 -0.9948772 0.09970182
vn -0.05607046 -0.2802112 0.9582994
vn -0.1088963 -0.8928813 0.4369262
g Area_Common_Build_Hili_House_22_Lod0_0
f 3/3/3 2/2/2 1/1/1
f 4/4/4 1/1/1 2/2/2
f 2/2/2 3/3/3 5/5/5
f 6/6/6 5/5/5 3/3/3
f 1/1/1 4/4/4 7/7/7
f 8/8/8 7/7/7 4/4/4
f 7/7/7 8/8/8 9/9/9
f 10/10/10 9/9/9 8/8/8
f 9/9/9 10/10/10 11/11/11
f 12/12/12 11/11/11 10/10/10
f 11/11/11 12/12/12 13/13/13
f 14/14/14 13/13/13 12/12/12
f 13/13/13 14/14/14 15/15/15
f 16/16/16 15/15/15 14/14/14
f 15/15/15 16/16/16 17/17/17
f 18/18/18 17/17/17 16/16/16
f 17/17/17 18/18/18 19/19/19
f 20/20/20 19/19/19 18/18/18
f 19/19/19 20/20/20 21/21/21
f 22/22/22 21/21/21 20/20/20
f 21/21/21 22/22/22 23/23/23
f 24/24/24 23/23/23 22/22/22
f 23/23/23 24/24/24 25/25/25
f 26/26/26 25/25/25 24/24/24
g Area_Common_Build_Hili_House_22_Lod0_1
f 29/29/29 28/28/28 27/27/27
f 27/27/27 30/30/30 29/29/29
f 30/30/30 27/27/27 31/31/31
f 31/31/31 32/32/32 30/30/30
f 27/27/27 33/33/33 31/31/31
f 30/30/30 32/32/32 34/34/34
f 34/34/34 35/35/35 30/30/30
f 36/36/36 28/28/28 29/29/29
f 37/37/37 29/29/29 30/30/30
f 30/30/30 38/38/38 37/37/37
f 29/29/29 37/37/37 39/39/39
f 40/40/40 39/39/39 37/37/37
f 41/41/41 29/29/29 39/39/39
f 42/42/42 29/29/29 41/41/41
f 37/37/37 43/43/43 40/40/40
f 37/37/37 44/44/44 43/43/43
f 40/40/40 45/45/45 39/39/39
f 45/45/45 46/46/46 39/39/39
f 41/41/41 39/39/39 46/46/46
f 47/47/47 34/34/34 32/32/32
f 31/31/31 47/47/47 32/32/32
f 46/46/46 48/48/48 41/41/41
f 41/41/41 48/48/48 42/42/42
f 38/38/38 49/49/49 37/37/37
f 49/49/49 50/50/50 37/37/37
f 37/37/37 50/50/50 51/51/51
f 51/51/51 52/52/52 37/37/37
f 51/51/51 53/53/53 52/52/52
f 52/52/52 54/54/54 37/37/37
f 54/54/54 44/44/44 37/37/37
f 42/42/42 55/55/55 29/29/29
f 56/56/56 55/55/55 42/42/42
f 36/36/36 29/29/29 55/55/55
f 57/57/57 49/49/49 38/38/38
f 58/58/58 57/57/57 38/38/38
f 58/58/58 38/38/38 59/59/59
f 38/38/38 60/60/60 59/59/59
f 38/38/38 61/61/61 60/60/60
f 61/61/61 38/38/38 62/62/62
f 62/62/62 38/38/38 63/63/63
f 63/63/63 64/64/64 62/62/62
f 64/64/64 63/63/63 65/65/65
f 66/66/66 65/65/65 63/63/63
f 66/66/66 63/63/63 30/30/30
f 63/63/63 38/38/38 30/30/30
f 66/66/66 67/67/67 65/65/65
f 30/30/30 35/35/35 66/66/66
f 70/70/70 69/69/69 68/68/68
f 71/71/71 68/68/68 69/69/69
f 71/71/71 69/69/69 72/72/72
f 73/73/73 72/72/72 69/69/69
f 72/72/72 73/73/73 74/74/74
f 75/75/75 74/74/74 73/73/73
f 74/74/74 75/75/75 76/76/76
f 77/77/77 76/76/76 75/75/75
f 77/77/77 78/78/78 76/76/76
f 79/79/79 76/76/76 78/78/78
f 79/79/79 78/78/78 80/80/80
f 81/81/81 80/80/80 78/78/78
f 68/68/68 82/82/82 70/70/70
f 83/83/83 70/70/70 82/82/82
f 84/84/84 83/83/83 82/82/82
f 83/83/83 84/84/84 85/85/85
f 86/86/86 85/85/85 84/84/84
f 85/85/85 86/86/86 87/87/87
f 88/88/88 87/87/87 86/86/86
f 88/88/88 89/89/89 87/87/87
f 90/90/90 87/87/87 89/89/89
f 91/91/91 80/80/80 81/81/81
f 91/91/91 92/92/92 80/80/80
f 93/93/93 91/91/91 81/81/81
f 96/96/96 95/95/95 94/94/94
f 97/97/97 94/94/94 95/95/95
f 95/95/95 96/96/96 98/98/98
f 99/99/99 98/98/98 96/96/96
f 99/99/99 100/100/100 98/98/98
f 101/101/101 98/98/98 100/100/100
f 101/101/101 100/100/100 102/102/102
f 103/103/103 102/102/102 100/100/100
f 97/97/97 104/104/104 94/94/94
f 105/105/105 94/94/94 104/104/104
f 104/104/104 106/106/106 105/105/105
f 107/107/107 105/105/105 106/106/106
f 103/103/103 108/108/108 102/102/102
f 109/109/109 102/102/102 108/108/108
f 109/109/109 108/108/108 110/110/110
f 113/113/113 112/112/112 111/111/111
f 114/114/114 111/111/111 112/112/112
f 114/114/114 112/112/112 115/115/115
f 116/116/116 115/115/115 112/112/112
f 113/113/113 111/111/111 117/117/117
f 118/118/118 117/117/117 111/111/111
f 118/118/118 119/119/119 117/117/117
f 120/120/120 117/117/117 119/119/119
f 115/115/115 116/116/116 121/121/121
f 122/122/122 121/121/121 116/116/116
f 122/122/122 123/123/123 121/121/121
f 124/124/124 121/121/121 123/123/123
f 127/127/127 126/126/126 125/125/125
f 128/128/128 125/125/125 126/126/126
f 127/127/127 125/125/125 129/129/129
f 130/130/130 129/129/129 125/125/125
f 129/129/129 130/130/130 131/131/131
f 132/132/132 131/131/131 130/130/130
f 128/128/128 126/126/126 133/133/133
f 131/131/131 132/132/132 134/134/134
f 135/135/135 134/134/134 132/132/132
f 134/134/134 135/135/135 136/136/136
f 137/137/137 136/136/136 135/135/135
f 138/138/138 128/128/128 133/133/133
f 138/138/138 133/133/133 139/139/139
f 140/140/140 139/139/139 133/133/133
f 139/139/139 140/140/140 141/141/141
f 142/142/142 141/141/141 140/140/140
f 145/145/145 144/144/144 143/143/143
f 143/143/143 144/144/144 146/146/146
f 146/146/146 144/144/144 147/147/147
f 147/147/147 148/148/148 146/146/146
f 149/149/149 146/146/146 148/148/148
f 147/147/147 144/144/144 150/150/150
f 151/151/151 147/147/147 150/150/150
f 152/152/152 151/151/151 150/150/150
f 150/150/150 153/153/153 152/152/152
f 154/154/154 152/152/152 153/153/153
f 154/154/154 153/153/153 155/155/155
f 153/153/153 150/150/150 155/155/155
f 156/156/156 155/155/155 150/150/150
f 156/156/156 157/157/157 155/155/155
f 156/156/156 150/150/150 158/158/158
f 158/158/158 150/150/150 159/159/159
f 144/144/144 160/160/160 150/150/150
f 161/161/161 160/160/160 144/144/144
f 160/160/160 162/162/162 150/150/150
f 163/163/163 162/162/162 160/160/160
f 162/162/162 164/164/164 150/150/150
f 164/164/164 165/165/165 150/150/150
f 165/165/165 166/166/166 150/150/150
f 166/166/166 167/167/167 150/150/150
f 167/167/167 168/168/168 150/150/150
f 150/150/150 168/168/168 159/159/159
f 169/169/169 168/168/168 167/167/167
f 169/169/169 170/170/170 168/168/168
f 170/170/170 171/171/171 168/168/168
f 172/172/172 169/169/169 167/167/167
f 173/173/173 172/172/172 167/167/167
f 174/174/174 173/173/173 167/167/167
f 175/175/175 173/173/173 174/174/174
f 176/176/176 173/173/173 175/175/175
f 179/179/179 178/178/178 177/177/177
f 182/182/182 181/181/181 180/180/180
