g Area_Ly_Build_Common_Bridge_S_01_A_Col
v -2.35016 1.827126 7.93715
v -2.35016 0.9559643 5.995743
v 2.435575 1.088498 5.989557
v -0.9193029 0.5163741 4.22982
v -2.35016 0.4616401 4.228926
v 2.435575 0.5982063 4.259821
v 2.435575 1.902267 7.93715
v -2.139276 0.296962 4.116
v -2.127241 0.2446051 3.7828
v 2.435575 0.508535 3.384578
v -0.90612 0.3914325 3.550124
v 2.435575 0.2954225 2.272061
v -2.35016 0.2608466 2.718883
v -2.356846 0.3555829 3.699221
v -2.35016 0.1423733 1.239646
v 2.435575 0.1581924 1.224081
v -2.35016 0.1496032 -0.3999463
v 2.435575 0.1595024 -0.3999464
v 2.435575 0.3157728 -1.963611
v -2.35016 0.3299884 -1.919633
v -2.35016 0.5451679 -2.828956
v 2.435575 0.3967013 -2.896528
v -2.35016 0.7693986 -3.649099
v 2.435575 0.6242727 -3.793157
v 2.435575 0.7955855 -4.740913
v -2.35016 0.9979262 -4.496269
v -2.35016 1.166224 -5.251917
v 2.435575 1.135246 -5.619236
v 2.435575 1.459883 -6.392378
v -2.35016 1.49069 -6.187765
v 2.435575 1.786803 -7.392184
v -2.35016 1.81489 -7.187165
v 2.435575 1.902267 7.93715
v -2.35016 1.314535 7.93715
v -2.35016 1.827126 7.93715
v 2.435575 1.314535 7.93715
v 2.435575 1.314535 7.93715
v 2.435575 1.902267 7.93715
v 2.435575 1.088498 5.989557
v 2.435575 0.5982063 4.259821
v 2.435575 -0.09542327 2.746858
v 2.435575 0.508535 3.384578
v 2.435575 0.2954225 2.272061
v 2.435575 0.1581924 1.224081
v 2.435575 -0.09542327 -0.3999464
v 2.435575 0.1595024 -0.3999464
v 2.435575 -0.09542327 -1.968995
v 2.435575 0.3157728 -1.963611
v 2.435575 0.08391449 -2.907556
v 2.435575 0.3967013 -2.896528
v 2.435575 0.6242727 -3.793157
v 2.435575 0.08391449 -2.907556
v 2.435575 0.581149 -4.740912
v -2.35016 0.581149 -4.650508
v 2.435575 1.413961 -7.392184
v -2.35016 1.413961 -7.187165
v -2.35016 -0.09542327 -1.707107
v -2.35016 0.5451679 -2.828956
v -2.35016 0.7693986 -3.649099
v -2.35016 0.3299884 -1.919633
v 2.435575 0.7955855 -4.740913
v -2.35016 1.413961 -7.187165
v -2.35016 1.166224 -5.251917
v -2.35016 1.49069 -6.187765
v -2.35016 1.81489 -7.187165
v -2.35016 -0.09542327 -1.707107
v -2.35016 -0.09542327 -0.3999463
v -2.35016 0.1496032 -0.3999463
v -2.35016 -0.09542327 2.879238
v -2.35016 0.1423733 1.239646
v -2.35016 0.2608466 2.718883
v -2.356846 -0.09542327 3.733817
v -2.356846 0.3555829 3.699221
v -2.35016 0.581149 -4.650508
v -2.35016 0.9979262 -4.496269
v 2.435575 1.413961 -7.392184
v 2.435575 1.135246 -5.619236
v 2.435575 1.459883 -6.392378
v 2.435575 1.786803 -7.392184
v 2.435575 0.581149 -4.740912
v -2.35016 1.81489 -7.187165
v 2.435575 1.413961 -7.392184
v 2.435575 1.786803 -7.392184
v -2.35016 1.413961 -7.187165
v -2.35016 0.4616401 4.228926
v -2.35016 1.314535 7.93715
v -2.35016 -0.09542327 4.228926
v -2.35016 0.9559643 5.995743
v -2.35016 1.827126 7.93715
v 2.435575 0.08391449 -2.907556
v -2.35016 -0.09542327 -0.3999463
v 2.435575 -0.09542327 -1.968995
v -2.35016 -0.09542327 -1.707107
v 2.435575 -0.09542327 -0.3999464
v 2.435575 -0.09542327 2.746858
v -2.35016 -0.09542327 2.879238
v -2.222186 -0.09542327 3.774206
v -2.235369 -0.09542327 4.085328
v 2.435575 1.314535 7.93715
v -2.356846 -0.09542327 3.733817
v -2.35016 1.314535 7.93715
v -2.35016 -0.09542327 4.228926
v -2.139276 0.296962 4.116
v -2.222186 -0.09542327 3.774206
v -2.127241 0.2446051 3.7828
v -2.235369 -0.09542327 4.085328
v -2.35016 -0.09542327 4.228926
v -2.235369 -0.09542327 4.085328
v -2.35016 0.4616401 4.228926
v -2.35016 0.4616401 4.228926
v -2.139276 0.296962 4.116
v -0.9193029 0.5163741 4.22982
v -2.356846 -0.09542327 3.733817
v -2.356846 0.3555829 3.699221
v -2.127241 0.2446051 3.7828
v -2.222186 -0.09542327 3.774206
v -2.127241 0.2446051 3.7828
v -2.356846 0.3555829 3.699221
v -0.90612 0.3914325 3.550124
v -2.35016 0.4616401 4.228926
v -2.235369 -0.09542327 4.085328
v -2.139276 0.296962 4.116
vn -0.02287689 0.9150755 -0.4026332
vn -0.02901412 0.9414318 -0.3359529
vn -0.01985372 0.9438151 -0.3298771
vn -0.01830381 0.789733 -0.6131775
vn -0.03662532 0.9625592 -0.2685857
vn -0.04272344 0.9772987 -0.2075138
vn -0.0137311 0.923035 -0.3844708
vn -0.06254643 0.981674 -0.1800117
vn -0.06104437 0.995214 -0.07630546
vn -0.0533933 0.987776 -0.1464502
vn -0.01526246 0.9806129 0.1953595
vn -0.02136277 0.9889818 -0.1464875
vn -0.02136297 0.9952855 -0.09460744
vn -0.03508573 0.9946042 -0.09762986
vn -0.007629796 0.9991217 -0.04120089
vn -0.003051803 0.9979395 -0.06408785
vn 0 0.9982728 0.05874998
vn -0.001525798 0.9987304 0.05035134
vn 0.01373313 0.9945074 0.1037614
vn 0.004578405 0.9847386 0.1739794
vn 0.02136605 0.9710108 0.2380789
vn 0.0350901 0.9851925 0.1678222
vn 0.04271465 0.9656562 0.2562879
vn 0.0366329 0.9768772 0.2106391
vn 0.03663878 0.9625313 0.2686844
vn 0.05341046 0.9697813 0.238058
vn 0.03665015 0.9590123 0.2809845
vn 0.03511057 0.9273769 0.3724773
vn 0.02596434 0.939298 0.3421183
vn 0.0198462 0.9480374 0.3175391
vn 0.0198268 0.9501612 0.3111282
vn 0.01830219 0.9501887 0.3111373
vn 0 0 1
vn 0 0 1
vn 0 0 1
vn 0 0 1
vn 1 0 0
vn 1 0 0
vn 1 0 0
vn 1 0 0
vn 1 0 0
vn 1 0 0
vn 1 0 0
vn 1 0 0
vn 1 0 0
vn 1 0 0
vn 1 0 0
vn 1 0 0
vn 1 0 0
vn 1 0 0
vn 1 0 0
vn 0.5885841 -0.7829405 -0.2014273
vn 0.5011716 -0.8304828 -0.2431573
vn -0.2779934 -0.9248471 -0.2595721
vn -0.008171082 -0.9527427 -0.3036685
vn -0.01336176 -0.9500203 -0.3119021
vn -0.5657105 -0.8036464 -0.1847268
vn -1 0 0
vn -1 0 0
vn -1 0 0
vn 1 0 0
vn -1 0 0
vn -1 0 0
vn -1 0 0
vn -1 0 0
vn -1 0 0
vn -1 0 0
vn -1 0 0
vn -0.9999807 -0.001145016 -0.006106752
vn -1 0 0
vn -0.9999951 -0.0007633551 -0.00305342
vn -0.9999799 -0.001717523 -0.006106747
vn -0.9999796 -0.001908358 -0.006106746
vn -1 0 0
vn -1 0 0
vn 1 0 0
vn 1 0 0
vn 1 0 0
vn 1 0 0
vn 1 0 0
vn -0.0426441 0 -0.9990903
vn -0.0426441 0 -0.9990903
vn -0.0426441 0 -0.9990903
vn -0.0426441 0 -0.9990903
vn -1 0 0
vn -1 0 0
vn -1 0 0
vn -1 0 0
vn -1 0 0
vn 0 -1 0
vn 0 -1 0
vn 0 -1 0
vn 0 -1 0
vn 0 -1 0
vn 0 -1 0
vn 0 -1 0
vn 0 -1 0
vn 0 -1 0
vn 0 -1 0
vn 0 -1 0
vn 0 -1 0
vn 0 -1 0
vn -0.9652913 0.2546661 -0.05794797
vn -0.9652678 0.2547553 -0.05794657
vn -0.9652913 0.2546661 -0.05794797
vn -0.9652678 0.2547553 -0.05794657
vn -0.7805712 0 -0.6250668
vn -0.7805712 0 -0.6250668
vn -0.7805712 0 -0.6250668
vn -0.01984387 0.5476145 -0.8364955
vn -0.0198418 0.5477481 -0.836408
vn -0.02060678 0.5476059 -0.8364825
vn -0.30944 0.07269173 0.9481364
vn -0.3094379 0.0727865 0.94813
vn -0.3094422 0.07259696 0.948143
vn -0.2871781 0.05594627 0.956242
vn 0.05949091 0.6751837 0.7352467
vn 0.05948326 0.6752875 0.7351521
vn 0.0587233 0.6753179 0.7351852
vn -0.3652149 0.1612141 -0.9168577
vn -0.3652094 0.1613072 -0.9168436
vn -0.3652037 0.1614002 -0.9168295
g Area_Ly_Build_Common_Bridge_S_01_A_Col_0
f 3/3/3 2/2/2 1/1/1
f 4/4/4 2/2/2 3/3/3
f 5/5/5 2/2/2 4/4/4
f 6/6/6 4/4/4 3/3/3
f 7/7/7 3/3/3 1/1/1
f 8/8/8 4/4/4 6/6/6
f 8/8/8 6/6/6 9/9/9
f 10/10/10 9/9/9 6/6/6
f 11/11/11 9/9/9 10/10/10
f 12/12/12 11/11/11 10/10/10
f 13/13/13 11/11/11 12/12/12
f 14/14/14 11/11/11 13/13/13
f 15/15/15 13/13/13 12/12/12
f 16/16/16 15/15/15 12/12/12
f 17/17/17 15/15/15 16/16/16
f 18/18/18 17/17/17 16/16/16
f 19/19/19 17/17/17 18/18/18
f 20/20/20 17/17/17 19/19/19
f 21/21/21 20/20/20 19/19/19
f 22/22/22 21/21/21 19/19/19
f 23/23/23 21/21/21 22/22/22
f 24/24/24 23/23/23 22/22/22
f 25/25/25 23/23/23 24/24/24
f 26/26/26 23/23/23 25/25/25
f 27/27/27 26/26/26 25/25/25
f 28/28/28 27/27/27 25/25/25
f 29/29/29 27/27/27 28/28/28
f 30/30/30 27/27/27 29/29/29
f 31/31/31 30/30/30 29/29/29
f 32/32/32 30/30/30 31/31/31
f 35/35/35 34/34/34 33/33/33
f 36/36/36 33/33/33 34/34/34
f 39/39/39 38/38/38 37/37/37
f 40/40/40 39/39/39 37/37/37
f 40/40/40 37/37/37 41/41/41
f 42/42/42 40/40/40 41/41/41
f 43/43/43 42/42/42 41/41/41
f 44/44/44 43/43/43 41/41/41
f 45/45/45 44/44/44 41/41/41
f 46/46/46 44/44/44 45/45/45
f 45/45/45 47/47/47 46/46/46
f 48/48/48 46/46/46 47/47/47
f 47/47/47 49/49/49 48/48/48
f 50/50/50 48/48/48 49/49/49
f 50/50/50 52/52/52 51/51/51
f 51/51/51 52/52/52 53/53/53
f 54/54/54 53/53/53 52/52/52
f 53/53/53 54/54/54 55/55/55
f 56/56/56 55/55/55 54/54/54
f 57/57/57 54/54/54 52/52/52
f 58/58/58 54/54/54 57/57/57
f 59/59/59 54/54/54 58/58/58
f 60/60/60 58/58/58 57/57/57
f 61/61/61 51/51/51 53/53/53
f 54/54/54 63/63/63 62/62/62
f 63/63/63 64/64/64 62/62/62
f 64/64/64 65/65/65 62/62/62
f 67/67/67 60/60/60 66/66/66
f 68/68/68 60/60/60 67/67/67
f 69/69/69 68/68/68 67/67/67
f 68/68/68 69/69/69 70/70/70
f 71/71/71 70/70/70 69/69/69
f 69/69/69 72/72/72 71/71/71
f 73/73/73 71/71/71 72/72/72
f 59/59/59 75/75/75 74/74/74
f 75/75/75 63/63/63 74/74/74
f 77/77/77 61/61/61 76/76/76
f 78/78/78 77/77/77 76/76/76
f 79/79/79 78/78/78 76/76/76
f 61/61/61 80/80/80 76/76/76
f 83/83/83 82/82/82 81/81/81
f 84/84/84 81/81/81 82/82/82
f 87/87/87 86/86/86 85/85/85
f 88/88/88 85/85/85 86/86/86
f 89/89/89 88/88/88 86/86/86
f 92/92/92 91/91/91 90/90/90
f 93/93/93 90/90/90 91/91/91
f 92/92/92 94/94/94 91/91/91
f 94/94/94 95/95/95 91/91/91
f 96/96/96 91/91/91 95/95/95
f 96/96/96 95/95/95 97/97/97
f 97/97/97 95/95/95 98/98/98
f 99/99/99 98/98/98 95/95/95
f 100/100/100 96/96/96 97/97/97
f 99/99/99 101/101/101 98/98/98
f 102/102/102 98/98/98 101/101/101
f 105/105/105 104/104/104 103/103/103
f 106/106/106 103/103/103 104/104/104
f 109/109/109 108/108/108 107/107/107
f 112/112/112 111/111/111 110/110/110
f 115/115/115 114/114/114 113/113/113
f 116/116/116 115/115/115 113/113/113
f 119/119/119 118/118/118 117/117/117
f 122/122/122 121/121/121 120/120/120
