g Area_Common_Build_Arch_D_01_Col
v -5.417287 -0.1443855 0.8166096
v -5.245122 0.3610173 0.6208131
v -3.463661 0.9107646 0.6629103
v -5.417287 -0.1443858 -0.8427203
v -5.245123 0.3610172 -0.6454653
v -3.512621 -0.1443855 0.8311232
v -3.512621 -0.1443858 -0.8282062
v -3.463661 0.9107646 -0.6629099
v -5.483696 5.150381 -0.5502767
v -3.041014 1.973533 -0.6629105
v -2.125163 2.944324 -0.6629102
v -1.168068 3.462186 -0.6629102
v -0.004246892 3.697147 -0.66291
v 5.502211 5.150381 -0.5502767
v 1.159575 3.462186 -0.6629102
v 2.11667 2.944324 -0.6629102
v 3.03252 1.973533 -0.6629105
v 3.61768 0.9107648 -0.6629099
v 5.255004 0.3552461 -0.6454653
v 5.502211 5.150381 0.5576974
v 5.255004 0.3552466 0.6208131
v 3.61768 0.9107646 0.6629102
v 3.03252 1.973533 0.6629099
v 2.11667 2.944325 0.66291
v 1.159575 3.462186 0.66291
v -0.004246892 3.697147 0.66291
v -5.483696 5.150381 0.5576974
v -1.168068 3.462186 0.66291
v -2.125163 2.944325 0.66291
v -3.041014 1.973533 0.6629099
v 3.530366 -0.1559263 0.8311234
v 5.415255 -0.1559267 -0.8427204
v 3.530366 -0.1559267 -0.8282062
v 5.415255 -0.1559263 0.8166096
v -5.504689 5.276672 0.8059571
v 5.506488 5.276672 -0.8310717
v 5.506488 5.276672 0.8059571
v -5.504689 5.276672 -0.8310717
v -5.504689 4.755713 0.8059571
v 5.506488 5.276672 0.8059571
v 5.506488 4.755713 0.8059571
v -5.504689 5.276672 0.8059571
v -5.504689 4.755713 -0.8310717
v -5.504689 5.276672 0.8059571
v -5.504689 4.755713 0.8059571
v -5.504689 5.276672 -0.8310717
v -5.504689 4.755713 0.8059571
v 5.506488 4.755713 -0.8310717
v -5.504689 4.755713 -0.8310717
v 5.506488 4.755713 0.8059571
v 5.506488 4.755713 0.8059571
v 5.506488 5.276672 -0.8310717
v 5.506488 4.755713 -0.8310717
v 5.506488 5.276672 0.8059571
v 5.506488 4.755713 -0.8310717
v -5.504689 5.276672 -0.8310717
v -5.504689 4.755713 -0.8310717
v 5.506488 5.276672 -0.8310717
vn -0.6618587 -0.4136193 0.6251897
vn -0.7229852 0.275046 0.6337523
vn 0.6636953 -0.08308491 0.7433742
vn -0.6578791 -0.4123835 -0.6301864
vn -0.7173623 0.2784843 -0.6386219
vn 0.5535374 -0.543492 0.631041
vn 0.5580143 -0.5454866 -0.6253515
vn 0.6674999 -0.08124366 -0.7401644
vn -0.5975872 0.5704706 -0.5634295
vn 0.5443352 -0.3482937 -0.7631453
vn 0.3998326 -0.518798 -0.7556338
vn 0.225285 -0.6134486 -0.7569197
vn -4.27403E-06 -0.6263208 -0.7795655
vn 0.5980998 0.5700453 -0.563316
vn -0.2252983 -0.613484 -0.756887
vn -0.3998681 -0.5188342 -0.7555902
vn -0.5366701 -0.3918166 -0.7473051
vn -0.6304508 -0.06558632 -0.7734535
vn 0.7254079 0.2676353 -0.6341567
vn 0.5979525 0.5691732 0.5643533
vn 0.7313123 0.2641036 0.6288335
vn -0.6258997 -0.06779303 0.7769515
vn -0.5373252 -0.3922475 0.746608
vn -0.4003232 -0.5195256 0.7548738
vn -0.2255013 -0.6146059 0.7559158
vn -3.978187E-06 -0.6283208 0.7779545
vn -0.5974466 0.5695689 0.5644898
vn 0.2254889 -0.6145727 0.7559466
vn 0.40029 -0.5194919 0.7549145
vn 0.5451064 -0.3486921 0.7624125
vn -0.5911038 -0.5141078 0.6215219
vn 0.6529604 -0.4202794 -0.6300856
vn -0.595418 -0.5157335 -0.6160328
vn 0.6571347 -0.4216594 0.6248018
vn 0 1 0
vn 0 1 0
vn 0 1 0
vn 0 1 0
vn 0 0 1
vn 0 0 1
vn 0 0 1
vn 0 0 1
vn -1 0 0
vn -1 0 0
vn -1 0 0
vn -1 0 0
vn 0 -1 0
vn 0 -1 0
vn 0 -1 0
vn 0 -1 0
vn 1 0 0
vn 1 0 0
vn 1 0 0
vn 1 0 0
vn 0 0 -1
vn 0 0 -1
vn 0 0 -1
vn 0 0 -1
g Area_Common_Build_Arch_D_01_Col_0
f 3/3/3 2/2/2 1/1/1
f 1/1/1 2/2/2 4/4/4
f 5/5/5 4/4/4 2/2/2
f 1/1/1 4/4/4 6/6/6
f 6/6/6 3/3/3 1/1/1
f 7/7/7 6/6/6 4/4/4
f 7/7/7 4/4/4 8/8/8
f 3/3/3 6/6/6 8/8/8
f 7/7/7 8/8/8 6/6/6
f 4/4/4 5/5/5 8/8/8
f 5/5/5 9/9/9 8/8/8
f 8/8/8 9/9/9 10/10/10
f 10/10/10 9/9/9 11/11/11
f 11/11/11 9/9/9 12/12/12
f 12/12/12 9/9/9 13/13/13
f 13/13/13 9/9/9 14/14/14
f 15/15/15 13/13/13 14/14/14
f 16/16/16 15/15/15 14/14/14
f 14/14/14 17/17/17 16/16/16
f 14/14/14 18/18/18 17/17/17
f 19/19/19 18/18/18 14/14/14
f 14/14/14 20/20/20 19/19/19
f 14/14/14 9/9/9 20/20/20
f 21/21/21 19/19/19 20/20/20
f 22/22/22 21/21/21 20/20/20
f 23/23/23 22/22/22 20/20/20
f 17/17/17 18/18/18 23/23/23
f 22/22/22 23/23/23 18/18/18
f 24/24/24 23/23/23 20/20/20
f 16/16/16 17/17/17 24/24/24
f 23/23/23 24/24/24 17/17/17
f 25/25/25 24/24/24 20/20/20
f 15/15/15 16/16/16 25/25/25
f 24/24/24 25/25/25 16/16/16
f 26/26/26 25/25/25 20/20/20
f 13/13/13 15/15/15 26/26/26
f 25/25/25 26/26/26 15/15/15
f 27/27/27 26/26/26 20/20/20
f 26/26/26 27/27/27 28/28/28
f 26/26/26 28/28/28 13/13/13
f 28/28/28 27/27/27 29/29/29
f 29/29/29 27/27/27 30/30/30
f 30/30/30 27/27/27 3/3/3
f 27/27/27 20/20/20 9/9/9
f 3/3/3 8/8/8 30/30/30
f 10/10/10 30/30/30 8/8/8
f 30/30/30 10/10/10 29/29/29
f 28/28/28 29/29/29 12/12/12
f 12/12/12 13/13/13 28/28/28
f 11/11/11 12/12/12 29/29/29
f 11/11/11 29/29/29 10/10/10
f 9/9/9 5/5/5 27/27/27
f 2/2/2 27/27/27 5/5/5
f 27/27/27 2/2/2 3/3/3
f 33/33/33 32/32/32 31/31/31
f 34/34/34 31/31/31 32/32/32
f 31/31/31 34/34/34 22/22/22
f 31/31/31 22/22/22 33/33/33
f 33/33/33 18/18/18 32/32/32
f 18/18/18 33/33/33 22/22/22
f 32/32/32 19/19/19 34/34/34
f 32/32/32 18/18/18 19/19/19
f 21/21/21 34/34/34 19/19/19
f 34/34/34 21/21/21 22/22/22
f 37/37/37 36/36/36 35/35/35
f 38/38/38 35/35/35 36/36/36
f 41/41/41 40/40/40 39/39/39
f 42/42/42 39/39/39 40/40/40
f 45/45/45 44/44/44 43/43/43
f 46/46/46 43/43/43 44/44/44
g Area_Common_Build_Arch_D_01_Col_1
f 49/49/49 48/48/48 47/47/47
f 50/50/50 47/47/47 48/48/48
f 53/53/53 52/52/52 51/51/51
f 54/54/54 51/51/51 52/52/52
f 57/57/57 56/56/56 55/55/55
f 58/58/58 55/55/55 56/56/56
