g Area_LY_Build_Common_Pillar_01_E_Col
v -1.007843 -0.875592 -1.040387
v 1.025206 -0.8755951 1.008653
v 1.025206 -0.875592 -1.040387
v -1.007843 -0.8755951 1.008653
v 0.912504 0.4080194 -0.9442735
v -0.9354783 0.4080194 -0.9442735
v 0.912504 0.4080151 0.9442735
v -0.9354783 0.4080151 0.9442735
v -0.6673657 0.59918 -0.6517082
v 0.6673656 0.6818849 -0.6517082
v -0.6673657 0.6994169 0.651709
v 0.6673656 0.8763153 0.651709
vn -0.5905127 -0.5429496 -0.5970767
vn 0.6012673 -0.5411131 0.5879407
vn 0.5997589 -0.5347947 -0.5952175
vn -0.5919279 -0.5494269 0.5897046
vn 0.6237807 0.4455414 -0.6421764
vn -0.6183 0.4783785 -0.6235856
vn 0.6581013 0.349467 0.666915
vn -0.6493188 0.4067789 0.6425855
vn -0.2339176 0.9344848 -0.2683667
vn 0.3099428 0.8929442 -0.3264753
vn -0.3649284 0.8989086 0.2424679
vn 0.3886275 0.8688058 0.3068306
g Area_LY_Build_Common_Pillar_01_E_Col_0
f 3/3/3 2/2/2 1/1/1
f 4/4/4 1/1/1 2/2/2
f 3/3/3 1/1/1 5/5/5
f 6/6/6 5/5/5 1/1/1
f 1/1/1 4/4/4 6/6/6
f 5/5/5 7/7/7 3/3/3
f 2/2/2 3/3/3 7/7/7
f 7/7/7 8/8/8 2/2/2
f 4/4/4 2/2/2 8/8/8
f 8/8/8 6/6/6 4/4/4
f 6/6/6 9/9/9 5/5/5
f 10/10/10 5/5/5 9/9/9
f 5/5/5 10/10/10 7/7/7
f 11/11/11 10/10/10 9/9/9
f 9/9/9 6/6/6 11/11/11
f 8/8/8 11/11/11 6/6/6
f 12/12/12 7/7/7 10/10/10
f 11/11/11 8/8/8 12/12/12
f 7/7/7 12/12/12 8/8/8
f 12/12/12 10/10/10 11/11/11
