g Area_Common_Build_ShortWall_B_01_Lod2
v 0.9909805 1.412734 -3.147891
v 0.8994831 1.661421 -3.121657
v 0.1000858 1.601834 -3.114268
v 1.975179 -3.293695 -3.223856
v 1.137118 1.32637 -3.042058
v 2.047189 -3.294145 -3.104777
v 1.231908 1.100235 -0.9582059
v 1.13239 1.630246 -0.9378152
v 1.025952 1.721354 -2.998589
v 2.104183 -3.294146 -2.396451
v 1.838398 -3.294146 0.7117381
v 1.20932 -0.2067495 2.440656
v 1.69775 -3.294146 2.60743
v 1.620481 -3.294146 2.73939
v 1.151354 -0.2307206 2.658623
v 0.8994831 1.661421 -3.121657
v -0.6143212 1.822888 -2.996996
v -0.5503015 1.713865 -3.050695
v 0.9149833 1.76094 -0.7801577
v -0.8367571 1.815084 -2.396495
v -0.8455283 1.759642 -0.780158
v -1.021603 1.630246 -0.9378152
v -1.077862 1.643548 -2.935091
v -1.039086 1.619316 -3.034092
v 0.9956766 -0.00708261 2.27719
v -0.9025576 -0.2085665 2.781123
v -0.7046494 0.1608993 2.354686
v 1.151354 -0.2307206 2.658623
v 1.20932 -0.2067495 2.440656
v -1.014125 -0.2067495 2.665046
v 0.9149833 1.76094 -0.7801577
v -0.8455283 1.759642 -0.780158
v 1.13239 1.630246 -0.9378152
v -1.021603 1.630246 -0.9378152
v -2.117142 -3.294145 -1.022034
v -1.077862 1.643548 -2.935091
v -1.021603 1.630246 -0.9378152
v -2.236897 -3.294146 -2.939482
v -1.014125 -0.2067495 2.665046
v -1.779187 -3.294146 2.844259
v -1.621633 -3.280673 2.894943
v -0.9025576 -0.2085665 2.781123
v -1.039086 1.619316 -3.034092
v -2.236897 -3.294146 -2.939482
v -2.090533 -3.294146 -3.044088
v -1.077862 1.643548 -2.935091
v -0.5503015 1.713865 -3.050695
v -0.1151939 -3.293921 -3.133972
v -0.9025576 -0.2085665 2.781123
v 1.620481 -3.294146 2.73939
v -1.621633 -3.280673 2.894943
v 1.151354 -0.2307206 2.658623
vt 0.07151239 0.5779333
vt 0.07299762 0.5816759
vt 0.08418228 0.5820715
vt 0.07234363 0.5345156
vt 0.06845519 0.5767793
vt 0.07116368 0.5344589
vt 0.0443822 0.5751978
vt 0.04394903 0.5799972
vt 0.06774941 0.5806885
vt 0.06284703 0.5345485
vt 0.02407927 0.5347059
vt 0.004386717 0.5645232
vt 0.002222957 0.5347117
vt 0.0001633058 0.5340736
vt 0.001765246 0.5652502
vt 0.07123975 0.5806475
vt 0.0676129 0.5955554
vt 0.06916739 0.595093
vt 0.04320739 0.5832851
vt 0.06003288 0.5969195
vt 0.0432519 0.5970405
vt 0.04392796 0.6001835
vt 0.06513072 0.5995741
vt 0.06541368 0.6006854
vt 0.07519943 0.5794576
vt 0.05484825 0.57368
vt 0.05699595 0.5790309
vt 0.07655168 0.574622
vt 0.07782529 0.5769552
vt 0.05343633 0.5747339
vt 0.07385118 0.6137191
vt 0.05657382 0.6135217
vt 0.07651725 0.6145925
vt 0.05423608 0.6143609
vt 0.07175608 0.5357262
vt 0.040981 0.5848194
vt 0.07294992 0.5849664
vt 0.04794859 0.5344483
vt 0.1129919 0.5659454
vt 0.1166522 0.5363345
vt 0.1172793 0.536411
vt 0.1142513 0.5660748
vt 0.09918179 0.5840544
vt 0.1078365 0.5344483
vt 0.1060463 0.5343234
vt 0.1008689 0.5848194
vt 0.09303728 0.5846229
vt 0.08919495 0.5344194
vt 0.1016583 0.5653186
vt 0.1255639 0.5370278
vt 0.09576076 0.5365045
vt 0.1200323 0.5655843
vn 0.3424182 0.1505304 -0.9274106
vn 0.207808 0.5127944 -0.8329812
vn -0.04276159 0.1713211 -0.9842868
vn 0.5137113 0.11336 -0.8504412
vn 0.8778722 0.2229945 -0.4238087
vn 0.9370756 0.1984651 -0.28723
vn 0.9829366 0.1816318 0.02907696
vn 0.8200271 0.5644603 0.0945522
vn 0.593529 0.7286618 -0.341724
vn 0.9799315 0.1988862 -0.01335833
vn 0.983621 0.1633717 0.07615451
vn 0.8497983 0.471909 0.2348291
vn 0.9415343 0.1648248 0.2938467
vn 0.5497459 0.1139333 0.8275257
vn 0.5122583 0.4791996 0.7127126
vn 0.207808 0.5127944 -0.8329812
vn -0.1230252 0.8464233 -0.5181048
vn -0.06148048 0.30714 -0.9496763
vn 0.3169649 0.9137527 0.254144
vn -0.3174666 0.9482635 0.003363698
vn -0.3678189 0.8925913 0.2607488
vn -0.8375763 0.5346472 0.1123311
vn -0.7680022 0.6056426 -0.2082538
vn -0.4988852 0.426904 -0.7542324
vn 0.2389881 0.8456185 0.4772985
vn -0.2867916 0.4531258 0.8440543
vn -0.1838538 0.8252063 0.5340713
vn 0.5122583 0.4791996 0.7127126
vn 0.8497983 0.471909 0.2348291
vn -0.7767951 0.4610028 0.4290289
vn 0.3169649 0.9137527 0.254144
vn -0.3678189 0.8925913 0.2607488
vn 0.8200271 0.5644603 0.0945522
vn -0.8375763 0.5346472 0.1123311
vn -0.9710361 0.2266549 0.07560735
vn -0.7680022 0.6056426 -0.2082538
vn -0.8375763 0.5346472 0.1123311
vn -0.8964034 0.2049349 -0.3930171
vn -0.7767951 0.4610028 0.4290289
vn -0.7950351 0.2296002 0.5614294
vn -0.1720575 0.09050111 0.9809209
vn -0.2867916 0.4531258 0.8440543
vn -0.4988852 0.426904 -0.7542324
vn -0.8964034 0.2049349 -0.3930171
vn -0.3603406 0.0767814 -0.9296555
vn -0.7680022 0.6056426 -0.2082538
vn -0.06148048 0.30714 -0.9496763
vn -0.04424244 0.005966156 -0.999003
vn -0.2867916 0.4531258 0.8440543
vn 0.5497459 0.1139333 0.8275257
vn -0.1720575 0.09050111 0.9809209
vn 0.5122583 0.4791996 0.7127126
g Area_Common_Build_ShortWall_B_01_Lod2_0
f 3/3/3 2/2/2 1/1/1
f 1/1/1 4/4/4 3/3/3
f 1/1/1 5/5/5 4/4/4
f 6/6/6 4/4/4 5/5/5
f 5/5/5 7/7/7 6/6/6
f 7/7/7 5/5/5 8/8/8
f 9/9/9 8/8/8 5/5/5
f 5/5/5 1/1/1 9/9/9
f 10/10/10 6/6/6 7/7/7
f 7/7/7 11/11/11 10/10/10
f 8/8/8 12/12/12 7/7/7
f 7/7/7 12/12/12 11/11/11
f 13/13/13 11/11/11 12/12/12
f 13/13/13 12/12/12 14/14/14
f 15/15/15 14/14/14 12/12/12
f 16/16/16 9/9/9 1/1/1
f 9/9/9 16/16/16 17/17/17
f 18/18/18 17/17/17 16/16/16
f 9/9/9 17/17/17 19/19/19
f 8/8/8 9/9/9 19/19/19
f 20/20/20 19/19/19 17/17/17
f 21/21/21 19/19/19 20/20/20
f 21/21/21 20/20/20 22/22/22
f 23/23/23 22/22/22 20/20/20
f 23/23/23 20/20/20 17/17/17
f 23/23/23 17/17/17 24/24/24
f 18/18/18 24/24/24 17/17/17
f 27/27/27 26/26/26 25/25/25
f 28/28/28 25/25/25 26/26/26
f 28/28/28 29/29/29 25/25/25
f 26/26/26 27/27/27 30/30/30
f 25/25/25 31/31/31 27/27/27
f 25/25/25 29/29/29 31/31/31
f 32/32/32 27/27/27 31/31/31
f 33/33/33 31/31/31 29/29/29
f 32/32/32 34/34/34 27/27/27
f 30/30/30 27/27/27 34/34/34
f 37/37/37 36/36/36 35/35/35
f 38/38/38 35/35/35 36/36/36
f 37/37/37 35/35/35 39/39/39
f 40/40/40 39/39/39 35/35/35
f 40/40/40 41/41/41 39/39/39
f 42/42/42 39/39/39 41/41/41
f 45/45/45 44/44/44 43/43/43
f 46/46/46 43/43/43 44/44/44
f 43/43/43 3/3/3 45/45/45
f 43/43/43 47/47/47 3/3/3
f 2/2/2 3/3/3 47/47/47
f 48/48/48 45/45/45 3/3/3
f 48/48/48 3/3/3 4/4/4
f 51/51/51 50/50/50 49/49/49
f 52/52/52 49/49/49 50/50/50
