g Area_LY_Build_Common_Pillar_01_B_Col
v 0.1849242 5.422445 0.6810347
v -0.6810342 6.347591 0.6810349
v 0.7428294 7.982072 0.811139
v -0.6810342 6.363251 0.2583216
v 0.6810342 5.980606 -0.02198648
v 0.1940314 6.513639 -0.6388022
v -0.6810342 6.870871 -0.102821
v -0.4861941 7.218367 -0.6388022
v 0.7428294 7.982072 -0.7689063
v 0.6810342 6.506523 -0.6388022
v 0.6810342 6.479373 -0.6388022
v 1.066208 8.951936 1.046324
v -1.066208 8.951936 1.046324
v -0.8775499 7.982072 0.811139
v -0.6810343 7.260244 -0.6388022
v 1.066208 8.951936 -1.025207
v -0.8775499 7.982072 -0.7689063
v -1.066208 8.951936 -1.025207
v 0.6810342 5.559104 0.2049473
v 0.6810342 5.380566 0.6810347
v 1.644247 10.1609 1.599053
v -1.644247 10.1609 1.599053
v 1.644247 10.1609 -1.59905
v -1.644247 10.1609 -1.59905
vn -0.4097476 -0.8356594 0.3657597
vn -0.7079775 -0.3534919 0.6114012
vn 0.669191 -0.2423462 0.7024613
vn -0.8044133 -0.4982691 -0.3234918
vn 0.613205 -0.5703643 -0.5465019
vn -0.2326236 -0.5147243 -0.825194
vn -0.8664687 -0.3298581 -0.374734
vn -0.1992088 -0.4045484 -0.8925561
vn 0.6621883 -0.2683972 -0.699621
vn 0.615587 -0.3712151 -0.6951633
vn 0 0 1
vn 0.6199159 -0.4867916 0.615417
vn -0.6231284 -0.4551201 0.6360635
vn -0.7041119 -0.2394749 0.6684895
vn -0.5973261 -0.4507626 -0.663336
vn 0.6175079 -0.496015 -0.6104533
vn -0.6908946 -0.3046725 -0.6556213
vn -0.6206474 -0.4654076 -0.631025
vn 0.4295916 -0.5967706 -0.6777284
vn 0.529523 -0.7207365 0.447375
vn 0.6622375 0.3605461 0.6568469
vn -0.6622375 0.3605461 0.6568469
vn 0.6608445 0.3574075 -0.6599579
vn -0.6608446 0.3574075 -0.6599578
g Area_LY_Build_Common_Pillar_01_B_Col_0
f 3/3/3 2/2/2 1/1/1
f 4/4/4 1/1/1 2/2/2
f 5/5/5 1/1/1 4/4/4
f 6/6/6 5/5/5 4/4/4
f 7/7/7 6/6/6 4/4/4
f 8/8/8 6/6/6 7/7/7
f 8/8/8 9/9/9 6/6/6
f 9/9/9 10/10/10 6/6/6
f 5/5/5 6/6/6 10/10/10
f 10/10/10 3/3/3 5/5/5
f 9/9/9 3/3/3 10/10/10
f 10/10/10 11/11/11 6/6/6
f 11/11/11 10/10/10 6/6/6
f 3/3/3 9/9/9 12/12/12
f 12/12/12 13/13/13 3/3/3
f 14/14/14 3/3/3 13/13/13
f 4/4/4 14/14/14 7/7/7
f 14/14/14 2/2/2 3/3/3
f 2/2/2 14/14/14 4/4/4
f 14/14/14 15/15/15 7/7/7
f 15/15/15 8/8/8 7/7/7
f 16/16/16 12/12/12 9/9/9
f 9/9/9 17/17/17 16/16/16
f 14/14/14 13/13/13 17/17/17
f 15/15/15 17/17/17 8/8/8
f 9/9/9 8/8/8 17/17/17
f 17/17/17 15/15/15 14/14/14
f 18/18/18 16/16/16 17/17/17
f 18/18/18 17/17/17 13/13/13
f 5/5/5 3/3/3 19/19/19
f 3/3/3 20/20/20 19/19/19
f 20/20/20 1/1/1 19/19/19
f 20/20/20 3/3/3 1/1/1
f 19/19/19 1/1/1 5/5/5
f 12/12/12 21/21/21 13/13/13
f 12/12/12 16/16/16 21/21/21
f 22/22/22 13/13/13 21/21/21
f 13/13/13 22/22/22 18/18/18
f 21/21/21 23/23/23 22/22/22
f 23/23/23 21/21/21 16/16/16
f 24/24/24 22/22/22 23/23/23
f 23/23/23 16/16/16 24/24/24
f 18/18/18 24/24/24 16/16/16
f 24/24/24 18/18/18 22/22/22
