g Area_Common_Build_Chapiter_A_01_Col
v 2.358113 3.143089 2.03794
v 2.358109 3.575545 -2.037923
v 2.358109 3.143094 -2.037922
v 2.358113 3.575543 2.037938
v 1.716589 4.145929 2.040267
v -2.029305 3.575543 2.366739
v -1.716581 4.145931 2.040269
v 2.029316 3.575543 2.366735
v -2.029305 3.143091 2.36674
v -2.358101 3.575544 2.037943
v -2.358102 3.143091 2.037945
v -2.04136 4.14594 -1.715471
v -2.041358 4.145936 1.715493
v -2.358105 3.575551 -2.037919
v -2.02931 3.143096 -2.366715
v -2.358106 3.143096 -2.037918
v -2.02931 3.575551 -2.366715
v -1.343684 1.437399 -1.348954
v -1.343682 1.437396 1.348979
v 2.029317 3.143089 2.366737
v 1.343692 1.437394 1.348977
v 1.343689 1.437398 -1.348956
v 2.029312 3.143094 -2.366718
v -1.201238 0.3504324 1.400988
v 1.201248 0.3504306 1.400987
v -1.395871 0.350435 -1.206333
v -1.395869 0.3504323 1.20636
v 1.201246 0.3504339 -1.400965
v -1.201241 0.3504349 -1.400963
v -1.395869 0.05211929 1.20636
v -1.201238 0.05211945 1.400988
v -1.201241 0.05212189 -1.400963
v -1.395871 0.05212204 -1.206333
v 1.201248 0.05211761 1.400987
v 1.395876 0.05212112 -1.206335
v 1.201246 0.05212097 -1.400965
v 1.395878 0.05211746 1.206357
v 1.395876 0.3504341 -1.206335
v 1.395878 0.3504303 1.206357
v 1.343689 1.437398 -1.348956
v 1.343692 1.437394 1.348977
v 2.358109 3.143094 -2.037922
v 2.358113 3.143089 2.03794
v -1.201241 0.3504349 -1.400963
v 1.201246 0.05212097 -1.400965
v -1.201241 0.05212189 -1.400963
v 2.029317 3.143089 2.366737
v -2.029305 3.575543 2.366739
v 2.029316 3.575543 2.366735
v -2.029305 3.143091 2.36674
v 2.041365 4.14593 1.715491
v 2.358113 3.575543 2.037938
v 1.716589 4.145929 2.040267
v -2.041358 4.145936 1.715493
v -1.716581 4.145931 2.040269
v -2.358101 3.575544 2.037943
v -2.358106 3.143096 -2.037918
v -2.358102 3.143091 2.037945
v -2.358105 3.575551 -2.037919
v -2.02931 3.575551 -2.366715
v -2.04136 4.14594 -1.715471
v -1.716584 4.14594 -2.040247
v -2.02931 3.143096 -2.366715
v 2.029311 3.575543 -2.366719
v 2.029312 3.143094 -2.366718
v 2.041363 4.145933 -1.715472
v 1.716587 4.145936 -2.040248
v 2.358109 3.575545 -2.037923
v 2.029317 3.143089 2.366737
v 2.358113 3.575543 2.037938
v 2.358113 3.143089 2.03794
v 2.029316 3.575543 2.366735
v 2.041365 4.14593 1.715491
v 2.358109 3.575545 -2.037923
v 2.041363 4.145933 -1.715472
v 2.029312 3.143094 -2.366718
v 2.029311 3.575543 -2.366719
v 2.358109 3.143094 -2.037922
v -1.716584 4.14594 -2.040247
v 2.029311 3.575543 -2.366719
v 1.716587 4.145936 -2.040248
v -1.716581 4.145931 2.040269
v 2.670288E-06 4.145935 1.060841E-05
v 1.716589 4.145929 2.040267
v 2.041365 4.14593 1.715491
v 2.041363 4.145933 -1.715472
v 1.716587 4.145936 -2.040248
v -1.716584 4.14594 -2.040247
v -2.04136 4.14594 -1.715471
v -2.041358 4.145936 1.715493
v 2.358113 3.143089 2.03794
v 1.343692 1.437394 1.348977
v 2.029317 3.143089 2.366737
v -2.029305 3.143091 2.36674
v -1.343682 1.437396 1.348979
v -2.358102 3.143091 2.037945
v -2.358106 3.143096 -2.037918
v -1.343684 1.437399 -1.348954
v -2.02931 3.143096 -2.366715
v 2.029312 3.143094 -2.366718
v 1.343689 1.437398 -1.348956
v 2.358109 3.143094 -2.037922
v 1.343692 1.437394 1.348977
v 1.395878 0.3504303 1.206357
v 1.201248 0.3504306 1.400987
v -1.343682 1.437396 1.348979
v -1.201238 0.3504324 1.400988
v -1.395869 0.3504323 1.20636
v -1.343684 1.437399 -1.348954
v -1.395871 0.350435 -1.206333
v -1.201241 0.3504349 -1.400963
v 1.343689 1.437398 -1.348956
v 1.201246 0.3504339 -1.400965
v 1.395876 0.3504341 -1.206335
v -1.201238 0.05211945 1.400988
v 1.201248 0.05211761 1.400987
v -1.201238 0.3504324 1.400988
v 1.201248 0.05211761 1.400987
v 1.395878 0.3504303 1.206357
v 1.395878 0.05211746 1.206357
v 1.201248 0.3504306 1.400987
v -1.395871 0.05212204 -1.206333
v -1.395869 0.3504323 1.20636
v -1.395869 0.05211929 1.20636
v -1.395871 0.350435 -1.206333
v 1.395876 0.05212112 -1.206335
v 1.201246 0.3504339 -1.400965
v 1.201246 0.05212097 -1.400965
v 1.395876 0.3504341 -1.206335
vn 1 1.669227E-06 -9.460008E-07
vn 1 4.478197E-07 -1.075594E-06
vn 1 3.528427E-07 -1.085671E-06
vn 1 1.764204E-06 -9.359235E-07
vn 7.665894E-07 0.4967512 0.8678929
vn -0.4569299 0.2302384 0.8591888
vn 9.374384E-07 0.4967504 0.8678934
vn 7.504739E-07 0.4967514 0.8678929
vn -0.4403054 -0.2515502 0.8618895
vn -0.8601582 0.2229183 0.4587322
vn -0.8620364 -0.2506939 0.4405063
vn -0.8742474 0.4854808 1.564936E-06
vn -0.8742487 0.4854783 1.071123E-06
vn -0.8601594 0.2229181 -0.4587303
vn -0.4403071 -0.2515513 -0.8618884
vn -0.8620373 -0.2506962 -0.4405035
vn -0.4569299 0.2302375 -0.859189
vn -0.6530502 -0.3844685 -0.652464
vn -0.6530497 -0.3844683 0.6524648
vn 2.965031E-07 -0.5124001 0.8587469
vn 5.193397E-07 -0.2828586 0.9591616
vn -8.604452E-07 -0.2828588 -0.9591616
vn -8.61004E-07 -0.5124002 -0.8587468
vn -0.3674939 0.02689723 0.9296368
vn 6.708249E-07 0.04779357 0.9988573
vn -0.9296407 0.02699002 -0.3674774
vn -0.929639 0.02699003 0.3674816
vn -7.544199E-07 0.04779311 -0.9988573
vn -0.3674977 0.02689723 -0.9296354
vn -0.3922312 -0.8320501 0.3922338
vn -0.3922305 -0.83205 0.3922346
vn -0.3922335 -0.8320498 -0.3922321
vn -0.3922343 -0.8320495 -0.3922321
vn -1.080203E-06 -1 -1.333037E-06
vn 0.5547003 -0.8320503 -1.008825E-06
vn -3.810741E-07 -1 1.165065E-06
vn 0.5546986 -0.8320514 -1.859313E-06
vn 0.9988495 0.0479561 -9.980853E-07
vn 0.9988494 0.04795616 -9.627281E-07
vn 0.9593727 -0.2821419 -1.374638E-06
vn 0.9593728 -0.2821415 -1.407077E-06
vn 0.8594863 -0.5111586 -1.616228E-06
vn 0.8594863 -0.5111588 -1.679434E-06
vn -6.986373E-07 0 -1
vn -6.986373E-07 0 -1
vn -6.986373E-07 0 -1
vn 8.545452E-07 2.727357E-06 1
vn -0.3129964 0.3507545 0.8826122
vn 0.3129981 0.3507575 0.8826105
vn 7.143248E-07 1.411376E-06 1
vn 0.5542034 0.6210603 0.5542046
vn 0.5542045 0.6210597 0.5542042
vn 0.5542027 0.6210606 0.5542048
vn -0.5542023 0.6210575 0.5542088
vn -0.5542008 0.6210583 0.5542095
vn -0.8810881 0.3528796 0.3148964
vn -1 1.764209E-06 1.010801E-06
vn -1 1.764217E-06 1.0108E-06
vn -0.8810886 0.3528807 -0.3148941
vn -0.3130001 0.3507552 -0.8826109
vn -0.554206 0.6210575 -0.5542051
vn -0.554206 0.6210575 -0.5542052
vn -9.647925E-07 -1.192229E-07 -1
vn 0.3129971 0.3507538 -0.8826123
vn -7.895163E-07 -1.764232E-06 -1
vn 0.5542064 0.6210575 -0.5542047
vn 0.5542091 0.6210561 -0.5542036
vn 0.5542017 0.6210598 -0.5542067
vn 0.7071071 3.991946E-06 0.7071064
vn 0.860158 0.2229227 0.4587307
vn 0.7071071 3.991946E-06 0.7071064
vn 0.7071071 3.991947E-06 0.7071065
vn 0.874245 0.4854851 -5.619713E-07
vn 0.8601579 0.2229183 -0.4587328
vn 0.8742464 0.4854825 0
vn 0.7071055 -4.644633E-07 -0.707108
vn 0.707105 2.494934E-07 -0.7071084
vn 0.7071061 -1.247497E-06 -0.7071074
vn 0 0.496748 -0.8678948
vn 2.803559E-07 0.4967492 -0.8678941
vn 3.260931E-07 0.4967495 -0.8678939
vn 4.099782E-06 1 5.019936E-06
vn 1.421045E-06 1 1.744689E-06
vn 0 1 2.910245E-06
vn 2.790487E-07 1 2.425318E-06
vn 3.120379E-06 1 2.82366E-06
vn 2.998108E-06 1 3.045998E-06
vn 1.314037E-06 1 1.437235E-06
vn 1.423138E-06 1 1.330734E-06
vn 4.355655E-06 1 4.649384E-06
vn 0.5776112 -0.5768288 0.5776105
vn 0.5776112 -0.5768288 0.5776105
vn 0.5776112 -0.5768288 0.5776105
vn -0.5776091 -0.5768285 0.5776129
vn -0.5776092 -0.5768284 0.5776128
vn -0.5776092 -0.5768285 0.5776129
vn -0.5776115 -0.5768284 -0.5776105
vn -0.5776115 -0.5768285 -0.5776105
vn -0.5776115 -0.5768284 -0.5776105
vn 0.5776105 -0.5768284 -0.5776116
vn 0.5776104 -0.5768285 -0.5776116
vn 0.5776104 -0.5768284 -0.5776116
vn 0.7058867 -0.05872883 0.7058859
vn 0.7058867 -0.05872883 0.7058859
vn 0.7058867 -0.05872883 0.705886
vn -0.7058832 -0.05872885 0.7058895
vn -0.7058832 -0.05872885 0.7058895
vn -0.7058832 -0.05872885 0.7058894
vn -0.7058877 -0.05872918 -0.7058848
vn -0.7058877 -0.05872918 -0.7058849
vn -0.7058878 -0.05872918 -0.7058848
vn 0.7058858 -0.05872919 -0.7058868
vn 0.7058858 -0.05872919 -0.7058868
vn 0.7058858 -0.05872919 -0.7058868
vn 6.351249E-07 0 1
vn 6.351249E-07 0 1
vn 6.351249E-07 0 1
vn 0.7071072 0 0.7071064
vn 0.7071072 0 0.7071063
vn 0.7071072 0 0.7071064
vn 0.7071072 0 0.7071064
vn -1 0 8.854136E-07
vn -1 0 8.854136E-07
vn -1 0 8.854136E-07
vn -1 0 8.854136E-07
vn 0.7071062 0 -0.7071073
vn 0.7071062 0 -0.7071073
vn 0.7071062 0 -0.7071073
vn 0.7071062 0 -0.7071073
g Area_Common_Build_Chapiter_A_01_Col_0
f 3/3/3 2/2/2 1/1/1
f 4/4/4 1/1/1 2/2/2
f 7/7/7 6/6/6 5/5/5
f 8/8/8 5/5/5 6/6/6
f 6/6/6 10/10/10 9/9/9
f 11/11/11 9/9/9 10/10/10
f 13/13/13 12/12/12 10/10/10
f 14/14/14 10/10/10 12/12/12
f 16/16/16 14/14/14 15/15/15
f 17/17/17 15/15/15 14/14/14
f 16/16/16 18/18/18 11/11/11
f 19/19/19 11/11/11 18/18/18
f 9/9/9 19/19/19 20/20/20
f 21/21/21 20/20/20 19/19/19
f 18/18/18 15/15/15 22/22/22
f 23/23/23 22/22/22 15/15/15
f 19/19/19 24/24/24 21/21/21
f 25/25/25 21/21/21 24/24/24
f 18/18/18 26/26/26 19/19/19
f 27/27/27 19/19/19 26/26/26
f 22/22/22 28/28/28 18/18/18
f 29/29/29 18/18/18 28/28/28
f 27/27/27 30/30/30 24/24/24
f 31/31/31 24/24/24 30/30/30
f 29/29/29 32/32/32 26/26/26
f 33/33/33 26/26/26 32/32/32
f 30/30/30 33/33/33 32/32/32
f 31/31/31 30/30/30 34/34/34
f 34/34/34 30/30/30 35/35/35
f 35/35/35 30/30/30 32/32/32
f 36/36/36 35/35/35 32/32/32
f 37/37/37 34/34/34 35/35/35
f 35/35/35 38/38/38 37/37/37
f 39/39/39 37/37/37 38/38/38
f 38/38/38 40/40/40 39/39/39
f 41/41/41 39/39/39 40/40/40
f 40/40/40 42/42/42 41/41/41
f 43/43/43 41/41/41 42/42/42
f 28/28/28 45/45/45 44/44/44
f 46/46/46 44/44/44 45/45/45
f 49/49/49 48/48/48 47/47/47
f 50/50/50 47/47/47 48/48/48
f 52/52/52 51/51/51 49/49/49
f 53/53/53 49/49/49 51/51/51
f 55/55/55 54/54/54 48/48/48
f 56/56/56 48/48/48 54/54/54
f 58/58/58 56/56/56 57/57/57
f 59/59/59 57/57/57 56/56/56
f 59/59/59 61/61/61 60/60/60
f 62/62/62 60/60/60 61/61/61
f 60/60/60 64/64/64 63/63/63
f 65/65/65 63/63/63 64/64/64
f 67/67/67 66/66/66 64/64/64
f 68/68/68 64/64/64 66/66/66
f 71/71/71 70/70/70 69/69/69
f 72/72/72 69/69/69 70/70/70
f 70/70/70 74/74/74 73/73/73
f 75/75/75 73/73/73 74/74/74
f 77/77/77 74/74/74 76/76/76
f 78/78/78 76/76/76 74/74/74
f 81/81/81 80/80/80 79/79/79
f 17/17/17 79/79/79 80/80/80
f 84/84/84 83/83/83 82/82/82
f 85/85/85 83/83/83 84/84/84
f 86/86/86 83/83/83 85/85/85
f 87/87/87 83/83/83 86/86/86
f 88/88/88 83/83/83 87/87/87
f 89/89/89 83/83/83 88/88/88
f 90/90/90 83/83/83 89/89/89
f 82/82/82 83/83/83 90/90/90
f 93/93/93 92/92/92 91/91/91
f 96/96/96 95/95/95 94/94/94
f 99/99/99 98/98/98 97/97/97
f 102/102/102 101/101/101 100/100/100
f 105/105/105 104/104/104 103/103/103
f 108/108/108 107/107/107 106/106/106
f 111/111/111 110/110/110 109/109/109
f 114/114/114 113/113/113 112/112/112
f 116/116/116 25/25/25 115/115/115
f 117/117/117 115/115/115 25/25/25
f 120/120/120 119/119/119 118/118/118
f 121/121/121 118/118/118 119/119/119
f 124/124/124 123/123/123 122/122/122
f 125/125/125 122/122/122 123/123/123
f 128/128/128 127/127/127 126/126/126
f 129/129/129 126/126/126 127/127/127
