g Area_Common_Build_Hili_Sope_02_Col
v -0.6554436 -0.1174899 0.9845664
v 0.8785778 -0.1174898 -0.6164069
v -0.6554436 -0.1174896 -0.6164069
v 0.8785779 -0.1174897 0.9845663
v 0.8785779 0.1405547 0.9845664
v -0.6554436 0.1405544 0.9845664
v 0.8785779 0.1405548 -0.6164071
v -0.6554436 0.1405546 -0.6164071
v -0.8785774 0.8950539 -0.4595391
v -0.6606296 0.03260893 -0.5770786
v -0.8753556 0.9141645 -0.6031619
v -0.6614552 0.015063 -0.482513
v -0.6254971 0.948954 -0.5959882
v -0.6299379 0.929723 -0.4502159
v -0.03415466 0.07602628 -0.463019
v -0.0328466 0.09332975 -0.5453124
v 0.65189 0.564833 -0.5151383
v 0.6170559 -0.1890781 -0.632679
v 0.6586102 0.5828842 -0.5999811
v 0.6124311 -0.2060134 -0.5381138
v 0.7665841 -0.1986835 -0.5301347
v 0.7715029 -0.1820651 -0.6124279
v 0.8475876 0.5740659 -0.5928128
v 0.8399574 0.5561081 -0.5058188
vn -0.5773503 -0.5773503 0.5773502
vn 0.5773501 -0.5773506 -0.5773502
vn -0.5773503 -0.5773504 -0.5773501
vn 0.5773503 -0.5773503 0.5773502
vn 0.5773502 0.5773503 0.5773503
vn -0.5773502 0.5773502 0.5773503
vn 0.5773503 0.5773501 -0.5773504
vn -0.5773503 0.5773502 -0.5773504
vn -0.7009932 0.4055091 0.5866609
vn -0.4581607 -0.6106959 -0.6458631
vn -0.6549568 0.4999983 -0.5665979
vn -0.4725477 -0.7221128 0.5052244
vn 0.3392294 0.7561926 -0.5595499
vn 0.2963743 0.6771801 0.6734904
vn 0.732286 -0.4323347 0.5261596
vn 0.7950097 -0.2639742 -0.5461476
vn -0.5970327 0.5301464 0.6020771
vn -0.5401808 -0.5069842 -0.6716931
vn -0.5063763 0.6795634 -0.5308264
vn -0.5969514 -0.6393105 0.4846968
vn 0.5252964 -0.6494987 0.549741
vn 0.621577 -0.5230089 -0.5831839
vn 0.6436961 0.6026897 -0.4716147
vn 0.5857049 0.459163 0.6679215
g Area_Common_Build_Hili_Sope_02_Col_0
f 3/3/3 2/2/2 1/1/1
f 4/4/4 1/1/1 2/2/2
f 4/4/4 5/5/5 1/1/1
f 6/6/6 1/1/1 5/5/5
f 1/1/1 6/6/6 3/3/3
f 5/5/5 7/7/7 6/6/6
f 2/2/2 7/7/7 4/4/4
f 5/5/5 4/4/4 7/7/7
f 8/8/8 6/6/6 7/7/7
f 3/3/3 8/8/8 2/2/2
f 7/7/7 2/2/2 8/8/8
f 8/8/8 3/3/3 6/6/6
f 11/11/11 10/10/10 9/9/9
f 12/12/12 9/9/9 10/10/10
f 11/11/11 9/9/9 13/13/13
f 11/11/11 13/13/13 10/10/10
f 14/14/14 13/13/13 9/9/9
f 12/12/12 10/10/10 15/15/15
f 12/12/12 15/15/15 9/9/9
f 14/14/14 9/9/9 15/15/15
f 14/14/14 15/15/15 13/13/13
f 16/16/16 15/15/15 10/10/10
f 16/16/16 10/10/10 13/13/13
f 16/16/16 13/13/13 15/15/15
f 19/19/19 18/18/18 17/17/17
f 20/20/20 17/17/17 18/18/18
f 20/20/20 18/18/18 21/21/21
f 22/22/22 21/21/21 18/18/18
f 19/19/19 17/17/17 23/23/23
f 19/19/19 23/23/23 18/18/18
f 22/22/22 18/18/18 23/23/23
f 24/24/24 23/23/23 17/17/17
f 21/21/21 22/22/22 24/24/24
f 23/23/23 24/24/24 22/22/22
f 17/17/17 20/20/20 24/24/24
f 21/21/21 24/24/24 20/20/20
