g Area_Common_Build_Hili_House_16_Lod2
v 0.671347 0.5122143 0.3941483
v 0.5735201 -0.0581495 -0.3311223
v 0.6103273 -0.0581495 0.3523732
v 0.641513 0.5122143 -0.3703781
v -3.33786E-07 -0.0581495 0.6622441
v -3.147125E-07 0.5122143 0.7407556
v -0.6103276 -0.0581495 0.3523726
v -0.6948565 0.5122143 0.3941477
v -0.5735204 -0.0581495 -0.331122
v -0.644815 0.5122143 -0.3703777
v -0.6055974 0.1036641 0.3496417
v -0.644815 0.5122143 -0.3703777
v -0.5690754 0.1036641 -0.3285558
v -0.6948565 0.5122143 0.3941477
v -2.861023E-07 0.1036641 0.6571116
v -3.147125E-07 0.5122143 0.7407556
v 0.6055972 0.1036641 0.3496422
v 0.671347 0.5122143 0.3941483
v 0.5690752 0.1036641 -0.3285561
v 0.641513 0.5122143 -0.3703781
v -3.290176E-07 -0.0581495 -0.7047455
v 0.641513 0.5122143 -0.3703781
v -3.862381E-07 0.5122143 -0.7882958
v 0.5735201 -0.0581495 -0.3311223
v -0.5735204 -0.0581495 -0.331122
v -0.644815 0.5122143 -0.3703777
v -3.71933E-07 0.1036641 -0.6992836
v -0.644815 0.5122143 -0.3703777
v -3.862381E-07 0.5122143 -0.7882958
v -0.5690754 0.1036641 -0.3285558
v 0.5690752 0.1036641 -0.3285561
v 0.641513 0.5122143 -0.3703781
v 0.5690752 0.1036642 -0.3285561
v -0.5690754 0.1036642 -0.3285557
v -3.71933E-07 0.1036642 -0.6992836
v -0.5690754 0.1036642 -0.3285557
v 0.5690752 0.1036642 -0.3285561
v -0.6055974 0.1036641 0.3496417
v -2.861023E-07 0.1036641 0.6571116
v 0.6055972 0.1036641 0.3496422
v -0.8059775 0.6185659 0.1698576
v -1.006387 0.4205006 0.01597702
v -0.9456472 0.7837883 0.04229815
v -0.6453454 0.5635514 6.192686E-07
v -0.666196 0.3684452 -2.814058E-05
v -0.7599763 0.3829674 0.1437587
v -0.7976012 0.308475 -0.1286018
v -1.036364 0.6647056 -0.0637612
v -0.8653367 0.6920671 -0.1633541
v -0.7976012 0.308475 -0.1286018
v -0.6453454 0.5635514 6.192686E-07
v -0.666196 0.3684452 -2.814058E-05
v -0.9008631 0.6557476 -0.1267439
v -0.6448845 0.9850807 -0.03702452
v -0.7287677 1.14991 -0.0309991
v -0.7398722 0.5786995 -0.03049633
v -0.9501204 0.7313432 -0.0155235
v -0.8850404 0.6557476 0.09219218
v -0.6448845 0.9850807 -0.03702452
v -0.7398722 0.5786995 -0.03049633
v 0.1698577 0.618566 0.8059775
v 0.01597708 0.4205006 1.006387
v 0.04229822 0.7837884 0.9456472
v 6.721111E-07 0.5635514 0.6453454
v -2.809535E-05 0.3684453 0.666196
v 0.1437588 0.3829674 0.7599763
v -0.1286017 0.308475 0.7976012
v -0.06376113 0.6647056 1.036364
v -0.163354 0.6920671 0.8653367
v -0.1286017 0.308475 0.7976012
v 6.721111E-07 0.5635514 0.6453454
v -2.809535E-05 0.3684453 0.666196
v -0.1267438 0.6557477 0.9008631
v -0.03702445 0.9850807 0.6448845
v -0.03099902 1.14991 0.7287677
v -0.03049627 0.5786995 0.7398722
v -0.01552343 0.7313433 0.9501204
v 0.09219225 0.6557477 0.8850404
v -0.03702445 0.9850807 0.6448845
v -0.03049627 0.5786995 0.7398722
v 0.8059775 0.618566 -0.1698577
v 1.006387 0.4205006 -0.01597715
v 0.9456472 0.7837883 -0.0422983
v 0.6453454 0.5635514 -7.249536E-07
v 0.666196 0.3684452 2.805013E-05
v 0.7599763 0.3829673 -0.1437588
v 0.7976012 0.308475 0.1286017
v 1.036364 0.6647056 0.06376106
v 0.8653367 0.6920671 0.1633539
v 0.7976012 0.308475 0.1286017
v 0.6453454 0.5635514 -7.249536E-07
v 0.666196 0.3684452 2.805013E-05
v 0.9008631 0.6557477 0.1267437
v 0.6448845 0.9850807 0.03702438
v 0.7287677 1.14991 0.03099894
v 0.7398722 0.5786995 0.03049621
v 0.9501204 0.7313432 0.01552336
v 0.8850404 0.6557476 -0.09219231
v 0.6448845 0.9850807 0.03702438
v 0.7398722 0.5786995 0.03049621
v -0.1698576 0.6185659 -0.8059775
v -0.01597705 0.4205005 -1.006387
v -0.04229819 0.7837882 -0.9456474
v -6.515979E-07 0.5635513 -0.6453454
v 2.811653E-05 0.3684452 -0.666196
v -0.1437588 0.3829673 -0.7599763
v 0.1286017 0.308475 -0.7976013
v 0.06376116 0.6647056 -1.036364
v 0.163354 0.6920671 -0.8653367
v 0.1286017 0.308475 -0.7976013
v -6.515979E-07 0.5635513 -0.6453454
v 2.811653E-05 0.3684452 -0.666196
v 0.1267438 0.6557475 -0.9008631
v 0.03702447 0.9850807 -0.6448845
v 0.03099904 1.14991 -0.7287677
v 0.03049629 0.5786994 -0.7398722
v 0.01552346 0.7313432 -0.9501205
v -0.09219222 0.6557475 -0.8850404
v 0.03702447 0.9850807 -0.6448845
v 0.03049629 0.5786994 -0.7398722
vt 0.1152378 0.01171759
vt 0.1242157 0.000391472
vt 0.1152378 0.000391472
vt 0.1242157 0.01171759
vt 0.09672565 0.000391472
vt 0.09672565 0.01171759
vt 0.07819855 0.000391472
vt 0.07819855 0.01171759
vt 0.06917423 0.000391472
vt 0.06917423 0.01171759
vt 0.07819855 0.02384177
vt 0.06917423 0.01707176
vt 0.06917423 0.02384177
vt 0.07819855 0.01707176
vt 0.09672565 0.02384177
vt 0.09672565 0.01707176
vt 0.1152378 0.02384177
vt 0.1152378 0.01707176
vt 0.1242157 0.02384177
vt 0.1242157 0.01707176
vt 0.0967306 0.000391472
vt 0.115175 0.01171759
vt 0.0967306 0.01171759
vt 0.115175 0.000391472
vt 0.07825097 0.000391472
vt 0.07825097 0.01171759
vt 0.0967306 0.02384177
vt 0.07825097 0.01707176
vt 0.0967306 0.01707176
vt 0.07825097 0.02384177
vt 0.115175 0.02384177
vt 0.115175 0.01707176
vt 0.07178514 0.03931474
vt 0.08218627 0.03876505
vt 0.07693726 0.04267105
vt 0.08218627 0.03876505
vt 0.07178514 0.03931474
vt 0.08242001 0.03950565
vt 0.07693725 0.04228926
vt 0.07145447 0.03950565
vt 0.1031678 0.03628154
vt 0.1105775 0.02918256
vt 0.1106527 0.04224942
vt 0.09720502 0.03406424
vt 0.100146 0.02783457
vt 0.1026597 0.0294145
vt 0.1051981 0.024633
vt 0.1115263 0.03710352
vt 0.1151655 0.03842339
vt 0.1159771 0.02561628
vt 0.1239805 0.0338797
vt 0.1209644 0.02769125
vt 0.09284025 0.0258991
vt 0.09468649 0.03860926
vt 0.09042294 0.04255329
vt 0.09546454 0.03261475
vt 0.08967713 0.02764142
vt 0.086382 0.02617094
vt 0.0865894 0.03251625
vt 0.0847458 0.03301868
vt 0.1031678 0.03628154
vt 0.1105775 0.02918256
vt 0.1106527 0.04224942
vt 0.09720502 0.03406424
vt 0.100146 0.02783457
vt 0.1026597 0.0294145
vt 0.1051981 0.024633
vt 0.1115263 0.03710352
vt 0.1151655 0.03842339
vt 0.1159771 0.02561628
vt 0.1239805 0.0338797
vt 0.1209644 0.02769125
vt 0.09284025 0.0258991
vt 0.09468649 0.03860926
vt 0.09042294 0.04255329
vt 0.09546454 0.03261475
vt 0.08967713 0.02764142
vt 0.086382 0.02617094
vt 0.0865894 0.03251625
vt 0.0847458 0.03301868
vt 0.1031678 0.03628154
vt 0.1105775 0.02918256
vt 0.1106527 0.04224942
vt 0.09720502 0.03406424
vt 0.100146 0.02783457
vt 0.1026597 0.0294145
vt 0.1051981 0.024633
vt 0.1115263 0.03710352
vt 0.1151655 0.03842339
vt 0.1159771 0.02561628
vt 0.1239805 0.0338797
vt 0.1209644 0.02769125
vt 0.09284025 0.0258991
vt 0.09468649 0.03860926
vt 0.09042294 0.04255329
vt 0.09546454 0.03261475
vt 0.08967713 0.02764142
vt 0.086382 0.02617094
vt 0.0865894 0.03251625
vt 0.0847458 0.03301868
vt 0.1031678 0.03628154
vt 0.1105775 0.02918256
vt 0.1106527 0.04224942
vt 0.09720502 0.03406424
vt 0.100146 0.02783457
vt 0.1026597 0.0294145
vt 0.1051981 0.024633
vt 0.1115263 0.03710352
vt 0.1151655 0.03842339
vt 0.1159771 0.02561628
vt 0.1239805 0.0338797
vt 0.1209644 0.02769125
vt 0.09284025 0.0258991
vt 0.09468649 0.03860926
vt 0.09042294 0.04255329
vt 0.09546454 0.03261475
vt 0.08967713 0.02764142
vt 0.086382 0.02617094
vt 0.0865894 0.03251625
vt 0.0847458 0.03301868
vn 0.8556424 -0.1349407 0.499667
vn 0.8607465 -0.1319277 -0.4916408
vn 0.8606942 -0.1281691 0.4927253
vn 0.8614405 -0.1363624 -0.4892091
vn 0.002096931 -0.1343383 0.9909333
vn 0.004784898 -0.1384386 0.9903594
vn -0.8516765 -0.1604445 0.4989035
vn -0.856254 -0.1591956 0.4914121
vn -0.8543969 -0.1439556 -0.4992822
vn -0.8544036 -0.1412159 -0.5000526
vn 0.8415559 0.2330404 -0.4873149
vn 0.8460362 0.2099962 0.4900247
vn 0.8466317 0.2071357 0.4902139
vn 0.8460387 0.234541 -0.4787578
vn -0.002604941 0.2027604 -0.9792249
vn -0.004453503 0.1984613 -0.9800986
vn -0.8536356 0.1924037 -0.4840321
vn -0.8475596 0.195221 -0.493489
vn -0.8519239 0.1959899 0.4856064
vn -0.8518348 0.2005685 0.4838902
vn -2.793593E-07 -0.1449392 -0.9894406
vn 0.8614405 -0.1363624 -0.4892091
vn 0.000509001 -0.1456662 -0.9893337
vn 0.8607465 -0.1319277 -0.4916408
vn -0.8543969 -0.1439556 -0.4992822
vn -0.8544036 -0.1412159 -0.5000526
vn -0.0008775588 0.2136403 0.9769121
vn 0.8460362 0.2099962 0.4900247
vn -0.001069071 0.2128793 0.977078
vn 0.8466317 0.2071357 0.4902139
vn -0.8519239 0.1959899 0.4856064
vn -0.8518348 0.2005685 0.4838902
vn 0 1 1.200587E-07
vn 0 1 1.203532E-07
vn 0 1 1.028975E-07
vn 0 1 1.203532E-07
vn 0 1 1.200587E-07
vn 0 1 1.259746E-07
vn 0 1 1.256801E-07
vn 0 1 1.264907E-07
vn 0.1560521 0.3422034 0.9265769
vn -0.8653359 -0.4868864 0.1188922
vn -0.2867951 0.8940542 0.3441157
vn 0.9587795 0.2814946 -0.0387654
vn 0.8529497 -0.5219741 0.004445568
vn 0.244233 -0.5279297 0.8134128
vn 0.04771652 -0.7690253 -0.637435
vn -0.9260765 0.2010395 -0.3193204
vn 0.08931553 0.4954249 -0.8640468
vn 0.04771652 -0.7690253 -0.637435
vn 0.9587795 0.2814946 -0.0387654
vn 0.8529497 -0.5219741 0.004445568
vn -0.04716347 0.1263866 -0.9908592
vn 0.9655963 0.2493369 -0.07385767
vn 0.1042811 0.9944982 -0.009942591
vn 0.9704884 -0.2280992 -0.07825007
vn -0.8820584 0.4683548 0.05115353
vn 0.09770897 0.1294839 0.9867557
vn 0.9655963 0.2493369 -0.07385767
vn 0.9704884 -0.2280992 -0.07825007
vn 0.926577 0.3422031 -0.1560519
vn 0.1188923 -0.4868864 0.8653359
vn 0.3441156 0.8940544 0.286795
vn -0.03876536 0.2814945 -0.9587795
vn 0.004445644 -0.5219741 -0.8529497
vn 0.8134128 -0.5279298 -0.244233
vn -0.6374348 -0.7690254 -0.04771667
vn -0.3193202 0.2010394 0.9260765
vn -0.8640468 0.495425 -0.08931538
vn -0.6374348 -0.7690254 -0.04771667
vn -0.03876536 0.2814945 -0.9587795
vn 0.004445644 -0.5219741 -0.8529497
vn -0.9908592 0.1263867 0.04716354
vn -0.07385781 0.2493368 -0.9655963
vn -0.009942307 0.9944981 -0.1042825
vn -0.07825016 -0.2280992 -0.9704884
vn 0.0511535 0.4683546 0.8820586
vn 0.9867557 0.1294838 -0.09770905
vn -0.07385781 0.2493368 -0.9655963
vn -0.07825016 -0.2280992 -0.9704884
vn -0.1560522 0.3422033 -0.9265768
vn 0.8653359 -0.4868865 -0.1188922
vn 0.2867951 0.8940542 -0.3441156
vn -0.9587795 0.2814946 0.0387654
vn -0.8529497 -0.521974 -0.004445466
vn -0.244233 -0.5279299 -0.8134127
vn -0.04771645 -0.7690252 0.6374349
vn 0.9260765 0.2010394 0.3193204
vn -0.08931549 0.4954252 0.8640468
vn -0.04771645 -0.7690252 0.6374349
vn -0.9587795 0.2814946 0.0387654
vn -0.8529497 -0.521974 -0.004445466
vn 0.04716366 0.1263868 0.9908592
vn -0.9655963 0.2493369 0.07385775
vn -0.1042812 0.9944982 0.009942299
vn -0.9704884 -0.2280992 0.07824999
vn 0.8820584 0.4683547 -0.0511537
vn -0.09770904 0.1294838 -0.9867557
vn -0.9655963 0.2493369 0.07385775
vn -0.9704884 -0.2280992 0.07824999
vn -0.9265768 0.3422035 0.1560522
vn -0.1188923 -0.4868864 -0.8653359
vn -0.3441157 0.8940541 -0.2867954
vn 0.03876545 0.2814946 0.9587795
vn -0.004445347 -0.5219741 0.8529497
vn -0.8134128 -0.5279298 0.244233
vn 0.6374348 -0.7690253 0.04771628
vn 0.3193205 0.2010395 -0.9260765
vn 0.8640468 0.4954251 0.08931561
vn 0.6374348 -0.7690253 0.04771628
vn 0.03876545 0.2814946 0.9587795
vn -0.004445347 -0.5219741 0.8529497
vn 0.9908592 0.1263867 -0.04716349
vn 0.07385783 0.249337 0.9655963
vn 0.009941529 0.9944982 0.1042807
vn 0.07824997 -0.2280992 0.9704884
vn -0.0511534 0.4683548 -0.8820584
vn -0.9867557 0.1294838 0.09770903
vn 0.07385783 0.249337 0.9655963
vn 0.07824997 -0.2280992 0.9704884
g Area_Common_Build_Hili_House_16_Lod2_0
f 3/3/3 2/2/2 1/1/1
f 4/4/4 1/1/1 2/2/2
f 3/3/3 1/1/1 5/5/5
f 6/6/6 5/5/5 1/1/1
f 5/5/5 6/6/6 7/7/7
f 8/8/8 7/7/7 6/6/6
f 7/7/7 8/8/8 9/9/9
f 10/10/10 9/9/9 8/8/8
f 13/13/13 12/12/12 11/11/11
f 14/14/14 11/11/11 12/12/12
f 11/11/11 14/14/14 15/15/15
f 16/16/16 15/15/15 14/14/14
f 15/15/15 16/16/16 17/17/17
f 18/18/18 17/17/17 16/16/16
f 17/17/17 18/18/18 19/19/19
f 20/20/20 19/19/19 18/18/18
f 23/23/23 22/22/22 21/21/21
f 24/24/24 21/21/21 22/22/22
f 21/21/21 25/25/25 23/23/23
f 26/26/26 23/23/23 25/25/25
f 29/29/29 28/28/28 27/27/27
f 30/30/30 27/27/27 28/28/28
f 27/27/27 31/31/31 29/29/29
f 32/32/32 29/29/29 31/31/31
f 35/35/35 34/34/34 33/33/33
f 38/38/38 37/37/37 36/36/36
f 38/38/38 39/39/39 37/37/37
f 40/40/40 37/37/37 39/39/39
f 43/43/43 42/42/42 41/41/41
f 43/43/43 41/41/41 44/44/44
f 44/44/44 41/41/41 45/45/45
f 41/41/41 42/42/42 46/46/46
f 41/41/41 46/46/46 45/45/45
f 46/46/46 42/42/42 47/47/47
f 47/47/47 45/45/45 46/46/46
f 43/43/43 48/48/48 42/42/42
f 48/48/48 49/49/49 42/42/42
f 43/43/43 49/49/49 48/48/48
f 42/42/42 49/49/49 50/50/50
f 49/49/49 51/51/51 50/50/50
f 49/49/49 43/43/43 51/51/51
f 50/50/50 51/51/51 52/52/52
f 55/55/55 54/54/54 53/53/53
f 56/56/56 53/53/53 54/54/54
f 57/57/57 55/55/55 53/53/53
f 58/58/58 55/55/55 57/57/57
f 59/59/59 55/55/55 58/58/58
f 58/58/58 60/60/60 59/59/59
f 63/63/63 62/62/62 61/61/61
f 63/63/63 61/61/61 64/64/64
f 64/64/64 61/61/61 65/65/65
f 61/61/61 62/62/62 66/66/66
f 61/61/61 66/66/66 65/65/65
f 66/66/66 62/62/62 67/67/67
f 67/67/67 65/65/65 66/66/66
f 63/63/63 68/68/68 62/62/62
f 68/68/68 69/69/69 62/62/62
f 63/63/63 69/69/69 68/68/68
f 62/62/62 69/69/69 70/70/70
f 69/69/69 71/71/71 70/70/70
f 69/69/69 63/63/63 71/71/71
f 70/70/70 71/71/71 72/72/72
f 75/75/75 74/74/74 73/73/73
f 76/76/76 73/73/73 74/74/74
f 77/77/77 75/75/75 73/73/73
f 78/78/78 75/75/75 77/77/77
f 79/79/79 75/75/75 78/78/78
f 78/78/78 80/80/80 79/79/79
f 83/83/83 82/82/82 81/81/81
f 83/83/83 81/81/81 84/84/84
f 84/84/84 81/81/81 85/85/85
f 81/81/81 82/82/82 86/86/86
f 81/81/81 86/86/86 85/85/85
f 86/86/86 82/82/82 87/87/87
f 87/87/87 85/85/85 86/86/86
f 83/83/83 88/88/88 82/82/82
f 88/88/88 89/89/89 82/82/82
f 83/83/83 89/89/89 88/88/88
f 82/82/82 89/89/89 90/90/90
f 89/89/89 91/91/91 90/90/90
f 89/89/89 83/83/83 91/91/91
f 90/90/90 91/91/91 92/92/92
f 95/95/95 94/94/94 93/93/93
f 96/96/96 93/93/93 94/94/94
f 97/97/97 95/95/95 93/93/93
f 98/98/98 95/95/95 97/97/97
f 99/99/99 95/95/95 98/98/98
f 98/98/98 100/100/100 99/99/99
f 103/103/103 102/102/102 101/101/101
f 103/103/103 101/101/101 104/104/104
f 104/104/104 101/101/101 105/105/105
f 101/101/101 102/102/102 106/106/106
f 101/101/101 106/106/106 105/105/105
f 106/106/106 102/102/102 107/107/107
f 107/107/107 105/105/105 106/106/106
f 103/103/103 108/108/108 102/102/102
f 108/108/108 109/109/109 102/102/102
f 103/103/103 109/109/109 108/108/108
f 102/102/102 109/109/109 110/110/110
f 109/109/109 111/111/111 110/110/110
f 109/109/109 103/103/103 111/111/111
f 110/110/110 111/111/111 112/112/112
f 115/115/115 114/114/114 113/113/113
f 116/116/116 113/113/113 114/114/114
f 117/117/117 115/115/115 113/113/113
f 118/118/118 115/115/115 117/117/117
f 119/119/119 115/115/115 118/118/118
f 118/118/118 120/120/120 119/119/119
