g Area_Common_Build_Arch_C_02_Col
v 1.865302 4.660211 -0.3890914
v 2.634693 1.465452 -0.3890899
v 2.634694 4.660211 -0.3890912
v 1.865302 1.465452 -0.3890903
v 1.865302 1.465452 0.3803023
v 1.865302 4.660212 0.3803015
v 2.634694 4.660212 0.3803017
v 2.634693 1.465452 0.380303
v 2.951057 -0.08127873 -0.7054543
v 1.548938 -0.08127873 -0.7054551
v 1.548938 -0.08127817 0.6966667
v 2.951057 -0.08127817 0.6966679
v 1.681396 5.928829 -0.5729979
v 2.8186 5.928829 -0.5729975
v 1.681396 5.928831 0.5642076
v 2.8186 5.928831 0.564208
v 1.781183 5.973468 -0.4732104
v 2.718813 5.973468 -0.4732101
v 1.781183 5.97347 0.4644202
v 2.718813 5.97347 0.4644205
v 1.779705 7.276642 -0.4732104
v 2.652558 7.357294 -0.4732101
v 1.779705 7.276643 0.4644201
v 2.652558 7.357296 0.4644203
v 2.40204 8.583385 -0.4732101
v 1.697004 8.186612 -0.4732104
v 1.697004 8.186614 0.46442
v 2.40204 8.583385 0.4644202
v 1.829041 9.576747 -0.4732101
v 1.180989 9.243051 -0.4732104
v 1.180988 9.243052 0.4644199
v 1.829041 9.576749 0.4644202
vn -0.7031363 -0.1058245 -0.7031363
vn 0.6991068 0.150001 -0.6991062
vn 0.7031364 -0.1058246 -0.7031361
vn -0.6991063 0.1500011 -0.6991066
vn -0.6991068 0.1500012 0.699106
vn -0.7031364 -0.1058242 0.7031361
vn 0.7031361 -0.1058244 0.7031364
vn 0.6991061 0.1500013 0.6991068
vn 0.6792604 0.2778682 -0.6792603
vn -0.6792598 0.2778683 -0.6792608
vn -0.6792606 0.2778682 0.6792601
vn 0.6792601 0.2778685 0.6792605
vn -0.6456339 0.4078148 -0.6456345
vn 0.6456342 0.4078149 -0.6456342
vn -0.6456343 0.4078153 0.6456339
vn 0.6456341 0.4078152 0.6456341
vn -0.4557998 0.7643982 -0.4560065
vn 0.4524998 0.7732552 -0.4442077
vn -0.4558014 0.7643977 0.4560057
vn 0.4525006 0.7732551 0.4442069
vn -0.6960148 -0.03195845 -0.7173159
vn 0.7179745 0.08999483 -0.6902271
vn -0.696015 -0.03195852 0.7173157
vn 0.7179744 0.08999501 0.6902272
vn 0.6917974 0.2622738 -0.672777
vn -0.6368435 -0.177966 -0.7501722
vn -0.6368437 -0.1779663 0.750172
vn 0.6917971 0.2622741 0.6727772
vn 0.2298672 0.7815863 -0.5799
vn -0.7741762 0.2569481 -0.5784712
vn -0.7741767 0.2569489 0.5784701
vn 0.2298665 0.7815869 0.5798994
g Area_Common_Build_Arch_C_02_Col_0
f 3/3/3 2/2/2 1/1/1
f 4/4/4 1/1/1 2/2/2
f 4/4/4 5/5/5 1/1/1
f 6/6/6 1/1/1 5/5/5
f 6/6/6 5/5/5 7/7/7
f 8/8/8 7/7/7 5/5/5
f 2/2/2 3/3/3 8/8/8
f 7/7/7 8/8/8 3/3/3
f 2/2/2 9/9/9 4/4/4
f 10/10/10 4/4/4 9/9/9
f 4/4/4 10/10/10 5/5/5
f 11/11/11 5/5/5 10/10/10
f 5/5/5 11/11/11 8/8/8
f 12/12/12 8/8/8 11/11/11
f 9/9/9 2/2/2 12/12/12
f 8/8/8 12/12/12 2/2/2
f 1/1/1 13/13/13 3/3/3
f 14/14/14 3/3/3 13/13/13
f 3/3/3 14/14/14 7/7/7
f 13/13/13 1/1/1 15/15/15
f 6/6/6 15/15/15 1/1/1
f 15/15/15 6/6/6 16/16/16
f 7/7/7 16/16/16 6/6/6
f 16/16/16 7/7/7 14/14/14
f 13/13/13 17/17/17 14/14/14
f 18/18/18 14/14/14 17/17/17
f 14/14/14 18/18/18 16/16/16
f 17/17/17 13/13/13 19/19/19
f 15/15/15 19/19/19 13/13/13
f 19/19/19 15/15/15 20/20/20
f 16/16/16 20/20/20 15/15/15
f 20/20/20 16/16/16 18/18/18
f 17/17/17 21/21/21 18/18/18
f 22/22/22 18/18/18 21/21/21
f 18/18/18 22/22/22 20/20/20
f 21/21/21 17/17/17 23/23/23
f 19/19/19 23/23/23 17/17/17
f 23/23/23 19/19/19 24/24/24
f 20/20/20 24/24/24 19/19/19
f 24/24/24 20/20/20 22/22/22
f 22/22/22 21/21/21 25/25/25
f 26/26/26 25/25/25 21/21/21
f 21/21/21 23/23/23 26/26/26
f 27/27/27 26/26/26 23/23/23
f 27/27/27 23/23/23 28/28/28
f 24/24/24 28/28/28 23/23/23
f 24/24/24 22/22/22 28/28/28
f 25/25/25 28/28/28 22/22/22
f 25/25/25 26/26/26 29/29/29
f 25/25/25 29/29/29 28/28/28
f 30/30/30 29/29/29 26/26/26
f 27/27/27 31/31/31 26/26/26
f 30/30/30 26/26/26 31/31/31
f 30/30/30 31/31/31 29/29/29
f 28/28/28 32/32/32 27/27/27
f 31/31/31 27/27/27 32/32/32
f 32/32/32 28/28/28 29/29/29
f 32/32/32 29/29/29 31/31/31
