g Area_Common_Prop_Statue_C_01_Col
v -0.467619 -2.284921E-17 0.3923184
v 0.5214496 2.415068E-17 -0.375248
v -0.467619 2.415068E-17 -0.375248
v 0.5214496 -2.284921E-17 0.3923184
v -0.467619 0.1725165 0.3923184
v 0.5214496 0.1725165 0.3923184
v 0.5214496 0.1725165 -0.375248
v -0.467619 0.1725165 -0.375248
v 0.3143972 0.581323 0.2901974
v -0.42188 0.5813231 0.2738454
v 0.3143972 0.581323 -0.2954832
v -0.42188 0.581323 -0.2791311
v -0.008996086 0.8998912 0.2087776
v -0.400581 0.8387988 0.2087776
v -0.008996086 0.8998912 -0.1979701
v -0.400581 0.8387988 -0.1979701
v -0.1835495 0.9901296 0.1315312
v -0.1835495 0.9901296 -0.1559518
vn -0.5773503 -0.5773503 0.5773502
vn 0.5773503 -0.5773503 -0.5773502
vn -0.5773503 -0.5773503 -0.5773503
vn 0.5773503 -0.5773503 0.5773503
vn -0.6883164 0.1282108 0.7139906
vn 0.704873 0.2235754 0.6731775
vn 0.7106072 0.2128865 -0.6706093
vn -0.6940087 0.1110037 -0.711358
vn 0.5669977 0.5547884 0.6088706
vn -0.7048123 0.2480309 0.6646205
vn 0.5627605 0.5402644 -0.6256317
vn -0.6935587 0.2486274 -0.6761367
vn 0.3657079 0.7084264 0.6036471
vn -0.673353 0.491174 0.5525791
vn 0.3831482 0.713439 -0.5866874
vn -0.6857971 0.4972216 -0.5314631
vn -0.07188972 0.9362705 0.3438452
vn -0.06658576 0.8880389 -0.4549211
g Area_Common_Prop_Statue_C_01_Col_0
f 3/3/3 2/2/2 1/1/1
f 4/4/4 1/1/1 2/2/2
f 1/1/1 4/4/4 5/5/5
f 6/6/6 5/5/5 4/4/4
f 4/4/4 2/2/2 6/6/6
f 7/7/7 6/6/6 2/2/2
f 2/2/2 3/3/3 7/7/7
f 8/8/8 7/7/7 3/3/3
f 5/5/5 8/8/8 1/1/1
f 3/3/3 1/1/1 8/8/8
f 6/6/6 9/9/9 5/5/5
f 10/10/10 5/5/5 9/9/9
f 5/5/5 10/10/10 8/8/8
f 9/9/9 6/6/6 11/11/11
f 7/7/7 11/11/11 6/6/6
f 7/7/7 8/8/8 11/11/11
f 12/12/12 11/11/11 8/8/8
f 12/12/12 8/8/8 10/10/10
f 9/9/9 13/13/13 10/10/10
f 14/14/14 10/10/10 13/13/13
f 10/10/10 14/14/14 12/12/12
f 13/13/13 9/9/9 15/15/15
f 11/11/11 15/15/15 9/9/9
f 11/11/11 12/12/12 15/15/15
f 16/16/16 15/15/15 12/12/12
f 16/16/16 12/12/12 14/14/14
f 17/17/17 14/14/14 13/13/13
f 14/14/14 17/17/17 16/16/16
f 17/17/17 13/13/13 18/18/18
f 15/15/15 18/18/18 13/13/13
f 18/18/18 15/15/15 16/16/16
f 18/18/18 16/16/16 17/17/17
