g Area_Common_Build_ShortWall_D_01_Col
v -1.308716 1.681992 2.375391
v -0.55496 -0.731917 1.008366
v -0.7162604 -0.7549011 2.449355
v -1.032198 1.68132 0.8777071
v -1.340503 1.814244 0.7247347
v -1.611175 1.815058 2.308878
v -3.271245 1.814651 1.086063
v -3.111158 1.814244 0.1978323
v -3.457919 1.681655 1.033853
v -3.293983 1.681319 0.1143552
v -1.069418 1.749267 4.075739
v -0.5344909 -0.7222212 4.213147
v -2.102887 -0.7139651 4.475589
v -3.33688 1.815058 1.962167
v -3.156507 1.749268 4.209303
v -3.527404 1.681991 1.941224
v -4.370011 -0.6522623 1.810415
v -4.250333 -0.664359 0.8453928
v -0.9040744 1.850474 -0.1264238
v -0.7526837 1.681152 0.02013214
v 0.4062146 1.813837 -1.207629
v -1.16856 1.790267 -2.330681
v -2.065596 1.814041 -1.73762
v 0.4864682 1.680984 -1.012357
v -1.273058 1.681067 -2.518564
v -2.203668 1.681151 -1.889148
v -2.740408 -0.6821728 -2.436081
v -1.744781 -0.6806681 -3.282437
v -2.671545 1.814142 -1.066358
v 1.710801 1.845551 -1.525626
v 1.285732 1.845551 -3.330229
v 4.150993 1.747039 -1.656153
v 3.970854 1.747039 -3.715206
v -0.2715246 1.766494 -2.923741
v 1.766833 1.712734 -1.329356
v 1.25377 1.644284 -3.611879
v 1.067532 -0.6767475 -4.325733
v 3.840444 -0.9259582 -4.566607
v 4.168638 -0.6106036 -2.771922
v -0.7347325 -0.6791634 -3.812465
v -0.3424472 1.680983 -3.14798
v -0.8144058 -1.897118 -3.920428
v -1.846898 -1.897357 -3.403533
v -0.1346353 -1.897597 0.3310033
v 0.7851019 -1.897118 -0.2353125
v 0.7792163 -0.7316056 -0.4756271
v -0.2414175 -0.7317807 0.3448749
v -2.86497 -1.897597 -2.570309
v 2.03754 -0.7314699 -0.7542036
v 2.092787 -1.896638 -0.6354482
v 4.502067 -0.295249 -1.066289
v 4.561713 -1.89616 -0.9005873
v 4.298801 -1.89616 -2.751025
v 3.841291 -1.89616 -4.667446
v 1.015872 -1.896639 -4.478733
v -0.4369571 -1.898076 1.056653
v -3.642302 -1.897836 -1.576462
v -3.514861 -0.6793143 -1.454612
v -4.166524 -1.898075 -0.2412288
v -0.5655499 -1.899992 2.496517
v -4.405137 -1.899034 0.7584349
v -4.535526 -1.899992 1.745971
v -0.4068977 -1.901908 4.225239
v -2.096191 -1.901908 4.479507
v -4.195274 -1.901908 4.501183
v -4.096566 -0.705709 4.501183
v -4.036204 -0.6764556 -0.1317563
v -2.831994 1.681235 -1.183861
v -3.727237 0.7448631 4.366296
v -3.260784 1.211425 3.407684
v -3.685761 1.45913 3.464403
v -3.208526 0.5062997 4.241945
v -2.938704 0.923062 4.575518
v -3.457505 1.161818 4.699681
v -2.950373 1.635555 3.806976
v -3.375487 1.883615 3.863327
v -3.967603 -0.09990663 4.456777
v -3.589612 -0.3377829 3.385751
v -4.084009 -0.1809311 3.36468
v -3.385009 -0.2797121 4.397409
v -3.209693 0.3027705 4.319103
v -3.792441 0.4825818 4.378217
v -3.370931 0.3181035 3.356804
v -3.865586 0.4749541 3.335241
v -1.187523 -0.2950375 4.409282
v -0.6583642 -0.1865886 3.750629
v -1.197618 -0.268481 3.745257
v -0.5947482 -0.1879383 4.371275
v -0.8651702 1.265707 4.341714
v -1.444614 1.158584 4.349003
v -0.9274011 1.306125 3.750767
v -1.453368 1.224195 3.714527
v -1.215499 1.269452 4.078676
v -2.886405 1.269452 3.567456
v -2.872336 1.269452 4.104643
v -1.229568 1.269452 3.541489
v -1.229568 1.895618 3.541489
v -1.215499 1.895618 4.078676
v -2.886405 1.895618 3.567456
v -2.872335 1.895618 4.104643
v -2.144605 1.512134 3.928196
v -2.478076 1.512134 4.778234
v -2.124184 1.512134 4.770255
v -2.498498 1.512134 3.936175
v -2.498498 1.830388 3.936177
v -2.144605 1.830388 3.928197
v -2.478076 1.830388 4.778234
v -2.124184 1.830388 4.770255
v -1.305588 1.587848 1.303084
v -1.805132 1.546223 2.002114
v -1.514166 1.539366 2.057569
v -1.596556 1.594705 1.247628
v -1.592942 1.940415 1.278604
v -1.301975 1.933557 1.334059
v -1.801519 1.891932 2.033089
v -1.510552 1.885075 2.088544
v -0.6932086 1.617816 -0.5075793
v -1.136044 1.533909 0.2554504
v -0.8702976 1.49991 0.3054416
v -0.9589553 1.651815 -0.55757
v -0.928799 1.963679 -0.5057738
v -0.6630527 1.929679 -0.4557826
v -1.105888 1.845772 0.3072461
v -0.8401413 1.811773 0.3572368
v 3.765569 1.568337 -1.575099
v 2.773033 1.524768 -1.884434
v 2.779984 1.521586 -1.564527
v 3.758619 1.571519 -1.895007
v 3.740995 1.943955 -1.890918
v 3.747946 1.940773 -1.571012
v 2.75541 1.897204 -1.880347
v 2.762361 1.894022 -1.56044
v 3.679664 1.508405 -3.293092
v 1.819506 1.464836 -3.564661
v 1.826457 1.461654 -3.244754
v 3.672714 1.511587 -3.613
v 3.65509 1.884024 -3.608912
v 3.66204 1.880841 -3.289004
v 1.801883 1.837272 -3.560574
v 1.808834 1.83409 -3.240667
v -1.096482 1.220101 -2.542204
v -2.061513 1.280488 -2.157776
v -1.861393 1.207557 -1.918963
v -1.296602 1.293032 -2.781018
v -1.36236 1.824068 -2.52728
v -1.151926 1.811226 -2.275351
v -1.786598 1.81711 -2.181616
v -1.576163 1.804269 -1.929687
vn 0.7545032 0.6562218 -0.009899909
vn 0.9473854 0.1654766 0.2740043
vn 0.9837765 0.1793979 0.0005088819
vn 0.7301269 0.6500111 0.210714
vn 0.1517268 0.9856472 0.07401641
vn 0.1730977 0.9848081 0.01379827
vn -0.3050207 0.9515796 -0.03819206
vn -0.299234 0.9513512 -0.07341602
vn -0.7911856 0.6025398 -0.1047435
vn -0.7740329 0.5966517 -0.2118483
vn 0.5713651 0.6515857 0.4989769
vn 0.7856115 0.1434132 0.6018698
vn 0.08578156 0.05693994 0.9946855
vn -0.3137421 0.9493704 0.01617961
vn -0.39612 0.6893986 0.6064804
vn -0.8005295 0.598953 0.02019383
vn -0.9731632 0.2300897 -0.003454314
vn -0.9593242 0.2290945 -0.1649629
vn 0.2198723 0.962466 0.1591081
vn 0.6924257 0.5634074 0.4506871
vn 0.09607089 0.9726785 0.2113452
vn -0.1162292 0.9698851 -0.2140415
vn -0.1978459 0.9512762 -0.2364963
vn 0.3529972 0.6107686 0.7087699
vn -0.4180182 0.6612374 -0.6229173
vn -0.5338992 0.5921646 -0.6035666
vn -0.6939245 0.233463 -0.6811489
vn -0.5474921 0.2308386 -0.8043419
vn -0.2867003 0.9434078 -0.1666871
vn 0.04921836 0.9633522 0.2636854
vn -0.05501325 0.9515535 -0.302522
vn 0.6220683 0.659413 0.422144
vn 0.555306 0.6452734 -0.5246498
vn -0.1055121 0.9775109 -0.1825911
vn 0.1403855 0.5851559 0.7986767
vn -0.1337274 0.5731437 -0.8084697
vn -0.1693107 0.2165251 -0.9614836
vn 0.5785814 0.1615142 -0.7994727
vn 0.9830164 0.06333544 -0.172242
vn -0.3637736 0.2067145 -0.9082609
vn -0.3076101 0.6738338 -0.6718066
vn -0.283421 -0.6458353 -0.7089212
vn -0.4246632 -0.6333192 -0.6469684
vn 0.5116573 -0.7510867 0.4172236
vn 0.2939642 -0.6773863 0.6743388
vn 0.4071494 0.2055451 0.8899329
vn 0.7857093 0.1546676 0.5989481
vn -0.5564573 -0.6271614 -0.5449989
vn 0.1684616 0.1886493 0.9674876
vn 0.1442015 -0.6906926 0.7086253
vn 0.7848414 0.1982303 0.587136
vn 0.6611128 -0.5357398 0.525274
vn 0.7353423 -0.665201 -0.1295346
vn 0.4774939 -0.5546398 -0.6814501
vn -0.1427939 -0.6344532 -0.7596572
vn 0.6833974 -0.7092907 0.1728425
vn -0.6774145 -0.6231478 -0.3908917
vn -0.8465617 0.2224797 -0.483566
vn -0.7291343 -0.6440162 -0.2315305
vn 0.7281616 -0.6854032 -0.001749603
vn -0.749798 -0.6472247 -0.137489
vn -0.7759334 -0.6307873 -0.005892208
vn 0.6715312 -0.5462251 0.5006834
vn 0.06208089 -0.6893331 0.7217796
vn -0.5652423 -0.5608578 0.6049294
vn -0.6627998 0.1788043 0.7271352
vn -0.9319485 0.222653 -0.2861777
vn -0.6988512 0.577956 -0.4213952
vn -0.8074108 -0.5253804 0.2684458
vn 0.2721452 -0.2827504 -0.9197768
vn -0.6922096 0.2314283 -0.6835837
vn 0.2478452 -0.9686435 -0.01738862
vn 0.7580029 -0.1965907 0.6219192
vn -0.2952414 0.2622662 0.9187214
vn 0.8376772 0.5067914 -0.2036156
vn -0.154008 0.9880679 0.00183859
vn -0.6448131 -0.3277091 0.6905235
vn 0.3084089 -0.7678576 -0.5614969
vn -0.7464881 -0.4024166 -0.5299211
vn 0.4759808 -0.6753903 0.5632852
vn 0.8036124 0.3933199 0.4466614
vn -0.3277868 0.7498067 0.5747572
vn 0.6828717 0.3750123 -0.6269386
vn -0.3856783 0.7054772 -0.5946041
vn -0.4477594 -0.6649444 0.5977963
vn 0.640307 -0.478047 -0.6012304
vn -0.4806183 -0.6541651 -0.5840155
vn 0.7141414 -0.4563811 0.5307716
vn 0.5052981 0.6586955 0.557489
vn -0.6702715 0.4466681 0.5926413
vn 0.4484969 0.701911 -0.5533278
vn -0.6452279 0.5066664 -0.571813
vn 0.5895869 -0.5767996 0.565411
vn -0.589587 -0.5767992 -0.5654111
vn -0.5648701 -0.577905 0.5890225
vn 0.5648699 -0.5779051 -0.5890227
vn 0.56487 0.5779053 -0.5890225
vn 0.5895869 0.5767995 0.5654112
vn -0.5895868 0.5767996 -0.565411
vn -0.5648698 0.5779052 0.5890226
vn 0.5636418 -0.5774387 -0.5906543
vn -0.5636418 -0.5774399 0.590653
vn 0.5907443 -0.5772609 0.5637295
vn -0.5907447 -0.5772591 -0.5637308
vn -0.5907443 0.5772624 -0.563728
vn 0.5636423 0.577441 -0.5906517
vn -0.5636418 0.5774399 0.590653
vn 0.5907447 0.5772607 0.5637293
vn 0.6886387 -0.5453546 -0.4778756
vn -0.7032313 -0.5973395 0.3855532
vn 0.4239946 -0.6377495 0.6430429
vn -0.4345701 -0.5219839 -0.7339494
vn -0.4239942 0.6377503 -0.6430423
vn 0.703232 0.5973399 -0.3855514
vn -0.6886384 0.5453551 0.4778754
vn 0.4345701 0.5219847 0.7339488
vn 0.6266066 -0.5574996 -0.5445716
vn -0.736151 -0.5753669 0.3564192
vn 0.3885536 -0.7212831 0.5733905
vn -0.4983087 -0.4137555 -0.761902
vn -0.3885535 0.7212846 -0.5733888
vn 0.7361514 0.5753674 -0.3564174
vn -0.6266066 0.5575002 0.544571
vn 0.4983086 0.4137566 0.7619017
vn 0.6136771 -0.554609 0.561969
vn -0.559156 -0.5976307 -0.5746148
vn -0.5395311 -0.6104793 0.5798458
vn 0.5941579 -0.5439683 -0.5925157
vn 0.5395308 0.6104811 -0.5798443
vn 0.5591542 0.5976313 0.5746161
vn -0.6136768 0.5546095 -0.5619689
vn -0.5941566 0.54397 0.5925154
vn 0.6119677 -0.5624401 0.5560185
vn -0.5691685 -0.5918497 -0.5707549
vn -0.5416063 -0.6027811 0.5859331
vn 0.5845383 -0.5505843 -0.5959631
vn 0.5416059 0.6027825 -0.5859318
vn 0.5691668 0.5918504 0.570756
vn -0.6119673 0.5624408 -0.5560184
vn -0.584537 0.5505859 0.595963
vn 0.8002932 -0.588527 -0.1147466
vn -0.9434172 -0.3205802 -0.08480765
vn -0.254568 -0.6016931 0.7570737
vn 0.1012031 -0.3115365 -0.9448296
vn 0.05037497 0.749584 -0.6599895
vn 0.7984902 0.5494491 0.246006
vn -0.6537548 0.7518972 -0.08517811
vn 0.09905661 0.5472859 0.8310632
g Area_Common_Build_ShortWall_D_01_Col_0
f 3/3/3 2/2/2 1/1/1
f 4/4/4 1/1/1 2/2/2
f 4/4/4 5/5/5 1/1/1
f 6/6/6 1/1/1 5/5/5
f 6/6/6 5/5/5 7/7/7
f 8/8/8 7/7/7 5/5/5
f 7/7/7 8/8/8 9/9/9
f 10/10/10 9/9/9 8/8/8
f 1/1/1 11/11/11 3/3/3
f 11/11/11 1/1/1 6/6/6
f 12/12/12 3/3/3 11/11/11
f 13/13/13 12/12/12 11/11/11
f 6/6/6 14/14/14 11/11/11
f 14/14/14 6/6/6 7/7/7
f 15/15/15 11/11/11 14/14/14
f 15/15/15 13/13/13 11/11/11
f 15/15/15 14/14/14 16/16/16
f 14/14/14 7/7/7 16/16/16
f 9/9/9 16/16/16 7/7/7
f 16/16/16 9/9/9 17/17/17
f 18/18/18 17/17/17 9/9/9
f 9/9/9 10/10/10 18/18/18
f 5/5/5 4/4/4 19/19/19
f 5/5/5 19/19/19 8/8/8
f 20/20/20 19/19/19 4/4/4
f 19/19/19 20/20/20 21/21/21
f 21/21/21 22/22/22 19/19/19
f 23/23/23 19/19/19 22/22/22
f 24/24/24 21/21/21 20/20/20
f 22/22/22 25/25/25 23/23/23
f 26/26/26 23/23/23 25/25/25
f 26/26/26 25/25/25 27/27/27
f 28/28/28 27/27/27 25/25/25
f 29/29/29 19/19/19 23/23/23
f 21/21/21 24/24/24 30/30/30
f 30/30/30 31/31/31 21/21/21
f 30/30/30 32/32/32 31/31/31
f 33/33/33 31/31/31 32/32/32
f 34/34/34 21/21/21 31/31/31
f 22/22/22 34/34/34 25/25/25
f 34/34/34 22/22/22 21/21/21
f 32/32/32 30/30/30 35/35/35
f 35/35/35 30/30/30 24/24/24
f 33/33/33 36/36/36 31/31/31
f 36/36/36 33/33/33 37/37/37
f 38/38/38 37/37/37 33/33/33
f 39/39/39 38/38/38 33/33/33
f 32/32/32 39/39/39 33/33/33
f 37/37/37 40/40/40 36/36/36
f 41/41/41 36/36/36 40/40/40
f 36/36/36 41/41/41 31/31/31
f 34/34/34 31/31/31 41/41/41
f 40/40/40 28/28/28 41/41/41
f 40/40/40 42/42/42 28/28/28
f 40/40/40 37/37/37 42/42/42
f 43/43/43 28/28/28 42/42/42
f 42/42/42 44/44/44 43/43/43
f 45/45/45 44/44/44 42/42/42
f 45/45/45 46/46/46 44/44/44
f 47/47/47 44/44/44 46/46/46
f 43/43/43 44/44/44 48/48/48
f 46/46/46 45/45/45 49/49/49
f 49/49/49 35/35/35 46/46/46
f 50/50/50 49/49/49 45/45/45
f 49/49/49 50/50/50 51/51/51
f 52/52/52 51/51/51 50/50/50
f 51/51/51 52/52/52 39/39/39
f 52/52/52 50/50/50 53/53/53
f 53/53/53 39/39/39 52/52/52
f 39/39/39 53/53/53 38/38/38
f 53/53/53 50/50/50 54/54/54
f 54/54/54 50/50/50 55/55/55
f 50/50/50 45/45/45 55/55/55
f 42/42/42 55/55/55 45/45/45
f 56/56/56 48/48/48 44/44/44
f 44/44/44 47/47/47 56/56/56
f 57/57/57 48/48/48 56/56/56
f 48/48/48 57/57/57 27/27/27
f 48/48/48 27/27/27 43/43/43
f 58/58/58 27/27/27 57/57/57
f 59/59/59 57/57/57 56/56/56
f 57/57/57 59/59/59 58/58/58
f 60/60/60 59/59/59 56/56/56
f 61/61/61 59/59/59 60/60/60
f 62/62/62 61/61/61 60/60/60
f 63/63/63 62/62/62 60/60/60
f 64/64/64 62/62/62 63/63/63
f 65/65/65 62/62/62 64/64/64
f 62/62/62 65/65/65 17/17/17
f 66/66/66 17/17/17 65/65/65
f 65/65/65 64/64/64 66/66/66
f 56/56/56 2/2/2 60/60/60
f 3/3/3 60/60/60 2/2/2
f 59/59/59 61/61/61 67/67/67
f 67/67/67 58/58/58 59/59/59
f 18/18/18 67/67/67 61/61/61
f 17/17/17 18/18/18 62/62/62
f 61/61/61 62/62/62 18/18/18
f 13/13/13 66/66/66 64/64/64
f 63/63/63 60/60/60 12/12/12
f 3/3/3 12/12/12 60/60/60
f 63/63/63 12/12/12 64/64/64
f 13/13/13 64/64/64 12/12/12
f 17/17/17 66/66/66 16/16/16
f 15/15/15 16/16/16 66/66/66
f 66/66/66 13/13/13 15/15/15
f 67/67/67 18/18/18 10/10/10
f 67/67/67 10/10/10 58/58/58
f 68/68/68 58/58/58 10/10/10
f 68/68/68 10/10/10 29/29/29
f 29/29/29 23/23/23 68/68/68
f 26/26/26 68/68/68 23/23/23
f 68/68/68 26/26/26 58/58/58
f 8/8/8 29/29/29 10/10/10
f 27/27/27 58/58/58 26/26/26
f 29/29/29 8/8/8 19/19/19
f 28/28/28 43/43/43 27/27/27
f 25/25/25 41/41/41 28/28/28
f 41/41/41 25/25/25 34/34/34
f 71/71/71 70/70/70 69/69/69
f 72/72/72 69/69/69 70/70/70
f 72/72/72 73/73/73 69/69/69
f 74/74/74 69/69/69 73/73/73
f 69/69/69 74/74/74 71/71/71
f 73/73/73 75/75/75 74/74/74
f 70/70/70 75/75/75 72/72/72
f 73/73/73 72/72/72 75/75/75
f 76/76/76 74/74/74 75/75/75
f 71/71/71 76/76/76 70/70/70
f 75/75/75 70/70/70 76/76/76
f 76/76/76 71/71/71 74/74/74
f 2/2/2 47/47/47 4/4/4
f 20/20/20 4/4/4 47/47/47
f 20/20/20 47/47/47 24/24/24
f 46/46/46 24/24/24 47/47/47
f 24/24/24 46/46/46 35/35/35
f 2/2/2 56/56/56 47/47/47
f 35/35/35 49/49/49 32/32/32
f 51/51/51 32/32/32 49/49/49
f 51/51/51 39/39/39 32/32/32
f 54/54/54 55/55/55 38/38/38
f 37/37/37 38/38/38 55/55/55
f 55/55/55 42/42/42 37/37/37
f 54/54/54 38/38/38 53/53/53
f 79/79/79 78/78/78 77/77/77
f 80/80/80 77/77/77 78/78/78
f 80/80/80 81/81/81 77/77/77
f 82/82/82 77/77/77 81/81/81
f 77/77/77 82/82/82 79/79/79
f 81/81/81 83/83/83 82/82/82
f 78/78/78 83/83/83 80/80/80
f 81/81/81 80/80/80 83/83/83
f 84/84/84 82/82/82 83/83/83
f 79/79/79 84/84/84 78/78/78
f 83/83/83 78/78/78 84/84/84
f 84/84/84 79/79/79 82/82/82
f 87/87/87 86/86/86 85/85/85
f 88/88/88 85/85/85 86/86/86
f 88/88/88 89/89/89 85/85/85
f 90/90/90 85/85/85 89/89/89
f 85/85/85 90/90/90 87/87/87
f 89/89/89 91/91/91 90/90/90
f 86/86/86 91/91/91 88/88/88
f 89/89/89 88/88/88 91/91/91
f 92/92/92 90/90/90 91/91/91
f 87/87/87 92/92/92 86/86/86
f 91/91/91 86/86/86 92/92/92
f 92/92/92 87/87/87 90/90/90
f 95/95/95 94/94/94 93/93/93
f 96/96/96 93/93/93 94/94/94
f 96/96/96 97/97/97 93/93/93
f 98/98/98 93/93/93 97/97/97
f 93/93/93 98/98/98 95/95/95
f 97/97/97 99/99/99 98/98/98
f 94/94/94 99/99/99 96/96/96
f 97/97/97 96/96/96 99/99/99
f 100/100/100 98/98/98 99/99/99
f 95/95/95 100/100/100 94/94/94
f 99/99/99 94/94/94 100/100/100
f 100/100/100 95/95/95 98/98/98
f 103/103/103 102/102/102 101/101/101
f 104/104/104 101/101/101 102/102/102
f 104/104/104 105/105/105 101/101/101
f 106/106/106 101/101/101 105/105/105
f 101/101/101 106/106/106 103/103/103
f 105/105/105 107/107/107 106/106/106
f 102/102/102 107/107/107 104/104/104
f 105/105/105 104/104/104 107/107/107
f 108/108/108 106/106/106 107/107/107
f 103/103/103 108/108/108 102/102/102
f 107/107/107 102/102/102 108/108/108
f 108/108/108 103/103/103 106/106/106
f 111/111/111 110/110/110 109/109/109
f 112/112/112 109/109/109 110/110/110
f 112/112/112 113/113/113 109/109/109
f 114/114/114 109/109/109 113/113/113
f 109/109/109 114/114/114 111/111/111
f 113/113/113 115/115/115 114/114/114
f 110/110/110 115/115/115 112/112/112
f 113/113/113 112/112/112 115/115/115
f 116/116/116 114/114/114 115/115/115
f 111/111/111 116/116/116 110/110/110
f 115/115/115 110/110/110 116/116/116
f 116/116/116 111/111/111 114/114/114
f 119/119/119 118/118/118 117/117/117
f 120/120/120 117/117/117 118/118/118
f 120/120/120 121/121/121 117/117/117
f 122/122/122 117/117/117 121/121/121
f 117/117/117 122/122/122 119/119/119
f 121/121/121 123/123/123 122/122/122
f 118/118/118 123/123/123 120/120/120
f 121/121/121 120/120/120 123/123/123
f 124/124/124 122/122/122 123/123/123
f 119/119/119 124/124/124 118/118/118
f 123/123/123 118/118/118 124/124/124
f 124/124/124 119/119/119 122/122/122
f 127/127/127 126/126/126 125/125/125
f 128/128/128 125/125/125 126/126/126
f 128/128/128 129/129/129 125/125/125
f 130/130/130 125/125/125 129/129/129
f 125/125/125 130/130/130 127/127/127
f 129/129/129 131/131/131 130/130/130
f 126/126/126 131/131/131 128/128/128
f 129/129/129 128/128/128 131/131/131
f 132/132/132 130/130/130 131/131/131
f 127/127/127 132/132/132 126/126/126
f 131/131/131 126/126/126 132/132/132
f 132/132/132 127/127/127 130/130/130
f 135/135/135 134/134/134 133/133/133
f 136/136/136 133/133/133 134/134/134
f 136/136/136 137/137/137 133/133/133
f 138/138/138 133/133/133 137/137/137
f 133/133/133 138/138/138 135/135/135
f 137/137/137 139/139/139 138/138/138
f 134/134/134 139/139/139 136/136/136
f 137/137/137 136/136/136 139/139/139
f 140/140/140 138/138/138 139/139/139
f 135/135/135 140/140/140 134/134/134
f 139/139/139 134/134/134 140/140/140
f 140/140/140 135/135/135 138/138/138
f 143/143/143 142/142/142 141/141/141
f 144/144/144 141/141/141 142/142/142
f 144/144/144 145/145/145 141/141/141
f 146/146/146 141/141/141 145/145/145
f 141/141/141 146/146/146 143/143/143
f 145/145/145 147/147/147 146/146/146
f 142/142/142 147/147/147 144/144/144
f 145/145/145 144/144/144 147/147/147
f 148/148/148 146/146/146 147/147/147
f 143/143/143 148/148/148 142/142/142
f 147/147/147 142/142/142 148/148/148
f 148/148/148 143/143/143 146/146/146
