g Area_Common_Build_Pillar_G_01_Col
v 1.099516 -0.1036017 1.29804
v -0.7823294 1.817208 0.9497575
v 0.7823604 1.817208 0.9497575
v -1.099516 -0.1036017 1.29804
v 0.7482763 1.954065 0.769178
v -0.7477136 1.954065 0.7691776
v 0.9236172 1.817208 0.8045005
v 0.7482763 1.954065 -0.7691777
v 0.9236172 1.817208 -0.8045003
v 1.29804 -0.1036015 -1.099516
v 1.29804 -0.1036017 1.099516
v -0.9235863 1.817208 0.8045005
v -0.9235863 1.817208 -0.8045003
v -1.29804 -0.1036017 1.099516
v -1.29804 -0.1036015 -1.099516
v -0.7477136 1.954065 -0.769178
v 0.7823604 1.817208 -0.9497576
v -0.7823294 1.817208 -0.9497576
v -1.099516 -0.1036015 -1.29804
v 1.099516 -0.1036015 -1.29804
v -0.8523026 2.598667 -0.8530166
v 0.8537323 2.598668 -0.8530157
v 0.8537323 2.598667 0.853016
v -0.8523026 2.598668 0.8530155
v -0.9402443 2.589284 0.7964252
v 0.9402039 2.589283 -0.7964252
v -0.9402443 2.589283 -0.7964252
v 0.9402039 2.589284 0.7964251
v 0.9402039 2.898415 0.7964257
v 0.9402039 2.898414 -0.7964246
v -0.9402443 2.898414 -0.7964246
v -0.9402443 2.898415 0.7964258
v -0.7964451 2.898414 -0.9402237
v 0.7964045 2.898415 0.9402245
v -0.7964453 2.898415 0.9402245
v 0.7964047 2.589284 0.9402242
v -0.7964453 2.589284 0.9402242
v 0.7964047 2.744406 -0.9402238
v -0.7964453 2.589283 -0.9402242
v 0.7964047 2.589283 -0.9402242
v 0.4132126 2.824877 -0.4125428
v -2.348223E-06 8.280055 -0.5906115
v -2.773929E-06 2.834269 -0.5921537
v 0.4107888 8.289447 -0.4114685
v 0.5896382 8.280055 -3.052927E-07
v 0.5931172 2.834269 -2.482875E-07
v -0.4132195 2.824877 -0.4125432
v -0.410795 8.289447 -0.4114688
v -0.5931228 2.834269 -9.910693E-07
v -0.5896428 8.280055 -9.061866E-07
v -0.4132195 2.824877 0.4125413
v -0.410795 8.289447 0.4114672
v -2.348223E-06 8.280055 0.5906104
v -2.839662E-06 2.834269 0.5921523
v 0.4132126 2.824877 0.412542
v 0.4107888 8.289447 0.4114677
v -0.6951584 8.784746 0.8206734
v -0.8206732 8.784744 -0.6951573
v -0.6951584 8.784744 -0.820672
v -0.8206732 8.784746 0.6951586
v -0.8206732 8.453345 0.6951586
v -0.8206732 8.453345 -0.6951572
v -0.6951584 8.453345 -0.8206719
v 0.6951573 8.784744 -0.820672
v 0.6951572 8.453345 -0.8206719
v 0.8206718 8.453345 -0.6951572
v 0.8206718 8.784744 -0.6951573
v 0.8206718 8.784746 0.6951588
v 0.8206718 8.453345 0.6951586
v 0.6951573 8.453345 0.8206732
v -0.6951584 8.453345 0.8206732
v 0.6951573 8.784746 0.8206734
v -7.726268E-07 7.913095 4.037486E-07
v 0.5969532 8.724506 -0.5953001
v 0.6936869 9.865867 0.6932619
v 0.6946829 9.865639 -0.6930731
v 0.5969534 8.724513 0.595351
v -0.6936816 9.865867 0.6932619
v -0.5969421 8.724513 0.595351
v -0.694608 9.865642 -0.6931208
v -0.5968711 8.72451 -0.5953486
v 0.8068586 9.923575 -0.8055473
v 0.8039052 9.924237 0.806009
v 0.9497576 10.3036 -0.8044994
v 0.9497573 10.3036 0.8045012
v 0.9497576 10.62953 0.8045014
v 0.9497576 10.62953 -0.8044995
v 0.8045004 10.62953 -0.9497566
v -0.9497576 10.62953 -0.8044995
v -0.8045004 10.62953 -0.9497566
v -0.8045004 10.3036 -0.9497566
v 0.8045005 10.3036 -0.9497565
v -0.8068027 9.923579 -0.8055869
v -0.9497573 10.3036 -0.8044996
v -0.9497576 10.3036 0.8045012
v -0.9497576 10.62953 0.8045013
v -0.8039069 9.924237 0.806009
v 0.8006656 10.30285 0.949191
v -0.8006656 10.30285 0.949191
v -0.8045004 10.62953 0.9497584
v 0.8045004 10.62953 0.9497584
v 0.5091618 6.602518 -0.5083349
v -1.759692E-06 6.875262 -0.7277501
v -2.284246E-06 6.602988 -0.7296513
v 0.5061751 6.875731 -0.5070103
v 0.7265533 6.875262 8.06639E-07
v 0.7308401 6.602988 7.695063E-08
v -0.509168 6.602518 -0.5083354
v -0.5061805 6.875731 -0.5070108
v -0.7308448 6.602988 -8.383053E-07
v -0.7265568 6.875262 6.62173E-08
v -0.509168 6.602519 0.5083339
v -0.5061805 6.875731 0.5070111
v -1.759692E-06 6.875263 0.7277516
v -2.365242E-06 6.602988 0.7296506
v 0.5091618 6.602519 0.5083347
v 0.5061751 6.875731 0.5070118
v -2.721343E-06 5.695598 -3.925454E-07
v -0.5091716 3.117198 -0.508335
v -8.030728E-06 2.844453 -0.7277503
v -7.482372E-06 3.116727 -0.7296513
v -0.5061851 2.843983 -0.5070105
v -0.7265632 2.844453 8.06639E-07
v -0.7308499 3.116727 7.695056E-08
v 0.5091582 3.117198 -0.5083354
v 0.5061707 2.843983 -0.5070109
v 0.730835 3.116727 -8.383053E-07
v 0.726547 2.844453 6.621733E-08
v 0.5091582 3.117197 0.5083339
v 0.5061707 2.843983 0.5070111
v -8.03073E-06 2.844452 0.7277517
v -7.401376E-06 3.116727 0.7296507
v -0.5091716 3.117197 0.5083348
v -0.5061851 2.843983 0.5070118
v -6.965948E-06 4.164165 -3.925455E-07
vn 0.3358607 -0.5426186 0.7699109
vn -0.3148291 0.508118 0.8016849
vn 0.3151968 0.5075727 0.8018858
vn -0.3354684 -0.5429115 0.7698754
vn 0.5931378 0.5435339 0.5939348
vn -0.592519 0.5444936 0.5936733
vn 0.8048313 0.5074766 0.3077566
vn 0.5931381 0.5435342 -0.5939341
vn 0.8047602 0.5078575 -0.3073139
vn 0.7726805 -0.5403979 -0.333069
vn 0.7727129 -0.5401083 0.3334635
vn -0.8044945 0.5083569 0.3071839
vn -0.8045661 0.5079761 -0.3076259
vn -0.7726839 -0.5403928 0.3330695
vn -0.7727166 -0.5401029 -0.3334633
vn -0.5925192 0.5444929 -0.5936737
vn 0.3147526 0.5079489 -0.8018221
vn -0.3152742 0.5077422 -0.8017481
vn -0.335864 -0.5426162 -0.7699111
vn 0.3354656 -0.5429139 -0.7698749
vn -0.6985462 -0.2026013 -0.6862843
vn 0.6986614 -0.2035092 -0.6858981
vn 0.698661 -0.2035091 0.6858984
vn -0.6985464 -0.2026006 0.6862841
vn -0.7172835 -0.6302627 0.2971085
vn 0.7172838 -0.630262 -0.2971091
vn -0.7172838 -0.6302622 -0.2971086
vn 0.7172835 -0.6302627 0.2971084
vn 0.7172834 0.6302623 0.2971094
vn 0.6563813 0.6471396 -0.3877808
vn -0.7172836 0.6302627 -0.2971082
vn -0.7172836 0.6302621 0.2971093
vn -0.2951898 0.6306462 -0.7177384
vn 0.2971077 0.6302626 0.7172838
vn -0.2971084 0.6302621 0.717284
vn 0.2971083 -0.630263 0.7172833
vn -0.2971085 -0.6302628 0.7172833
vn 0.3211643 0.2571804 -0.9114339
vn -0.297109 -0.6302625 -0.7172834
vn 0.2971084 -0.6302624 -0.7172837
vn 0.7067541 0.0004540858 -0.7074592
vn 1.09012E-06 0.0003845188 -1
vn 9.59653E-07 0.0002831785 -1
vn 0.7075058 0.0004527491 -0.7067073
vn 0.9999999 0.0005867634 -3.265984E-05
vn 0.9999999 0.0005868861 -3.232932E-05
vn -0.7067322 0.0004030756 -0.7074811
vn -0.707484 0.0005041175 -0.7067291
vn -0.9999999 0.0005870427 3.241101E-05
vn -0.9999999 0.0005869117 3.263938E-05
vn -0.7067546 0.0004541821 0.7074587
vn -0.7075067 0.0004528184 0.7067065
vn 2.335973E-07 0.0003844929 1
vn -1.42927E-07 0.0002831225 1
vn 0.7067314 0.0004029484 0.7074818
vn 0.7074835 0.0005039881 0.7067298
vn -0.2971084 0.6302627 0.7172835
vn -0.7172838 0.6302619 -0.2971092
vn -0.2971085 0.630262 -0.717284
vn -0.7172832 0.630263 0.2971081
vn -0.810689 -0.4698263 0.3493516
vn -0.8106892 -0.4698262 -0.3493515
vn -0.3493511 -0.4698264 -0.8106893
vn 0.297109 0.6302617 -0.7172841
vn 0.3493512 -0.4698264 -0.8106891
vn 0.8106893 -0.4698263 -0.3493511
vn 0.7172841 0.6302618 -0.2971088
vn 0.7172834 0.6302629 0.2971081
vn 0.8106893 -0.4698264 0.3493511
vn 0.3493514 -0.4698265 0.810689
vn -0.3493508 -0.4698266 0.8106892
vn 0.2971088 0.6302626 0.7172834
vn 0 -1 -1.65327E-07
vn 0.7021782 -0.1199946 -0.701817
vn 0.4544287 -0.7683333 0.450731
vn 0.4508938 -0.7710215 -0.4496894
vn 0.7022707 -0.1197211 0.7017712
vn -0.4548559 -0.7681699 0.4505785
vn -0.7021083 -0.1199984 0.7018862
vn -0.4512423 -0.7708638 -0.4496103
vn -0.7019444 -0.1202709 -0.7020036
vn 0.5320198 -0.6603398 -0.5300061
vn 0.5295898 -0.6602004 0.5326068
vn 0.9170407 -0.1617877 -0.364501
vn 0.9141896 -0.1639127 0.3706613
vn 0.7173155 0.6291441 0.2993931
vn 0.7172835 0.6302624 -0.2971087
vn 0.2971085 0.6302624 -0.7172836
vn -0.7172838 0.6302622 -0.2971086
vn -0.2971085 0.6302626 -0.7172835
vn -0.3644594 -0.1622907 -0.9169685
vn 0.3644479 -0.1623068 -0.9169701
vn -0.5315446 -0.6605034 -0.5302789
vn -0.916954 -0.1614845 -0.3648536
vn -0.91439 -0.1651583 0.369613
vn -0.7172835 0.6302624 0.2971087
vn -0.5291824 -0.66035 0.5328262
vn 0.3580599 -0.1634856 0.9192745
vn -0.356671 -0.1650355 0.9195374
vn -0.297303 0.6290982 0.7182244
vn 0.2995993 0.627962 0.7182645
vn 0.6744074 -0.3022848 -0.6736457
vn 1.153789E-06 0.6292186 -0.7772284
vn 6.061431E-07 -0.3049398 -0.9523716
vn 0.5445879 0.6374717 -0.5450264
vn 0.7746711 0.6323642 -0.0003367166
vn 0.953545 -0.3012505 -0.0002448846
vn -0.6741979 -0.3024546 -0.6737794
vn -0.544285 0.6375864 -0.5451949
vn -0.9535457 -0.3012483 0.0002447664
vn -0.7746693 0.6323663 0.0003380851
vn -0.6744088 -0.3022852 0.6736441
vn -0.5445888 0.6374704 0.5450273
vn 3.675015E-07 0.629218 0.7772289
vn -4.413656E-07 -0.3049439 0.9523703
vn 0.6741971 -0.3024571 0.6737789
vn 0.5442861 0.6375841 0.5451965
vn 0 -1 1.560242E-07
vn -0.6805294 0.2734026 -0.679802
vn -1.455314E-06 -0.007747458 -0.99997
vn -5.728946E-07 0.2763505 -0.9610569
vn -0.7067784 -0.01115507 -0.7073471
vn -0.9998821 -0.01534839 -0.0004353489
vn -0.9621206 0.272624 -0.0002408437
vn 0.6803258 0.2735755 -0.6799362
vn 0.7064689 -0.01154242 -0.7076498
vn 0.9621214 0.2726217 0.000240565
vn 0.9998821 -0.01535296 0.0004371194
vn 0.6805308 0.273403 0.6798005
vn 0.7067782 -0.01115322 0.7073474
vn -5.367132E-07 -0.007740765 0.9999701
vn 4.74518E-07 0.2763539 0.9610559
vn -0.680325 0.2735783 0.6799358
vn -0.7064684 -0.01153573 0.7076505
vn 0 1 -2.519562E-07
g Area_Common_Build_Pillar_G_01_Col_0
f 3/3/3 2/2/2 1/1/1
f 4/4/4 1/1/1 2/2/2
f 3/3/3 5/5/5 2/2/2
f 6/6/6 2/2/2 5/5/5
f 3/3/3 1/1/1 7/7/7
f 7/7/7 5/5/5 3/3/3
f 5/5/5 7/7/7 8/8/8
f 9/9/9 8/8/8 7/7/7
f 9/9/9 7/7/7 10/10/10
f 11/11/11 10/10/10 7/7/7
f 11/11/11 7/7/7 1/1/1
f 11/11/11 1/1/1 10/10/10
f 12/12/12 2/2/2 6/6/6
f 12/12/12 6/6/6 13/13/13
f 12/12/12 13/13/13 14/14/14
f 12/12/12 14/14/14 2/2/2
f 4/4/4 2/2/2 14/14/14
f 15/15/15 14/14/14 13/13/13
f 16/16/16 13/13/13 6/6/6
f 8/8/8 17/17/17 16/16/16
f 9/9/9 10/10/10 17/17/17
f 17/17/17 8/8/8 9/9/9
f 18/18/18 16/16/16 17/17/17
f 13/13/13 16/16/16 18/18/18
f 18/18/18 17/17/17 19/19/19
f 15/15/15 13/13/13 19/19/19
f 18/18/18 19/19/19 13/13/13
f 4/4/4 14/14/14 19/19/19
f 15/15/15 19/19/19 14/14/14
f 20/20/20 19/19/19 17/17/17
f 20/20/20 17/17/17 10/10/10
f 16/16/16 21/21/21 8/8/8
f 16/16/16 6/6/6 21/21/21
f 22/22/22 8/8/8 21/21/21
f 22/22/22 23/23/23 8/8/8
f 5/5/5 8/8/8 23/23/23
f 5/5/5 23/23/23 6/6/6
f 24/24/24 21/21/21 6/6/6
f 24/24/24 6/6/6 23/23/23
f 19/19/19 20/20/20 4/4/4
f 1/1/1 4/4/4 20/20/20
f 20/20/20 10/10/10 1/1/1
f 27/27/27 26/26/26 25/25/25
f 28/28/28 25/25/25 26/26/26
f 28/28/28 26/26/26 29/29/29
f 30/30/30 29/29/29 26/26/26
f 27/27/27 25/25/25 31/31/31
f 32/32/32 31/31/31 25/25/25
f 31/31/31 32/32/32 33/33/33
f 32/32/32 30/30/30 33/33/33
f 29/29/29 30/30/30 34/34/34
f 34/34/34 30/30/30 32/32/32
f 35/35/35 34/34/34 32/32/32
f 32/32/32 25/25/25 35/35/35
f 34/34/34 35/35/35 36/36/36
f 34/34/34 36/36/36 29/29/29
f 28/28/28 29/29/29 36/36/36
f 28/28/28 36/36/36 25/25/25
f 37/37/37 36/36/36 35/35/35
f 37/37/37 35/35/35 25/25/25
f 37/37/37 25/25/25 36/36/36
f 33/33/33 30/30/30 38/38/38
f 30/30/30 26/26/26 38/38/38
f 33/33/33 38/38/38 39/39/39
f 27/27/27 31/31/31 39/39/39
f 33/33/33 39/39/39 31/31/31
f 27/27/27 39/39/39 26/26/26
f 40/40/40 39/39/39 38/38/38
f 40/40/40 38/38/38 26/26/26
f 40/40/40 26/26/26 39/39/39
f 43/43/43 42/42/42 41/41/41
f 44/44/44 41/41/41 42/42/42
f 44/44/44 45/45/45 41/41/41
f 46/46/46 41/41/41 45/45/45
f 43/43/43 47/47/47 42/42/42
f 48/48/48 42/42/42 47/47/47
f 47/47/47 49/49/49 48/48/48
f 50/50/50 48/48/48 49/49/49
f 49/49/49 51/51/51 50/50/50
f 52/52/52 50/50/50 51/51/51
f 52/52/52 51/51/51 53/53/53
f 54/54/54 53/53/53 51/51/51
f 54/54/54 55/55/55 53/53/53
f 56/56/56 53/53/53 55/55/55
f 55/55/55 46/46/46 56/56/56
f 45/45/45 56/56/56 46/46/46
f 59/59/59 58/58/58 57/57/57
f 60/60/60 57/57/57 58/58/58
f 60/60/60 58/58/58 61/61/61
f 60/60/60 61/61/61 57/57/57
f 62/62/62 61/61/61 58/58/58
f 59/59/59 63/63/63 58/58/58
f 62/62/62 58/58/58 63/63/63
f 59/59/59 64/64/64 63/63/63
f 65/65/65 63/63/63 64/64/64
f 65/65/65 64/64/64 66/66/66
f 67/67/67 66/66/66 64/64/64
f 67/67/67 68/68/68 66/66/66
f 67/67/67 64/64/64 68/68/68
f 69/69/69 66/66/66 68/68/68
f 69/69/69 68/68/68 70/70/70
f 71/71/71 70/70/70 57/57/57
f 71/71/71 57/57/57 61/61/61
f 72/72/72 57/57/57 70/70/70
f 72/72/72 70/70/70 68/68/68
f 64/64/64 59/59/59 72/72/72
f 57/57/57 72/72/72 59/59/59
f 72/72/72 68/68/68 64/64/64
f 62/62/62 73/73/73 61/61/61
f 63/63/63 73/73/73 62/62/62
f 65/65/65 73/73/73 63/63/63
f 66/66/66 73/73/73 65/65/65
f 69/69/69 73/73/73 66/66/66
f 70/70/70 73/73/73 69/69/69
f 71/71/71 73/73/73 70/70/70
f 61/61/61 73/73/73 71/71/71
f 76/76/76 75/75/75 74/74/74
f 77/77/77 74/74/74 75/75/75
f 75/75/75 78/78/78 77/77/77
f 79/79/79 77/77/77 78/78/78
f 78/78/78 80/80/80 79/79/79
f 81/81/81 79/79/79 80/80/80
f 80/80/80 76/76/76 81/81/81
f 74/74/74 81/81/81 76/76/76
f 76/76/76 82/82/82 75/75/75
f 83/83/83 75/75/75 82/82/82
f 75/75/75 83/83/83 78/78/78
f 82/82/82 84/84/84 83/83/83
f 85/85/85 83/83/83 84/84/84
f 85/85/85 84/84/84 86/86/86
f 87/87/87 86/86/86 84/84/84
f 87/87/87 84/84/84 88/88/88
f 87/87/87 88/88/88 89/89/89
f 90/90/90 89/89/89 88/88/88
f 90/90/90 88/88/88 91/91/91
f 90/90/90 91/91/91 89/89/89
f 92/92/92 91/91/91 88/88/88
f 92/92/92 82/82/82 91/91/91
f 92/92/92 88/88/88 84/84/84
f 84/84/84 82/82/82 92/92/92
f 93/93/93 91/91/91 82/82/82
f 94/94/94 91/91/91 93/93/93
f 94/94/94 89/89/89 91/91/91
f 94/94/94 95/95/95 89/89/89
f 94/94/94 93/93/93 95/95/95
f 96/96/96 89/89/89 95/95/95
f 86/86/86 87/87/87 96/96/96
f 89/89/89 96/96/96 87/87/87
f 97/97/97 95/95/95 93/93/93
f 83/83/83 98/98/98 97/97/97
f 85/85/85 86/86/86 98/98/98
f 98/98/98 83/83/83 85/85/85
f 99/99/99 97/97/97 98/98/98
f 95/95/95 97/97/97 99/99/99
f 99/99/99 98/98/98 100/100/100
f 96/96/96 95/95/95 100/100/100
f 99/99/99 100/100/100 95/95/95
f 96/96/96 100/100/100 86/86/86
f 101/101/101 100/100/100 98/98/98
f 101/101/101 98/98/98 86/86/86
f 101/101/101 86/86/86 100/100/100
f 93/93/93 80/80/80 97/97/97
f 78/78/78 97/97/97 80/80/80
f 97/97/97 78/78/78 83/83/83
f 80/80/80 93/93/93 76/76/76
f 82/82/82 76/76/76 93/93/93
f 104/104/104 103/103/103 102/102/102
f 105/105/105 102/102/102 103/103/103
f 105/105/105 106/106/106 102/102/102
f 107/107/107 102/102/102 106/106/106
f 104/104/104 108/108/108 103/103/103
f 109/109/109 103/103/103 108/108/108
f 109/109/109 105/105/105 103/103/103
f 108/108/108 110/110/110 109/109/109
f 111/111/111 109/109/109 110/110/110
f 110/110/110 112/112/112 111/111/111
f 113/113/113 111/111/111 112/112/112
f 111/111/111 113/113/113 109/109/109
f 113/113/113 105/105/105 109/109/109
f 113/113/113 112/112/112 114/114/114
f 115/115/115 114/114/114 112/112/112
f 115/115/115 116/116/116 114/114/114
f 117/117/117 114/114/114 116/116/116
f 116/116/116 107/107/107 117/117/117
f 106/106/106 117/117/117 107/107/107
f 114/114/114 117/117/117 113/113/113
f 106/106/106 105/105/105 117/117/117
f 117/117/117 105/105/105 113/113/113
f 102/102/102 118/118/118 104/104/104
f 110/110/110 118/118/118 112/112/112
f 112/112/112 118/118/118 115/115/115
f 107/107/107 118/118/118 102/102/102
f 104/104/104 118/118/118 108/108/108
f 108/108/108 118/118/118 110/110/110
f 115/115/115 118/118/118 116/116/116
f 116/116/116 118/118/118 107/107/107
f 121/121/121 120/120/120 119/119/119
f 122/122/122 119/119/119 120/120/120
f 122/122/122 123/123/123 119/119/119
f 124/124/124 119/119/119 123/123/123
f 121/121/121 125/125/125 120/120/120
f 126/126/126 120/120/120 125/125/125
f 125/125/125 127/127/127 126/126/126
f 128/128/128 126/126/126 127/127/127
f 127/127/127 129/129/129 128/128/128
f 130/130/130 128/128/128 129/129/129
f 130/130/130 129/129/129 131/131/131
f 132/132/132 131/131/131 129/129/129
f 132/132/132 133/133/133 131/131/131
f 134/134/134 131/131/131 133/133/133
f 133/133/133 124/124/124 134/134/134
f 123/123/123 134/134/134 124/124/124
f 119/119/119 135/135/135 121/121/121
f 127/127/127 135/135/135 129/129/129
f 129/129/129 135/135/135 132/132/132
f 124/124/124 135/135/135 119/119/119
f 121/121/121 135/135/135 125/125/125
f 125/125/125 135/135/135 127/127/127
f 132/132/132 135/135/135 133/133/133
f 133/133/133 135/135/135 124/124/124
