g Area_Ly_Build_Common_Censer_A_01_Col
v 0.7094136 1.214719 1.236377E-07
v 0.2406522 1.497302 -0.4168211
v 0.3547067 1.214719 -0.6143698
v 0.4813045 1.497302 1.709139E-07
v -0.2406524 1.497302 -0.416821
v -0.354707 1.214719 -0.6143698
v -0.4813046 1.497302 1.709139E-07
v -0.7094138 1.214719 1.236378E-07
v 0.3507432 0.9085824 -0.6075047
v -0.3507435 0.9085824 -0.6075047
v -0.7014868 0.9085824 7.499933E-08
v 0.7014866 0.9085824 7.499933E-08
v 0.9296388 0.2053212 7.062949E-08
v 0.4648194 0.2053211 -0.8050897
v -0.4648195 0.2053211 -0.8050897
v -0.929639 0.2053212 7.062949E-08
v 0.3547067 1.214719 0.6143701
v 0.2406522 1.497302 0.4168214
v -0.2406524 1.497302 0.4168213
v -0.354707 1.214719 0.6143701
v 0.3507432 0.908582 0.6075049
v -0.3507435 0.908582 0.6075049
v 0.4648194 0.205321 0.8050898
v -0.4648195 0.205321 0.8050898
v 0.4344969 2.037555 0.7525695
v -0.4344971 2.037555 0.7525694
v -0.8689939 2.037555 1.832149E-07
v -0.4344971 2.037555 -0.7525692
v 0.4344969 2.037555 -0.7525693
v 0.8689938 2.037555 1.832149E-07
v -0.2503954 2.321175 -0.4336963
v -0.5007906 2.321175 1.835316E-07
v 0.2503952 2.321175 -0.4336964
v 0.5007905 2.321175 1.835316E-07
v -0.2503954 2.321175 0.4336966
v 0.2503952 2.321175 0.4336967
v -0.7052377 2.81279 1.762454E-07
v -0.352619 2.81279 -0.6107524
v -0.2409371 2.870092 -0.4173141
v -0.481874 2.870092 1.703957E-07
v 0.240937 2.870092 -0.4173143
v 0.3526188 2.81279 -0.6107525
v 0.4818739 2.870092 1.703957E-07
v 0.7052376 2.81279 1.762454E-07
v -0.352619 2.81279 0.6107527
v -0.2409371 2.870092 0.4173144
v 0.3526188 2.81279 0.6107528
v 0.240937 2.870092 0.4173145
v -0.2585104 2.976532 1.604113E-07
v -0.1292553 2.976532 -0.2238759
v -6.993611E-08 3.380657 1.525879E-07
v 0.1292551 2.976532 -0.223876
v 0.2585102 2.976532 1.604113E-07
v -0.1292553 2.976532 0.2238762
v 0.1292551 2.976532 0.2238762
v 0.6490262 1.722311 -3.647804E-07
v 0.6666742 1.216553 -0.03088851
v 0.7877811 1.635827 -0.0308885
v 0.539129 1.36004 -0.0308885
v 0.8972778 1.684213 -0.03088853
v 0.9122229 1.787877 -0.03088851
v 0.7877811 1.635827 0.03088776
v 0.8972778 1.684213 0.03088778
v 0.6666742 1.216553 0.03088763
v 0.5391288 1.36004 0.03088767
v 0.9122229 1.787877 0.03088782
v -0.6512394 1.721586 -0.03088851
v -0.6637424 1.21728 -0.03088851
v -0.539129 1.36004 -0.0308885
v -0.7869132 1.637665 -0.0308885
v -0.8972778 1.684213 -0.03088853
v -0.9122229 1.787877 -0.03088851
v -0.786913 1.637665 0.03088775
v -0.8972778 1.684213 0.03088778
v -0.6637424 1.21728 0.03088763
v -0.6512394 1.721586 0.03088778
v -0.5391288 1.36004 0.03088767
v -0.9122229 1.787877 0.03088782
v 1.493744 -0.08643381 -0.02610808
v 1.247797 0.182918 -0.738275
v 1.295534 -0.08643384 -0.7658359
v 1.438622 0.182918 -0.02610808
v 0.7264549 0.182918 -1.259617
v 0.7540157 -0.08643387 -1.307354
v 0.01428796 0.182918 -1.450442
v 0.01428797 -0.08643387 -1.505564
v -0.697879 0.182918 -1.259617
v -0.7254398 -0.08643387 -1.307354
v -1.219221 0.182918 -0.7382751
v -1.266958 -0.08643384 -0.7658359
v -1.410046 0.182918 -0.0261083
v -1.465168 -0.08643381 -0.0261083
v -1.219221 0.182918 0.6860585
v -1.266958 -0.08643378 0.7136193
v -0.6978793 0.1829181 1.207401
v -0.7254402 -0.08643375 1.255137
v 0.01428736 0.1829181 1.398226
v 0.01428735 -0.08643375 1.453347
v 0.7264542 0.1829181 1.207402
v 0.754015 -0.08643375 1.255138
v 1.247797 0.182918 0.6860597
v 1.295534 -0.08643378 0.7136205
v -1.133238 0.182918 -0.02610824
v -0.9794984 0.182918 0.5476545
v -0.5594752 0.182918 0.967678
v 0.01428743 0.1829181 1.121417
v 0.5880502 0.182918 0.9676786
v 1.008074 0.182918 0.5476554
v 1.161813 0.182918 -0.02610807
v 1.008074 0.182918 -0.5998708
v 0.5880507 0.182918 -1.019894
v 0.01428792 0.182918 -1.173634
v -0.5594749 0.182918 -1.019894
v -0.9794983 0.182918 -0.5998709
v 0.962416 0.3107862 -0.57351
v 1.109092 0.3107863 -0.02610808
v 0.5616899 0.3107862 -0.9742362
v 0.01428791 0.3107862 -1.120912
v -0.533114 0.3107862 -0.9742361
v -0.9338401 0.3107862 -0.5735101
v -1.080516 0.3107863 -0.02610824
v -0.9338402 0.3107862 0.5212936
v -0.5331144 0.3107863 0.9220197
v 0.01428745 0.3107863 1.068696
v 0.5616894 0.3107863 0.9220203
v 0.9624157 0.3107862 0.5212945
vn 0.9565291 0.2916369 0
vn 0.4996757 0.03599384 -0.8654644
vn 0.4782642 0.2916372 -0.8283786
vn 0.999352 0.03599317 0
vn -0.4996756 0.03599416 -0.8654644
vn -0.4782643 0.2916372 -0.8283785
vn -0.999352 0.03599323 2.084522E-07
vn -0.9565291 0.2916369 0
vn 0.4942131 0.1516994 -0.8560027
vn -0.4942132 0.1516993 -0.8560027
vn -0.9884266 0.1516999 0
vn 0.9884266 0.1516999 0
vn 0.9511961 0.3085872 0
vn 0.475598 0.3085865 -0.8237602
vn -0.4755979 0.3085866 -0.8237602
vn -0.9511961 0.3085873 0
vn 0.4782642 0.2916369 0.8283787
vn 0.4996756 0.03599394 0.8654645
vn -0.4996757 0.03599392 0.8654644
vn -0.4782644 0.291637 0.8283785
vn 0.4942131 0.1516993 0.8560027
vn -0.4942132 0.1516993 0.8560027
vn 0.475598 0.3085866 0.8237602
vn -0.4755979 0.3085865 0.8237603
vn 0.4963094 0.1212737 0.8596335
vn -0.4963095 0.1212738 0.8596334
vn -0.9926191 0.1212739 0
vn -0.4963095 0.1212738 -0.8596334
vn 0.4963094 0.1212738 -0.8596335
vn 0.9926191 0.1212738 0
vn -0.4731314 0.3233961 -0.8194886
vn -0.9462636 0.3233964 0
vn 0.4731312 0.3233961 -0.8194888
vn 0.9462636 0.3233964 0
vn -0.4731313 0.323396 0.8194888
vn 0.4731313 0.323396 0.8194888
vn -0.9283019 0.3718274 0
vn -0.4641508 0.3718277 -0.803933
vn -0.1560072 0.9500774 -0.2702127
vn -0.3120143 0.9500774 0
vn 0.1560071 0.9500774 -0.2702127
vn 0.4641507 0.3718276 -0.8039331
vn 0.3120142 0.9500774 0
vn 0.9283019 0.3718273 0
vn -0.4641507 0.3718276 0.803933
vn -0.1560072 0.9500774 0.2702127
vn 0.4641507 0.3718275 0.8039332
vn 0.1560071 0.9500774 0.2702127
vn -0.6048413 0.796346 0
vn -0.3024207 0.7963456 -0.5238085
vn 0 1 1.690793E-07
vn 0.3024206 0.7963457 -0.5238085
vn 0.6048413 0.7963461 0
vn -0.3024206 0.7963456 0.5238087
vn 0.3024206 0.7963457 0.5238086
vn -0.7605343 0.6492978 -1.959881E-07
vn 0.8128709 -0.2032425 -0.5458328
vn 0.3628883 -0.30108 -0.881852
vn -0.5040884 0.2240347 -0.8340883
vn 0.5994005 -0.4661646 -0.6506995
vn 0.5313332 0.6073755 -0.5905761
vn 0.3628883 -0.3010802 0.881852
vn 0.5994004 -0.4661648 0.6506992
vn 0.8128707 -0.2032426 0.5458331
vn -0.5040897 0.224035 0.8340875
vn 0.5313331 0.6073752 0.5905764
vn 0.544577 0.5736246 -0.6118748
vn -0.8089128 -0.2370073 -0.5380406
vn 0.5680543 0.1761455 -0.8039198
vn -0.4298024 -0.3833582 -0.8175001
vn -0.6264127 -0.483584 -0.6113539
vn -0.5543405 0.6161774 -0.5594926
vn -0.4298018 -0.3833578 0.8175006
vn -0.6264126 -0.4835843 0.6113537
vn -0.8089128 -0.2370075 0.5380405
vn 0.544577 0.5736245 0.6118748
vn 0.5680554 0.1761456 0.803919
vn -0.5543405 0.6161771 0.5594928
vn 0.8173706 -0.5761123 1.476848E-07
vn 0.5954914 0.7260762 -0.3438072
vn 0.7078636 -0.5761123 -0.4086853
vn 0.6876143 0.7260761 0
vn 0.3438071 0.7260762 -0.5954913
vn 0.4086853 -0.5761122 -0.7078637
vn 0 0.7260763 -0.6876141
vn 0 -0.5761121 -0.8173707
vn -0.3438071 0.7260762 -0.5954913
vn -0.4086854 -0.5761121 -0.7078637
vn -0.5954915 0.7260761 -0.3438071
vn -0.7078636 -0.5761123 -0.4086852
vn -0.6876143 0.7260762 -1.147319E-07
vn -0.8173706 -0.5761122 0
vn -0.5954916 0.7260761 0.343807
vn -0.7078637 -0.5761124 0.4086851
vn -0.3438074 0.7260759 0.5954916
vn -0.4086854 -0.5761126 0.7078633
vn -3.678433E-07 0.726076 0.6876144
vn -4.485081E-07 -0.5761125 0.8173704
vn 0.3438069 0.7260759 0.5954919
vn 0.4086848 -0.5761125 0.7078637
vn 0.5954914 0.726076 0.3438075
vn 0.7078635 -0.5761123 0.4086856
vn -0.4857095 0.8741203 0
vn -0.4206368 0.8741203 0.2428546
vn -0.2428549 0.8741204 0.4206366
vn -2.136906E-07 0.8741203 0.4857096
vn 0.2428544 0.8741204 0.4206368
vn 0.4206365 0.8741204 0.2428549
vn 0.4857095 0.8741203 0
vn 0.4206368 0.8741203 -0.2428547
vn 0.2428547 0.8741203 -0.4206369
vn 0 0.8741203 -0.4857094
vn -0.2428547 0.8741203 -0.4206368
vn -0.4206368 0.8741203 -0.2428548
vn 0.531619 0.7894144 -0.3069303
vn 0.6138606 0.7894144 0
vn 0.3069303 0.7894144 -0.531619
vn 0 0.7894145 -0.6138606
vn -0.3069302 0.7894146 -0.5316189
vn -0.5316188 0.7894145 -0.3069303
vn -0.6138606 0.7894144 0
vn -0.531619 0.7894144 0.3069302
vn -0.3069304 0.7894145 0.5316188
vn -2.808387E-07 0.7894144 0.6138606
vn 0.3069299 0.7894146 0.5316191
vn 0.5316188 0.7894144 0.3069306
g Area_Ly_Build_Common_Censer_A_01_Col_0
f 3/3/3 2/2/2 1/1/1
f 4/4/4 1/1/1 2/2/2
f 2/2/2 3/3/3 5/5/5
f 6/6/6 5/5/5 3/3/3
f 5/5/5 6/6/6 7/7/7
f 8/8/8 7/7/7 6/6/6
f 3/3/3 9/9/9 6/6/6
f 10/10/10 6/6/6 9/9/9
f 10/10/10 11/11/11 6/6/6
f 8/8/8 6/6/6 11/11/11
f 9/9/9 3/3/3 12/12/12
f 1/1/1 12/12/12 3/3/3
f 12/12/12 13/13/13 9/9/9
f 14/14/14 9/9/9 13/13/13
f 14/14/14 15/15/15 9/9/9
f 10/10/10 9/9/9 15/15/15
f 10/10/10 15/15/15 11/11/11
f 16/16/16 11/11/11 15/15/15
f 1/1/1 4/4/4 17/17/17
f 1/1/1 17/17/17 12/12/12
f 18/18/18 17/17/17 4/4/4
f 18/18/18 19/19/19 17/17/17
f 7/7/7 8/8/8 19/19/19
f 20/20/20 17/17/17 19/19/19
f 20/20/20 19/19/19 8/8/8
f 8/8/8 11/11/11 20/20/20
f 17/17/17 20/20/20 21/21/21
f 21/21/21 12/12/12 17/17/17
f 12/12/12 21/21/21 13/13/13
f 22/22/22 21/21/21 20/20/20
f 22/22/22 20/20/20 11/11/11
f 11/11/11 16/16/16 22/22/22
f 23/23/23 13/13/13 21/21/21
f 21/21/21 22/22/22 23/23/23
f 24/24/24 23/23/23 22/22/22
f 24/24/24 22/22/22 16/16/16
f 18/18/18 25/25/25 19/19/19
f 26/26/26 19/19/19 25/25/25
f 19/19/19 26/26/26 7/7/7
f 27/27/27 7/7/7 26/26/26
f 7/7/7 27/27/27 5/5/5
f 28/28/28 5/5/5 27/27/27
f 5/5/5 28/28/28 2/2/2
f 29/29/29 2/2/2 28/28/28
f 2/2/2 29/29/29 4/4/4
f 30/30/30 4/4/4 29/29/29
f 4/4/4 30/30/30 18/18/18
f 25/25/25 18/18/18 30/30/30
f 28/28/28 27/27/27 31/31/31
f 32/32/32 31/31/31 27/27/27
f 27/27/27 26/26/26 32/32/32
f 31/31/31 33/33/33 28/28/28
f 29/29/29 28/28/28 33/33/33
f 33/33/33 34/34/34 29/29/29
f 30/30/30 29/29/29 34/34/34
f 35/35/35 32/32/32 26/26/26
f 26/26/26 25/25/25 35/35/35
f 36/36/36 35/35/35 25/25/25
f 34/34/34 36/36/36 30/30/30
f 25/25/25 30/30/30 36/36/36
f 32/32/32 37/37/37 31/31/31
f 38/38/38 31/31/31 37/37/37
f 31/31/31 38/38/38 33/33/33
f 38/38/38 37/37/37 39/39/39
f 40/40/40 39/39/39 37/37/37
f 39/39/39 41/41/41 38/38/38
f 42/42/42 38/38/38 41/41/41
f 42/42/42 33/33/33 38/38/38
f 33/33/33 42/42/42 34/34/34
f 41/41/41 43/43/43 42/42/42
f 44/44/44 42/42/42 43/43/43
f 44/44/44 34/34/34 42/42/42
f 34/34/34 44/44/44 36/36/36
f 37/37/37 45/45/45 40/40/40
f 37/37/37 32/32/32 45/45/45
f 35/35/35 45/45/45 32/32/32
f 46/46/46 40/40/40 45/45/45
f 45/45/45 47/47/47 46/46/46
f 45/45/45 35/35/35 47/47/47
f 36/36/36 47/47/47 35/35/35
f 47/47/47 36/36/36 44/44/44
f 48/48/48 46/46/46 47/47/47
f 43/43/43 48/48/48 44/44/44
f 47/47/47 44/44/44 48/48/48
f 40/40/40 49/49/49 39/39/39
f 50/50/50 39/39/39 49/49/49
f 39/39/39 50/50/50 41/41/41
f 51/51/51 50/50/50 49/49/49
f 51/51/51 52/52/52 50/50/50
f 52/52/52 41/41/41 50/50/50
f 41/41/41 52/52/52 43/43/43
f 51/51/51 53/53/53 52/52/52
f 53/53/53 43/43/43 52/52/52
f 43/43/43 53/53/53 48/48/48
f 51/51/51 49/49/49 54/54/54
f 49/49/49 40/40/40 54/54/54
f 46/46/46 54/54/54 40/40/40
f 51/51/51 54/54/54 55/55/55
f 51/51/51 55/55/55 53/53/53
f 54/54/54 46/46/46 55/55/55
f 48/48/48 55/55/55 46/46/46
f 55/55/55 48/48/48 53/53/53
f 58/58/58 57/57/57 56/56/56
f 59/59/59 56/56/56 57/57/57
f 58/58/58 56/56/56 60/60/60
f 61/61/61 60/60/60 56/56/56
f 58/58/58 60/60/60 62/62/62
f 63/63/63 62/62/62 60/60/60
f 60/60/60 61/61/61 63/63/63
f 62/62/62 63/63/63 56/56/56
f 57/57/57 58/58/58 64/64/64
f 62/62/62 64/64/64 58/58/58
f 62/62/62 56/56/56 64/64/64
f 65/65/65 56/56/56 59/59/59
f 65/65/65 64/64/64 56/56/56
f 66/66/66 61/61/61 56/56/56
f 66/66/66 63/63/63 61/61/61
f 66/66/66 56/56/56 63/63/63
f 69/69/69 68/68/68 67/67/67
f 70/70/70 67/67/67 68/68/68
f 70/70/70 71/71/71 67/67/67
f 72/72/72 67/67/67 71/71/71
f 70/70/70 73/73/73 71/71/71
f 74/74/74 71/71/71 73/73/73
f 71/71/71 74/74/74 72/72/72
f 73/73/73 70/70/70 75/75/75
f 68/68/68 75/75/75 70/70/70
f 67/67/67 76/76/76 69/69/69
f 73/73/73 75/75/75 76/76/76
f 73/73/73 76/76/76 74/74/74
f 77/77/77 69/69/69 76/76/76
f 77/77/77 76/76/76 75/75/75
f 76/76/76 67/67/67 78/78/78
f 72/72/72 78/78/78 67/67/67
f 78/78/78 72/72/72 74/74/74
f 78/78/78 74/74/74 76/76/76
f 81/81/81 80/80/80 79/79/79
f 82/82/82 79/79/79 80/80/80
f 80/80/80 81/81/81 83/83/83
f 84/84/84 83/83/83 81/81/81
f 83/83/83 84/84/84 85/85/85
f 86/86/86 85/85/85 84/84/84
f 79/79/79 86/86/86 81/81/81
f 81/81/81 86/86/86 84/84/84
f 85/85/85 86/86/86 87/87/87
f 88/88/88 87/87/87 86/86/86
f 87/87/87 88/88/88 89/89/89
f 90/90/90 89/89/89 88/88/88
f 88/88/88 86/86/86 90/90/90
f 89/89/89 90/90/90 91/91/91
f 92/92/92 91/91/91 90/90/90
f 90/90/90 86/86/86 92/92/92
f 91/91/91 92/92/92 93/93/93
f 94/94/94 93/93/93 92/92/92
f 92/92/92 86/86/86 94/94/94
f 93/93/93 94/94/94 95/95/95
f 96/96/96 95/95/95 94/94/94
f 94/94/94 86/86/86 96/96/96
f 95/95/95 96/96/96 97/97/97
f 98/98/98 97/97/97 96/96/96
f 96/96/96 86/86/86 98/98/98
f 97/97/97 98/98/98 99/99/99
f 100/100/100 99/99/99 98/98/98
f 98/98/98 86/86/86 100/100/100
f 99/99/99 100/100/100 101/101/101
f 102/102/102 101/101/101 100/100/100
f 101/101/101 102/102/102 82/82/82
f 79/79/79 82/82/82 102/102/102
f 91/91/91 103/103/103 89/89/89
f 93/93/93 104/104/104 91/91/91
f 103/103/103 91/91/91 104/104/104
f 95/95/95 105/105/105 93/93/93
f 104/104/104 93/93/93 105/105/105
f 97/97/97 106/106/106 95/95/95
f 105/105/105 95/95/95 106/106/106
f 99/99/99 107/107/107 97/97/97
f 106/106/106 97/97/97 107/107/107
f 101/101/101 108/108/108 99/99/99
f 107/107/107 99/99/99 108/108/108
f 82/82/82 109/109/109 101/101/101
f 108/108/108 101/101/101 109/109/109
f 109/109/109 82/82/82 110/110/110
f 80/80/80 110/110/110 82/82/82
f 110/110/110 80/80/80 111/111/111
f 83/83/83 111/111/111 80/80/80
f 111/111/111 83/83/83 112/112/112
f 85/85/85 112/112/112 83/83/83
f 112/112/112 85/85/85 113/113/113
f 87/87/87 113/113/113 85/85/85
f 113/113/113 87/87/87 114/114/114
f 89/89/89 114/114/114 87/87/87
f 114/114/114 89/89/89 103/103/103
f 110/110/110 115/115/115 109/109/109
f 116/116/116 109/109/109 115/115/115
f 109/109/109 116/116/116 108/108/108
f 111/111/111 117/117/117 110/110/110
f 115/115/115 110/110/110 117/117/117
f 112/112/112 118/118/118 111/111/111
f 117/117/117 111/111/111 118/118/118
f 113/113/113 119/119/119 112/112/112
f 118/118/118 112/112/112 119/119/119
f 114/114/114 120/120/120 113/113/113
f 119/119/119 113/113/113 120/120/120
f 103/103/103 121/121/121 114/114/114
f 120/120/120 114/114/114 121/121/121
f 121/121/121 103/103/103 122/122/122
f 104/104/104 122/122/122 103/103/103
f 122/122/122 104/104/104 123/123/123
f 105/105/105 123/123/123 104/104/104
f 123/123/123 105/105/105 124/124/124
f 115/115/115 124/124/124 116/116/116
f 117/117/117 124/124/124 115/115/115
f 118/118/118 124/124/124 117/117/117
f 119/119/119 124/124/124 118/118/118
f 120/120/120 124/124/124 119/119/119
f 121/121/121 124/124/124 120/120/120
f 122/122/122 124/124/124 121/121/121
f 123/123/123 124/124/124 122/122/122
f 106/106/106 124/124/124 105/105/105
f 124/124/124 106/106/106 125/125/125
f 107/107/107 125/125/125 106/106/106
f 125/125/125 107/107/107 126/126/126
f 126/126/126 124/124/124 125/125/125
f 116/116/116 124/124/124 126/126/126
f 108/108/108 126/126/126 107/107/107
f 126/126/126 108/108/108 116/116/116
f 102/102/102 86/86/86 79/79/79
f 100/100/100 86/86/86 102/102/102
