g Area_Ly_Build_Common_Bridge_S_02_A_Col
v -1.69821 1.827126 7.93715
v -1.69821 0.9559641 5.995743
v 1.524471 1.088498 5.989557
v -0.7346808 0.5163739 4.22982
v -1.69821 0.4616399 4.228926
v 1.524471 0.5982061 4.259821
v 1.524471 1.902267 7.93715
v -1.556203 0.2969618 4.116
v -1.548098 0.244605 3.7828
v 1.524471 0.5085348 3.384578
v -0.7258034 0.3914323 3.550124
v 1.524471 0.2954224 2.272061
v -1.69821 0.2608464 2.718883
v -1.702712 0.3555828 3.699221
v -1.69821 0.1423732 1.239646
v 1.524471 0.1581924 1.224081
v -1.69821 0.1496032 -0.3999463
v 1.524471 0.1595024 -0.3999464
v 1.524471 0.3157729 -1.963611
v -1.69821 0.3299885 -1.919633
v -1.69821 0.545168 -2.828956
v 1.524471 0.3967015 -2.896528
v -1.69821 0.7693988 -3.649099
v 1.524471 0.6242728 -3.793157
v 1.524471 0.7955858 -4.740913
v -1.69821 0.9979265 -4.496269
v -1.69821 1.166224 -5.251917
v 1.524471 1.135247 -5.619236
v 1.524471 1.459884 -6.392378
v -1.69821 1.49069 -6.187765
v 1.524471 1.786803 -7.392184
v -1.69821 1.81489 -7.187165
v 1.524471 1.902267 7.93715
v -1.69821 1.314535 7.93715
v -1.69821 1.827126 7.93715
v 1.524471 1.314535 7.93715
v 1.524471 1.314535 7.93715
v 1.524471 1.902267 7.93715
v 1.524471 1.088498 5.989557
v 1.524471 0.5982061 4.259821
v 1.524471 -0.0954234 2.746858
v 1.524471 0.5085348 3.384578
v 1.524471 0.2954224 2.272061
v 1.524471 0.1581924 1.224081
v 1.524471 -0.09542326 -0.3999464
v 1.524471 0.1595024 -0.3999464
v 1.524471 -0.09542319 -1.968995
v 1.524471 0.3157729 -1.963611
v 1.524471 0.08391462 -2.907556
v 1.524471 0.3967015 -2.896528
v 1.524471 0.6242728 -3.793157
v 1.524471 0.08391462 -2.907556
v 1.524471 0.5811492 -4.740912
v -1.69821 0.5811492 -4.650508
v 1.524471 1.413962 -7.392184
v -1.69821 1.413962 -7.187165
v -1.69821 -0.0954232 -1.707107
v -1.69821 0.545168 -2.828956
v -1.69821 0.7693988 -3.649099
v -1.69821 0.3299885 -1.919633
v 1.524471 0.7955858 -4.740913
v -1.69821 1.413962 -7.187165
v -1.69821 1.166224 -5.251917
v -1.69821 1.49069 -6.187765
v -1.69821 1.81489 -7.187165
v -1.69821 -0.0954232 -1.707107
v -1.69821 -0.09542326 -0.3999463
v -1.69821 0.1496032 -0.3999463
v -1.69821 -0.0954234 2.879238
v -1.69821 0.1423732 1.239646
v -1.69821 0.2608464 2.718883
v -1.702712 -0.09542344 3.733817
v -1.702712 0.3555828 3.699221
v -1.69821 0.5811492 -4.650508
v -1.69821 0.9979265 -4.496269
v 1.524471 1.413962 -7.392184
v 1.524471 1.135247 -5.619236
v 1.524471 1.459884 -6.392378
v 1.524471 1.786803 -7.392184
v 1.524471 0.5811492 -4.740912
v -1.69821 1.81489 -7.187165
v 1.524471 1.413962 -7.392184
v 1.524471 1.786803 -7.392184
v -1.69821 1.413962 -7.187165
v -1.69821 0.4616399 4.228926
v -1.69821 1.314535 7.93715
v -1.69821 -0.09542346 4.228926
v -1.69821 0.9559641 5.995743
v -1.69821 1.827126 7.93715
v 1.524471 0.08391462 -2.907556
v -1.69821 -0.09542326 -0.3999463
v 1.524471 -0.09542319 -1.968995
v -1.69821 -0.0954232 -1.707107
v 1.524471 -0.09542326 -0.3999464
v 1.524471 -0.0954234 2.746858
v -1.69821 -0.0954234 2.879238
v -1.612034 -0.09542344 3.774206
v -1.620911 -0.09542346 4.085328
v 1.524471 1.314535 7.93715
v -1.702712 -0.09542344 3.733817
v -1.69821 1.314535 7.93715
v -1.69821 -0.09542346 4.228926
v -1.556203 0.2969618 4.116
v -1.612034 -0.09542344 3.774206
v -1.548098 0.244605 3.7828
v -1.620911 -0.09542346 4.085328
v -1.69821 -0.09542346 4.228926
v -1.620911 -0.09542346 4.085328
v -1.69821 0.4616399 4.228926
v -1.69821 0.4616399 4.228926
v -1.556203 0.2969618 4.116
v -0.7346808 0.5163739 4.22982
v -1.702712 -0.09542344 3.733817
v -1.702712 0.3555828 3.699221
v -1.548098 0.244605 3.7828
v -1.612034 -0.09542344 3.774206
v -1.548098 0.244605 3.7828
v -1.702712 0.3555828 3.699221
v -0.7258034 0.3914323 3.550124
v -1.69821 0.4616399 4.228926
v -1.620911 -0.09542346 4.085328
v -1.556203 0.2969618 4.116
vn -0.01525347 0.9152085 -0.4026918
vn -0.01984194 0.9417291 -0.3357867
vn -0.01373639 0.9439951 -0.3296733
vn -0.01220735 0.7896631 -0.6134194
vn -0.02442598 0.962918 -0.2686858
vn -0.02900519 0.9777802 -0.2076161
vn -0.009154545 0.9230834 -0.3844909
vn -0.04124256 0.9827567 -0.1802453
vn -0.04123897 0.9962265 -0.07636846
vn -0.03665406 0.9885141 -0.1466162
vn -0.009917554 0.9806935 0.1952995
vn -0.01526083 0.9890924 -0.1465039
vn -0.01526097 0.9953967 -0.09461801
vn -0.02289879 0.9949523 -0.0977015
vn -0.006103319 0.9991325 -0.04119741
vn -0.003051803 0.9979395 -0.06408785
vn 0 0.998273 0.05874438
vn -0.001525944 0.9987301 0.05035614
vn 0.009155897 0.9945595 0.1037669
vn 0.003052288 0.9847444 0.1739804
vn 0.01373716 0.9711409 0.2381108
vn 0.02289295 0.9855413 0.1678816
vn 0.02899922 0.9661319 0.2564141
vn 0.02442193 0.9772588 0.2106391
vn 0.02441701 0.9629459 0.2685871
vn 0.03512678 0.9705681 0.2382512
vn 0.02442465 0.9594309 0.2808835
vn 0.0228901 0.9278119 0.3723456
vn 0.01677966 0.9396611 0.341695
vn 0.01374108 0.9481347 0.3175717
vn 0.0122026 0.9502772 0.3111662
vn 0.0122026 0.9502772 0.3111662
vn 0 0 1
vn 0 0 1
vn 0 0 1
vn 0 0 1
vn 1 0 0
vn 1 0 0
vn 1 0 0
vn 1 0 0
vn 1 0 0
vn 1 0 0
vn 1 0 0
vn 1 0 0
vn 1 0 0
vn 1 0 0
vn 1 0 0
vn 1 0 0
vn 1 0 0
vn 1 0 0
vn 1 0 0
vn 0.5613387 -0.8024107 -0.2025735
vn 0.4995172 -0.8313733 -0.2435178
vn -0.282228 -0.923402 -0.2601467
vn -0.01345064 -0.9522373 -0.3050624
vn -0.0198403 -0.9499181 -0.3118686
vn -0.6035849 -0.7770351 -0.1786099
vn -1 0 0
vn -1 0 0
vn -1 0 0
vn 1 0 0
vn -1 0 0
vn -1 0 0
vn -1 0 0
vn -1 0 0
vn -1 0 0
vn -1 0 0
vn -1 0 0
vn -0.9999574 -0.001700608 -0.009069909
vn -1 0 0
vn -0.9999892 -0.001133775 -0.004535098
vn -0.9999557 -0.002550907 -0.009069893
vn -0.9999548 -0.002834339 -0.009069885
vn -1 0 0
vn -1 0 0
vn 1 0 0
vn 1 0 0
vn 1 0 0
vn 1 0 0
vn 1 0 0
vn -0.02895127 0 -0.9995808
vn -0.02895127 0 -0.9995808
vn -0.02895127 0 -0.9995808
vn -0.02895127 0 -0.9995808
vn -1 0 0
vn -1 0 0
vn -1 0 0
vn -1 0 0
vn -1 0 0
vn 0 -1 0
vn 0 -1 0
vn 0 -1 0
vn 0 -1 0
vn 0 -1 0
vn 0 -1 0
vn 0 -1 0
vn 0 -1 0
vn 0 -1 0
vn 0 -1 0
vn 0 -1 0
vn 0 -1 0
vn 0 -1 0
vn -0.9279146 0.3634877 -0.08277173
vn -0.9278687 0.3636059 -0.08276763
vn -0.9279146 0.3634877 -0.08277173
vn -0.9278687 0.3636059 -0.08276763
vn -0.6438483 0 -0.7651531
vn -0.6427538 0 -0.7660729
vn -0.6438483 0 -0.7651531
vn -0.0137366 0.5479378 -0.8364063
vn -0.0137366 0.5479378 -0.8364063
vn -0.0137366 0.5479378 -0.8364063
vn -0.2130082 0.07459201 0.9741989
vn -0.213005 0.07478669 0.9741847
vn -0.2145025 0.07456703 0.9738729
vn -0.1984979 0.05734165 0.9784225
vn 0.03970478 0.6757448 0.7360656
vn 0.04122934 0.675703 0.73602
vn 0.03970478 0.6757448 0.7360656
vn -0.2554899 0.167814 -0.9521363
vn -0.2540099 0.1677855 -0.9525372
vn -0.2554899 0.167814 -0.9521363
g Area_Ly_Build_Common_Bridge_S_02_A_Col_0
f 3/3/3 2/2/2 1/1/1
f 4/4/4 2/2/2 3/3/3
f 5/5/5 2/2/2 4/4/4
f 6/6/6 4/4/4 3/3/3
f 7/7/7 3/3/3 1/1/1
f 8/8/8 4/4/4 6/6/6
f 8/8/8 6/6/6 9/9/9
f 10/10/10 9/9/9 6/6/6
f 11/11/11 9/9/9 10/10/10
f 12/12/12 11/11/11 10/10/10
f 13/13/13 11/11/11 12/12/12
f 14/14/14 11/11/11 13/13/13
f 15/15/15 13/13/13 12/12/12
f 16/16/16 15/15/15 12/12/12
f 17/17/17 15/15/15 16/16/16
f 18/18/18 17/17/17 16/16/16
f 19/19/19 17/17/17 18/18/18
f 20/20/20 17/17/17 19/19/19
f 21/21/21 20/20/20 19/19/19
f 22/22/22 21/21/21 19/19/19
f 23/23/23 21/21/21 22/22/22
f 24/24/24 23/23/23 22/22/22
f 25/25/25 23/23/23 24/24/24
f 26/26/26 23/23/23 25/25/25
f 27/27/27 26/26/26 25/25/25
f 28/28/28 27/27/27 25/25/25
f 29/29/29 27/27/27 28/28/28
f 30/30/30 27/27/27 29/29/29
f 31/31/31 30/30/30 29/29/29
f 32/32/32 30/30/30 31/31/31
f 35/35/35 34/34/34 33/33/33
f 36/36/36 33/33/33 34/34/34
f 39/39/39 38/38/38 37/37/37
f 40/40/40 39/39/39 37/37/37
f 40/40/40 37/37/37 41/41/41
f 42/42/42 40/40/40 41/41/41
f 43/43/43 42/42/42 41/41/41
f 44/44/44 43/43/43 41/41/41
f 45/45/45 44/44/44 41/41/41
f 46/46/46 44/44/44 45/45/45
f 45/45/45 47/47/47 46/46/46
f 48/48/48 46/46/46 47/47/47
f 47/47/47 49/49/49 48/48/48
f 50/50/50 48/48/48 49/49/49
f 50/50/50 52/52/52 51/51/51
f 51/51/51 52/52/52 53/53/53
f 54/54/54 53/53/53 52/52/52
f 53/53/53 54/54/54 55/55/55
f 56/56/56 55/55/55 54/54/54
f 57/57/57 54/54/54 52/52/52
f 58/58/58 54/54/54 57/57/57
f 59/59/59 54/54/54 58/58/58
f 60/60/60 58/58/58 57/57/57
f 61/61/61 51/51/51 53/53/53
f 54/54/54 63/63/63 62/62/62
f 63/63/63 64/64/64 62/62/62
f 64/64/64 65/65/65 62/62/62
f 67/67/67 60/60/60 66/66/66
f 68/68/68 60/60/60 67/67/67
f 69/69/69 68/68/68 67/67/67
f 68/68/68 69/69/69 70/70/70
f 71/71/71 70/70/70 69/69/69
f 69/69/69 72/72/72 71/71/71
f 73/73/73 71/71/71 72/72/72
f 59/59/59 75/75/75 74/74/74
f 75/75/75 63/63/63 74/74/74
f 77/77/77 61/61/61 76/76/76
f 78/78/78 77/77/77 76/76/76
f 79/79/79 78/78/78 76/76/76
f 61/61/61 80/80/80 76/76/76
f 83/83/83 82/82/82 81/81/81
f 84/84/84 81/81/81 82/82/82
f 87/87/87 86/86/86 85/85/85
f 88/88/88 85/85/85 86/86/86
f 89/89/89 88/88/88 86/86/86
f 92/92/92 91/91/91 90/90/90
f 93/93/93 90/90/90 91/91/91
f 92/92/92 94/94/94 91/91/91
f 94/94/94 95/95/95 91/91/91
f 96/96/96 91/91/91 95/95/95
f 96/96/96 95/95/95 97/97/97
f 97/97/97 95/95/95 98/98/98
f 99/99/99 98/98/98 95/95/95
f 100/100/100 96/96/96 97/97/97
f 99/99/99 101/101/101 98/98/98
f 102/102/102 98/98/98 101/101/101
f 105/105/105 104/104/104 103/103/103
f 106/106/106 103/103/103 104/104/104
f 109/109/109 108/108/108 107/107/107
f 112/112/112 111/111/111 110/110/110
f 115/115/115 114/114/114 113/113/113
f 116/116/116 115/115/115 113/113/113
f 119/119/119 118/118/118 117/117/117
f 122/122/122 121/121/121 120/120/120
