g Area_Ly_Build_Common_Archway_01_Ocl_Col
v -2.719516 7.524488 1.30274
v 2.704296 7.524488 -1.2826
v 2.704296 7.524488 1.30274
v -2.719516 7.524488 -1.2826
v -4.341032 5.386625 1.167851
v -1.120539 5.386625 -1.119217
v -1.120539 5.386625 1.167851
v -4.341032 5.386625 -1.119217
v 1.172099 5.386625 1.167851
v 4.392592 5.386625 -1.119217
v 4.392592 5.386625 1.167851
v 1.172099 5.386625 -1.119217
vn 0 1 0
vn 0 1 0
vn 0 1 0
vn 0 1 0
vn 0 1 0
vn 0 1 0
vn 0 1 0
vn 0 1 0
vn -1.895212E-07 1 0
vn -1.895212E-07 1 0
vn -1.895212E-07 1 0
vn -1.895212E-07 1 0
g Area_Ly_Build_Common_Archway_01_Ocl_Col_0
f 3/3/3 2/2/2 1/1/1
f 4/4/4 1/1/1 2/2/2
f 7/7/7 6/6/6 5/5/5
f 8/8/8 5/5/5 6/6/6
f 11/11/11 10/10/10 9/9/9
f 12/12/12 9/9/9 10/10/10
