g Area_Common_Build_Plinth_E_01_Lod1
v 1.080194 -0.2496641 1.080194
v -1.080193 -0.2496641 -1.080194
v -1.080193 -0.2496641 1.080194
v 1.080194 -0.2496641 -1.080194
v -1.080193 0.1238904 1.080193
v 1.080194 -0.2496641 1.080194
v -1.080193 -0.2496641 1.080194
v 1.080193 0.1238904 1.080193
v 1.080193 0.1238904 1.080193
v 1.080194 -0.2496641 -1.080194
v 1.080194 -0.2496641 1.080194
v 1.080193 0.1238904 -1.080193
v 1.080193 0.1238904 -1.080193
v -1.080193 -0.2496641 -1.080194
v 1.080194 -0.2496641 -1.080194
v -1.080193 0.1238904 -1.080193
v -1.080193 0.1238904 -1.080193
v -1.080193 -0.2496641 1.080194
v -1.080193 -0.2496641 -1.080194
v -1.080193 0.1238904 1.080193
v -1.080193 0.1238904 1.080193
v 0.9442424 0.2646856 0.9442422
v 1.080193 0.1238904 1.080193
v -0.9442424 0.2646856 0.9442422
v 1.080193 0.1238904 1.080193
v 0.9442424 0.2646857 -0.9442422
v 1.080193 0.1238904 -1.080193
v 0.9442424 0.2646856 0.9442422
v 1.080193 0.1238904 -1.080193
v -0.9442424 0.2646857 -0.9442422
v -1.080193 0.1238904 -1.080193
v 0.9442424 0.2646857 -0.9442422
v -1.080193 0.1238904 -1.080193
v -0.9442424 0.2646856 0.9442422
v -1.080193 0.1238904 1.080193
v -0.9442424 0.2646857 -0.9442422
v -1.080193 0.9716781 -1.080194
v 1.080193 0.9716784 1.080194
v -1.080194 0.9716784 1.080193
v 1.080194 0.9716781 -1.080193
v -1.080194 0.7069852 1.080194
v -1.080193 0.9716781 -1.080194
v -1.080194 0.9716784 1.080193
v -1.080193 0.706985 -1.080193
v -1.080193 0.706985 -1.080193
v 1.080194 0.9716781 -1.080193
v -1.080193 0.9716781 -1.080194
v 1.080193 0.706985 -1.080193
v 1.080193 0.706985 -1.080193
v 1.080193 0.9716784 1.080194
v 1.080194 0.9716781 -1.080193
v 1.080193 0.7069852 1.080194
v 1.080193 0.7069852 1.080194
v -1.080194 0.9716784 1.080193
v 1.080193 0.9716784 1.080194
v -1.080194 0.7069852 1.080194
v -1.080194 0.7069852 1.080194
v -0.9442421 0.5661898 -0.9442422
v -1.080193 0.706985 -1.080193
v -0.9442424 0.5661899 0.9442425
v -1.080193 0.706985 -1.080193
v 0.9442422 0.5661898 -0.9442422
v 1.080193 0.706985 -1.080193
v -0.9442421 0.5661898 -0.9442422
v 1.080193 0.706985 -1.080193
v 0.9442421 0.5661899 0.9442426
v 1.080193 0.7069852 1.080194
v 0.9442422 0.5661898 -0.9442422
v 1.080193 0.7069852 1.080194
v -0.9442424 0.5661899 0.9442425
v -1.080194 0.7069852 1.080194
v 0.9442421 0.5661899 0.9442426
v -0.8798302 2.719298 0.8798301
v 0.8798301 2.719298 -0.8798301
v 0.8798301 2.719298 0.8798301
v -0.8798301 2.719298 -0.8798301
v 0.8798301 2.51708 0.8798303
v -0.8798302 2.719298 0.8798301
v 0.8798301 2.719298 0.8798301
v -0.8798301 2.51708 0.8798303
v -0.8798301 2.51708 0.8798303
v -0.8798301 2.719298 -0.8798301
v -0.8798302 2.719298 0.8798301
v -0.8798301 2.51708 -0.87983
v -0.8798301 2.51708 -0.87983
v 0.8798301 2.719298 -0.8798301
v -0.8798301 2.719298 -0.8798301
v 0.8798301 2.51708 -0.87983
v 0.8798301 2.51708 -0.87983
v 0.8798301 2.719298 0.8798301
v 0.8798301 2.719298 -0.8798301
v 0.8798301 2.51708 0.8798303
v 0.8798301 2.51708 0.8798303
v -0.7138448 2.400895 0.7138447
v -0.8798301 2.51708 0.8798303
v 0.7138448 2.400895 0.7138447
v -0.8798301 2.51708 0.8798303
v -0.7138448 2.400895 -0.7138445
v -0.8798301 2.51708 -0.87983
v -0.7138448 2.400895 0.7138447
v -0.8798301 2.51708 -0.87983
v 0.7138448 2.400895 -0.7138445
v 0.8798301 2.51708 -0.87983
v -0.7138448 2.400895 -0.7138445
v 0.8798301 2.51708 -0.87983
v 0.7138448 2.400895 0.7138447
v 0.8798301 2.51708 0.8798303
v 0.7138448 2.400895 -0.7138445
v 0.9442421 0.5661899 0.9442426
v 0.9442424 0.2646857 -0.9442422
v 0.9442424 0.2646856 0.9442422
v 0.9442422 0.5661898 -0.9442422
v 0.9442422 0.5661898 -0.9442422
v -0.9442424 0.2646857 -0.9442422
v 0.9442424 0.2646857 -0.9442422
v -0.9442421 0.5661898 -0.9442422
v -0.9442421 0.5661898 -0.9442422
v -0.9442424 0.2646856 0.9442422
v -0.9442424 0.2646857 -0.9442422
v -0.9442424 0.5661899 0.9442425
v 0.9442421 0.5661899 0.9442426
v -0.9442424 0.2646856 0.9442422
v -0.9442424 0.5661899 0.9442425
v 0.9442424 0.2646856 0.9442422
v 0.7138448 2.400895 0.7138447
v -0.9465446 0.9392698 0.9465448
v -0.7138448 2.400895 0.7138447
v 0.9465446 0.9392698 0.9465448
v -0.7138448 2.400895 0.7138447
v -0.9465446 0.9392698 -0.9465439
v -0.7138448 2.400895 -0.7138445
v -0.9465446 0.9392698 0.9465448
v -0.7138448 2.400895 -0.7138445
v 0.9465446 0.9392698 -0.9465439
v 0.7138448 2.400895 -0.7138445
v -0.9465446 0.9392698 -0.9465439
v 0.7138448 2.400895 -0.7138445
v 0.9465446 0.9392698 0.9465448
v 0.7138448 2.400895 0.7138447
v 0.9465446 0.9392698 -0.9465439
vt 0.6515493 0.3326005
vt 0.7364413 0.4154731
vt 0.7364432 0.3325959
vt 0.6515513 0.4154686
vt 0.5142727 0.2981841
vt 0.58635 0.2825859
vt 0.5142727 0.2825859
vt 0.58635 0.2981841
vt 0.5972459 0.2981841
vt 0.6668631 0.2825859
vt 0.5972459 0.2825859
vt 0.6668631 0.2981841
vt 0.5142007 0.2701247
vt 0.5862793 0.2545264
vt 0.5142007 0.2545264
vt 0.5862793 0.2701247
vt 0.5971543 0.2701247
vt 0.6668688 0.2545264
vt 0.5971543 0.2545264
vt 0.6668688 0.2701247
vt 0.5142727 0.3006537
vt 0.5814075 0.3087322
vt 0.58635 0.3006537
vt 0.5193498 0.3087322
vt 0.5972459 0.3006537
vt 0.6619418 0.3087322
vt 0.6668631 0.3006537
vt 0.6022769 0.3087322
vt 0.5142007 0.2723142
vt 0.5812182 0.2803926
vt 0.5862793 0.2723142
vt 0.5191309 0.2803926
vt 0.5971543 0.2723142
vt 0.6626687 0.2803926
vt 0.6668688 0.2723142
vt 0.6013788 0.2803926
vt 0.6515493 0.3326005
vt 0.7364413 0.4154731
vt 0.7364432 0.3325959
vt 0.6515513 0.4154686
vt 0.5142727 0.2981841
vt 0.58635 0.2825859
vt 0.5142727 0.2825859
vt 0.58635 0.2981841
vt 0.5972459 0.2981841
vt 0.6668631 0.2825859
vt 0.5972459 0.2825859
vt 0.6668631 0.2981841
vt 0.5142007 0.2701247
vt 0.5862793 0.2545264
vt 0.5142007 0.2545264
vt 0.5862793 0.2701247
vt 0.5971543 0.2701247
vt 0.6668688 0.2545264
vt 0.5971543 0.2545264
vt 0.6668688 0.2701247
vt 0.5142727 0.3006537
vt 0.5814075 0.3087322
vt 0.58635 0.3006537
vt 0.5193498 0.3087322
vt 0.5972459 0.3006537
vt 0.6619418 0.3087322
vt 0.6668631 0.3006537
vt 0.6022769 0.3087322
vt 0.5142007 0.2723142
vt 0.5812182 0.2803926
vt 0.5862793 0.2723142
vt 0.5191309 0.2803926
vt 0.5971543 0.2723142
vt 0.6626687 0.2803926
vt 0.6668688 0.2723142
vt 0.6013788 0.2803926
vt 0.6515493 0.3326005
vt 0.7364413 0.4154731
vt 0.7364432 0.3325959
vt 0.6515513 0.4154686
vt 0.5142727 0.2981841
vt 0.58635 0.2825859
vt 0.5142727 0.2825859
vt 0.58635 0.2981841
vt 0.5972459 0.2981841
vt 0.6668631 0.2825859
vt 0.5972459 0.2825859
vt 0.6668631 0.2981841
vt 0.5142007 0.2701247
vt 0.5862793 0.2545264
vt 0.5142007 0.2545264
vt 0.5862793 0.2701247
vt 0.5971543 0.2701247
vt 0.6668688 0.2545264
vt 0.5971543 0.2545264
vt 0.6668688 0.2701247
vt 0.5142727 0.3006537
vt 0.5814075 0.3087322
vt 0.58635 0.3006537
vt 0.5193498 0.3087322
vt 0.5972459 0.3006537
vt 0.6619418 0.3087322
vt 0.6668631 0.3006537
vt 0.6022769 0.3087322
vt 0.5142007 0.2723142
vt 0.5812182 0.2803926
vt 0.5862793 0.2723142
vt 0.5191309 0.2803926
vt 0.5971543 0.2723142
vt 0.6626687 0.2803926
vt 0.6668688 0.2723142
vt 0.6013788 0.2803926
vt 0.5144747 0.2978123
vt 0.5827979 0.2829293
vt 0.5144747 0.2829293
vt 0.5827979 0.2978123
vt 0.5144747 0.2978123
vt 0.5827979 0.2829293
vt 0.5144747 0.2829293
vt 0.5827978 0.2978123
vt 0.5144746 0.2978123
vt 0.5827979 0.2829293
vt 0.5144747 0.2829293
vt 0.5827979 0.2978123
vt 0.5827979 0.2978123
vt 0.5144747 0.2829293
vt 0.5144747 0.2978123
vt 0.5827979 0.2829293
vt 0.5727682 0.1849803
vt 0.5073951 0.1202432
vt 0.518349 0.1849803
vt 0.5837221 0.1202432
vt 0.5727682 0.1849803
vt 0.5073951 0.1202432
vt 0.5183491 0.1849803
vt 0.5837221 0.1202432
vt 0.5727682 0.1849803
vt 0.5073951 0.1202432
vt 0.5183491 0.1849803
vt 0.5837221 0.1202432
vt 0.5727682 0.1849803
vt 0.5073951 0.1202432
vt 0.5183491 0.1849803
vt 0.5837221 0.1202432
vn 0 -1 0
vn 0 -1 0
vn 0 -1 0
vn 0 -1 0
vn 0 2.042378E-07 1
vn 0 2.042378E-07 1
vn 0 2.042378E-07 1
vn 0 2.042378E-07 1
vn 1 4.084756E-07 0
vn 1 4.084756E-07 0
vn 1 4.084756E-07 0
vn 1 4.084756E-07 0
vn 0 2.042378E-07 -1
vn 0 2.042378E-07 -1
vn 0 2.042378E-07 -1
vn 0 2.042378E-07 -1
vn -1 0 0
vn -1 0 0
vn -1 0 0
vn -1 0 0
vn 0 0.6946238 0.7193733
vn 0 0.6946238 0.7193733
vn 0 0.6946238 0.7193733
vn 0 0.6946237 0.7193733
vn 0.7193739 0.6946231 0
vn 0.7193739 0.6946231 0
vn 0.7193739 0.6946231 0
vn 0.7193739 0.6946231 0
vn 0 0.6946237 -0.7193733
vn 0 0.6946237 -0.7193733
vn 0 0.6946236 -0.7193733
vn 0 0.6946236 -0.7193733
vn -0.7193739 0.6946231 0
vn -0.7193739 0.6946231 0
vn -0.7193739 0.6946231 0
vn -0.7193739 0.694623 0
vn 0 1 -1.412598E-07
vn 0 1 -1.412598E-07
vn 0 1 -1.412598E-07
vn 0 1 -1.412598E-07
vn -1 -5.317294E-07 -1.357779E-07
vn -1 0 0
vn -1 -5.764708E-07 -1.412597E-07
vn -1 0 0
vn 0 -5.764709E-07 -1
vn 0 -5.76471E-07 -1
vn 0 -5.764709E-07 -1
vn 0 -5.76471E-07 -1
vn 1 -5.764709E-07 0
vn 1 -5.764708E-07 0
vn 1 -5.764708E-07 0
vn 1 -5.764708E-07 0
vn -1.71093E-07 0 1
vn -1.114266E-07 5.317291E-07 1
vn -1.765747E-07 0 1
vn -1.059448E-07 5.764706E-07 1
vn -0.7193736 -0.6946234 0
vn -0.719373 -0.6946239 0
vn -0.719373 -0.694624 0
vn -0.7193736 -0.6946234 0
vn 0 -0.6946234 -0.7193736
vn 0 -0.6946232 -0.7193738
vn 0 -0.6946232 -0.7193738
vn 0 -0.6946234 -0.7193736
vn 0.7193735 -0.6946235 1.152649E-07
vn 0.7193736 -0.6946235 1.239518E-07
vn 0.7193735 -0.6946235 1.244011E-07
vn 0.7193735 -0.6946235 1.142497E-07
vn 0 -0.6946231 0.7193739
vn 0 -0.6946228 0.7193741
vn 0 -0.6946228 0.7193742
vn 0 -0.6946232 0.7193738
vn 0 1 0
vn 0 1 0
vn 0 1 0
vn 0 1 0
vn 0 7.545712E-07 1
vn 0 7.545712E-07 1
vn 0 7.545712E-07 1
vn 0 7.545712E-07 1
vn -1 -3.49804E-07 0
vn -1 0 0
vn -1 -3.772856E-07 0
vn -1 0 0
vn 0 -7.545713E-07 -1
vn 0 -7.545713E-07 -1
vn 0 -7.545712E-07 -1
vn 0 -7.545712E-07 -1
vn 1 0 0
vn 1 3.498041E-07 0
vn 1 0 0
vn 1 3.772856E-07 0
vn 0 -0.8192425 0.573447
vn 0 -0.8192425 0.5734471
vn 0 -0.8192425 0.5734471
vn 0 -0.8192425 0.573447
vn -0.5734478 -0.8192422 0
vn -0.5734477 -0.8192422 0
vn -0.5734477 -0.8192422 0
vn -0.5734477 -0.8192422 0
vn 0 -0.8192424 -0.5734473
vn 0 -0.8192424 -0.5734473
vn 0 -0.8192424 -0.5734473
vn 0 -0.8192424 -0.5734473
vn 0.5734478 -0.8192422 0
vn 0.5734477 -0.8192422 0
vn 0.5734477 -0.8192422 0
vn 0.5734477 -0.8192422 0
vn 1 9.611697E-07 0
vn 1 5.570968E-07 0
vn 1 1.012177E-06 0
vn 1 5.06089E-07 0
vn 0 0 -1
vn 0 -2.275406E-07 -1
vn 0 0 -1
vn 0 -2.530445E-07 -1
vn -1 9.10162E-07 0
vn -1 1.02016E-07 -1.45311E-07
vn -1 1.012178E-06 0
vn -1 0 -1.615982E-07
vn 0 -1.492762E-06 1
vn 0 -1.290726E-06 1
vn 0 -1.265222E-06 1
vn 0 -1.518266E-06 1
vn 0 0.1572263 0.9875627
vn 0 0.1572263 0.9875627
vn 0 0.1572263 0.9875627
vn 0 0.1572263 0.9875627
vn -0.9875627 0.1572261 0
vn -0.9875627 0.1572262 0
vn -0.9875627 0.1572262 0
vn -0.9875627 0.1572262 0
vn 0 0.1572259 -0.9875627
vn 0 0.1572259 -0.9875627
vn 0 0.1572259 -0.9875627
vn 0 0.1572259 -0.9875627
vn 0.9875627 0.1572262 0
vn 0.9875627 0.1572262 0
vn 0.9875627 0.1572262 0
vn 0.9875627 0.1572261 0
g Area_Common_Build_Plinth_E_01_Lod1_0
f 3/3/3 2/2/2 1/1/1
f 4/4/4 1/1/1 2/2/2
f 7/7/7 6/6/6 5/5/5
f 8/8/8 5/5/5 6/6/6
f 11/11/11 10/10/10 9/9/9
f 12/12/12 9/9/9 10/10/10
f 15/15/15 14/14/14 13/13/13
f 16/16/16 13/13/13 14/14/14
f 19/19/19 18/18/18 17/17/17
f 20/20/20 17/17/17 18/18/18
f 23/23/23 22/22/22 21/21/21
f 24/24/24 21/21/21 22/22/22
f 27/27/27 26/26/26 25/25/25
f 28/28/28 25/25/25 26/26/26
f 31/31/31 30/30/30 29/29/29
f 32/32/32 29/29/29 30/30/30
f 35/35/35 34/34/34 33/33/33
f 36/36/36 33/33/33 34/34/34
f 39/39/39 38/38/38 37/37/37
f 40/40/40 37/37/37 38/38/38
f 43/43/43 42/42/42 41/41/41
f 44/44/44 41/41/41 42/42/42
f 47/47/47 46/46/46 45/45/45
f 48/48/48 45/45/45 46/46/46
f 51/51/51 50/50/50 49/49/49
f 52/52/52 49/49/49 50/50/50
f 55/55/55 54/54/54 53/53/53
f 56/56/56 53/53/53 54/54/54
f 59/59/59 58/58/58 57/57/57
f 60/60/60 57/57/57 58/58/58
f 63/63/63 62/62/62 61/61/61
f 64/64/64 61/61/61 62/62/62
f 67/67/67 66/66/66 65/65/65
f 68/68/68 65/65/65 66/66/66
f 71/71/71 70/70/70 69/69/69
f 72/72/72 69/69/69 70/70/70
f 75/75/75 74/74/74 73/73/73
f 76/76/76 73/73/73 74/74/74
f 79/79/79 78/78/78 77/77/77
f 80/80/80 77/77/77 78/78/78
f 83/83/83 82/82/82 81/81/81
f 84/84/84 81/81/81 82/82/82
f 87/87/87 86/86/86 85/85/85
f 88/88/88 85/85/85 86/86/86
f 91/91/91 90/90/90 89/89/89
f 92/92/92 89/89/89 90/90/90
f 95/95/95 94/94/94 93/93/93
f 96/96/96 93/93/93 94/94/94
f 99/99/99 98/98/98 97/97/97
f 100/100/100 97/97/97 98/98/98
f 103/103/103 102/102/102 101/101/101
f 104/104/104 101/101/101 102/102/102
f 107/107/107 106/106/106 105/105/105
f 108/108/108 105/105/105 106/106/106
f 111/111/111 110/110/110 109/109/109
f 112/112/112 109/109/109 110/110/110
f 115/115/115 114/114/114 113/113/113
f 116/116/116 113/113/113 114/114/114
f 119/119/119 118/118/118 117/117/117
f 120/120/120 117/117/117 118/118/118
f 123/123/123 122/122/122 121/121/121
f 124/124/124 121/121/121 122/122/122
f 127/127/127 126/126/126 125/125/125
f 128/128/128 125/125/125 126/126/126
f 131/131/131 130/130/130 129/129/129
f 132/132/132 129/129/129 130/130/130
f 135/135/135 134/134/134 133/133/133
f 136/136/136 133/133/133 134/134/134
f 139/139/139 138/138/138 137/137/137
f 140/140/140 137/137/137 138/138/138
