g Area_Common_Build_Pillar_C_03_Lod2
v -1.955642 5.852644 1.28938
v 3.512962 5.852644 -1.262374
v -1.955642 5.852644 -1.262374
v 3.512962 5.852644 1.28938
v -1.955642 8.243661 1.28938
v 1.9278 8.243661 -1.262374
v 1.9278 8.243661 1.28938
v -1.955642 8.243661 -1.262374
v -1.955642 5.852644 1.28938
v 1.9278 8.243661 1.28938
v 3.512962 5.852644 1.28938
v -1.955642 8.243661 1.28938
v 3.512962 5.852644 1.28938
v 1.9278 8.243661 -1.262374
v 3.512962 5.852644 -1.262374
v 1.9278 8.243661 1.28938
v 3.512962 5.852644 -1.262374
v -1.955642 8.243661 -1.262374
v -1.955642 5.852644 -1.262374
v 1.9278 8.243661 -1.262374
v -1.955642 5.852644 -1.262374
v -1.955642 8.243661 1.28938
v -1.955642 5.852644 1.28938
v -1.955642 8.243661 -1.262374
v -1.207 0.3432025 1.072004
v 1.013958 0.3432025 -0.9899263
v -1.207 0.3432025 -0.9899263
v 1.013958 0.3432025 1.072004
v -1.207 0.3432025 1.072004
v 1.392685 3.080742 1.072004
v 1.013958 0.3432025 1.072004
v -1.207 5.905507 1.072004
v 3.382557 5.905507 1.072004
v 1.013958 0.3432025 -0.9899263
v -1.207 5.905507 -0.9899263
v -1.207 0.3432025 -0.9899263
v 1.392685 3.080742 -0.9899263
v 3.382557 5.905507 -0.9899263
v -1.207 0.3432025 -0.9899263
v -1.207 5.905507 1.072004
v -1.207 0.3432025 1.072004
v -1.207 5.905507 -0.9899263
v 1.392685 3.080742 -0.9899263
v 1.013958 0.3432025 1.072004
v 1.392685 3.080742 1.072004
v 1.013958 0.3432025 -0.9899263
v 3.382557 5.905507 -0.9899263
v 3.382557 5.905507 1.072004
vt 0.7558908 0.9992939
vt 0.8508213 0.9549976
vt 0.7558908 0.9549976
vt 0.8508213 0.9992938
vt 0.8229235 0.9992533
vt 0.7563413 0.9555031
vt 0.7563413 0.9992533
vt 0.8229235 0.9555031
vt 0.7558908 0.9984842
vt 0.8274936 0.9543987
vt 0.8567208 0.9984842
vt 0.7558908 0.9543987
vt 0.6923695 1.091127
vt 0.7308531 1.056895
vt 0.6923695 1.056895
vt 0.7308531 1.091127
vt 0.8567208 0.9987765
vt 0.7558909 0.954691
vt 0.7558908 0.9987765
vt 0.8274937 0.954691
vt 0.805834 0.9987497
vt 0.756085 0.955062
vt 0.756085 0.9987497
vt 0.805834 0.955062
vt -0.1144758 0.8837164
vt -0.09754212 0.866069
vt -0.09754212 0.8837164
vt -0.1144758 0.866069
vt 0.1363926 0.8854294
vt 0.09357248 0.9305201
vt 0.09981059 0.8854294
vt 0.1363926 0.9770476
vt 0.06079672 0.9770476
vt 0.09981059 0.8854398
vt 0.1363926 0.9770581
vt 0.1363926 0.8854399
vt 0.09357248 0.9305306
vt 0.06079672 0.9770581
vt -0.09738381 0.8844838
vt -0.1438952 0.8672422
vt -0.09738381 0.8672422
vt -0.1438952 0.8844838
vt -0.118056 0.8656366
vt -0.0974108 0.8838024
vt -0.118056 0.8838024
vt -0.09741074 0.8656366
vt -0.1438682 0.8656366
vt -0.1438682 0.8838024
vn 0 -1 0
vn 0 -1 0
vn 0 -1 0
vn 0 -1 0
vn 0 1 0
vn 0 1 0
vn 0 1 0
vn 0 1 0
vn 0 0 1
vn 0 0 1
vn 0 0 1
vn 0 0 1
vn 0.8334712 0.552563 0
vn 0.8334712 0.552563 0
vn 0.8334712 0.552563 0
vn 0.8334712 0.552563 0
vn 0 0 -1
vn 0 0 -1
vn 0 0 -1
vn 0 0 -1
vn -1 0 0
vn -1 0 0
vn -1 0 0
vn -1 0 0
vn 0 -1 0
vn 0 -1 0
vn 0 -1 0
vn 0 -1 0
vn 0 0 1
vn 0 0 1
vn 0 0 1
vn 0 0 1
vn 0 0 1
vn 0 0 -1
vn 0 0 -1
vn 0 0 -1
vn 0 0 -1
vn 0 0 -1
vn -1 0 0
vn -1 0 0
vn -1 0 0
vn -1 0 0
vn 0.9302928 -0.3668176 0
vn 0.9905654 -0.1370405 0
vn 0.9302928 -0.3668175 0
vn 0.9905654 -0.1370405 0
vn 0.8175237 -0.575895 0
vn 0.8175237 -0.575895 0
g Area_Common_Build_Pillar_C_03_Lod2_0
f 3/3/3 2/2/2 1/1/1
f 4/4/4 1/1/1 2/2/2
f 7/7/7 6/6/6 5/5/5
f 8/8/8 5/5/5 6/6/6
f 11/11/11 10/10/10 9/9/9
f 12/12/12 9/9/9 10/10/10
f 15/15/15 14/14/14 13/13/13
f 16/16/16 13/13/13 14/14/14
f 19/19/19 18/18/18 17/17/17
f 20/20/20 17/17/17 18/18/18
f 23/23/23 22/22/22 21/21/21
f 24/24/24 21/21/21 22/22/22
f 27/27/27 26/26/26 25/25/25
f 28/28/28 25/25/25 26/26/26
f 31/31/31 30/30/30 29/29/29
f 32/32/32 29/29/29 30/30/30
f 33/33/33 32/32/32 30/30/30
f 36/36/36 35/35/35 34/34/34
f 37/37/37 34/34/34 35/35/35
f 38/38/38 37/37/37 35/35/35
f 41/41/41 40/40/40 39/39/39
f 42/42/42 39/39/39 40/40/40
f 45/45/45 44/44/44 43/43/43
f 46/46/46 43/43/43 44/44/44
f 43/43/43 47/47/47 45/45/45
f 48/48/48 45/45/45 47/47/47
