g Area_Common_Build_Hili_House_22_Col
v -2.776849 1.142743 2.921937
v 2.776846 1.243779 -2.869425
v -2.776849 1.243779 -2.869423
v 2.776846 1.142743 2.921935
v 2.776846 1.835656 2.921935
v -2.776849 1.835656 2.921937
v 2.776846 1.835656 -2.869425
v -2.776849 1.835656 -2.869423
v -0.3991562 1.268093 -1.342744
v 1.344595 -2.801125 -0.9431358
v 1.344593 1.268093 -0.9431297
v -0.3991545 -2.801125 -1.342747
v 1.995292 -2.801127 1.084208
v 1.995288 1.268093 1.084214
v 0.4937977 -2.801125 2.313375
v 0.4937966 1.268094 2.313381
v -1.40209 -2.801127 1.794736
v -1.402092 1.268093 1.794742
v -1.915691 -2.801127 -0.1911564
v -1.915691 1.268093 -0.1911503
vn -0.5764384 -0.5828233 0.5727441
vn 0.5782732 -0.5718346 -0.5818982
vn -0.5782732 -0.5718347 -0.5818979
vn 0.5764385 -0.5828233 0.572744
vn 0.5773501 0.5773504 0.5773503
vn -0.5773504 0.5773501 0.5773503
vn 0.5773501 0.5773503 -0.5773504
vn -0.5773503 0.5773503 -0.5773503
vn -0.2105059 8.698245E-07 -0.9775926
vn 0.6763164 1.09947E-06 -0.7366112
vn 0.6763174 1.613404E-06 -0.7366103
vn -0.2105058 8.482739E-07 -0.9775926
vn 0.9590657 3.036474E-07 0.2831837
vn 0.9590654 2.65878E-07 0.2831849
vn 0.2079567 -1.250142E-06 0.978138
vn 0.2079567 -1.413576E-06 0.9781381
vn -0.7120212 -1.263718E-06 0.702158
vn -0.7120207 -1.2078E-06 0.7021584
vn -0.9446967 2.889036E-07 -0.3279455
vn -0.9446971 0 -0.3279442
g Area_Common_Build_Hili_House_22_Col_0
f 3/3/3 2/2/2 1/1/1
f 4/4/4 1/1/1 2/2/2
f 4/4/4 5/5/5 1/1/1
f 6/6/6 1/1/1 5/5/5
f 1/1/1 6/6/6 3/3/3
f 5/5/5 7/7/7 6/6/6
f 2/2/2 7/7/7 4/4/4
f 5/5/5 4/4/4 7/7/7
f 8/8/8 6/6/6 7/7/7
f 3/3/3 8/8/8 2/2/2
f 7/7/7 2/2/2 8/8/8
f 8/8/8 3/3/3 6/6/6
f 11/11/11 10/10/10 9/9/9
f 12/12/12 9/9/9 10/10/10
f 10/10/10 11/11/11 13/13/13
f 14/14/14 13/13/13 11/11/11
f 13/13/13 14/14/14 15/15/15
f 16/16/16 15/15/15 14/14/14
f 15/15/15 16/16/16 17/17/17
f 18/18/18 17/17/17 16/16/16
f 17/17/17 18/18/18 19/19/19
f 20/20/20 19/19/19 18/18/18
f 9/9/9 12/12/12 20/20/20
f 19/19/19 20/20/20 12/12/12
