g Area_Common_Build_Pillar_F_02_Lod1
v 0.702792 2.297971 0.7027864
v 0.702792 2.559284 -0.7027893
v 0.702792 2.297971 -0.7027894
v 0.702792 2.559284 0.7027866
v 0.702792 2.297971 -0.7027894
v -0.7027826 2.559284 -0.7027894
v -0.7027826 2.297971 -0.7027894
v 0.702792 2.559284 -0.7027893
v -0.7027826 2.297971 -0.7027894
v -0.7027826 2.559284 0.7027866
v -0.7027826 2.297971 0.7027866
v -0.7027826 2.559284 -0.7027894
v -0.7027826 2.297971 0.7027866
v 0.702792 2.559284 0.7027866
v 0.702792 2.297971 0.7027864
v -0.7027826 2.559284 0.7027866
v 0.702792 2.559284 -0.7027893
v 0.555097 2.649564 0.5550337
v 0.555097 2.649565 -0.5452244
v 0.702792 2.559284 0.7027866
v -0.7027826 2.559284 -0.7027894
v 0.555097 2.649565 -0.5452244
v -0.5686041 2.649565 -0.5452245
v 0.702792 2.559284 -0.7027893
v -0.7027826 2.559284 0.7027866
v -0.5686041 2.649565 -0.5452245
v -0.5686041 2.649564 0.5550337
v -0.7027826 2.559284 -0.7027894
v 0.702792 2.559284 0.7027866
v -0.5686041 2.649564 0.5550337
v 0.555097 2.649564 0.5550337
v -0.7027826 2.559284 0.7027866
v 0.5601782 2.510344 0.559335
v 0.5723486 3.677923 -0.5707694
v 0.5601782 2.510286 -0.5558171
v 0.5723486 3.677928 0.570812
v -0.5723438 3.677928 0.570812
v 0.5601782 2.510344 0.559335
v -0.5766876 2.510314 0.559335
v 0.5723486 3.677928 0.570812
v -0.5722741 3.677929 -0.5708157
v -0.5766876 2.510314 0.559335
v -0.5766528 2.51025 -0.5558402
v -0.5723438 3.677928 0.570812
v 0.5601782 2.510286 -0.5558171
v -0.5722741 3.677929 -0.5708157
v -0.5766528 2.51025 -0.5558402
v 0.5723486 3.677923 -0.5707694
v -0.661698 3.448284 -0.3470177
v -0.6617016 3.136495 -0.6484827
v -0.661698 4.118782 -0.648483
v -0.661698 3.136495 -0.5080678
v -0.6617016 3.620246 -6.898169E-06
v -0.6617016 4.118783 0.6484784
v -0.661698 3.448283 0.3470088
v -0.6617016 3.136495 0.6484786
v -0.6617016 3.136495 0.5080572
v -0.3440717 3.448283 0.6484789
v -0.6617016 3.136495 0.6484786
v -0.6617016 4.118783 0.6484784
v -0.5051233 3.136495 0.6484754
v 0.002939453 3.620246 0.648479
v 0.6617029 4.118782 0.6484789
v 0.3499524 3.448282 0.6484756
v 0.661698 3.136495 0.648479
v 0.511001 3.136496 0.6484756
v 0.6617004 3.448282 0.3470154
v 0.661698 3.136495 0.648479
v 0.6617029 4.118782 0.6484789
v 0.661698 3.136493 0.5080673
v 0.6617029 3.620246 6.141836E-06
v 0.6617029 4.118782 -0.6484827
v 0.6617029 3.448282 -0.3470095
v 0.6617029 3.136495 -0.6484824
v 0.6617029 3.136495 -0.5080612
v 0.3440759 3.448282 -0.6484825
v 0.6617029 3.136495 -0.6484824
v 0.6617029 4.118782 -0.6484827
v 0.5051245 3.136495 -0.6484825
v -0.002935791 3.620246 -0.6484825
v -0.661698 4.118782 -0.648483
v -0.3499493 3.448282 -0.6484826
v -0.6617016 3.136495 -0.6484827
v -0.511001 3.136495 -0.6484827
v 0.702792 2.297971 0.7027864
v -0.7027826 2.297971 -0.7027894
v -0.7027826 2.297971 0.7027866
v 0.702792 2.297971 -0.7027894
v -0.7224121 4.082079 0.7224118
v 0.7224121 4.082079 -0.7224124
v -0.7224121 4.082079 -0.7224124
v 0.7224121 4.082079 0.7224118
v -0.7224121 4.082079 0.7224118
v 0.7224121 4.306028 0.7224119
v 0.7224121 4.082079 0.7224118
v -0.7224121 4.306028 0.7224119
v 0.7224121 4.082079 0.7224118
v 0.7224121 4.306028 -0.7224123
v 0.7224121 4.082079 -0.7224124
v 0.7224121 4.306028 0.7224119
v 0.7224121 4.082079 -0.7224124
v -0.7224121 4.306028 -0.7224123
v -0.7224121 4.082079 -0.7224124
v 0.7224121 4.306028 -0.7224123
v -0.7224121 4.082079 -0.7224124
v -0.7224121 4.306028 0.7224119
v -0.7224121 4.082079 0.7224118
v -0.7224121 4.306028 -0.7224123
v -0.9459869 4.793836 -0.945987
v 0.9459867 4.448357 -0.9459872
v 0.9459867 4.793836 -0.945987
v -0.9459869 4.448358 -0.9459872
v 0.9459867 4.793836 -0.945987
v 0.9459867 4.448357 0.9459869
v 0.9459867 4.793836 0.945987
v 0.9459867 4.448357 -0.9459872
v 0.9459867 4.793836 0.945987
v -0.9459869 4.448358 0.9459869
v -0.9459869 4.793836 0.945987
v 0.9459867 4.448357 0.9459869
v -0.9459869 4.793836 0.945987
v -0.9459869 4.448358 -0.9459872
v -0.9459869 4.793836 -0.945987
v -0.9459869 4.448358 0.9459869
v -0.9459869 4.793836 -0.945987
v 0.9459867 4.793836 0.945987
v -0.9459869 4.793836 0.945987
v 0.9459867 4.793836 -0.945987
v 0.9459867 4.448357 -0.9459872
v 0.7224121 4.306028 0.7224119
v 0.9459867 4.448357 0.9459869
v 0.7224121 4.306028 -0.7224123
v -0.9459869 4.448358 -0.9459872
v 0.7224121 4.306028 -0.7224123
v 0.9459867 4.448357 -0.9459872
v -0.7224121 4.306028 -0.7224123
v -0.9459869 4.448358 0.9459869
v -0.7224121 4.306028 -0.7224123
v -0.9459869 4.448358 -0.9459872
v -0.7224121 4.306028 0.7224119
v 0.7224121 4.306028 0.7224119
v -0.9459869 4.448358 0.9459869
v 0.9459867 4.448357 0.9459869
v -0.7224121 4.306028 0.7224119
v -0.5810321 0.7649395 0.547858
v 0.5480078 1.024021 0.547858
v -0.5810321 0.1306317 -0.1147747
v 0.5480077 0.5151135 -0.5408647
v -0.5810321 0.198902 -0.5408646
v 0.428602 0.6877057 0.4093749
v 0.428602 0.9984338 0.4093749
v 0.428602 0.6633899 0.04170499
v 0.4286018 0.6597021 -0.4073448
v 0.428602 0.4449188 -0.1516021
v 0.4286018 0.3335437 -0.4073448
v -0.3918988 0.27026 0.4093736
v -0.3918988 0.817359 0.4093736
v -0.1903119 0.32039 0.4093744
v 0.06733276 0.5384411 0.4093747
v 0.428602 0.9984338 0.4093749
v 0.428602 0.6877057 0.4093749
v -0.3918988 -0.01557983 -0.407346
v -0.3918988 0.817359 0.4093736
v -0.3918988 0.27026 0.4093736
v -0.3918988 0.4786291 -0.407346
v 0.4286018 0.3335437 -0.4073448
v -0.3918988 0.4786291 -0.407346
v -0.3918988 -0.01557983 -0.407346
v 0.4286018 0.6597021 -0.4073448
v -0.1339093 -0.001958008 -0.4073454
v 0.2507928 0.1657678 -0.4073451
v 0.06733276 0.5384411 0.4093747
v 0.428602 0.6633899 0.04170499
v 0.03024033 0.2430792 0.001014681
v 0.428602 0.6877057 0.4093749
v -0.1903119 0.32039 0.4093744
v -0.1339093 -0.001958008 -0.4073454
v -0.3918988 0.27026 0.4093736
v -0.3918988 -0.01557983 -0.407346
v 0.428602 0.4449188 -0.1516021
v 0.4286018 0.3335437 -0.4073448
v 0.2507928 0.1657678 -0.4073451
v -0.5810321 0.198902 -0.5408646
v -0.5810321 0.7649395 0.547858
v -0.5810321 0.1306317 -0.1147747
v -0.5766528 2.51025 -0.5558402
v -0.5766876 2.510314 0.559335
v 0.5480078 1.024021 0.547858
v 0.5601782 2.510286 -0.5558171
v 0.5480077 0.5151135 -0.5408647
v 0.5601782 2.510344 0.559335
v -0.5766876 2.510314 0.559335
v 0.5480078 1.024021 0.547858
v -0.5810321 0.7649395 0.547858
v 0.5601782 2.510344 0.559335
v 0.5480077 0.5151135 -0.5408647
v -0.5766528 2.51025 -0.5558402
v -0.5810321 0.198902 -0.5408646
v 0.5601782 2.510286 -0.5558171
vt 0.029433 0.564901
vt 0.166723 0.594612
vt 0.166723 0.564901
vt 0.029433 0.594612
vt 0.19616 0.564901
vt 0.333347 0.594612
vt 0.333347 0.564901
vt 0.19616 0.594612
vt 0.029296 0.511454
vt 0.166589 0.541165
vt 0.166589 0.511454
vt 0.029296 0.541165
vt 0.195986 0.511454
vt 0.333357 0.541165
vt 0.333357 0.511454
vt 0.195986 0.541165
vt 0.166723 0.599316
vt 0.04085902 0.6163772
vt 0.1542024 0.6163325
vt 0.029433 0.599316
vt 0.333347 0.599316
vt 0.2073074 0.6171804
vt 0.3232763 0.6171265
vt 0.19616 0.599316
vt 0.166589 0.545336
vt 0.04170658 0.5613508
vt 0.1548581 0.5612679
vt 0.029296 0.545336
vt 0.333357 0.545336
vt 0.2041634 0.5623453
vt 0.3232197 0.5623575
vt 0.195986 0.545336
vt 0.6224557 0.6691036
vt 0.7116906 0.7613026
vt 0.71051 0.669099
vt 0.6215494 0.761303
vt 0.5211494 0.7599007
vt 0.6089345 0.6697124
vt 0.5209727 0.6695549
vt 0.6097168 0.7600569
vt 0.521921 0.7612184
vt 0.6067229 0.6683935
vt 0.5204748 0.6708757
vt 0.6102147 0.7586721
vt 0.6226909 0.6686431
vt 0.7111643 0.7617587
vt 0.7124523 0.6695576
vt 0.6207877 0.7608347
vt 0.539856 0.813124
vt 0.515545 0.787973
vt 0.515545 0.895804
vt 0.526927 0.787977
vt 0.567738 0.826986
vt 0.619957 0.895804
vt 0.595609 0.813103
vt 0.619957 0.78793
vt 0.608531 0.787942
vt 0.652654 0.8131
vt 0.627044 0.787959
vt 0.627044 0.89593
vt 0.639678 0.787958
vt 0.680616 0.826969
vt 0.733713 0.89593
vt 0.708579 0.813108
vt 0.733713 0.78797
vt 0.721555 0.787972
vt 0.539856 0.813124
vt 0.515544 0.787973
vt 0.515544 0.89593
vt 0.526927 0.787977
vt 0.567738 0.826986
vt 0.619957 0.89593
vt 0.595609 0.813103
vt 0.619957 0.78793
vt 0.608531 0.787942
vt 0.652654 0.8131
vt 0.627044 0.787959
vt 0.627044 0.895804
vt 0.639679 0.787959
vt 0.680616 0.826969
vt 0.733713 0.895804
vt 0.708579 0.813108
vt 0.733713 0.78797
vt 0.721554 0.787972
vt 0.466922 0.670226
vt 0.3052225 0.8280785
vt 0.466918 0.828087
vt 0.305219 0.670234
vt 0.466922 0.670226
vt 0.3052225 0.8280785
vt 0.466918 0.828087
vt 0.305219 0.670234
vt 0.029433 0.564901
vt 0.166723 0.594612
vt 0.166723 0.564901
vt 0.029433 0.594612
vt 0.19616 0.564901
vt 0.333347 0.594612
vt 0.333347 0.564901
vt 0.19616 0.594612
vt 0.029296 0.511454
vt 0.166589 0.541165
vt 0.166589 0.511454
vt 0.029296 0.541165
vt 0.195986 0.511454
vt 0.333357 0.541165
vt 0.333357 0.511454
vt 0.195986 0.541165
vt 0.029433 0.564901
vt 0.166723 0.594612
vt 0.166723 0.564901
vt 0.029433 0.594612
vt 0.19616 0.564901
vt 0.333347 0.594612
vt 0.333347 0.564901
vt 0.19616 0.594612
vt 0.029296 0.511454
vt 0.166589 0.541165
vt 0.166589 0.511454
vt 0.029296 0.541165
vt 0.195986 0.511454
vt 0.333357 0.541165
vt 0.333357 0.511454
vt 0.195986 0.541165
vt 0.466922 0.670226
vt 0.3052225 0.8280785
vt 0.466918 0.828087
vt 0.305219 0.670234
vt 0.029513 0.599049
vt 0.157309 0.614703
vt 0.166724 0.599316
vt 0.039104 0.614703
vt 0.029513 0.599049
vt 0.157309 0.614703
vt 0.166723 0.599316
vt 0.039104 0.614703
vt 0.029513 0.599049
vt 0.157309 0.614703
vt 0.166724 0.599316
vt 0.039104 0.614703
vt 0.039104 0.614703
vt 0.166723 0.599316
vt 0.029513 0.599049
vt 0.157309 0.614703
vt 0.4746903 0.3027858
vt 0.5040724 0.3619539
vt 0.5173816 0.2725525
vt 0.5636283 0.3280355
vt 0.5408568 0.2651665
vt 0.8443927 0.8665465
vt 0.8443927 0.8864656
vt 0.8679618 0.8649877
vt 0.8967479 0.8647513
vt 0.8803537 0.8509826
vt 0.8967479 0.843843
vt 0.9067498 0.8531829
vt 0.9067498 0.8810173
vt 0.917006 0.8557333
vt 0.930114 0.866827
vt 0.9484941 0.8902299
vt 0.9484941 0.8744211
vt 0.8443927 0.8214626
vt 0.8967479 0.8748577
vt 0.8967479 0.8397862
vt 0.8443927 0.8531438
vt 0.9067498 0.8564025
vt 0.9484941 0.863784
vt 0.9484941 0.8386402
vt 0.9067498 0.8729964
vt 0.9353685 0.8393334
vt 0.9157961 0.8478667
vt 0.4691705 0.3294343
vt 0.4887152 0.354924
vt 0.4991927 0.320886
vt 0.4689016 0.3532285
vt 0.4728854 0.3089417
vt 0.5260634 0.3072156
vt 0.4719886 0.2967115
vt 0.5233203 0.2931588
vt 0.5056262 0.3493217
vt 0.5223902 0.3475189
vt 0.5255 0.3328303
vt 0.9051102 0.7840279
vt 0.9473534 0.8111105
vt 0.926269 0.7824115
vt 0.9051102 0.8981379
vt 0.9473534 0.8981379
vt 0.905839 0.8257039
vt 0.9478922 0.8994091
vt 0.9478922 0.800468
vt 0.905839 0.8994091
vt 0.8416247 0.8989621
vt 0.8976969 0.8257039
vt 0.8416247 0.8119684
vt 0.8976969 0.8989621
vt 0.8412414 0.800468
vt 0.8973103 0.8990232
vt 0.8973103 0.7840279
vt 0.8412414 0.8990232
vn 1 0 0
vn 1 0 0
vn 1 0 0
vn 1 0 0
vn 0 5.497612E-07 -1
vn 0 3.261287E-07 -1
vn 0 2.919633E-07 -1
vn 0 5.839266E-07 -1
vn -1 0 0
vn -1 0 0
vn -1 0 0
vn -1 0 0
vn 0 0 1
vn 0 -2.577979E-07 1
vn 0 -2.919633E-07 1
vn 0 0 1
vn 0.5215455 0.8532236 3.955442E-07
vn 0.5215431 0.8532249 0
vn 0.5215459 0.8532232 4.733127E-07
vn 0.521543 0.8532251 0
vn 0 0.8676646 -0.4971502
vn 0 0.8676646 -0.4971501
vn 0 0.8676646 -0.4971502
vn 0 0.8676646 -0.4971502
vn -0.558239 0.8296801 3.888369E-07
vn -0.5582415 0.8296785 0
vn -0.5582386 0.8296804 4.602526E-07
vn -0.5582416 0.8296784 0
vn 0 0.8533159 0.5213943
vn 0 0.8533159 0.5213944
vn 0 0.8533159 0.5213943
vn 0 0.8533159 0.5213944
vn 0.9999567 -0.009311664 3.646215E-07
vn 0.9999458 -0.01042278 2.887654E-07
vn 0.9999603 -0.008889324 0.000570314
vn 0.9999458 -0.01042302 0
vn 1.270825E-07 -0.00982911 0.9999517
vn 1.668147E-07 -0.008781561 0.9999615
vn 0.0003128043 -0.00853663 0.9999635
vn 0 -0.009829233 0.9999517
vn -0.9999931 0.003734746 -4.66106E-05
vn -0.9999952 0.003115627 -3.869235E-05
vn -0.9999955 0.003016815 -0.0001996686
vn -0.9999931 0.003720871 -6.094572E-05
vn 2.556567E-05 -0.01016847 -0.9999484
vn 3.076826E-05 -0.01281435 -0.9999179
vn 0.0003152076 -0.009988295 -0.9999501
vn 4.042768E-05 -0.01280498 -0.999918
vn -1 -6.908935E-07 2.794455E-06
vn -1 -5.056035E-06 1.737689E-05
vn -1 1.317864E-06 -1.655549E-06
vn -1 -1.347161E-05 2.608064E-05
vn -1 -1.702501E-06 -1.880622E-06
vn -1 -1.08643E-06 -2.432416E-06
vn -1 -2.481966E-06 -3.669645E-06
vn -1 5.99855E-06 -5.943652E-06
vn -1 1.17455E-05 0
vn 9.689854E-07 -1.653356E-06 1
vn 9.669795E-06 -1.058506E-05 1
vn -6.229654E-07 4.205209E-07 1
vn 2.046481E-05 -2.158233E-05 1
vn 1.291029E-06 -1.700387E-06 1
vn -1.265972E-06 -2.03791E-06 1
vn -4.900723E-06 -4.041731E-06 1
vn -1.682042E-05 -5.806722E-06 1
vn -2.278241E-05 -1.176791E-05 1
vn 1 -5.432952E-06 3.265155E-06
vn 1 -6.431221E-06 1.447042E-06
vn 1 -3.083056E-06 2.137772E-06
vn 1 -7.830283E-06 0
vn 1 -1.528236E-06 1.174885E-06
vn 1 0 0
vn 1 0 0
vn 1 0 0
vn 1 0 0
vn 0 -1.721649E-07 -1
vn 2.465557E-07 0 -1
vn 0 -3.738654E-07 -1
vn 4.872572E-07 2.516848E-07 -1
vn 1.914673E-07 -4.330055E-07 -1
vn 3.756356E-07 -4.568814E-07 -1
vn 4.496073E-07 -2.933961E-07 -1
vn 2.777005E-07 0 -1
vn 0 2.446988E-07 -1
vn 0 -1 0
vn 0 -1 0
vn 0 -1 0
vn 0 -1 0
vn 0 -1 0
vn 0 -1 0
vn 0 -1 0
vn 0 -1 0
vn 0 -3.406755E-07 1
vn 0 -3.406748E-07 1
vn 0 -3.406747E-07 1
vn 0 -3.406756E-07 1
vn 1 0 0
vn 1 0 0
vn 1 0 0
vn 1 0 0
vn 0 3.406748E-07 -1
vn 0 3.406755E-07 -1
vn 0 3.406756E-07 -1
vn 0 3.406747E-07 -1
vn -1 0 0
vn -1 0 0
vn -1 0 0
vn -1 0 0
vn 0 4.416717E-07 -1
vn 0 4.416706E-07 -1
vn 0 4.416704E-07 -1
vn 0 4.416719E-07 -1
vn 1 0 0
vn 1 0 0
vn 1 0 0
vn 1 0 0
vn 0 -4.162785E-07 1
vn 0 -2.462279E-07 1
vn 0 -2.20836E-07 1
vn 0 -4.416704E-07 1
vn -1 0 0
vn -1 0 0
vn -1 0 0
vn -1 0 0
vn 0 1 0
vn 0 1 0
vn 0 1 0
vn 0 1 0
vn 0.5370197 -0.8435697 0
vn 0.5370197 -0.8435697 0
vn 0.5370197 -0.8435697 0
vn 0.5370197 -0.8435697 0
vn 1.932799E-07 -0.8435671 -0.5370237
vn -4.818099E-07 -0.8435695 -0.5370202
vn -5.442718E-07 -0.8435696 -0.5370198
vn 3.563563E-07 -0.8435665 -0.5370246
vn -0.5370243 -0.8435667 0
vn -0.5370243 -0.8435667 0
vn -0.5370244 -0.8435667 0
vn -0.5370243 -0.8435667 0
vn -4.8181E-07 -0.8435697 0.5370197
vn 1.9328E-07 -0.8435673 0.5370233
vn -5.44272E-07 -0.8435699 0.5370194
vn 3.563564E-07 -0.8435668 0.5370242
vn 0.1635329 -0.7126529 0.6821898
vn 0.3260244 -0.7933432 0.5141154
vn 0.3074394 -0.9138734 0.2651729
vn 0.4034226 -0.869782 0.2841295
vn 0.2665397 -0.9516855 -0.1524838
vn 1 0 0
vn 1 1.105062E-07 -1.007002E-07
vn 1 2.960255E-07 -2.839271E-07
vn 1 1.827461E-07 -4.553723E-07
vn 1 1.787027E-07 -4.465642E-07
vn 1 0 -5.966463E-07
vn -3.784668E-06 0 1
vn -2.109584E-06 6.59189E-07 1
vn -2.777081E-06 4.0871E-07 1
vn -1.499382E-06 7.13683E-07 1
vn -1.158621E-06 4.123812E-07 1
vn -6.335493E-07 0 1
vn -1 0 0
vn -1 0 0
vn -1 0 0
vn -1 0 0
vn 1.370393E-06 0 -1
vn 1.451917E-06 0 -1
vn 1.693293E-06 -4.830529E-07 -1
vn 1.441262E-06 0 -1
vn 2.376892E-06 -2.16594E-06 -1
vn 0 1.818483E-06 -1
vn 0.5679144 -0.7480446 0.3433696
vn 0.547368 -0.7351993 0.3998378
vn 0.4872284 -0.7697427 0.4124374
vn 0.3811463 -0.9224995 0.06100938
vn 0.3931286 -0.8248915 0.4062067
vn 0.2250221 -0.9077885 0.3539565
vn 0.1938662 -0.9106882 0.364778
vn 0.04977333 -0.9426929 0.3299286
vn 0.5361034 -0.6835766 0.4952941
vn 0.570604 -0.718652 0.3974297
vn 0.5229567 -0.7402274 0.4225868
vn -0.9999992 0.001194049 -0.0006207979
vn -0.9999982 0.001805601 -0.0006309954
vn -1 0 0
vn -0.9999955 0.003016815 -0.0001996686
vn -0.9999952 0.003115627 -3.869235E-05
vn 0.9999753 -0.006755062 0.001930187
vn 0.9999603 -0.008889324 0.000570314
vn 0.9999775 -0.006078576 0.002841201
vn 0.9999567 -0.009311664 3.646215E-07
vn 0.0003128043 -0.00853663 0.9999635
vn 0.0009610238 -0.006994467 0.9999751
vn 0.001509746 -0.006579258 0.9999772
vn 1.668147E-07 -0.008781561 0.9999615
vn 0.001311579 -0.006766493 -0.9999763
vn 0.0003152076 -0.009988295 -0.9999501
vn 0.00181551 -0.006482434 -0.9999774
vn 2.556567E-05 -0.01016847 -0.9999484
g Area_Common_Build_Pillar_F_02_Lod1_0
f 3/3/3 2/2/2 1/1/1
f 4/4/4 1/1/1 2/2/2
f 7/7/7 6/6/6 5/5/5
f 8/8/8 5/5/5 6/6/6
f 11/11/11 10/10/10 9/9/9
f 12/12/12 9/9/9 10/10/10
f 15/15/15 14/14/14 13/13/13
f 16/16/16 13/13/13 14/14/14
f 19/19/19 18/18/18 17/17/17
f 20/20/20 17/17/17 18/18/18
f 23/23/23 22/22/22 21/21/21
f 24/24/24 21/21/21 22/22/22
f 27/27/27 26/26/26 25/25/25
f 28/28/28 25/25/25 26/26/26
f 31/31/31 30/30/30 29/29/29
f 32/32/32 29/29/29 30/30/30
f 35/35/35 34/34/34 33/33/33
f 36/36/36 33/33/33 34/34/34
f 39/39/39 38/38/38 37/37/37
f 40/40/40 37/37/37 38/38/38
f 43/43/43 42/42/42 41/41/41
f 44/44/44 41/41/41 42/42/42
f 47/47/47 46/46/46 45/45/45
f 48/48/48 45/45/45 46/46/46
f 51/51/51 50/50/50 49/49/49
f 52/52/52 49/49/49 50/50/50
f 53/53/53 51/51/51 49/49/49
f 54/54/54 51/51/51 53/53/53
f 55/55/55 54/54/54 53/53/53
f 54/54/54 55/55/55 56/56/56
f 57/57/57 56/56/56 55/55/55
f 60/60/60 59/59/59 58/58/58
f 61/61/61 58/58/58 59/59/59
f 62/62/62 60/60/60 58/58/58
f 63/63/63 60/60/60 62/62/62
f 64/64/64 63/63/63 62/62/62
f 63/63/63 64/64/64 65/65/65
f 66/66/66 65/65/65 64/64/64
f 69/69/69 68/68/68 67/67/67
f 70/70/70 67/67/67 68/68/68
f 71/71/71 69/69/69 67/67/67
f 72/72/72 69/69/69 71/71/71
f 73/73/73 72/72/72 71/71/71
f 72/72/72 73/73/73 74/74/74
f 75/75/75 74/74/74 73/73/73
f 78/78/78 77/77/77 76/76/76
f 79/79/79 76/76/76 77/77/77
f 80/80/80 78/78/78 76/76/76
f 81/81/81 78/78/78 80/80/80
f 82/82/82 81/81/81 80/80/80
f 81/81/81 82/82/82 83/83/83
f 84/84/84 83/83/83 82/82/82
f 87/87/87 86/86/86 85/85/85
f 88/88/88 85/85/85 86/86/86
f 91/91/91 90/90/90 89/89/89
f 92/92/92 89/89/89 90/90/90
f 95/95/95 94/94/94 93/93/93
f 96/96/96 93/93/93 94/94/94
f 99/99/99 98/98/98 97/97/97
f 100/100/100 97/97/97 98/98/98
f 103/103/103 102/102/102 101/101/101
f 104/104/104 101/101/101 102/102/102
f 107/107/107 106/106/106 105/105/105
f 108/108/108 105/105/105 106/106/106
f 111/111/111 110/110/110 109/109/109
f 112/112/112 109/109/109 110/110/110
f 115/115/115 114/114/114 113/113/113
f 116/116/116 113/113/113 114/114/114
f 119/119/119 118/118/118 117/117/117
f 120/120/120 117/117/117 118/118/118
f 123/123/123 122/122/122 121/121/121
f 124/124/124 121/121/121 122/122/122
f 127/127/127 126/126/126 125/125/125
f 128/128/128 125/125/125 126/126/126
f 131/131/131 130/130/130 129/129/129
f 132/132/132 129/129/129 130/130/130
f 135/135/135 134/134/134 133/133/133
f 136/136/136 133/133/133 134/134/134
f 139/139/139 138/138/138 137/137/137
f 140/140/140 137/137/137 138/138/138
f 143/143/143 142/142/142 141/141/141
f 144/144/144 141/141/141 142/142/142
f 147/147/147 146/146/146 145/145/145
f 148/148/148 146/146/146 147/147/147
f 149/149/149 148/148/148 147/147/147
f 152/152/152 151/151/151 150/150/150
f 153/153/153 151/151/151 152/152/152
f 152/152/152 154/154/154 153/153/153
f 155/155/155 153/153/153 154/154/154
f 158/158/158 157/157/157 156/156/156
f 159/159/159 157/157/157 158/158/158
f 160/160/160 157/157/157 159/159/159
f 161/161/161 160/160/160 159/159/159
f 164/164/164 163/163/163 162/162/162
f 165/165/165 162/162/162 163/163/163
f 168/168/168 167/167/167 166/166/166
f 169/169/169 166/166/166 167/167/167
f 168/168/168 166/166/166 170/170/170
f 171/171/171 170/170/170 166/166/166
f 174/174/174 173/173/173 172/172/172
f 175/175/175 172/172/172 173/173/173
f 176/176/176 174/174/174 172/172/172
f 177/177/177 174/174/174 176/176/176
f 176/176/176 178/178/178 177/177/177
f 179/179/179 177/177/177 178/178/178
f 180/180/180 173/173/173 174/174/174
f 180/180/180 174/174/174 181/181/181
f 182/182/182 181/181/181 174/174/174
f 182/182/182 174/174/174 177/177/177
f 185/185/185 184/184/184 183/183/183
f 183/183/183 184/184/184 186/186/186
f 187/187/187 186/186/186 184/184/184
f 190/190/190 189/189/189 188/188/188
f 191/191/191 188/188/188 189/189/189
f 194/194/194 193/193/193 192/192/192
f 195/195/195 192/192/192 193/193/193
f 198/198/198 197/197/197 196/196/196
f 199/199/199 196/196/196 197/197/197
