g Area_Common_Build_Arch_A_03_Col
v 0.3192256 -1.986338 0.2513242
v -2.495222 1.275356 0.2513241
v 2.49488 1.275356 0.2513241
v -0.3195677 -1.986338 0.2513242
v 2.070909 1.738433 0.251324
v -2.071251 1.738433 0.251324
v -0.0001710129 2.393436 0.251324
v 0.3192256 -1.986338 0.2513242
v -0.3195677 -1.986338 -0.3069009
v -0.3195677 -1.986338 0.2513242
v 0.3192256 -1.986338 -0.3069009
v 2.49488 1.275356 0.2513241
v 0.3192256 -1.986338 -0.3069009
v 0.3192256 -1.986338 0.2513242
v 2.49488 1.275356 -0.2329948
v -2.071251 1.738433 0.251324
v -0.0001710129 2.393436 -0.2329949
v -0.0001710129 2.393436 0.251324
v -2.071251 1.738433 -0.2329948
v 2.070909 1.738433 0.251324
v 2.49488 1.275356 -0.2329948
v 2.49488 1.275356 0.2513241
v 2.070909 1.738433 -0.2329948
v -0.3195677 -1.986338 0.2513242
v -2.495222 1.275356 -0.2329948
v -2.495222 1.275356 0.2513241
v -0.3195677 -1.986338 -0.3069009
v -2.495222 1.275356 0.2513241
v -2.071251 1.738433 -0.2329948
v -2.071251 1.738433 0.251324
v -2.495222 1.275356 -0.2329948
v -0.0001710129 2.393436 0.251324
v 2.070909 1.738433 -0.2329948
v 2.070909 1.738433 0.251324
v -0.0001710129 2.393436 -0.2329949
v -2.495222 1.275356 -0.2329948
v 0.3192256 -1.986338 -0.3069009
v 2.49488 1.275356 -0.2329948
v -0.3195677 -1.986338 -0.3069009
v -2.071251 1.738433 -0.2329948
v 2.070909 1.738433 -0.2329948
v -0.0001710129 2.393436 -0.2329949
vn 0 0 1
vn 0 0 1
vn 0 0 1
vn 0 0 1
vn 0 0 1
vn 0 0 1
vn 0 0 1
vn 0 -1 0
vn 0 -1 0
vn 0 -1 0
vn 0 -1 0
vn 0.83191 -0.5549107 0
vn 0.83191 -0.5549107 0
vn 0.83191 -0.5549107 0
vn 0.83191 -0.5549107 0
vn -0.3015404 0.9534534 0
vn -0.3015404 0.9534534 0
vn -0.3015405 0.9534534 0
vn -0.3015405 0.9534534 0
vn 0.7375639 0.6752773 0
vn 0.7375639 0.6752773 0
vn 0.7375639 0.6752773 0
vn 0.7375639 0.6752773 0
vn -0.83191 -0.5549107 0
vn -0.83191 -0.5549106 0
vn -0.83191 -0.5549106 0
vn -0.83191 -0.5549106 0
vn -0.737564 0.6752772 0
vn -0.737564 0.6752771 0
vn -0.737564 0.6752772 0
vn -0.737564 0.6752772 0
vn 0.3015404 0.9534534 0
vn 0.3015404 0.9534534 0
vn 0.3015404 0.9534534 0
vn 0.3015404 0.9534534 0
vn 0 0.022653 -0.9997434
vn 0 0.022653 -0.9997434
vn 0 0.022653 -0.9997434
vn 0 0.02265301 -0.9997434
vn 0 -1.164789E-07 -1
vn 0 -1.164789E-07 -1
vn 0 -1.164789E-07 -1
g Area_Common_Build_Arch_A_03_Col_0
f 3/3/3 2/2/2 1/1/1
f 4/4/4 1/1/1 2/2/2
f 3/3/3 5/5/5 2/2/2
f 6/6/6 2/2/2 5/5/5
f 7/7/7 6/6/6 5/5/5
f 10/10/10 9/9/9 8/8/8
f 11/11/11 8/8/8 9/9/9
f 14/14/14 13/13/13 12/12/12
f 15/15/15 12/12/12 13/13/13
f 18/18/18 17/17/17 16/16/16
f 19/19/19 16/16/16 17/17/17
f 22/22/22 21/21/21 20/20/20
f 23/23/23 20/20/20 21/21/21
f 26/26/26 25/25/25 24/24/24
f 27/27/27 24/24/24 25/25/25
f 30/30/30 29/29/29 28/28/28
f 31/31/31 28/28/28 29/29/29
f 34/34/34 33/33/33 32/32/32
f 35/35/35 32/32/32 33/33/33
f 38/38/38 37/37/37 36/36/36
f 39/39/39 36/36/36 37/37/37
f 36/36/36 40/40/40 38/38/38
f 41/41/41 38/38/38 40/40/40
f 42/42/42 41/41/41 40/40/40
