g Area_Common_Build_Hili_House_25_Col
v -0.6588092 -5.238777E-11 0.3468267
v 0.007447424 -1.246684E-08 0.6010728
v -0.4433855 7.807463E-09 -0.267877
v -0.3686908 0.9256739 0.2092833
v -0.005459652 0.9256739 0.537957
v -0.4808121 0.9256739 -0.2758701
v 0.741526 -1.465061E-08 0.001382217
v 0.4657547 0.9256739 0.02564091
v 0.4418249 6.592493E-09 -0.3128863
v 0.2246677 0.9256739 -0.2154409
v 0.2252285 -1.352369E-08 -1.019826
v 0.02607449 0.9256739 -0.4370446
v 0.00505166 2.492721 -0.008296644
vn -0.7597248 -0.4943564 0.4224097
vn 0.08974362 -0.5577003 0.8251766
vn -0.6232061 -0.6434432 -0.4445166
vn -0.8103421 0.251713 0.5291372
vn 0.01766414 0.2129974 0.9768931
vn -0.8192225 0.2131379 -0.5323972
vn 0.8781701 -0.4779781 0.01882075
vn 0.9579576 0.2867949 -0.008118429
vn 0.6323555 -0.6773314 -0.3759634
vn 0.7292474 0.2621142 -0.6320556
vn 0.1983581 -0.3675023 -0.9086232
vn 0.1384923 0.3321614 -0.9329998
vn 0.02783443 0.9995342 -0.01250775
g Area_Common_Build_Hili_House_25_Col_0
f 3/3/3 2/2/2 1/1/1
f 1/1/1 2/2/2 4/4/4
f 5/5/5 4/4/4 2/2/2
f 4/4/4 6/6/6 1/1/1
f 3/3/3 1/1/1 6/6/6
f 2/2/2 7/7/7 5/5/5
f 8/8/8 5/5/5 7/7/7
f 7/7/7 9/9/9 8/8/8
f 7/7/7 2/2/2 9/9/9
f 10/10/10 8/8/8 9/9/9
f 9/9/9 11/11/11 10/10/10
f 9/9/9 2/2/2 11/11/11
f 11/11/11 2/2/2 3/3/3
f 12/12/12 10/10/10 11/11/11
f 6/6/6 12/12/12 3/3/3
f 11/11/11 3/3/3 12/12/12
f 13/13/13 4/4/4 5/5/5
f 13/13/13 8/8/8 10/10/10
f 13/13/13 10/10/10 12/12/12
f 13/13/13 6/6/6 4/4/4
f 13/13/13 5/5/5 8/8/8
f 13/13/13 12/12/12 6/6/6
