g Area_Common_Prop_Bryophyte_04_Col
v -0.3864284 -0.03990252 0.6055092
v -0.7188591 0.1319249 0.07161138
v -0.33158 0.1902689 0.41256
v -0.9051833 -0.218032 0.3980089
v -0.2644993 0.3665722 0.06499445
v -0.4758492 0.1933138 -0.369836
v -0.1326097 0.1989845 -0.5071543
v 0.1440514 0.1173291 0.473569
v 0.0951301 0.360684 0.07061209
v -0.3372452 -0.3643893 0.7894388
v -0.8107808 -0.7159989 0.3901404
v -0.3435441 -0.8106161 0.7429098
v -0.973951 -0.6709769 -0.1242124
v -1.004226 -0.2379744 -0.1289991
v -0.666324 -0.6727702 -0.5824804
v -0.659466 -0.2041593 -0.607451
v -0.2185721 -0.6041867 -0.7674879
v -0.2341202 -0.161976 -0.8317556
v 0.1471155 0.2757904 -0.3685879
v 0.2486469 -0.06983581 -0.6573
v 0.537918 0.2978714 -0.3021126
v 0.7043711 -0.1563379 -0.5663721
v 0.4263491 -0.2370972 -0.7511516
v 0.07579956 -0.231676 -0.8624884
v 0.434433 -0.6786737 -0.8090844
v 0.03464062 -0.6851534 -0.8455241
v -0.2692084 -1.033796 -0.8222152
v 0.005023241 -1.133862 -0.9802925
v 0.7370132 0.1308715 -0.2893607
v 0.9266843 -0.2628078 -0.3628886
v 0.4155432 0.496278 0.07622974
v 0.7666815 0.1545405 0.09305488
v 1.004229 -0.2976993 0.1474932
v 0.8711271 -0.2864995 0.4764472
v 0.6465209 0.2088821 0.4401085
v 0.7031798 -0.2599522 0.6586612
v 0.8469775 -0.768734 0.3068338
v 0.1151526 -0.08020739 0.7458557
v 0.3338269 -0.3412713 0.8285885
v 0.3994151 -0.7927532 0.6506056
v 0.8697259 -1.248687 0.390117
v 0.9929681 -0.7189961 -0.1632178
v 1.148126 -1.156245 -0.1960689
v 0.7806546 -1.153837 -0.7306486
v 0.75123 -0.684138 -0.5578319
v 0.5052069 -1.114855 -0.9973876
v 0.4792722 -1.290537 0.6604329
v -0.09984747 -1.310777 0.8495017
v 0.1206504 -0.8217981 0.7845986
v -0.405641 -1.256206 0.894839
v -0.5624494 -1.244935 0.6430603
v -0.7749763 -1.212182 0.5654426
v -1.111604 -1.09784 -0.1255457
v -0.7870259 -1.135415 -0.6371672
vn -0.3253254 0.5861818 0.7419935
vn -0.6392094 0.7640338 0.0875418
vn -0.2536172 0.7716541 0.5832909
vn -0.7980133 0.2768603 0.5352785
vn -0.1999598 0.9749562 0.0973475
vn -0.4603668 0.7821717 -0.4198452
vn -0.04675862 0.7999268 -0.598273
vn -0.08225868 0.8019064 0.5917597
vn -0.1751896 0.9695902 0.1708898
vn -0.3243719 0.1282676 0.9371927
vn -0.8039494 0.02335372 0.5942391
vn -0.3457528 0.0815189 0.9347779
vn -0.9819906 0.1041392 -0.1576365
vn -0.9323048 0.2899385 -0.2162023
vn -0.6190984 0.1053901 -0.7782096
vn -0.6381723 0.2869304 -0.7144278
vn -0.3262169 0.02378961 -0.9449955
vn -0.2230926 0.3191474 -0.9210725
vn -0.0005974476 0.8483161 -0.52949
vn 0.1896213 0.6516925 -0.7343982
vn 0.381688 0.7773594 -0.5000266
vn 0.5536196 0.3460616 -0.7574607
vn 0.3858463 0.3710954 -0.8446366
vn 0.07216081 0.3395253 -0.9378248
vn 0.3943954 0.2403779 -0.8869445
vn -0.1328509 0.1432062 -0.9807358
vn -0.3654079 0.2124831 -0.9062715
vn -0.2044751 0.2939304 -0.9336995
vn 0.7208817 0.6001805 -0.346573
vn 0.8791149 0.2160314 -0.4248382
vn 0.128661 0.9862756 0.1034736
vn 0.8100268 0.584698 0.04455036
vn 0.9721864 0.1702552 0.1608307
vn 0.8445921 0.08592758 0.52847
vn 0.4833622 0.6767596 0.5552995
vn 0.5694989 0.09249345 0.8167717
vn 0.8392991 -0.06814135 0.5393829
vn -0.02189698 0.5599056 0.828267
vn 0.2321417 0.07779268 0.9695662
vn 0.4919625 -0.1211406 0.8621472
vn 0.7475364 0.1630771 0.6438906
vn 0.9885089 0.09501367 -0.1175692
vn 0.9407827 0.3367644 -0.03895769
vn 0.7202446 0.3213098 -0.6148233
vn 0.7319381 0.142101 -0.6663886
vn 0.371417 0.3904109 -0.8423946
vn 0.44326 0.08871993 0.8919917
vn 0.1744009 0.1583646 0.9718564
vn 0.1876855 -0.06213248 0.980262
vn -0.3187065 0.3453782 0.8826891
vn -0.5567873 0.09080946 0.8256765
vn -0.6503431 0.1151978 0.7508551
vn -0.9631853 0.2600894 -0.06802683
vn -0.6386003 0.2497259 -0.7278919
g Area_Common_Prop_Bryophyte_04_Col_0
f 3/3/3 2/2/2 1/1/1
f 4/4/4 1/1/1 2/2/2
f 3/3/3 5/5/5 2/2/2
f 5/5/5 6/6/6 2/2/2
f 7/7/7 6/6/6 5/5/5
f 1/1/1 8/8/8 3/3/3
f 5/5/5 3/3/3 9/9/9
f 8/8/8 9/9/9 3/3/3
f 10/10/10 1/1/1 4/4/4
f 4/4/4 11/11/11 10/10/10
f 12/12/12 10/10/10 11/11/11
f 11/11/11 4/4/4 13/13/13
f 14/14/14 13/13/13 4/4/4
f 14/14/14 4/4/4 2/2/2
f 13/13/13 14/14/14 15/15/15
f 16/16/16 15/15/15 14/14/14
f 14/14/14 2/2/2 16/16/16
f 6/6/6 16/16/16 2/2/2
f 15/15/15 16/16/16 17/17/17
f 18/18/18 17/17/17 16/16/16
f 7/7/7 18/18/18 6/6/6
f 16/16/16 6/6/6 18/18/18
f 7/7/7 19/19/19 18/18/18
f 7/7/7 5/5/5 19/19/19
f 5/5/5 9/9/9 19/19/19
f 20/20/20 18/18/18 19/19/19
f 19/19/19 21/21/21 20/20/20
f 22/22/22 20/20/20 21/21/21
f 20/20/20 22/22/22 23/23/23
f 20/20/20 23/23/23 24/24/24
f 24/24/24 18/18/18 20/20/20
f 18/18/18 24/24/24 17/17/17
f 23/23/23 25/25/25 24/24/24
f 26/26/26 24/24/24 25/25/25
f 26/26/26 17/17/17 24/24/24
f 17/17/17 26/26/26 27/27/27
f 17/17/17 27/27/27 15/15/15
f 28/28/28 27/27/27 26/26/26
f 21/21/21 29/29/29 22/22/22
f 22/22/22 29/29/29 30/30/30
f 21/21/21 19/19/19 31/31/31
f 21/21/21 31/31/31 32/32/32
f 32/32/32 30/30/30 29/29/29
f 29/29/29 21/21/21 32/32/32
f 30/30/30 32/32/32 33/33/33
f 32/32/32 34/34/34 33/33/33
f 35/35/35 34/34/34 32/32/32
f 31/31/31 35/35/35 32/32/32
f 35/35/35 36/36/36 34/34/34
f 34/34/34 37/37/37 33/33/33
f 34/34/34 36/36/36 37/37/37
f 8/8/8 35/35/35 31/31/31
f 8/8/8 38/38/38 35/35/35
f 38/38/38 8/8/8 1/1/1
f 31/31/31 9/9/9 8/8/8
f 19/19/19 9/9/9 31/31/31
f 10/10/10 38/38/38 1/1/1
f 39/39/39 35/35/35 38/38/38
f 39/39/39 38/38/38 10/10/10
f 39/39/39 36/36/36 35/35/35
f 39/39/39 40/40/40 36/36/36
f 40/40/40 37/37/37 36/36/36
f 37/37/37 40/40/40 41/41/41
f 37/37/37 41/41/41 42/42/42
f 33/33/33 37/37/37 42/42/42
f 43/43/43 42/42/42 41/41/41
f 43/43/43 44/44/44 42/42/42
f 45/45/45 42/42/42 44/44/44
f 45/45/45 44/44/44 25/25/25
f 46/46/46 25/25/25 44/44/44
f 47/47/47 41/41/41 40/40/40
f 47/47/47 40/40/40 48/48/48
f 49/49/49 48/48/48 40/40/40
f 39/39/39 49/49/49 40/40/40
f 49/49/49 12/12/12 48/48/48
f 10/10/10 12/12/12 39/39/39
f 49/49/49 39/39/39 12/12/12
f 48/48/48 12/12/12 50/50/50
f 50/50/50 12/12/12 51/51/51
f 30/30/30 42/42/42 45/45/45
f 25/25/25 23/23/23 45/45/45
f 22/22/22 45/45/45 23/23/23
f 22/22/22 30/30/30 45/45/45
f 25/25/25 46/46/46 26/26/26
f 28/28/28 26/26/26 46/46/46
f 51/51/51 12/12/12 52/52/52
f 52/52/52 12/12/12 11/11/11
f 52/52/52 11/11/11 53/53/53
f 13/13/13 53/53/53 11/11/11
f 53/53/53 13/13/13 54/54/54
f 15/15/15 54/54/54 13/13/13
f 54/54/54 15/15/15 27/27/27
f 30/30/30 33/33/33 42/42/42
