g Area_LY_Build_Common_Pillar_01_C_Lod2
v 0.6046799 3.545298 -0.6299894
v -0.6323088 5.881356 -0.5995516
v -0.1068478 3.034908 -0.622034
v 0.6046762 5.88139 -0.6299918
v -0.6323065 2.9428 -0.599549
v -0.6323065 2.9428 -0.599549
v -0.6323088 5.881356 -0.5995516
v -0.6303149 3.193343 0.07645293
v -0.6184506 3.807258 0.6072578
v -0.6184478 5.88139 0.60726
v 0.6073011 5.525958 0.5796106
v 0.6046756 6.546614 -0.6299912
v 0.6046762 5.88139 -0.6299918
v 0.6072999 4.858066 0.5796097
v 0.6139237 4.504118 -0.1964155
v 0.6046799 3.545298 -0.6299894
v 0.6046756 6.546614 -0.6299912
v -0.6323088 5.881356 -0.5995516
v 0.6046762 5.88139 -0.6299918
v -0.6323087 7.448901 -0.5995499
v -0.6323087 7.448901 -0.5995499
v -0.6303133 6.676443 0.06640042
v -0.6323088 5.881356 -0.5995516
v -0.6184478 5.88139 0.60726
v -0.6184472 6.486001 0.6072598
v -0.6184478 5.88139 0.60726
v -0.03082769 5.816853 0.6202718
v 0.6072999 4.858066 0.5796097
v -0.6184506 3.807258 0.6072578
v 0.6073011 5.525958 0.5796106
v -0.03082769 5.816853 0.6202718
v -0.6184478 5.88139 0.60726
v -0.6184472 6.486001 0.6072598
v 0.6073011 5.525958 0.5796106
v -0.03082769 5.816853 0.6202718
v 0.6046756 6.546614 -0.6299912
v -0.6184472 6.486001 0.6072598
v -0.6303133 6.676443 0.06640042
v -0.6323087 7.448901 -0.5995499
v 0.6139237 4.504118 -0.1964155
v 0.6046799 3.545298 -0.6299894
v -0.6184506 3.807258 0.6072578
v -0.6303149 3.193343 0.07645293
v -0.1068478 3.034908 -0.622034
v -0.6323065 2.9428 -0.599549
v 0.6072999 4.858066 0.5796097
vt 0.7678803 0.03450278
vt 0.7511556 9.855349E-05
vt 0.7564651 0.04201939
vt 0.7678803 9.862799E-05
vt 0.7511556 0.04298855
vt 0.7852061 0.04337587
vt 0.7852061 9.908061E-05
vt 0.7730727 0.03968607
vt 0.7678803 0.03064483
vt 0.7678803 9.859074E-05
vt 0.7852061 0.005333153
vt 0.7640373 -0.006285988
vt 0.7678803 9.862799E-05
vt 0.7852061 0.01516937
vt 0.7738809 0.02038203
vt 0.7678803 0.03450278
vt 0.7700171 0.02635508
vt 0.7837135 0.01623054
vt 0.7699981 0.01626026
vt 0.7837597 0.04062525
vt 0.7511809 0.04232578
vt 0.759734 0.02979404
vt 0.7511809 0.01620838
vt 0.7662235 0.01620953
vt 0.7662235 0.02599961
vt 0.7678803 9.859074E-05
vt 0.7583207 0.001049069
vt 0.7511556 0.01513667
vt 0.7678803 0.03064483
vt 0.7511556 0.005299733
vt 0.777382 0.015558
vt 0.7700257 0.01650844
vt 0.7700257 0.02587857
vt 0.4479642 0.0352094
vt 0.4556447 0.03498359
vt 0.4514995 0.0175954
vt 0.4652975 0.03055019
vt 0.4659431 0.02427836
vt 0.4678836 0.01277671
vt 0.4906028 0.016593
vt 0.4824728 0.007464484
vt 0.4724437 0.02360327
vt 0.4679098 0.01559961
vt 0.472229 0.006015549
vt 0.4668931 0.007529804
vt 0.4904084 0.02646485
vn -0.01703515 0.004007135 -0.9998468
vn -0.02471442 0.0004993151 -0.9996945
vn -0.03104359 0.002163879 -0.9995157
vn -0.02460091 0 -0.9996973
vn -0.04275199 -9.152367E-07 -0.9990858
vn -0.9999957 -7.76294E-07 0.0029465
vn -0.9999535 -0.001639019 0.009511378
vn -0.9999638 0.001373615 0.008411433
vn -0.9998584 0.002959487 0.01656812
vn -0.9999068 -0.002202095 0.01347235
vn 0.9999976 -1.265953E-06 -0.00217035
vn 0.9999977 9.767225E-07 -0.002169691
vn 0.9999951 0.001475418 -0.002781291
vn 0.9999877 0.004647322 0.001762658
vn 0.9999288 0.003084974 -0.01152722
vn 0.9997727 1.562356E-06 -0.02131847
vn -0.02460098 9.568481E-07 -0.9996973
vn -0.02471442 0.0004993151 -0.9996945
vn -0.02460091 0 -0.9996973
vn -0.02460104 1.072832E-06 -0.9996973
vn -0.9999956 0 0.002996289
vn -0.9999539 -0.002513267 0.009280051
vn -0.9999535 -0.001639019 0.009511378
vn -0.9999068 -0.002202095 0.01347235
vn -0.9997594 9.544775E-07 0.02193442
vn -0.0109522 -0.01150454 0.9998739
vn -0.01304522 -0.03916407 0.9991477
vn 0.02665126 -0.007783686 0.9996145
vn 0.02255129 -1.096314E-06 0.9997457
vn 0.06358968 -1.594588E-06 0.9979761
vn -0.01304522 -0.03916407 0.9991477
vn -0.0109522 -0.01150454 0.9998739
vn -0.02213778 3.994192E-07 0.999755
vn 0.3630619 0.7125127 0.6004263
vn 0.486847 0.6237191 0.6115182
vn 0.4484205 0.6632041 0.5992323
vn 0.4743018 0.7216512 0.5042393
vn 0.3523104 0.8067415 0.4743897
vn 0.4439452 0.5857458 0.6780963
vn 0.6526921 -0.5307505 0.540645
vn 0.586675 -0.4804377 0.6519141
vn 0.5955673 -0.5417573 0.5931259
vn 0.4557728 -0.6861231 0.5670152
vn 0.4022566 -0.7805261 0.4785068
vn 0.1764346 -0.9231304 0.3416154
vn 0.618579 -0.7128685 0.3304217
g Area_LY_Build_Common_Pillar_01_C_Lod2_0
f 3/3/3 2/2/2 1/1/1
f 4/4/4 1/1/1 2/2/2
f 2/2/2 3/3/3 5/5/5
f 8/8/8 7/7/7 6/6/6
f 8/8/8 9/9/9 7/7/7
f 10/10/10 7/7/7 9/9/9
f 13/13/13 12/12/12 11/11/11
f 14/14/14 13/13/13 11/11/11
f 15/15/15 13/13/13 14/14/14
f 13/13/13 15/15/15 16/16/16
f 19/19/19 18/18/18 17/17/17
f 20/20/20 17/17/17 18/18/18
f 23/23/23 22/22/22 21/21/21
f 23/23/23 24/24/24 22/22/22
f 25/25/25 22/22/22 24/24/24
f 28/28/28 27/27/27 26/26/26
f 29/29/29 28/28/28 26/26/26
f 30/30/30 27/27/27 28/28/28
f 33/33/33 32/32/32 31/31/31
f 36/36/36 35/35/35 34/34/34
f 37/37/37 35/35/35 36/36/36
f 36/36/36 38/38/38 37/37/37
f 39/39/39 38/38/38 36/36/36
f 42/42/42 41/41/41 40/40/40
f 42/42/42 43/43/43 41/41/41
f 44/44/44 41/41/41 43/43/43
f 45/45/45 44/44/44 43/43/43
f 46/46/46 42/42/42 40/40/40
