g Area_Common_Build_ShortWall_E_01_Col
v -0.6135534 -0.2435591 2.934286
v 0.6610497 -0.2435591 -3.109909
v -0.5784166 -0.2435591 -3.109909
v 0.6610497 -0.2435592 2.934286
v -0.5801735 2.344873 2.934286
v 0.6272008 2.344873 2.934286
v 0.6330883 2.344873 0.06329346
v 0.6436535 2.344873 -3.109909
v -0.5784166 2.344873 -3.109909
v -0.5784166 2.344873 -1.635523
v 0.6276428 2.328496 -0.5490997
v 0.6382079 2.344873 -1.635522
v -0.5801735 2.344873 0.06329346
v -0.5801735 2.276218 -0.5490997
v -0.5784166 2.276218 -0.8513095
v 0.5473733 2.481106 2.934286
v -0.498589 2.481106 2.934286
v -0.498589 2.481106 -0.08781147
v 0.5532608 2.481106 -0.08781147
v 0.5478153 2.463867 -0.7324359
v -0.498589 2.408838 -0.7324359
v 0.5583804 2.481106 -1.557923
v -0.498589 2.481106 -1.557923
v 0.563826 2.481106 -3.109909
v -0.498589 2.481106 -3.109909
v 0.372784 2.2694 0.8344206
v 0.6867561 2.2694 0.1339309
v 0.372784 2.2694 0.1339309
v 0.6867561 2.2694 0.8344206
v 0.6613699 2.49791 0.8344206
v 0.372784 2.49791 0.8344206
v 0.6613699 2.49791 0.1339309
v 0.372784 2.49791 0.1339309
v 0.5726411 2.572076 0.8206485
v 0.4361267 2.572076 0.8206485
v 0.5726411 2.572076 0.3602226
v 0.4361267 2.572076 0.3602226
v 0.2999786 2.259928 -2.273358
v 0.6716666 2.259929 -3.102616
v 0.2999786 2.259929 -3.102616
v 0.6716666 2.259928 -2.273358
v 0.6716666 2.618245 -2.273358
v 0.2999786 2.618245 -2.273358
v 0.6716666 2.618244 -3.102616
v 0.2999786 2.618244 -3.102616
v -0.6138878 2.2694 1.899644
v -0.2999157 2.2694 1.199155
v -0.6138878 2.2694 1.199155
v -0.2999157 2.2694 1.899644
v -0.6138878 2.533334 1.899644
v -0.2707201 2.488426 1.899645
v -0.2707201 2.488427 1.199155
v -0.6138878 2.488427 1.199155
v -0.2707201 2.553159 1.899645
v -0.533593 2.55316 1.899644
v -0.2707201 2.55316 1.199155
v -0.533593 2.55316 1.199155
v -0.6475073 1.290735 3.197757
v -0.2290702 1.290735 2.264202
v -0.6475073 1.290735 2.264202
v -0.2290702 1.290735 3.197757
v -0.2290702 1.756523 3.197758
v -0.6475073 1.756523 3.197757
v -0.2290702 1.756524 2.264202
v -0.6475073 1.756524 2.264202
v -0.7016246 0.8895632 3.057741
v -0.2831875 0.8895638 2.124185
v -0.7016246 0.8895638 2.124185
v -0.2831875 0.8895632 3.057741
v -0.2831875 1.263363 3.057742
v -0.7016246 1.263363 3.057741
v -0.2831875 1.263364 2.124186
v -0.7016246 1.263364 2.124186
v 0.3137568 1.446248 3.130767
v 0.7321939 1.446248 2.736659
v 0.3137568 1.446248 2.736659
v 0.7321939 1.446248 3.130767
v 0.7321939 1.820047 3.130767
v 0.3137568 1.820047 3.130767
v 0.7321939 1.820048 2.736659
v 0.3137568 1.820048 2.736659
v -0.156626 2.346648 2.961394
v 0.3265851 2.346649 2.506279
v -0.156626 2.346649 2.506279
v 0.3265851 2.346648 2.961394
v 0.2204334 2.552361 2.861415
v -0.008794135 2.601397 2.861414
v 0.2204334 2.552361 2.606259
v -0.008794135 2.601397 2.606259
vn -0.5819695 -0.5742056 0.5758466
vn 0.5805067 -0.5751469 -0.5763836
vn -0.576574 -0.577105 -0.5783703
vn 0.5812023 -0.574106 0.5767202
vn -0.7286948 0.2065743 0.6529402
vn 0.7282795 0.2028692 0.6545632
vn 0.9646031 0.2636508 -0.005411131
vn 0.7311564 0.2009102 -0.6519549
vn -0.731225 0.1984552 -0.6526299
vn -0.9642579 0.264833 0.00837181
vn 0.9662454 0.2575555 -0.005928321
vn 0.9645869 0.2636159 0.008873963
vn -0.961753 0.2737904 -0.008365465
vn -0.9696715 0.2432971 -0.02331669
vn -0.9675752 0.2522928 0.01210863
vn 0.3933074 0.6871706 0.6108238
vn -0.3902657 0.6886092 0.6111548
vn -0.5080263 0.8601139 -0.04597148
vn 0.5027904 0.8642536 -0.01635716
vn 0.4779907 0.8783457 -0.005812339
vn -0.5311907 0.8471039 -0.01585783
vn 0.4935104 0.8694419 0.02276855
vn -0.4967392 0.866928 0.04105919
vn 0.3947278 0.6872622 -0.6098037
vn -0.3938142 0.6872035 -0.6104604
vn -0.5773503 -0.5773503 0.5773501
vn 0.6113172 -0.5471638 -0.5717545
vn -0.5773503 -0.5773501 -0.5773504
vn 0.6113171 -0.5471641 0.5717542
vn 0.669629 0.3804986 0.6378226
vn -0.7067654 0.2893151 0.6455845
vn 0.5733369 0.5196648 -0.6334298
vn -0.6027237 0.4840123 -0.6343945
vn 0.2561978 0.7831583 0.5665913
vn -0.322687 0.7679125 0.5533384
vn 0.2980049 0.9488267 -0.1045038
vn -0.3763966 0.920692 -0.1032078
vn -0.5773503 -0.5773506 0.57735
vn 0.5773503 -0.57735 -0.5773504
vn -0.5773503 -0.57735 -0.5773504
vn 0.5773503 -0.5773507 0.5773498
vn 0.5773501 0.5773502 0.5773506
vn -0.5773506 0.5773504 0.57735
vn 0.5773503 0.5773502 -0.5773503
vn -0.5773503 0.5773502 -0.5773503
vn -0.5773502 -0.5773505 0.5773502
vn 0.5344292 -0.6103941 -0.5846404
vn -0.5773504 -0.5773503 -0.5773502
vn 0.5344292 -0.6103942 0.5846403
vn -0.6337353 0.5163653 0.5759743
vn 0.7198312 -0.04776548 0.6925038
vn 0.7198312 -0.04776465 -0.6925039
vn -0.7057955 0.3374476 -0.6228819
vn 0.5773501 0.5773493 0.5773515
vn -0.1040087 0.7345426 0.670544
vn 0.5773502 0.5773504 -0.5773503
vn -0.2558924 0.7251195 -0.6393126
vn -0.5773504 -0.5773505 0.57735
vn 0.5773503 -0.57735 -0.5773506
vn -0.5773503 -0.57735 -0.5773505
vn 0.5773503 -0.5773506 0.5773499
vn 0.5773502 0.5773499 0.5773507
vn -0.5773506 0.5773501 0.5773502
vn 0.5773503 0.5773506 -0.57735
vn -0.5773503 0.5773506 -0.57735
vn -0.5773503 -0.5773505 0.57735
vn 0.5773503 -0.5773499 -0.5773507
vn -0.5773503 -0.5773499 -0.5773507
vn 0.5773503 -0.5773507 0.5773499
vn 0.5773501 0.5773497 0.5773509
vn -0.5773506 0.57735 0.5773503
vn 0.5773502 0.5773509 -0.5773498
vn -0.5773503 0.5773509 -0.5773498
vn -0.5773503 -0.5773508 0.5773498
vn 0.5773503 -0.5773495 -0.577351
vn -0.5773503 -0.5773495 -0.5773509
vn 0.5773502 -0.577351 0.5773496
vn 0.5773502 0.5773493 0.5773512
vn -0.5773506 0.5773496 0.5773507
vn 0.5773501 0.5773512 -0.5773494
vn -0.5773502 0.5773512 -0.5773495
vn -0.6776609 -0.347969 0.6478375
vn 0.6746844 -0.3560336 -0.6465609
vn -0.6849521 -0.3526205 -0.6375731
vn 0.6664693 -0.3486802 0.6589695
vn 0.4822609 0.749676 0.4532222
vn -0.3144323 0.8257349 0.4682888
vn 0.5021092 0.7582119 -0.4159339
vn -0.3263948 0.8345835 -0.4437756
g Area_Common_Build_ShortWall_E_01_Col_0
f 3/3/3 2/2/2 1/1/1
f 4/4/4 1/1/1 2/2/2
f 1/1/1 4/4/4 5/5/5
f 6/6/6 5/5/5 4/4/4
f 7/7/7 6/6/6 4/4/4
f 2/2/2 3/3/3 8/8/8
f 9/9/9 8/8/8 3/3/3
f 10/10/10 9/9/9 3/3/3
f 4/4/4 2/2/2 11/11/11
f 11/11/11 7/7/7 4/4/4
f 12/12/12 11/11/11 2/2/2
f 8/8/8 12/12/12 2/2/2
f 5/5/5 13/13/13 1/1/1
f 13/13/13 14/14/14 1/1/1
f 1/1/1 14/14/14 3/3/3
f 15/15/15 3/3/3 14/14/14
f 15/15/15 10/10/10 3/3/3
f 6/6/6 16/16/16 5/5/5
f 17/17/17 5/5/5 16/16/16
f 17/17/17 16/16/16 18/18/18
f 13/13/13 18/18/18 14/14/14
f 13/13/13 5/5/5 18/18/18
f 17/17/17 18/18/18 5/5/5
f 19/19/19 18/18/18 16/16/16
f 16/16/16 6/6/6 19/19/19
f 7/7/7 19/19/19 6/6/6
f 7/7/7 11/11/11 19/19/19
f 19/19/19 20/20/20 18/18/18
f 11/11/11 12/12/12 20/20/20
f 20/20/20 19/19/19 11/11/11
f 21/21/21 18/18/18 20/20/20
f 21/21/21 14/14/14 18/18/18
f 21/21/21 15/15/15 14/14/14
f 22/22/22 21/21/21 20/20/20
f 22/22/22 20/20/20 12/12/12
f 12/12/12 8/8/8 22/22/22
f 23/23/23 21/21/21 22/22/22
f 10/10/10 23/23/23 9/9/9
f 10/10/10 15/15/15 23/23/23
f 21/21/21 23/23/23 15/15/15
f 22/22/22 24/24/24 23/23/23
f 25/25/25 23/23/23 24/24/24
f 24/24/24 8/8/8 25/25/25
f 24/24/24 22/22/22 8/8/8
f 9/9/9 25/25/25 8/8/8
f 25/25/25 9/9/9 23/23/23
f 28/28/28 27/27/27 26/26/26
f 29/29/29 26/26/26 27/27/27
f 29/29/29 30/30/30 26/26/26
f 29/29/29 27/27/27 30/30/30
f 31/31/31 26/26/26 30/30/30
f 32/32/32 30/30/30 27/27/27
f 27/27/27 28/28/28 32/32/32
f 33/33/33 32/32/32 28/28/28
f 31/31/31 33/33/33 26/26/26
f 28/28/28 26/26/26 33/33/33
f 30/30/30 34/34/34 31/31/31
f 35/35/35 31/31/31 34/34/34
f 31/31/31 35/35/35 33/33/33
f 34/34/34 36/36/36 35/35/35
f 34/34/34 30/30/30 36/36/36
f 32/32/32 36/36/36 30/30/30
f 32/32/32 33/33/33 36/36/36
f 37/37/37 35/35/35 36/36/36
f 37/37/37 36/36/36 33/33/33
f 37/37/37 33/33/33 35/35/35
f 40/40/40 39/39/39 38/38/38
f 41/41/41 38/38/38 39/39/39
f 41/41/41 42/42/42 38/38/38
f 43/43/43 38/38/38 42/42/42
f 38/38/38 43/43/43 40/40/40
f 42/42/42 44/44/44 43/43/43
f 39/39/39 44/44/44 41/41/41
f 42/42/42 41/41/41 44/44/44
f 45/45/45 43/43/43 44/44/44
f 40/40/40 45/45/45 39/39/39
f 44/44/44 39/39/39 45/45/45
f 45/45/45 40/40/40 43/43/43
f 48/48/48 47/47/47 46/46/46
f 49/49/49 46/46/46 47/47/47
f 46/46/46 49/49/49 50/50/50
f 51/51/51 50/50/50 49/49/49
f 49/49/49 47/47/47 51/51/51
f 52/52/52 51/51/51 47/47/47
f 47/47/47 48/48/48 52/52/52
f 53/53/53 52/52/52 48/48/48
f 50/50/50 53/53/53 46/46/46
f 48/48/48 46/46/46 53/53/53
f 51/51/51 54/54/54 50/50/50
f 55/55/55 50/50/50 54/54/54
f 50/50/50 55/55/55 53/53/53
f 54/54/54 56/56/56 55/55/55
f 54/54/54 51/51/51 56/56/56
f 52/52/52 56/56/56 51/51/51
f 57/57/57 55/55/55 56/56/56
f 56/56/56 52/52/52 57/57/57
f 53/53/53 57/57/57 52/52/52
f 57/57/57 53/53/53 55/55/55
f 60/60/60 59/59/59 58/58/58
f 61/61/61 58/58/58 59/59/59
f 61/61/61 62/62/62 58/58/58
f 63/63/63 58/58/58 62/62/62
f 58/58/58 63/63/63 60/60/60
f 62/62/62 64/64/64 63/63/63
f 59/59/59 64/64/64 61/61/61
f 62/62/62 61/61/61 64/64/64
f 65/65/65 63/63/63 64/64/64
f 60/60/60 65/65/65 59/59/59
f 64/64/64 59/59/59 65/65/65
f 65/65/65 60/60/60 63/63/63
f 68/68/68 67/67/67 66/66/66
f 69/69/69 66/66/66 67/67/67
f 69/69/69 70/70/70 66/66/66
f 71/71/71 66/66/66 70/70/70
f 66/66/66 71/71/71 68/68/68
f 70/70/70 72/72/72 71/71/71
f 67/67/67 72/72/72 69/69/69
f 70/70/70 69/69/69 72/72/72
f 73/73/73 71/71/71 72/72/72
f 68/68/68 73/73/73 67/67/67
f 72/72/72 67/67/67 73/73/73
f 73/73/73 68/68/68 71/71/71
f 76/76/76 75/75/75 74/74/74
f 77/77/77 74/74/74 75/75/75
f 77/77/77 78/78/78 74/74/74
f 79/79/79 74/74/74 78/78/78
f 74/74/74 79/79/79 76/76/76
f 78/78/78 80/80/80 79/79/79
f 75/75/75 80/80/80 77/77/77
f 78/78/78 77/77/77 80/80/80
f 81/81/81 79/79/79 80/80/80
f 76/76/76 81/81/81 75/75/75
f 80/80/80 75/75/75 81/81/81
f 81/81/81 76/76/76 79/79/79
f 84/84/84 83/83/83 82/82/82
f 85/85/85 82/82/82 83/83/83
f 85/85/85 86/86/86 82/82/82
f 87/87/87 82/82/82 86/86/86
f 82/82/82 87/87/87 84/84/84
f 86/86/86 88/88/88 87/87/87
f 83/83/83 88/88/88 85/85/85
f 86/86/86 85/85/85 88/88/88
f 89/89/89 87/87/87 88/88/88
f 84/84/84 89/89/89 83/83/83
f 88/88/88 83/83/83 89/89/89
f 89/89/89 84/84/84 87/87/87
