g Area_Common_Build_Camp_C_02_Col
v -0.5714473 0.2452924 -0.0127351
v -0.3016652 -0.08743332 -0.3216676
v -0.2733589 0.3214031 -0.3152902
v -0.6258076 -0.08093078 -0.009898853
v -0.6234785 -0.08093093 0.3230751
v -0.5708784 0.2604941 0.2911184
v -0.1583308 0.9781661 0.2148825
v -0.3262501 0.2518236 0.5144924
v -0.3561427 -0.08093109 0.579554
v 0.1194133 0.4409998 0.6457818
v 0.5935106 -0.1267114 0.9955559
v 0.716978 0.1950976 0.6852238
v 0.7548271 -0.1267112 0.6173602
v 0.007582283 -0.1095006 -0.9638252
v 0.5739549 -0.0641095 -0.8993747
v 0.03196277 0.3947145 -0.8766153
v 0.4531157 0.3850993 -0.8345937
v -0.2268525 0.397514 -0.8138023
v -0.08189709 1.251259 -0.1135308
v -0.269839 -0.09393585 -0.8048966
v -0.00775402 1.130664 -0.3702235
v 0.4179692 1.105486 -0.3511238
v 0.3930174 1.175436 -0.08308967
v 0.1194133 0.4409998 0.6457818
v 0.6255205 0.3751075 -0.728893
v 0.8935912 0.07169754 -0.4269315
v 0.6178093 0.3877267 -0.02479761
v 1.254051 0.07927589 -0.4645912
v 0.8935912 -0.07251999 -0.4269314
v 1.254051 -0.08093048 -0.4645913
v 1.451528 0.1340731 0.1307053
v 1.486068 -0.1038209 0.1404599
v 1.25876 0.3975197 -0.05093534
v 1.011604 0.1340725 0.39384
v -0.1547706 0.1198445 0.9850084
v 0.4701543 0.119844 0.98063
v 0.2723393 0.1198444 1.274752
v 0.04315967 0.1198448 0.690966
v 0.2723393 -0.02671875 1.274752
v 0.4701543 -0.02671917 0.98063
v 0.04315967 -0.02671841 0.690966
v -0.1547706 -0.02671867 0.9850084
v -1.849536 0.1033104 -0.1950514
v -0.9129414 0.03322719 0.05001205
v -1.703828 0.1050366 0.2882126
v -1.058649 0.03150104 -0.4332545
v -1.703828 -0.02671875 0.2882129
v -0.9129414 -0.02671917 0.05001205
v -1.058649 -0.02671841 -0.4332545
v -1.849536 -0.02671867 -0.1950514
vn -0.8998368 0.266281 -0.3455258
vn -0.6041242 -0.7568848 -0.2493179
vn -0.9106407 0.1747329 -0.3744353
vn -0.7664172 -0.5661124 -0.3035152
vn -0.7589126 -0.5580897 0.3355408
vn -0.8698682 0.3318721 0.3649522
vn -0.4549138 0.6661987 0.5909591
vn -0.5196288 0.2975069 0.8009218
vn -0.4616005 -0.571692 0.6783018
vn -0.3111373 0.3740107 0.8736758
vn 0.2930548 -0.4121272 0.8627109
vn 0.7821842 0.4349589 0.4460925
vn 0.6193609 -0.7039115 0.347708
vn -0.1295543 -0.6068229 -0.7842076
vn 0.4390821 -0.516433 -0.7351897
vn -0.05349755 0.3709951 -0.9270926
vn 0.2838579 0.3794047 -0.8806115
vn -0.7126133 0.3051572 -0.6317131
vn -0.4226646 0.9055329 0.03694141
vn -0.7068996 -0.5736828 -0.4137401
vn -0.2811199 0.7437817 -0.6064325
vn 0.5668106 0.7042521 -0.4274983
vn 0.530624 0.8202559 0.2135843
vn 0.1999971 0.6516386 0.7316887
vn 0.7518826 0.3962237 -0.5269529
vn 0.4515029 0.4733183 -0.7563828
vn 0.770772 0.6370668 -0.007506579
vn 0.4694183 0.3590507 -0.8066778
vn 0.2344353 -0.8236112 -0.5164346
vn 0.4282155 -0.5841584 -0.6894857
vn 0.8571158 0.4019549 0.3221562
vn 0.8037331 -0.5409268 0.2478134
vn 0.4219587 0.9045243 -0.06153547
vn 0.2080536 0.6069059 0.7670587
vn -0.8014967 0.5775399 0.155083
vn 0.8014517 0.5775601 -0.1552397
vn 0.1552951 0.5771412 0.8017427
vn -0.1551344 0.5771618 -0.801759
vn 0.1552947 -0.5771393 0.8017443
vn 0.801451 -0.5775611 -0.1552396
vn -0.1551349 -0.5771605 -0.8017598
vn -0.8014969 -0.5775397 0.1550827
vn -0.696122 0.6030256 -0.3895822
vn 0.741439 0.5505755 0.3835817
vn -0.3650761 0.6052263 0.7074042
vn 0.4058286 0.5484681 -0.7310854
vn -0.3862084 -0.577365 0.7193698
vn 0.7193881 -0.577335 0.386219
vn 0.3862083 -0.5773653 -0.7193694
vn -0.7193888 -0.5773346 -0.3862181
g Area_Common_Build_Camp_C_02_Col_0
f 3/3/3 2/2/2 1/1/1
f 4/4/4 1/1/1 2/2/2
f 4/4/4 5/5/5 1/1/1
f 6/6/6 1/1/1 5/5/5
f 1/1/1 6/6/6 7/7/7
f 6/6/6 8/8/8 7/7/7
f 6/6/6 5/5/5 8/8/8
f 9/9/9 8/8/8 5/5/5
f 5/5/5 4/4/4 9/9/9
f 2/2/2 9/9/9 4/4/4
f 8/8/8 9/9/9 10/10/10
f 10/10/10 7/7/7 8/8/8
f 11/11/11 10/10/10 9/9/9
f 9/9/9 2/2/2 11/11/11
f 11/11/11 12/12/12 10/10/10
f 11/11/11 13/13/13 12/12/12
f 14/14/14 13/13/13 11/11/11
f 15/15/15 13/13/13 14/14/14
f 15/15/15 14/14/14 16/16/16
f 16/16/16 17/17/17 15/15/15
f 16/16/16 14/14/14 18/18/18
f 3/3/3 19/19/19 18/18/18
f 14/14/14 20/20/20 18/18/18
f 20/20/20 14/14/14 11/11/11
f 18/18/18 20/20/20 3/3/3
f 18/18/18 21/21/21 16/16/16
f 19/19/19 21/21/21 18/18/18
f 16/16/16 21/21/21 17/17/17
f 21/21/21 22/22/22 17/17/17
f 21/21/21 23/23/23 22/22/22
f 19/19/19 23/23/23 21/21/21
f 23/23/23 12/12/12 22/22/22
f 7/7/7 23/23/23 19/19/19
f 23/23/23 7/7/7 24/24/24
f 23/23/23 24/24/24 12/12/12
f 7/7/7 19/19/19 1/1/1
f 1/1/1 19/19/19 3/3/3
f 2/2/2 3/3/3 20/20/20
f 2/2/2 20/20/20 11/11/11
f 17/17/17 25/25/25 15/15/15
f 17/17/17 22/22/22 25/25/25
f 25/25/25 26/26/26 15/15/15
f 25/25/25 27/27/27 26/26/26
f 22/22/22 27/27/27 25/25/25
f 22/22/22 12/12/12 27/27/27
f 28/28/28 26/26/26 27/27/27
f 26/26/26 28/28/28 29/29/29
f 30/30/30 29/29/29 28/28/28
f 28/28/28 31/31/31 30/30/30
f 32/32/32 30/30/30 31/31/31
f 30/30/30 32/32/32 29/29/29
f 33/33/33 31/31/31 28/28/28
f 33/33/33 28/28/28 27/27/27
f 13/13/13 32/32/32 31/31/31
f 13/13/13 29/29/29 32/32/32
f 13/13/13 27/27/27 12/12/12
f 29/29/29 13/13/13 15/15/15
f 29/29/29 15/15/15 26/26/26
f 31/31/31 34/34/34 13/13/13
f 33/33/33 34/34/34 31/31/31
f 33/33/33 27/27/27 34/34/34
f 13/13/13 34/34/34 27/27/27
f 37/37/37 36/36/36 35/35/35
f 38/38/38 35/35/35 36/36/36
f 37/37/37 39/39/39 36/36/36
f 40/40/40 36/36/36 39/39/39
f 36/36/36 40/40/40 38/38/38
f 38/38/38 41/41/41 35/35/35
f 41/41/41 38/38/38 40/40/40
f 42/42/42 35/35/35 41/41/41
f 35/35/35 42/42/42 37/37/37
f 39/39/39 37/37/37 42/42/42
f 41/41/41 40/40/40 42/42/42
f 39/39/39 42/42/42 40/40/40
f 45/45/45 44/44/44 43/43/43
f 46/46/46 43/43/43 44/44/44
f 45/45/45 47/47/47 44/44/44
f 48/48/48 44/44/44 47/47/47
f 44/44/44 48/48/48 46/46/46
f 46/46/46 49/49/49 43/43/43
f 49/49/49 46/46/46 48/48/48
f 50/50/50 43/43/43 49/49/49
f 43/43/43 50/50/50 45/45/45
f 47/47/47 45/45/45 50/50/50
f 49/49/49 48/48/48 50/50/50
f 47/47/47 50/50/50 48/48/48
