g Area_Common_Build_Pillar_B_08_Col
v -1.045116 0.002114258 -1.052822
v -1.045117 4.070384 1.070032
v -1.045117 0.002113953 1.070029
v -1.045116 4.070384 -1.052819
v 1.068131 4.070383 1.070031
v 1.068132 0.002113448 1.070029
v 1.068134 4.070385 -1.052819
v 1.068134 0.002114258 -1.052822
vn -0.5773501 -0.5773501 -0.5773506
vn -0.5773502 0.5773502 0.5773504
vn -0.5773506 -0.5773504 0.5773498
vn -0.5773502 0.5773504 -0.5773501
vn 0.5773498 0.5773501 0.5773509
vn 0.57735 -0.5773506 0.5773503
vn 0.5773506 0.5773506 -0.5773495
vn 0.5773506 -0.57735 -0.5773503
g Area_Common_Build_Pillar_B_08_Col_0
f 3/3/3 2/2/2 1/1/1
f 4/4/4 1/1/1 2/2/2
f 2/2/2 3/3/3 5/5/5
f 2/2/2 5/5/5 4/4/4
f 6/6/6 5/5/5 3/3/3
f 5/5/5 6/6/6 7/7/7
f 7/7/7 4/4/4 5/5/5
f 8/8/8 7/7/7 6/6/6
f 1/1/1 4/4/4 8/8/8
f 7/7/7 8/8/8 4/4/4
f 6/6/6 3/3/3 8/8/8
f 1/1/1 8/8/8 3/3/3
