g Area_Common_Build_Hili_House_23_D_Col
v 1.555083 3.816882 -5.763904
v 5.995317 2.23955 -5.982715
v 4.231359 3.644042 -4.218758
v 2.200736 2.239552 -8.173518
v 8.186115 2.239547 -2.188136
v 5.448474 3.961172 -1.542482
v 8.186117 2.239547 2.193466
v 5.448476 3.961173 1.547812
v 6.004351 2.221112 5.99657
v 4.235874 3.664613 4.22835
v 1.943996 3.527206 5.773497
v 2.719809 1.971008 8.187373
v -2.180871 2.239553 -8.173516
v -1.535215 3.774565 -5.796365
v -5.975447 2.239551 -5.982714
v -4.211487 3.527124 -4.218754
v -5.756633 3.735764 -1.542482
v -8.166248 2.239552 -2.188134
v -5.756632 3.767663 1.547813
v -8.166246 2.239548 2.193466
v -4.211483 3.673833 4.224086
v -5.975443 2.239547 5.988044
v 3.810095 4.612884 1.020915
v 3.810094 4.612883 -1.015584
v 2.798389 4.92919 -0.7444897
v 2.051234 4.738218 -2.038602
v 2.791846 4.372226 -2.779243
v 0.7571207 4.929193 -2.785758
v 1.028186 4.570592 -3.797493
v 2.79839 4.92919 0.7498215
v 2.791845 4.570587 2.784575
v 2.051233 4.929189 2.043932
v 1.279534 4.690779 3.802823
v 0.9991048 5.039562 2.791089
v -0.9700647 4.929189 2.791088
v -1.2502 4.676434 3.802823
v -2.771971 4.38364 2.784574
v -2.0313 4.742242 2.043932
v -3.79022 4.596488 1.020914
v -2.778456 4.929191 0.7498202
v -3.790222 4.595437 -1.015583
v -2.778458 4.929191 -0.7444897
v -2.771973 4.378096 -2.77924
v -2.031301 4.741942 -2.0386
v -1.008317 4.671321 -3.797492
v -0.7371928 4.929191 -2.785756
v 0.0165776 3.979272 5.933241
v -1.89731 3.509928 5.769235
v -0.01139167 4.021413 8.198315
v -2.742205 1.938174 8.178847
v 1.819142 1.957752 5.312778
v 6.004351 1.856366 5.99657
v 3.866483 1.957563 3.904674
v 8.186117 1.874802 2.193466
v 8.186116 1.874802 -2.188136
v 5.995317 1.874804 -5.982716
v 2.200736 1.874806 -8.173516
v -2.180871 1.874807 -8.173516
v -5.975447 1.874805 -5.982715
v -8.166248 1.874806 -2.188134
v -8.166246 1.874802 2.193466
v -5.975443 1.874801 5.988044
v 3.863565 1.957332 -3.792093
v 1.424658 1.957572 -5.200196
v 5.271664 1.957572 -1.353188
v 5.271666 1.957571 1.463016
v -5.23855 1.957571 1.463015
v -3.830447 1.957571 3.901919
v -1.791156 1.957599 5.310021
v -5.238554 1.957572 -1.353187
v -3.830449 1.957336 -3.792091
v -1.391549 1.957572 -5.200194
v 1.935095 4.47718 1.927752
v 2.639727 4.47718 0.7072965
v 0.9428504 4.581271 2.632384
v -0.9142422 4.47718 2.632383
v -1.915076 4.477182 1.927752
v -2.619708 4.477182 0.7072952
v -2.619709 4.477181 -0.7019647
v -1.915077 4.30059 -1.92242
v -0.6946243 4.477181 -2.627051
v 0.7146391 4.477183 -2.627053
v 1.935097 4.297077 -1.922422
v 2.639726 4.47718 -0.7019646
v 0.32234 4.868808 -0.3299319
v 0.4479325 5.091766 -0.3635934
v 0.4479329 5.091766 0.367755
v 0.3223403 4.868808 0.3340935
v 0.3681196 5.091873 -0.4434676
v -0.36323 5.091872 -0.4434666
v -0.3295341 4.868914 -0.3178403
v 0.3344923 4.868915 -0.3178411
v 0.4577764 5.141365 0.4455414
v -0.505978 5.087346 0.445541
v 0.4132471 4.913435 0.3199147
v -0.4617906 4.864388 0.3199143
v -0.4431622 5.09198 0.367753
v -0.4431628 5.09198 -0.3635949
v -0.3175015 4.869022 0.3340915
v -0.3175021 4.869022 -0.3299333
vn 0.1336569 0.8910556 -0.433769
vn 0.6291209 0.4667752 -0.6215527
vn 0.3203543 0.8976912 -0.3025289
vn 0.230915 0.4516636 -0.8617878
vn 0.8564355 0.4608217 -0.2327267
vn 0.4196703 0.8958158 -0.1462557
vn 0.8590575 0.4579074 0.2287814
vn 0.4245057 0.8956124 0.1329407
vn 0.6317359 0.4732038 0.6139933
vn 0.3065176 0.8885645 0.3413211
vn 0.312574 0.879637 0.3585197
vn 0.4598188 -0.3318342 0.8236825
vn -0.2313791 0.4536592 -0.8606144
vn -0.1470745 0.8879629 -0.4357646
vn -0.6244442 0.4723923 -0.622025
vn -0.3088749 0.9019261 -0.3018703
vn -0.4316911 0.8914304 -0.1378209
vn -0.8574111 0.4600008 -0.23075
vn -0.4340858 0.8909459 0.1333605
vn -0.8570506 0.45973 0.2326213
vn -0.3156334 0.8935246 0.3193577
vn -0.6311203 0.4798038 0.609488
vn 0.3165738 0.9431662 0.101087
vn 0.2989388 0.9445091 -0.1361542
vn -0.05896536 0.974622 -0.2159518
vn -0.2364213 0.9413415 0.2407932
vn 0.2444618 0.9392676 -0.2408627
vn 0.2141442 0.9759701 0.04030529
vn 0.1400991 0.9436028 -0.2999766
vn -0.05565185 0.9850263 0.163175
vn 0.2827033 0.9235517 0.2590969
vn -0.2321664 0.9364392 -0.2630217
vn 0.1715956 0.9246437 0.3399839
vn 0.1590849 0.9862422 -0.04492687
vn -0.2250043 0.9708124 -0.08304471
vn -0.1695643 0.9421052 0.2892849
vn -0.2749457 0.9403586 0.200326
vn 0.2060677 0.9603836 -0.1876151
vn -0.3197763 0.9375949 0.1365976
vn 0.04467154 0.976608 0.2103358
vn -0.3243384 0.9367696 -0.1314048
vn 0.05113222 0.9758431 -0.2124046
vn -0.265546 0.9280883 -0.2610312
vn 0.2378547 0.9395505 0.2463129
vn -0.1360908 0.9444547 -0.2991398
vn -0.195001 0.9777258 0.07763184
vn -0.004242639 0.9813073 0.1924006
vn -0.3109372 0.876641 0.3671763
vn -0.006834114 0.7546808 0.6560565
vn -0.4667268 -0.3414381 0.8158346
vn -0.09329252 -0.953223 -0.2875106
vn 0.5385277 -0.6717914 0.50861
vn -0.24818 -0.9414406 -0.228246
vn 0.7242482 -0.6621668 0.192353
vn 0.7239761 -0.6619996 -0.1939461
vn 0.5300661 -0.6619089 -0.5300062
vn 0.1940188 -0.6618764 -0.7240692
vn -0.1940206 -0.6618717 -0.724073
vn -0.5300626 -0.6618833 -0.5300417
vn -0.7240151 -0.6619561 -0.193949
vn -0.7239191 -0.6620412 0.1940168
vn -0.539622 -0.6709571 0.5085515
vn -0.2225982 -0.9479395 0.2277301
vn -0.08791032 -0.9463519 0.3109498
vn -0.3149678 -0.9454026 0.08372087
vn -0.3129497 -0.9460184 -0.0843305
vn 0.3136601 -0.9457466 -0.08473879
vn 0.243516 -0.9441558 -0.221968
vn 0.08935687 -0.9546767 -0.2839149
vn 0.3094917 -0.9469624 0.08647031
vn 0.228787 -0.947715 0.2224701
vn 0.08529093 -0.9442941 0.3178587
vn -0.723316 -0.2729132 -0.6342969
vn -0.7662914 -0.6393616 0.0633567
vn 0.04374456 -0.6256525 -0.7788745
vn -0.01310519 -0.6407973 -0.7675983
vn 0.7433211 -0.161178 -0.6492268
vn 0.7682008 -0.6371117 0.0628982
vn 0.7836478 -0.619707 -0.04312053
vn 0.6848097 -0.3051401 0.6617591
vn -0.05853209 -0.625442 0.7780722
vn 0.04434278 -0.6159329 0.7865496
vn -0.6603142 -0.3067048 0.6855052
vn -0.7753481 -0.6288975 -0.05764697
vn -0.2221921 -0.8082473 -0.5453136
vn -0.08236603 0.6259995 -0.7754615
vn -0.08505146 0.6281384 0.7734393
vn -0.2242705 -0.8082781 0.5444164
vn 0.7717807 0.6298949 0.08710347
vn -0.7766023 0.6248147 0.08059396
vn -0.5459233 -0.8080555 0.2213911
vn 0.5438642 -0.8080001 0.2266
vn 0.7452615 0.6510948 -0.1437395
vn -0.7864115 0.6061984 -0.1186609
vn 0.5470503 -0.8024144 -0.2384686
vn -0.4897102 -0.8392419 -0.2363411
vn 0.08304964 0.6268466 0.7747039
vn 0.0850635 0.6284988 -0.7731451
vn 0.2239561 -0.8078094 0.5452409
vn 0.2254956 -0.8078433 -0.5445556
g Area_Common_Build_Hili_House_23_D_Col_0
f 3/3/3 2/2/2 1/1/1
f 4/4/4 1/1/1 2/2/2
f 2/2/2 3/3/3 5/5/5
f 6/6/6 5/5/5 3/3/3
f 5/5/5 6/6/6 7/7/7
f 8/8/8 7/7/7 6/6/6
f 7/7/7 8/8/8 9/9/9
f 10/10/10 9/9/9 8/8/8
f 10/10/10 11/11/11 9/9/9
f 12/12/12 9/9/9 11/11/11
f 4/4/4 13/13/13 1/1/1
f 14/14/14 1/1/1 13/13/13
f 13/13/13 15/15/15 14/14/14
f 16/16/16 14/14/14 15/15/15
f 16/16/16 15/15/15 17/17/17
f 18/18/18 17/17/17 15/15/15
f 17/17/17 18/18/18 19/19/19
f 20/20/20 19/19/19 18/18/18
f 19/19/19 20/20/20 21/21/21
f 22/22/22 21/21/21 20/20/20
f 8/8/8 23/23/23 10/10/10
f 23/23/23 8/8/8 24/24/24
f 24/24/24 25/25/25 23/23/23
f 25/25/25 24/24/24 26/26/26
f 27/27/27 26/26/26 24/24/24
f 26/26/26 27/27/27 28/28/28
f 29/29/29 28/28/28 27/27/27
f 30/30/30 23/23/23 25/25/25
f 23/23/23 30/30/30 31/31/31
f 32/32/32 31/31/31 30/30/30
f 31/31/31 32/32/32 33/33/33
f 34/34/34 33/33/33 32/32/32
f 34/34/34 35/35/35 33/33/33
f 36/36/36 33/33/33 35/35/35
f 36/36/36 35/35/35 37/37/37
f 38/38/38 37/37/37 35/35/35
f 37/37/37 38/38/38 39/39/39
f 40/40/40 39/39/39 38/38/38
f 39/39/39 40/40/40 41/41/41
f 42/42/42 41/41/41 40/40/40
f 41/41/41 42/42/42 43/43/43
f 44/44/44 43/43/43 42/42/42
f 43/43/43 44/44/44 45/45/45
f 46/46/46 45/45/45 44/44/44
f 45/45/45 46/46/46 29/29/29
f 28/28/28 29/29/29 46/46/46
f 47/47/47 33/33/33 36/36/36
f 37/37/37 21/21/21 36/36/36
f 48/48/48 36/36/36 21/21/21
f 48/48/48 47/47/47 36/36/36
f 21/21/21 37/37/37 19/19/19
f 39/39/39 19/19/19 37/37/37
f 19/19/19 39/39/39 17/17/17
f 41/41/41 17/17/17 39/39/39
f 17/17/17 41/41/41 16/16/16
f 43/43/43 16/16/16 41/41/41
f 16/16/16 43/43/43 14/14/14
f 45/45/45 14/14/14 43/43/43
f 14/14/14 45/45/45 1/1/1
f 29/29/29 1/1/1 45/45/45
f 1/1/1 29/29/29 3/3/3
f 27/27/27 3/3/3 29/29/29
f 3/3/3 27/27/27 6/6/6
f 24/24/24 6/6/6 27/27/27
f 6/6/6 24/24/24 8/8/8
f 49/49/49 47/47/47 48/48/48
f 50/50/50 49/49/49 48/48/48
f 11/11/11 47/47/47 49/49/49
f 11/11/11 33/33/33 47/47/47
f 33/33/33 11/11/11 31/31/31
f 10/10/10 31/31/31 11/11/11
f 31/31/31 10/10/10 23/23/23
f 50/50/50 12/12/12 49/49/49
f 49/49/49 12/12/12 11/11/11
f 12/12/12 50/50/50 51/51/51
f 12/12/12 51/51/51 52/52/52
f 53/53/53 52/52/52 51/51/51
f 52/52/52 53/53/53 54/54/54
f 54/54/54 7/7/7 52/52/52
f 7/7/7 54/54/54 5/5/5
f 55/55/55 5/5/5 54/54/54
f 5/5/5 55/55/55 2/2/2
f 56/56/56 2/2/2 55/55/55
f 2/2/2 56/56/56 4/4/4
f 57/57/57 4/4/4 56/56/56
f 9/9/9 52/52/52 7/7/7
f 52/52/52 9/9/9 12/12/12
f 4/4/4 57/57/57 13/13/13
f 58/58/58 13/13/13 57/57/57
f 13/13/13 58/58/58 15/15/15
f 59/59/59 15/15/15 58/58/58
f 15/15/15 59/59/59 18/18/18
f 60/60/60 18/18/18 59/59/59
f 18/18/18 60/60/60 20/20/20
f 61/61/61 20/20/20 60/60/60
f 20/20/20 61/61/61 22/22/22
f 62/62/62 22/22/22 61/61/61
f 56/56/56 63/63/63 57/57/57
f 64/64/64 57/57/57 63/63/63
f 57/57/57 64/64/64 58/58/58
f 63/63/63 56/56/56 65/65/65
f 55/55/55 65/65/65 56/56/56
f 65/65/65 55/55/55 66/66/66
f 54/54/54 66/66/66 55/55/55
f 66/66/66 54/54/54 53/53/53
f 61/61/61 67/67/67 62/62/62
f 68/68/68 62/62/62 67/67/67
f 62/62/62 68/68/68 50/50/50
f 62/62/62 50/50/50 22/22/22
f 69/69/69 50/50/50 68/68/68
f 67/67/67 61/61/61 70/70/70
f 60/60/60 70/70/70 61/61/61
f 70/70/70 60/60/60 71/71/71
f 59/59/59 71/71/71 60/60/60
f 71/71/71 59/59/59 72/72/72
f 58/58/58 72/72/72 59/59/59
f 72/72/72 58/58/58 64/64/64
f 69/69/69 51/51/51 50/50/50
f 53/53/53 73/73/73 66/66/66
f 74/74/74 66/66/66 73/73/73
f 73/73/73 32/32/32 74/74/74
f 30/30/30 74/74/74 32/32/32
f 32/32/32 73/73/73 34/34/34
f 75/75/75 34/34/34 73/73/73
f 73/73/73 53/53/53 75/75/75
f 51/51/51 75/75/75 53/53/53
f 75/75/75 51/51/51 76/76/76
f 69/69/69 76/76/76 51/51/51
f 76/76/76 69/69/69 77/77/77
f 77/77/77 38/38/38 76/76/76
f 35/35/35 76/76/76 38/38/38
f 38/38/38 77/77/77 40/40/40
f 78/78/78 40/40/40 77/77/77
f 68/68/68 77/77/77 69/69/69
f 77/77/77 68/68/68 78/78/78
f 67/67/67 78/78/78 68/68/68
f 78/78/78 67/67/67 79/79/79
f 70/70/70 79/79/79 67/67/67
f 79/79/79 70/70/70 80/80/80
f 80/80/80 44/44/44 79/79/79
f 42/42/42 79/79/79 44/44/44
f 44/44/44 80/80/80 46/46/46
f 81/81/81 46/46/46 80/80/80
f 71/71/71 80/80/80 70/70/70
f 80/80/80 71/71/71 81/81/81
f 72/72/72 81/81/81 71/71/71
f 81/81/81 72/72/72 82/82/82
f 64/64/64 82/82/82 72/72/72
f 82/82/82 64/64/64 83/83/83
f 83/83/83 26/26/26 82/82/82
f 28/28/28 82/82/82 26/26/26
f 26/26/26 83/83/83 25/25/25
f 84/84/84 25/25/25 83/83/83
f 63/63/63 83/83/83 64/64/64
f 83/83/83 63/63/63 84/84/84
f 65/65/65 84/84/84 63/63/63
f 84/84/84 65/65/65 74/74/74
f 66/66/66 74/74/74 65/65/65
f 84/84/84 85/85/85 25/25/25
f 86/86/86 25/25/25 85/85/85
f 25/25/25 86/86/86 30/30/30
f 87/87/87 30/30/30 86/86/86
f 30/30/30 87/87/87 74/74/74
f 74/74/74 88/88/88 84/84/84
f 85/85/85 84/84/84 88/88/88
f 88/88/88 74/74/74 87/87/87
f 28/28/28 89/89/89 82/82/82
f 89/89/89 28/28/28 90/90/90
f 46/46/46 90/90/90 28/28/28
f 90/90/90 46/46/46 91/91/91
f 81/81/81 91/91/91 46/46/46
f 91/91/91 81/81/81 92/92/92
f 82/82/82 92/92/92 81/81/81
f 92/92/92 82/82/82 89/89/89
f 34/34/34 93/93/93 35/35/35
f 94/94/94 35/35/35 93/93/93
f 93/93/93 34/34/34 95/95/95
f 75/75/75 95/95/95 34/34/34
f 95/95/95 75/75/75 96/96/96
f 76/76/76 96/96/96 75/75/75
f 35/35/35 94/94/94 76/76/76
f 96/96/96 76/76/76 94/94/94
f 40/40/40 97/97/97 42/42/42
f 98/98/98 42/42/42 97/97/97
f 97/97/97 40/40/40 99/99/99
f 78/78/78 99/99/99 40/40/40
f 99/99/99 78/78/78 100/100/100
f 79/79/79 100/100/100 78/78/78
f 42/42/42 98/98/98 79/79/79
f 100/100/100 79/79/79 98/98/98
f 21/21/21 22/22/22 48/48/48
f 50/50/50 48/48/48 22/22/22
