g Area_Common_Build_Camp_B_01_B_Col
v 1.17608 3.045033 0.2698265
v 0.1764537 5.830382 0.2698266
v 1.17608 5.830382 0.2698266
v 0.1764537 3.045033 0.2698265
v 1.17608 3.045034 -0.2698266
v 0.1764537 3.045034 -0.2698266
v 0.1764537 5.830383 -0.2698265
v 1.17608 5.830383 -0.2698265
v 1.17608 8.464928 0.2698267
v 0.1764537 8.464928 0.2698267
v 0.1764537 8.464928 -0.2698264
v 1.17608 8.464928 -0.2698264
v -1.310424 8.464928 0.2698267
v -1.310424 5.830382 0.2698266
v -1.310424 8.464928 -0.2698264
v -1.310424 5.830383 -0.2698265
vn 0.5773501 -0.5773506 0.57735
vn -0.3015116 -0.3015115 0.9045339
vn 0.7071068 0 0.7071068
vn -0.5773501 -0.5773506 0.57735
vn 0.5773503 -0.5773499 -0.5773506
vn -0.5773503 -0.57735 -0.5773506
vn -0.301511 -0.3015112 -0.9045342
vn 0.7071068 0 -0.7071068
vn 0.5773502 0.5773503 0.5773503
vn 0 0.7071068 0.7071068
vn 0 0.7071068 -0.7071068
vn 0.5773502 0.5773503 -0.5773503
vn -0.5773503 0.5773503 0.5773502
vn -0.5773503 -0.5773506 0.57735
vn -0.5773503 0.5773502 -0.5773503
vn -0.5773503 -0.5773499 -0.5773506
g Area_Common_Build_Camp_B_01_B_Col_0
f 3/3/3 2/2/2 1/1/1
f 4/4/4 1/1/1 2/2/2
f 1/1/1 4/4/4 5/5/5
f 1/1/1 5/5/5 3/3/3
f 6/6/6 5/5/5 4/4/4
f 4/4/4 2/2/2 6/6/6
f 6/6/6 7/7/7 5/5/5
f 7/7/7 6/6/6 2/2/2
f 8/8/8 5/5/5 7/7/7
f 8/8/8 3/3/3 5/5/5
f 3/3/3 9/9/9 2/2/2
f 10/10/10 2/2/2 9/9/9
f 10/10/10 9/9/9 11/11/11
f 7/7/7 11/11/11 8/8/8
f 12/12/12 11/11/11 9/9/9
f 12/12/12 8/8/8 11/11/11
f 9/9/9 3/3/3 12/12/12
f 8/8/8 12/12/12 3/3/3
f 10/10/10 13/13/13 2/2/2
f 14/14/14 2/2/2 13/13/13
f 2/2/2 14/14/14 7/7/7
f 13/13/13 15/15/15 14/14/14
f 11/11/11 15/15/15 10/10/10
f 13/13/13 10/10/10 15/15/15
f 16/16/16 14/14/14 15/15/15
f 7/7/7 16/16/16 11/11/11
f 15/15/15 11/11/11 16/16/16
f 16/16/16 7/7/7 14/14/14
